<svg id="Layer_1" data-name="Layer 1" xmlns="http://www.w3.org/2000/svg" viewBox="0 0 61 55"><defs><style>.cls-1{fill:#fff;fill-rule:evenodd;}</style></defs><title>1</title><path class="cls-1" d="M4.5,17.5s-4.5,1.59-4,8,11,20.08,20,27,11.67-8.16,19-10,15.29-5.47,21-19S17,6,17,6Z"/><path d="M51.22,9.76A2.22,2.22,0,0,0,51,8.82h0a2.86,2.86,0,0,0-.18-.4C49.9,6.2,46.7,4.62,44.6,3.5,39.54.78,34.92-1.92,30.09,2.32c-6.66,5.84-14,14.2-16.83,22.67-2.31,6.82,6.38,15,9.66,20.11a.75.75,0,0,0,1.17.08C28,41,33.64,31.7,40.53,32.89c1.93.33,4,1,5.44-.68,4.17-4.73,3.22-14.74,5.05-20.58a.76.76,0,0,0,0-.2A4,4,0,0,0,51.22,9.76ZM15.06,26.53c.12.15.24.3.35.45l-.18.19L15.15,27s-.07,0-.08,0C15.06,26.88,15.06,26.7,15.06,26.53Zm1-.19.26.43-.4.41-.27-.4Zm0-.27c.34-.31.67-.65,1-1q-.46.55-.93,1.09Zm2.44,4.18.08.14-.36.36-.05-.1Zm-.11-.44.06-.07.07.11-.06.08Zm.26.24.1.16-.07.07-.1-.15Zm0-.52.87-1-.81,1Zm.09,1.1.07.1a.11.11,0,0,0-.07.17l.28.36-.27.27c-.12-.18-.25-.36-.37-.55Zm2.94-.39L21,30.9l-.2-.3a.08.08,0,0,0-.14.09l.22.32-.58.56-.16-.18c-.08-.08-.18,0-.22,0l-.11-.17,1.44-1.67C21.39,29.82,21.54,30,21.69,30.25Zm-.42-1.16.11-.11-.1.12Zm3.31,2.23-.42.44-.23-.31.45-.45s0,0,0,0ZM25.8,33l.42.56-.37.34-.43-.51Zm-.34.08.22-.25h0Zm1.74,2,.09-.12.22.28-.11.12Zm.25.49-.1.11-.07-.11.1-.11Zm-.1-.68v0c.09-.14-.07-.3-.18-.21l-.5-.69.1-.13c.29.42.58.83.86,1.26l-.07.07Zm-.39,0-.09.11c-.17-.22-.35-.44-.53-.65l.26-.31.52.65-.09.11-.27-.36s-.13,0-.09.06Zm-2,3.43-.09.1-.19-.26.24-.27.18.19a.16.16,0,0,0-.15.21Zm-3-2.11a.16.16,0,0,0-.07.06h0l0-.06L22,36l.05.06Zm.09.47h0Zm-.83.29,0,0-.06,0,0,0Zm-.1,0L21,36.88l.05,0,.06.08Zm0-.49-.29-.38.32-.3.33.36Zm-1-1.39.23-.22.07.09-.25.25s0,0,0,0Zm0,.59h0l-.07-.09h0ZM18.81,31.6h0l.26-.26.15.2-.22.27ZM19,33.23l0,0,0,0,0,0ZM18.5,34.3l-.17-.19.09-.08.23.4c0,.13.09.27.13.4l-.3-.34h0l0,0A.09.09,0,0,0,18.5,34.3Zm-.11.15h0l0,0Zm-1.25-2.29.13-.12c.33.61.68,1.21,1,1.81l-.09.08C17.85,33.35,17.49,32.77,17.15,32.17Zm.79,1.49-.05-.06-.16-.27Zm-1.6-4.13h0a.06.06,0,0,0-.07,0l0,0Zm0-.09v0l0,.07Zm0,.94,0,0-.05-.16ZM16.3,29l-.19-.32.26-.33.19.31Zm-.35-.12,0-.06.19.32,0,0Zm.19.33,0,0L16,29Zm.93.21.05.16-.14.15-.2-.39.13-.15Zm-.1-.31h0v0Zm.27,1.27,0,0L17,30.13l0,0ZM17.12,30l.13-.12c0,.1.08.21.13.31l-.09.11Zm-.45-.89,0,0s0,0,0,0l.12-.15.05.08Zm-.06.07,0,0,0-.06h0l0,0Zm-.17.53c0,.1.06.21.1.31l0-.07-.08-.22Zm0,.86.22.39-.08.1c-.07-.14-.13-.29-.19-.44Zm.19-1.15,0,0,.2.38,0,0Zm.23,1.89.17.31,0,.05-.12.15c-.07-.13-.13-.27-.19-.41Zm.18.87c.18.33.36.66.56,1-.2-.31-.42-.61-.64-.9Zm.82.16-.07.07-.34-.62,0,0Zm0-.9h0l.37.57h0Zm-.15-.22v0h0l0,0ZM17.67,31l-.14-.25.07-.07.13.25Zm-.05.07,0,0-.17-.25,0,0ZM18.2,33a.09.09,0,0,0-.09,0l-.24-.43.08-.08h0a.06.06,0,0,0,0,.1c.19.22.38.46.56.7Zm.08-.85h0l.48.7Zm.24,1.55,0,0,0,0Zm0-1.08.33.43,0,0Zm.89-.82.31.41-.2.2L19.18,32Zm-.14-.61.08-.08.13.18-.07.09ZM20,32.59l.31.47-.16.15-.35-.44Zm0-.36.07-.06,0,0-.07.06Zm.54.62,0,0-.33-.45.06-.06ZM20.29,32l0,0h0Zm.93-.47.31.46-.49.44L20.67,32Zm-.06-.38.69-.66.08.12-.71.63ZM26,34.56l-.12.14-.19-.26.11-.11Zm-.07-.34.06-.06.17.21-.05.06Zm-.39.92-.11.13-.23-.34.1-.1Zm-.17-.37.24-.24.2.27-.23.28Zm.25.47.13.18-.14.12-.11-.16Zm0,0,.24-.28.21.3a.1.1,0,0,0-.13,0l-.18.16Zm.1-1.18-.43-.51.06-.06.43.51Zm-.13.12-.1.09-.4-.53.06-.06Zm-.19.18-.24.22L24.82,34l.22-.21Zm-1.55.61.35.41,0,.06,0,0L23.85,35Zm0-.62.41-.39,0,.06-.38.42Zm.45,1.5.42.53-.11.1-.43-.51Zm.12-.11,0,0,.39.57h0Zm-.27-1v0l.4-.39.37.52-.34.31Zm.25-.91,0,0,0,0,0,0Zm.16-.16.25-.24s0,0,0,0l-.22.25Zm.11.52.05-.05.4.51-.09.08Zm.15-.77.07-.07h0l-.06.07Zm.08-.39-.78-1,.09-.09.77,1Zm-.16.14-.33.3-.71-1,.24-.25Zm-.46.42,0,0c-.21-.27-.41-.55-.63-.81-.06-.07-.18,0-.12.08l.62.85-.51.47a.15.15,0,0,0-.17.16h0l-.66-.92.77-.8Zm-.61,1.12h0Zm-.07-.09h0l0,0h0Zm-.55.48.41-.38,0,0-.4.4Zm.16,1.16-.31-.42,0,0Zm-.54-2.91-.27-.38.78-.73.25.32Zm0,2.23-.09.09,0-.06.09-.09Zm0-.1.05,0,0,.06,0,0Zm-.09.39-.05,0,0,0,.05-.05Zm-.07-.61-.31-.42.11-.11.27.46ZM21.6,36l-.17-.2-.13-.19.21-.2.31.39Zm.11.37-.1.09,0-.07.08-.07Zm-.38-2.08.18.23,0,0,0,0h0l-.12-.2Zm0-.33.12-.11.09.12a.09.09,0,0,0-.12,0l0,0Zm.34,1.24h0L21.47,35Zm-.13-.62,0,0,.33.41,0,0Zm0-.41.07-.07a.07.07,0,0,0,0-.08l.22.31h0l.31.42-.1.1Zm.31.07h0l-.31-.43.16-.15.29.44Zm-.42-.57-.28-.41a.12.12,0,0,0,0-.14l-.16-.24.14-.12c.19.21.38.43.56.65ZM21,33.32l.28.41-.12.12-.53-.72,0,0,.14.21A.13.13,0,0,0,21,33.32Zm.17,1.12,0,.07a.12.12,0,0,0-.06.1l-.07-.1Zm0-.34h0l0,.06h0Zm-.37.75.09-.09.08.11-.12.07Zm0,.1-.08,0,0-.06.07-.07Zm.12-.65.09-.09,0,.07-.09.09Zm0-.23-.1.1-.1-.14,0,0c.1-.09-.06-.22-.15-.13h0l-.32-.44.15-.13C20.64,33.54,20.8,33.8,21,34.06Zm-.25.47.06.08-.17.17-.06-.09Zm-.16.57h0l-.07,0Zm0,0,.51.59-.31.3-.5-.68.09-.09Zm.19-.11.08,0,.4.6h0C21.09,35.41,20.93,35.22,20.78,35Zm.09-.06L21,34.9l.26.33a0,0,0,0,0,.08,0l.14.18-.21.2Zm.42.67,0,.06,0-.05Zm.37-.35,0,0,.31.39,0,0Zm.21-.2,0,0,.32.4,0,0Zm.15-.14.1-.1.3.42-.1.09Zm.38.71.05.06-.05.05-.05-.07Zm-.29-.92-.28-.38h0l.11-.11.23.34,0,0Zm0-.9-.3-.4.42-.4.27.39Zm.12-1.07-.46-.67.75-.67L23,32Zm-.12.12-.42.41-.52-.67.47-.41Zm-1.62-1,0-.06.56-.53.06.09Zm.33.74-.11.09-.31-.46,0,0Zm-1,.88-.06.06L19.53,33l0,0Zm-.25-.9.2-.18,0,0-.2.18Zm.2-.54-.31-.43.08-.09.31.45Zm-.42.8,0,0,0,0,0,0Zm-.17-.23h0l0,0Zm-.22.52,0,0,0,0,0,0Zm.08.29.35.47-.08.07-.33-.5Zm0,0,0,0,.35.48,0,0Zm.44.67.13.17s0,0,0,0L19.62,34l0,0,.33.42-.2.17-.27-.42s0,0,0,0h0Zm.37-.32.07-.07.33.43-.11.09Zm.53.54.11.15-.17.16-.12-.16Zm-.33,1.45.75.95,0,0c-.24-.32-.48-.65-.72-1Zm1.28.92-.12.1,0,0,0,0,.14-.12Zm-.13.52.1.11a.07.07,0,0,0-.11,0l0-.06Zm.08-.37.08-.07,0,0-.07.06Zm.33.84a.27.27,0,0,0,0,.08l0,0-.27-.38Zm-.07-.44.05,0,0,0Zm0-.58,0,0,.11-.1,0,0Zm.43-.43,0,0,0,0h0Zm0-.24.05,0,.05.07-.06.05Zm.17.09,0,0-.06.06,0,0Zm0,.36.32.41h0l-.35-.38Zm.1-.09.06-.06.4.52-.07.07Zm.31-.66,0,.05-.09.08,0,0ZM22.24,34l.39-.4.65.91-.4.37Zm.53,1.58,0,.06,0,0,0-.05Zm.08.31.38.52-.08.07-.39-.51Zm.34-.65a.1.1,0,0,0,0,.05l0-.06.4-.4v0Zm.54-.14.37.5-.14.13h0c-.08-.1-.25,0-.17.11l0,0-.13.12-.21-.28-.16-.22Zm-.3,1.56.42.56-.07.07-.43-.56Zm.15-.14,0,0,.45.53-.11.11Zm.31-.29.13-.12.42.53-.13.13Zm.39,1,.39.41-.2.22-.33-.49ZM24.5,37l.13-.14.35.42-.11.12C24.75,37.27,24.61,37.13,24.5,37Zm.3-.3.11-.1.33.41-.1.11Zm.43-.81-.46-.53.3-.3.25.35-.13.16c0,.06,0,.14.09.08l.11-.14.1.14Zm.2.23.25-.23.25.35-.2.24Zm.16,1.52h0l-.22-.25.1-.11.06.08A2.52,2.52,0,0,0,25.58,37.63Zm.18-1.84.15-.14.22.3-.14.18Zm.18-.16.18-.16a.14.14,0,0,0,0-.14l.22.32-.09.11,0,0-.12.15Zm.38.6,0,0a0,0,0,1,0,0,0l0,0,0,0c0,.06,0,.12.06.17l-.17.18-.07-.11ZM26,34.82l.13-.15.1.11c.07.08.18,0,.11-.12l-.1-.12,0,0,.51.69-.28.36C26.28,35.31,26.13,35.06,26,34.82Zm.62-1-.11-.16.12-.12.1.15Zm-.09.11-.3.38h0l-.17-.2.36-.35Zm-.17-.46-.41-.58.13-.14.41.6ZM25,32.88l-.76-1,.42-.44c.25.36.5.71.75,1.06Zm-.91-1.07-.09.09-.24-.3.1-.1Zm-.26.27-.23.24L23.37,32l.22-.22Zm-.2-.65-.46-.59.11-.11.45.6Zm-.19.18-.21.21-.45-.61L23,31Zm-.42-1-.36-.46.13-.12.35.47Zm-.21.18-.19.17-.34-.46.17-.15Zm-.64-.45-.09-.12.15-.14.1.13Zm.22.83-.74.66-.31-.47.71-.65ZM21.93,30l-.47-.67.11-.13.5.67Zm-2.28,1-.11-.16c.52-.52,1-1,1.52-1.57v0Zm-.15-.23-.37-.56c.52-.53,1-1.06,1.54-1.6.11.2.24.39.36.58C20.51,29.75,20,30.29,19.49,30.81Zm-.21.21-.08.08-.37-.56.07-.07Zm-1.22-.54-.1-.18.34-.37.08.13Zm.08-1L18,29.18l.06-.06.15.24Zm-.08.08-.34.36-.15-.26.35-.35Zm-.75-.39-.13-.26.44-.53.15.28Zm-.25-.42a.13.13,0,0,0-.19.15l0,.05-.06.06-.05-.09c.23-.28.45-.57.67-.86l.09.17Zm-.45-.1-.19-.31.42-.54c.05.11.12.22.16.34h0C16.88,28.25,16.75,28.43,16.62,28.59Zm-.26-.76L16,27.28l.4-.41c.11.18.2.38.3.57Zm-.67-.41h0v0l-.18.19s0,.11.08.07l.17-.17.38.58-.23.29-.43-.76A1.59,1.59,0,0,1,15.7,27.42Zm0,1.76.14.22.05.11-.11.14-.2-.35Zm-.35-1.38,0-.07c.13.26.27.52.41.77l-.05.07Zm.22-.56a1.45,1.45,0,0,0-.22.15l-.09-.17.18-.2.14.22Zm-.51-.15.07.12s0,0,0,0l0,0-.06.07C15.09,27.26,15.08,27.18,15.08,27.1Zm0,.29.06-.07.09.15,0,.05-.05-.1A.06.06,0,0,0,15.12,27.39Zm.07.9c.11.2.22.4.34.59l-.06.08a2.17,2.17,0,0,0-.26-.56Zm.4,1.65a.1.1,0,0,0,0,.06l0,0c0-.14-.07-.28-.11-.41l.1.19.06.18Zm.1.34-.08-.19.06,0,0,.14Zm0-.18,0,0,.07-.08a.15.15,0,0,0,.08-.09l.14-.15,0,.08-.34.4Zm.08.4h0l0,.09Zm.11.21,0-.1,0-.13.37-.41c0,.13.08.26.12.39l-.35.36Zm.16.3.32-.29c.06.15.13.3.19.45l-.26.3C16.22,31.32,16.14,31.16,16.06,31Zm.54.79a.07.07,0,0,0-.08,0v0l.23-.23c.07.15.13.3.2.44A.08.08,0,0,0,17,32l-.1.1C16.78,32,16.69,31.9,16.6,31.8Zm1.34,2.41q-.55-.74-1.07-1.53l.52.61.63.84Zm.12.15.07-.07.31.43.21.39Zm.63.39.13.14,0,.09Zm.63.24-.39-.73a.13.13,0,0,0-.09-.07l-.21-.35,0,0,.28.33.1.16a.1.1,0,0,0,.07.12l.1.16h0s0,0,0,0l.18.27Zm.5.58a.14.14,0,0,0-.16.05l-.07-.12s0,0,0,0l-.15-.26.12-.11c.1.14.18.29.28.43Zm.33-1,.13.16L20,35l-.12-.18ZM20,35.82l-.06-.1h0l.07.09Zm.57,3.09h0l0,0Zm.11-1.47-.11-.19h0l.13.17Zm-.42-1.18-.24-.4,0,0c.21.29.43.58.65.87Zm.54,1.31h0l0,0Zm0-.4-.06-.09,0,0,.08.07Zm.06.09v0l.06-.05,0,0Zm.4.58v0l0,0L21,37.41l.1-.08.42.39.1.16-.17.16Zm.75.91c-.15-.17-.3-.34-.44-.51l.15-.13c.13.2.27.39.41.57A.23.23,0,0,0,22,38.74Zm.14-1.39L22,37.24l-.25-.46.17-.13h0l.07.1a.19.19,0,0,0,0,.15l.21.36Zm.61.92q-.24-.33-.49-.64h0l.28.19.25.4Zm-.18-2.2.06-.05.4.51-.08.07ZM23,38.5h0v0Zm0-1.23-.06-.09.18.2s0,0,0,0l.07.13Zm.2,0h0l0,0L23,37.06,23,37l.17.22S23.19,37.23,23.19,37.24ZM23.33,39l0-.06.05,0Zm0-2-.14-.2.09-.08.44.55h0c-.06-.08-.12-.17-.19-.24A.16.16,0,0,0,23.33,37Zm.27,2.21,0,0,0,0Zm.24.31-.06.06-.18-.24Zm0,1.53-.18-.21,0,0,.05.08s0,0,0,0l.09.09,0,0ZM24.12,40l-.2-.24.08-.08.22.24ZM23.9,37.6l.14-.14.35.47-.17.18Zm.56,2.8-.23-.24.1-.09.23.21Zm0-2,.2-.2,0,0h0l.16.21-.22.24Zm.33.46.18-.2c.07.13.14.25.21.37l-.13.13Zm.43.5-.05-.06.11-.11,0,.06Zm.15-1.48-.22-.24.1-.12.22.24Zm.6.66a3.23,3.23,0,0,0-.26-.28.17.17,0,0,0-.11,0,.13.13,0,0,0,0-.13l0,0,.1-.11.18.2c0,.1.09.21.15.31s0,0,.06,0h0ZM26,36.8l-.06-.07,0,0,0,.09Zm.05,0,0,0,0,0Zm.2,1.4,0-.06c-.05-.09-.1-.18-.14-.27l.11.12.11.16Zm.16-1.52-.1-.11v0l.16-.17.08.15Zm.2.22,0-.05.09-.1.08.14A.18.18,0,0,0,26.6,36.94Zm0-1.12.27-.36.17.23-.32.33Zm.37,1.6,0-.06a1.77,1.77,0,0,0-.06-.17l.14.19Zm.09-.88-.1-.15.07-.07.08.1A.11.11,0,0,0,27.1,36.54Zm-.22-.35-.08-.13.32-.33.08.11Zm.18-.93.09-.12.2.26-.1.11Zm.45,1.62,0-.05,0,0Zm.11-.44h0a4.1,4.1,0,0,0-.33-.34l.07-.08.33.42,0,.07Zm.33,0c-.07-.12-.13-.25-.21-.37a.09.09,0,0,0-.14,0l-.11-.16.11-.12.08.1a.1.1,0,0,0,0,.09,1.89,1.89,0,0,1,.26.44v0Zm.17.3-.06-.1a.09.09,0,0,0,.07,0l0,0Zm.08-.57-.07-.09a.08.08,0,0,0-.1,0,2,2,0,0,0-.15-.22.11.11,0,0,0-.14,0l-.08-.11h0c.09-.1,0-.22-.14-.16l-.08-.11.12-.12.31.39s.08,0,.05,0l-.32-.41.07-.07c.19.3.38.6.55.92h0Zm-.46-1.42.13.14,0,0Zm.62.82.06.13a.12.12,0,0,0-.05.09q-.23-.4-.47-.8l0,0,.48.53A.08.08,0,0,0,28.35,35.53Zm.07.88-.14-.17.06-.07.17.16Zm.41-.39,0,0-.11-.2h0l.18.2Zm-.24-.63.09.08,0,.08Zm.4.5-.07-.09a.13.13,0,0,0,.1,0l.07.06Zm.16-.13L29,35.66a.12.12,0,0,0,0-.07l-.06-.06.27-.3c.07.1.12.21.18.32Zm.35-.3c-.06-.11-.12-.23-.19-.34l.14-.15c.09.11.18.22.26.33ZM49.34,11l0,0c-2.3,4.76-1,21.41-8.43,20.06a9.44,9.44,0,0,0-5.72.59c0-.05,0-.11-.1-.08a16.77,16.77,0,0,0-3.8,2.65l-.57.41-.5.29-.28-.3a.07.07,0,0,0-.12.08,1.93,1.93,0,0,0,.25.33l-.19.13c-.08-.13-.18-.25-.27-.38l.5-.55s0-.11-.08-.07l-.49.52h0a.1.1,0,1,0-.15.14v0l-.14.15s-.12,0-.08.07h0l-.3.32-.09-.1a.06.06,0,0,0-.07,0c-.2-.2-.42-.39-.61-.59h0l.16-.17.25.36c.07.11.25,0,.17-.11l-.3-.37.06-.06c.17.25.35.49.53.73,0,0,0,0,0,0-.18-.24-.36-.49-.53-.74l.25-.27a7.25,7.25,0,0,0,.42.64s0,0,0,0a7,7,0,0,1-.43-.64l1.18-1.27s0-.07,0,0L28.65,34c-.12-.21-.24-.42-.35-.64,0,0,0,0,0,0,.11.22.23.43.35.64l-.26.28c-.19-.27-.39-.54-.61-.79,0,0,0,0,0,0,.22.25.42.52.61.79l-.06.06-.13-.16c-.06-.07-.17,0-.12.08l.14.2-.16.18-.13-.18s.07,0,0-.07l-.14-.19s-.09,0-.07,0l0,0q-.34-.43-.7-.83A43.79,43.79,0,0,1,31,29s0-.07,0,0a42.52,42.52,0,0,0-4,4.41l-.09-.1.05-.05c.1-.1-.07-.25-.17-.15l-.11.1c-.15-.19-.31-.37-.47-.55l.86-.9c.07-.08-.05-.18-.12-.11-.36.38-.73.75-1.09,1.11l0,0C27.5,30.81,29.18,28.85,31,27c.06-.06,0-.13-.09-.08-1.61,1.54-3.13,3.18-4.63,4.83a.11.11,0,0,0-.1,0l-.62.58c-.25-.35-.52-.7-.78-1C26.13,30,27.52,28.6,29,27.29c.08-.07,0-.18-.12-.11-1.42,1.31-2.8,2.66-4.16,4l-.2-.26s0,0,0,0l1.81-1.8c.08-.08-.06-.21-.14-.12-.76.76-1.53,1.5-2.29,2.24l-.44-.6c.69-.64,1.38-1.28,2-1.94.09-.09-.06-.23-.15-.13-.66.65-1.34,1.27-2,1.88L22.87,30q1-.89,1.91-1.81l-1.12,1.16c-.1.11.07.25.17.15q3.23-3.34,6.39-6.74c.05-.06,0-.14-.09-.08-1.5,1.53-3,3.07-4.47,4.61,0,0-.05-.07-.09,0-1,1-2,1.88-3,2.78l-.1-.13c.67-.63,1.34-1.26,2-1.87.12-.11-.07-.27-.19-.16-.68.59-1.34,1.21-2,1.82L21.75,29c2.06-2.4,4.13-4.79,6.38-7,.07-.07,0-.16-.11-.1a85.16,85.16,0,0,0-5.9,6.22,0,0,0,0,0-.07,0l-.55.58-.15-.2c-.1-.12-.3,0-.2.14l.18.24-.11.12-.37-.52,0,0c1.1-1.18,2.19-2.38,3.31-3.54a0,0,0,0,0,0,0C22.37,26.58,20.67,28.3,19,30l-.13-.2c.42-.56.82-1.13,1.23-1.69A.07.07,0,0,0,20,28c.78-.89,1.55-1.79,2.3-2.68a.08.08,0,0,0-.12-.11c-1.21,1.35-2.53,2.62-3.8,3.94l-.15-.24c1.09-1.13,2.14-2.3,3.19-3.44.06-.07,0-.16-.11-.1-.92,1-1.88,1.91-2.84,2.85C20,26.67,21.4,25,22.9,23.49c0,0,0,0,0,0-1.68,1.6-3.37,3.22-4.93,4.94l-.17-.28c.38-.46.77-.91,1.19-1.34,0-.05,0-.12-.07-.07-.42.41-.8.85-1.19,1.28l-.11-.19c.64-.85,1.26-1.73,1.93-2.55-.73.76-1.44,1.53-2.12,2.34a.1.1,0,0,0-.1.12l-.19.22c0-.12-.11-.22-.17-.34.58-.77,1.15-1.55,1.77-2.27a.07.07,0,0,0-.11-.1c-.61.68-1.21,1.38-1.8,2.08-.1-.18-.2-.37-.31-.55.94-1,1.86-2,2.71-3,.05-.06,0-.14-.09-.08-.84,1-1.74,2-2.67,3l-.27-.43c.37-.41.72-.82,1.07-1.24,0,0,0,0,0,0,1.62-1.55,3.21-3.14,4.76-4.75.18-.18-.11-.43-.29-.26a62.47,62.47,0,0,0-6.13,6,.22.22,0,0,0,.32.28l.08-.08.08.13-.41.45a8.27,8.27,0,0,0-.57-.72c0-.15,0-.3,0-.45l2.11-2.31c.05-.06,0-.14-.09-.08l-2,2.22c.47-4.79,3.83-9,7.83-13.55C26,8.35,29.07,3.38,33.38,1.9c2,2.74,4.1,5.46,6.31,8.08Q38.3,11.54,37,13.16L36,12.1l1.41-1.85.17.18c.08.09.2-.05.12-.14l-.18-.19.94-1.23s0,0,0,0l-.94,1.23c-1.4-1.5-2.81-3-4.19-4.51,0-.05-.14,0-.09.08,1.32,1.59,2.77,3.07,4.17,4.58l-1.42,1.84c-.76-.8-1.51-1.6-2.25-2.41-.05-.06-.13,0-.08.09.73.83,1.48,1.63,2.24,2.43l-.55.71s0,0,0,0l.54-.71,1,1c-.42.51-.82,1-1.23,1.54h0c-.87-.92-1.7-1.89-2.52-2.86.07-.14.15-.29.22-.43s0,0,0,0l-.29.34a41.78,41.78,0,0,0-4-4.28c-.14-.13-.31.08-.19.22q2,2.15,4,4.26-.76.91-1.55,1.8c-1-1-2-1.93-3-2.87-.1-.09-.23.07-.14.15l3,2.87c-.82.92-1.64,1.84-2.42,2.78a.14.14,0,0,0,.21.19,29.78,29.78,0,0,0,2.55-2.64c1.49,1.42,3,2.84,4.52,4.23,0,0,.07,0,0,0-1.5-1.43-3-2.89-4.44-4.33a13.26,13.26,0,0,0,1.35-2l2.59,2.7-.82,1c-.14.18.11.4.26.23l.83-1q1.32,1.35,2.65,2.7l-.15.19c0,.06,0,.14.09.08l.14-.18q1.55,1.56,3.12,3.11s0,0,0,0c-1-1.05-2.07-2.09-3.1-3.13.42-.52.84-1.06,1.25-1.59L43.79,20s0,0,0,0L40,16.2q1.06-1.38,2.08-2.78c.06-.08-.05-.17-.11-.1q-1,1.4-2.07,2.78-1.3-1.3-2.59-2.62L40,10.3l.43.52s.13,0,.09-.06L40,10.21c.37-.44.76-.87,1.14-1.31a37.47,37.47,0,0,1,2.11,3.42s.07,0,.06,0a28,28,0,0,0-1.93-3.66l.5-.58c.79,1,1.6,2.08,2.44,3.08,0,0,.12,0,.09-.06C43.71,10,43,8.84,42.2,7.73c.85-.95,1.73-1.87,2.64-2.77.09-.09-.05-.2-.14-.12Q43.32,6.11,42,7.46a35.92,35.92,0,0,0-3.7-4.6c-.11-.12-.31.06-.21.19,1.24,1.55,2.41,3.16,3.61,4.74l-.49.53a35.39,35.39,0,0,0-5.31-6.45c-.09-.09-.25.05-.17.15C37.58,4.19,39.37,6.31,41,8.6c-.4.43-.8.85-1.19,1.29-2.14-2.63-4.15-5.36-6.22-8a8.58,8.58,0,0,1,6.35.54c.79.35,2,.83,3.27,1.42l.49.28s0,0,0,0c.34.16.71.37,1.08.55s.57.31.85.48c.49.3,1,.62,1.42.94,0,0,0,0,0,0l.09.06.26.22s0,0,0,0c.29.24.57.49.86.72l.13.13a5.92,5.92,0,0,1,1,1.69A3.63,3.63,0,0,1,49.34,11ZM37.21,13.59q1.29,1.31,2.61,2.6c-.41.53-.82,1.07-1.24,1.59q-1.33-1.34-2.64-2.7ZM22.29,22.48l-.66.65a9.09,9.09,0,0,1,.74-.56C22.45,22.53,22.36,22.41,22.29,22.48Zm-2.76,2.79q1-1.08,2.1-2.13A14,14,0,0,0,19.53,25.27Zm1-6.9c-1.09,1.52-2.25,3-3.4,4.46-.08.1.08.24.16.14,1.13-1.49,2.27-3,3.33-4.52C20.68,18.38,20.59,18.3,20.55,18.37Zm8.16,16.71a.07.07,0,0,0-.06.13l0,.06c0,.1.2,0,.15-.05S28.78,35.1,28.71,35.07Zm5.38-15.33a32.1,32.1,0,0,0-2.41,3c-.07.09.06.22.14.12.81-1,1.52-2.06,2.36-3A.06.06,0,0,0,34.09,19.74Zm5.26,6a.09.09,0,0,0,.14.12q.6-.62,1.16-1.26a6.53,6.53,0,0,0,1-1.17,0,0,0,0,0,0,0C40.76,23.67,39.94,25.06,39.35,25.75Z"/></svg>