<svg id="Layer_1" data-name="Layer 1" xmlns="http://www.w3.org/2000/svg" viewBox="0 0 23.45 24.45"><defs><style>.cls-1{fill:#231f20;}</style></defs><title>ilustracije_razmerje</title><path class="cls-1" d="M23.29,10.32l-.07,0a.11.11,0,0,0-.14,0H23l-.12,0h0a.07.07,0,0,0-.06,0,3.65,3.65,0,0,1-.81.13c-.44,0-.87,0-1.3-.05a11.38,11.38,0,0,1-1.63-.31,15.35,15.35,0,0,1-1.54-.9A22.17,22.17,0,0,1,15,6.94s0,0,0,0a55.36,55.36,0,0,0-3.39-4.42c-.18-.21-.37-.42-.56-.62A6.84,6.84,0,0,0,9.9.65C9.75.47,9.58.29,9.44.08A.26.26,0,0,0,9,.18a.09.09,0,0,0-.07.09C8.47.51,8.2,1.39,8,1.77l-.12.29,0,.07s0,0,0,0c-.26.61-.51,1.23-.74,1.86A36.84,36.84,0,0,0,5,7.77a53.89,53.89,0,0,0-3.53,6.31c-.18.33-.33.68-.48,1l-.14.29a6.35,6.35,0,0,0-.58,1.19v0h0c0,.09-.05.17-.08.26L0,17.22a.6.6,0,0,0,.27.67,1.12,1.12,0,0,0,.2.18h0l.14.08.07,0,.52.28,1.57.94h0s0,.07.05,0h0q.76.46,1.53.87c1.33.91,2.7,1.78,3.9,2.77a5.75,5.75,0,0,0,2.12,1.17h0a0,0,0,0,0,.07,0l0,0A6.27,6.27,0,0,0,14.05,24s0,0,0,0l0,0,.29-.09c2.71-.93,5.65-1.25,7.36-3.77,1.57-2.3,1.41-6,1.56-8.83h0C23.36,11.08,23.62,10.5,23.29,10.32Zm-20.92,4a8.17,8.17,0,0,1,1.16.53Q3.24,15.46,3,16l-.88-.5s-.07,0,0,0l.89.51-.17.4-.19-.12h0l.19.12,0,.07c-.37-.21-.75-.41-1.14-.59.17-.43.36-.85.54-1.28.06-.13.12-.26.18-.39A.06.06,0,0,0,2.36,14.36Zm5.46,2.23-.94-.5.39-.66,1.26.69-.14.23-.86-.46c-.06,0-.11.05-.05.09l.85.48-.08.13-.41-.23c-.07,0-.13.06-.07.1l.41.24-.55.88-.49-.34.34-.57s0,0,0,0l-.34.57-.63-.46.35-.59c.31.17.62.34.93.5C7.82,16.67,7.86,16.62,7.82,16.59Zm2.84-1.17s0,0,0,0l1.24.68-.24.37-1.22-.76Zm2.46,4.23.23.2-.61.85-.32-.21c.55-.81,1.08-1.63,1.64-2.44l.28.17s0,0,0,0L14.09,18l.22-.33c.13.11.26.23.38.35q-.63.83-1.24,1.68l-.21-.17C13.17,19.47,13,19.58,13.13,19.65Zm3.46,1.45.38.29-.42-.24ZM5.87,20.68s0,0,0,0l.5.35,0,0Zm-1.68-5.4.15.12-.58,1.09-.57-.32c.18-.38.36-.77.55-1.15Zm.23.76.23.16-.19.33-.31-.19h0l.31.19-.15.26-.46-.26.57-1.07.44.36-.2.35L4.44,16S4.4,16,4.42,16Zm12.65,5.44.21.16-.11-.05c-.08,0-.14.09-.06.13l.45.28a.07.07,0,0,0,0,.12l.15.08-.25,0s0-.08,0-.1l-.08,0a.08.08,0,0,0,0-.14.56.56,0,0,1-.26-.14s0,0,0,0l-.32-.28,0,0,.17.1A.05.05,0,0,0,17.07,21.47ZM2.83,17l.78.41.25.19-.1.18c-.33-.2-.67-.39-1-.58Zm10.38,4.16.32.18,0,.06-.29-.22ZM15,21.7a4.66,4.66,0,0,0,.61.36l0,0-.34-.17-.28-.2Zm1.7-.13.19.15a0,0,0,0,0,0,0l.09.06s0,0,0,0l-.36-.19ZM7.64,22l.14.06.09.06h0ZM1.71,17.83s0,0,0,0l-.08,0c-.17-.14-.34-.27-.5-.42h0L2.21,18l0,.12h0Zm0,.07.89.54s0,0,0,0l-.3-.19.89.53-.08.14C2.63,18.59,2.15,18.26,1.7,17.9Zm.6.28,0,0,0-.09.61.33.23.18-.32-.22s0,0,0,0l.38.29,0,.06Zm2.3-.28.06,0,.76.42-.1.18q-.58-.45-1.18-.87Zm4.89.83-.06.09L9,18.53c-.07,0-.13.06-.07.11l.38.3-.19.28-.8-.49.3-.43.26.14s0,0,0,0Zm1.31-.49-.36.52-.15-.11.36-.49Zm3,3.22.21.15-.06.08-.27-.18-.14-.11,0-.06Zm.34.21h0l.2.12.12.09-.08.1-.11-.08a.07.07,0,0,0-.08,0l-.13-.1.06-.08,0,0s0,0,0,0Zm3.11.61,0,0h0l-.22,0,0,0Zm.69-.22-.06,0v0Zm-9.83-3L8.17,19l.81.48,0,0-.18-.1s-.09,0,0,.07l.18.1,0,.06-.35-.21c-.06,0-.11.05-.06.09l.37.22h0l.34.2-.07.1-.41-.23-.73-.5.15-.21.48.3s0,0,0,0Zm5.43,2.38.27.21-.17-.08-.16-.12,0,0ZM4.86,17.71,5,17.48l.66.43-.11.19-.45-.25ZM5,17.43l.07-.11.68.4-.08.14Zm5.31,2.29-.13.22-.38-.26.16-.23Zm-.26-.4.11-.17.36.21-.13.22Zm6.16,3.05h0l.18.13a.09.09,0,0,0,0,.07l-.07,0h0l-.1-.06,0,0A0,0,0,0,0,16.25,22.37Zm.5,0,0,.07-.09-.06s0,0,0,0h.13Zm-.58,0h.06s0,0,0,0l0,0-.05,0,0,0Zm-.47,0a.06.06,0,0,0,0,.09s0,0,0,0h0a.06.06,0,0,0,0,.07h0l0,0-.19-.14.1-.11ZM6,19.79H6l0,0Zm1.25.51.06,0,.66.46H8l-.77-.44h0Zm3.38.19.05,0h0ZM12.91,22h0L13,22l0,0-.28-.15,0,0h0Zm.64,1.46-.11,0h0l.14.06h0Zm-1.06-1.6h0l-.13-.08.1,0Zm-1.41-.24.37.2h0l0,0-.15,0-.39-.21,0,0,.44.25h0ZM13.39,23l-.09,0,.12,0Zm-1-.5h0a.06.06,0,0,0,0,0l.06,0Zm-.72-.22-.34-.15v0l.28.13.05,0ZM11.29,22h0l-.05,0Zm.39,1.35,0,0h0l-.05,0Zm2-.67,0,0,.06,0ZM11.21,22a0,0,0,0,0-.06,0L11,22Zm.35,1.42v0l0,0h0Zm-.66-1.5.31.2h-.07l-.46-.24h0Zm-.05.43h0l-.08,0,.12,0Zm3,.4h0l0,0h0l0,0Zm-.67-.09h0a.5.5,0,0,0-.14-.14l.2.08A.12.12,0,0,0,13.17,22.68Zm-2.38.5-.06,0,.07,0Zm3.1-.39s0,0,0,0l-.09,0,0,0,.27.1C14.11,22.87,14,22.84,13.88,22.79Zm-.11-.09s0,0,0,0h0Zm-.27-.22,0,0,.32.15,0,0Zm-.12-.05h0l0,0,0-.05.11,0Zm-.45,0-.08,0h0Zm-1.23-.45-.19-.08v0Zm-1.21,0h0L10,21.88l0,0,.06-.09Zm3.57.76-.19-.08,0,0,.15.08ZM12.64,22h0l.24.17Zm.15.33,0,0,0,0-.1,0s0,0,0,0l-.22-.11h0Zm-2-.77-.26-.18.29.14Zm-.84.2-.05.08-.21-.13h0l0-.06Zm1,1.42-.13-.05-.1-.05h0Zm2.17-1-.11,0h0l.1.05ZM13,22.11h0L12.82,22l.17.09Zm-2.91-.61-.13,0-.08,0v0Zm-.29-.12-.17-.11.18.09Zm-.16.25-.33-.22.36.17Zm.64.67,0,0-.07-.05Zm.4.71h0l-.18-.09Zm-.45-.17-.09,0h0Zm2.95-.7h0L13,22.1l0,0,.25.12Zm-.95-.24-.1,0h0Zm-3.46-.73.07,0,.14.09-.15-.07Zm1.08.93.23.11.1.07-.33-.18Zm-.07.51h0l.05,0Zm4.78.32h0l0,0ZM13.4,22.2h0l-.23-.11.13,0Zm-1.58-.77h0Zm.19.36v0l-.34-.16,0,0Zm-1.56.84-.18-.07,0,0Zm1.29-1.26h0L11.22,21l0,0Zm-.3-.05s0,0,0,0l.1.06v0l-.41-.22,0,0Zm.16.25,0,0-.14-.05-.4-.21,0-.07Zm-1.44-.62v0l.11.08Zm-.88-.33,0,0,0,0ZM8.1,20.55l.14.09ZM10,22.4l.12.09s0,0,0,0h0l-.05.08-.12,0-.34-.18,0,0Zm-.4-.12-.16-.08,0,0,.19.08Zm-.1.16-.41-.22L9,22.17l.5.27Zm3.95-.36L13.14,22l0-.06Zm-.71-.27h0l0,0Zm-.17-.1-.05,0,.06,0Zm-.19,0-.07,0,0,0v0Zm-.21-.13-.3-.22v0l.3.22Zm-.38-.27-.1-.07.11.06Zm-.64-.32,0,0-.45-.26,0-.05Zm-.09.14,0,0h0l-.43-.24,0-.06Zm-.09.14,0,.07L10.49,21l0,0Zm-.88-.36,0,0L10,20.86l-.06,0,0-.06Zm-1.2-.24h0Zm.08.88.1.07h0l-.17-.12Zm.45.66h0l0,0Zm4.55-.1.06.06-.08,0a.05.05,0,0,0-.07.08l-.08,0,.08-.1Zm-.2.11h0Zm-.83-.43.2.13,0,.06-.07,0-.24-.15,0-.07Zm-.32-.1-.28-.16,0,0,.28.16Zm-1.31-.75v0l.17.12Zm-.09-.05L11,20.74l0,0-.19-.15v0l.24.14.2.14Zm-.57-.23,0,.06-.2-.12,0-.06Zm-.1.15,0,.06-.2-.11,0-.07Zm-.1.17,0,0-.2-.12v0Zm-.66-.26,0,.06-.08,0-.37-.23,0-.05Zm-1.17-.27.13.1,0,0-.36-.14L8,20.23l-.46-.29.11-.17Zm-1.4-.16,0,0s0,0,0,0l-.09,0,0-.07ZM9.1,21.73,9,21.67l-.07-.07Zm0,.3s0,0,0,0l-.42-.23h0l-.44-.23h0l.05-.08A5.71,5.71,0,0,0,9.09,22Zm-2-1a0,0,0,0,0,0,0l.24.15Zm6.67,1-.08.1-.41-.22,0,0,.05-.07Zm-.54-.17L13,21.64l.23.09Zm-.93-.4,0,0h0l-.27-.21h0Zm-1.92-1.13-.1-.06,0,0,.12.08A0,0,0,0,0,10.35,20.27Zm-.23-.15-.4-.25,0-.05.39.26Zm.25.34,0,.06-.19-.11,0-.07Zm-.1.16,0,.07-.19-.1,0-.08Zm-.12.18v0L10,20.71h0Zm-.84-.39,0,.05-.21-.13,0,0Zm-1.74-.68-.11.17-.09-.06.11-.18Zm-.8.11s0,0,0,0l-.31-.17.05-.09Zm.29.33,0,.07L6.58,20s.05,0,0-.07l-.22-.14h0Zm1.48,1.27-.19-.1,0,0Zm-.46-.05s0,.05,0,.07h0l-.05.08-.16-.11h0L7.24,21Zm-.14.31h0l-.08,0v0Zm7.39.85h0Zm-.21,0h0a0,0,0,0,0,0,0Zm-2.18-1s0,0,0,.05l-.05,0h0Zm-.47-.25h0l.15.12-.17-.1ZM9.73,19.79l0,.05-.19-.12,0-.06Zm-.08.12h0l-.2-.11h0Zm0,0,0,0,0,0Zm.36.33,0,.07-.42-.25,0-.06Zm-.1.17,0,.08-.44-.25.06-.09Zm-1-.21,0,0-1.13-.72h0Zm-1.24-.72-.11-.07h0l.11.06Zm-.22-.14-.07,0,.07,0Zm-.14.25-.1.18-.67-.37.15-.23Zm-1,0-.06.1-.11-.06s-.08,0,0,.06l.11.06h0l-.47-.29L6,19.22Zm.16.67.66.36.86.6a.06.06,0,0,0,.09,0l.09.06,0,.06-.85-.43-1.22-.73L6.21,20ZM5.43,20a.08.08,0,0,0,0,.15l.55.26.33.26a6.83,6.83,0,0,0-.63-.34l-.88-.62.05-.09Zm8.78,3.38h0l.06,0h-.07S14.22,23.37,14.21,23.35Zm.39,0h0Zm.48-.74h0ZM13.19,21.5H13.1l-.1,0,0,0Zm-.11-.16h0l.09.06Zm-.25,0-.29-.14.06-.09.28.17Zm-.45-.13h0l0,0L12,21.07l0-.06ZM12,21l-.53-.32.07-.12.5.37ZM9.42,19.59l0,.06-.32-.2,0-.06Zm-.09.12v0L9,19.55l0,0Zm-.07.09,0,.06-.32-.19,0-.06Zm.12.07.2.12,0,.06-.21-.12Zm.1.27-.06.09-.21-.12.07-.1Zm-1.55-.74h0l0,0,.26.18Zm-.14,0-.11-.07,0-.08.11.07Zm-.23-.14-.62-.37.07-.1.61.39Zm-.72-.43-.49-.28.08-.14.48.31Zm-.5-.29-.66-.36L5.78,18l.64.41Zm0,.33.33.25-.15.25-.41-.23h0l-.06,0,.17-.29Zm-1-.09.21.16-.26-.15,0,0Zm.38.3.18.13-.13.21L5.19,19l.12-.21Zm-1.41-.4h0l-.06,0Zm.88.67.22.14-.41-.21v0Zm.89.65,0,.08-.51-.32a0,0,0,0,0,0,0l-.22-.1L5,19.37H5ZM3.4,18.66l.52.29v0a9.41,9.41,0,0,0,.83.56l0,.09-.38-.26Zm11.25,4.69v0h0Zm1.19-.67,0,0h0l0,0h0Zm.63,0h0Zm.39-.31h0l0,0,0,0h-.06Zm-.21-.09h-.1l-.06,0-.18-.13a2,2,0,0,0,.31.13Zm-1.09,0h0l-.1.11,0,0h0l.09-.09Zm-.42,0h0l-.08-.06s-.11,0-.08.07l.1.13-.25-.17h0l0,0a0,0,0,0,0,0-.07l-.2-.11L14.42,22l.08-.1Zm-2.21-1.12,0,0-.28-.17,0,0ZM12.53,21l-.22-.13s-.07,0,0,.05l.22.14-.06.09-.29-.24.09-.14.32.19Zm-.46-.15-.48-.4,0,0,.54.32Zm-.56-.46-.18-.15.2.12Zm-.08.12-.08.13-.45-.27L11,20.2Zm-.61-.18-.09-.05s0,0,0,0l-.08-.06.14-.21.18.13Zm-.28-.15L10.35,20l.13-.22.2.15Zm.25-.39a0,0,0,0,0,0,0l-.2-.15.14-.23.24.14-.15.22Zm-.07-.37.16-.27.23.18-.15.23Zm-.14-.08-.36-.21.22-.32.31.25Zm-.39-.22L10,19l.25-.34.15.12Zm0,0-.11.16-.17-.12L10,19Zm-.21.3-.16.23-.18-.12.18-.24Zm-.46,0-.32-.22L9.38,19l.32.25Zm-.45-.12,0,.06-.8-.48.05-.07Zm-1.19-.08-.11-.08L7.89,19l.13.08Zm-.23-.15-.6-.4.12-.19.61.38Zm-.7-.46-.47-.31.1-.17.49.29Zm-.49-.32-.64-.41.08-.14.66.39Zm-.63.14.31.23-.57-.33,0,0Zm.37.3L6,19.08l-.59-.46.11-.19Zm-1-.07-1-.59,1,.56Zm0,0-.11.2-.05,0L3.68,18l.06-.1Zm-1.13-.37-.44-.25,0,0Zm-.54-.07,1,.57a0,0,0,0,0,0,0l.43.24v0l-.61-.31s0,0-.05,0l-.14-.09c-.11-.08-.37-.3-.63-.49Zm-.06,0,0,0,0,0Zm.5.55H4l-.53-.36h0Zm-.23-.06-.35-.21,0,0Zm12.2,4h0Zm.47-.06,0,0h0l0,0Zm-.7-.59h0l.14.09s0,0,0,0l-.16-.09Zm-.24.15-.07.08-.06-.06s.07,0,.05-.07Zm-2-.79-.21-.16.23.13Zm-2.23-1.29-.13-.09,0,0,.11.07S11.21,20.14,11.22,20.16ZM11,20l-.17-.13h0L11,20Zm-.15-.17.15-.22.17.11-.14.22Zm.16-.24.15-.22.16.12-.13.2Zm.17-.25.38-.57.15.1-.37.59Zm.45-.67,0-.05.14.1,0,.05Zm-.07,0-.28-.19,0-.07.28.2Zm-.07.1-.38.57-.23-.18.34-.58Zm-.74.29-.31-.24.36-.52.3.2Zm-.58-.45-.35-.27.31-.46.4.25Zm0,0L9.9,19l-.37-.21.28-.42ZM9.89,19l-.1.13-.33-.25.06-.09Zm-1.32-.7-.3.42-.14-.08.29-.42Zm-.38.54-.05.08L8,18.81l0-.08Zm-.1.15L8,19,7.9,19l0-.08Zm-.3-.07-.61-.38,0-.05.63.36Zm-.71-.44-.48-.3,0,0,.5.28Zm-.5-.31L6,17.8l.56.31ZM4.75,17.9l0-.06.68.43,0,0-.7-.41Zm-.06.25-.57-.42Zm.54.51-1.4-.86.1-.17Zm-1.55-.74L3.62,18l-.87-.57a0,0,0,0,0,0,0l.86.59,0,0-.09,0s-.05,0-.06,0l-.86-.5.1-.22Zm-1.13-.27.15.09-.16-.08Zm.49.43a.27.27,0,0,0-.15,0,0,0,0,0,0,0,0,4,4,0,0,0,.49.37h0L2.72,18s0,0,0,0l.64.46,0,0L2.38,18l.1-.22Zm.26.63,1,.76c-.34-.24-.68-.49-1-.71Zm1.52,1.18a3.7,3.7,0,0,0-.34-.2,0,0,0,0,0,0,0c-.3-.18-.79-.49-.17-.16C4.46,19.64,4.64,19.76,4.82,19.88Zm11,3,0,0h0Zm.2-.11.06.06h0l-.06,0Zm1.88-.89h0Zm-.33.37-.17,0v0l.22,0Zm-.86-.33-.16-.08a.08.08,0,0,0,0,0l.17.11S16.71,21.91,16.7,21.93Zm-.23,0,.06,0,.44.26h0l.06,0s.05,0,.07,0l0,0c.06,0,.09,0,.09-.07l0,0h0l0,0-.26,0a.06.06,0,0,0,0,0,2,2,0,0,0-.33-.16s-.06,0-.05.05l-.06,0s0,0,0,0l0,0L16.41,22Zm-.31.09h0L16,21.9l0,0,.05-.05.19.13A0,0,0,0,0,16.16,22Zm-.21.08-.05,0-.1,0h0ZM14,21.6h0Zm-.75-.33-.1-.06h0ZM13,21.11l-.28-.19,0,0,.27.2Zm-.37-.25-.32-.2,0-.06.31.22Zm-1.34-.78h0L11.13,20l.14-.23.45.28-.12.2Zm0-.33.12-.2.42.33-.09.15Zm.56.1-.42-.33.36-.6.19.13c.07,0,.14-.06.07-.11l-.19-.13,0,0,.09.07c.07.06.15-.06.08-.12l-.1-.07.18-.3.47.34Zm.06-1.25-.14-.1.2-.29.13.09Zm-.2-.15-.28-.21.18-.3.3.22Zm-.4-.3L11,18l.19-.27.27.17Zm-.08.12,0,.07-.29-.2.06-.08Zm-.36-.14-.14-.1.06-.08.15.1ZM10.63,18l-.4-.27.05-.08.4.27Zm-.43-.29-.8-.47.07-.1.78.5Zm-.08.12-.31.46-.12-.1s0,0,0,0l.12.1-.29.42L9,18.41s0,0,0,0l-.24-.14.62-.89Zm-1.49.37-.15-.09.61-.9.17.1Zm-.33-.07L8,18.54l-.5-.29a.07.07,0,0,0-.1.05l-.07,0,.33-.52Zm-.89.19a.05.05,0,0,0,0,.05l.5.3-.05.08-.62-.36.08-.12Zm-.25,0L6.65,18l.08-.14.49.3ZM6.64,18,6,17.66l.09-.16.66.39Zm-.79-.44-.69-.38L5.28,17l.67.41ZM5.29,17l.16-.27.65.43L6,17.43Zm-.23,0L5,17.12l0,0a0,0,0,0,0-.06,0l-.52-.29.15-.26.58.35Zm-.13.22-.06.1L4.3,17l0-.07Zm-.09.15-.14.23-.56-.35L4.27,17Zm-.22.36,0,.06s0,0,0,0L4,17.5l.07-.12Zm-3-.85.8.4-.11.29-.58-.28c-.07,0-.11.08,0,.11l.57.29-.08.23c-.37-.2-.73-.4-1.11-.59l.05-.23c.05-.16.12-.31.18-.47l.32.17A0,0,0,0,0,1.66,16.88Zm1.5,2.06.08-.14q.5.3,1,.62l-.53-.29a0,0,0,0,0-.05.08c.19.15.39.26.58.4Zm13.54,2.46-.1-.09.11.07Zm-.12.15-.05.07-.15-.08a0,0,0,0,0-.06,0l-.1-.06.12-.14Zm-.19.25-.09.1-.26-.19.07-.08ZM16,21.68l-.81-.61,0,0c.28.19.57.38.86.56Zm-.09.1-.05.05L15,21.26l.05-.06Zm-.18.18h0c-.23-.11-.45-.24-.67-.37,0,0,0,0,0,0l-.17-.12.05-.06C15.17,21.62,15.45,21.79,15.73,22Zm-.93-.49-.35-.25.06-.08.35.27Zm-.08.09,0,0-.06,0a.07.07,0,0,0-.09.09l-.26-.19.09-.13Zm-.55-.19,0,0a.08.08,0,0,0-.12.06l-.39-.2.18-.29.44.32Zm-.57-.18L13.29,21l.24-.34.27.22ZM13.05,21l-.27-.2,0-.06.27.2Zm-.36-.26-.31-.22,0-.05.32.21Zm-.39-.28-.24-.18s-.07,0,0,.06l.24.17,0,.06-.54-.31.12-.19.54.34Zm-.5-.4L11.9,20a0,0,0,0,0,0,0l.74-1.2.1.07s.1,0,.05-.08l-.1-.08.64-1L14,18l-1.67,2.42Zm.84-1.49-.48-.34.59-1,.55.33Zm-.52-.37L12,18.14l.64-.94.1.06Zm-.19-.13-.31-.22.59-.94.37.23Zm-.42-.3-.27-.17.46-.65.22.14s0,0,0,0L11.72,17l.11-.16s0,0,0,0l-.11.16-.18-.11.15-.24.45.28C11.92,17.18,11.72,17.48,11.53,17.79Zm.17-.84-.46.65-.15-.1.44-.67Zm-.51.73-.19.27-.15-.1.18-.26Zm-.28-.05-.13.17-.41-.27.17-.25.43.27Zm-.57-.12L9.55,17l.16-.23.79.47ZM9.49,17l-.18-.1.16-.23.18.1Zm-.08.12-.07.1-.17-.1L9.23,17ZM9.06,17l-.7-.4.08-.13.7.41Zm-.07.1L8.36,18l-.62-.4.56-.89Zm-1.43.53-.33.52-.49-.3.33-.56Zm-.84.22-.66-.39.14-.25.63.4s0,0,0,0l-.63-.4.2-.34.63.46Zm-.6-.74-.65-.42.24-.39.62.47Zm-1-.23-.58-.35.18-.32.55.39Zm-1.37-.37-.15.28c0,.06.05.11.09.06l.15-.29.45.26,0,.07h0a0,0,0,0,0,0,.05h0l-.14.25L3.7,17a.06.06,0,0,0-.08,0L3,16.62l.18-.41ZM3.61,17a.07.07,0,0,0,0,0L3,16.69l0-.06Zm0,.07,0,0,.37.23-.07.13-.29-.15L3.22,17a0,0,0,0,0,0,0l.1.07-.44-.23.09-.2Zm-1.07,0a10.3,10.3,0,0,0-1.16-.51l.13-.35L1.59,16c.39.18.77.38,1.14.58ZM10.63,2.18h0l0,0ZM16.2,22.71h.07a.06.06,0,0,0,0,0h0Zm1.4-1a.07.07,0,0,0-.07,0,1.48,1.48,0,0,0-.24-.11c.07,0,.15-.07.07-.12Zm-1-.67.05-.06.66.54Zm-.43.12-1.15-.83.08-.12C15.49,20.54,15.84,20.85,16.21,21.16ZM15,20.39c.41.34.85.65,1.29,1l-.13.14q-.44-.27-.87-.55l.12-.14s0-.05,0,0l-.12.14L15,20.73c-.07-.05-.15.06-.08.12l.27.17,0,0-.38-.3Zm0,.78-.05.07L14.62,21l.06-.08Zm-.53-.26-.25-.17c-.08-.06-.18.07-.11.13l.24.19-.06.08-.44-.33.22-.33.46.35Zm-.65-.12-.27-.21.23-.33.26.21Zm-.4-.32-.13-.1c-.06,0-.15.05-.09.1l.14.11-.28.37-.27-.2.6-.84.27.23ZM14,18l-.67-.41.26-.41c.22.15.43.31.64.48Zm-.7-.42-.55-.34.26-.43.56.36Zm-.57-.35-.1-.06.28-.41.08.05Zm-.15-.09-.37-.23.26-.41.39.23Zm-.09-.67.33-.52.41.25-.35.5Zm-.09-.05L12,16.12l.35-.53c.16.09.31.19.47.29Zm0,0-.26.4-.45-.29.24-.38Zm-.81.15-.15.24c-.41-.25-.83-.5-1.23-.76h0c.41.26.82.51,1.24.76-.14.22-.3.44-.45.66-.41-.26-.83-.52-1.25-.76l.63-.9Zm-1.91.12-.19-.1.63-.9.2.12Zm-.27-.15-.75-.42c.19-.32.37-.64.56-1l.85.49Zm-.05.07-.16.22-.71-.41.14-.23Zm-3,.07-.62-.47.29-.48.68.38Zm-.79-.59L5,15.66l.25-.43.62.39Zm-.08.13-.15.24s0,0,0,0l-.09.16-.55-.39.2-.35.09.07s.06,0,0,0L5,15.81v0Zm-.63-.44-.15-.12.16.11Zm13.44,6.12a.07.07,0,0,0,0-.09l-.12,0a5.83,5.83,0,0,0-1-.95c-.07-.05-.16.05-.1.12s.23.23.35.35l-.1,0a0,0,0,0,0,0,.06.43.43,0,0,0,.19.1s0,0,0,0l.39.36,0,0h0l0,0a1.4,1.4,0,0,0-.36-.19h0c-.25-.22-.49-.45-.74-.67l.48-.56s0,0,0,0l-.49.55c-.52-.47-1-.92-1.55-1.4-.07-.06-.17,0-.11.1A14.38,14.38,0,0,0,16.66,21L16.6,21h0s-.07,0,0,.06l-.05.06L16.25,21h0l-1-.89,0,0a.06.06,0,0,0-.11-.07h0l-.53-.47s-.1,0-.07.08.35.33.53.5l-.37.55-.45-.36.2-.31s0,0,0,0l-.2.3-.25-.2c.26-.38.53-.75.8-1.12,0-.07-.06-.14-.11-.07-.27.36-.54.73-.81,1.1l-.28-.22c.4-.57.79-1.14,1.2-1.7a6.25,6.25,0,0,1,.6.66s.1,0,.06-.06a7,7,0,0,0-.63-.65l.16-.22s0-.05,0,0l-.16.21-.39-.34,0-.05s0-.06,0,0l0,0c-.21-.17-.42-.32-.64-.47.29-.46.58-.91.89-1.36h0c-.31.44-.6.9-.9,1.35l-.56-.36.25-.41h0l-.25.41-.08,0,.34-.51.13.08s.08,0,0-.06l-.13-.08.87-1.31s0,0,0,0l-.89,1.3-.41-.24c.34-.52.7-1,1.07-1.53,0,0,0-.05,0,0-.38.49-.75,1-1.11,1.51-.16-.09-.31-.2-.48-.29a12.09,12.09,0,0,1,.91-1.23s0-.05,0,0a11.15,11.15,0,0,0-.92,1.23c-.39-.21-.79-.4-1.19-.6,0,0-.08,0,0,.06.4.2.8.39,1.19.6l-.35.53-1.24-.69h0c.36-.51.72-1,1.08-1.53h0c-.43.62-.88,1.23-1.32,1.84l-.2-.12c.37-.54.73-1.09,1.07-1.65,0,0,0,0,0,0-.35.56-.73,1.1-1.12,1.63l-.86-.48c.51-.85,1-1.7,1.5-2.56,0,0,0-.09-.06,0-.49.86-1,1.71-1.52,2.55l-.26-.15s-.09,0,0,.06l.26.15L8.58,16l-1.26-.68.53-.9s0-.09-.07,0l-.55.9,0,0s-.09,0,0,.06l0,0-.4.66-.68-.37a12.08,12.08,0,0,1,2.31-2.86c.07-.06,0-.17-.1-.11a12,12,0,0,0-2.39,2.86l-.63-.38,1-1.77s0,0,0,0l-1,1.76c-.15-.1-.32-.18-.47-.28s0,0,0,0l.46.29L5,15.62l-.48-.31C5.24,13.91,6,12.5,6.8,11.16a.06.06,0,0,0-.11-.07c-.84,1.34-1.55,2.76-2.27,4.16l-.61-.36c.3-.6.6-1.21.92-1.8A18.39,18.39,0,0,0,6.56,9.7a0,0,0,0,0-.06,0c-1,.82-1.59,2.63-2.2,3.75q-.37.67-.71,1.35l-.08,0a3.45,3.45,0,0,0-.37-.18c-.24-.11-.48-.22-.73-.31h0c.27-.55.56-1.09.77-1.67A21,21,0,0,0,5.2,9h0a2.15,2.15,0,0,0,.22-.4h0l0-.09.08-.11a.11.11,0,0,0,0-.06l0,0h0q.68-1.18,1.33-2.39c.27-.39.56-.78.81-1.2l.16-.24s0,0,0,0,.13-.18.19-.26l.51-.55a4.74,4.74,0,0,1,1.61-1.12,2.09,2.09,0,0,1,1.2.63h0A25.3,25.3,0,0,0,16.7,10a8.06,8.06,0,0,0,5.93,1.52c-.15,1.72-.26,3.44-.49,5.15A6.28,6.28,0,0,1,18.35,21.89Z"/><path class="cls-1" d="M20.29,16.53a21.59,21.59,0,0,0-4.64-2.92c-.05,0-.1,0-.05.08a32.58,32.58,0,0,1,4.66,2.88S20.31,16.55,20.29,16.53Z"/><path class="cls-1" d="M19.94,16.84a30.33,30.33,0,0,0-3.17-2c-.05,0-.1,0-.05.08,1.06.66,2.17,1.23,3.21,1.92C19.94,16.87,20,16.85,19.94,16.84Z"/><path class="cls-1" d="M19.28,17.27c-.06,0-.12.06-.06.09l1.61.95s.06,0,0,0C20.33,17.92,19.82,17.58,19.28,17.27Z"/><path class="cls-1" d="M8.85,5.85a0,0,0,0,0,0,0v.08s0,0,0,0c0,.17,1.36.85,1.55,1l1.84,1.23a0,0,0,0,0,0-.06C11.14,7.33,10,6.54,8.85,5.85Z"/><path class="cls-1" d="M18.06,21.3s-.07,0,0,0a4.21,4.21,0,0,0,.49.44s.08,0,0-.06A3.93,3.93,0,0,1,18.06,21.3Z"/><path class="cls-1" d="M18.31,21.26a4.61,4.61,0,0,1-.61-.49c-.06-.05-.14,0-.09.08a4.76,4.76,0,0,0,.62.53C18.31,21.43,18.39,21.31,18.31,21.26Z"/><path class="cls-1" d="M17.85,21.27s0,0,0,0l.09,0a0,0,0,1,0,0-.05Z"/><path class="cls-1" d="M11.62,5.29a0,0,0,0,0,0,0,10,10,0,0,0-.33,1.08L10.64,6s0,0,0,0l.63.41c0,.19-.1.37-.14.56,0,0,0,.06.06,0s.09-.36.14-.55c.4.26.79.52,1.2.77a0,0,0,1,0,0,0c-.41-.25-.81-.51-1.21-.77C11.41,6,11.5,5.65,11.62,5.29Z"/></svg>