<svg id="Layer_1" data-name="Layer 1" xmlns="http://www.w3.org/2000/svg" viewBox="0 0 26.85 25.99"><defs><style>.cls-1{fill:#231f20;}</style></defs><title>ilustracije_razmerje</title><path class="cls-1" d="M24,23.41a2.8,2.8,0,0,0,.37-.26c.06-.06,0-.15-.08-.1l.12-.11.09-.07a.09.09,0,0,0,0-.09l.14-.23a3.41,3.41,0,0,0,1-1.38.07.07,0,0,0,.09,0,4.2,4.2,0,0,0,.11-.41.08.08,0,0,0,.08,0c0-.09.06-.17.09-.26l0-.12s0,0,0,0v0c0-.06,0,0,0,.13,0-.13.07-.26.1-.4s0,0,0-.05a.13.13,0,0,0,.13-.06h0v0a2.93,2.93,0,0,0,.12-.35,2.06,2.06,0,0,0,.13-.26A12.07,12.07,0,0,1,26,21a6.43,6.43,0,0,1-.7,1.32,6.35,6.35,0,0,0,1.47-5.13c0,.27,0,.54-.06.81a3,3,0,0,0,0-.38s0,0,0,0V17.5s0,0,0-.06a.11.11,0,0,0,0-.13h0c0-.13,0-.27,0-.4a.1.1,0,0,0,0-.06c0-.07,0-.14,0-.21a.13.13,0,0,0,.1-.12c0,.25.06.49.08.73a11,11,0,0,0-.05-1.39s0,0,0,0A5.18,5.18,0,0,0,26.41,14c-1-3.82-3.91-7.17-7.31-9.74C14.7.87,3.94-2.58.76,4.12c0,0,0,0,0,0s-.07.14-.1.21a.07.07,0,0,0-.07,0c0,.1,0,.21-.07.31a3.2,3.2,0,0,0-.23.85A8.53,8.53,0,0,0,0,6.72s0,0,0,0c.07-.28.13-.55.2-.82,0,.08,0,.16,0,.24s-.08.29-.12.44,0,0,0,0l0-.09c0,.15,0,.31-.05.47a15.56,15.56,0,0,0,.52,5.88c0,.08,0,.17.05.25a8.72,8.72,0,0,0,1.44,3.33,18.22,18.22,0,0,0,7.15,7.13c4.18,2.28,12.87,3.52,16.07-1.23A6.05,6.05,0,0,1,24,23.41ZM3.1,17.85h0q-.35-.55-.66-1.13l.11.08a7.14,7.14,0,0,0,1.07,1.56.1.1,0,0,0,0,.05C3.42,18.24,3.26,18.05,3.1,17.85ZM1.3,14.1q.32.64.66,1.27c.06.13.13.25.2.38a4.73,4.73,0,0,0,.16.54c-.17-.26-.34-.53-.49-.8C1.64,15,1.46,14.57,1.3,14.1Zm8.32,3.85c-.26.15-.53.29-.8.42L6.53,16.66l.11-.15s0,0,0,0l-.11.14-.2-.15s-.06,0,0,0l.19.15-.07.09c-.29-.27-.58-.54-.86-.82,0,0,0,0,0,0,.28.29.57.57.86.84a5,5,0,0,1-.38.47c-.35-.35-.68-.7-1-1.07A6.11,6.11,0,0,0,5.77,15s0,0,0,0A6.29,6.29,0,0,1,5,16.2q-.59-.66-1.12-1.37A10.81,10.81,0,0,0,5,13.26,30.19,30.19,0,0,0,9.62,17.94Zm5.07-1.65a32,32,0,0,1-3.34-1.94,10.65,10.65,0,0,0,.82-1.06c1.67,1.13,3.39,2.19,5.09,3.24l-.11.12c-.35-.24-.72-.47-1.06-.73-.05,0-.11,0-.06.09.33.26.67.5,1,.74l-.18.18c-1.66-.89-3.26-1.88-5-2.91,0,0,0,0,0,0,1.68,1.08,3.25,2.09,4.88,3-.23.23-.48.45-.72.66a51,51,0,0,1-5.15-2.85c.15-.15.28-.3.42-.46a31.84,31.84,0,0,0,3.34,2S14.72,16.3,14.7,16.29Zm.5-4.09a4.59,4.59,0,0,0,.86-.83,17,17,0,0,1,2.72,2l-.21-.08a0,0,0,0,0,0,.06l.35.14c.23.29.48.56.7.86-.18-.13-.36-.28-.54-.41a0,0,0,1,0,0,0c.23.16.45.34.67.52s.41.6.62.9l0,0s-.07,0,0,.06l.2.16.06.09a8.43,8.43,0,0,0-1-.23l.05-.11s0-.06,0,0l-.06.12h0l-.22-.21.24.16s0,0,0,0l-.29-.19-1.07-1s-.05,0,0,0l.8.74q-1.35-.92-2.79-1.7h0A32.1,32.1,0,0,1,18.9,15l.42.4-.27,0s0,0,0,.06,0,0,0,0l.3.29c-.11.24-.23.48-.35.72a7.66,7.66,0,0,1-2.44-2.11s-.09,0-.06,0a7.89,7.89,0,0,0,2.45,2.17l-.22.42-.18-.1c-.06,0-.12.05-.06.09l.18.11c-.09.15-.18.3-.28.45-.4-.25-.78-.53-1.17-.8l.11-.12.27.17a0,0,0,1,0,0-.07l-.25-.16.15-.15s0,0,0,0l-.16.16c-1.71-1.1-3.41-2.18-5.06-3.3a12.4,12.4,0,0,0,1.4-2.9A14,14,0,0,1,16,11.35a4.66,4.66,0,0,1-.83.84Zm6.11-3.7A18.36,18.36,0,0,1,23,10.22l.21.37a5.4,5.4,0,0,0-.74-.69s0,0,0,0q-.55-.65-1.13-1.27Zm-.09.11q-.47-.5-1-1c.35.27.7.54,1,.83Zm3.35,2.84.1.14h0l0,0,.1.2.08.2-.38-.48-.05-.14h0l0,.1-.14-.17c-.13-.21-.27-.4-.41-.6A4.19,4.19,0,0,1,24.57,11.44Zm-.82-1.24h0l0,0-.05,0ZM21.57,7.51l.13.08.48.48-.56-.5-.38-.41.34.31A0,0,0,0,0,21.57,7.51Zm-19,9.22a5,5,0,0,1-.27-.65A16.37,16.37,0,0,0,4,18.59a8.35,8.35,0,0,1-1.31-1.72s0,0,0,0Zm5.54,1.49.37.3-.08,0q-1-.84-2-1.75l.07-.1,2.25,1.7-.2.09-.38-.31S8.12,18.19,8.14,18.21Zm3.09.91-.56-.43,0,0a21.55,21.55,0,0,0,2,1.3l0,0c-.47-.23-.94-.47-1.4-.73,0,0,0,0,0,0,.45.26.92.5,1.38.73l-.34.31c-.67-.36-1.33-.73-2-1.13,0,0,0,0,0,0,.64.4,1.29.78,2,1.14l-.22.17c-.62-.27-1.24-.56-1.85-.86,0,0,0,0,0,0,.6.31,1.21.6,1.82.87l-.28.21q-1-.62-2-1.34.45-.34.87-.71l.57.45S11.27,19.14,11.23,19.11Zm2.26.24.05,0-.16.09s0,0,0,0l.17-.09c.9.46,1.82.88,2.75,1.28,0,0,0,0,0,0l.12,0L17,21l-.08.05a22.55,22.55,0,0,1-3.57-1.49Zm6.95-4.82.15-.29.32.18.14.15s0,0,0,0l.07.06.47.54a6.44,6.44,0,0,1-.1.71l-.35-.31a23.93,23.93,0,0,0-2-2,12.18,12.18,0,0,1,1.33.62l-.14.29C20.29,14.54,20.4,14.62,20.44,14.54Zm2.79.18s0,.07,0,.11v0a.05.05,0,0,0-.11,0c0,.19.06.38.08.58l-.3-.28c-.43-.64-.92-1.25-1.42-1.88A14.24,14.24,0,0,1,23.23,14.72ZM21.68,11c.26.17.52.35.77.54s.28.48.42.72l-.82-.53c-.14-.15-.27-.31-.41-.46C21.65,11.2,21.67,11.1,21.68,11Zm-.17.17a11.37,11.37,0,0,0-.89-.77,9.11,9.11,0,0,1,.93.51C21.54,11,21.53,11.1,21.51,11.18Zm1.27-1.51,0,0,.39.5,0,0a0,0,0,0,0,0,0L23,10Zm-16.85,11-.21-.22q.46.43,1,.83l.12.12c-.29-.19-.58-.4-.86-.62A.08.08,0,0,0,5.93,20.68Zm1.59.56,0,0,.14.11-.14-.09ZM5.79,18.11a12.26,12.26,0,0,0,1,1l-.21.06-.65-.61s.06,0,0,0l-.63-.63.21-.16Zm5.11,2.38a0,0,0,0,0,.06,0l.68.36-.07.06-.28-.13s0,0,0,0l-.14-.1s-.09,0,0,.07l.35.25-.14.11a13.4,13.4,0,0,1-1.92-1.4l.22-.16C10,19.88,10.45,20.2,10.91,20.5Zm5.24.64.32.1-.16.08-.37-.06-.16-.1.1-.08ZM17,21l0,0L17,21l.74.3c-.29,0-.58-.05-.87-.09l-.15,0,.1,0,.11,0A0,0,0,0,0,17,21Zm-3.39-1.67.45-.24a11.53,11.53,0,0,0,2.18,1.13l.24.14-.1,0c-.06,0-.12.06-.06.09.25.13.51.24.77.34l-.72-.16C15.42,20.25,14.5,19.83,13.59,19.38ZM18.3,20a7.25,7.25,0,0,0,1.14.3l0,0,0,0c-.08-.05-.15.06-.08.12h0l0,0s0,0,0,0l0,0,.07,0-.07,0s0,0,0,0l.46.24.27.13,0,0c-.62-.23-1.24-.48-1.84-.75Zm.57-1.93q.3.24.62.46c-.13.19-.27.37-.42.54l-1.43-.63a6.21,6.21,0,0,0,.57-.67Zm2.85-7.78s0-.1,0-.14A13.53,13.53,0,0,1,23.39,12l0,0s0,0,0,0a16.64,16.64,0,0,0-1.5-1.51Zm1.46,0,.13.07c.27.35.52.71.76,1.07L24,11.3c-.24-.34-.5-.67-.77-1ZM7.07,20.74l-.31-.26.11.08A20.93,20.93,0,0,0,9,22l-.33-.17C8.11,21.51,7.58,21.13,7.07,20.74Zm3,1.29c.34.13.69.23,1,.34l.24.09c.23.14.46.25.7.37-.68-.24-1.34-.5-2-.79ZM7.3,20.1c.87.54,1.77,1,2.69,1.49l.34.19-.07,0c-.38-.18-.76-.35-1.13-.54a0,0,0,0,0,0,0c-.45-.26-.89-.53-1.32-.83Zm-.85-.82c.2.18.41.37.62.54,0,0,.08,0,0-.06-.19-.17-.37-.35-.55-.52l.21-.06a13.93,13.93,0,0,0,1.47,1.26l-.52-.26s0,0,0,0l.55.29,0,0s0,0,0,0l0,0,.06,0q.5.36,1,.69-1.17-.59-2.29-1.3c-.23-.2-.47-.41-.69-.62Zm-.08,0c-.42-.4-.83-.8-1.21-1.22.41.42.83.82,1.27,1.21ZM11.59,21q1.09.54,2.23,1s0,0,0,0,.27.19.41.29l-.14.09A13.81,13.81,0,0,1,11.55,21Zm-.09,0-.17-.11.19.09Zm1.22.43.42.21h0q-.76-.31-1.51-.67l.07-.05Zm5.7.1-.21-.09.29,0,.58.28h0a15.42,15.42,0,0,1-1.56-.35l.56,0,.33.13S18.44,21.5,18.42,21.49Zm1.22-2.19-.52-.23c.14-.17.28-.35.41-.53.25.17.51.33.78.47,0,0,0,0,0,0l.22.1c-.07.1-.15.21-.23.31a5.37,5.37,0,0,1-.77-.51c-.05,0-.13,0-.08.09a5.7,5.7,0,0,0,.75.53l-.06.07c-.37-.15-.74-.31-1.1-.48h0l.55.24S19.68,19.33,19.64,19.31Zm.11-.87.66.35-.05.11c-.26-.13-.51-.28-.76-.44l0-.06Zm2.32-2.56L22,15.72c.19.25.38.5.54.77l0,.12-.37-.22c0-.16-.1-.32-.15-.48h0S22.07,15.88,22.06,15.88Zm1.07-3.75h0Zm.12,11.35h0Zm-10.45.67L12.48,24l.67.27-.12,0ZM8.62,21.63s0,0,0,0l.05,0a22.05,22.05,0,0,0,2,1.12l-.36-.15A19.7,19.7,0,0,1,7.57,21c.19.11.38.21.58.31ZM11,21.57l-.13-.08.07,0a20.51,20.51,0,0,0,2.71,1.13l-.13.07-.64-.21,0,0s0,0,0,0h0l-.09,0,0,0h0q-1-.35-2-.77l.11-.07.15.1A0,0,0,0,0,11,21.57Zm-.18-.12-.47-.32.53.27Zm5,.59.71.29.31.18-.8-.16A1,1,0,0,1,15.81,22Zm.3,0L15.82,22l0,0h0l.33.1Zm2.69-.61.47.11-.12.11-.45-.22Zm-1.31-.6-.15-.07.12-.08.87.35L17.89,21Zm3.63-1.75-.34-.2,0,0q.71.25,1.46.46l.15.06.12.09-.09.15c-.16-.09-.32-.17-.48-.27,0,0,0,0,0,0l.48.28,0,0L22,19.59a11.33,11.33,0,0,1-1.21-.46L20.69,19l0-.07.35.19S21.17,19.11,21.13,19.08Zm1.28-1.6.15.22-.15-.06C22.4,17.6,22.41,17.54,22.4,17.49Zm0-.53c.22.25.44.51.65.77l-.06.13-.57-.76S22.36,17,22.36,17Zm0,.09-.45-.57v0l.42.46S22.33,17,22.33,17Zm.95-.6c0-.05,0-.1,0-.15l0,.06c0,.07,0,.15,0,.22l0,0Zm.81-3.82c.06.07.11.14.17.22l0,.07-.18-.26Zm-13.3,9.12s0,0,0,0q.9.38,1.82.7s0,0,0,.05l.24.14a.5.5,0,0,0,.07.09l-.48-.16a0,0,0,0,0,0,0l-.21-.08q-.83-.38-1.65-.79h0Zm8.44.63h-.29l-.19,0c.05,0,.08-.07,0-.09l-.09,0h.27a6.84,6.84,0,0,0,1.25.15L20,22.5h0a6.24,6.24,0,0,1-.77-.07S19.26,22.38,19.23,22.38ZM23.87,16l.08.12L23.86,16Zm-.06-1.16.06.07h0l-.05-.07Zm-.14-.43.17.22,0,.1,0,0-.16-.2V14.4Zm-.06-.4,0,0,.09.24-.07-.09C23.64,14.13,23.62,14.07,23.61,14Zm-9,9h0l.07,0Zm0,.06h0l.56.17s0,0,0,0l.14.05-.32,0-.42-.14L14.5,23Zm2.15,0,.24.06-.23,0Zm.57-1.22c.5.06,1,.1,1.52.12l-.21.17h-.05l-.66-.15a0,0,0,0,0,0,0l.22.06-.2,0-.45-.14Zm2.12-.33h.27l.21,0h-.18s-.05.07,0,.08a3.88,3.88,0,0,0,.55,0l.52.11-.16.1-.92-.18Zm3.35-2.1c.12-.21.22-.43.32-.65v0q-.14.38-.3.76l-.07-.06,0,0S22.81,19.37,22.8,19.35Zm1-5.22h0L23.69,14h0ZM24.91,14h0v0l0,0Zm-9.73,9.93a0,0,0,0,0,0,0l.28.06.36.1-.36,0Zm.26-.46-.11-.05.13,0,.4.14-.42-.11Zm3.28-1.4.21-.17h.24l.67.07L20,22h.13s0,0,0,0h0A8.66,8.66,0,0,1,18.72,22.07ZM23,18.4l0-.11s0,0,0,0l.05.07v.05l0,.13-.06,0Zm2.07-4.48.09.19v0L25.08,14,25,13.74ZM18.25,24.78H17.5q-.79-.09-1.56-.26H16l.32,0,.55.07a9.45,9.45,0,0,0,1.41.14h-.05Zm-4-1.45.1,0,.17.08h0Zm2.37.15-.11,0,.63.06h0l.2.1-.55,0,0,0h-.15l-.37-.12h.06l.31.12A0,0,0,0,0,16.66,23.47Zm6.43-5.24h0Zm3.14-2.57c0-.13,0-.26-.08-.38v-.05s0,0,0,0S26.22,15.52,26.23,15.66Zm-10.09,7.9.44.06.15,0s0,0,0,0h.13l.18.07-.48,0-.43-.11Zm1.74-.07h0Zm1.51-.6.54.05a4.12,4.12,0,0,0,.74,0h0l0,0-.21.05-1.29-.13h.22Zm1.9-1.37a3.67,3.67,0,0,0,.71-.11l.43.07-.08,0a6.93,6.93,0,0,1-1.06,0ZM16.48,23.8h0Zm.73.21a0,0,0,0,0,0-.06l-.3-.11.72.19-.25,0Zm5.23-2.56-.34-.05.2-.06.37,0-.17.16-.06,0A0,0,0,0,0,22.44,21.44Zm.28-.52.11-.09.2,0,0,0ZM25,15.76s.09,0,.07,0l0,0h0l0,0c0,.13,0,.27,0,.4L25,15.93s0,0,0,0l-.08-.18.05,0Zm.8-.22c0,.09,0,.19,0,.28h0v0c0-.1,0-.21-.05-.31a.08.08,0,0,0,0-.06Zm-2.23,2.77,0-.08.28,0a3,3,0,0,1-.09.55l-.12-.06c0-.1,0-.21,0-.3l0,0s.08,0,.05,0Zm-.35,1.74.09,0c0,.06,0,.12,0,.17s0,0,0,0l-.09,0-.12,0v0l.18-.2Zm-.1.53.06,0h0l0,.07-.06,0Zm.38-.39,0-.06.1.06-.13.17h-.12l.11-.14.06,0h0Zm.25.06h0l-.13.21h0Zm-1.21,2.56a.06.06,0,0,0,0-.06l.22-.11A2.4,2.4,0,0,1,22.55,22.82Zm.44-.28h0l.09-.06Zm-.45.29,0,0h0ZM25,19v0h0s0,.08,0,.13l0,0C25,19.07,25,19,25,19Zm0,.22,0,0h0l0,0ZM25,19c0-.05,0-.11,0-.16s0,0,0,0h0v0l0,.07,0,.13Zm-.5.38h0l-.05,0a.05.05,0,0,0,0,0v0l.06,0Zm.05.68h0Zm0-.05s0-.06-.07,0l0-.07.09-.11C24.64,19.82,24.62,19.9,24.61,20Zm-1.5,2.28h0Zm2-3.83h0l0-.07,0-.05s0,.07,0,.11Zm-.54.7,0,0,.05-.15C24.59,19,24.59,19.06,24.57,19.12Zm-.63,1.26h0Zm-.11.11.06-.07v0l-.05.05Zm-.28,1.32-.12.08,0-.07.11-.08Zm.3-.62.1-.13h0l-.09.16Zm-2.37,2.33-.18.09-.18,0h0Zm2.06-2.92-.06.09h0l.06-.09Zm.29.73h0l-.12.13.08-.17ZM21,23.67h0Zm-.29.37,0,0h0l-.06,0Zm.21-.13.17,0h0l-.05,0h-.12Zm4-5.83v0s0,0,0,0h0Zm-1.48,3.54-.06,0,.12-.11Zm1.41-4.71c0,.07,0,.15,0,.22L24.76,17c0-.09,0-.17,0-.26Zm.06.89h0v0Zm0-.54v.07h0l-.13-.21Zm-.47,1.54h0s0,0,0,0h0c0-.06,0-.13,0-.19s0,.08,0,.12h0S24.41,18.81,24.42,18.8Zm-2.48,4.94.17-.09v0Zm3.78-4.92h0c0-.09.05-.19.08-.29,0,.09,0,.19,0,.28Zm-.52-1.38,0-.09c0-.06,0-.12,0-.18v.05Zm-.44,0,.08.14-.08.29,0-.07C24.74,17.67,24.76,17.55,24.76,17.43Zm-.58,1.92-.05.1,0-.13ZM19.8,24.08l0,0-.12,0,0-.05Zm4-4.14v0h0Zm-.47.63,0,.06s0,0,0-.07Zm-3.87,3.56,0,.05H19.3l.18,0ZM24,22.23l.06-.06h0l0,0Zm1.41-5.67q0,.12,0,.24v0h0C25.43,16.74,25.45,16.65,25.45,16.56ZM24,19.35v0h0Zm0,.23-.12,0,.06-.12Zm-.11.18-.07.11-.07,0v0l0,0Zm-.16.25h0l-.11,0,.08-.11Zm-.5.54s0,.06,0,.08h0l0-.07Zm-.48,1.32-.11.08,0,0-.06,0,0,0Zm2.87-2.67h0l0,0Zm-.18-3.14c0,.05,0,.1,0,.15l0-.05h0s0-.07,0-.11Zm-.2-.42,0,0h0S25.26,15.63,25.26,15.65Zm0,.88h0v0Zm-.27.07-.06-.1h0c0-.08,0-.16,0-.23l.1.2S25,16.54,25,16.59Zm-1.58,3.5v0l0,0-.05,0v0Zm0,.06-.06.08s0-.07,0-.1Zm-.8,1.7h0l-.06,0Zm-.14.18h0Zm-.41.23h0l.17,0Zm-1.19.88h0l0,0h0ZM19,24.27l.11,0h-.38l.16,0Zm.35.07h0Zm6.32-5,0,.15v-.08Zm-.43-3.87h0Zm0,.71v0s0,0,0,0,0-.09,0-.14Zm-.74.08c0,.05,0,.1,0,.15h0c0-.06,0-.12,0-.18Zm-1.11,3.61v0h.12l0,.09Zm0,0,0,0h0Zm-.12.21,0,0h.05Zm-4.58,4.38h-.12l-.05,0Zm1.05.08h0Zm1.51-.34,0,0-.26,0ZM25.41,20l.06-.14v0a.11.11,0,0,0,0,.06.11.11,0,0,0-.06,0Zm-.21-3.74v.06l0-.05c0-.08,0-.17,0-.25C25.19,16.14,25.2,16.23,25.2,16.31Zm-.69.42-.09-.15c0-.14,0-.28,0-.42C24.45,16.35,24.49,16.53,24.51,16.73Zm-.21,1.1v0Zm-.39.55.06.15c0,.11-.06.23-.1.34l0,0A2.86,2.86,0,0,0,23.91,18.38Zm.08.42v.11h0Zm-1,1.34s0-.1,0-.15l.14,0Zm-1.33,2.19h0Zm-2.76,1.49-.35,0,.2,0Zm-.63.63.07,0H18.3l-.1,0Zm7.25-8.92,0,0c0-.06,0-.12,0-.18h0C25.52,15.38,25.53,15.46,25.54,15.53Zm-.36-.41,0,.05v0l0,0s0,0,0-.07l0,0v0Zm-.57.61h0v0h0ZM24.48,17v.09s0-.08,0-.12Zm-.11.55,0,.12,0-.06,0-.15Zm-.36.74v0ZM23.55,18v0l0,.05Zm.24,1,0,0,0,0,0,0Zm.11.05h0l0,.1h0Zm-.07.21,0,0,0,0Zm-1,.69c0,.1.06.2.09.3l0,0h-.07l-.15-.07.11-.24Zm-3.65,3.49h0s0,0,0,0l-.11,0Zm-1.43,1-.12,0h0ZM25.07,15c-.07-.11-.15-.22-.22-.33l0-.08c.09.1.16.21.24.32Zm-.16.2,0,.06,0,0Zm-.48,2-.06-.09c0-.1,0-.2,0-.3C24.41,17,24.41,17.11,24.42,17.24Zm-.47.79h0c-.05-.12-.12-.24-.18-.36l0-.06.21.21Zm-.2,0h0l-.13-.14,0-.12Zm-.09,1v0s0,0,0-.07Zm0,.12,0,.09a.06.06,0,0,0,0-.08Zm.12,0,0,0c0,.11-.07.21-.1.32v0s-.07,0-.06,0l0,.09,0,.08h-.13l.05-.07s0,0,0,0A3,3,0,0,0,23.74,19.15Zm-.36.5v0Zm-.83.78,0,0-.08,0h0Zm-.78,1h.07l-.26,0Zm.11,0,.07,0H22l-.09,0Zm.35.38h0l-.16.11s0,0,0,0l-.09,0-.33,0h0l.59-.16Zm-.49.45a.09.09,0,0,0,0,.05h0s0,0,0-.05Zm-.36.33h.07l-.11.07a6.26,6.26,0,0,1-.84.2l-.14,0c.2-.07.38-.16.57-.24Zm-1.22.59-.38,0,.43,0Zm-.39.17h0Zm-1.14,0h-.37s0,0,0,0l.4,0Zm.2.25.1,0-.29,0-.1,0Zm-.83.37h0Zm-.67,0,.16.06-.34-.09h.18S17.3,23.85,17.31,23.86Zm.63.26.28.08s0,0,0,.07h0l-.32,0-.25-.08Zm-.46.07h-.05Zm-.17.19h0Zm8.83-9.15h0Zm-.35-.29v0l0,0s0,0,0-.07Zm-.28-.23h0Zm0,.25h0v-.07ZM23.7,17.47l0-.18c0,.11.07.22.1.33Zm-.45.7,0,.05v-.06Zm.1.41,0,.06-.06,0Zm.14.52a.07.07,0,0,0,0,.05h0l-.07.06c0-.07,0-.14,0-.21S23.48,19.07,23.48,19.1Zm.1.14a3.15,3.15,0,0,1-.18.36s0-.06,0-.08l0-.14C23.47,19.34,23.53,19.3,23.59,19.25Zm-.41.66-.11,0h.07Zm-.7.52h0Zm.08.35.16,0-.06.05s0,.06,0,.06l-.45,0,.18-.14ZM21,22h.49l-.4.1-.3-.06Zm-.76.77h-.38c.32-.06.62-.13.89-.2C20.59,22.66,20.43,22.75,20.25,22.81ZM18.74,23a6.56,6.56,0,0,0,.92.2l-.29,0-.78-.08L18.15,23l.54,0Zm-1,.18h0l.17,0Zm.48.35.14.07h0l-.29-.07Zm-.47.11h0Zm-.1.12h-.31l-.09,0h.35Zm-1.08.22a10.1,10.1,0,0,1-1.11-.32l.2.05s0,0,0,0l.37.06,1.09.36H16.9l-.4-.07-.32-.09.38.1C16.6,24,16.63,24,16.57,23.95Zm8.87-9.57,0,.15,0-.06,0-.18Zm-.14.12c0,.1,0,.2,0,.3l0,0c0-.1,0-.19,0-.28ZM24,14.91l0,0,0-.07,0,0Zm0,2.77,0-.14,0,.07Zm-.86.85h0v0Zm.21.29c0,.15,0,.3,0,.45h0c0-.16,0-.33,0-.49Zm-.09.86-.18-.07.16-.13C23.3,19.55,23.31,19.62,23.31,19.68Zm0,0H23.2l-.11-.07h0Zm-.67.22c0,.06-.06.12-.09.18L22.39,20Zm-.46,1h0l.07,0Zm-1.08.72c.2,0,.4,0,.61,0l-.2.05a.08.08,0,0,0-.09-.06l-.42.06.08-.08Zm-.17.11h0l0,0Zm-3,1.06h-.27l0,0,0,0Zm0,.16.2.07L17.43,23Zm-.37.11h0l-.08,0Zm-3.93-.05L13.46,23l.23.08Zm1.21.45.39.14-.42-.15Zm1,.49L16,24l.28.08h-.06L15.77,24ZM26,14.75l0-.07c0-.12,0-.24,0-.36,0,.14.09.27.12.41A.1.1,0,0,0,26,14.75Zm-.69-.56,0,.08,0-.06v0Zm-.1.19v.09l0-.13ZM24,14.61l0,0h0Zm-.44,2.17-.05-.05v0Zm0,.24,0,.23c0-.1,0-.2,0-.3Zm-.16.35c0,.09,0,.17,0,.26v0l0,0,0-.09a1.47,1.47,0,0,0,0-.21Zm-.29.36,0-.07v0l0,0Zm.12,1.11c0,.05,0,.1,0,.16l0-.11Zm0,.28c0,.07,0,.14,0,.21a3.52,3.52,0,0,1-.29.23l0,0c.09-.2.17-.41.25-.61Zm-5.87,3.5s0,0,0,0l.37.07Zm.17.17h0Zm-.25.21h0Zm-.79.34a0,0,0,0,0,0,0l.37.1-.56-.06h0l.13,0Zm-.7.07h0l-.32-.06-.21-.07.28,0Zm-1.05.69.09,0h0l-.16,0Zm-.77.3-.24,0-.44-.16.41.1Zm.48,0a6.14,6.14,0,0,0,.65.07l.26.08-1-.12Zm9.4-10v.05l-.08-.22ZM24,15v0l0,0v0Zm.15,2.11c0,.07,0,.13,0,.2L24,17.21l-.12-.2,0-.09v0a.09.09,0,0,0-.05-.09l0-.11,0-.15c.12.18.23.37.33.56Zm-.44-.64h0l-.1-.21v-.06l.11.16Zm-.37,1h0v0Zm-.24.42h0v0Zm-.07.21h0l0,0,0-.06Zm-.05.24,0,.07h0l0-.09Zm-.22,1h0Zm0,.36h-.1l.05-.09Zm-.27.16h0v0Zm-.14,0H22.2L22,19.75l.28.09Zm-1,.31h0Zm1,.5h0Zm-1.16.52-.3-.05.12,0,.26.06Zm-.14,0h0Zm-1.18,1v0h0Zm.3,0,.25,0,.09,0,0,0h-.43Zm.36,0h0Zm.3.13h0q-.33.09-.67.15l.17-.13ZM19,22.77h0l-.25,0Zm-2-.26.16.06-.12,0h0Zm.29.23.19.09-.28,0-.05-.08Zm-.05.31h0Zm-.09.17a.09.09,0,0,0,.06.09h0l-.21,0-.26-.08.12,0Zm-.86.09-.25-.1.34.08Zm-2-.37-.23-.08.18.06Zm.79.41.09,0-.83-.22,0,0Zm-2-.62-.06-.05.14.08Zm-.26.29h0l-.07,0Zm0,0,.16,0q.79.29,1.61.54l.13,0-.14,0-.87-.25-.45-.16L12.87,23Zm1.46.68.81.26h0l.1,0A19.53,19.53,0,0,1,13,23.54l-.54-.26.16-.09Q13.46,23.48,14.33,23.71Zm-1.52-.22-.11,0-.31-.14,0,0Zm11.32-7.81c0,.16,0,.31,0,.47v0c0-.2-.07-.4-.12-.59Zm-.87,1.57,0,.06v0l0-.05Zm-.17.3v0l0-.08Zm0,.24,0,.11h0l.05-.1Zm-.16.29.07,0,0,.07h0l0-.06Zm0,.08h0Zm.05.15,0,.09-.23-.11Zm-.47,0c0,.08.09.16.13.24s0,0,0,0-.08-.15-.12-.23l.39.19v0s0,0,0,0v0h0l0,.09a0,0,0,0,0,.07,0l0-.07.11.06q-.14.32-.3.63l-.09-.12a5.81,5.81,0,0,0-.4-.91Zm.12.68h0Zm-.87-.94.1.11a5.86,5.86,0,0,1,.44.61l-.29-.1A4.51,4.51,0,0,1,21.4,18Zm-.31-.29v0l0,0Zm.94,1.17.12.21-.26-.24Zm.3.58h0l-.08.13,0,0,.08-.14Zm-.08.16h-.05l0,0Zm-.66,0s0,0,0,0a1.89,1.89,0,0,0,.15.16l-.48-.31ZM22,20l-.12,0-.07,0L22,20Zm-1.1.07H21l.2.07c-.14,0-.27,0-.4,0Zm.59.2a3.21,3.21,0,0,0,.4.18l-.66-.15Zm.6.35-.11.12-.19,0,.13-.19Zm-1.31.59q-.38,0-.76,0l-.29,0a7.88,7.88,0,0,0,.88,0Zm-1.13,1.31c-.21,0-.42,0-.63,0a3.09,3.09,0,0,1-.35-.16h.26A6,6,0,0,0,19.63,22.56Zm-1.58,0,0,0,.11,0ZM17,22.69l.06.08a2.47,2.47,0,0,1-.68-.22Zm.19.29v0l-.06,0-.76-.2-.89-.33h0l.68.19A2.55,2.55,0,0,0,17.17,23Zm-.39.18-.1,0-.43-.13.36.05Zm-.89,0s0,0,0,0l.23.07-.41-.09-.13-.05s0,0,0,0l-.71-.18-.43-.19.78.19Zm-1.22-.27-.43-.12s0,0,0,0l-.08,0,.12,0Zm-1-.3h0l-.24-.09s0,0,0,0Zm0,0,.12.05-.13,0Zm.39.18.07,0h0q.67.2,1.36.37h0l.58.22h-.09c-.58-.19-1.17-.36-1.75-.53a0,0,0,1,0,0,.06l.27.1h0l-.27-.08L14,22.69a0,0,0,0,0,0,0l.14.08-.52-.15.13-.07Zm-.5,0a0,0,0,0,0,0,0l.57.21-.46-.14s0,0,0,0c.25.09.5.16.75.24L14.12,23,13.85,23l-.45-.22.07,0Zm-.23,0-.31-.17.38.13Zm-.7.09-.45-.14-.07,0a0,0,0,0,0,0-.07ZM11,22.62l1.29.55s.05,0,0-.06l.23.07-.15.09-.14-.07s0,0,0,0l.13.06,0,0q-.82-.36-1.6-.78Zm.52.44-.73-.36c.39.2.81.37,1.21.55Zm14.54-8.94s0,.08,0,.12l0-.1S26.09,14.12,26.09,14.11Zm-1.74-1.86s0,0,0,0l.29.62,0-.06c-.1-.23-.21-.46-.33-.69Zm.51,1.1.07.15-.16-.24,0-.09Zm-.15-.17-.31-.4-.06-.19.33.48Zm0,.4-.13-.15h0c0-.09,0-.17-.07-.25A4.22,4.22,0,0,1,24.73,13.58Zm-.82,2.27h0v0Zm-.06.29.14.15c0,.07,0,.14,0,.21s.08.07.12,0,0,.14,0,.21c-.1-.17-.21-.33-.32-.5Zm-.63,1.05h0v0h0Zm-.41,0c0,.06.1,0,.09,0s0-.13-.07-.19l0,.08c0,.19.1.38.14.57q-.34-.42-.69-.82c0-.08,0-.17-.06-.25l.4.26C22.71,16.92,22.77,17,22.81,17.17Zm0,.62-.13-.05c-.08-.12-.15-.23-.24-.35s0-.08,0-.12Zm0,.24,0,.07,0,0-.43-.07c0-.07,0-.13,0-.2Zm-.61,0h0c-.14-.24-.29-.48-.43-.71a4.89,4.89,0,0,1,.58.75Zm0,.16h0c.12.22.24.45.34.67h0c-.09-.15-.18-.29-.28-.42s0,0,0-.06L22,18.17Zm-.79-.48,0,.05-.07,0-.1-.21Zm.2.83-.44-.22.12-.24A3.56,3.56,0,0,0,21.55,18.54Zm.2.24a5.49,5.49,0,0,0,.48.44L22,19.15,21.67,19s0,0,0,0l-.8-.28.17-.28A6.15,6.15,0,0,0,21.75,18.78Zm-1.1.23-.06,0s0,0-.06,0l-.11-.05.06-.11.22.12Zm.21.28h0l1,.65-.36,0-.4-.16-.16-.12a.05.05,0,0,0-.09,0c-.16-.07-.33-.14-.48-.23l.24-.31Zm.07.64-.73-.28.06-.06A6.07,6.07,0,0,0,20.93,19.93Zm-.18.08c-.29,0-.58,0-.87,0l.23-.23Zm.06.11-.1.1h-.08l-.35-.08a0,0,0,0,0,0,.09,4.66,4.66,0,0,1-.58-.07l.12-.09A8.94,8.94,0,0,0,20.81,20.12Zm-.23.28.28,0,.51.12-.81-.08Zm1.25.23-.14.2a4.2,4.2,0,0,1-.74,0,4.81,4.81,0,0,1-.68-.17l.19-.18C20.91,20.57,21.37,20.6,21.82,20.63Zm-1.53.5-.5,0,0,0Zm-1.15.31,0,0-.1,0Zm.19.12,0,0c-.06,0-.12.06-.06.09l.23.09h-.17l-.17-.08Zm-.85.7.1,0-.11,0Zm.08.1h-.07l0,0a0,0,0,0,0-.07,0h0l.06,0Zm-.16.07a3,3,0,0,0,.31.17l-.42,0-.17-.07.12-.08Zm-.34.06-.18-.07h.27Zm0,0-.05,0a6.14,6.14,0,0,1-1.16-.26h0c.33.06.66.12,1,.15Zm-1.31-.24a.06.06,0,0,0-.06,0l-.26-.1.32.06Zm-.89.17a1,1,0,0,0,.16.15l-.88-.27L15,22.23a0,0,0,0,0-.06,0l-.27-.08-.16-.07,0,0C15,22.2,15.39,22.32,15.84,22.43Zm-1.47-.29-.11.07c-.14-.09-.28-.17-.41-.27Zm0,0,.05,0,.7.3-.14,0s0,0,0,0l.48.15.26.14c-.27-.09-.54-.19-.81-.3-.06,0-.09.08,0,.1a12.08,12.08,0,0,0,1.19.42l-.29,0-.61-.2a7.55,7.55,0,0,1-.9-.5Zm.37.42-.65-.25.13-.08C14.41,22.36,14.58,22.47,14.75,22.58Zm-.13.11L14,22.53l-.15-.06.08,0Zm-1.4-.31a20.55,20.55,0,0,1-2.25-1l.17-.11Q12.17,21.86,13.22,22.38Zm-2.68-.74h0l-.1,0s-.05,0,0,0l-.7-.4C10,21.38,10.25,21.51,10.54,21.63Zm.77.66-1-.43.06,0Zm-.51.39q-.64-.32-1.26-.66l.44.18C10.25,22.36,10.52,22.54,10.8,22.68Zm-1.61,0-.38-.25s0,0,0-.06l-.11-.08.53.27.52.36ZM26.07,14c-.07-.18-.15-.36-.22-.54l0-.12a2.27,2.27,0,0,1,.1.26.07.07,0,0,0,.05,0l.05.15h0C26,13.89,26.05,14,26.07,14Zm-.72-1h0l0,.15h0L25.31,13l0-.07,0,.06ZM24.15,12q.18.34.34.69l-.26-.37a6.31,6.31,0,0,0-.29-.59Zm-.34.55L23.38,12l.16.13Zm.34.6h0L24.06,13l0,0Zm.23.73-.07-.07c-.07-.07-.18,0-.11.1l.28.3q0,.15.06.31h0s0,0-.05,0a3.53,3.53,0,0,0-.36-.69l-.1-.35C24.13,13.59,24.25,13.72,24.37,13.86Zm0,.68-.14-.17v0h0l0-.2A3.73,3.73,0,0,1,24.37,14.54Zm-.28-.29,0,0,0,0L24,14.15q-.06-.3-.14-.59l.16.21C24,13.92,24.06,14.08,24.09,14.25Zm-.24-.32c-.07-.14-.12-.3-.2-.44a0,0,0,0,0-.06,0c0,.07.07.16.11.24l-.1-.13c-.08-.2-.16-.4-.24-.6a3.39,3.39,0,0,1,.39.43C23.79,13.62,23.82,13.77,23.85,13.93Zm-.52-.38v0Zm.42,1.71.06.25q0,.22,0,.43l-.12-.11c0-.21,0-.42,0-.63Zm0,.79v.1L23.63,16v0Zm-.51.18s0,.05,0,.08l-.06-.17Zm0,.49c0,.06,0,.12,0,.18l0,.14,0-.05c0-.09,0-.19,0-.28Zm-.11.3-.07,0-.06-.1.13.14Zm-1-.66L22,16.23l.09-.26C22.1,16.1,22.15,16.23,22.18,16.36Zm0,.15.06.23-.35-.38v0Zm-.35-.2h0Zm0,.09v0l-.18-.21h0Zm0,.13,0,.13-.27-.28,0-.18Zm0,.06.51.65v.12c-.18-.23-.37-.44-.57-.65Zm.54.87c0,.06,0,.13,0,.2s-.17.15,0,.2l0,0c0,.07,0,.14,0,.2H22.3a4.87,4.87,0,0,0-.64-.82l0-.05.15-.42A8.84,8.84,0,0,1,22.38,17.45Zm-.32.56h0l-.22-.08-.35-.42.11-.26C21.75,17.51,21.91,17.76,22.06,18Zm-.57-.36,0,0h0Zm-.39.2.1.18-.13.28-.26-.13.17-.38Zm-.12.61-.17.29-.24-.1.17-.32Zm-.22.37,0,0-.22-.13h0Zm-.69.9c-.08.08-.15.17-.24.25a7.59,7.59,0,0,1-1.28-.25c.16-.16.31-.33.46-.51Q19.53,19.49,20.07,19.72Zm-.34.34-.12.09a5.91,5.91,0,0,1-1.14-.34h0A7.31,7.31,0,0,0,19.73,20.06Zm.78.34,0,0-.38,0c-.06,0-.07.09,0,.1l.28,0-.18.17a4.14,4.14,0,0,1-.76-.35l0,0A6.45,6.45,0,0,0,20.5,20.4Zm0,.63.06,0H20.4L20,20.91l0,0A4.07,4.07,0,0,0,20.52,21Zm-.43,0H20l-.08,0,0,0Zm-.38.12h-.39L19,21l.8.09Zm-2.41-.4-.45-.22c.18.06.37.1.55.15Zm1.74.58h-.61l-.34-.17A8.44,8.44,0,0,0,19,21.32Zm-1.85.13-.82-.13.15-.07Zm.82.22.17,0q-.76,0-1.52-.14l-.38-.13-.09,0h0l.08,0Zm-1.85-.29-.08-.05.14,0Zm-.16.09s0,0,0,0h0l.06,0-.61-.12.09-.07Zm.1.1s0,0,0,0l.24,0a5.49,5.49,0,0,0,1.53.49l.47.17-.09.06-.7-.05-.16-.06s0,0,0,0l.1,0a11.61,11.61,0,0,1-1.29-.22l0,0s0,0,0-.05l-.14,0-.24-.17s0,0,0,0l.18.13-.19-.06s0,0,0-.08a0,0,0,0,0-.08,0s0,0,0,0l-.49-.15,0,0,.3-.24Zm-1,.16.07,0,.2.09-.29-.1Zm0,0-.18-.07.2.06Zm.65.27a.91.91,0,0,0,.1.3c-.36-.09-.73-.21-1.09-.33l.3-.19C15.2,21.86,15.43,21.92,15.67,22Zm-1.17.07,0,0-.41-.17Zm-.55.35-.08,0q-.71-.32-1.4-.66c-.38-.2-.76-.41-1.13-.63l.14-.11A13.57,13.57,0,0,0,13.94,22.41Zm-2.8-1.18C10.42,20.84,9.71,20.41,9,20l.23-.17a10.85,10.85,0,0,0,1.9,1.42Zm-.06,0-.17.12c-.29-.15-.58-.29-.86-.45s-.79-.56-1.18-.85L9,20Q10,20.68,11.08,21.27Zm-2.1-1-.21-.15h0Zm.22.17q.76.54,1.55,1l-.12.08-.31-.13a12.54,12.54,0,0,1-1.87-1.07l.3-.21Zm1,1.41h0c-.34-.16-.68-.33-1-.51C9.51,21.54,9.85,21.71,10.19,21.87Zm.07,0,1,.44-.07,0c-.3-.13-.59-.27-.89-.41Zm.4.26L10.12,22l.08-.06Zm-1.17-.26-.39-.15-.29-.17h0Zm.06.45c.27.15.54.29.81.42l0,0-.55-.25-.53-.32ZM8.79,22l-.17-.09c-.18-.12-.36-.23-.53-.36h0ZM8,21.5H8Zm-.12.37L8,22l-.76-.53,0,0Zm3.34,1.72-.9-.4-.44-.29c.67.33,1.35.64,2,1l-.65-.23Zm.9.27-.47-.24h0l.29.11h0c.18.12.38.21.57.32l-.43-.14S12.12,23.88,12.09,23.87Zm10.32.19,0,0,0,0Zm2.75-11.4a0,0,0,0,0,0,0l.06.14-.08-.09Zm-1.85-.54c-.26-.23-.52-.45-.8-.66-.1-.16-.2-.33-.31-.49Q22.78,11.52,23.31,12.12Zm-.41-.19.45.51.12.14.31.39a8.89,8.89,0,0,0-.74-.58c-.11-.21-.22-.42-.34-.63Zm1,1.4.06.25-.14-.16c0-.06,0-.11,0-.17s-.07,0-.05,0v.07a3.56,3.56,0,0,0-.36-.32s0,0,0,0l-.14-.29A8.93,8.93,0,0,1,23.88,13.33Zm-.75-.56a.07.07,0,0,0,0,.1c0,.07.05.14.08.21-.26-.34-.54-.67-.82-1,.23.16.46.33.68.5Zm.12.5,0,.07-.08-.09-.07-.15Zm.07.46a5.37,5.37,0,0,0-.55-.78l.4.41C23.22,13.48,23.28,13.6,23.32,13.73ZM23,15.85a13.6,13.6,0,0,0-1.27-1,5,5,0,0,0,0-.52A13.78,13.78,0,0,1,23,15.85ZM23,16c.06.15.12.3.17.46-.18-.16-.37-.31-.57-.46s-.11.05-.06.09q.33.28.64.56c0,.09,0,.19,0,.28L23,16.72A9.45,9.45,0,0,0,21.69,15s0-.06,0-.1A15,15,0,0,1,23,16Zm-1.44-1.07-.2-.22.21.15S21.61,14.92,21.61,14.94Zm.4.77s0,0,0,0l.05.15h0l-.11.32-.23-.11L21.57,16a6.22,6.22,0,0,0,.1-.69Zm-.61.58L21,15.9l.48.2Zm.33.42-.15.4-.22-.35.1-.32Zm-.29.3-.11-.11v0Zm0,0,.08.13-.11.27-.23-.27.1-.27Zm-.06.48h0l-.25-.21,0-.07Zm-.34-.27h0c0-.07-.06-.14-.09-.22a.06.06,0,0,0-.12,0h0l-.25-.24.07-.12.43.46Zm-.48-.36h0Zm.32.4c0,.07,0,.15.06.22l0,.06c-.2-.1-.4-.2-.6-.31l.17-.28Zm0,.43-.17.38-.66-.37.21-.34C20.48,17.54,20.68,17.65,20.89,17.75Zm-.24.53-.16.34-.55-.22-.22-.12.27-.4Zm-1.08.1,0,.05-.32-.21Zm-.75-.46,0,0,.1.06ZM19,19.12h0L18.6,19s-.07,0,0,.05l.39.19c-.15.18-.3.35-.46.51a6.12,6.12,0,0,1-1-.4l-.5-.29a4.88,4.88,0,0,0,.62-.51Zm-.59.66h0ZM19.91,21l0,0-.51-.11s0,0,0,0l.36.08c-.36,0-.72-.09-1.08-.15l-.23-.1s-.08,0,0,.06h0l-.18,0-.56-.22c.14-.11.28-.23.42-.35C18.66,20.47,19.28,20.72,19.91,21Zm-3.78-.86.81.36c-.22-.07-.43-.15-.64-.23-.67-.37-1.33-.76-2-1.16.58.33,1.17.63,1.77.92A.08.08,0,0,0,16.13,20.09ZM15.81,20a11.49,11.49,0,0,1-1.72-.92l.09,0C14.72,19.4,15.26,19.72,15.81,20Zm1.27.85-.07,0-.32-.13Zm.06,0,.45.09.06,0,.44.22-.15,0s0,0,0,0l.28.06-.32,0-.83-.34ZM14,20.6c.52.25,1.05.49,1.59.7l-.1.08-.65-.13s0,0,0,0l.61.13-.3.24q-1.38-.6-2.71-1.31l.34-.31C13.14,20.24,13.55,20.42,14,20.6ZM12.78,20h0l.19.11Zm1.85,1.52c-.85-.28-1.68-.62-2.49-1l.21-.16C13.1,20.79,13.86,21.16,14.63,21.52Zm-.72-.19s0,0,0,0c.34.16.69.3,1,.43l-.31.19-.54-.16s0,0,0,0l-.74-.24-1-.47-.55-.33.29-.22Q13,21,13.92,21.33ZM9.34,19.71c-.22-.19-.43-.4-.64-.61a.05.05,0,0,0-.07.07,8.25,8.25,0,0,0,.6.63L9,20l-.54-.32s0,0,0,0l.51.32-.09.07c-.26-.2-.53-.39-.78-.6a5,5,0,0,1-.53-.53c.28-.1.56-.2.83-.32.39.32.78.63,1.18.93ZM8,19.54c.25.21.51.39.77.58h0c-.51-.34-1-.71-1.49-1.11L7.43,19A5.27,5.27,0,0,0,8,19.54Zm.73.6-.3.21a15.18,15.18,0,0,1-1.52-1.22L7.24,19C7.73,19.43,8.23,19.8,8.74,20.15Zm-3-1.64c-.18-.17-.37-.34-.55-.51l0,0Zm.56.78-.08,0c-.41-.38-.82-.78-1.19-1.19l.07-.05C5.51,18.49,5.92,18.89,6.33,19.28Zm-.18.05-.08,0s0,0,0,0l.09,0a17,17,0,0,0,1.91,1.56s.08,0,0-.07a19.1,19.1,0,0,1-1.85-1.53l.08,0,.54.51,0,0s0,0,0,0l.24.15.62.51h0c.21.17.41.36.63.52a0,0,0,0,0,0,0c-.13-.1-.25-.21-.38-.31a17,17,0,0,0,2.14,1.24L10,22h0s0,0,0,0l0,0-.49-.23L9,21.5s-.06,0-.07,0h0q-.6-.31-1.18-.65c-.35-.25-.7-.48-1-.76,0,0-.07,0,0,0l.07.06c-.32-.22-.63-.46-.92-.71s-.37-.37-.55-.57-.24-.33-.35-.51c0,0-.07,0-.05,0l.08.12-.2-.24L5,18.16C5.36,18.57,5.75,19,6.16,19.33Zm.1.75.24.23-.24-.18h0L6,19.9Zm.57.53.25.23c-.2-.15-.39-.31-.57-.48Zm1,.78.11.08-.12-.07h0Zm-.5,0L7,21.18l.43.28Zm-.58-.3h0l.35.24s0,0,0,.07l0,0-.66-.48-.26-.25.61.45ZM8.86,22.8h0l-.26-.13h0Zm2.37.89a.08.08,0,0,0,0,0q.58.22,1.18.41h0Q11.8,23.9,11.23,23.69Zm12.71-.43h0l0,0ZM26.5,17.8h0v0S26.5,17.81,26.5,17.8ZM25.24,12c-.18-.28-.36-.55-.56-.81l-.11-.15-.15-.37a3.6,3.6,0,0,1,.48.64l.18.32C25.14,11.8,25.19,11.92,25.24,12ZM23.32,9.22l-.25-.3.16.18Zm.17.22h0l0,0a0,0,0,0,0,0,0Zm.22.29h0l.17.22Zm.66.93.14.33-.11-.15-.12-.26s0,0,0,0l0,.1-.22-.3A3,3,0,0,1,24.37,10.67Zm.74,2L25,12.54l-.12-.18s.05,0,0,0l-.33-.53.35.44C25,12.36,25.06,12.49,25.11,12.62Zm-1.64-1.45.19.36c-.37-.5-.76-1-1.15-1.46A5.34,5.34,0,0,1,23.48,11.18Zm.57,1.16L24,12.27l0-.15ZM21.57,10v.08l-.15-.19Zm.26.6.36.53-.49-.45q0-.09,0-.18Zm.45.66,0,0c-.2-.14-.4-.29-.61-.42,0-.06,0-.12,0-.18C21.9,10.9,22.09,11.08,22.28,11.27Zm-.65.07c.1.1.19.22.28.32l-.24-.15a0,0,0,0,0,0,.07l.56.38c.29.33.58.67.85,1a0,0,0,0,0,0,0l0,.09a12.57,12.57,0,0,0-1.54-1.27Q21.59,11.6,21.63,11.34Zm0,.6-.07,0h0Zm-.2-.13h0c-.07,0-.14.07-.07.11l0,0v0l-.85-.79c.31.19.61.39.9.61Zm.1.21a4.74,4.74,0,0,1,1.74,1.89,24.82,24.82,0,0,0-1.76-1.82Zm2.07,3.06c0,.2,0,.41,0,.62l-.17-.16c0-.13,0-.25-.06-.38s0-.27,0-.4l.28.29S23.55,15.07,23.55,15.09Zm-1.32-.57L21.64,14a4.75,4.75,0,0,0-.12-.5Zm.2.28c.2.29.38.58.56.87a13.47,13.47,0,0,0-1.33-1.5v0Zm-.84-.7,0,0,0,0Zm0,.16a5.12,5.12,0,0,1,0,.54l-.43-.29-.33-.35a.07.07,0,0,0-.11.09h0l-.14-.08.27-.57Q21.25,13.92,21.59,14.25Zm-1.1.76c-.21-.18-.43-.34-.65-.51s-.37-.47-.56-.7Q19.91,14.38,20.49,15Zm.43.48.38.44-.53-.19-.12-.1q-.33-.5-.69-1C20.29,14.92,20.61,15.2,20.92,15.48Zm-.12.35.58.52-.09.29,0,0c-.16-.27-.33-.53-.5-.79Zm.1.36.36.56,0,.08h0s0,0,0,0h0l-.1.27-.42-.45.12-.22s0-.06,0,0l-.12.2q-.55-.58-1.14-1.13a8.15,8.15,0,0,1,1.07.27C20.7,15.91,20.8,16.05,20.9,16.2Zm-1.47-.71-.09.19-.28-.25.36.06Zm0,0q.6.57,1.16,1.17l-.07.12-1.18-1.11Zm1.07,1.34h0a11.4,11.4,0,0,0-1.07-.65s-.09,0,0,.07a11,11,0,0,1,1.06.68l-.17.29c-.3-.17-.59-.36-.89-.56l-.4-.26c.12-.23.24-.47.35-.7Zm-1.19-.06c.29.2.58.4.88.58l-.21.34L18.73,17l.23-.41Zm.59,1-.27.4c-.43-.25-.86-.49-1.28-.75.1-.15.19-.3.28-.45C19.1,17.3,19.52,17.58,19.94,17.85Zm-1.42-.13a0,0,0,0,0,0,0l-.24-.11,0-.06Zm-.27-.08q-.67-.33-1.33-.68l.18-.18q.59.41,1.2.79Zm-.07.1a6.14,6.14,0,0,1-.56.68c-.51-.23-1-.47-1.5-.71.25-.21.49-.43.72-.66Q17.49,17.41,18.17,17.74Zm-.63.75a4.8,4.8,0,0,1-.61.52l-.21-.14a5.28,5.28,0,0,1-1-.86l.26-.23C16.53,18,17,18.26,17.54,18.49Zm-1.37,0-.56-.38.12-.1A5.37,5.37,0,0,0,16.17,18.51Zm.65.58,0,0s0,0,0,0l.06,0a10.4,10.4,0,0,0,1.5.78,6.84,6.84,0,0,1-.94-.39c-.06,0-.12.06-.06.09a7,7,0,0,0,.92.4l-.16.14c-1-.48-2.07-1-3.07-1.57.16-.11.32-.21.47-.33C15.92,18.51,16.36,18.81,16.81,19.09ZM18,20.18c-.14.12-.27.24-.42.35l-.8-.34C16,19.8,15.16,19.4,14.38,19c.2-.12.39-.24.57-.37C15.94,19.17,17,19.7,18,20.18Zm-3.66-1.23L14,18.76c.14-.16.29-.3.42-.47l.47.28C14.73,18.7,14.55,18.83,14.35,18.95ZM14,18.73a15.34,15.34,0,0,1-2.67-1.95l.3-.29c.92.61,1.85,1.21,2.79,1.77C14.26,18.43,14.11,18.57,14,18.73Zm-.15,0,0,0Zm0,.11,0,0a11.78,11.78,0,0,1-1-.75C13.17,18.39,13.5,18.64,13.85,18.87Zm.06,0,.26.15-.08,0L13.86,19Zm.11.23-.45.24-.06,0c.11-.11.21-.23.31-.34Zm2.77,1.94-.1,0L16.13,21A.07.07,0,0,0,16,21a7.42,7.42,0,0,1-1.75-.61s0,0,0,0a7.32,7.32,0,0,0,1.59.62l-.1.08-.11-.07c-.05,0-.1,0-.05.08l.08.05h0a25.52,25.52,0,0,1-2.79-1.28l.38-.34A20.36,20.36,0,0,0,16.79,21.07Zm-4-1.18a21.21,21.21,0,0,1-2.07-1.27l.37-.33a21.78,21.78,0,0,0,2.07,1.26Zm-1.15.9-.72-.37c-.43-.3-.86-.61-1.28-.92l0,0A23.15,23.15,0,0,0,11.66,20.79Zm-2-1.3c-.4-.3-.78-.6-1.16-.91l.08,0c.37.31.75.62,1.14.91Zm-1.3-.9c-.27.11-.54.22-.82.32-.16-.19-.32-.38-.47-.58,0,0,0,0,0,0l-.13-.13a5.94,5.94,0,0,0-.83-.89s0,0,0,0a5,5,0,0,0,.36-.44Q7.33,17.76,8.34,18.59ZM6,17.3a0,0,0,0,0,0,0l0,0Zm.56.64c.28.33.54.68.82,1L7.24,19l-.43-.34s0,0,0,0l.42.34-.32.11q-.39-.35-.76-.73c-.19-.21-.38-.43-.56-.66.13-.11.26-.24.38-.37Zm-1-.23c-.17-.22-.34-.43-.49-.66,0,0,0,0,0,0,.14.21.28.41.43.61q-.45-.51-.88-1c.12-.12.24-.23.34-.36.32.36.66.72,1,1.06C5.82,17.46,5.69,17.59,5.56,17.7Zm-.07.06-.21.16q-.5-.5-1-1l.25-.24Q5,17.22,5.49,17.77ZM5.23,18l0,0c-.29-.3-.57-.61-.86-.92l-.09-.11,0,0Q4.74,17.46,5.23,18Zm-1-1c.26.29.53.57.79.85l.14.18-.07.05c-.31-.34-.6-.71-.88-1.08Zm0,0-.25-.31.27.3ZM5,18.15l-.26.17c-.28-.35-.56-.73-.82-1.11l.2-.15C4.4,17.43,4.68,17.8,5,18.15Zm-.88-.44c.13.2.27.39.42.58-.27-.31-.54-.62-.79-.95l.08-.06ZM5,18.83s0,0,0,0l.14.14,0,0,.11.12L5.13,19s0,0,0,0l.4.36a7.57,7.57,0,0,0,1.8,1.65l.19.16h0l0,0a.06.06,0,0,0-.07,0c-.16-.11-.32-.21-.48-.32a32.63,32.63,0,0,1-2.5-2.34l.18-.11Zm.53.82s-.05,0,0,0a13.3,13.3,0,0,0,1.6,1.41l-.52-.3s0,0,0,0c-.76-.71-1.5-1.44-2.19-2.21l.07,0C4.76,18.93,5.13,19.29,5.51,19.65Zm.84,1.08-.56-.41q-.8-.8-1.54-1.69l0,0C4.93,19.35,5.64,20,6.36,20.73Zm.59,1c.3.2.6.39.92.57h0c-.28-.15-.55-.31-.82-.48Zm1.36.8.19.1h0l-.19-.1Zm17.09-1.41v0h0l-.06.11S25.4,21.15,25.41,21.12ZM26.48,19s0-.09,0-.14-.07-.06-.09,0l0,.08h0s0,0,0,0h0a3.77,3.77,0,0,0,.11-.5s.08-.79.11-.38a2.58,2.58,0,0,1-.12,1Zm.13-3.1h0l0,.25C26.65,16.1,26.63,16,26.61,15.93Zm-3.9-7.58.1.13Zm-.2-.1L22,7.78l0,0Zm1.41,1.92h0A9.47,9.47,0,0,0,23,9.24l-.32-.39C23.14,9.27,23.53,9.72,23.91,10.18Zm.28.61,0,0-.06,0L24,10.55Zm-.37,1.09.05.17a13.7,13.7,0,0,0-2.15-2l0,0c0-.12,0-.25,0-.38s-.12,0-.12,0,0,.16,0,.25l-.43-.34L21,9.38c.08-.22.16-.44.23-.67A35.78,35.78,0,0,1,23.82,11.88Zm-2.7-2.21.42.53c-.21-.18-.43-.36-.66-.52l.06-.13Zm.46.72c0,.06,0,.12,0,.18q-.39-.34-.8-.64l.06-.15Q21.22,10.08,21.58,10.39Zm0,.21c0,.07,0,.14,0,.21a9.21,9.21,0,0,0-1-.5c.06-.12.11-.24.16-.37Q21.18,10.26,21.57,10.61Zm-.07.62c0,.18-.06.35-.11.53-.32-.22-.64-.43-1-.62L20.25,11c.11-.19.21-.37.31-.57A11.1,11.1,0,0,1,21.5,11.23Zm-.19.84-.08.25A8.83,8.83,0,0,0,20,11.41l.22-.37Zm.12.12a24.43,24.43,0,0,1,1.83,1.94l0,0s0,0,0,0L23,13.86c0-.05-.13,0-.1.07.14.21.3.42.45.63l-.26-.25a15.3,15.3,0,0,0-1.71-1.87Zm1.15,1.72a15,15,0,0,0-1.3-.94l-.08-.1.1-.27A17.65,17.65,0,0,1,22.58,13.91ZM21.18,13l.27.38a4.7,4.7,0,0,1,.12.54l-.63-.47c.07-.16.14-.32.2-.48Zm-.6.29.19.17-.28.61A12.18,12.18,0,0,0,19,13.42l0,0c-.21-.25-.43-.5-.65-.74,0,0-.05,0,0,0s.21.27.33.4a16.78,16.78,0,0,0-2.51-1.75c.11-.14.22-.27.31-.42A23.92,23.92,0,0,1,20.58,13.34ZM16,17.76l-.25.22c-.05-.06-.11-.11-.17-.18s0,0,0,0,.11.12.16.18l-.13.11-.69-.47a.06.06,0,0,0-.07.1l.64.45-.47.33c-1.14-.65-2.25-1.35-3.35-2.07l.09-.08s0-.06,0,0l-.1.09-1.42-.94c.22-.18.43-.37.64-.57A48.89,48.89,0,0,0,16,17.76Zm-4.42-1.3-.3.28-.18-.16s-.08,0,0,0l.18.17-.09.09c-.46-.35-.9-.73-1.36-1.09.13-.09.27-.18.39-.27Zm-.31.36q.4.38.82.72c-.3-.21-.61-.41-.91-.63Zm1.25,1.1a11.92,11.92,0,0,0,1.26,1c-.11.11-.21.24-.32.35-.48-.24-.95-.49-1.42-.76,0,0,0,0,0,0,.46.27.93.52,1.41.76l-.18.17a22.27,22.27,0,0,1-2.09-1.24c.23-.21.45-.43.67-.66,0,0,0,0,0,0-.22.23-.45.45-.68.66-.3-.2-.58-.42-.87-.64a9.34,9.34,0,0,0,.85-.64C11.56,17.3,12,17.61,12.5,17.93Zm-1.41.34-.37.33-.38-.26a0,0,0,0,0,0,0l.37.26,0,0c-.31-.24-.62-.48-.92-.72l.5-.32C10.51,17.84,10.8,18.07,11.09,18.27Zm-.49.43q-.43.36-.87.71c-.38-.29-.76-.59-1.14-.89l.2-.09.9.67s.08,0,0-.06l-.87-.65c.27-.13.54-.27.81-.42C10,18.23,10.28,18.47,10.6,18.71ZM4.91,16.25c-.11.13-.22.25-.34.36Q4,15.91,3.46,15.18c.11-.1.22-.2.33-.31Q4.32,15.59,4.91,16.25Zm-.36.39-.24.24-.24-.27s-.06,0,0,0l.24.27,0,0q-.57-.72-1.08-1.5c.1-.08.18-.17.27-.25C3.8,15.68,4.17,16.16,4.55,16.64Zm-.35.25-.54-.58q-.28-.4-.55-.83l.06,0C3.49,15.94,3.84,16.42,4.2,16.89Zm-.75-.8L3.39,16s-.05,0,0,0l.28.32c.15.23.31.45.47.67l-.2.15L3.78,17h0c-.06-.11-.13-.2-.18-.31s0,0,0,0,.11.19.16.28a0,0,0,0,0,0,.07l.13.2-.08.06a14.6,14.6,0,0,1-1.07-1.58,4.51,4.51,0,0,0,.41-.26C3.19,15.7,3.32,15.89,3.45,16.09Zm.27,1.25-.14.11s0,0,0,0l.14-.11c.28.36.57.71.88,1.05l-.18.11a15.16,15.16,0,0,1-2-2.61c.09,0,.16-.1.24-.15A14.58,14.58,0,0,0,3.72,17.34Zm.68,1.19-.07,0A14.4,14.4,0,0,1,2.46,16,15.3,15.3,0,0,0,4.39,18.53Zm-.15.09c-.14-.17-.29-.32-.43-.5,0,0,0,0,0,0-.33-.45-.63-.92-.93-1.39a15.23,15.23,0,0,0,1.41,1.86Zm-.44-.45c.13.16.27.32.4.48h0s0,0,0,0h0c.25.31.51.62.78.92A17.9,17.9,0,0,1,3.8,18.19,0,0,0,0,0,3.81,18.17Zm4.07,4.24-.18-.11.5.26,0,0ZM22.68,24l.09-.06h0l.11,0s0,0,.07-.07a5,5,0,0,0,.68-.27A8.2,8.2,0,0,1,22.68,24Zm3.17-3.35h0C25.82,20.9,25.79,21,25.85,20.69Zm.23-.78h0Zm.26-.3h0l0,.07Zm-2.22-9.55c-.2-.26-.4-.51-.61-.76a5.4,5.4,0,0,0-1.29-1.52l-.41-.49a0,0,0,1,0,0,0l.3.37,0,0a37.84,37.84,0,0,0-2.8-2.62s0,0,0,0a34.35,34.35,0,0,1,2.62,2.5h0a33.89,33.89,0,0,0-6.35-4.79s0,0,0,0a49.23,49.23,0,0,1,5.66,4.27h0l.37.4A12.8,12.8,0,0,0,18,5.33c-.06,0-.11.08,0,.1a16.83,16.83,0,0,1,4.67,3.32l.35.42a6.78,6.78,0,0,0-.86-.69s0,0,0,0a7.16,7.16,0,0,1,1.31,1.27l.24.33h0c-.15-.15-.3-.3-.46-.44s0,0,0,0a9.15,9.15,0,0,1,.72.73l.2.3a3.27,3.27,0,0,0-.36-.27,9.48,9.48,0,0,0-.83-1l-.17-.2s0,0,0,0l0,0-.26-.3a.06.06,0,0,0-.08,0l-.17-.16s0,0,0,0l.16.16V9a7,7,0,0,0-.64-.7.06.06,0,0,0-.09.07c-.28-.27-.56-.55-.84-.81h0c.32.3.63.62.95.93a7.78,7.78,0,0,1,.87,1.06A17,17,0,0,0,19.61,7a22.45,22.45,0,0,0-3.17-2.39,0,0,0,1,0,0,0,22.45,22.45,0,0,1,3,2.26s0,0,0,0,.21.17.32.25c.51.47,1,.95,1.47,1.45-.07.22-.15.44-.23.65a30.09,30.09,0,0,0-2.3-2.39s-.06,0,0,0a30,30,0,0,1,2.22,2.36,16,16,0,0,0-1.7-1.08,0,0,0,1,0,0,0c.37.21.71.43,1.05.66a23.06,23.06,0,0,0-2.31-1.22s0,0,0,0a25.26,25.26,0,0,1,3,1.77l-.06.13a13.09,13.09,0,0,0-2.48-1.46s-.05,0,0,.05a13.94,13.94,0,0,1,2.46,1.51l-.06.15a10.62,10.62,0,0,0-1.11-.72s0,0,0,0a10.6,10.6,0,0,1,1.11.73c-.06.13-.11.26-.17.38l-.12,0,0,0s0,0,0,0a7.32,7.32,0,0,0-1.8-.52s0,.06,0,.06a7.24,7.24,0,0,1,1.93.59c-.09.19-.2.38-.3.57l-1-.94s-.07,0,0,0l1,1-.21.38a5.13,5.13,0,0,0-3.14-.84s0,.07,0,.07a5.58,5.58,0,0,1,3.05.9c-.13.21-.26.42-.4.62,0,0,0,0,0,0,.14-.2.28-.41.41-.62a9.38,9.38,0,0,1,1.27.95l-.12.34c-.32-.2-.65-.39-1-.56,0,0-.09,0,0,.07.34.18.65.4,1,.61l-.2.47A13.63,13.63,0,0,0,19,12.14s-.07,0,0,.05a24.66,24.66,0,0,0-2.55-1.3A16.43,16.43,0,0,0,18,6.62s0,0,0,0a18.7,18.7,0,0,1-1.64,4.26l-.61-.27s0,0,0,0l.6.27c-.09.15-.2.28-.3.42a14,14,0,0,0-2.37-1.06,13.41,13.41,0,0,0,.43-1.54,0,0,0,0,0,0,0,13.59,13.59,0,0,1-.43,1.53h0a0,0,0,0,0,0,0h0a12.43,12.43,0,0,1-1.4,2.89,47.3,47.3,0,0,1-6.33-5,10.45,10.45,0,0,0,1.49-2,0,0,0,0,0,0,0,11.87,11.87,0,0,1-1.47,2c-.53-.51-1-1-1.55-1.6.19-.31.37-.62.53-.9a0,0,0,0,0-.07,0c-.17.26-.35.56-.54.86l0,0s-.1,0-.06.06l0,0A2.93,2.93,0,0,1,2.46,8s0,0,0,0A2.65,2.65,0,0,0,4.29,6.59c.49.56,1,1.09,1.52,1.61l-.24.25s0,0,0,0l.25-.25a44,44,0,0,0,6.33,5.06,10.6,10.6,0,0,1-.82,1.06,11.31,11.31,0,0,1-1.38-1.11s0,0,0,0a11.26,11.26,0,0,0,1.38,1.12c-.14.15-.27.31-.42.46A38,38,0,0,1,4,9.28s0,0,0,0a34.35,34.35,0,0,0,6.79,5.6c-.21.2-.42.39-.64.57l-.38-.25a0,0,0,0,0,0,0l.36.25c-.12.1-.26.18-.39.27-.37-.3-.75-.58-1.12-.9,0,0,0,0,0,0,.36.32.74.6,1.1.9-.18.12-.35.26-.54.37,0,0,0,0,0,0,.19-.11.37-.25.55-.38.45.37.89.75,1.35,1.11a9.58,9.58,0,0,1-.85.64c-.24-.18-.48-.34-.72-.53,0,0,0,0,0,0,.23.19.47.35.7.53l-.5.32a30.13,30.13,0,0,1-4.74-4.77s0,0,0,0l.05.06A12.19,12.19,0,0,1,3.81,14.8,24.07,24.07,0,0,1,2.1,12.21s0,0,0,0a23.69,23.69,0,0,0,1.69,2.61c-.1.11-.21.21-.32.31l0,0s0,0,0,0l0,0c-.09.08-.17.17-.27.25-.18-.27-.37-.53-.54-.8h0c.17.28.36.54.54.81l-.06,0c-.08-.13-.18-.25-.26-.39s0,0,0,0,.17.26.25.4a4.49,4.49,0,0,1-.4.26,10.48,10.48,0,0,1-1.2-3h0a10.49,10.49,0,0,0,1.19,3c-.08,0-.15.11-.24.15l0,0a10.28,10.28,0,0,1-.67-1.5h0c.1.3.22.58.34.86-.08-.16-.17-.31-.25-.48h0c.08.19.18.36.28.54s.3.62.46.91q-.3-.5-.58-1c-.18-.37-.34-.74-.49-1.12,0,0,0,0,0,0,.08.21.17.41.26.62l-.47-.89a18.6,18.6,0,0,1-.89-5q0-.66,0-1.31a2.56,2.56,0,0,0,1.39-1A4.58,4.58,0,0,0,3,5.6,3.44,3.44,0,0,1,1.79,6.75s0,0,0,0A3.2,3.2,0,0,0,3.58,4.14h0a2.56,2.56,0,0,0,.17-.36,0,0,0,0,0-.08,0,3.78,3.78,0,0,1-.46.92h0L3,4.91H3l0,.07a6,6,0,0,1-.69.7,0,0,0,0,0,0,0,3,3,0,0,0,.72-.94,0,0,0,0,0,.07,0,2.3,2.3,0,0,0,.17-.32A3.82,3.82,0,0,0,3.81,3c0-.05-.07-.08-.08,0a3.94,3.94,0,0,1-.15.43v0a1.32,1.32,0,0,0,0-.83h0s0,0,0,.07.09.06.09,0,0-.06,0-.09l.2,0c0,.05.09.07.1,0v0l.51,0a7,7,0,0,1-.61,1.88h0a6.16,6.16,0,0,0,.64-1.89h.05c0,.09,0,.18,0,.28s.05,0,.06,0,0-.19,0-.28h.47a12.6,12.6,0,0,1-.37,2.16,0,0,0,0,0,0,0,10,10,0,0,0,.38-2.17,3.91,3.91,0,0,1,1.2.22s0,0,0,0a3.79,3.79,0,0,0-1.21-.25c0-.08,0-.16,0-.24a0,0,0,1,0,0,0c0,.08,0,.16,0,.24H4.62a4.45,4.45,0,0,0,0-.7,17.52,17.52,0,0,1,7.87-.24,19.17,19.17,0,0,1,4.86,2A21.81,21.81,0,0,1,24.13,10.06ZM4.56,2.42h0c0-.12,0-.24,0-.37C4.57,2.18,4.57,2.3,4.56,2.42Zm0-.55c0,.19,0,.37-.08.55L4,2.45a.86.86,0,0,0-.06-.53c.21-.07.42-.12.63-.19C4.55,1.78,4.56,1.82,4.56,1.87Zm-.9.61a.66.66,0,0,0-.15-.4L3.82,2a1.41,1.41,0,0,1,0,.51ZM1.92,5.92a2.86,2.86,0,0,0,.24-.22L2.1,5.8,2,5.91s0,0,0,0l.05,0-.18.3a2.08,2.08,0,0,1-1.24.43,0,0,0,0,0,0,0H.76a0,0,0,0,0,0,.05,1.78,1.78,0,0,0,1-.3l-.07.09a3.28,3.28,0,0,1-1.19.34s0,0,0,0a3.41,3.41,0,0,0,1.12-.29A2.61,2.61,0,0,1,.34,7.5c0-.29,0-.59,0-.88l0-.14a1.21,1.21,0,0,0,.76,0c.05,0,0-.09,0-.08a1.68,1.68,0,0,1-.74,0c0-.17,0-.34.06-.5l0-.07a1.08,1.08,0,0,0,1.14,0A1.06,1.06,0,0,1,1,6.11s0,0,0,0a1.16,1.16,0,0,0,.77-.39h0s0,0,0,0a2.39,2.39,0,0,0,.24-.3A2.44,2.44,0,0,0,3,4l.07-.1s0,0,0,0,.06-.11.08-.18,0,0-.05,0,0,.09-.06.14a3,3,0,0,0,0-.48s0,0,0,0A2.86,2.86,0,0,1,2.91,4h0a3.94,3.94,0,0,1-.27.4l-.07.09a2.46,2.46,0,0,0,.24-.65s0,0,0,0A1.29,1.29,0,0,0,3,3.2a1,1,0,0,0,0-.47s0,0,0,0A.57.57,0,0,0,3,2.52a1.14,1.14,0,0,1,.3,1s-.07-.05-.08,0a5.3,5.3,0,0,1-.32,1.09A4.08,4.08,0,0,1,2.59,5h0a4.06,4.06,0,0,0,.26-.34,3.12,3.12,0,0,1-1,1.28S1.91,5.93,1.92,5.92ZM3,4.88a2.66,2.66,0,0,0,.41-.49A3.28,3.28,0,0,1,3,5.58s0-.06,0,0A6.83,6.83,0,0,1,2.45,6a3.14,3.14,0,0,0,.77-1.22s0,0,0,0a3.42,3.42,0,0,1-.92,1.36,4.5,4.5,0,0,1-.44.29l.12-.17,0,0A3.41,3.41,0,0,0,3,5s0,0,0,0ZM2.07,6c.06-.1.13-.2.18-.3s0,0,0,0a5.92,5.92,0,0,0,.57-.55A4,4,0,0,1,2.07,6Zm1.19-3.7a1.83,1.83,0,0,1,.08.17H3.25s0,0,0,0l0,.05a0,0,0,0,0,0,0l0-.05h.1a1.83,1.83,0,0,1,.12.61,2.38,2.38,0,0,1-.1.42A1.18,1.18,0,0,0,2.9,2.43l-.06,0v0l.29-.12ZM3.16,4a4.6,4.6,0,0,0,.11-.49A3.07,3.07,0,0,1,3.16,4ZM1.89,5.56l-.09.11h0a1.17,1.17,0,0,1-1.26.08l0-.12h0c0-.11.07-.2.11-.31l0,0s0,0,0,0,0,0,.06,0A.53.53,0,0,0,1,5.5H1s0,0,0,0h.11a.93.93,0,0,0,.59-.29,2.76,2.76,0,0,0,.59-.54,3.13,3.13,0,0,1-.58.71s0,0,0,0l-.79.21h0a.51.51,0,0,0,.39.09h0s0,0,0,0l0,0a.57.57,0,0,0,.24-.13,2.23,2.23,0,0,0,.69-.64l.12-.11a6.1,6.1,0,0,1-.3.53c-.07.05-.12.12-.19.17S1.85,5.57,1.89,5.56Zm.46-.78-.07.06.06-.11S2.33,4.77,2.34,4.78Zm.15-.37a0,0,0,0,0,0,0l.11-.17ZM.81,4.57l-.07.17,0-.09.06-.13Zm1-.65a.51.51,0,0,1-.12.12l.09-.11Zm.41-.4a1.91,1.91,0,0,1-.16.39A.45.45,0,0,1,1.93,4s0,0,0,0A.46.46,0,0,0,2.08,4L2,4.11a.44.44,0,0,1-.47.14,0,0,0,0,0,0,.06.45.45,0,0,0,.25,0H1.67a.59.59,0,0,1-.32-.06h0a.36.36,0,0,0,.22-.08c.18,0,.33-.15.43-.34A.92.92,0,0,0,2.26,3.53Zm.15-.21.06-.07a.83.83,0,0,1,0,.09v0a1.57,1.57,0,0,1-.07.22.57.57,0,0,0,0-.06c0-.06,0-.12,0-.19Zm-1,1.27-.08,0s-.08,0,0,.06l.12.06a.44.44,0,0,1-.26-.11l.09-.16A.28.28,0,0,0,1.43,4.6Zm.33-.17a.06.06,0,0,0,.07,0l.12-.11s0,.05.06,0a1.78,1.78,0,0,1-.14.2s0-.07-.05,0l-.24,0a.35.35,0,0,0,.1-.09A.4.4,0,0,0,1.76,4.43ZM1,4.73a1,1,0,0,1,0-.17,0,0,0,0,0,0,0L1,4.39c0,.05,0,.1,0,.15s0,0,0,0A.6.6,0,0,0,1,4.73ZM1.17,5A.05.05,0,0,0,1.26,5a.92.92,0,0,1,0-.09.49.49,0,0,0,.41,0l0,0L1.46,5h0a.75.75,0,0,1-.17.08l-.08,0a.86.86,0,0,1-.16-.32A.67.67,0,0,0,1.17,5ZM2.73,2.59h0Zm-1,2.09,0,0Zm0,0h0Zm-.52.1,0-.07a.65.65,0,0,0,.21.11A.49.49,0,0,1,1.21,4.8Zm0-.47a.46.46,0,0,0,0,.09l-.08.15A1,1,0,0,1,1.2,4.33ZM1,4.57a.87.87,0,0,0,.1.56L1,5.1a.84.84,0,0,1-.12-.26l0-.14ZM2.53,3.4a.75.75,0,0,0,0-.19v0h0v0s0,0,0,0V3a.4.4,0,0,1,0,.16C2.58,3.27,2.55,3.33,2.53,3.4Zm0-.37V3s0-.07,0-.11A.31.31,0,0,1,2.56,3ZM1.8,4.31h0Zm.76-1.57s0,0,0,0l.08,0v0l0,.12-.06-.12s0,0,0,0a1.3,1.3,0,0,1,.06.16l0,.07a.36.36,0,0,0-.16-.14s0,0,0,0a1.49,1.49,0,0,1-.06-.15ZM1.41,4.17l0-.06,0,0Zm.18-.1A.21.21,0,0,1,1.5,4l.08-.14a.37.37,0,0,0,.15.06Zm0-.29h0a0,0,0,0,0,0,.05L1.44,4s-.07,0,0,.08h0l-.05.1-.07,0a.26.26,0,0,1,0-.12s0,0,0,0h0l.19-.28ZM.68,5.22s0,0,0,0h0ZM2.32,2.73h0l0,.07-.09,0Zm-.09.1h0Zm0,.06a.27.27,0,0,1,.24.26L2.4,3.3s-.07,0-.08,0h0a.42.42,0,0,0-.42-.14s0,0,0,0c.2,0,.31.06.36.15A1.41,1.41,0,0,1,2,3.73a0,0,0,0,0-.05,0l0,.07-.05,0a0,0,0,0,0-.05,0l0,.05a.29.29,0,0,1-.18-.05v0l.09,0a.35.35,0,0,0,.24-.17s0-.05,0,0l0,0a0,0,0,0,0-.05,0l-.08,0,.16-.28a0,0,0,0,0,0,0l-.19.32-.16,0a6,6,0,0,1,.37-.48L2.13,3s0,0,0,0h0s0,0,0-.05h.11Zm-1.58,2,0,.07V4.87Zm0,.43h0c0,.1-.08.2-.11.3ZM1,5.37a.48.48,0,0,0,.17,0H1Zm.29,0v0l.13,0,0,0s0,0,0,0l-.13.06S1.26,5.43,1.25,5.41Zm1.18-.65h0l0-.08,0,0h0a2.25,2.25,0,0,0,.29-.35,2.6,2.6,0,0,1-.6.88C2.29,5.05,2.36,4.9,2.43,4.77Zm.38-.53.05-.07Zm.62-.4,0,0ZM3.23,2.2l.19-.08a.79.79,0,0,1,.13.37h0A.72.72,0,0,0,3.23,2.2ZM.2,6.25v0l0,.07ZM3.14,17.92c.14.19.3.37.46.56,0,0,0,0,0,0s.15.17.22.26l.24.28c.28.33.56.64.87.94s.42.46.64.69h0l.06.06c.22.23.46.45.69.66A13.75,13.75,0,0,1,3.14,17.92Z"/><path class="cls-1" d="M1.86,5.35A.79.79,0,0,1,1,5.69s0,0,0,0A.79.79,0,0,0,1.9,5.4S1.89,5.32,1.86,5.35Z"/><path class="cls-1" d="M26.08,20.37v0C26,20.6,26.06,20.49,26.08,20.37Z"/><path class="cls-1" d="M11,6.07a14.29,14.29,0,0,0-1.72-.66s0,0,0,0A14.93,14.93,0,0,1,11,6.1a7.49,7.49,0,0,1-.73,1h0a7.65,7.65,0,0,0,.77-.94,26.54,26.54,0,0,1,2.87,1.59,0,0,0,1,0,0,0,23.61,23.61,0,0,0-2.87-1.58,11.15,11.15,0,0,0,1.68-4.18c0-.06-.08-.09-.09,0A14,14,0,0,1,11,6.07Z"/><path class="cls-1" d="M2.64,6.7s0-.06,0,0a2.32,2.32,0,0,1-1.4.67,0,0,0,1,0,0,.09A2.61,2.61,0,0,0,2.64,6.7Z"/><path class="cls-1" d="M8.22,12.26s0,0,0,0A32.51,32.51,0,0,1,4.77,8.71h0A29.66,29.66,0,0,0,8.22,12.26Z"/><path class="cls-1" d="M.62,8.39s-.05,0-.06,0c-.54,2.07.43,4.4,1.3,6.25a0,0,0,0,0,.08,0A11.39,11.39,0,0,1,.62,8.39Z"/><path class="cls-1" d="M.72,12c.16.6.38,1.18.58,1.77,0,0,.08,0,.06,0-.2-.59-.42-1.17-.6-1.76C.76,11.95.71,12,.72,12Z"/><path class="cls-1" d="M11.78,9.35s0,0,0,0a4,4,0,0,0,.39-.87,0,0,0,1,0,0,0A4,4,0,0,1,11.78,9.35Z"/><path class="cls-1" d="M4.12,6.19A9.94,9.94,0,0,1,2.4,8h0a3,3,0,0,1-.5.3c-.05-.2-.11-.4-.16-.61a3.61,3.61,0,0,0,.5-.32s0-.05,0,0a4.64,4.64,0,0,1-.47.31v0s0,0,0,0v0A2.45,2.45,0,0,1,.4,8h0a2.43,2.43,0,0,0,1.31-.32c0,.21.09.41.14.61l-.31.13s0,0,0,0a2.86,2.86,0,0,0,.31-.12l0,.08A8.55,8.55,0,0,1,.88,9s0,0,0,0a8.71,8.71,0,0,0,1-.57,7.65,7.65,0,0,0,.26.79A4.26,4.26,0,0,1,1,9.72s0,0,0,0a4.24,4.24,0,0,0,1.2-.5l0,.07c-.08.07-.16.15-.25.22s0,0,0,0,.16-.15.24-.22c.05.13.09.26.15.38l-.25.08s0,0,0,0l.25-.08c.06.13.14.25.21.37-.14.11-.28.23-.43.33s0,0,0,0,.29-.21.44-.32l0,0a6,6,0,0,1-.58.5c0-.13-.08-.25-.12-.38s0,0,0,0,.08.27.11.4a6.34,6.34,0,0,1-1,.64,0,0,0,1,0,0,0,6.29,6.29,0,0,0,1-.61,10.06,10.06,0,0,0,1.7,3.51s0,0,0,0A10.94,10.94,0,0,1,2,10.68a5.86,5.86,0,0,0,.59-.49,7.83,7.83,0,0,0,1,1.38s.07,0,0,0a8.67,8.67,0,0,1-1-1.4c.12-.12.23-.25.34-.39L3.4,9.4s0,0,0,0l-.2.18c.06-.08.11-.17.17-.25a8.85,8.85,0,0,0,1-.59,0,0,0,1,0,0,0,8.86,8.86,0,0,1-1,.59,5.11,5.11,0,0,0,.37-.63s0-.07-.05,0a5.32,5.32,0,0,1-.42.72,5.82,5.82,0,0,1-.84.33c-.06-.13-.11-.27-.17-.41l.16-.15s0,0,0,0l-.16.14,0,0a5.27,5.27,0,0,0,1.19-1s0-.06,0,0a5.66,5.66,0,0,1-1.17,1,8.09,8.09,0,0,1-.28-.79A8.94,8.94,0,0,0,4.16,6.22S4.14,6.17,4.12,6.19ZM2.64,10.09l0,0L2.73,10Zm.6-.73a5.53,5.53,0,0,1-.4.5L2.61,10c-.07-.12-.14-.23-.2-.35A5.83,5.83,0,0,0,3.24,9.36ZM1.9,8.27a3,3,0,0,0,.37-.2l-.35.27Z"/><path class="cls-1" d="M4.58,4.16a15.87,15.87,0,0,1-.84,1.41,7.51,7.51,0,0,0,.34-.9s0,0,0,0a7.45,7.45,0,0,1-.38,1l-.14.18A7.45,7.45,0,0,0,4,4.47s0,0,0,0v0s0,0,0,0h0s0,0-.05,0-.09.34-.14.5a12,12,0,0,1-.64,1.2s0,0,0,0a9.89,9.89,0,0,0,.58-1.08c-.1.33-.21.66-.34,1s-.35.5-.56.73c0,0,0,0,0,0,.18-.2.33-.42.49-.63l0,.05s0,.05.07,0a6.84,6.84,0,0,1-.64.93h0a6.8,6.8,0,0,0,.92-1.44,13.72,13.72,0,0,0,1-1.57S4.6,4.13,4.58,4.16ZM3.38,6.23c0-.08.07-.17.1-.25l.11-.14C3.53,6,3.46,6.1,3.38,6.23Z"/><path class="cls-1" d="M5.36,3.62a12.06,12.06,0,0,1-.51,2.17,0,0,0,0,0,.09,0,10.27,10.27,0,0,0,.49-2.19S5.37,3.58,5.36,3.62Z"/></svg>