<svg id="Layer_1" data-name="Layer 1" xmlns="http://www.w3.org/2000/svg" viewBox="0 0 10.33 7.69"><defs><style>.cls-1{fill:#231f20;}</style></defs><title>ilustracije_razmerje</title><path class="cls-1" d="M9.73,2.66C8.19.48,4.45-.08,1.82.06c0,0,0,0,0,0A2.63,2.63,0,0,0,1.22.1H1.1A1,1,0,0,0,.1,1C-.22,2.12.26,2.71,1,3.57,2.66,5.6,5.2,8.05,8,7.65,10.4,7.32,10.89,4.3,9.73,2.66ZM4.62,6.33a2.09,2.09,0,0,1-.52-.52,5.93,5.93,0,0,0,1.8.87s0,0,0,0h0l.26.07.08,0s0,0,0,0l.24.09h-.1l-.32-.15a0,0,0,1,0,0,0l.26.13h0a4.06,4.06,0,0,1-1.5-.46,3.14,3.14,0,0,1-.26-.2s0,0,0,0ZM3.2,4.72c.37.25.74.48,1.12.7,0,0,0,0,0,0l.25.11L5,5.77l-.12,0a0,0,0,1,0,0,0L5,5.79c.24.12.48.23.73.33a0,0,0,0,0,0,0,3.07,3.07,0,0,0,.76.49H6.28a2.66,2.66,0,0,1-.34-.16,0,0,0,0,0,0,0l.21.1h0l0,0h0c-.24-.07-.48-.15-.71-.24s-.37-.16-.54-.25A4.6,4.6,0,0,1,3.2,4.72ZM5.83,5.89l-.49-.22.06,0a6,6,0,0,0,.79.29s0,0,0,0h0l.61.15.22.07-.16-.06.24,0s0,0,0,0a1.76,1.76,0,0,0,.36,0l-.12.06-.3-.07.27.09-.05,0A4.47,4.47,0,0,1,6.42,6s0,0,0,0a3.92,3.92,0,0,0,.79.27h0a2.1,2.1,0,0,1-.42-.16s0,0,0,0a2.14,2.14,0,0,0,.37.14h0a3.19,3.19,0,0,1-.48-.14s0,0,0,0A3.21,3.21,0,0,0,7,6.34l-.08,0a8.08,8.08,0,0,1-1.6-.49L5.1,5.75l.18-.06.54.25S5.86,5.9,5.83,5.89Zm.36-1.42.38.14,0,.08L6.15,4.5Zm-.06,0L5.8,4.32l.36.13Zm.36-1.39a2.84,2.84,0,0,0,.06-.4,10.36,10.36,0,0,1,1.08.55,4.28,4.28,0,0,1-.11.66l-.19-.1a3.39,3.39,0,0,0,.14-.43h0l0,0h0l0,0s0,0,0,0,0,.11-.06.16l-.12.25L7,3.68q.08-.25.15-.52h0c0,.17-.12.33-.18.5l-.11-.05C7,3.5,7,3.4,7.1,3.27s0,0,0,0-.14.23-.22.34l-.46-.17c0-.1.06-.2.08-.3l.2.07s0,0,0,0Zm.32-.64-.26-.09s0,0,0,0a8.14,8.14,0,0,1,1.11.55c0,.05,0,.11,0,.16A8.14,8.14,0,0,0,6.56,2.5s0-.06,0-.1l.25.08S6.83,2.46,6.81,2.45ZM8,2.2l.23.14h0l.1.14-.28-.21Zm-.7,3.93h0a9.57,9.57,0,0,1-.95-.22l.5-.15.24.08s0,0,0,0l-.2-.07h0L7.74,6l-.06.07a0,0,0,0,0,0,0h0l-.3,0s0,0,0,0l.22,0ZM6.51,4.87h0l0-.07h0l0,0,.06,0ZM6.33,5l0,0h0Zm0-.06,0,0v0Zm.12-.08h0l0,0Zm.25-1c0-.06.08-.13.12-.2L7,3.74l-.07.21-.08,0Zm.53,0L7.18,4h0l.08-.16Zm0-.08.1-.2-.07.21Zm1.31-.94a4.06,4.06,0,0,1,.28.32l0,0s0,.08,0,.12a2.28,2.28,0,0,0-.37-.48l0-.07Zm.62,0,.19.3c0,.06,0,.12.06.18h0s0,.05,0,.08l0,0s0,0,0,0a3,3,0,0,0-.24-.5Zm-2,3.68a2.27,2.27,0,0,0,.6,0v0h0s0,0,0,0h0v0l-.15,0H7.5a2.09,2.09,0,0,1-.63-.06Zm.81-.68H8L7.85,6ZM6.81,4.55c.09-.14.19-.28.28-.43h0a2.45,2.45,0,0,1-.29.42Zm0,0,0,0,0,0Zm.32-.52h0l0,0h0Zm0,0L7,4l.11,0Zm0,.08.2.1a0,0,0,0,0,0,0l-.2-.1,0,0,.23.06h0l-.19-.05s0,0,0,0l.19.06a2.76,2.76,0,0,1-.15.36h0s-.09,0,0,.07h0l-.34,0A2.44,2.44,0,0,0,7.16,4.16Zm.86-1-.09,0v0Zm.68.27a0,0,0,0,0,0,0l.15.07c0,.07,0,.14,0,.21l-.08-.12c0-.06-.06-.12-.1-.18h0ZM8.06,5a1.17,1.17,0,0,0,0-.15l.11,0L8.1,5Zm.18-.52.1,0,.07,0s0,0,0,0a2.06,2.06,0,0,1-.18.25l-.13,0a1.24,1.24,0,0,0,0-.26ZM8,4.18l0,0a3,3,0,0,0,.16-.53A4.09,4.09,0,0,1,8.49,4h0s0,0,0,0l0,0s0,0,0,0l0,.05,0,.06s0-.06,0-.08h0c0,.05,0,.1,0,.16a1,1,0,0,1-.12.15L8.1,4.23l.17,0s0,0,0,0Zm.14-.6.29.19.1.1A1.21,1.21,0,0,1,8.5,4a3.4,3.4,0,0,0-.36-.39Zm0,0L8,3.51l.07,0Zm-.18-.44.16,0,.06,0s0,.08,0,.11l-.23-.14Zm.26.12a4.25,4.25,0,0,1,.38.36s0,0,0,.06-.24-.21-.37-.31S8.17,3.29,8.17,3.25ZM8,6.07,8,6l-.09.07h0Zm.6-.54.12-.25.09,0h0l0,.13a2.41,2.41,0,0,1-.29.28l.07-.13,0,0A0,0,0,0,0,8.57,5.53ZM8.42,5.1a1.63,1.63,0,0,0,.11-.5l.1.06s0,0,0,0l.08.1v.06h0V5a2.4,2.4,0,0,1-.13.21Zm.09-1,.05,0,.14.18h0l-.19-.21ZM8.94,4l.18.3v0l-.18-.15,0-.12a0,0,0,0,0-.07,0l0-.1.06,0ZM8.59,6h0Zm-.39.15H8S8.11,6,8.15,6l.2-.11-.12.22Zm.64-2v0h0Zm0,1.22h0l0-.09,0,.05Zm0-.75s0,0,0,0h0a.51.51,0,0,0-.08-.24l.08.08,0,.12,0,.07Zm-.09.71h0s0-.1,0-.14l0-.07.05.1h0l0,.11Zm.15-.14,0,.06,0,.05,0-.06Zm.38-.59.06.05s0,.07,0,.11l-.07-.11S9.32,4.53,9.32,4.51Zm0-.26s0,0,0-.07l.07.21s0,.09,0,.14l-.06-.05A2.31,2.31,0,0,0,9.3,4.25Zm0-.27V4l0,0h0Zm0,.77s0,0,0,0h0S9.3,4.77,9.3,4.75Zm-1,1.94h0l-.25.1,0,0Zm.49-.56h0A1.39,1.39,0,0,0,9,6H9S9,6,9,6a.09.09,0,0,0,.09-.06l0,0L9,6H9c-.06.06-.13.1-.2.15Zm.35.2,0,0,.1-.1-.09.11Zm0-.47v0a1.1,1.1,0,0,0,.06-.12l0,0,0,.09,0,0Zm.62-.95h0V5h0Zm-.44.57h0l0,0Zm0-.05s0,0,0-.05l0-.06h0Zm0,.15v0h0Zm0-.36,0,.06s0-.07,0-.11Zm0,.46v0h0l0,0Zm0-.4h0Zm0,.29v0h0Zm.53-.21,0-.08v0h0Zm-.24,0c0-.06,0-.12,0-.18s0,0,0,0Zm0-.4s0-.06,0-.1v.1Zm-.06,0v0h0v0ZM9.15,6.2l.05-.06,0,0-.08.12Zm0,.15,0,0L9,6.51v0Zm.74-2.11h0v0S9.86,4.24,9.86,4.24Zm-.37.59h0v0Zm-.18,0h0s0,0,0,0ZM9.12,6.52l0,0-.09.09Zm.73-1.71,0-.1c0,.08,0,.16,0,.24S9.85,4.86,9.85,4.81ZM9,6.1l-.16.18-.14.06A2.67,2.67,0,0,0,9,6.1Zm-.24.27h0l-.26.13,0,0Zm.47.09h0l0,0v0Zm.35-.57h0ZM9.37,4.71c0,.05,0,.11,0,.16v0a1.71,1.71,0,0,0,0-.19s0,0,0,0,0-.06,0-.09Zm-.2.14h0Zm-.88,1.9h0l.06,0h0l-.2.08Zm.54-.21-.16.15h0A1.62,1.62,0,0,0,8.83,6.54Zm.73-2.2-.07-.11,0-.07,0,.06S9.56,4.3,9.56,4.34Zm0,.12v0l0,0,0-.07v0h0l0-.07V4.32Zm-.1-.13h0s0,0,0,0h0Zm-.29.5,0,.08h0v0l0-.06h0Zm-.05,0s0,0,0,0h0c0-.06,0-.13,0-.19l.09.19ZM9,5.72v0H9l0,0,0,0Zm-.33.46h0l0,0Zm-.16.57h0l-.09,0Zm.91-2.56,0,0s0-.06,0-.08l0,0Zm-.28.51h0ZM8.56,6.79A1.36,1.36,0,0,1,8.22,7l.12-.09ZM9.71,3.54l0-.06Zm-.32.39h0L9.44,4ZM9,5.06v0l0,0L9,5Zm0,.53,0,.07h0ZM7.5,7.25h.13l-.25.05h0Zm-.28.08h0ZM9.49,4l-.13-.14c0-.06,0-.12,0-.17l.14.16s0,.07,0,.11Zm-.28-.22v0l0,0Zm-.06.92,0-.09v0l0,.09Zm-.06-.12L9,4.37v0H9l.1.18Zm-.15.15C9,4.79,9,4.89,9,5L9,5l-.1-.15a1.87,1.87,0,0,0,.07-.21Zm0,.41,0,0v0L8.83,5l0-.05Zm-.16.15-.05,0,0-.08Zm.24,0,0,0v0l0,.05,0-.06Zm-.19.56.08,0-.1.12h0Zm-.47.56h0l0,0,0,0Zm-.51.79h0Zm1.4-3.39h0Zm-.06.65s0,.09,0,.13,0,0,0,.07h0L9.12,4.5l0-.14Zm-.08.08L9,4.23v0l.17.15ZM8.83,4.1l0,0v.06l0-.05Zm0,0L8.73,4l.06,0Zm0,.13,0,0h0Zm-.09,0,0,0-.11-.14A.54.54,0,0,1,8.73,4.24Zm0,.05,0,.08,0-.05Zm0,0h0Zm0,.55,0-.05h0v0l0,0Zm0,0h0v0Zm.2.38,0,.06a1.7,1.7,0,0,1-.25.35h0c0-.07,0-.14.07-.2Zm-.31.42-.11,0L8.7,5.6Zm.07.21h0L8.66,6l0,0Zm-.11.15-.1.11,0,0,.11-.12Zm-.85.67h0Zm-1,.54h0ZM9.21,3.65l0,0s0-.05,0-.08ZM9,3.57l0,0H9Zm.16.75h0Zm-.53-.62,0,.08-.07-.05s0,0,0,0Zm.09.1.1.11-.08-.06Zm0,0s.05.08.07.12,0,0,0,0l0-.06.06,0,0,.1c-.06-.08-.11-.17-.18-.24h0c.06.07.11.15.16.23l-.19-.16s0-.07,0-.11Zm.07.31v0L8.62,4a0,0,0,0,0,0,0l.1.11-.14-.08,0,0a1.14,1.14,0,0,0,0-.13A2.72,2.72,0,0,1,8.77,4.14Zm-.08.19a1.77,1.77,0,0,1-.1.19s0,0,0,0a1.88,1.88,0,0,0,.1-.18l.11.14a1,1,0,0,1,0,.29v0l-.07-.08v0a0,0,0,0,0,0,0l-.19-.13h0v0s0-.08.06-.12,0,0,0,0l0,0a1,1,0,0,0-.05-.19l0-.08Zm0,.38h0Zm-.29-.26-.1-.07.09-.11C8.41,4.33,8.41,4.39,8.41,4.45Zm0,1.32h0l.09-.1Zm-.21.11L8.13,6,8.06,6l.12-.11Zm0,.23.13-.24h0l.13,0s0,0,0,0l-.07.15ZM8,6.43l-.14,0h0a0,0,0,0,0,0,0Zm.34,0h0l-.07.07Zm-.65.37h0v0l-.24,0,0,0s0,0,0,0ZM7.23,7h0Zm-.67.28h0Zm-.19,0h0Zm1.81,0h.05l.14,0A1.16,1.16,0,0,1,8.19,7.25ZM9.41,3.65l-.05-.06-.1-.19s0-.06,0-.08A2.12,2.12,0,0,1,9.41,3.65Zm-.07-.07-.09-.1h0s0,0,0-.06Zm-.11-.18v0Zm-.11.05,0,0h0Zm-.06,0L9,3.27l0,0Zm-.12,0v0H9v0Zm.19.77v.05C9.06,4.15,9,4,8.91,3.92s0,0,0,0l0,.05,0,0s0-.08,0-.12l.07.1c0,.06.07.1.09.16h0C9.05,4,9,4,9,3.93s0,0,0,0-.06-.09-.09-.13a2,2,0,0,0,0-.2A3.62,3.62,0,0,1,9.14,4.22Zm-.29-.36a3.14,3.14,0,0,0-.23-.26,1.79,1.79,0,0,0,0-.21,2.45,2.45,0,0,1,.25.36S8.85,3.82,8.85,3.86Zm-.3-.16s0,.08,0,.11l-.05,0-.14-.13s0,0,0,0l0,0-.21-.14c0-.05,0-.11,0-.16S8.42,3.6,8.55,3.7Zm-.17,1a2.27,2.27,0,0,1-.08.32L8.16,5A2,2,0,0,0,8.38,4.73Zm.1.49h-.1v0Zm0,.34c-.06.08-.14.13-.2.2h0a3.12,3.12,0,0,0,.3-.36Zm-.29.57-.09.19h0l.1-.19h.22l0,0-.18.16,0,0H8.16l-.41,0A2.64,2.64,0,0,0,8,6.14Zm-.6.22.25,0H7.59Zm-.08.06h.25s0,0,0,0h0l-.24,0Zm.47,0a1.09,1.09,0,0,1-.21.08v0Zm.18,0h0l-.07.1-.1,0a1.89,1.89,0,0,1-.29.07v0A1.22,1.22,0,0,0,8.19,6.41Zm-.83.41-.14,0h.19ZM7.22,7,7.1,7l.07,0Zm.06,0h.21L7.32,7h-.2Zm.36,0s0,0,0,0l-.15,0Zm-1.32.21h0l-.1,0h0L5.88,7.1l.34.07Zm2.91-4v.1l0,0,0-.09v0h0l-.05-.09,0-.09A2.36,2.36,0,0,1,9.23,3.25Zm-.36.19-.13-.06a2.78,2.78,0,0,0-.21-.46A2.38,2.38,0,0,1,8.87,3.44Zm-.21,0,0,0,0,0Zm-.11.1c0-.06-.07-.14-.11-.2l.09,0C8.54,3.38,8.55,3.44,8.55,3.49Zm0,0c-.08-.09-.17-.17-.26-.25l.14,0C8.43,3.33,8.46,3.41,8.51,3.48ZM7.8,3.13l-.09-.05.09,0Zm.34.24c0,.06,0,.11,0,.16l-.23-.15c0-.05,0-.11,0-.16ZM8,3.49s0,0,0,0l.1.1a2.88,2.88,0,0,1-.17.54L7.67,4a2.44,2.44,0,0,0,.2-.59Zm-.25.65-.16,0,0,0Zm.09.06.28.17c-.19-.07-.38-.13-.57-.19v0Zm-.33,0-.06,0h.07Zm-.22.36h0Zm.2-.34c-.05.09-.1.18-.16.27a2.83,2.83,0,0,0,.11-.28Zm-.26.41h0Zm.06-.06h0a3.82,3.82,0,0,0,.22-.34q.34.1.66.24l-.09.07s0,0,0,0,0,0,0,0L8,4.58a0,0,0,0,0,0,0l0,0a1.41,1.41,0,0,1,0,.21l-.55-.13Zm.74.26a1.28,1.28,0,0,1,0,.14c-.15-.07-.29-.16-.43-.25Zm.22.35,0,0L8,5.13l.06,0Zm0,.07A2.5,2.5,0,0,1,8,5.66l-.31-.12A1.71,1.71,0,0,0,8,5.17Zm.12,0,.18,0a3.87,3.87,0,0,1-.39.46l-.06,0A2.56,2.56,0,0,0,8.36,5.24Zm-.25.52,0,0H8l0,0Zm-.23.38h0l0,0Zm-.46.34s0,0,0,0l0,0,.24,0a2.17,2.17,0,0,1-.47,0Zm-.2.25h.11l-.24,0s0,0,0,0a2.68,2.68,0,0,1-.35-.11l.1,0A2.15,2.15,0,0,0,7.21,6.73Zm-.16.16h0Zm-.37-.05-.11,0A2.61,2.61,0,0,0,7,6.89ZM7.11,7,7,7H7L6.81,7Zm.05.08h0Zm-.72.1H6.31l-.1,0s0,0,0,0h0s0,0,0,0l.13,0ZM6,7.07l.1,0L5.68,7,5.54,6.9l.08,0ZM5.55,7l-.46-.23.35.14h0Zm1.81.49h0ZM9.25,2.87,9.32,3,9.2,2.82l0,0ZM9,3V3l0-.05Zm-.37.39-.06,0s0-.09,0-.13S8.65,3.29,8.67,3.35Zm-.25-.11v0l0,0Zm-.06,0-.18,0h0c0-.05,0-.1,0-.16l.05,0Zm-.23-.08L7.93,3s0-.07,0-.1a1,1,0,0,0,0-.16L8.12,3A1.41,1.41,0,0,1,8.13,3.14Zm-.32-.06-.13,0c0-.05,0-.1,0-.15l.13.1Zm0,.07v0s0,0,.05,0,0,.1,0,.14l-.16-.1c0-.05,0-.11,0-.16Zm0,.22a2.55,2.55,0,0,1-.19.6l-.08,0a4,4,0,0,0,.12-.66ZM7.6,4l0,.06H7.49l0-.1Zm-.15,0L7.23,4l.07-.15.2.1ZM7.14,4,6.93,4,7,3.75l.21.1Zm-.06.11c-.08.15-.18.29-.28.43l-.14,0A5,5,0,0,0,6.9,4Zm-.29.45,0,0,0,0-.11,0,0,0Zm-.07.08-.08.08-.07,0,0-.09Zm0,0,.33.12s-.05.09-.09.13l-.33-.16Zm0,0,.07-.07.34,0-.09.14Zm.44,0h.09A4.86,4.86,0,0,0,7.94,5l-.8-.24Zm.44.9-.15-.07a2.89,2.89,0,0,0,.38-.24A1.74,1.74,0,0,1,7.68,5.53Zm0,0-.11.12h0l.12-.12L8,5.7l-.06.07a3.13,3.13,0,0,1-.76-.14l.34-.16Zm-.26.22H7.34s0,0,0,0a4.26,4.26,0,0,0,.51,0L7.76,6,7,5.71l.1,0Zm.18.49-.09,0,.22-.1Zm0,0h-.1Zm-.06.06h0l-.19,0h0Zm-.06.06h0l-.32,0,.07,0Zm0,0a2.79,2.79,0,0,1-.3.08H7s0,0,0,0l-.22.06a2.32,2.32,0,0,1-.35-.13l.25,0h0s0,0,0,0L7,6.4Zm-.64,0h0c-.22-.07-.42-.15-.63-.22a6.68,6.68,0,0,0,.77.21Zm-.14,0-.22,0h0l0,0s0,0,0,0h0a2.35,2.35,0,0,0,.33.14l-.09,0a3.13,3.13,0,0,1-.82-.49C6.08,6.26,6.33,6.34,6.59,6.42Zm-.11.26h0a2,2,0,0,0,.27.1,2.52,2.52,0,0,1-.38-.11Zm-.08.07.05,0,.11,0-.17,0S6.41,6.77,6.4,6.76Zm.4.15H6.56l-.24-.09A3.64,3.64,0,0,0,6.81,6.91ZM6.71,7l.11,0L6.65,7Zm.38.1-.23.06h0L7,7.06Zm-.34.09h0ZM9.38,2.72l0,0-.05-.05-.11-.17s0,0,0,0l.06.1,0,0s0,0,0,0a2.93,2.93,0,0,0-.29-.41,2.46,2.46,0,0,1,.46.52h0Zm-.21,0,0,0v0Zm-.61-.23h0l.1.08a3.37,3.37,0,0,1,.45.72l0,0,0-.11s0,0,0,0v0l-.07-.07h0v0h0a2.6,2.6,0,0,0-.24-.33h0l-.09-.11.05,0s0,0,0,0l-.15-.11-.13-.17Zm-.13,0,.23.3,0,0,0,0-.09-.11a0,0,0,0,0,0,0l-.05,0,0,0a0,0,0,0,0,0,0,3,3,0,0,0-.25-.31Zm-.11.11a2,2,0,0,0-.25-.17l.21.12Zm.06.08.05.11a2.87,2.87,0,0,1,.09.4l-.24-.19-.13-.14A1.49,1.49,0,0,0,8,2.51s-.08,0-.06,0a1.29,1.29,0,0,1,.11.31l-.18-.19c0-.06,0-.12,0-.18s0,0,0,0l0-.1L8,2.5H8A2,2,0,0,1,8.38,2.76Zm-.58-.2,0,0s-.05,0,0,0l.08.09a1.12,1.12,0,0,1,0,.28l-.14-.09h0s0,0,0,0l-.38-.2h0a.51.51,0,0,0-.15-.42c.21.09.43.18.64.28Zm-.55,0c-.23-.11-.47-.22-.72-.32a1.8,1.8,0,0,0-.08-.35l.42.15A.92.92,0,0,1,7.26,2.61Zm.38.45c0,.05,0,.11,0,.16a10.09,10.09,0,0,0-1.08-.55s0-.1,0-.15A8.17,8.17,0,0,1,7.64,3.06Zm-.82.61c0,.06-.08.13-.12.19l-.37-.19.07-.2Zm-.41.11-.11,0h0ZM6.74,4,6.88,4a5.63,5.63,0,0,1-.26.51h0s0,0,0,0h0l0,0-.38-.13a4.13,4.13,0,0,0,.47-.52Zm-.23.75-.06.09,0,0L6,4.62l.14-.11Zm-.11.14L6.29,5,6,4.88s0,0,0,0L6.28,5l0,0h0l-.47-.22L6,4.63Zm-.24.21A1.77,1.77,0,0,1,6,5.14s0,.05,0,0l.06,0-.26.2c-.18-.08-.35-.17-.53-.25.15-.08.29-.17.42-.26Zm.05,0,.06,0,0,0s0,0,0,0l0,0,.59.25s0,0,0,0l-.58-.25,0-.07c.4.13.8.25,1.21.36,0,0,0,0,0,0-.41-.1-.8-.22-1.2-.35h0l.15-.08h0s0,0,0,0h0l.08-.08h0l0,0,0,0L7,4.94H7S7,5,7,5H7l.06,0s0,0,0,0L7,4.93s.06-.09.09-.14L8,5.06v0l0,0C7.67,5,7.41,5,7.15,4.87c0,0,0,0,0,0,.25.09.51.18.77.25a2.84,2.84,0,0,1-.45.29l-.29-.13h0l.27.14-.36.17a4.88,4.88,0,0,1-.76-.33,0,0,0,0,0,0,0,5.15,5.15,0,0,0,.7.35l-.1,0c-.31-.1-.61-.2-.91-.32,0,0,0,0,0,0,.29.12.58.21.87.31h0c-.33-.1-.66-.21-1-.34A3.93,3.93,0,0,0,6.23,5.07Zm.56.65-.5.16a7,7,0,0,1-.8-.29,3.35,3.35,0,0,0,.34-.2C6.14,5.52,6.46,5.62,6.79,5.72ZM6.12,6.91h0l.38,0A1.86,1.86,0,0,0,7,7l-.19.07A4.12,4.12,0,0,1,6,6.91s0,0,0,0l.2.07L5.43,6.8,5.1,6.62A4.12,4.12,0,0,0,6.12,6.91Zm1.41.56.14,0-.11,0h0ZM8.84,7l.05,0,0,0h0a1.36,1.36,0,0,1-.22.17ZM.56,1.48l0,0,0,.08Zm-.17.63a1.6,1.6,0,0,1,0-.22L.42,2a1.41,1.41,0,0,0,0,.19l0,0Zm0-.34s0-.06,0-.09l0,.09s0,.08,0,.12h0Zm.06-.29,0-.09,0,0c0,.06,0,.12,0,.18Zm.08-.17h0a2.12,2.12,0,0,1,.1-.24l0,0A2.81,2.81,0,0,0,.54,1.32Zm.84-1h0ZM.63,2.84.57,2.75h0l0-.06.09.09,0,.12Zm0-.19,0-.05,0,.09Zm0,0A1.1,1.1,0,0,1,.5,2.52l0,0s0-.07,0-.11a1.52,1.52,0,0,1,0-.17l0,.06s0,0,0,.07,0,0,0,0l.08.18ZM.47,2.26s0,0,0,0v0Zm0-.3h0s0,0,0-.07l0,.07s0,.09,0,.13l0-.1Zm.06-.18V1.72l0-.12h0l0-.07h0A1.85,1.85,0,0,0,.53,1.78Zm.08-.37,0,0A3.87,3.87,0,0,1,.75.92L.84,1A3.61,3.61,0,0,0,.62,1.41Zm1-1h0ZM2,4.26q-.43-.41-.82-.85a2.7,2.7,0,0,1-.3-.29l-.15-.2,0-.13.08.08h0a1.92,1.92,0,0,0,.41.48s0,0,0,0a3.58,3.58,0,0,1-.67-1c0-.09,0-.18-.06-.27h0l0,.1v0h0l.2.38a0,0,0,0,0,0,0L.56,2.18s0-.1,0-.14a1,1,0,0,0,.23.28s.07,0,0,0a1.53,1.53,0,0,1-.27-.39v0c.25.32.51.64.79.94,0,0,0,0,0,0-.27-.32-.54-.62-.8-.94,0,0,0,0,0,0s0-.15,0-.23l.14.14h0s0,0,0,0l.46.47a0,0,0,1,0,0,0L.8,1.74h0c.07.06.13.13.2.19s.09,0,.06-.05L.82,1.63l0-.1.36.18s0,0,0,0L.84,1.51c0-.05,0-.1,0-.15s0,0,0,0l0,.15,0,0s0,0,0,0l0,0,0,.1L.67,1.47c0-.06,0-.11,0-.17L.88,1,1,1.08H.87s0,0,0,0h.25l-.32.12s0,0,0,0l.41-.13c.13,0,.25,0,.38,0s0,0,0,0H1.25c.16-.05.33-.12.5-.16,0,0,0,0,0,0a4.8,4.8,0,0,0-.59.18H1.07a0,0,0,0,0,0,0L.9,1,1,.76s0,0,0,0S.9.88.86,1L.76.9l0-.06A1.37,1.37,0,0,1,1,.62a2.36,2.36,0,0,1,.36,0s0,0,0,0H1.4A6,6,0,0,1,2,.75a0,0,0,1,0,0,0,4.53,4.53,0,0,0-.52-.1A1.24,1.24,0,0,1,2.1.68s0,0,0,0a1.07,1.07,0,0,0-.67,0A2.36,2.36,0,0,0,1,.61H1s0,0,0,0l0,0a0,0,0,0,0,0,0l.06,0A3.51,3.51,0,0,1,2,.53l.18.07a0,0,0,1,0,0,0h0l.21,0a0,0,0,0,0,0-.08A2.34,2.34,0,0,0,1.74.38C4.6.59,10.09,1,10.2,4.22h0a1.75,1.75,0,0,0-.2-.62l0-.14V3.38h0a1.42,1.42,0,0,0-.39-.58A2.59,2.59,0,0,0,8.6,2h0a2.92,2.92,0,0,1,.28.21,0,0,0,0,0,0,0c0,.06.07.13.11.19a0,0,0,0,0,0,0l.07.08h0L9,2.47s0,0,0,0l.07.06h0l.06.1v.06h0c0-.06-.07-.13-.12-.18s0,0,0,0L9,2.6A3.92,3.92,0,0,0,7.44,1.33s0,0,0,0a4.14,4.14,0,0,1,1.11.79,7.71,7.71,0,0,0-1.68-1s0,0,0,0a8.4,8.4,0,0,1,1.73,1s0,0,0,0a3.7,3.7,0,0,1,.26.32l-.25-.17s0,0,0,0l.31.22A3.39,3.39,0,0,1,9.15,3a2,2,0,0,0-.35-.32,8.6,8.6,0,0,0-.63-.7s-.07,0,0,0l.41.46-.13-.1s0,0,0,0l.11.09a5.45,5.45,0,0,0-.57-.33,5.64,5.64,0,0,0-1.09-.79,0,0,0,0,0,0,0A6.16,6.16,0,0,1,7.73,2l0,0a18.79,18.79,0,0,0-1.9-1s0,0,0,0c.52.26,1,.53,1.53.83L7,1.65H7c.13.06.25.14.38.2l.05,0-.78-.31s0,0,0,0c.34.13.67.27,1,.41l.31.2a3.41,3.41,0,0,1,.3.38,3.3,3.3,0,0,0-.45-.22A1.13,1.13,0,0,0,7.57,2s-.06,0,0,0a1.1,1.1,0,0,1,.19.25l0,0h0l0,0a.94.94,0,0,1,0,.09c-.26-.14-.52-.26-.78-.37a3.62,3.62,0,0,0-.53-.31,0,0,0,0,0,0,0l.21.13-.2-.08,0-.09s0,0,0,0,0,0,0,0C5.61,1.54,4.84,1.3,4.1,1c0,0-.05,0,0,0,.75.34,1.54.6,2.31.88a1.81,1.81,0,0,1,.09.35L6.3,2.19s0,0,0,0l.19.08v0l-2-.68s0,0,0,0l2,.68s0,.06,0,.09A11.38,11.38,0,0,0,5.14,2s0,0,0,0a11.08,11.08,0,0,1,1.36.45s0,.1,0,.15A11.73,11.73,0,0,0,5,2.11H5a12.16,12.16,0,0,1,1.48.54,2.86,2.86,0,0,1-.05.41c-.51-.18-1-.35-1.52-.56a0,0,0,1,0,0,0c.5.2,1,.37,1.52.55,0,.1,0,.21-.07.31L6,3.3s0,0,0,0l.33.15-.07.2C5.67,3.36,5,3.1,4.41,2.88c0,0,0,0,0,0,.64.23,1.26.5,1.87.79v0a8.83,8.83,0,0,1-1-.45s0,0,0,0a9.15,9.15,0,0,0,1,.45L6.17,4s0,0,0,0l.08-.22.37.14a4.31,4.31,0,0,1-.47.52l-.51-.18h0c-.4-.2-.81-.39-1.23-.57,0,0,0,0,0,0,.57.24,1.12.51,1.67.79L6,4.61A14.59,14.59,0,0,1,4,3.54s0,0,0,0A14.44,14.44,0,0,0,6,4.62l-.22.18C4.92,4.4,4.14,4,3.36,3.5a0,0,0,0,0,0,0c.78.45,1.55.9,2.36,1.29-.13.09-.27.18-.42.27C5,5,4.72,4.83,4.45,4.68c0,0,0,0,0,0,.27.15.55.28.82.41L5,5.29s0,0,0,0l.3-.17c.18.09.35.18.53.26a3.27,3.27,0,0,1-.34.2,5.5,5.5,0,0,1-1-.53s0,0,0,0a4.89,4.89,0,0,0,.93.53l-.07,0A10.5,10.5,0,0,1,2.63,3.91s-.06,0,0,0A10.57,10.57,0,0,0,5.25,5.68l-.18.07A15.2,15.2,0,0,1,3.22,4.67s0,0,0,0l-.12-.16a0,0,0,0,0-.06,0,3.81,3.81,0,0,0,.62.82l0,0s-.08,0,0,.06l.46.3.06,0a2.16,2.16,0,0,0,.71.67,3.36,3.36,0,0,0,.36.24l-.43-.18a8.76,8.76,0,0,1-1.06-.75C3.08,5.28,2.51,4.78,2,4.26ZM7.74,7.48l.15,0H8Zm.45-.06H8l.07,0a1.92,1.92,0,0,0,1.07-.56,2.71,2.71,0,0,0,.45-.43h0A2.18,2.18,0,0,1,8.19,7.42Z"/><path class="cls-1" d="M7.08,6.15h0Z"/><path class="cls-1" d="M.58,2.13a9,9,0,0,0,.86,1.2s0,0,0,0A11.73,11.73,0,0,1,.6,2.12,0,0,0,0,0,.58,2.13Z"/><path class="cls-1" d="M4.43,1.1a9.55,9.55,0,0,1,2.93,1s.05,0,0,0a8.32,8.32,0,0,0-3-1S4.41,1.1,4.43,1.1Z"/><path class="cls-1" d="M4.71,2.58s0,0,0,0L3.2,1.91a0,0,0,1,0,0,0Z"/><path class="cls-1" d="M5.34,1.79c-.37-.1-.73-.22-1.09-.34,0,0,0,0,0,0,.36.12.72.23,1.09.33C5.34,1.81,5.35,1.79,5.34,1.79Z"/><path class="cls-1" d="M1.8,3.76A16.31,16.31,0,0,0,3.29,5.12s0,0,0,0c-.52-.43-1-.87-1.5-1.34A0,0,0,1,0,1.8,3.76Z"/><path class="cls-1" d="M5.52,1a0,0,0,0,0,0,0,10.84,10.84,0,0,0-2-.39s0,0,0,0A13.5,13.5,0,0,1,5.52,1Z"/></svg>