<svg id="Layer_1" data-name="Layer 1" xmlns="http://www.w3.org/2000/svg" viewBox="0 0 9.35 10.63"><defs><style>.cls-1{fill:#231f20;}</style></defs><title>ilustracije_razmerje</title><path class="cls-1" d="M8.88.36a.11.11,0,0,0-.07,0L8.73.23a.08.08,0,0,0,0-.06h0l0,0a.05.05,0,0,0-.07,0A1.15,1.15,0,0,0,8.32,0L8.27,0h0l0,0A1.38,1.38,0,0,0,8-.06h0A2,2,0,0,0,6.4.33,31.68,31.68,0,0,0,1.21,4.53c-1.48,1.62-1.84,4.54.26,5.75s5.84-1,6.63-3C8.74,5.7,10.06,2,8.88.36Zm0,1.09a1.52,1.52,0,0,0-.15-.33s0-.06,0-.09,0,.05,0,.08h0l0-.06a1.23,1.23,0,0,0,0-.12l.07.1s0,0,0,0h0l.1.14,0,.06A1.28,1.28,0,0,0,8.92,1.46ZM7.65.43a0,0,0,0,0,0,0l.14.16a1.76,1.76,0,0,0-.72.06l-.22,0A2.07,2.07,0,0,1,7.65.43Zm.06,0h.2a1.3,1.3,0,0,1,.36.31L8,.65A2.31,2.31,0,0,0,7.71.42Zm.61.36h0l.13,0c.08.11.15.22.22.33s0,0,0,.07a1.07,1.07,0,0,0-.59-.5l.22.05ZM7.82.3h.13L8,.34H8Zm.12,0h0L8,.3l-.06,0Zm.81.48s0,0,0,0l0-.05h0s0,0,0,0l0,0ZM8.6.57h0ZM8.42.49l0,.07h0L8.34.43ZM8.77.8h0v0ZM8.37.49,8.25.41h0ZM7.9.21h0Zm.17.06.12.08h0L8,.26Zm.47.5v0L8.47.68l.15.13v0L8.56.8Zm-1-.52h.22l.08,0H7.72l-.11,0Zm.56.16.06,0h0l.23.31-.12,0A1.26,1.26,0,0,0,8,.41ZM8.6.85h0s0,.06,0,.09ZM8,.69a1,1,0,0,1,.67.57s0,0,0,0,0,0,0,0l0,0a2.85,2.85,0,0,1-.13.39A2.54,2.54,0,0,0,8,.69Zm.71.59s0,0,0,0v.06ZM1.57,5.46a6.54,6.54,0,0,1,.86-1.35l.06,0s0,0,0,0a4.87,4.87,0,0,1,.5-.5,5.23,5.23,0,0,0-.63,1.27c-.07.12-.14.24-.21.37s0,0,0,0L2.31,5l0,.15a1.64,1.64,0,0,0-.2.31l-.18.22c0-.06,0-.12,0-.17s0,0,0,0a4.55,4.55,0,0,1,.68-1.31s0,0,0,0a4.19,4.19,0,0,0-.67,1.29,3.15,3.15,0,0,1,0-.32s-.05-.06-.06,0a2.82,2.82,0,0,0-.1.64l-.28.34c0-.08,0-.16,0-.24h0c0,.1,0,.21,0,.31l-.19.25c0-.15,0-.29.07-.43v0h0s0,0-.05,0,0,.08,0,.11l0,.06a3,3,0,0,1,.26-.63v0s0,0,0,0a2.52,2.52,0,0,1,.24-.8,2.87,2.87,0,0,1,.57-.57,6.39,6.39,0,0,0-.79,1.27S1.57,5.47,1.57,5.46Zm1,1.09a0,0,0,0,0,0,0,1.83,1.83,0,0,0,.17.57c-.15.19-.3.37-.44.57a5.17,5.17,0,0,1-.16-.62c0,.07.06.15.1.22a0,0,0,0,0,.06,0,3.07,3.07,0,0,1-.15-.36,3.57,3.57,0,0,1,.29-.76s0,.06,0,.09v0h0L2.5,6A3.6,3.6,0,0,0,2.53,6.55Zm2,.2a10.81,10.81,0,0,1-1.48,1l-.15-.2.21-.28A6.65,6.65,0,0,0,4.56,6.75ZM3.13,7.87,3,8H2.8a0,0,0,0,0,0,0H3l-.3.23-.16-.14.18-.25a3.77,3.77,0,0,0,.41-.07l0,.05-.39,0a0,0,0,0,0,0,0Zm2.52-.74c-.22.19-.45.38-.69.56a5.33,5.33,0,0,0,.58-.49Zm-1,.69a4.33,4.33,0,0,1-.78.12h0a4.24,4.24,0,0,0,1.26-.43A5.29,5.29,0,0,1,4.62,7.83Zm-1,.44-.1.07,0,0a0,0,0,0,0,0,0h0l-.27.19h0l.15-.15c.1-.08.18-.18.27-.27h.39a3.62,3.62,0,0,1-.46.18l.06,0S3.67,8.26,3.66,8.27Zm2.27,0-.51.15.18-.15s0,0,0,0c.34-.14.68-.3,1-.45a5.66,5.66,0,0,1-.93.75l.05-.07a0,0,0,0,0,0,0c0,.06-.09.1-.13.16h0l-.46.09.28-.23.58-.17S6,8.25,5.93,8.26Zm.41.11a5.21,5.21,0,0,1-1.49,1h0l.26-.16a4.19,4.19,0,0,0,1.09-.67,0,0,0,0,0,0,0A4.55,4.55,0,0,1,5.23,9a2.42,2.42,0,0,0,.26-.26c.2-.08.39-.18.58-.28,0,0,0,0,0,0Zm-.28.43H6A1.42,1.42,0,0,1,5.9,9l-.13.11h0L5,9.28a5.07,5.07,0,0,0,1.32-.91A1.65,1.65,0,0,1,6.06,8.8Zm-3.38-4c0,.13-.08.27-.12.41s-.24.47-.34.71L2,6.19a2.07,2.07,0,0,1,.34-1L2.49,5A2,2,0,0,1,2.68,4.82ZM2.62,8.28h0l.18.12-.15.16,0,0-.07-.07-.11-.25,0-.07.15.13h0Zm.63.27h0l.16-.12Zm0,0,0,0L3,8.7H3l.17-.12Zm.2.22.07,0-.09,0ZM5,8.54a1.85,1.85,0,0,1-.26.19l-.11,0s0,0,0,0h.06a2.34,2.34,0,0,1-.48.2l.56-.35Zm0,1.1h0L5,9.68ZM2,6.29l.14-.21L2,6.46C2,6.4,2,6.35,2,6.29Zm-.11.35v.07l0,.09h0l0-.07c0,.11,0,.22,0,.33s-.06.3-.08.45l-.06.1-.16-.26h0c0-.14,0-.28,0-.42s-.05,0-.07,0c.08-.15.17-.29.26-.43C1.9,6.55,1.9,6.59,1.92,6.64Zm.18.95.07.21v0H2l0,0c0-.18,0-.36.07-.54l0,.17s0,0,0,0S2.08,7.53,2.1,7.59ZM4.83,9.52a4.18,4.18,0,0,0,.42-.16l-.41.17Zm-.07,0-.15,0-.05,0,.23-.05ZM.27,7.3s0,0,0-.07,0,0,0,0,0,0,0,.07S.27,7.31.27,7.3Zm.93-.13c0,.12,0,.23,0,.35v0l0-.1s0-.07,0-.11,0-.12,0-.18Zm.22-.32c0,.1,0,.2,0,.3l-.09.16C1.36,7.15,1.39,7,1.42,6.85Zm.46.84,0-.05,0-.07S1.88,7.65,1.88,7.69ZM3.66,9l.07,0,.12.07h0l-.16,0L3.61,9ZM3.58,9l0,0h0Zm.71.92,0,0-.31,0s0,0,0,0l.26,0h0L3.65,10h0l.09,0A4.16,4.16,0,0,0,4.29,9.9Zm-4-2.54c0,.05,0,.11,0,.16h0C.29,7.46.29,7.41.29,7.36Zm1.28.56s0,.09,0,.14l0,.1c0-.1-.09-.2-.13-.31h0c0,.12.09.23.14.34v0l-.05-.07a3.22,3.22,0,0,1-.17-.64l.12-.23A3.21,3.21,0,0,0,1.57,7.92ZM2,8.23a2.09,2.09,0,0,0,.15.22l0,.05C2,8.42,2,8.33,1.94,8.25Zm.78.62L2.58,9l-.15-.11.12-.13ZM2.94,9l-.16.07L2.71,9l.15-.1ZM4,9.16h.06L4,9.2l-.11,0h0L4,9.17ZM.83,7.42s0,0,0,0l0,.09,0,0s0-.05,0-.08Zm0,.24s0,0,0,0v0Zm2,1.56h0l0,0h0ZM1.09,8c0,.13,0,.26.06.39l0-.06C1.09,8.21,1.09,8.09,1.09,8Zm.06-.08,0,0c0,.1.06.21.09.31s0,.2,0,.3l0,0A5.13,5.13,0,0,1,1.15,8Zm-.49.38h0v0Zm.39,1,.08.07.09.12A1.79,1.79,0,0,1,1,9.26Zm.12,0,.1.08,0,0-.12-.1Zm.94,0-.05,0H2L1.9,9.23v0h0ZM2,9.34l0,0-.05,0h0Zm.09.07h0Zm-.33,0-.12-.06,0-.06.13.09Zm.23,0H2l0,0H2Zm-.08,0h0Zm-.39.25h0Zm.27-.08,0,0,.09,0h0Zm.35-.14H2a0,0,0,0,0,0-.05l.06,0,.11.06H2.11Zm-.2-.19h0Zm0,0,0,0s0,0,0,0l0,0Zm0,0v0h0v0Zm0-.09h0l0,0h0Zm-.06,0a2.6,2.6,0,0,1-.31-.24l0-.11V8.66a1.9,1.9,0,0,0,.36.4Zm0,.05s0,.05,0,.08h0l-.08,0L1.63,9l-.05-.1A2.55,2.55,0,0,0,1.85,9.12Zm-.58.33h0l.09.1h0Zm.32.23,0,.07h0s-.05-.06-.09-.09Zm.28.15,0,0h.07l.08,0Zm.4-.32-.14-.07c.11,0,.23.06.35.09H2.27Zm0-.13h.06l.15,0h0ZM1.5,8.44s0,0,0,0l0,0a1.19,1.19,0,0,0,.06.15S1.53,8.5,1.5,8.44Zm0,.48s0,0,0,0,0,.07.06.11L1.49,9s0-.09,0-.14Zm-.21.19h0l0,0,.08.08a0,0,0,0,0,0,0l0,0,0,0h0a0,0,0,0,0,0,0,2,2,0,0,1-.25-.38l.05,0ZM1,9.12l.1.12s0,0,0,0L1,9.12Zm.47.52,0,0,0,0ZM2,8.93l0,0L2,9Zm-.54-.32c0-.08-.07-.16-.1-.24a1.92,1.92,0,0,0,.1.21Zm0,.13h0l-.12-.14c0-.06,0-.12,0-.18C1.35,8.53,1.4,8.64,1.45,8.74Zm0,0c0,.05,0,.11,0,.16l0,0,0-.09,0-.1h0s0,0,0-.05ZM1.3,8.62h0ZM1,9.26H1v0Zm1.12.63h0l0,0h.1l0,0Zm.47-.27h.19l.18,0Zm-.29-.48h0l.09.06Zm.17,0h0Zm-.18,0,0,0L2.15,9h0l.16.1ZM2.13,9l-.08-.09.1.08ZM1.47,8.4l0,0,0,0ZM1.3,8.2v0h0Zm1.13,1h0l.12.05h0Zm1.14.35h0Zm-1-.25h0l0,0ZM1.11,7.66l0,0v0h0l0,0Zm0,.68.05.07v.05L1.1,8.37ZM.91,8.21A2.29,2.29,0,0,0,1,8.44l0,0c0-.07,0-.14-.06-.21Zm-.2.63,0,.08h0ZM3,9.82H3Zm.4-.27H3.18l.14,0h.09Zm-.24-.13h0Zm-.42-.05h0l.07,0ZM2.6,9.25l-.09-.07h0a0,0,0,0,0,.05,0l.13.06-.07,0ZM1,7.52s0,0,0,0,0,.05,0,.08l0-.06s0,0,0,0S1,7.65,1,7.7s0,.15,0,.22L1,8.06s0,.07,0,0v0c0,.08,0,.15,0,.23H1a2.09,2.09,0,0,1-.13-.46s0,0,0-.07,0-.07,0-.11A3.58,3.58,0,0,1,1,7.2c0,.05,0,.11,0,.16S1,7.47,1,7.52Zm-.4.27h0ZM3.42,9.38l-.05,0,.07,0h0Zm.11-.1h0Zm-.41.13-.39-.11h0l.1,0s0,0,0,0a1.6,1.6,0,0,0,.27.11Zm-.24-.12,0,0h0ZM2.1,8.84,2,8.76v0ZM2,8.75,1.92,8.7V8.63L2,8.71Zm-1.34-1v0s0-.08,0-.12v0S.65,7.7.65,7.72Zm0-.06s0,.07,0,.11h0l0-.22h0l0-.07h0l0-.07c0,.08,0,.16,0,.24A0,0,0,0,0,.6,7.66Zm2.91,1.6h0l-.07,0h0Zm-.15.06-.05,0-.25-.08Zm-1.44-.7v.06s0,0,0,0L1.8,8.54v0l.08,0ZM.58,7.3V7.25h0v.07l0,.08c0-.09,0-.17,0-.26s0,.1,0,.15ZM3.82,9.2h0ZM2.6,9h0l0,0Zm0,0h0ZM2,8.52l0-.06h0s0,0,0,0L2,8.54Zm-.2-.14v0l0,.05Zm-.13-.09h0l0-.09,0-.09C1.6,8.16,1.61,8.23,1.62,8.29Zm-.05,0h0v0Zm-1-1.16S.6,7,.59,7s0-.18.05-.28c0,.08,0,.16,0,.24S.62,7,.61,7.09Zm0,1.74h0ZM3.34,10l.23,0L3.4,10Zm.26,0h0Zm.06-.47h0l0,0h0l.07,0ZM2.66,9l0,0,.16-.1,0,0ZM2.6,9h0l.16-.1h0Zm0,0h0l-.15-.1h0Zm-.19-.12-.07-.06a3.37,3.37,0,0,1-.22-.27l0-.05a2.08,2.08,0,0,0,.29.37Zm-.53-.52a2.51,2.51,0,0,1-.16-.4h0a3.38,3.38,0,0,0,.17.39ZM.73,7.41h0c0-.15.05-.3.08-.44l0,.12A3.1,3.1,0,0,0,.73,7.41Zm0-.17s0-.07,0-.11,0,.09,0,.14Zm-.41.37v0h0v0h0ZM4,9.71l.13-.05h.15s0,0,0,0H4.4Zm.46-.12h0l.06,0h0S4.49,9.6,4.48,9.59Zm-.25-.13h0Zm-.31,0-.12,0,.11-.05L4,9.45ZM3.6,9.09H3.41L3.54,9Zm-.47,0-.31,0h0L3,9l.08,0ZM2.53,8.7l-.12.13a2.08,2.08,0,0,1-.29-.37l0-.11h0A3.42,3.42,0,0,0,2.53,8.7Zm-.38-.37,0,0h0l0,0,0,.1A2.1,2.1,0,0,1,2,8.23l0-.08.15.18Zm-.22-.13h0s0-.1,0-.15L2,8.12ZM2,7.84h.16L2.07,8Zm-.21,0h0s0,0,0,0h0l.07.11s0,.07,0,.1-.08-.16-.11-.25v0Zm0,0c0-.05-.05-.1-.07-.16v0c0,.06,0,.12.08.18ZM1,6.83v0H1v0ZM.9,6.89h0v0ZM.74,7c0,.07,0,.14,0,.2s0,0,0-.07L.73,7ZM.56,6.57h0v0Zm-.11.09,0,0s0-.06,0-.09v0S.46,6.63.46,6.66Zm4.13,3.2H4.53l0,0,.17-.06.16,0Zm-.43-.05.12,0-.19,0Zm.09-.42h0l-.11,0L4,9.37a0,0,0,0,0,0,0s0,0,0,0l.08,0,.11,0a2.28,2.28,0,0,0,.3.1Zm.46-.45h0l.23-.15.32-.08L5,8.86ZM4,9H4ZM3.52,9l-.15.06L3.29,9l.18-.09s0,0,0,0ZM2.9,8.76l.06,0H3l-.06,0Zm0,0L2.7,8.61l.23.1ZM2.36,8.3h0Zm0,0-.09-.11,0-.05.07.15Zm-.1-.12L2.1,8l.09-.15.09.26ZM2.34,8h0ZM1.59,7.2l0-.15.06-.11C1.61,7,1.6,7.11,1.59,7.2Zm-.17-.47q-.08.32-.12.65h0a4.17,4.17,0,0,1,0-.54,2.83,2.83,0,0,1,.16-.32C1.43,6.59,1.42,6.66,1.42,6.74Zm-.25.21c0,.06,0,.11,0,.17a2.62,2.62,0,0,1,0-.29l0,0C1.15,6.84,1.16,6.89,1.17,6.95ZM1,6.64,1,6.7c0-.06,0-.12,0-.18l.08-.12C1,6.48,1,6.56,1,6.64ZM1,6.75s-.06,0-.06,0,0-.07,0-.1l.05-.1C.95,6.63.95,6.69,1,6.75Zm-.17.08h0v0s0,0,0,0,0,.06,0,.09h0c0-.09,0-.17.07-.25s0,.05,0,.08ZM.69,7a5.61,5.61,0,0,1,.1-.63c0,.1,0,.2,0,.3A3.44,3.44,0,0,0,.69,7ZM.87,5.78a4.08,4.08,0,0,0-.26.65s0-.06,0-.08h0a2,2,0,0,1,.29-.66ZM4.61,9.49l.26-.07Zm0-.19a2.54,2.54,0,0,1-.29-.11l.23-.12L4.83,9,5,9s0,0,0,0l.31-.1a2.74,2.74,0,0,1-.58.4ZM5,8.85l.23-.12.29-.09,0,0Zm.3-.17h0l.09,0Zm0,0-.34.09L5,8.72l.27,0ZM4.2,9l-.41-.05.34-.2a2.81,2.81,0,0,0,.54-.06Zm-.45-.06-.07,0-.07,0,.27-.14h.22C4,8.79,3.87,8.86,3.75,8.91Zm-.28,0h0L3.29,9l-.12-.08.14-.08Zm-.35,0L3,8.83,3,8.76l.21.08ZM2.94,8.8l0,0,.07,0H3ZM3,8.71l0,0,0,0ZM3,8.68l-.3-.12.14-.16a2.08,2.08,0,0,0,.32.15Zm-.56-.49L2.36,8h0l.1.12ZM2.3,7.85c.12,0,.25,0,.37,0l-.17.23A1.72,1.72,0,0,1,2.3,7.85ZM2,6.49c.06-.15.11-.31.17-.45s.16-.18.24-.27c0,.07,0,.13,0,.2A3.31,3.31,0,0,0,2,6.78C2,6.68,2,6.59,2,6.49Zm.22-.57c.09-.22.2-.44.31-.65,0,.15-.08.29-.11.44Zm-.33.33a3,3,0,0,1,0-.49L2,5.6A2.37,2.37,0,0,0,1.91,6.25Zm0,.17c-.11.17-.22.34-.32.52,0-.06,0-.12,0-.18s0-.15,0-.22,0-.13,0-.2l0-.07s0,0,0,0v0l.29-.37A2.87,2.87,0,0,0,1.87,6.42Zm-.41-.09s0,0,0,0v0a2.16,2.16,0,0,0-.16.29s0-.07,0-.11l.18-.26Zm-.27.22V6.48l0,0s0,0,0,0V6.35s0-.09,0-.14l0,0,.05-.08a3.72,3.72,0,0,0-.07.44Zm-.13-.19L1,6.48c0-.05,0-.1,0-.16A0,0,0,0,0,1,6.3s0,0,0-.07Zm-.1,0a1.8,1.8,0,0,0,0,.22l-.05.1s0-.08,0-.12S.94,6.38,1,6.32ZM.63,5.9s0,0,0,0A5.26,5.26,0,0,1,1.16,5,2.78,2.78,0,0,0,1,5.33,3.37,3.37,0,0,0,.63,5.9ZM5.18,9.6H5.13l.1,0ZM6.44,8.33a3.09,3.09,0,0,0,.29-.18,4.66,4.66,0,0,1-.43.47A1.43,1.43,0,0,0,6.44,8.33Zm-.85.3,0,0,.09,0ZM5,8.66l.15-.16.1,0Zm0-.17.23-.17-.13.15Zm-.24.1a2.74,2.74,0,0,1-.57.09l.14-.08a3.75,3.75,0,0,0,.47,0Zm-1,0a3.13,3.13,0,0,0,.54,0l-.15.08H3.95l-.29,0Zm.09.17-.27.14-.15-.08.15-.09Zm-.55.08-.24-.08.1-.1,0,0,.31.08Zm.39-.7L3.85,8h0a4.38,4.38,0,0,0,.72-.09,4.18,4.18,0,0,1-.41.24ZM3.82,8l-.14.14-.45,0s0,0,0,0l.42,0,0,0h0l0,0a4.48,4.48,0,0,1-.37.32,2.07,2.07,0,0,1-.33-.16l.07-.08s0,0,0,0l-.07.07-.17-.11L3,8a4,4,0,0,0,.78,0Zm-.76-.23H3s0,0,0,0l-.31.06.19-.27Zm-.36.09c-.13,0-.27,0-.41,0l0-.08c.13-.2.28-.39.43-.59a2.68,2.68,0,0,0,.22.37ZM2.39,6.12,2.47,6l-.1.24S2.38,6.15,2.39,6.12Zm.18-.39s0-.08,0-.12l.08-.09-.08.19Zm-.06.06-.09.15c0-.06,0-.13,0-.19l.08-.08S2.52,5.75,2.51,5.8Zm0-.1c0-.18.09-.36.14-.53a4.51,4.51,0,0,0-.07.45Zm.63-1.91c-.12.27-.23.54-.32.82l0,.07-.08.07a0,0,0,0,0,0,0l-.05.07a1.59,1.59,0,0,0-.27.24l0-.16a8.27,8.27,0,0,1,.88-1.28l-.11.23,0,0S3.1,3.77,3.09,3.79ZM1.5,5.46a3,3,0,0,0-.27.6s0,0,0,0,0-.05,0-.08,0,0,0,0A3.66,3.66,0,0,1,1.62,5,2.5,2.5,0,0,0,1.5,5.46ZM1.12,6,1,6.16l.09-.22,0-.05s0,.05,0,.08ZM1,5.67a3.11,3.11,0,0,1,.11-.35A3.5,3.5,0,0,1,1.33,5s0-.06,0,0l-.09.1a2.7,2.7,0,0,1,.33-.53,3.77,3.77,0,0,0-.25.59h0Q1.14,5.4,1,5.67Zm7.39-.43a6.26,6.26,0,0,1-2,3.61,3.63,3.63,0,0,0,.38-.52s0,0,0,0a3.57,3.57,0,0,1-.79.86l-.12.08-.14.09-.4.18a1.7,1.7,0,0,0,.65-.47,1.85,1.85,0,0,0,.3-.31h0a4.22,4.22,0,0,0,.6-.65l0,0,0,.05s0,0,0,0l0-.08L7,8S7,8,7,8l0,0L7,7.85c.11-.16.23-.33.34-.5,0,0,0,0,0,0l-.25.36c.11-.22.22-.43.31-.66h0c-.1.26-.23.5-.35.75l-.21.3a3,3,0,0,1-.35.22,1.36,1.36,0,0,0,.05-.18h0a1.38,1.38,0,0,1-.1.21l-.34.13H6l-.18.08-.22.05h0a4.57,4.57,0,0,0,.53-.26s0,0,0,0a4.59,4.59,0,0,1-.42.21,5.69,5.69,0,0,0,.89-.74l.24-.11s0,0,0,0l-.17.08A8.59,8.59,0,0,0,7.74,6.36h0A8.52,8.52,0,0,1,6.66,7.72c-.43.2-.86.41-1.3.57,0,0,0,0,0,0l.21-.09-.23.19-.12,0a1.59,1.59,0,0,0,.12-.15,0,0,0,0,0,0,0l.1-.07a6.45,6.45,0,0,0,.76-.26s0,0,0,0a7.54,7.54,0,0,1-.71.25L5.74,8h0l-.33.22a4.16,4.16,0,0,1-1,.16s0,0,0,0a4.1,4.1,0,0,0,1-.14l-.47.31-.44,0,.36,0s0,0,0,0a3.25,3.25,0,0,1-1,0L4,8.36s0,0,0,0l-.25.18h0a0,0,0,0,0,0,0h0l-.13.1-.32-.08.3-.21a3.75,3.75,0,0,0,.61-.21h.17s0,0,0,0H4.27a4.27,4.27,0,0,0,.51-.3,4,4,0,0,0,.89-.36,6.35,6.35,0,0,1-1.06.77,0,0,0,0,0,0,0A7.33,7.33,0,0,0,7.31,5.5h0A8.81,8.81,0,0,1,5.72,7.4s0,0,0,0a4.45,4.45,0,0,1-.84.36l.07,0h0c.25-.19.49-.38.72-.59L5.85,7s0,0,0,0,.25-.22.36-.34h0c-.12.12-.25.24-.37.35l-.16.1c.15-.15.29-.3.42-.46s0-.08-.05,0a9.8,9.8,0,0,1-.81.79A4.39,4.39,0,0,1,3.63,8H3l.13-.1h0l0,0s0,0,0,0h0a4.85,4.85,0,0,0,1.85-.5,0,0,0,1,0,0,0,5.15,5.15,0,0,1-1.84.5l0,0h0l0,0h0l0-.06a3.33,3.33,0,0,0,1.73-.91,0,0,0,0,0,0,0,3.68,3.68,0,0,1-1.73.9,10.92,10.92,0,0,0,1.52-1,5.74,5.74,0,0,0,.93-.55s0,0,0,0a7,7,0,0,1-.73.44,12.87,12.87,0,0,0,1.07-1h0a12.73,12.73,0,0,1-1.13,1,7.12,7.12,0,0,1-1.59.6h0L3,7.25s0,0,0,0l.12,0-.19.26a2.6,2.6,0,0,1-.22-.37c.08-.1.15-.2.23-.3s0,0,0,0S2.77,7,2.7,7.1a1.81,1.81,0,0,1-.15-.49s0,0,0,0a3.87,3.87,0,0,1,0-.75v0A2.5,2.5,0,0,1,3,5.39c-.1.19-.21.38-.31.58,0,0,0,0,0,0L3,5.35l.16-.14s0-.06,0,0l-.08.07a8.44,8.44,0,0,1,2.48-3s0,0,0,0A8.39,8.39,0,0,0,3,5.28a2.5,2.5,0,0,0-.39.38l.08-.18.05-.05s0,0,0,0l0,0a15.17,15.17,0,0,1,.79-1.58s0,0,0,0a15.28,15.28,0,0,0-.81,1.63l-.1.1a5,5,0,0,1,.13-.65A12.48,12.48,0,0,1,3.88,3.18h0a12.48,12.48,0,0,0-1.13,1.7l0-.15,0,0s0,0,0,0,0-.11,0-.16q.2-.48.44-.95a7.61,7.61,0,0,1,1-1s0,0,0,0a7.69,7.69,0,0,0-1,.92h0v0a7.55,7.55,0,0,0-.86,1.19A5.17,5.17,0,0,1,3,3.52a4.56,4.56,0,0,1,.38-.31h0c-.13.09-.24.19-.36.29a4.66,4.66,0,0,1,.47-.57c.2-.15.41-.27.62-.4-.39.38-.76.8-1.12,1.21,0,0,0,.05,0,0,.43-.47.86-1,1.34-1.4.1-.06.2-.14.3-.2h0l-.27.18a4.44,4.44,0,0,1,1.28-.84s0-.05,0,0A4.82,4.82,0,0,0,4.14,2.5c-.21.13-.42.26-.62.4l0-.05s0,0,0,0l-.06.07L3.36,3h0l.11-.07A4.66,4.66,0,0,0,3,3.52a4.9,4.9,0,0,0-.56.56,2.82,2.82,0,0,0-.62.55,7.72,7.72,0,0,1,.52-.83,0,0,0,0,0,0,0,6,6,0,0,0-.59,1,3.49,3.49,0,0,0-.52,1.07v0h0c0-.1.07-.21.12-.31s0-.06,0,0a5,5,0,0,0-.35.88h0A3.67,3.67,0,0,1,1,5.83a6,6,0,0,1,.36-.65h0v0L1.4,5s0,0,0,0h0a3.5,3.5,0,0,1,.24-.55,2.67,2.67,0,0,1,.2-.21s0,0,0,0c.21-.22.42-.44.63-.64C3.35,2.72,5.46.83,7.2.33c0,0,0,0,0,0l.28,0,.29,0A2.09,2.09,0,0,0,7,.51a2.68,2.68,0,0,0-.9.29s0,0,0,0A2.7,2.7,0,0,1,6.94.54L6.76.64s0,.08,0,.05l0,0s0,0,0,0L7,.71H7a1.94,1.94,0,0,1,.33.07A2.58,2.58,0,0,0,6.67,1s0,0,0,0A2.42,2.42,0,0,1,7.42.81a2.37,2.37,0,0,1,.78.48s0,0,0,0A2.42,2.42,0,0,0,7.49.8h.25s0,0,0,0a1.52,1.52,0,0,0-.34,0L7.09.69a1.82,1.82,0,0,1,.72,0,3.61,3.61,0,0,1,.72,1.21l-.14.29s0,0,0,0l.12-.27,0,.09h0a3.25,3.25,0,0,1-.06.67s0,0,0,0A3,3,0,0,0,8.59,2l0,.11a0,0,0,0,0,.07,0c0-.12-.06-.22-.09-.34a2.65,2.65,0,0,0,.12-.42l.13.29s0,0,0,0-.09-.22-.15-.33v0a2.38,2.38,0,0,1,.18.32s0,0,0,0a1,1,0,0,1,0-.17H9v0H9A11.32,11.32,0,0,1,8.38,5.24ZM6.87,8l.06-.09L6.9,8Z"/><path class="cls-1" d="M8.86,2V2a2.1,2.1,0,0,0,0-.3h0a2.22,2.22,0,0,1-.07.81s0,0,0,0A2.46,2.46,0,0,0,8.85,2h0Z"/><path class="cls-1" d="M8,3.88A9.88,9.88,0,0,1,6.66,7.54s0,0,0,0A8.8,8.8,0,0,0,8.07,3.89S8.05,3.87,8,3.88Z"/><path class="cls-1" d="M7.81,4.28h0l-.34.37c.15-.22.31-.44.46-.67a0,0,0,0,0,0,0,3.51,3.51,0,0,0-.45.66c-.11.16-.23.31-.35.45A10,10,0,0,1,5.26,6.58s0,0,0,0A9.16,9.16,0,0,0,7,5.16l-.62.74s0,.07,0,0a9.35,9.35,0,0,0,1-1.21Z"/><path class="cls-1" d="M6.19,4.86a10.44,10.44,0,0,1-1.35.95c.5-.55,1-1.11,1.49-1.65h0c-.51.55-1,1.12-1.51,1.67a3.28,3.28,0,0,1-1.44.45,10.81,10.81,0,0,1,.57-1.11c.16-.19.32-.38.5-.55h0c-.17.17-.33.36-.48.54A10.41,10.41,0,0,1,5.29,3.38h0A10.46,10.46,0,0,0,3.89,5.21l-.11.12h0l.1-.11a10.49,10.49,0,0,0-.54,1.05,2.45,2.45,0,0,1-.58,0,9.9,9.9,0,0,1,1.3-2s0,0,0,0l-.49.65A13.55,13.55,0,0,1,5.26,2.7a5,5,0,0,1,.59-.37,0,0,0,0,0,0,0,2.48,2.48,0,0,0-.4.21l.23-.22h0l-.24.23A5.69,5.69,0,0,0,4.81,3s0,.06,0,0l.37-.28A15.16,15.16,0,0,0,3.14,5.42h0a5.71,5.71,0,0,0-.42.81h0s0,0,0,0h0l-.07.15a0,0,0,1,0,0,0l.07-.16a2.52,2.52,0,0,0,.58.05c-.13.3-.26.6-.37.91a0,0,0,0,0,0,0c.11-.32.24-.62.37-.92A3.14,3.14,0,0,0,4.7,5.95l-.28.31s0,0,0,0l.3-.34a9,9,0,0,0,1.48-1S6.21,4.85,6.19,4.86Z"/><path class="cls-1" d="M5.53,5.32c.7-.64,1.32-1.38,2.05-2h0c-.75.59-1.36,1.32-2.06,2A0,0,0,0,0,5.53,5.32Z"/><path class="cls-1" d="M4.4,5.11A22,22,0,0,1,7.6,1.85s0,0,0,0A21.8,21.8,0,0,0,4.38,5.1S4.39,5.12,4.4,5.11Z"/><path class="cls-1" d="M6.34,3.74c-.47.4-.94.79-1.39,1.21H5c.45-.41.92-.81,1.38-1.21Z"/><path class="cls-1" d="M6,4.41H6l-.18.13h0Z"/><path class="cls-1" d="M6.73,7.21c-.52.24-1,.52-1.57.73,0,0,0,0,0,0a16.25,16.25,0,0,0,1.57-.71S6.74,7.2,6.73,7.21Z"/><path class="cls-1" d="M7.33,7.61s0,0,0,0a12.4,12.4,0,0,0,.83-2.76h0A12.42,12.42,0,0,1,7.33,7.61Z"/></svg>