<svg id="Layer_1" data-name="Layer 1" xmlns="http://www.w3.org/2000/svg" viewBox="0 0 36.19 42.43"><defs><style>.cls-1{fill:#231f20;}</style></defs><title>ilustracije_razmerje</title><path class="cls-1" d="M15.77,17.45h0A15.91,15.91,0,0,0,14.09,23s0,0,0,0A15.87,15.87,0,0,1,15.77,17.45Z"/><path class="cls-1" d="M18.29,17.55c-.1.33-.16.67-.26,1a0,0,0,0,0,0,0c.1-.33.17-.67.28-1A0,0,0,0,0,18.29,17.55Z"/><path class="cls-1" d="M19.47,19.4a15.24,15.24,0,0,0-.66,2.37s0,.05.06,0a15,15,0,0,1,.66-2.36S19.49,19.36,19.47,19.4Z"/><path class="cls-1" d="M13.24,14.24a8.6,8.6,0,0,1-2.48.51s0,0,0,0a8.58,8.58,0,0,0,2.49-.51S13.26,14.24,13.24,14.24Z"/><path class="cls-1" d="M11.49,38.2c.4.48.87.89,1.28,1.36h0c-.41-.47-.88-.88-1.28-1.36Z"/><path class="cls-1" d="M14.67,38.86a29.7,29.7,0,0,1-3.25-7.22s0,0,0,0a26.3,26.3,0,0,0,3.21,7.25S14.69,38.9,14.67,38.86Z"/><path class="cls-1" d="M17.11,11.65a5.52,5.52,0,0,1-.68-.51s0,0,0,0a5.39,5.39,0,0,0,.68.51S17.12,11.66,17.11,11.65Z"/><path class="cls-1" d="M18.88,11.18s.06-.05,0-.07c-.61-.24-1.28-.54-1.42-1.25,0,0-.08,0-.07,0C17.55,10.63,18.24,10.95,18.88,11.18Z"/><path class="cls-1" d="M36.19,0c-.39,0-.92.6-1.18.83s-.68.67-1,1l-.41.31-.73.58q-.57.37-1.16.71-1,.54-2.12,1c-1.19.47-2.43.9-3.7,1.3-2.78.84-5.63,1.51-8.43,2.41a.15.15,0,0,0-.14,0,41.45,41.45,0,0,0-7.11,2.62l.29-.22s0-.07,0,0l-.66.47a19.49,19.49,0,0,0-4.21,2.91h0l-.11.12q-.4.37-.77.77L4.43,15a9.29,9.29,0,0,0-1.17,1.31l-.13.17L3,16.65q-.21.29-.39.6l-.08.13-.09.15-.17.28a10.15,10.15,0,0,0-.81,1.6c-.13.26-.26.51-.37.77a0,0,0,0,0,0,0l.08-.13c0,.11-.08.23-.12.35s-.16.33-.25.49a0,0,0,0,0,0,0l.08-.12c-.07.22-.14.44-.2.67A14.81,14.81,0,0,0,.37,23c0,.12-.08.25-.12.37s0,0,.05,0c-.82,5,1,10.08,4.41,14.17a12.05,12.05,0,0,0,7.76,4.48c.11.11.22.23.34.33a.06.06,0,0,0,.08-.08l-.19-.21h.07l.32.14c.07,0,.11-.08,0-.12h0a9.17,9.17,0,0,0,4.37-.86.18.18,0,0,0,.14-.07A10.55,10.55,0,0,0,21,38.57a.19.19,0,0,0,0-.16s0,0,0,0c-.15-.4-.33-.79-.5-1.19-5-15,2.38-26.34,13.92-35.39A12.33,12.33,0,0,0,36.05.76C36.19.64,36.68,0,36.19,0ZM20.4,16.63c-.1.26-.19.52-.3.78-.24.53-.47,1.06-.67,1.62,0,0,0,0,0,0q-.62,1.71-1.19,3.44s0,0,0,0l.34-1q-.42,1.65-.68,3.27c0-.53,0-1.05.07-1.58s.23-1.23.37-1.84c.34-1.17.73-2.32,1.14-3.47a24.36,24.36,0,0,1,1.53-3s0,0,0,0l.11-.18s0,0,0,0l0-.09c-.09.25-.19.5-.27.75a0,0,0,0,0,0,0c-.25.48-.48,1-.69,1.48l-.15.32c.07-.18.13-.36.2-.54C20.42,16.62,20.41,16.62,20.4,16.63ZM17.84,26.4l0-.17c0,.13,0,.25,0,.38Zm0-.42c0-.2,0-.4,0-.6,0,0,0,0,0,0,0,.26,0,.53,0,.79a27.37,27.37,0,0,0,0,6.36s.06,0,.06,0a28.11,28.11,0,0,1,0-5.92c0,1,.09,2,.18,2.94a14,14,0,0,0,.16,1.5c0,.39.11.78.17,1.17-.07-.34-.15-.69-.21-1,0-.08-.13,0-.12,0A29.3,29.3,0,0,0,19.26,36c0,.05.1,0,.08,0l-.11-.36c.09.22.18.45.26.67,0,0-.07,0-.05,0l0,.12a11.26,11.26,0,0,1-.7-1.24c0-.13,0-.26,0-.39s0,0,0,0,0,.23,0,.34a7.81,7.81,0,0,1-.58-1.61s-.06,0-.05,0a8.32,8.32,0,0,0,.59,1.72c0,.09,0,.18,0,.27h0c-.45-1.26-.92-2.51-1.41-3.75A36.37,36.37,0,0,1,16.51,26s0,0,0,0a36.53,36.53,0,0,0,.64,5.42l-.05-.13h0c-.25-1.33-.41-2.68-.54-4,0,0-.06,0-.06,0q.11,1.25.27,2.48c-.24-1.49-.36-3-.45-4.52a20.48,20.48,0,0,1,2.12-6,23.52,23.52,0,0,0-1.61,5.64c0-.47,0-.95,0-1.42,0-.06-.09-.06-.09,0a31.28,31.28,0,0,0,.34,6.13s.08,0,.07,0a33.33,33.33,0,0,1-.34-4.46,0,0,0,0,0,0,0A25.36,25.36,0,0,1,18.8,18.6c0,.13-.07.25-.09.38s0,0,0,0h0s0,0,0,0h0v0q.53-1.08,1.11-2.13l-.3.84c-.18.4-.34.8-.5,1.21,0,0,0,0,.05,0l.08-.2c-.4,1.12-.77,2.25-1.08,3.4,0-.46.06-.92.1-1.38,0,0-.07,0-.07,0-.07.61-.1,1.22-.15,1.83a20.71,20.71,0,0,0-.7,4.56s.06,0,.06,0A21.76,21.76,0,0,1,18,23c0,.11,0,.23,0,.34A39.66,39.66,0,0,0,17.29,31a0,0,0,0,0,.06,0,47.67,47.67,0,0,1,.58-7c0,.52,0,1,0,1.57C17.86,25.66,17.85,25.82,17.83,26Zm4.26-12.24c.08-.18.17-.36.25-.55h0l.14-.25s0,0,0,0h0l.34-.42-.49.91Zm-.83.79h0ZM5.47,37.73l-.15-.17a4.39,4.39,0,0,0-.43-.45l0,0-.23-.25-.4-.67c.19.28.38.57.59.85,0,0,.09,0,.06,0a25.5,25.5,0,0,1-1.47-2.28l-.07-.14s0,0,0-.05l-.29-.44-.23-.47s0,0,0,0c-.16-.32-.3-.65-.45-1l-.34-.9.11.2a8,8,0,0,0,.61,1.36l0,.11-.09-.12s0,0,0,0l.16.23a5.91,5.91,0,0,0,.64,1.26l.16.27s0,0,0,0l.23.32c.09.15.17.31.26.46a0,0,0,0,0,.07,0q.51.71,1.07,1.38a4.72,4.72,0,0,0,.36.43s-.06,0,0,0l.32.26q.46.51,1,1A16.79,16.79,0,0,1,5.47,37.73ZM2.83,18.07a.53.53,0,0,0,.26-.17l-.23.39-.3.43s0,0,0,0l.17-.23c-.14.26-.27.53-.39.81,0,0,0,0,0,0l-.09.15c0-.12.07-.23.11-.35h0c-.05.14-.09.28-.14.41L2,20a18,18,0,0,0,.64-1.75c.13-.26.28-.51.42-.76l.3-.4-.08.12a3.22,3.22,0,0,1-.49.77S2.8,18.08,2.83,18.07ZM4,16.77c.14-.17.28-.34.44-.49h0l.06-.06a13.43,13.43,0,0,1,1.82-1.55A31.82,31.82,0,0,0,3,18.76l.13-.28s0-.06,0,0c-.13.24-.24.49-.35.73s-.28.41-.4.64a0,0,0,0,0,0,0c.1-.19.23-.36.34-.55-.08.19-.15.38-.22.58l-.28.61c0-.1,0-.21.08-.31s0,0,0,0-.08.31-.13.47-.23.56-.34.85q.2-.88.47-1.76a27.52,27.52,0,0,1,1.64-2.61s0,0,0,0c-.4.56-.8,1.15-1.16,1.75a9.55,9.55,0,0,1,.56-1C3.48,17.47,3.74,17.12,4,16.77ZM7.66,12.9l.18-.16.37-.23L6.82,13.81l-.09.07A12.33,12.33,0,0,1,7.66,12.9Zm5.26-3.12s0,0,0,0l.1,0c1.46-.48,3-.88,4.38-1.29h0c1.83-.45,3.68-.9,5.48-1.46a41.18,41.18,0,0,0,6.67-2.14l-.05,0c-.74.42-1.46.88-2.18,1.35-1,.56-1.91,1.12-2.85,1.7s-2,1.15-2.9,1.77a15.84,15.84,0,0,0-1.33.89l-.17.11h0l-.12.08-.15.09s0,0,0,0C14.15,14.66,10.44,21.09,11.33,28a.08.08,0,0,0,0,.06,23.52,23.52,0,0,0,5.39,12.4h0c.08.11.07.11.12.14l.26.31-.36.13h0a10.88,10.88,0,0,1-1.44-1.19s-.07,0,0,0a10,10,0,0,0,1.43,1.17,9.18,9.18,0,0,1-1.13.32,3.5,3.5,0,0,1-1.28-.5h0a4.35,4.35,0,0,1-.59-.47l-.09-.1.59-.3c.47.37.95.72,1.44,1.06,0,0,0,0,0,0Q15,40.56,14.27,40l.49-.25A7.25,7.25,0,0,0,16.41,41s.07,0,0-.06a9.07,9.07,0,0,1-1.61-1.16l.09,0c.06,0,0-.12-.05-.09l-.12.06-.64-.59c-.67-.92-1.32-1.86-1.92-2.83,0,0,0,0,0,0,.58.93,1.2,1.83,1.84,2.71l-.19-.19a0,0,0,0,0,0,0l.43.43.17.24s0,0,0,0l-.08-.11.36.33-.49.25-.24-.19s.06,0,0,0a24.31,24.31,0,0,1-1.75-2.61l.2-.14q.49.67,1,1.33s0,0,0,0q-.52-.65-1-1.32l0,0s0-.06,0,0l0,0q-.48-.66-.92-1.35s0,0,0,0q.44.69.92,1.36l-.2.13-.24-.4-.11-.25s0,0,0,0l0,.07s0,0,0,0l.14.24.16.37-.41.27q-.46-1-.88-2s0,0,0,0q.41,1,.86,2l-.33.2c-.37-.41-.73-.83-1.09-1.26A21.23,21.23,0,0,1,8.8,33.17s-.07,0-.06,0A20.82,20.82,0,0,0,10,36q-.49-.61-1-1.25l-.12-.21s0,0,0,0q-.4-.7-.75-1.41c.36-.21.71-.42,1.05-.66,0,0,0,0,0,0-.34.24-.69.45-1.05.66a18.16,18.16,0,0,1-1.88-7.31l.52-.14s0-.08,0-.06l-.5.13a18,18,0,0,1,0-1.88s0,0,0,0a18.15,18.15,0,0,0,0,1.89,20,20,0,0,1-2.59.52c0-.86,0-1.72.09-2.58,0,0,0,0,0,0-.08.86-.1,1.72-.09,2.58h-.1a17,17,0,0,1-.15-2.86c.06-.36.11-.73.19-1.09h0c-.07.33-.12.65-.18,1,0-.27,0-.53,0-.81,0,0,0,0,0,0,0,.32,0,.64,0,1a16.45,16.45,0,0,0-.21,2.87H3c-.06-.58-.1-1.16-.12-1.74A11.25,11.25,0,0,1,3,23.23s0,0,0,0q-.09.42-.14.84a20.07,20.07,0,0,1,.12-2.48,27.44,27.44,0,0,0,3.22-.25,10.14,10.14,0,0,0,2.67-1c-1,4.76.28,9.82,2.41,14.22,0,0,.08,0,.06,0-2.12-4.41-3.41-9.44-2.4-14.21l.91-.49a0,0,0,0,0,0,0l-.89.47a14.91,14.91,0,0,1,1.16-3.38s0,0,0,0a14.53,14.53,0,0,0-1.21,3.43,13.82,13.82,0,0,1-2.27.9,17.6,17.6,0,0,1-3.63.38l0-.21c.15-.48.3-1,.48-1.45,0,0,0-.05-.06,0-.15.39-.26.78-.39,1.17v0s0,0,0,0a17.08,17.08,0,0,1,1.41-3.21,0,0,0,0,0-.09-.05A11.45,11.45,0,0,0,2.67,21.6a.06.06,0,0,0,.12,0v0h0q-.26.9-.45,1.82,0-.46,0-.92s0-.08,0-.13a0,0,0,0,0,0,0,12.92,12.92,0,0,1,1-3.74h0a12.12,12.12,0,0,0-1,3.44s0,0,0,0,0,.11,0,.17c0,.21-.05.43-.07.64a10,10,0,0,0-.16,1.48,14,14,0,0,1,.49-4.16h0c0,.07,0,.14-.06.21a1.46,1.46,0,0,1,.09-.54s0,0-.05,0a1.51,1.51,0,0,0-.08.6s0,0,0,0a14.06,14.06,0,0,0-.44,3.77c0-.32-.06-.65-.08-1H2c0,.38.06.76.09,1.14,0,.18,0,.36,0,.54s0,.19,0,.29v.15c0,.09,0,.17,0,.26q0-.67,0-1.35a0,0,0,0,0-.1,0c0,.72,0,1.44.08,2.14H1.83c0-.07,0-.13,0-.2s0,0,0,0,0,.13,0,.2h0a16.41,16.41,0,0,1,.27-5.6c.1-.23.21-.46.31-.69a0,0,0,0,0,0,0c0-.12.09-.24.13-.36l0-.06h0c.1-.27.21-.53.33-.79a31.48,31.48,0,0,1,3.44-4.23c.32-.23.65-.45,1-.66,0,0,0-.06,0,0l-.76.49L6.9,14h0l-.36.39a14.43,14.43,0,0,0-1.32,1c.54-.56,1.1-1.1,1.66-1.63l.38-.28s0-.06,0,0l-.07.05L8.4,12.39c.75-.51,1.5-1,2.27-1.51S12.14,10.11,12.92,9.78Zm5.81,8.72c.13-.48.29-.94.46-1.4-.1.33-.19.67-.28,1Zm1-2.71.18-.36s.06.07.08,0q.35-.75.74-1.47c.2-.31.4-.6.61-.9,0,0,0,0,0,0a12.18,12.18,0,0,0-.82,1.39,10.09,10.09,0,0,0-1.13,2.53c-.11.21-.21.42-.31.63A19.06,19.06,0,0,1,19.76,15.79ZM21,13.33l0,0-.25.24.09-.13,0,0,.31-.32L21,13.3l0,0ZM16,20s0,0,0,0c-.31.88-.56,1.76-.79,2.65h0c0-.16,0-.32.07-.48s0,0,0,0,0,.09,0,.14c0-.25,0-.5,0-.75A16.86,16.86,0,0,1,16,19.89Zm-.64,10.44c.1.43.2.85.31,1.27v0l0,.08s0,0,0,0l.09.22.06.22L15.7,32q-.3-1.06-.57-2.12s0,0,0,0a19.53,19.53,0,0,1-.38-2.5c.19,1,.38,1.91.58,2.85h0C15.32,30.31,15.35,30.39,15.37,30.48Zm1.73,2.45,0,.13a10.61,10.61,0,0,1-.37-1Zm.12.3c.12.32.25.63.37.95-.11-.28-.23-.56-.35-.84Zm.34,1a0,0,0,0,0,0,0q.31.83.6,1.67l-.15.11a12.58,12.58,0,0,1-.76-2.36C17.38,33.85,17.47,34,17.55,34.24Zm5.72-22.43,0-.09.07-.1-.09.15ZM15,30h0c.12.53.27,1.05.44,1.58,0,0,0,0,0,0a19.73,19.73,0,0,0,.8,2.5c.1.36.23.7.36,1L16.52,35c0-.13-.11-.25-.15-.38s0,0,0,0l.05.13c-.12-.22-.24-.45-.35-.67l.11.19c0,.07.14,0,.11-.06-.24-.45-.46-.89-.68-1.34-.05-.17-.11-.34-.15-.52s-.07,0-.07,0l0,.09A13,13,0,0,1,14.2,28.4a0,0,0,0,0-.07,0,6.66,6.66,0,0,0,.13,1.44A11.1,11.1,0,0,1,14,28.54c0-.45,0-.9,0-1.35q.15,1.11.37,2.23s.07,0,.06,0c-.16-.86-.3-1.73-.41-2.59,0-.48.09-1,.16-1.44h0s0,0,0-.07a18,18,0,0,1,.4-1.82v.07a16.91,16.91,0,0,0-.38,2.82s.05,0,.06,0A16.85,16.85,0,0,1,14.61,24c0,.61-.06,1.22-.06,1.83,0,.1,0,.21,0,.31s0,0,0,0v0c-.06.37-.12.75-.17,1.12,0,0,.06,0,.06,0,0-.31.09-.62.14-.93l0,.21a19.56,19.56,0,0,0,.4,3.11C15,29.83,15,29.92,15,30Zm2.61,6.32h0l0-.07h0Zm.46-21a8.23,8.23,0,0,1,.5-.88l.48-.54-.19.24s0,.1.07.06l.31-.35-.18.35A10.8,10.8,0,0,0,18.09,15.37Zm-3.29,7.29a29.56,29.56,0,0,1,.5-3c.19-.48.39-1,.62-1.41a25.87,25.87,0,0,0-1,4.09Zm0,.31,0,.07v0ZM14,26.28a16.34,16.34,0,0,1,.52-6.64s0,0,0,0A16.44,16.44,0,0,0,14,26.69c0,.42-.06.85-.06,1.28,0,0,0,0,0,0s0,.33,0,.5a17.68,17.68,0,0,0,.26,2.75,24.64,24.64,0,0,1-.52-3h0a54.58,54.58,0,0,1,0-6.33s0,0,0,0a53.34,53.34,0,0,0,0,7.22,28.48,28.48,0,0,1-.38-5.54,17.23,17.23,0,0,1,1.57-5.06s0,0,.05,0a11.79,11.79,0,0,1,.68-1.2c.14-.14.28-.28.43-.41q-.14.45-.27.91A13.29,13.29,0,0,0,15,20.06a14.84,14.84,0,0,0-.87,5.12Q14.09,25.73,14,26.28Zm2.38,7.62q.12.42.27.83c-.13-.34-.25-.68-.37-1Zm2.2,2.88v0s0,0,0,0,0,.1,0,.14l-.07-.15a.05.05,0,0,0-.07,0v0l.07,0s0-.05,0,0h-.06c0-.13,0-.27-.07-.4A3.6,3.6,0,0,0,18.61,36.78ZM26.16,8.54l.15-.16s0,0,0,0ZM15.18,20c-.07.3-.12.61-.18.91,0-.27.08-.54.14-.8Zm5.74-7.7h0v0l-.49.51c.17-.23.34-.46.52-.68l.49-.41-.16.24Zm-2.2,0v0l-.21.16ZM20.2,11l.15-.12-.43.43-.09.07Zm6.27-3.16-.21.16.12-.14A.13.13,0,0,0,26.47,7.89Zm-4.35,3.88-.2.18.46-.61c.19-.19.37-.39.56-.57l.63-.63,0,0-.28.31s0,0,0,0A13.81,13.81,0,0,0,22.12,11.77Zm5.73-5.44-.07.06-.08.06-.06,0,.16-.13Zm.45-.41L28.2,6l.17-.15.13-.08-.2.15S28.29,5.92,28.29,5.93ZM23.06,9.87a7.36,7.36,0,0,0,.6-.57L24.08,9l-.17.2-.79.66Zm3.54-2.71-.06,0,.2-.14ZM24,8.8h0Zm.22.37h0Zm.3-.39-.07.05s0,0,0,0l0,0ZM23.15,9l.07,0-.12.06Zm-.55.5.31-.17-.06.06,0,0h0l-.52.33h-.07Zm3-1.84h-.06l.14-.09,0,.05Zm-1.42.77-.06,0s0,0,0,0h0S24.22,8.46,24.23,8.46Zm-.09,0-.07,0,0,0Zm-2,1.38h0l-.08.05Zm2.06-1,0,0,.18-.1h0l-.37.3.13-.16Zm1.76-1.43,1.29-.86-1.3.89S25.92,7.49,25.93,7.48ZM25,8s0,0,0,0l-.17.12a.05.05,0,0,0,0-.07l0,0L25,8ZM23,9.87a0,0,0,0,0,0,0L22.9,10Zm4.38-3.29h0l.05,0,.09,0-.12.1S27.39,6.59,27.37,6.58Zm-2,1.18-.1,0h0l.18-.1.16-.1Zm-4,3,0,0-.28.22h0Zm.4.49L22,11l.09-.07.15-.11c-.1.1-.2.2-.29.3Zm1.41-1.06h0l-.07.05ZM28.17,6h0Zm-6.64,4.15-.13.11-.24.22-.18.11Zm-.64,1h0Zm.59,0-.15.12,0,0Zm.25,0c-.12.16-.25.32-.36.49l-.12.1-.76.58.49-.58Zm3.3-2,.1-.11.12-.08a11.86,11.86,0,0,0-1.09,1.18l-.07.06.29-.36C24.59,9.55,24.81,9.33,25,9.1Zm-4.25,2.12h0l-.18.2c-.22.2-.43.4-.64.61l0,0-.06,0,.35-.42Zm.77,1,.69-.7c-.18.23-.37.45-.55.68s-.33.28-.49.44Zm2.79-2.65,0,0-.09.1-.08,0Zm-.76,1-.22.25-.14.17-.23.23-.18.13q.47-.53,1-1Zm4.63-4.39L28,6.24l0,0,.13-.07ZM19,12.26l0,0,0,0Zm-.26.1h0c-.14.15-.27.3-.4.45l-.59.47.43-.46Zm-1.28,1.48q-.57.58-1.11,1.19A11.48,11.48,0,0,1,17.49,13.83Zm.6-.43.27-.25c-.12.13-.25.25-.36.39s0,.09.05.05c.32-.34.65-.67,1-1-.26.27-.52.53-.76.82q-.62.56-1.18,1.18C17.41,14.2,17.74,13.79,18.09,13.4ZM19.85,12l-.22.28-.45.37C19.4,12.44,19.62,12.22,19.85,12Zm-.44.52a17.1,17.1,0,0,0-1.73,1.94A13.08,13.08,0,0,1,18.86,13Zm1.42-.89,0,0-.24.19Zm.81-.06-.33.37.14-.21Zm.8-.64h0Zm0,.52.32-.31a0,0,0,0,0,0,0l-.17.16A12.17,12.17,0,0,1,23.87,10a0,0,0,0,0,0,0l.23-.22.12-.07-.07.09h0c-.57.55-1.13,1.13-1.66,1.74l-.1.07Zm2-1.38a0,0,0,0,0,0,0l.14-.12Zm.58-.74.08-.08,0,0Zm1.56-1.52-.06.08L26.5,8Zm.15-.21-.07.07-.21.15.31-.27Zm1.4-1.5a0,0,0,0,0,0-.05L28.44,6ZM22,9.71l-.15.12-.34.19h0l.1-.07Zm-2.44,1.72.2-.17.41-.27c-.27.24-.54.49-.79.76h0l0,0-.21.15,0,0s0,0,0,0-.25.21-.37.32l0,0h0l-.12.11Zm-2,2.06.24-.28Zm-.77.91a0,0,0,0,0,0,0l-.2.21.13-.16Zm-.91,1.23-.14.16.22-.31-.09.14S15.86,15.62,15.86,15.63Zm1.32-1.29-.18.24c0,.05,0,.09.08,0a10.51,10.51,0,0,0-1.94,2.93s0,.06,0,0A12.8,12.8,0,0,1,18,13.75a11.53,11.53,0,0,0-.9,1.37,12.26,12.26,0,0,0-1.83,2.38,11.68,11.68,0,0,0-1.86,2.4,19.19,19.19,0,0,1,1.43-2.83A28.92,28.92,0,0,1,17.18,14.34Zm-.37,1.42,0,0c-.17.28-.33.56-.48.84-.17.14-.35.27-.51.41A14.09,14.09,0,0,1,16.8,15.75Zm-.56,1q-.21.42-.4.85c.07-.23.13-.46.2-.69Zm1.09-1.59.07-.07s0,0,0,0c-.14.18-.28.36-.41.54C17.09,15.49,17.22,15.33,17.33,15.17ZM17,15.7l-.05.09Zm2.76-3.05.78-.6-.44.53-1,.76Zm.56.11.5-.45c-.19.25-.38.5-.56.76s-.28.33-.42.5l-.52.48c.1-.19.21-.37.33-.55S20.05,13,20.28,12.76Zm1.47-1.27.5-.4.15-.11h0l-.08.07c-.28.24-.56.47-.83.73Zm-1.34,2.22h0l0,0Zm3.12-2.8h0c-.27.34-.53.7-.78,1.06l.21-.43C23.16,11.32,23.35,11.11,23.54,10.91Zm.8-.69,0,0-.31.4-.26.26C24,10.63,24.16,10.43,24.33,10.22Zm1.93-1.91-.59.63h0l-.44.32.08-.1,1.11-1h0s0,0,0,0L26,8.59l.23-.26S26.27,8.31,26.27,8.31Zm-6.59,2.86a11.44,11.44,0,0,1,1.19-.82l-.19.15-.06,0-.32.23-.18.13s0,0,0,0L20,11c-.25.17-.5.33-.74.51,0,0,0,.1,0,.07l.06,0-1,.71q.63-.57,1.29-1.09Zm-4.33,4.3A13.46,13.46,0,0,1,16.72,14s0,0,0,0c-.23.19-.43.41-.64.61a30.84,30.84,0,0,1,2.22-2.26l1.1-.83-.38.34a0,0,0,0,0,0,0c-.38.35-.76.71-1.12,1.09l-.38.33a8.45,8.45,0,0,1,1.28-1.23s0-.06,0,0a6,6,0,0,0-1.44,1.39s0,0,0,0c-.2.18-.42.35-.61.54,0,0,0,.1.06.06l.62-.54-.2.24a9.29,9.29,0,0,0-1.9,2.15c0,.05,0,.09.08,0a11,11,0,0,1,1.12-1.31q-.71.91-1.34,1.87A27.13,27.13,0,0,0,12.9,20a19.1,19.1,0,0,1,1.75-3.53Q15,16,15.34,15.47Zm-2.48,4.62s0,0,.06,0c.46-.82,1-1.59,1.47-2.34a17.15,17.15,0,0,0-1.24,2.69,12.08,12.08,0,0,0-1.23,3.83c0,.06.08.08.09,0a12.65,12.65,0,0,1,.86-3q-.15.53-.27,1.07s0,0,0,0a23.61,23.61,0,0,0-.42,5.87c0-.17-.07-.35-.11-.52a6.24,6.24,0,0,1,.08-1.52s0,0,0,0a6,6,0,0,0-.11,1.1,14.76,14.76,0,0,1-.19-1.53A17.61,17.61,0,0,1,12.86,20.09Zm-.32,10c0,.08,0,.15,0,.23a12.19,12.19,0,0,1-.49-2.11l.08.39s0,0,0,0h0q.16.71.33,1.42A0,0,0,0,0,12.54,30.11Zm-.77-4.2a14.09,14.09,0,0,0,.19,1.7A11.07,11.07,0,0,0,12.71,31l0,.16s0,0,0,0A5,5,0,0,0,13.09,33a.64.64,0,0,0,0,.07A19.87,19.87,0,0,1,11.77,25.92Zm1.45,7.46.09.21s0,0,0,0l.07.2-.07-.17C13.27,33.55,13.24,33.47,13.22,33.38Zm1.43,3.05s0,0,0,0a18.41,18.41,0,0,1-1.24-2.57v0c0,.06.12,0,.1-.06a10.24,10.24,0,0,1-.59-1.88l.08.3a0,0,0,0,0,0,0q-.12-.48-.24-1s.06,0,.05,0l-.17-.49a13.42,13.42,0,0,1-.3-2.07s0,0,0,0c0,.36.06.72.11,1.08q-.14-.59-.27-1.18A20,20,0,0,1,12.38,24a0,0,0,0,0,.06,0,15.3,15.3,0,0,1,.81-3.46,11.78,11.78,0,0,1,2-2.79c-.14.26-.29.52-.41.79,0,0,0,0,0,0a16,16,0,0,0-1.57,4.93,0,0,0,0,0,0,0s0,.1,0,.15v0h0a25.72,25.72,0,0,0,.49,6.26c0,.4.09.79.14,1.18-.39-1-.74-2.09-1.08-3.15A10.23,10.23,0,0,1,13,22.39s-.05-.07-.07,0a8.8,8.8,0,0,0-.47,4.79l-.12-.36c0-.46,0-.92-.06-1.38h0c0,.45,0,.9.06,1.34l-.08-.24s0,0,0,0l.1.34c0,.49.06,1,.11,1.48h0c0-.48-.08-1-.11-1.43l.15.51c.14.91.33,1.81.52,2.69,0,.06.09,0,.08,0-.11-.56-.22-1.13-.32-1.71l.31,1s0,0,0,0c.07.74.16,1.5.27,2.27A11,11,0,0,0,13.85,34l-.18-.41a3.11,3.11,0,0,1-.2-1,0,0,0,0,0-.08,0,2.47,2.47,0,0,0,.06.41l-.19-.49s0,0,0,0l.26.67A6,6,0,0,0,14,34.45l0,.18c-.24-.51-.47-1-.67-1.54,0,0-.07,0-.05,0,.1.27.22.52.33.78h0c.22.59.46,1.18.73,1.75l0,0s-.05,0,0,0c.19.38.4.75.61,1.12h0l.11.2.12.22a15.24,15.24,0,0,0,1.46,2.12,1.91,1.91,0,0,0,.16.29l-.09-.09c-.39-.54-.8-1.06-1.18-1.61h0c-.25-.39-.48-.78-.7-1.17,0,0,0,0,0-.05Zm-.9-6.7c0-.48-.07-1-.1-1.45a24.19,24.19,0,0,0,.64,3.53c.07.34.15.68.24,1-.22-.48-.42-1-.61-1.47,0-.22-.06-.43-.08-.65l0,.09s.08,0,.07,0C13.87,30.42,13.81,30.07,13.75,29.73Zm.59,1.89c.06.34.15.67.23,1l-.05-.15Q14.42,32,14.34,31.61Zm.82,1.13a9,9,0,0,0,.21,1.1c-.14-.48-.27-1-.37-1.45ZM15.75,35a7.22,7.22,0,0,0,.43.86l-.25-.37,0,0Zm1.1.85c.08.19.19.37.28.55l-.06,0c-.08-.19-.15-.39-.23-.58Zm0,0,0-.06,0,.06Zm-3.2-3.11a13.43,13.43,0,0,1-.24-1.54s0,0,0,0q-.13-.87-.22-1.74c.24.74.48,1.48.76,2.2v.06l-.08-.2s0,0,0,0l.14.36c0,.35.08.69.13,1,0,0,.06,0,.05,0,0-.27-.06-.54-.1-.81l0,0c.12.58.26,1.15.41,1.71l-.05-.12s0,0,0,0,.07.15.1.23q.18.61.39,1.21a10.6,10.6,0,0,1-1.13-2.76s-.07,0-.06,0A10.92,10.92,0,0,0,15,35.61,12.86,12.86,0,0,0,15.44,37c-.24-.37-.46-.76-.67-1.16a0,0,0,0,0,0,0c-.09-.15-.18-.3-.26-.45l-.14-.27a14.86,14.86,0,0,1-.72-2.29ZM15,34.14a13.74,13.74,0,0,0,1.09,2.28l.09.23A17.43,17.43,0,0,1,15,34.14c0-.06,0-.12,0-.18s0,0,0,0l-.08-.2s0,0,0,0l.09.22h0s0,.09,0,.13q-.36-1-.76-1.94l0-.07A22.32,22.32,0,0,0,15,34.14Zm0,.69.14.41c-.14-.23-.27-.47-.39-.72-.22-.65-.41-1.31-.58-2,.28.75.55,1.51.82,2.27Zm0-.27c0-.09,0-.18-.06-.26a17.51,17.51,0,0,0,.79,1.7s-.06,0,0,0l.1.19-.23-.3c-.07-.12-.14-.24-.2-.37Zm1.21,3s0,0,0,.07l-.13-.27s0,0,0-.05Zm.14-.2,0-.15c.1.17.22.33.32.49a5.31,5.31,0,0,0,.57,1.21,3,3,0,0,1-.22-.26c-.12-.21-.23-.42-.36-.63a0,0,0,1,0,0,0l.06.12a4,4,0,0,1-.29-.75l0,0s0,0,0,0S16.43,37.38,16.4,37.36Zm-.14-.5h0c.1.16.18.32.28.47l0,.06v.07C16.49,37.25,16.37,37.05,16.26,36.86Zm2.21,1.93,0,0,0,0,0,0h0Zm.91-.51h0Zm-1.92,1.3h0Zm.22-.28,0,0h0Zm.87.2,0,0,0,.05,0,0Zm-.3.18-.06.08h0l0-.06s0,0,0-.05a0,0,0,0,0,0,0h-.07L18,39.53l.11,0A1.74,1.74,0,0,0,18.25,39.68ZM18,39.8l0-.06,0,0-.07,0Zm0,.09h0v0l.09,0Zm0-.48-.11,0-.06-.1L18,39.3Zm.7-.15a.07.07,0,0,0,.11,0l-.13.11C18.75,39.35,18.75,39.3,18.76,39.27Zm.41-.47h0Zm0-.07v0h0v0Zm-1.61.13h0Zm.13.13.14.12.05.1-.08,0-.06-.1C17.75,39.1,17.73,39,17.72,39Zm.58.78h0Zm.05,0v0l0,0,0,0Zm.15-.11a.54.54,0,0,1,0-.07l0,0h0A.07.07,0,0,0,18.51,39.63Zm.59-1.07h0s0,0,0,0Zm-.7.92h0l0,.06-.1-.12.08,0Zm-.2-.14,0-.07a0,0,0,0,0,0,0l.07.06h0v0ZM18,38.82c0-.06,0-.12-.06-.18l.12.23Zm.58.91h0l0,0,0,0v0Zm.84-1h0v0Zm-.22-.26s0,0,0,0Zm.25.29h0Zm-1,.39,0-.08h0Zm-.44-.66,0-.05s0,0,0,0l0,.07Zm-.54,1,0,0,0-.09.08.11Zm0,.23.05.05.07.12h0l-.08-.12Zm2.1-1,0,0s0,0,0,0ZM18.29,39h0l-.3-.46h0c.07.11.14.22.22.32Zm-1.06.16h0s0,.06,0,.09L17.1,39l0-.06h0s0-.06,0-.09l.18.25Zm.59.8h0l.05.09a.08.08,0,0,0,0,0h0Zm1.65-1.29s0,0,.06,0h0v0Zm0-.21h0l0,0v0Zm-1.84-.61,0,.11-.07-.16Zm-.09.42a2,2,0,0,1-.08-.24,0,0,0,0,0,0,0h0a2.51,2.51,0,0,1-.07-.28l.24.63ZM17,38.8h0v0l-.15-.27Zm.42,1.36h0v0h0Zm.19.18h0v0h0Zm0,0h0l.05,0h-.05Zm1.49-2h0a0,0,0,0,0,0,0v0l0-.08,0,0Zm-.22.37-.05,0h0l0-.05Zm-.16.16h0Zm-1.16-1.19-.08-.09-.16-.38.07.06C17.45,37.46,17.51,37.59,17.57,37.73Zm-.25-.28h0l0,0h0Zm0,0v0Zm.07.18,0,.07a0,0,0,0,0-.06,0s0-.09,0-.13Zm-.15-.11,0-.08,0,0S17.22,37.45,17.22,37.47Zm-.08.13s0,0,0,0v-.06s0,0,0,0L17,37.42l.06,0C17.09,37.45,17.11,37.53,17.13,37.6Zm-.3-.14,0-.05,0,0Zm.54,1.62s0,.09,0,.14l-.22-.33.06.07a0,0,0,0,0,0,0Zm-.53-.17-.2-.3-.12-.33.08.12C16.68,38.57,16.76,38.74,16.84,38.91Zm.34.84h0l0,0h0Zm.43.65h0a.15.15,0,0,0,0,0h0ZM19,38.23l0,0,0-.14Zm-.16.48,0,0,0,0,0,0Zm-.16.17h0l0-.06h0Zm-.06.09,0,.06-.07-.11,0,0Zm-1.39-1.71a0,0,0,0,0,0,0s0,0,0,0h0l0,0Zm0,.06s0,0,0,0l0,0h0Zm-.15.06-.06,0c0-.1-.09-.2-.13-.31l.06.07s0,0,0,0l.06.06C17,37.27,17.06,37.32,17.08,37.37Zm-.4-.52v0l0,0s0,.07,0,.06l0,0c0,.14.07.28.12.43l-.06-.07c-.09-.19-.19-.37-.28-.56l.07,0Zm.07,1.56v0h0Zm-.31-.53,0,.14-.13-.2s0-.07,0-.11ZM17,39.4c0,.08.06.15.09.23l0,0L17,39.52c0-.06,0-.13,0-.19Zm1.62-1.72c0,.1,0,.2.05.3l-.1-.2s0,0,0,0l0-.12Zm-.08,0-.1-.22.06.07S18.57,37.64,18.59,37.68Zm.21.94,0,0h0l0,0Zm-.19.13h0l0,0h0Zm-.21,0-.14-.2,0,0,.17.22Zm-.31-.78.18.26,0,0h0l0,.06,0,0Zm-.82-.7,0,0-.07-.09s0-.1,0-.14l.11.12Zm-.05,0h0l0,0v0ZM17,37.11l-.19-.21v0h0l.16.2Zm-.21-.3v0Zm-.34-.09-.11-.26.18.22Zm-.2.11h0l-.08-.15.05.07Zm-.14-.05q-.2-.31-.39-.62l.18.23Zm0,.13,0,0h0l0,0,.11.16a0,0,0,0,0,0,0l0,.09,0,.16a1,1,0,0,1-.22-.23s0,0,0,0a1.77,1.77,0,0,0,.25.27,4.38,4.38,0,0,0,.17.55v0l0-.06h0l-.17-.29s0-.05,0-.08,0,0-.05,0l-.17-.29c0-.06,0-.11,0-.17A0,0,0,0,0,16,37s0,0,0,.06L16,36.9s0,0,0,0L15.58,36Q15.84,36.48,16.14,36.92Zm-.22,0,.13.24v0L16,37Zm.35,1.11.06.14L16.27,38Zm.64,1.17s0,0,0,0,0,.08,0,.13c-.13-.18-.27-.36-.39-.54.1.09.19.2.3.29Zm-.51-.51,0,0,0,0Zm-.64-.95,0,.07c-.14-.18-.27-.37-.39-.56l.32.38Zm.3.61,0,0,0,0Zm1.79,1.88h0v0h0v0s0,0,0,0l0,0Zm1.89-1.75h0v0l0,0Zm-1.19-1.33,0,.06,0-.06v-.06Zm.22,1.39,0,0v0l0,0Zm-.27,0-.17-.28,0,0,0,.05.13.23Zm-.58-1.22c-.08-.15-.17-.29-.24-.44l0,0C17.78,37.11,17.85,37.26,17.92,37.41Zm-.65-.59h0l-.07-.14,0,0Zm.07.27,0,.07-.09-.09c0-.1-.08-.21-.11-.31a0,0,0,0,0-.06,0c0,.06,0,.11.06.17l-.06-.06,0-.14.08,0C17.21,36.84,17.28,37,17.34,37.1ZM17,36.92V37l-.14-.18,0,0Zm-.16-.11,0,0,0-.08.09.1Zm-.22-.26,0,.08c-.1-.14-.2-.28-.3-.42h0c.08.11.15.23.23.34S16.6,36.55,16.61,36.55Zm-.09.05c-.07-.09-.15-.18-.22-.27l0-.07h0Zm-.27-.38h0Zm-.34-.33-.12-.25,0,.07Zm.15.62v0l0,0Zm-.86-1.16c.15.42.31.84.46,1.26l0,0h0a16.45,16.45,0,0,1-.76-1.76C15,35,15.11,35.18,15.22,35.36Zm-.08.44a12.73,12.73,0,0,0,.69,1.41l.22.42s0,0,0,0a3.36,3.36,0,0,0,.47,1c-.12-.13-.25-.25-.37-.39L16,38a0,0,0,0,0,0,0l.06.08s.11,0,.08-.06c-.19-.25-.36-.51-.53-.77s-.23-.58-.32-.88c0,0,0,0,0,0-.06-.2-.12-.41-.17-.61Zm0,1.06-.09-.19.25.39Zm2.76,3.54h0l.2-.09,0,0Zm1.82-2.08s0,0,0,0l.05-.08,0,0Zm-.44-.07v0l0,0ZM18.42,37l-.12-.18.11.11Zm.1,1.11a2.89,2.89,0,0,0,.18.34l0,0c-.09-.17-.17-.34-.25-.51Zm-.83-1.24,0,0,0,0,0-.08h.06Zm-.5-.42h0s0,.09,0,.13l0,0-.1-.25.06,0Zm-.06.19-.06,0s0-.09,0-.13-.1-.06-.09,0,0,.12,0,.17h0l-.17-.19.23-.13Zm-.82-.49-.17-.25,0,0,.2.29Zm-.55-.68-.08-.13h0c-.09-.18-.18-.36-.26-.54.08.16.18.32.26.48ZM14,31.85h0v0Zm2.27,7.2.1.13Zm.81,1.09h0l0,0ZM18,36.86h0Zm0,.19c0,.09.06.19.09.28l.08.25,0-.1a.08.08,0,0,0-.09,0c-.08-.18-.16-.35-.25-.52v0H18C18,36.93,18,37,18.06,37.05Zm-.59-.56.17.34h0l-.15-.32ZM17,36.42l-.23.13-.06-.08c0-.05,0-.1,0-.16s-.05,0-.09,0l-.14-.19.33-.27C16.88,36,16.94,36.23,17,36.42Zm-2.29-3.19-.05-.1h0l0-.09Zm5.2,4.63v.07s0-.06,0-.09Zm-.8-.1c0,.08.07.17.11.24l-.06-.07c0-.05,0-.1-.05-.16S19.13,37.77,19.13,37.76Zm-1.16-1,0,0-.06-.1,0,0Zm0,0h0l0,.07h0l0-.06Zm0,.1h-.08l.06,0Zm-.47-.38h0c-.13-.27-.27-.54-.39-.82h0C17.18,35.91,17.31,36.18,17.45,36.45ZM17,35.62c-.09-.22-.17-.45-.26-.67.09.22.18.44.28.65Zm-.72-1.7-.11-.32,0-.12C16.22,33.63,16.26,33.77,16.31,33.92Zm.48,1.76-.08-.19,0,0S16.77,35.63,16.79,35.68Zm0,.13-.34.27a7.87,7.87,0,0,1-1.22-3.2c.32.66.67,1.31,1,1.94a0,0,0,0,0,.06,0l.25.44Zm-1.32-2.76.23.44.07.16ZM15,32.7l-.22-.65s-.07,0-.05,0c.15.45.29.9.43,1.35s.23.86.36,1.28c-.15-.26-.29-.52-.43-.79L15,33.79a14.58,14.58,0,0,1-.62-2.19s-.06,0-.05,0a18.31,18.31,0,0,1-.27-2.09,12.92,12.92,0,0,0,.82,2.62,0,0,0,0,0,0,0C14.89,32.36,14.94,32.53,15,32.7ZM14.88,21c-.05.37-.1.73-.12,1.11,0,0,0,0,0,0,0,.28-.07.56-.11.84a17.8,17.8,0,0,0-.43,1.75A15.16,15.16,0,0,1,14.88,21ZM16,18.13c.17-.33.35-.65.54-1a13.74,13.74,0,0,0-.87,2C15.77,18.83,15.88,18.48,16,18.13Zm-.66,2.2a9.64,9.64,0,0,0-.2,1.38l-.19.51C15.06,21.59,15.19,21,15.34,20.33Zm.91-2.9c.06-.17.11-.33.18-.5,0,0,0,0,0,0-.08.2-.14.4-.21.6-.26.47-.51,1-.73,1.45l.09-.34c0-.13.1-.25.15-.38h0a13.5,13.5,0,0,1,1-1.88l.19-.15s0-.07,0-.05l-.07.05.38-.57h0l0-.05a19.5,19.5,0,0,1,1.22-1.53q.59-.53,1.2-1c-.17.17-.33.34-.49.51A19.2,19.2,0,0,0,16.25,17.44Zm4.89-5.11c-.16.2-.32.4-.48.6l.22-.34Zm-.43,1.08c.13-.15.26-.3.4-.44l-.06.08Zm.62-.65.1-.09h0l-.11.11Zm.64-.44c-.11.14-.2.28-.3.42l-.06,0Zm.4-.14.23-.29-.16.3-.1.07Zm.45-.57L23,11.4s0,0,0,0l0,0-.11.12s0,.05,0,0h0l-.17.37-.17.12C22.65,11.93,22.74,11.77,22.82,11.61Zm.4,0h0l.21-.29.07-.06q-.44.55-.85,1.13c.18-.26.37-.5.55-.76Zm.64-.64,0,0-.08.08Zm1-1.25L25,9.69,25,9.64ZM17.64,40.7h0Zm0,0h0ZM19,37.53v0c0,.05,0,.1,0,.15l0-.07a1.94,1.94,0,0,1-.11-.25l.13.1Zm-.64-.85-.1-.2.06-.05Zm-.11-.06-.06-.08h0Zm-.5-.3,0,0,0,0,0,0Zm0,.16,0,.05.14.23-.06.05h0l-.18-.46h0Zm-.21-.2-.08-.15h0l-.27-.57.06,0h0Zm-.33-.8-.06,0c-.17-.38-.33-.77-.47-1.17h0Q16.91,34.95,17.19,35.5Zm-1.11-2.55L16,32.7l.11.33Zm0,.14v0Zm-1.46-6.84c0,.07,0,.14,0,.21l0-.11Zm.16-2.83,0-.11c0,.37-.07.74-.09,1.11C14.68,24.07,14.7,23.74,14.73,23.41Zm1.83-6.28a19,19,0,0,1,1.67-2.35,0,0,0,0,0,.06,0,7.89,7.89,0,0,0-.5,1,8.27,8.27,0,0,0-1,1.94q-.2.44-.37.89A22.21,22.21,0,0,0,15.3,21.3a11.94,11.94,0,0,1,1.34-4.12S16.58,17.08,16.56,17.13Zm1.07-.91-.09.16Zm-.17.6h0l-.09.16Zm.42-1a10.22,10.22,0,0,1,.83-1.09,12.87,12.87,0,0,0-.85,1.13Zm2.6-2.74s0,0,0,0l.07-.11.24-.27-.24.39c-.32.43-.62.87-.91,1.33.24-.44.51-.85.79-1.27Zm1-.15.07-.06h0l-.1.1Zm.37-.18.27-.3.08-.06-.05.13v0c-.18.18-.36.37-.52.56Zm.48-.45.07,0,0,.06-.07.07,0-.06S22.34,12.31,22.33,12.31Zm.19-.15,0,0,0,0Zm0,.07c-.15.22-.28.44-.42.66l.27-.52Zm1-.8.23-.3s0,0,0,0l-.23.3Zm2.7-2.84,0,0h0ZM27.86,6.8,28,6.63l.39-.27-.26.23ZM29.3,5l-.42.25h0l-.36.21L29.37,5ZM19.8,37.41l-.06-.09,0-.08s0-.1,0-.15C19.73,37.19,19.76,37.3,19.8,37.41Zm-.07.18.06.08c0,.06,0,.12,0,.18l-.11-.25S19.72,37.61,19.73,37.59Zm-.1.33h0l-.07-.1-.45-1s0,0,0,0c-.1-.3-.22-.6-.32-.9V35.8a6,6,0,0,1,.29.53s0,0,0,0A10.81,10.81,0,0,0,19.63,37.92Zm-.82-1.48h0s0-.09,0-.13S18.8,36.4,18.81,36.44Zm.13.88-.12-.11c0-.06,0-.12,0-.19l.11.17h0Zm-.73-1.39.07.2,0,.28-.06.05-.2-.43Zm0,.59h0l-.12-.16s0-.1,0-.15a0,0,0,0,0-.08,0v-.08l.06,0Zm-.8-1a7,7,0,0,0,.31.73l0,0a6.74,6.74,0,0,1-.31-.82Zm0,.19-.12-.25h0l0,0C17.33,35.54,17.36,35.63,17.4,35.72ZM14.83,23c.09-.35.17-.69.28-1l0-.06a8.8,8.8,0,0,0,0,1c0,.09,0,.19,0,.28-.17.7-.32,1.41-.45,2.12A21.76,21.76,0,0,1,14.83,23Zm.71-2.26c.23-.59.48-1.17.75-1.74-.07.2-.12.4-.18.61C15.91,20,15.72,20.39,15.54,20.77Zm1.09-2.21h0l.05-.17c.12-.29.25-.57.38-.85l.33-.58a8,8,0,0,0-.16.91c-.31.42-.59.85-.86,1.3C16.47,19,16.55,18.76,16.63,18.56Zm.94-1.87q.4-.65.82-1.28s0,0,0,0q-.39.58-.76,1.17l0-.08A13.15,13.15,0,0,1,18.8,14.8c-.09.19-.17.38-.24.57,0,0,0,.05.05,0,.12-.29.26-.57.41-.86s.26-.28.39-.42a4.94,4.94,0,0,0-.36.61,0,0,0,0,0,.08,0,14,14,0,0,1,1-1.3,9.88,9.88,0,0,0-.72,1.17s0,0,0,0c.1-.19.22-.37.34-.55-.14.24-.26.49-.39.73s-.44.77-.65,1.16l-.3.5a15.64,15.64,0,0,0-1.07,1.26A8.47,8.47,0,0,1,17.58,16.68Zm2.48-3.06-.07.11Zm0,2.15c0,.12-.07.24-.11.36l-.15.27Q19.9,16.08,20,15.78Zm1.14-2a11.16,11.16,0,0,1,.71-.89c-.49.73-1,1.46-1.4,2.21A13.72,13.72,0,0,1,21.18,13.8Zm1.05-1.24-.08.14,0-.11Zm-1.61,2.79a8.67,8.67,0,0,1,.53-1l-.22.45Zm-.16.36h0l.16-.26s0,0,0,0l-.31.5C20.39,15.88,20.43,15.8,20.47,15.71ZM23.11,12l.07-.1,0,.05,0,0Zm.79-.94,0,0-.3.42Zm2.2-2.36L26,8.86l-.07.08.15-.2Zm0,.12h0s0,0,0,0l0,0L26,9l-.37.36s0,0,0,0l-.15.15L25.9,9Zm.49-.56,0,0h0ZM31,4.12h0ZM13.72,40.72l-.24-.13-.11-.11s0,0,0,0l.07.06-.12-.07.24-.11a4.81,4.81,0,0,0,.4.37l-.15-.09s0,0,0,0l.26.16.09.1s0,0,0,0l0,0a3.47,3.47,0,0,0,1.25.6c-.22,0-.45.07-.67.09a6.42,6.42,0,0,1-1-.8h0S13.75,40.74,13.72,40.72Zm-.64.13h0l.1.1h0l-.37-.24.11,0,.18.18ZM6.89,39s0,0,0,0l0,0a1,1,0,0,0,.29.11,5.43,5.43,0,0,0,.48.48h0Q7.25,39.27,6.89,39ZM4.22,35.79h0l-.13-.23.26.32s-.05,0,0,.05L5,36.7a.06.06,0,0,0,0,.08Q4.59,36.3,4.22,35.79ZM1.88,31.2l-.41-1.12-.08-.3c.11.3.23.59.34.89s.12.38.19.57c0,0,0,0,0,0l.08.2H2ZM4.5,36.68c-.16-.24-.32-.47-.5-.69H4l-.18-.26-.13-.19h0l-.28-.4-.22-.39a.08.08,0,0,0,.06-.11c-.33-.53-.69-1-1-1.58a.08.08,0,0,0,0-.08A3.33,3.33,0,0,1,2,32.52l0,0-.18-.35h0c-.08-.18-.16-.37-.24-.55h0v0a.07.07,0,0,0-.05,0q-.14-.44-.26-.89a12.73,12.73,0,0,0,1.52,3.14l.11.27s.05,0,.07,0L3,34.2q.45.86,1,1.68c.17.29.34.58.52.87ZM3.92,16.23l-.11.18-.33.46q.2-.31.42-.62ZM1.85,20.52c0-.06,0-.11.05-.17s.17-.36.27-.54A21.23,21.23,0,0,0,1.56,22h0a0,0,0,1,0,0,0s0,.1,0,.14l-.06.2c0-.24.06-.47.08-.71l0-.12c.06-.23.1-.46.18-.69,0,0,0,0,0,0h0l.09-.18S1.84,20.54,1.85,20.52Zm.46,2.15c0,.32,0,.65,0,1,0,.15,0,.29-.07.44,0-.44,0-.88,0-1.31Zm.61-1.16v.07h0Zm-.09.08h0c0-.18.11-.35.16-.53,0,0,0,.09,0,.14S2.86,21.46,2.82,21.59Zm.08,0a20.53,20.53,0,0,0-.13,2.92,11.54,11.54,0,0,0,0,1.82H2.63c-.11-.87-.19-1.73-.24-2.6.13-.73.3-1.45.5-2.16Zm.38,2a17.09,17.09,0,0,0,.14,2.7h0c-.06-.36-.1-.71-.13-1.07,0,0,0,0,0,0,0,.36.07.72.13,1.08l-.25,0A16.46,16.46,0,0,1,3.29,23.55ZM9.08,35s0,0,0,0c.32.43.65.86,1,1.28s.58,1,.9,1.53l-.15.09-1-1.24h0l1,1.24-.3.15h0L9.25,35.93l.3-.18s0-.05,0,0l-.3.18-.66-1.13.24-.15.18.24Zm1.34,1.66c.28.33.56.67.85,1l-.2.12C10.85,37.4,10.63,37,10.42,36.66Zm1.67,2.85c-.14-.15-.27-.31-.4-.48s-.07,0-.05,0l.23.28q-.57-.45-1.11-.93l0,0,0,0c.05,0,.13,0,.08-.08l-.26-.23.29-.15c.46.59.94,1.16,1.44,1.72Zm.55,1.7-.39-.05-.18-.06-.25-.16h0l0,0s.06,0,.05,0h0l.28.13s0,0,0,0l0,0h0Zm-2.72-.53.62.34a0,0,0,0,0,0,0L9,40c-.28-.21-.55-.43-.81-.66,0,0,0,0,0,0-.33-.28-.65-.56-1-.85L7,38.13a9.94,9.94,0,0,0,2.68,2.11l.29.19c-.16-.1-.33-.18-.49-.29s-.05,0,0,0a8.49,8.49,0,0,0,1.17.67s0,0,0,0a5.49,5.49,0,0,0,.45.33l-.6-.19ZM5.64,37.42l.09.09.07.08h0s0,0,0,0h0l0,0,.25.28,0,0a6.54,6.54,0,0,1-.58-.58C4.76,36.5,5.43,37.23,5.64,37.42ZM1.57,26.11c0,.1,0,.21,0,.31H1.45c-.08-.38-.14-.76-.19-1.13A18.67,18.67,0,0,1,1.46,23l.06-.19q0,.59,0,1.17c0-.06,0-.11,0-.17s-.09-.06-.09,0Q1.47,25,1.57,26.11Zm.57.34H2.2c0,.1,0,.2.07.3,0,.53.1,1.06.2,1.59,0,0,0,0,0,0-.08-.47-.14-.93-.18-1.4l.08.35q.12.82.29,1.64s-.07,0-.05,0l.13.36c0,.22.08.44.14.66a0,0,0,0,0,0,0c0-.16-.07-.32-.1-.47l.4,1.1.11.37c-.11-.22-.23-.43-.33-.65,0,0,0,0,0,0,.12.26.25.5.38.75s.08.27.12.4,0,.09,0,.14A13.91,13.91,0,0,1,2.22,27s0,0,0,0c0,.21.05.4.08.61,0-.33-.09-.66-.13-1h0Zm0-1.43v.06S2.11,25,2.11,25Zm0,.29c0,.26.06.52.09.79,0,0,0,.07,0,.11,0-.28-.07-.57-.09-.85Zm.1-.39q0,.51,0,1c0-.23-.05-.46-.08-.69s.05-.33.08-.5C2.23,24.81,2.24,24.87,2.24,24.93Zm0-.48h0ZM3.47,30s0,0,0,0q.13.38.26.75c-.26-.5-.49-1-.7-1.51-.18-.95-.32-1.89-.44-2.84h.12a14.53,14.53,0,0,0,.64,3.28Zm2.4,4.18-.21.1q-.41-1.06-.71-2.14a21.47,21.47,0,0,0,1,2l0,0c-.22-.39-.43-.78-.62-1.19,0,0,0,0,0,0C5.46,33.43,5.66,33.83,5.87,34.22Zm.73-.32c.1.21.19.43.3.65h0c-.11-.21-.2-.43-.3-.65l.23-.11c.19.36.39.7.61,1l.23.44-.29.19L7,34.92c-.15-.34-.3-.68-.44-1Zm1.9.83L8.12,35q-.38-.72-.7-1.48l.31-.17C8,33.8,8.24,34.26,8.5,34.73Zm-.74-1.42.12-.07c.29.45.59.89.9,1.32l-.24.15C8.27,34.25,8,33.78,7.76,33.31Zm2.08,5.08-.13,0-.07-.07s0,0,0,0q-.46-.54-.91-1.1.52.58,1.08,1.12Zm.67,2.24.2.17-.5-.27.16.08s.07,0,0-.05c-.28-.13-.54-.28-.8-.43s-.26-.16-.39-.25a0,0,0,0,0,0,0l-.46-.31s0,0,0,0l-.31-.29A8.74,8.74,0,0,0,9.51,40s.06,0,.06,0c.31.19.62.37.94.54A.05.05,0,0,0,10.51,40.62Zm.41.36,0,0L11,41Zm-6-4.74L4.78,36c.11.16.21.32.33.48h0ZM.91,28s0,0,0,0l-.07-.24c0-.22-.08-.43-.11-.65l.2.76V28S.92,28,.91,28ZM1,28.2v0S1,28.22,1,28.2Zm.4-6.25c0,.2-.07.4-.11.6s-.05.3-.08.45a14.62,14.62,0,0,1,.3-1.74l.06-.16v0C1.5,21.4,1.43,21.67,1.38,21.95Zm1.07,5.64c.08.29.17.58.27.87.08.45.17.9.28,1.34l-.28-.74C2.62,28.57,2.53,28.08,2.45,27.59Zm.49,1.33a20.08,20.08,0,0,1-.37-2.42Q2.72,27.73,3,29Zm.48,1.28h0c.21.57.43,1.13.67,1.69-.26-.56-.51-1.12-.74-1.7,0,0,0,0,0,0,.3.77.65,1.52,1,2.26.15.34.31.69.47,1-.33-.53-.66-1.06-1-1.61a19.21,19.21,0,0,1-.76-2.41l0,0C3.2,29.7,3.3,30,3.42,30.2ZM6.34,36l-.09,0-.12-.21s0,0,0,0l0-.05q-.42-.75-.82-1.5L5.7,35l.4.78s0,0,.05,0Zm.31.28L7.2,37h0c-.18-.23-.36-.46-.53-.7ZM7,33.82,7.1,34v0Zm1,1.29.34.45c.12.21.25.41.37.62l-.06,0c-.28-.32-.55-.66-.8-1Zm0,0,0,0,.12.24Zm.5,1.24h0c.14.17.3.33.45.49l-.41-.4Zm0,0L8.4,36.1l.15.19Zm.17,0,.05,0,.15.25Zm.51.55.06,0,.3.4Zm0,0-.1-.11-.29-.48h0l.43.56Zm-.41-.63L8.68,36l.12.16Zm-1-.92,0,0-.1-.19Zm0,.05.14.2c.18.29.36.57.55.86l-.1.06c-.21-.36-.42-.72-.62-1.09Zm.56,1.13-.17.1q-.38-.49-.73-1l.28-.18C7.9,35.69,8.11,36,8.33,36.41Zm.26.78-.23.16L8.3,37.3l-.05-.06-.31-.56.19-.11.48.6h0L8.44,37s0,0,0,0ZM11,40a7.49,7.49,0,0,0,.63.54l-.3-.18L11,40.12l-.16-.21Zm0,.72c-.12-.07-.24-.16-.35-.24s0,0,0,0l-.37-.34c.29.15.57.3.86.44l.24.32h0Zm0-.28c-.32-.15-.64-.32-1-.49l-.17-.16-.41-.43c.45.29.9.56,1.36.82l.13.18-.29-.22s0,0,0,0ZM3,33.37l-.05-.13.18.24v0a.05.05,0,0,0,0,.06l.08.12a4.49,4.49,0,0,0,.32.61l-.05-.07-.31-.5Zm.72.23.07.16s0,0,0,0l.28.55,0,.08v.05l-.12-.17-.27-.43a3.23,3.23,0,0,0-.31-.71,0,0,0,0,0-.06,0c-.11-.24-.21-.49-.31-.73a0,0,0,0,0,0,0l0-.11c.2.44.42.88.66,1.32C3.66,33.65,3.69,33.63,3.69,33.6Zm.47.2.08.15h0l.12.21-.28-.38s0-.09,0-.13ZM1.62,29.57l-.22-.7s0,0,0,0,0-.29-.06-.44q.15.69.33,1.37ZM.84,24s0,.08,0,.12c0,.23,0,.45-.05.68l0,.17v-.12C.78,24.55.8,24.27.84,24ZM1,26.71H1l0-.08H1A13.47,13.47,0,0,1,1,24.85c0,.07,0,.15,0,.22q0,.49,0,1s0,.1,0,.15H1c0,.21,0,.43,0,.64Zm.06-2c0,.13,0,.26,0,.38C1.1,24.93,1.1,24.8,1.1,24.67Zm.05,3,.05.42c0-.13-.06-.26-.08-.39S1.15,27.68,1.16,27.67Zm1.1,3.64.27.59c0,.11,0,.22.08.32h0l-.2-.44Zm3.88,5,.12.17a0,0,0,0,0,0,0l.44.53c-.24-.25-.47-.51-.69-.77h0ZM6,36.19,5.84,36l.19.19Zm-3.2-3.6-.06-.1h0Zm3.73,4.72-.43-.46L6,36.69l.54.62Zm0,0,0,0,0,0Zm-.78-1,.15,0c.17.29.36.58.55.86Zm-.48-.57,0-.05,0,0Zm.23.37.11.18h0l-.24-.26h0l-.07-.16Zm-.34-.36L5,35.49l.16.18Zm0,0,0,.09,0,0-.48-.6s0,0,0,0L4.6,35l.37.43Zm-.78-1-.07-.17.32.46Zm-1.52-2.4,0,.11,0-.11Zm-.09-.12,0,.1h0l.16.37-.15-.29-.14-.31,0-.14Zm.17.57s0,0,0,0l-.05-.08-.16-.28a.06.06,0,0,0,0,0Zm3.45,5-.08-.14,0,0,.17.21.09.12h0Zm-.59-1a0,0,0,0,0,.06,0l.33.4L5.91,37Zm.26-.42q.34.39.69.76l-.12,0C6.48,37,6.29,36.73,6.11,36.45Zm.51.33.36.34-.06,0Zm-.74-.83-.17-.18-.15-.25Zm0,.25,0,0-.16.05h0c-.17-.27-.35-.53-.52-.81l.28.38s.08,0,.07,0ZM4.16,33.52l0,0v0Zm.75,1.58.17.41-.38-.43-.35-.5c-.08-.19-.15-.38-.22-.57V34l.59.8Zm-1-1.66,0-.09,0,0ZM2.84,32l-.19-.52.13.31Zm-.92-2.31c.1.33.21.65.32,1s.15.61.22.92c-.14-.3-.28-.6-.41-.91s-.16-.45-.24-.67q-.27-1-.48-2c0-.29-.07-.59-.09-.89A10.39,10.39,0,0,0,1.92,29.73ZM1.4,27.8c.1.45.22.9.34,1.34A10.49,10.49,0,0,1,1.4,27.8Zm-.31-4.93h0c0,.11,0,.22-.07.33q0-.18,0-.37c0-.12.05-.24.08-.36C1.11,22.61,1.09,22.75,1.09,22.88ZM3,33.23l-.05-.06h0l0-.13Zm.66,1.1.29.46-.38-.46A.06.06,0,0,0,3.62,34.33Zm3.11,3.89-.09-.1h0l.11.15Zm0-.11.24.25a0,0,0,0,0,0,0Zm-.62-.84,0-.08.24.22-.06,0Zm1,.56c-.15-.17-.27-.36-.41-.54l.12,0,.62.63-.2.09Zm0-.4-.2-.25.06,0c.22.21.44.42.67.62l-.15.07s0,0,0,0Zm1.63.69.05,0c.12.13.23.27.35.4h0l-.3-.34Zm.43.49A19.19,19.19,0,0,0,10.67,40c-.42-.24-.84-.49-1.26-.75l-.28-.31c.34.26.68.51,1,.75,0,0,.06,0,0-.05l-.53-.4s0,0,0,0l-.06,0s0,0,0,0c-.16-.16-.3-.34-.45-.51Zm-.37.1.06,0,.15.17Zm.73.4c-.22-.13-.42-.28-.63-.43H9l.2-.05C9.3,38.79,9.43,39,9.58,39.11Zm-1-.46.13.14-.12-.09h0l0-.07Zm1.7.85.16.12.07.1Zm-.92-.94h0l.38.35Zm0,0c-.22-.21-.44-.42-.65-.64l-.23-.25h0L9,38.1c.13.14.25.28.39.42ZM8,37s0,0,0,0l-.15-.15,0-.07a.06.06,0,0,0,.09,0L8,37Zm-.31-.28c-.17-.22-.35-.44-.52-.66h0c.15.2.31.4.47.59Zm-.54-.61h0Zm1.33,1.74.16.21.25.41a0,0,0,0,0,.06,0l0,0,.17.19-.21.06-.09-.07-.28-.31s-.05,0,0,0l.06.06-.24-.22L8.15,38l-.21-.31.25-.15ZM6.35,36.44a.06.06,0,0,0,0-.07l-.09-.13q.37.44.76.84ZM4.71,33.81A18.5,18.5,0,0,1,3.9,32q.5.88,1,1.74t.86,1.62C5.42,34.89,5.05,34.35,4.71,33.81Zm.4,1-.23-.3s0,0,0,0l.48.63.13.19a0,0,0,0,0,0,0c0,.09.11.18.15.27a12.19,12.19,0,0,1-.85-1.22l-.32-.84Q4.73,34.24,5.11,34.83Zm-1-1.43,0,0s0,0,0-.06l.07.18Zm.49,1.06h0c-.1-.16-.19-.34-.28-.5h0l-.21-.4v0C4.23,33.83,4.41,34.14,4.58,34.45Zm-.68-.91,0,0h0l-.15-.36-.13-.37h0l.21.37C3.81,33.26,3.85,33.4,3.9,33.54Zm-1.12-2v0l.22.55H3l-.24-.59-.2-.68c.28.79.59,1.58.92,2.35Q3.09,32.37,2.78,31.57ZM1.66,27.82l-.1-.4.1.36Zm.2,1.3v.06h0l.2.72h0a24.14,24.14,0,0,1-.68-2.35s0,0,0,0c-.06-.36-.11-.72-.13-1.09h0Q1.51,27.81,1.86,29.13Zm-.64-2.68s0-.05,0-.08v.08Zm0-2.12c0-.05,0-.11,0-.16s0,0,0,0,0,.18,0,.27c0-.11,0-.23,0-.34l.11-.4C1.23,23.9,1.23,24.11,1.21,24.32ZM1.16,22.7c0-.16,0-.32,0-.48,0,0,0,0,0,0s0-.26.05-.38l0-.08.06-.16C1.28,22,1.21,22.33,1.16,22.7Zm.24-1.3.06-.21,0,.15ZM.76,27.82.81,28l.05.32C.83,28.16.79,28,.76,27.82Zm0-1.08h0a.06.06,0,0,0,.06,0c0,.16,0,.31.05.47s0,.06,0,.08l-.13-.46S.72,26.79.72,26.75ZM3.25,34l.08.13,0-.06Zm.24.35.49.59.08.12c-.16-.18-.32-.37-.46-.56Zm1.87,2.45-.07-.07h0Zm1.7,1.76L7,38.4l.31.29.06.08Zm-.46-.68-.34-.39.07,0,.06.05c.14.2.29.4.44.6h0Zm.71.35c.13.14.27.27.4.4Zm2.25,1.75c-.26-.16-.49-.35-.72-.52S8.26,39,8,38.71l-.2-.2h0c-.18-.17-.35-.36-.52-.54l.2-.09h0l.26.32s0,0,0,0l-.24-.3s0,0,0,0l.17-.08,0,0c.19.2.39.39.59.57l.14.19-.19-.14s0,0,0,0l.26.19.06.08s0,0,.05,0l.27.2c.26.27.52.53.79.78-.24-.14-.48-.3-.71-.45A13.51,13.51,0,0,1,7.77,38.1s-.05,0,0,0c.29.33.6.63.93.93a9.79,9.79,0,0,1-1.06-.88s-.06,0,0,0A10.1,10.1,0,0,0,8.9,39.28a10.11,10.11,0,0,0,.91.71l.68.49c-.32-.16-.63-.33-.93-.52C9.56,40,9.57,39.95,9.56,39.94Zm.36,0,.19.16-.34-.24Zm1.4.58.14.11-.08,0Zm-1-1.14c-.3-.27-.61-.54-.89-.82h0c.31.28.63.55,1,.81C10.39,39.34,10.37,39.34,10.35,39.37Zm-.93-.86-.13-.13.14.13Zm-.8-1.3,0,0,0,0Zm-1.3-1.71h0l0-.07Zm-.09-.16,0-.07.12.18Zm.13.21L7.7,36l.4.55-.18.1c-.2-.36-.4-.72-.58-1.08Zm.46,1.07c-.24-.3-.45-.62-.68-.93l.14-.09C7.45,35.94,7.63,36.28,7.81,36.61Zm-.73-.47.06.11s0,0,0,0l.43.56-.12.06c-.15-.26-.3-.51-.43-.78Zm.55.71c.17.21.36.42.54.63l-.25.15c-.15-.23-.29-.48-.42-.72Zm0,.59L7.31,37l.1,0C7.49,37.12,7.58,37.28,7.67,37.44Zm0,.14,0,0c-.15-.16-.3-.32-.44-.49h0ZM6.8,36.7c-.17-.18-.35-.37-.51-.56l.08,0C6.51,36.3,6.66,36.5,6.8,36.7ZM5.13,34l-.2-.4c.16.3.33.59.51.88ZM3.7,32l-.14-.28,0-.12C3.59,31.74,3.65,31.87,3.7,32Zm.37,1,.34.91q-.19-.37-.35-.76h0C4,33,4,32.92,4,32.83s-.08,0-.07,0,.06.14.09.22,0,0,0,0,0,0,0,0c-.1-.2-.17-.41-.26-.61s-.07-.31-.09-.46C3.75,32.34,3.9,32.65,4.07,33Zm-.13.29s0,0,0,0l-.12-.22c0-.1-.06-.19-.08-.29C3.81,32.93,3.87,33.09,3.94,33.24Zm-.43-.66h0l0-.08.11.21Zm0,.43c-.41-.93-.78-1.89-1.11-2.86.18.43.38.86.58,1.28S3.29,32.49,3.48,33Zm-1-2.27c-.07-.2-.13-.41-.19-.61l0-.14ZM1.6,27.13q-.08-.33-.15-.66h.14c0,.22,0,.43,0,.65C1.61,27.11,1.61,27.11,1.6,27.13Zm-.12-.18-.09-.32h0l0-.15h0C1.41,26.63,1.45,26.79,1.48,26.94Zm-.14-.51c-.05-.24-.11-.49-.15-.73s0-.21,0-.32h0v0s0,0,0,0c0,.33.1.66.17,1Zm-.16-3.27h0ZM1.55,21l0-.07s0,0,0,0l.05-.16,0,.18ZM.83,28.56l.07.26c0,.06,0,.12,0,.18l0,0,0-.12C.85,28.74.85,28.65.83,28.56Zm.21.8s0,0,0,0l0,0v-.1c0,.16.08.33.11.49l-.08-.23ZM.94,27.69s.06,0,.05-.05,0-.1,0-.14c0,.18.08.36.12.54s0,.27.07.41Zm.74,2.39v.06Zm1.69,4.11c.11.15.2.3.32.44l.11.16-.28-.31Zm.52.69.37.44L4,35Zm.47.6.15.24-.42-.55Zm.79,1,0,0,0,0,0-.05Zm.71.9v0a.07.07,0,0,0,0,.07l0,.06h0l-.1-.1c-.25-.31-.51-.62-.78-.93h0C5.34,36.8,5.6,37.1,5.87,37.39ZM8.15,39.5c-.19-.16-.36-.33-.55-.5l0-.06.71.63ZM6.84,38.08h0Zm.6.46c-.14-.13-.27-.28-.4-.42C7.18,38.27,7.3,38.41,7.44,38.54Zm.88.75c-.15-.12-.29-.25-.44-.37Zm1.76.86.29.19h0l.2.18,0,0Zm.57.37,0,0-.06,0Zm.89.25.13.09H11.6Zm-.07-.08h0l.21.09.1.08h-.05Zm.32.06-.19-.16.39.23h0Zm.3.13h0Zm-.94-.79a0,0,0,0,0,0-.07l-.55-.43-.15-.2.82.64c.21.23.42.46.64.68A7.11,7.11,0,0,1,11.15,40.1ZM9.57,38.51l.16,0,.85.86C10.24,39.06,9.9,38.8,9.57,38.51Zm0,0c-.4-.35-.78-.73-1.16-1.1l.23-.16.17.2.82,1s0,0,0,0l.05.05Zm-1.09-1.6-.26-.33.17-.1c.13.21.25.43.38.64l-.06,0Zm-.06-.45.1-.06.42.6-.15.1C8.63,36.86,8.51,36.64,8.38,36.43Zm.32.09.35.35L9,36.92Zm1.15.9-.53-.69.23-.14s0,0,0,0l-.23.14-.43-.56.34-.2q.61,1,1.23,2Zm-1-1.31-.38-.5c-.11-.19-.21-.39-.32-.59l.38-.25.66,1.13ZM8.07,35,8,35s0,0,0,0l-.15.1L7.75,35c-.26-.44-.51-.89-.74-1.35l.37-.18Q7.69,34.28,8.07,35Zm-1.24-.39a0,0,0,0,0,0,0l.18.28.08.17c-.24-.35-.47-.71-.7-1.08l.2-.09C6.64,34.15,6.74,34.38,6.84,34.61Zm.27.6.15.33-.15.09h0c-.18-.33-.36-.66-.53-1,0,0,0,0,0,0,.14.29.29.58.45.86q-.45-.64-.84-1.32l0-.06.2-.09C6.58,34.42,6.83,34.82,7.1,35.21ZM5.22,32.33h0c-.19-.44-.37-.88-.54-1.33l0-.16q.29.78.62,1.55Zm-.63-1.5q-.35-.9-.66-1.83c-.09-.47-.19-.93-.29-1.4v-.23a22.71,22.71,0,0,0,.92,3.25Zm-.7-1.93c-.08-.23-.16-.45-.23-.67s0-.36,0-.53ZM6,34.19l.34.56.13.31c-.18-.28-.35-.57-.51-.86Zm1.42,2.74-.1.05c-.23-.28-.47-.56-.69-.84,0,0,0,0,0,0l-.06-.09.34-.19C7,36.23,7.19,36.58,7.38,36.92Zm-2.84-4.1c-.4-.84-.77-1.7-1.11-2.58.16.33.34.66.51,1,.42,1.05.91,2.09,1.43,3.11Q4.94,33.59,4.54,32.82Zm-2-6.17,0-.21h0Zm0,.3a0,0,0,0,0,0,0c0,.39.09.77.15,1.15a13,13,0,0,1-.36-1.4l0-.28h.14C2.45,26.62,2.47,26.79,2.5,27Zm-.23-.58,0-.21c0-.37,0-.74,0-1.11,0,.43.09.87.16,1.31ZM3.53,31.9c0,.12,0,.24.05.36-.16-.37-.34-.74-.49-1.12,0,0-.05,0,0,0,.17.47.38.92.58,1.37,0,.1,0,.2.06.3l-.32-.6a26.7,26.7,0,0,1-.92-3.51A14.65,14.65,0,0,0,3.53,31.9Zm-1.24-2-.14-.48,0-.27c.2.6.42,1.19.65,1.77C2.6,30.58,2.44,30.24,2.29,29.9Zm-.62-2.7c0-.07,0-.14,0-.22,0,.15,0,.3,0,.45C1.7,27.36,1.68,27.28,1.68,27.2Zm-.37-4.43c0-.26.1-.51.15-.77,0,.15,0,.3-.05.46S1.34,22.66,1.31,22.77Zm.33-2,0-.17.09-.27C1.71,20.47,1.67,20.62,1.63,20.76Zm-.39,9.39c.1.38.21.75.33,1.12v0a9.09,9.09,0,0,1-.45-1.47Zm.68,1.74-.15-.27q-.11-.33-.21-.66l.11.27h0C1.76,31.45,1.84,31.67,1.93,31.89Zm.28.72,0,.06L2,32.25Zm-.47-1.4h0c-.12-.28-.23-.57-.34-.85s-.12-.5-.18-.74l.26.73Q1.59,30.77,1.74,31.2ZM1,28.91c0-.09,0-.18,0-.27l.13.48Zm0-.54c0-.09,0-.18,0-.27s0,0,0,0l.14.48s0,0,0,0,.08.21.12.31.13.46.2.68.15.56.24.84c-.1-.25-.2-.5-.29-.76C1.25,29.24,1.14,28.8,1,28.37Zm1,2.9,0,.09,0-.09Zm1.55,3.26.35.4q.41.58.85,1.14l.18.28a0,0,0,0,0,.06,0l.08.1H5c-.44-.5-.88-1-1.26-1.54ZM11.31,41c.15.11.31.21.47.31l.06.08a10.37,10.37,0,0,1-1-.66h0a0,0,0,1,0,0,0l-.13-.1.06,0,.31.26s0,0,0,0L11,40.76l.3.14s0,.06,0,.06h.15l.18.21-.32-.2S11.29,41,11.31,41Zm.36-.08h.1l.17.12-.14,0Zm.07-.57.32.24a0,0,0,0,0,.05,0l.23.13-.24.06Zm.86.38.1,0,.22.14-.28-.09Zm-.1-.07a4.58,4.58,0,0,1-.45-.37c.17.12.36.23.54.34Zm-.36-.21s0,0,0,0h0L12,40.46h0c-.23-.16-.44-.35-.66-.52l-.63-.71A10.89,10.89,0,0,0,12,40.3s-.07,0,0,0Zm-1.39-1-.1-.08h0l-.9-.92.12,0C10.16,38.78,10.45,39.13,10.75,39.47ZM9.68,38.2c-.34-.34-.67-.68-1-1l.06,0,.09.15s0,0,0,0l-.09-.16.15-.1c.11.15.21.31.33.47s.09,0,.07-.05-.21-.31-.32-.46l.08-.05.25.24.7,1.08s.07,0,0,0l-.56-.86.71.66.13.16-.43.2-.53-.6s-.08,0,0,0Zm.79,0,.18.15,0,0-.21-.19ZM7.92,33.22l.14-.08q.31.63.67,1.26Q8.32,33.82,7.92,33.22Zm0,0L7.77,33s-.06,0,0,0l.14.2-.12.07c-.26-.49-.51-1-.75-1.47,0,0,0,0,0,0,.24.5.49,1,.74,1.48l-.31.17c-.14-.35-.29-.7-.41-1.06,0,0,0,0,0,0,.11.37.26.72.41,1.07L7,33.68c-.15-.29-.3-.58-.44-.88a19.23,19.23,0,0,1-.84-2.51,0,0,0,0,0,0,0c.15.61.34,1.21.55,1.8-.2-.46-.41-.92-.6-1.39,0,0-.05,0,0,0,.34.86.71,1.7,1.11,2.53.05.13.1.26.16.39a13.07,13.07,0,0,1-.7-1.48s-.08,0-.07,0a13.61,13.61,0,0,0,.73,1.59l-.23.11,0-.08c-.15-.37-.29-.75-.41-1.13,0,0,0,0,0,0,.06.21.15.42.22.63-.53-1.16-1-2.33-1.48-3.53h0c.45,1.22,1,2.42,1.51,3.6.06.17.12.35.18.52l-.2.09-.2-.31s0,0,0,0l.2.31-.2.09c-.07-.17-.14-.33-.21-.5s0,0-.06,0c-.49-1-.93-2.08-1.31-3.14A23.4,23.4,0,0,1,4.19,28s0,0,0,0c.06.77.17,1.52.31,2.27a22.19,22.19,0,0,1-.86-3.15c0-.26,0-.52,0-.79a18.53,18.53,0,0,0,2.59-.53,18,18,0,0,0,1.87,7.32ZM3.57,26.85c0-.17-.07-.34-.09-.51h.08C3.56,26.5,3.57,26.68,3.57,26.85Zm0,.25c0,.09,0,.18,0,.27-.07-.34-.13-.68-.19-1h0C3.48,26.6,3.53,26.85,3.58,27.1Zm-.2-.75c.06.37.13.73.21,1.1,0,.21,0,.43,0,.64v0s-.07,0-.06,0l.07.22c0,.15,0,.3,0,.45s0,0,0,0,0-.2,0-.31l.17.52s-.07,0-.06.05a29,29,0,0,0,1,2.86,21.29,21.29,0,0,0,.79,2.45h0a0,0,0,1,0,0,0h0c.08.21.15.43.24.64,0,0,0,0,0,0-.09-.21-.16-.42-.24-.64l.21-.1c.24.45.51.88.78,1.3l.13.28L6.44,36,6,35.26l0-.06h0l0,0c-.55-1.09-1.09-2.2-1.57-3.31.16.26.32.53.49.79,0,0,.05,0,0,0-.23-.35-.44-.71-.65-1.07a22.14,22.14,0,0,1-.79-2.23q-.07-.37-.13-.73v0c0,.08,0,.15,0,.23s0,0,0,0v-.05c.34,1,.74,2,1.17,3,0,0,0,0,0,0-.44-1-.85-2-1.19-3.09a16,16,0,0,1-.22-2.34Zm-.11,2.21,0-.05C3.14,27.8,3,27.1,3,26.4h.12A15.28,15.28,0,0,0,3.27,28.56Zm-.05.12a13.91,13.91,0,0,1-.38-2.26h.07C3,27.16,3.09,27.92,3.22,28.67Zm-.39-2.35A11.8,11.8,0,0,1,2.8,25q0,.66.1,1.33Zm-.35-.57s0,0,0,0c0,.19,0,.39,0,.58h0c-.09-.58-.15-1.14-.18-1.71,0-.14,0-.29,0-.43l0-.22C2.38,24.59,2.42,25.17,2.48,25.75ZM2.22,24.4c0,.2-.07.41-.09.61v-.08a10.09,10.09,0,0,1,.1-1.67Q2.2,23.82,2.22,24.4Zm-.1,1.24c0,.25,0,.5.08.74H2.14l0-.68Zm0,.57c0-.08,0-.16,0-.24v.24ZM2,27.14c0-.13,0-.26,0-.39a23.53,23.53,0,0,0,.46,2.9,18.85,18.85,0,0,1-.64-3.19H2c0,.23,0,.46-.05.69C1.94,27.17,2,27.17,2,27.14Zm.68,3.28.06.26c-.26-.67-.5-1.35-.71-2q-.08-.54-.16-1.09c0,.15,0,.3.06.45S2,28,2,28c-.08-.51-.14-1-.2-1.53h0A19.41,19.41,0,0,0,2.67,30.42ZM1.58,24.77q0-1,0-2.08L1.8,22A16.55,16.55,0,0,0,1.68,26C1.64,25.6,1.61,25.19,1.58,24.77Zm.25-3s-.06-.05-.08,0l-.15.37c0-.08,0-.17.06-.25.1-.27.21-.54.32-.81C1.91,21.3,1.87,21.53,1.83,21.76ZM2,19.66l.05-.13L2,19.67ZM1,29.33c0,.06,0,.13,0,.19l-.05-.28Zm1.88,4.31h0l.07.15Zm3.55,4.71a.09.09,0,0,0,0,.05l-.19-.2Zm.3.33a.3.3,0,0,0,0,.07l-.22-.23Zm2.49,1.78s0,0,0,0l.2.14-.3-.15Zm2.92.94h0l-.26-.29.18.08s0,0,0,0-.16-.07-.24-.1h0l.09,0a1.93,1.93,0,0,0,.35.14c.2.13.41.25.63.36l-.53-.06Zm.21-.17.11,0,.08,0s0,0,0,0a2.17,2.17,0,0,0,.26,0,0,0,0,0,0,0-.08h0L12.36,41h0l-.14-.09h0l.28-.07a5.37,5.37,0,0,0,1.14.82l-.66,0Zm.87-.19s.05,0,0-.05l.31.31L12.93,41Zm-.28-.5-.11-.09a0,0,0,0,0,0,.06l0,0,0,0-.14.05a11.41,11.41,0,0,1-2-1.52s0,0,0,0l-.07-.08s0,0,0,0l-.11-.1L10,38.39l.43-.2c.55.67,1.1,1.34,1.68,2,0,0,.07,0,0,0-.52-.59-1-1.2-1.53-1.81l.18.16,0,.07s0,0,0,0q.58.51,1.19,1a5,5,0,0,0,1.08.95Zm-.51-.75.09.06,0,0s0,0,0,0l.49.37s.06,0,0-.05c-.23-.16-.44-.33-.66-.49-.52-.58-1-1.17-1.49-1.78l.15-.09c.22.35.45.7.69,1,0,0,.08,0,.06,0-.23-.35-.45-.7-.67-1l.21-.13c.33.35.67.7,1,1,.06.11.11.23.17.34a0,0,0,0,0,0,0c.21.28.43.54.66.8L13,39.72s-.07,0-.05,0a6.24,6.24,0,0,0,.47.56l-.28.13A5.08,5.08,0,0,1,12.39,39.81Zm-.2-2.68a20.34,20.34,0,0,0,1.75,2.62c-.27-.22-.52-.44-.78-.67a17.69,17.69,0,0,1-1-1.94Zm0,0L12.09,37l.07.11Zm1.39,3.18-.08-.09.08.09Zm.08.08,0,0,0,0Zm-1.19-1.53.16.16s.06,0,0,0l-.28-.29c-.11-.2-.21-.4-.31-.61q.52.57,1.09,1.08l.21.35s.07,0,.05,0l-.12-.19q.41.36.85.7l-.57.29c-.36-.39-.7-.79-1-1.21,0,0,0,0,0,0ZM13,39a14.67,14.67,0,0,1-1.09-1.1l-.21-.41.41-.27A18.08,18.08,0,0,0,13,39Zm-1.19-1.22-.14-.15s-.07,0,0,0,.19.21.29.31l.31.62c-.29-.3-.59-.59-.87-.9l.32-.19ZM8.7,12.09l.15-.1-.15.1Zm-.18.13-.4.28.43-.31ZM4.67,16,4.6,16a13.51,13.51,0,0,1,1.84-1.87C5.82,14.73,5.23,15.33,4.67,16Zm.13-.8h0c.12-.13.26-.24.39-.36l-.56.61Zm9,26.46a6.4,6.4,0,0,1-.82-.55,4.63,4.63,0,0,0,.76.39h0l.2.16Zm-.66-.86a1,1,0,0,0-.1-.14l.22-.09a3.75,3.75,0,0,0,.4.21,6.34,6.34,0,0,0,1,.83l-.62,0Q13.56,41.2,13.1,40.76Zm6.54-3.84c0,.08,0,.17,0,.25L19.58,37a1.41,1.41,0,0,1-.07-.28c0-.05-.08-.05-.08,0h0a1.94,1.94,0,0,1-.12-.26,0,0,0,0,0,0,0,5.46,5.46,0,0,0-.48-.81c0-.07,0-.14,0-.22a8.76,8.76,0,0,0,.8,1.32Zm-.9-.91v0c0,.13,0,.26,0,.38a0,0,0,0,0,0,.06l0,.18a.07.07,0,0,0,0,.1l.13.23,0,.11v.07c-.06-.08-.11-.17-.17-.26-.13-.36-.23-.72-.35-1.09l.2-.14s0-.05,0,0l-.19.14-.16-.49a2.8,2.8,0,0,1,0-.35s0,0,0,0,0,.17,0,.26c-.08-.24-.17-.48-.24-.73l-.06-.29c.14.33.28.67.45,1,0,0,.08,0,.06,0-.22-.43-.41-.87-.58-1.31,0-.19-.06-.38-.09-.56Zm-1.1-2.35-.13-.44.05.15Zm0-.57c0,.17,0,.34.07.5l0-.14c-.08-.29-.15-.58-.21-.87Zm-.28-.51c-.07-.25-.14-.5-.2-.75h0l.09.23Zm-.32-.93a18.5,18.5,0,0,0,.7,2.64s0,0,.05,0l.09.31c.06.3.14.6.23.9-.42-1.28-.9-2.54-1.41-3.78a.06.06,0,0,0-.07,0,4.59,4.59,0,0,1-.11-.6c0-.05-.08-.05-.08,0a7.54,7.54,0,0,0,.72,2.29A12.19,12.19,0,0,0,18,36.06l0,0c0-.07,0-.14,0-.21s-.07,0-.06,0,0,.15,0,.23l0,0a5.07,5.07,0,0,1-.62-1.85c0-.09-.15-.09-.14,0s0,.3.07.45c-.07-.29-.13-.59-.19-.89,0,0,0,0,0,0,.06.29.12.58.18.87a11.53,11.53,0,0,1-.61-1.93s0,0,0,0a11.55,11.55,0,0,0,.77,2.4c0,.09,0,.18.07.26l0,0q-.55-1.35-1.15-2.69a17.56,17.56,0,0,1-.73-2.56s0,0,0,0c-.23-1-.45-2.08-.66-3.14,0-.33,0-.66,0-1,0-.11,0-.23,0-.34.11-.66.24-1.32.38-2a16,16,0,0,0,.12,3.91,21.1,21.1,0,0,0,.37,2.9c0,.05.09,0,.08,0-.12-.66-.21-1.3-.28-1.93a27.11,27.11,0,0,0,1.2,4.12c0,.05.1,0,.08,0a26.59,26.59,0,0,1-1.35-4.94A11.87,11.87,0,0,1,15.87,23a28.77,28.77,0,0,0-.18,3.85,0,0,0,0,0,.06,0A30,30,0,0,1,16,22.68c.06-.17.12-.34.19-.51,0,0,0,0,0,0s-.1.25-.15.37a11.68,11.68,0,0,1,1.25-3.91s0,0,0,0a11.83,11.83,0,0,0-1.33,4.21,11.37,11.37,0,0,0-.75,4,15.57,15.57,0,0,1,0-3.54l0-.14c0,.11,0,.21,0,.32s.08,0,.08,0,0-.39,0-.59c.24-1,.5-1.91.83-2.85h0c.07-.2.14-.4.21-.61a16.1,16.1,0,0,1,1-1.5c0,.15,0,.3-.05.46s.06,0,.07,0c0-.2,0-.38.07-.57.3-.41.63-.81,1-1.19a13.15,13.15,0,0,0-1.73,5.05,0,0,0,0,0,0,0c-1,3-.77,6.2-.36,9.38,0,.05.09.05.08,0q-.09-.77-.17-1.55A11.58,11.58,0,0,0,16.92,32s.1,0,.08,0a12.07,12.07,0,0,1-.73-6.65A35.34,35.34,0,0,0,17.06,31.65Zm-.81-6.83h0v0A14,14,0,0,0,16,26.5a14.13,14.13,0,0,1,1.23-6.18s0,0,0,0a11.69,11.69,0,0,0-.49,1.16,13.65,13.65,0,0,1,1.69-4.72s.05,0,.07,0c.18-.35.39-.69.59-1l.23-.33a10.89,10.89,0,0,0-.69,1.24s0,.09.07,0a13.41,13.41,0,0,1,1-1.66v0a3.55,3.55,0,0,0-.1.35s0,.05.05,0a4.18,4.18,0,0,1,.18-.58h0c.13-.17.25-.34.38-.51h0l.17-.24c.12-.14.26-.25.38-.38a12.07,12.07,0,0,0-.73,1.26,14,14,0,0,0-1.48,3.73c0,.05,0,.07.08,0l0,.07A20.53,20.53,0,0,0,16.25,24.82ZM19.06,18l.27-.56c0,.13-.07.26-.1.39s0,0,0,0c-.14.26-.28.52-.41.78l.13-.51.07-.13A0,0,0,0,0,19.06,18ZM19.57,17l.24-.45c0,.07,0,.14-.07.21a.06.06,0,0,0,.12,0c-.18.32-.34.66-.52,1C19.41,17.5,19.49,17.23,19.57,17Zm.66-1.22c.56-1,1.17-2,1.82-3l-.29.68-.65,1.09.19-.41.07-.12s0-.06,0,0a7.3,7.3,0,0,0-1.07,2s0,.05.06,0c-.14.24-.3.47-.43.71C20,16.41,20.1,16.08,20.23,15.76Zm.23.17c-.22.41-.42.82-.62,1.24l.19-.53C20.16,16.39,20.32,16.16,20.46,15.93Zm1.28-2.11a0,0,0,0,0,.05,0l.25-.35-.28.6c-.19.33-.37.67-.55,1L21.66,14Zm.35-.42.23-.32-.47.83C21.92,13.74,22,13.57,22.08,13.4ZM24.87,10l.07-.09h0c.25-.28.49-.57.74-.82h0l0,0,.2-.18,0,0-.34.42-.52.53Zm.39-.2.07-.08s0,0,0,0l-.22.23Zm1.58-1.66L26.92,8,27,8l-.43.44Zm1.28-1.33h0c-.23.24-.47.47-.71.69h0l-.06.06-.2.2c.32-.35.66-.68,1-1l0,0ZM6.81,13.61a0,0,0,0,0,0,0c.11-.11.23-.19.34-.29q-.3.31-.58.64a13.45,13.45,0,0,0-2.32,2.39,10.61,10.61,0,0,0-.71.85c.16-.3.3-.59.38-.72s.31-.51.46-.78l1.1-1.14a2.82,2.82,0,0,0-.22.4s0,0,0,0a2.9,2.9,0,0,1,.35-.56l.27-.29,1-.81.62-.38C7.29,13.16,7,13.37,6.81,13.61ZM5.13,14.73a16,16,0,0,1,1.22-1.2l-.46.5C5.62,14.25,5.37,14.49,5.13,14.73ZM19.58,35.54l.37,1,.06.23c0,.06,0,.12,0,.18-.12-.3-.24-.6-.37-.9s-.11-.37-.17-.55a15.18,15.18,0,0,1-.67-1.9A18.72,18.72,0,0,0,19.58,35.54Zm-.3-.26.08.23,0-.05s-.08,0-.06,0l.08.23c-.09-.21-.18-.43-.28-.63h0c-.24-.79-.46-1.58-.65-2.38h0c0-.21-.06-.43-.09-.65.12.52.27,1,.45,1.54,0,0-.06,0-.06,0A7.42,7.42,0,0,0,19.28,35.28Zm-1-13.33c-.06.27-.12.53-.17.8v-.19C18.17,22.36,18.22,22.15,18.27,21.95Zm3.31-7.33.21-.41s0,0,0,0l.4-.73-.29.63C21.8,14.27,21.7,14.45,21.59,14.62Zm-.14.43L21,16c.13-.27.25-.53.36-.81Zm1.47-1.94L23,13,23,13c-.16.24-.33.49-.49.74.15-.27.31-.54.47-.8l-.07.12A0,0,0,0,0,22.92,13.12Zm.86-1.4h0L25,10.16l.47-.5h0l.05-.06.13-.15.14-.16A1.82,1.82,0,0,0,26.08,9a37.18,37.18,0,0,0-2.79,3.54Q23.51,12.12,23.78,11.72Zm2.44-2.88.72-.75L26.12,9ZM28,7c.13-.14.27-.28.39-.44,0,0,0,0,0,0l.26-.21c-.19.22-.39.42-.6.62Zm1.18-1.17,0,0,0,0ZM30.4,4.69c.12-.06.23-.14.35-.21l-.33.29v0S30.41,4.71,30.4,4.69Zm.73-.57,0,0L31.3,4h0l-.17.14S31.15,4.11,31.13,4.12Zm.26-.21.12-.07-.1.08ZM11.84,10.12l-.13.06-.46.22-.1,0c-.45.22-.9.45-1.34.69l.89-.44a15.59,15.59,0,0,0-3,2.11l-.58.37L7.37,13c.19-.14.39-.28.57-.43,0,0,0,0,0,0l-.12.09s0,0-.06,0L6.31,13.68l.19-.21s0,0,0,0l.18-.14h0c.69-.57,1.44-1.06,2.18-1.56q.49-.3,1-.58l-.61.32L9.87,11C10.51,10.66,11.16,10.38,11.84,10.12ZM9.39,11.21l-1,.69c-.61.36-1.2.75-1.76,1.16L6.75,13A13.69,13.69,0,0,1,9.39,11.21Zm9.32,20c.25,1.35.73,2.68,1,3.94,0,0,0,0,0,0l.1.27q0,.23.09.45A44.65,44.65,0,0,1,18.38,30s-.06,0-.06,0a32.35,32.35,0,0,0,1.44,5.65,17.5,17.5,0,0,1-1.69-7.79s-.06,0-.06,0c0,.29,0,.59,0,.88-.05-.7-.09-1.41-.12-2.12a0,0,0,0,0,.08,0c0-.46,0-.92,0-1.38a37.27,37.27,0,0,1,.84-4.17h0c.26-.78.54-1.55.82-2.33.1-.26.21-.52.32-.78-.1.31-.19.62-.26.94,0,.06.07.08.09,0a15.05,15.05,0,0,1,.95-2.61l.25-.5-.2.45a0,0,0,0,0,.05,0s0,0,0,0q.35-.71.7-1.43l.08-.1,0,.1a0,0,0,0,0,.06,0c0-.08.06-.15.09-.23s.23-.35.34-.53a0,0,0,0,0,.05,0c.28-.47.53-1,.77-1.44.52-.76,1-1.53,1.58-2.26l.64-.65-.63.79-.32.37s0,0,0,0l-.14.18c.08-.15.17-.3.25-.45h0c-.1.19-.21.38-.32.56a8.55,8.55,0,0,0-.73,1.14,12,12,0,0,0-1,1.68s0,0,0,0a30.17,30.17,0,0,0-2.68,5.54A22.92,22.92,0,0,0,18.71,31.17ZM28.35,6.66c.12-.12.24-.24.35-.36l.24-.19Z"/></svg>