<svg id="Layer_1" data-name="Layer 1" xmlns="http://www.w3.org/2000/svg" viewBox="0 0 78.76 24.63"><defs><style>.cls-1{fill:#231f20;}</style></defs><title>ilustracije_razmerje</title><path class="cls-1" d="M78.5,19.43c-13.39,5.32-29.38.49-42-5-5.87-2.58-11.51-5.61-17.45-8a65.86,65.86,0,0,0-8.88-2.6.15.15,0,0,0-.08-.07,5.81,5.81,0,0,0-.65-.21.12.12,0,0,0-.14.06A31.77,31.77,0,0,1,.22,0C.06-.07-.09.18.07.29.43.52.8.73,1.17.94,4.47,3,8.3,3.39,11.89,5a93.55,93.55,0,0,1,8.9,4.66C26.56,12.89,32,17,38,19.86c11.43,5.48,27.55,6.9,39,.71.58-.23,1.16-.48,1.72-.76C78.86,19.7,78.72,19.34,78.5,19.43ZM67.58,22.75H68l-.13,0Zm1.2-.18h0ZM60,23l.44,0a.12.12,0,0,0,.08,0h.13c.85,0,1.7.05,2.55,0C62.15,23.07,61.09,23.09,60,23Zm2.36-.62-.57,0Zm-1.65-.16q-1.45-.15-2.88-.35l.8.07Q59.69,22.15,60.73,22.26Zm1,.26c-1.05,0-2.11,0-3.15-.11l2.74.07Zm-4,.17.65.09-.72,0A.09.09,0,0,0,57.74,22.7Zm5.42.47H62.8L64,23.1s0,0,0,0l-.26,0h0l-.15,0-.36,0A.09.09,0,0,0,63.16,23.17Zm-5.8-1.39-.84-.05c-.7-.11-1.39-.24-2.08-.36l1.83.21Zm1.58.5-2.15-.08a18.12,18.12,0,0,1-2.32-.52c-.12,0-.16.14,0,.18s.41.13.61.19c-2.15-.47-4.28-1-6.41-1.58l1.85.33A72.43,72.43,0,0,0,58.94,22.27Zm-1.38.47A50.22,50.22,0,0,1,51,21.86c1.22.16,2.45.27,3.68.36C55.61,22.41,56.58,22.59,57.56,22.74ZM35.45,17.85c-4.69-2.61-9.19-5.56-13.84-8.25a.07.07,0,0,0,0-.1,62.17,62.17,0,0,0-8-4.14l-1.5-.69-.62-.24.8.21A71,71,0,0,1,22.56,9.45a.09.09,0,0,0,.09-.15A44.44,44.44,0,0,0,16.9,6l.39.14c7.59,2.85,14.56,7,22.05,10.12A97.46,97.46,0,0,0,53.57,21c-1-.13-2-.27-3-.42-3.06-.71-6.1-1.57-9.18-2.56-.06,0-.08.07,0,.09q3.08,1.11,6.21,2c-.47-.09-1-.16-1.43-.25h0c-1.56-.41-3.13-.82-4.7-1.19a.07.07,0,0,0,0,.13c4.05,1.19,8.1,2.38,12.23,3.26-1-.07-2-.16-3-.29,0,0,0,0,0,.07a41.8,41.8,0,0,1-5.7-1.62s0,0,0,0a43,43,0,0,0,5.15,1.58c-1.26-.23-2.51-.47-3.77-.77a0,0,0,0,0,0,0c1.85.44,3.71.8,5.58,1.12,1,.19,2,.34,3,.47l2.24.29-1,0c-2.82-.24-5.63-.63-8.44-1.15-.09,0-.13.12,0,.14.92.2,1.84.37,2.76.54.73.15,1.45.28,2.18.39a23.19,23.19,0,0,1-3.19-.43c-.08,0-.11.1,0,.12a25.64,25.64,0,0,0,6.34.67,49.06,49.06,0,0,0,6.72.2l.49,0h-.09c-1.3.05-2.6.09-3.9.12q-1.06-.13-2.12-.16l-.25,0a.09.09,0,0,0-.08,0c-.3,0-.61,0-.91,0a.11.11,0,0,0-.08.18A46.87,46.87,0,0,1,35.45,17.85Z"/><path class="cls-1" d="M40.71,19.75A56.83,56.83,0,0,1,34,16.58a0,0,0,0,0,0,0,47.36,47.36,0,0,0,6.12,2.94,0,0,0,0,0,0,0c.63.28,1.28.54,1.92.77l0,0h0a38.23,38.23,0,0,0,5.48,1.46c.07,0,.1-.09,0-.11A54.85,54.85,0,0,1,40.71,19.75Z"/><path class="cls-1" d="M24.48,10.94l2.44,1.48a0,0,0,0,0,0,0c-.81-.5-1.63-1-2.44-1.48A0,0,0,0,0,24.48,10.94Z"/><path class="cls-1" d="M29.83,13.94c-1-.46-1.9-1-2.85-1.51h0c.95.51,1.88,1.05,2.85,1.51C29.84,14,29.84,13.95,29.83,13.94Z"/><path class="cls-1" d="M28.51,13.37c1,.59,1.91,1.23,2.88,1.82a0,0,0,1,0,0,0c-1-.59-1.91-1.23-2.88-1.82A0,0,0,1,0,28.51,13.37Z"/><path class="cls-1" d="M35.68,17.34c-1.44-.73-2.82-1.56-4.2-2.4h0c1.38.84,2.76,1.66,4.2,2.4C35.68,17.35,35.68,17.34,35.68,17.34Z"/><path class="cls-1" d="M37.89,18.82s0,0,0,0c1.82.75,3.64,1.5,5.49,2.18,0,0,0,0,0,0C41.54,20.29,39.72,19.55,37.89,18.82Z"/><path class="cls-1" d="M29.84,12.42c1.27.67,2.56,1.27,3.88,1.83q1.41.72,2.84,1.39h0a36,36,0,0,0,4.22,1.86l.48.2a0,0,0,0,0,0,0q1.24.45,2.49.88s0,0,0,0c-1-.34-1.92-.68-2.87-1-2.27-1-4.51-2-6.72-3.06q1.5.63,3,1.23s0,0,0,0c-1.29-.54-2.58-1.07-3.87-1.62l-.78-.39s0,0,0,0l.43.22a42.78,42.78,0,0,1-4.67-2.3s0,0,0,0c.38.23.77.42,1.16.63-2.3-1.07-4.56-2.22-6.82-3.37,0,0,0,0,0,0,2.38,1.23,4.75,2.45,7.18,3.57C29.82,12.45,29.83,12.44,29.84,12.42Zm7.86,3.75,1.18.53C38.48,16.53,38.09,16.35,37.7,16.17Z"/><path class="cls-1" d="M37.19,16.5,36,16q-1.19-.62-2.42-1.17c-1.11-.56-2.2-1.14-3.27-1.78a0,0,0,0,0,0,0c.92.55,1.87,1.07,2.82,1.56l-.57-.25s0,0,0,0c2.14.93,4.14,2.16,6.23,3.2.08,0,.15-.08.07-.12l-2.21-1.18.54.25S37.21,16.51,37.19,16.5Z"/><path class="cls-1" d="M40.16,18.67s0,0,0,0a114.47,114.47,0,0,1-13.79-7.56c-.09-.06-.18.09-.08.14,1.8,1.09,3.6,2.18,5.42,3.23,1,.63,2,1.23,3,1.83a0,0,0,0,0,0-.06L34,15.82a56.94,56.94,0,0,0,10.72,4.71c.05,0,.07-.06,0-.08l1.38.43s0,0,0,0c-.91-.28-1.81-.56-2.71-.86l-.91-.32-.31-.11c-.42-.16-.82-.34-1.23-.51S40.43,18.81,40.16,18.67Z"/><path class="cls-1" d="M25.52,11a23.28,23.28,0,0,0-2.75-1.57s0,0,0,0c.95.46,1.82,1.07,2.72,1.61C25.53,11.08,25.56,11,25.52,11Z"/><path class="cls-1" d="M23,10.16s0,0,0,0c.74.38,1.44.81,2.15,1.24a0,0,0,0,0,0,0C24.45,11,23.74,10.53,23,10.16Z"/></svg>