<svg id="Layer_1" data-name="Layer 1" xmlns="http://www.w3.org/2000/svg" viewBox="0 0 55.23 74.34"><defs><style>.cls-1{fill:#231f20;}</style></defs><title>ilustracije_razmerje</title><path class="cls-1" d="M29.94,41.22C23.62,35.27,16.8,29.8,11.5,22.88l-.2-.27a24.61,24.61,0,0,0-1.65-2.34C6,14.77,3.7,8.71,1.31,2.55a.24.24,0,0,0-.19-.15C.87,1.63.6.86.29.1.22-.07,0,0,0,.18,2.14,7.63,3.25,15.56,6.58,22.59,9.33,28.4,14.23,32.94,19,37.1c6.33,5.54,13.18,10.43,19.41,16.09A84.62,84.62,0,0,1,55,74.32l0,.07c0,.11.23.06.19-.05C49.83,60.88,40.33,51,29.94,41.22Zm-9.36-6.36a29.27,29.27,0,0,1-2.3-1.91q.78.59,1.6,1.14ZM13.74,28.8l-.91-1-.05,0c-.49-.68-1-1.33-1.53-2a.06.06,0,0,0,0-.09l-.07-.12a22.07,22.07,0,0,0,2.17,2.49l1.53,1.73c-.39-.35-.78-.69-1.16-1Zm-2.33-3.4L11,25c-.38-.51-.75-1-1.1-1.55.32.43.65.85,1,1.26Zm.93,3.09q.52.65,1.09,1.26l-.21-.17q-.48-.53-.93-1.09ZM8,23.65l-.19-.37c.14.21.28.42.43.63h0Zm-1.5-5.31v0l0,0ZM5.8,16.41h0L6,16.7h0Zm.25.5,0-.11.18.35.07.19v0Zm.44.84-.13-.23h0Zm.06.1h0Zm2.92,3.93.27.3c.08.14.17.28.25.42ZM8,18.89H8ZM7.32,18v0h0Zm-.74-1.13,0,0,0,0ZM8,19a.19.19,0,0,0,0-.08l.06.08ZM7.22,17.8l-.06-.08L7,17.44l.11.14Zm1.54,6.28-.13-.18c0-.08-.07-.15-.1-.23a0,0,0,0,0,0,0l-.23-.52.29.53C8.63,23.8,8.69,23.94,8.76,24.08Zm.13-2.36-.12-.21.46.68.27.41,0,0C9.27,22.28,9.08,22,8.89,21.72ZM11,24l.08.07.16.21-.08-.06Zm.23.2.1.07.19.22-.23-.18a0,0,0,0,0,0,0ZM7.59,18,7.53,18h0l-.14-.18-.24-.54h0l0,.07ZM11.3,24.5l.28.18.12.16.23.37-.52-.57ZM8.76,20l-.34-.47.09.08h0l.24.39ZM7.2,22.38h0l.09.22c-.11-.21-.22-.42-.32-.63Zm5.26,6.49c-.26-.27-.52-.55-.77-.83l.21.16Zm-3.85-6.1h0ZM10.86,25l.1.11s0,0,0,0Zm.19.21.06.09L11,25.1Zm2.6,3c-.22-.24-.45-.47-.66-.72h0l-.42-.56,2.18,2.36C14.37,28.9,14,28.53,13.65,28.17Zm-.9-1c-.21-.25-.41-.5-.61-.75l.21.24ZM6.42,15.87c-.11-.14-.22-.28-.31-.42s-.22-.48-.33-.73a.06.06,0,0,0-.07,0c-.09-.21-.17-.43-.27-.64.3.54.59,1.08.9,1.62Zm1.81,8.3.12.11A18.68,18.68,0,0,0,9.48,26.1,13.46,13.46,0,0,1,8.23,24.17ZM12,29l.4.48c-.16-.17-.31-.35-.45-.53Zm1.45.84.19.15.6.62-.38-.32Zm.55.39.08.05q.44.46.91.9l-.35-.27s0,0,0,0Zm-.1-.1q-.77-.79-1.47-1.64a.07.07,0,0,0,0-.07,3.86,3.86,0,0,1-.62-.79h0l.15.24c-.18-.24-.37-.48-.54-.73,0,0-.07,0-.05,0,.17.26.36.51.55.76l-.15-.15c-.13-.12-.25-.26-.37-.39l-.78-1s0,0,0,0l-.05-.06c-.17-.21-.33-.44-.5-.66s-.41-.69-.6-1l.34.39,0,0h0c.55.66,1.11,1.31,1.68,2A27.61,27.61,0,0,0,14,30.16ZM8.7,23.3,8.59,23l1,1.27.21.28.27.45a.36.36,0,0,0,.12.2l.18.29Q9.53,24.43,8.7,23.3Zm2,1.93,0,0h0a.11.11,0,0,0,.12,0l.16.25-.16-.2a.1.1,0,0,0-.12,0Zm4,4.1.7.61c.51.55,1,1.11,1.52,1.67l-.23-.19Q15.67,30.39,14.69,29.33ZM17.33,32c-.41-.48-.84-.95-1.26-1.41h0s.06,0,0,0l-.37-.34c-1.35-1.49-2.72-3-4.06-4.46L11.21,25s0,0,0,0L11,24.65,10.52,24l.84.94c.47.61.95,1.21,1.45,1.8,0,0,.08,0,.05-.05l-.5-.64c.41.44.83.87,1.24,1.31a20,20,0,0,0,4.2,3.91,18.62,18.62,0,0,0,1.9,2.6C18.9,33.26,18.11,32.61,17.33,32ZM3.73,10.66h0l-.12-.23,0,0L3.37,10a.16.16,0,0,0-.23-.07L2.82,8.54Q3.26,9.62,3.73,10.66ZM24.92,41.33c-2.38-1.93-4.77-3.89-7.06-6a15.63,15.63,0,0,0,2.06,1.37,0,0,0,0,0,0,0c-3.07-1.86-5.32-4.7-7.82-7.22a.06.06,0,0,0-.09,0c-.71-.83-1.39-1.68-2-2.56l.33.29a16.1,16.1,0,0,0,1.3,1.39s0,0,0,0a12.66,12.66,0,0,0,1.34,1.48,64.12,64.12,0,0,0,6.52,6.07s0,0,0,0c-1.59-1.44-3.17-2.88-4.67-4.38.26.23.49.47.76.69,0,0,.06,0,0,0,1.81,1.76,3.63,3.51,5.53,5.17,1.21,1.06,2.71,2.83,4.34,3.38.54.44,1.1.88,1.68,1.28,0,0,0,0,0,0-.57-.39-1.11-.81-1.64-1.24a3.41,3.41,0,0,0,.33.1,0,0,0,0,0,0,0c-.16-.06-.31-.14-.47-.22-1.4-1.15-2.71-2.42-4-3.68a0,0,0,0,0,0,0c1.29,1.24,2.58,2.49,4,3.63-1.71-.86-3.38-2.71-4.77-3.88C18.36,35.06,16.3,33,14.22,31a0,0,0,1,0,0,0l1.36,1.31a24.6,24.6,0,0,1-2.32-2.28.06.06,0,0,0,0-.09l-.1-.11.34.25s0,0,0,0l0,0a14.3,14.3,0,0,0,3.79,2.94s0,0,0,0a13.63,13.63,0,0,1-3.14-2.39l.21.15.1.11s0,0,0,0l.45.32s0,0,0,0a18.86,18.86,0,0,0,2,1.6s.06,0,0-.05a21.06,21.06,0,0,1-4.26-4.26c.35.37.7.76,1.06,1.12.05.05.14,0,.08-.08l-.31-.33.83.81a0,0,0,0,0,0,0q-1.32-1.34-2.57-2.74-.34-.5-.67-1c.19.22.38.45.58.66a.06.06,0,0,0,.07,0c.33.4.65.8,1,1.22a.08.08,0,0,0,.1,0c1.82,2,3.65,4.08,5.55,6.05l-.8-.69s0,0,0,0l1,.88c.87.9,1.76,1.78,2.68,2.63,0,0,.07,0,0,0-2.3-2.3-4.47-4.73-6.67-7.13q.74.72,1.52,1.41c.5.52,1,1,1.54,1.52,0,0,0,0,0,0A30.88,30.88,0,0,0,20.5,36s.06,0,0,0A31.45,31.45,0,0,1,18,33a22.31,22.31,0,0,0,3.11,2.41c1.42,1.43,2.95,2.77,4.37,4.19a0,0,0,1,0,0,0c-1.35-1.38-2.81-2.67-4.18-4,.22.13.43.28.65.4a.05.05,0,0,0,.05-.09c-.4-.26-.79-.53-1.18-.8s-.58-.61-.86-.92c0,0,0,0,0,0l0,0a19.51,19.51,0,0,1-2.06-2.74c.14.09.27.21.41.3a.06.06,0,0,0,.09,0c1.17,1.35,2.37,2.67,3.65,3.9,0,0,0,0,0,0-1.29-1.25-2.48-2.58-3.65-3.94a.07.07,0,0,0,0-.05l0,0-1.54-1.81s-.06,0,0,0c.46.56.95,1.11,1.42,1.66-.17-.12-.33-.25-.5-.37l-.16-.26a0,0,0,0,0,0,0l.13.22c-.42-.31-.84-.63-1.22-1,0,0,.06-.05,0-.09-.78-.72-1.52-1.47-2.25-2.24-.34-.41-.66-.83-1-1.25l-1-1.35h0s0,0,0,0l0,0-.37-.52-1-1.47h0c-.08-.17-.19-.33-.28-.5,0,0,0,0,0,0l-.22-.36c-.25-.45-.5-.89-.78-1.32,0,0,.06,0,0-.07l-.08-.12.35.47c1,1.56,1.94,3.24,3,4.82A.08.08,0,0,0,13,25.8c-.29-.63-.62-1.26-1-1.88,5.56,6.94,12.26,13,18.84,19.27-2.72-2.47-5.41-5-8.11-7.45,0,0,0,0,0,0q4.11,3.83,8.31,7.57,2.06,2,4.1,3.93c-1.69-1.26-3.28-2.64-4.87-4,0,0-.07,0,0,0,1.63,1.41,3.25,2.82,5,4.08,0,0,0,0,0,0q2.44,2.39,4.78,4.86c-1.56-1.55-3.16-3-4.83-4.42-.15-.12-.35.07-.21.21q1.85,1.87,3.63,3.74c-3.41-3.36-7.11-6.4-10.73-9.52h0c-2.35-2.07-4.68-4.17-7-6.23,0,0-.06,0,0,0,2.36,2.06,4.7,4.15,7.06,6.2,0,0,0,0,0,0,3.79,3.31,7.71,6.46,11.27,10,5.68,6,10.87,12.14,14.79,19.62a.09.09,0,0,0,.06,0c.14.31.27.63.41.95C47,59.94,36.46,50.68,24.92,41.33Z"/><path class="cls-1" d="M32.56,45.26c-3.44-2.66-6.46-5.74-9.79-8.53-.06,0-.14,0-.08.08,3.15,2.92,6.1,6.29,9.7,8.67C32.52,45.57,32.69,45.36,32.56,45.26Z"/><path class="cls-1" d="M35.7,49.5s-.08,0,0,0c3.16,2.91,5.88,6.24,9,9.2,0,0,0,0,0,0C41.6,55.73,38.89,52.38,35.7,49.5Z"/><path class="cls-1" d="M30.7,44.77c-1.94-1.55-3.77-3.22-5.64-4.84,0,0,0,0,0,0,1.86,1.64,3.71,3.29,5.65,4.83C30.7,44.79,30.71,44.78,30.7,44.77Z"/><path class="cls-1" d="M30.63,45.23l5.05,4.39s0,0,0,0l-5-4.4S30.61,45.22,30.63,45.23Z"/><path class="cls-1" d="M24,40.24q3.29,2.74,6.7,5.33h0q-3.39-2.6-6.68-5.34S24,40.23,24,40.24Z"/></svg>