<svg id="Layer_1" data-name="Layer 1" xmlns="http://www.w3.org/2000/svg" viewBox="0 0 19.51 19.86"><defs><style>.cls-1{fill:#231f20;}</style></defs><title>ilustracije_razmerje</title><path class="cls-1" d="M19.45,16.77c-1.43-2.29-5-6-3.6-9,.39-.84.94-1.7.36-2.57C14.55,2.69,9.85,1.9,7.41.35l-.09,0A1.9,1.9,0,0,0,6.56,0H6.48a1.45,1.45,0,0,0-.31,0H6.11L6,.05C4.82.17,3.68,1.46,2.9,2.29,1,4.27-.77,6.05.58,8.78c1.86,3.76,4.79,8.12,8.31,10.47,2.84,1.89,7.65-1.08,10.39-2A.35.35,0,0,0,19.45,16.77Zm-7.07-1.26.26-.1,0,.07-.25.11ZM14,14.35l.32-.11,0,.07-.31.12Zm1.43-1.27.19-.07,0,.1-.18,0Zm-5.14,5.34.06.1a.67.67,0,0,1-.07-.09h0ZM15.13,14A.07.07,0,0,0,15,14l.23-.07,0,0-.15.06Zm.7-.56,0,0h0l-.11,0h0Zm-.37.6,0,.06-.06,0,0-.06Zm.18-.07s0,0,0,0a.9.9,0,0,1,.24-.07h0l-.19.05s0,0,0,.06l-.09,0,0-.07Zm0,.65h0l0,0h.08l.07.11-.06,0-.07-.09h0A0,0,0,0,0,15.64,14.64Zm-1.56,2a0,0,0,0,0-.05,0l.19-.07h0l.23-.09,0,.06-.38.16Zm.51-.91h0Zm.6-.69.08,0,.08.16-.31.16-.11-.19.19-.07.06.08s.07,0,0,0ZM14,16.84l0,.06-.08,0v0c0-.06-.11,0-.08.05h0l-.24.09,0-.09Zm.24-.08a.06.06,0,0,0,0,0l-.06,0,0,0ZM15,15.5h0v0l-.27.11h0Zm.83-.63h0v0l0,0Zm-4.06,3.61v0h-.12Zm.12,0,.21,0,0,.05-.22,0Zm1.73-.59.18-.09.1,0h0l.1,0h0s0,0,0,0l.16-.05,0,.06-.08,0-.31.07h0l-.23.06Zm2.11-1.66h0l-.15.07,0,0Zm.21-.36.25-.1.06.1-.26.09ZM14,18.06l.18,0-.44.17v0Zm1.16-1.12h0l0,.06h0Zm.12-.24h0l.06,0a.09.09,0,0,0,.07,0l.19-.06,0,.05-.07.06-.24.06,0-.09Zm-1.64,1.5v0c-.28.11-.54.23-.83.32l.37-.17Zm2.09-1.05h0l-.2.07,0-.07.24-.14.07,0,.06.11Zm1-.86.13-.1,0,0Zm-.19.07h0Zm-.83.56h0l0,0-.2.08Zm-.21.15,0,0v0l.06,0A0,0,0,0,0,15.49,17.07Zm-.08.14,0,0h0l0,0Zm.51-.25.33-.11a.11.11,0,0,0,0,.07l-.29.14Zm1-.78,0,0,0,0h0a.09.09,0,0,0,.06,0h0l0,.06Zm-.6.2-.08.06v0Zm-.84.49-.06,0,0,0Zm-.17.22,0,0h0l0,0Zm0,.14,0,0,0,0,0,0Zm2-1.23-.15.08,0-.06.14-.08Zm-1.2.48,0,0-.37.15h0l.13-.11Zm-.81.63v0l0,0v0Zm-.07.22-.08,0,.07,0Zm.15.08h0l.09,0h0l0,0Zm1.5-1.92,0,.07,0,0,0-.08Zm-1.14,1.1h0Zm-.59.58v0l-.54.21h0Zm-.05.12-.22.13-.2.06v0Zm1.42-2.39v0l-.05,0-.09,0,0,0Zm.25.61,0,.09-.17.08-.07-.11Zm-1,.73.11,0-.2.08h0l.12-.06Zm-.57.56h0l0-.07h0Zm0,.1,0,0h0l0,0Zm-.7.51,0,0h0l0,0Zm.09.05h0Zm1.75-2.33.21,0,0,0,0,0-.16.08s0,0,0,.06a.06.06,0,0,0-.08,0h0l0-.07Zm.15.59-.16,0-.07-.11h0s0,0,0,0l.11,0Zm-1.26.95h0Zm-.16.09,0,.06h0l0,0Zm0,.28-.21.08-.1-.18.2-.11Zm-.24.09-.37.15,0-.06,0-.11.33-.16Zm-.44,0,0,0h0Zm0,.15h-.07l-.07-.13.06,0Zm-.14,0-.1,0-.06-.12.09,0Zm-.2.07-.22.07h0l0-.05.1,0s0,0,0,0l-.1,0v0l.23-.1Zm-.38,0v0l-.27.09v0Zm0,0,0,0-.27.09v0Zm.82,0h0a.06.06,0,0,0,0,.08h-.08l-.14,0,0-.06Zm-.34.37L14,18l.15-.07Zm-.35.17-.07,0,.06,0h0S13.85,18.06,13.85,18.07Zm-.47.12-.14,0,.19-.06Zm-.68.25,0-.06.54-.15C13,18.29,12.87,18.37,12.7,18.44ZM16,15.16h.15l-.14.07,0-.06Zm.2.09,0,.07-.14.07,0-.06Zm.12.18s0,.12.06.11h0l0,.05-.14.05-.1-.15Zm-.21.28-.25.09-.06-.1.23-.12Zm-.45.05,0,.08-.34.1v0Zm.07.14,0,0-.32.13,0,0Zm0,.08h0l-.14.05s0,0,0,.08l-.13,0,0-.05Zm-.43.24-.29.11,0,0,.28-.12Zm.05.09,0,0-.29.11,0,0Zm0,.11-.22.12v0Zm-.68.46h0Zm0,0L14.4,17v0l.32-.11Zm-.34.15h0l0,0h0Zm-.06,0,0-.05.06,0,0,.06Zm-.05.08-.05,0-.05-.1,0,0Zm-.12,0-.09,0-.05-.1.08,0Zm-.2,0-.25.07,0,0,.24-.1Zm-.34.1-.27.08h0l.26-.1Zm-.26.33h0v0h0Zm0,0v0h0v0Zm.53.3.2,0-.22.11h0a0,0,0,0,0,0,0l-.11.05,0,0Zm-.3.14c-.31.1-.63.2-.94.27l0-.08,1-.25Zm-1,.34h0l0,.07-.19.08s0,0,0,0h0l-.08-.14Zm-.27,0,0-.07.19,0,.06.07Zm5.15-2,0,0h0s0,0,0,0h0l.1,0,0,0Zm-1.59-1.19,0,.07-.22.1,0-.07Zm.1.16,0,.07-.22.11,0-.08Zm-.32.24-.32.13,0-.08.31-.14Zm-.37.35h0Zm0,.08-.25.1v0Zm0,0,0,0-.28.11,0,0Zm-.36.2h0l0-.05h0Zm0,.05,0,0h0l0,0Zm.07.14v0h0v0Zm0,.1,0,0h0l0,0Zm0,.1h0v0l0,0L15,16.6l0,0Zm-.13.11-.11.05-.1,0-.07-.12.22-.09Zm-.25.1-.32.11,0-.06.18-.08a0,0,0,0,0,0,0l.1,0Zm-1.51.51h0Zm0,.31-.25.08.24-.1Zm-1.13.79.11.16L12,18.7l-.09-.18Zm5.57-2.18v0h0l0,0Zm-1.81-1.45h0l.07,0Zm-.61.54-.12.05h0Zm.23,0,0,.08-.31.14,0-.09Zm-.4.28h0c-.05,0,0,.12,0,.09h0l0,.07-.16.07-.12,0-.13-.25.27-.11Zm-.2.51,0,0h0l0,0Zm0,.06h0l0,0h0Zm0,0,0,.05h0l0-.05Zm.06.1,0,0,0,0,0,0Zm.07.13v0h0v0Zm-.15.09-.22.08h0l.22-.1Zm-.25.1-.12,0,.12-.05ZM12.88,18s0,0,0,0l.38-.16-.16.09s0,0,0,0l-.25.07,0,0Zm-1.12.51.12.2H11.7l-.15-.22Zm0,.23h0Zm-.15,0h-.1s0,0,0,0h.09Zm-.18,0h0a0,0,0,0,0,.06,0h-.24l.08,0Zm4.63-4.9v0l-.06,0s0,0,0,0Zm.18.58,0,0-.05,0h-.1Zm-1.57,1.78,0,.05-.23.09,0-.07Zm0,.07,0,.06-.22.09,0-.06Zm.06.11v0l-.22.09v0Zm-.24.13-.24.1v0l.23-.1Zm-.4.29,0,0,0-.06h0Zm-.62.24-.25.12-.06-.12.26-.09Zm-.67.94,0,0-.32.09h0Zm-1.39.52.14.2h-.07s0,0,0,0l0,0h0l-.08-.11Zm4.71-1h0l0,0Zm-.09-3.41h0Zm-.07.37a.09.09,0,0,0,0,.06h0l0-.06Zm-.14.13-.06,0h0l-.07-.11h.09Zm-.14.1h0Zm-.06.18-.19.09-.08-.14.18-.07Zm-.75.38-.16.09-.1,0-.13-.22.28-.11Zm-.28.41.14.21h0l-.13-.24Zm-.39.62.14,0,0,.07-.21.08s0,0,0,0l0-.07Zm0,.28v0h0l-.1,0v0Zm-.2.1h0Zm-1,.39.06.13h0l-.07-.13Zm-.06.19-.2.1-.09-.13.22-.09Zm-.61.62.19-.06-.19.07h0Zm-.87.44h0Zm-.33.23h.06l.05.07-.18,0,0-.07Zm4.67-4.53h0l-.05,0h0l-.2.11,0,0Zm-.13.26.06,0a.05.05,0,0,0,0,0l-.08,0Zm-.22.47-.18.06,0-.08.16-.06Zm-.31.1-.09,0,0-.06.1,0Zm-.15.05L14.9,15l0-.05.17-.07Zm-.31.11-.29.1,0,0,.28-.12Zm-.33,0-.08-.14.29-.12.08.15Zm.15.69.13.23h0l-.13-.24Zm-.7.73.23-.09.05.09h0l-.23.09Zm.13.08a0,0,0,0,0,0,.06l0,0h0l0-.07Zm-.11.13-.4.15v0l.11,0a.06.06,0,0,0,0-.08l.22-.08Zm-.51.16v0l-.26.1,0,0Zm-.78.45.1.14-.12.05h0l-.09-.16ZM12.3,18h0Zm-1,.41h0s0,0,0,0l0,0Zm-.15.07-.18,0h0l.17-.06Zm-.21.27a1.06,1.06,0,0,0-.27,0h-.08l.32-.09Zm5-5.06,0,.05-.1,0,0,0Zm-.39.53.13.2-.07,0-.12-.19Zm-.08.5-.16.06-.06-.1a.07.07,0,0,0-.06,0l.17-.06Zm-.35,0,.06.11-.1,0L15,14.69l.16-.06A0,0,0,0,0,15.13,14.7Zm-.11.17-.17.06-.08-.15.15-.06Zm-.29-.14,0-.07.13-.06.05.07Zm-.12,0-.29.12,0,0,.28-.14Zm-.12.75,0,0-.13-.23h0Zm.08.53-.48.18L14,16l.5-.18Zm-.72.56-.24.08s0,0,0,0l-.13,0,0-.08.37-.18Zm-.52.14-.26.09v0l.24-.13Zm-.36.12h0ZM13,17l0,0h0l0,0Zm-.12.09-.22.09h0l0,0,.24-.09Zm-.64.37.2-.08.09.16-.3.1-.12-.21.06,0S12.23,17.48,12.27,17.47Zm-.13.46,0,0L12,18l0,0Zm.06.07h0l-.13,0v0Zm-1,.42h0l-.17.05v0Zm-.32.12h0l-.39.09,0,0,.4-.09Zm5-4.77h0l0,0,0,0a0,0,0,0,0,0,0l-.12,0a.05.05,0,0,0,0,.06l-.06,0h0c0-.05-.1,0-.09,0l-.07,0,0-.07.23-.1s0,0,0,0l-.24.09,0,0C15.46,13.86,15.62,13.8,15.79,13.76Zm-.48.22,0,.07-.14.06,0-.06Zm.06.1,0,.06-.13.05,0-.06Zm.09.15.12.19-.1,0-.14-.18Zm-.12.28-.4.13-.05-.08.06,0s0-.09,0-.06l-.07,0h0l.37-.15Zm-.58,0,0,0-.12.06,0,0Zm-.21.14-.29.13,0,0,.29-.13Zm-.43.3,0,0h0l0-.05Zm0,.06h0l.09.14h0Zm.14.2v0h0v0Zm-.12.08-.45.19s0,.08,0,.07l.47-.18.15.29a.07.07,0,0,0,.05.1h0l-.5.19-.27-.45.52-.23Zm-.32.68-.21.07-.24-.44.18-.08Zm0,.07.14.23-.22.09-.13-.25Zm-.16.36-.37.16-.14-.28.37-.13Zm-.48.21-.24.12-.16-.31.25-.09Zm-.34.16,0,0-.17-.32,0,0Zm-.4.42,0,0-.11,0,0,0Zm-.11.09-.3.1,0,0,.3-.1ZM12,17.4l-.08,0,0,0,.09,0Zm0,.07.12.21h-.05l-.15-.2Zm-.22.53,0,0-.15,0,0-.07Zm.05.08,0,0-.17,0,0,0Zm-.28.1-.21,0,0,0,.21-.05Zm-.31.07h0l0,0h0Zm-1,.37v0h-.06s0,0,0,0h0l0,0Zm5.52-5.23-.05,0a.06.06,0,0,0,0,0l0,0Zm-.29.21a0,0,0,0,0,0,0h.07a.05.05,0,0,0,0,0l-.45.13,0,0Zm-.32.2-.22.07.2-.1ZM15,14a.06.06,0,0,0,0,.06l-.38.15,0-.06Zm0,.11,0,.05-.2.08s0,.06,0,0l.21-.09,0,.06-.37.16-.11-.16Zm-.29.37h0l-.11,0-.11-.2.09,0Zm-.23.1-.29.13-.13-.21.31-.12ZM14,14.9l-.53.25,0,0,.54-.24ZM14,15l.11.2-.54.2-.09-.15Zm-.5.43-.18.07-.07-.13.17-.08Zm-.28.1-.34.13-.06-.11.33-.14Zm.07.12.24.43-.36.13L13,15.78Zm-.24.6-.25.09-.21-.4.25-.1Zm-.35.12-.05,0-.21-.4.06,0Zm-.18.06-.16.06a0,0,0,0,0,0,.07l.17-.06.19.33-.1,0s0,.08,0,.11l-.09,0-.6-.87.35-.12Zm-.78,1,0,0-.06,0,0,0Zm.07.09.15.2-.09,0-.13-.2Zm-.17.28-.14,0-.12-.2.13,0Zm-.22.23h0l.05.09-.22.05-.05-.07Zm-.21,0h0Zm0,.13h0l-.05-.07h0Zm-.12.14-.17,0-.11-.15.17-.05Zm-.43,0,.1.13-.36.1a0,0,0,0,0,0,0l-.06-.1Zm-.29.23h0Zm-.22.13h0l0,0-.1,0Zm5.55-5.49.07.14-.07,0h0l0,0-.1-.16Zm-.12.32h0l-.07,0Zm-1.06.68,0,.06-.09,0,0-.07Zm-.58.66-.55.23-.15-.25.58-.22Zm-.62.26-.17.07L13,14.9h0l.16-.06Zm0,0,0,.05-.17.08,0-.06Zm-.23.17-.32.14,0-.07.33-.13Zm-.38.29.06.11-.26.1-.05-.1Zm-.28.23-.06,0,0-.09.07,0Zm-.19.07-.36.14,0-.07.37-.15Zm-.51.19h0l0-.06Zm.08.11.61.87-.09,0-.54-.9Zm.49.91-.3.1-.55-.9.31-.1Zm-.69.22-.33-.51.37.49Zm-.13.19,0,0-.13,0,0,0Zm-.26.1,0,0h0Zm0,.27-.14,0L11,17.65l.15,0Zm-.22.08s0,.09,0,.09h0l0,0h0l-.31-.41.09,0Zm-.29-.06.19.24-.17,0-.2-.26.17,0Zm-.19.27-.3.1L10.13,18l.3-.07Zm-.35.11-.22.08-.16-.24.24-.07Zm0,.16h0a.58.58,0,0,0,.05.11l-.1,0-.07-.11Zm-.08.16-.07,0s0,0,0,0l-.23-.06.24-.1Zm-6.07-5.4C2.84,11.38.94,9.37.79,7.22c1.5-.6,3-1.21,4.46-1.9q.54.83,1.12,1.63l-.61.33L5.1,6.42l.1-.06s0-.1,0-.07L5,6.35,4.6,5.77h0L5,6.36,2.46,7.72s0,.07,0,.05c.89-.41,1.74-.89,2.61-1.35l.66.86c-.46.25-.91.51-1.37.75,0,0,0,.07,0,0,.47-.23.93-.48,1.39-.73l.26.34s0,0,0,0l-.26-.33L6.42,7,7,7.76H7c-.53.29-1.08.55-1.63.81l-.16-.16h0l.12.17A19.81,19.81,0,0,0,2.85,9.9c-.08,0,0,.15.08.11L5.36,8.69,6,9.63c-.56.33-1.13.67-1.69,1-.05,0,0,.11.05.08L6,9.7c.32.49.64,1,1,1.45a.07.07,0,0,0,.11-.08,14.1,14.1,0,0,0-.9-1.49c.83-.51,1.67-1,2.49-1.55,0,0,0,0,0,0C7.87,8.52,7,9,6.18,9.51a6.23,6.23,0,0,0-.76-.86L7,7.79l.37.5A.08.08,0,0,0,7.5,8.2l-.35-.5,1.55-.89.08.1s.07,0,0,0l-.08-.1c.6-.35,1.21-.68,1.81-1,0,0,0,0,0,0l-1.82,1c-.19-.26-.39-.5-.59-.76l2.21-1.32s0,0,0,0L8.13,6c-.33-.43-.66-.87-1-1.3,0,0-.08,0-.06,0,.34.42.67.86,1,1.29l-1.51.85L5.44,5.24l.29-.13s0-.06,0,0l-.31.13L5,4.52A17.73,17.73,0,0,1,6.78,4s0,0,0,0a13.26,13.26,0,0,0-1.9.44l-.21-.31c.58-.23,1.15-.47,1.71-.74a0,0,0,0,0,0,0l-1.81.62c-.33-.51-.65-1-.94-1.55,0,0-.1,0-.07,0Q3.94,3.2,4.4,4A17.05,17.05,0,0,0,1.84,5.08a.07.07,0,0,0,.06.12c.86-.38,1.74-.72,2.61-1.07l.19.3A16.75,16.75,0,0,0,1.09,6.07c-.05,0,0,.12,0,.1C2.35,5.58,3.55,5,4.79,4.58l.43.69c-1.46.66-3,1.25-4.43,1.86a4,4,0,0,1,1-2.83c.27-.33.65-.85,1.11-1.39l.13-.13h0l.25-.28c.15-.16.3-.32.46-.47s.4-.36.6-.53h0l0,0,.13-.09h0L5,1.06l0,0,0,0A2.81,2.81,0,0,1,6,.76,1.72,1.72,0,0,1,6.92,1l0,0c1.9,1.63,9.67,3.1,8.15,6.31a4.46,4.46,0,0,0-.43,2.69s-.06,0-.05,0a8,8,0,0,0,.77,2.1l.1.26c0,.09,0,.18.07.27l-.17.09a0,0,0,0,0,0,.06l.18-.07,0,.12-.21.07-.19-.3s-.06,0,0,0l.18.29h0a0,0,0,1,0,0,.09h0l.05.08s0,.06,0,0h0l.11.17-.06,0a0,0,0,0,0,0,0l-.34.2h0l-.06-.09.21-.07c.06,0,0-.12,0-.09l-.22.1,0,0,.41-.15a0,0,0,0,0,0,0l-.41.16-.1-.16a3.45,3.45,0,0,0,.36-.1,0,0,0,0,0,0,0,3.36,3.36,0,0,1-.36.1l-.42-.68a0,0,0,0,0,0,0l.42.68-.32.09s0,0,0,0l.32-.09.1.16-.43.18s0,0,0,0l.43-.18,0,0-.08,0s0,.08,0,.07l.1,0,.06.1-.09,0s0,0,0,0l-.1,0s0,0,0,0h0l-.49.23a20.77,20.77,0,0,1-1.57-2.35s0,0,0,0A20.11,20.11,0,0,0,14.41,14l-.06,0,0,0c0-.06-.12,0-.09.06l0,.08c-.1,0-.21.08-.31.14l-.31-.51s-.09,0-.06,0c.13.21.24.43.37.64-.67-1-1.36-2-2-3.08,0,0-.07,0,0,0,.51.93,1.08,1.83,1.65,2.72,0,0,0,0,0,0l.19.36-.57.23c-.47-.79-.92-1.59-1.34-2.41,0,0-.09,0-.06,0,.42.81.88,1.61,1.34,2.4l-.14.06s0,0,0,0l-.6-1s-.1,0-.07,0c.25.44.5.88.75,1.32l-.33.13c-.21-.39-.41-.79-.63-1.17,0-.05-.11,0-.08.05.21.38.41.77.6,1.16l-.26.1c-.22-.42-.44-.84-.67-1.25l.48.8c0,.06.12,0,.09-.06q-1.13-1.88-2.3-3.74s-.07,0,0,0c.51.87,1,1.74,1.56,2.61,0,0,0,0,0,0,.32.56.61,1.14.9,1.72l-.07,0c-.21-.38-.42-.76-.61-1.15,0-.07-.13,0-.1.07.19.38.39.76.59,1.14l-.38.16c-.85-1.24-1.68-2.48-2.43-3.77,0,0-.08,0-.06,0a40.26,40.26,0,0,0,2.12,3.46,0,0,0,0,0,0,0l.2.32-.11,0c-.07,0,0,.14,0,.11l.13-.06,0,.06-.28.11s0,0,0,0c-.41-.65-.82-1.3-1.22-2a0,0,0,0,0,0,0c.57,1,1.15,2,1.72,3l-.11,0-.62-.76s0,0-.05,0l-.95-1.39a0,0,0,0,0-.06,0c.47.72.89,1.47,1.33,2.21l-.13,0c-.38-.63-.79-1.25-1.18-1.87,0,0-.08,0-.06,0,.38.62.73,1.25,1.09,1.88h0c-.57-1-1.19-1.87-1.76-2.82h0c.52,1,1.07,1.93,1.66,2.85l-.15,0c-.16-.23-.33-.46-.47-.7,0,0-.06,0,0,0,.14.24.29.47.44.7l-.1,0c-.31-.39-.63-.79-.93-1.19.26.43.53.85.82,1.26a0,0,0,0,0,0,0l.08.12-.17,0c-.28-.36-.57-.72-.82-1.09a0,0,0,0,0-.06,0l.73,1.08L10.1,18c-.33-.55-.67-1.09-1-1.61,0,0-.07,0,0,0,.38.51.72,1,1,1.59l-.24.07c-.14-.22-.27-.44-.43-.64,0,0,0,0,0,0-.51-.93-1-1.86-1.59-2.77-.06-.1-.21,0-.15.1a29.56,29.56,0,0,0,2,3.54.1.1,0,0,0,.17-.11l0,0,.06,0,.16.24-.37.16-.22-.07-.8-1.25s-.07,0,0,0l.77,1.18C7.17,17.64,5.66,15.6,4.06,13.21Zm2.55-6.3L8.11,6c.2.25.4.5.59.76l-1.56.87ZM9.42,17.54c.13.18.24.36.36.55l-.05,0Z"/><path class="cls-1" d="M8.85,14.81l.22.38a4.3,4.3,0,0,1-.16-.41S8.83,14.77,8.85,14.81Z"/><path class="cls-1" d="M9.79,16.42q-.37-.61-.72-1.23A6.61,6.61,0,0,0,9.79,16.42Z"/><path class="cls-1" d="M6.75,15.11c.56.68,1.09,1.39,1.62,2.1,0,0,.12,0,.08-.05-.54-.7-1.09-1.4-1.66-2.08C6.78,15,6.73,15.08,6.75,15.11Z"/><path class="cls-1" d="M15.45,13.47h0s0-.08,0-.08-.05,0-.07,0A0,0,0,0,0,15.45,13.47Z"/><path class="cls-1" d="M10.19,10.5c-.36-.49-.76-.95-1.1-1.45a0,0,0,0,0,0,0,15.18,15.18,0,0,0,1.07,1.47S10.22,10.55,10.19,10.5Z"/><path class="cls-1" d="M12.51,7.37q-.21-.35-.44-.69a3.08,3.08,0,0,0-.41-.62h0c0,.44.54,1,.79,1.35A0,0,0,0,0,12.51,7.37Z"/></svg>