<svg id="Layer_1" data-name="Layer 1" xmlns="http://www.w3.org/2000/svg" viewBox="0 0 46.74 45.76"><defs><style>.cls-1{fill:#231f20;}</style></defs><title>ilustracije_razmerje</title><path class="cls-1" d="M46.66,27.51s0-.07,0-.11a11.19,11.19,0,0,0-3.55-3.53,15.6,15.6,0,0,0-7.67-2.55,15.89,15.89,0,0,0,8.85-9.81.21.21,0,0,0,0-.11,1.21,1.21,0,0,0,.06-.38.12.12,0,0,0-.14-.11.11.11,0,0,0-.1,0l0,0a19.53,19.53,0,0,0-13.29,2.83C33,9.61,33.71,5,31.43.4a.28.28,0,0,0-.12-.12h0l0,0a.63.63,0,0,0,0-.07s0,0,0,0L31.14.11l0,0h0a.33.33,0,0,0-.4,0s0,0,0,0a2.51,2.51,0,0,0-.7.29l-.2.12h0l0,0a11.19,11.19,0,0,0-1.4.85,14.56,14.56,0,0,0-5.21,5s0,0,0,0l0,.09c-.22.24-.45.46-.66.71,0,0,0,0,0,0,.18-.2.37-.39.55-.58-.13.22-.26.43-.37.65a.13.13,0,0,0-.08.07c-.14.25-.26.52-.38.8a.08.08,0,0,0-.06.06c-.08.23-.15.45-.22.69a12.29,12.29,0,0,0-.39,1.43c0,.17-.08.35-.12.52a.05.05,0,0,0-.11,0,11.28,11.28,0,0,0-.17,1.65v0s-.09,0-.09.05a5.3,5.3,0,0,0,0,.62v0c-1.5-5-4.06-9.77-8.79-11.56h0a.69.69,0,0,0-.25,0h-.07a.1.1,0,0,0-.06.05l0,0s0,0,0,0a.52.52,0,0,0-.17.13.17.17,0,0,0-.12.08C9.62,4.87,10.85,9,12.13,12a5.07,5.07,0,0,0,.25.54,22.59,22.59,0,0,0,1.79,3.26c-4.51-3.29-9.9-5.31-13.91-1.1a.25.25,0,0,0-.07.17.14.14,0,0,0-.11.18l0,.14a.35.35,0,0,0,0,.07v0l0,0h0a.23.23,0,0,0,0,.11C2.06,20.4,7,23.22,12,23.44c-4.11.86-8,2.77-10.06,6a1.53,1.53,0,0,1,0-.26h0a2,2,0,0,0-.06.32A9.7,9.7,0,0,0,.51,33.18,5.63,5.63,0,0,0,.37,34s0,0,0,0a.58.58,0,0,0,0,.22h0a.54.54,0,0,0,0,.15h0l.14.11s0,0,0,0l.06,0a.24.24,0,0,0,.1.12c3.8,2.25,8.27,1.1,12.18-1.37-.23.37-.45.74-.64,1.12a8,8,0,0,0-.7,5.58c0,.11,0,.22,0,.32s0,0,.07.05a21.48,21.48,0,0,0,2.49,5.2c0,.09.07.17.17.15a.19.19,0,0,0,.21-.07c5.23-1.69,8.26-6.53,9.07-11.78a12.4,12.4,0,0,0,2.59,5.17,14.7,14.7,0,0,0,9.07,4.63l.46.09a.12.12,0,0,0,.09,0,.13.13,0,0,0,.2,0,7.21,7.21,0,0,0,.4-1.36,10.92,10.92,0,0,0,.47-2.42A7.05,7.05,0,0,0,37,39a8,8,0,0,0-.25-2,0,0,0,0,0-.06,0c0,.07,0,.14,0,.21a15.16,15.16,0,0,0-3.9-7.48c4.71,1.47,10,1.19,13.57-1.67h0l.17-.15s0,0,.06,0l.06-.07A.17.17,0,0,0,46.66,27.51Zm-1.18.09s0,0,0,0l0,0a.07.07,0,0,0,0,.06h0l-.07,0Zm-.05.16h-.06l.14-.06h0Zm.08,0-.24.13.17-.12Zm-.22-.16.09,0,.09.05-.17.08A.07.07,0,0,0,45.29,27.65Zm0-.14h.08l-.08,0-.19-.12a0,0,0,0,0,0,0l-.1,0L44.54,27l.25.05.11.1s0,0,0,0l.27.17.17.13h-.07S45.27,27.51,45.31,27.51Zm-2.05-.65.43,0,.23.17A0,0,0,0,0,44,27l-.12-.09h.06L44,27s0,0,0,0l.32.06.35.2L44.21,27s-.06,0,0,.06a6.22,6.22,0,0,0,.8.31l.26.16-.14,0A14.92,14.92,0,0,1,43.25,26.86Zm1.83.86H45l.08,0Zm-.77-1.13-.44-.29.18.1s.07,0,0-.06l-.45-.27a3.15,3.15,0,0,0,.41.18s0,0,0,0q.52.44,1.06.85l-.11,0h0l-.53-.4a1.26,1.26,0,0,1-.13-.16s-.07,0-.05,0Zm.58.12.26.24a0,0,0,0,0,0,0l-.25-.24a.05.05,0,0,0,0-.07l.08.07a.08.08,0,0,0,0,.05c.06.08.11.18.17.26l-.37-.32Zm-.11-.28.23.23-.07-.06A1,1,0,0,0,44.78,26.43Zm.43.64.08.14-.05,0s0,0,0,0h0l-.79-.66.14.09C44.78,26.74,45,26.9,45.21,27.08Zm0,.14s0,0,0,0l-.1-.06.07,0Zm.07,0a0,0,0,0,0,0,0l0,.07Zm0-.53-.18-.15L45,26.43Zm-.76-.52.19.19-.23-.17S44.56,26.24,44.57,26.22ZM44.12,26l-.22-.18.24.12.29.27Zm.22-.14h0c-.11-.09-.21-.2-.33-.29ZM38.9,22.67c.59.22,1.17.49,1.77.74h.05l1.43.77c.61.42,1.22.85,1.8,1.32a0,0,0,0,0-.06,0c-.19-.16-.4-.31-.6-.46l0-.06s0,0,0,0c-.54-.39-1.12-.73-1.67-1.08a0,0,0,0,0,0,0c.59.4,1.17.8,1.72,1.23a1.85,1.85,0,0,0,.39.43,2.23,2.23,0,0,0-.24-.17c-.06,0-.15,0-.11.1l0,.06a4.14,4.14,0,0,1-1.24-1.11c0-.06-.13,0-.09.08l.16.21a35.43,35.43,0,0,0-3.92-2.25Zm-1.14-3.74-.35.2.47-.3Zm4.1-4-.65.82c-.22.21-.45.39-.68.59a8.39,8.39,0,0,0,1.25-1.59s0,0,0,0l-.09.11c.06-.11.13-.22.18-.33h0c.18-.23.36-.46.55-.67l-.05.1s0,.1.07.06l.06-.09ZM42.69,13A4,4,0,0,1,42,14.2c0-.08.07-.15.09-.23s0,0,0,0A11.3,11.3,0,0,0,43,12.54c-.09.18-.18.36-.25.54,0,0,0,0,0,0a6,6,0,0,1,.34-.74h0l.08-.14.08-.06h0l-.07.19-.09.15s0,0,0,0c-.2.43-.4.85-.63,1.26,0,0,0,0,0,0-.17.18-.33.38-.49.57h0A4.06,4.06,0,0,0,42.71,13S42.7,13,42.69,13Zm.74-1.14,0,.05-.07,0,0-.09Zm-.07-.09h0Zm-.08.22,0,0,.07-.13h0Zm0,.08,0,.06,0-.05Zm.05,0h0v0l-.15.31,0-.1Zm-.17.37v0l0,0,.06-.17h0Zm-.08.06,0,.1,0-.1Zm-.2.6.09-.2s0,0,.06,0l.06-.14c0,.05,0,.1,0,.15h0l-.33.56A3.91,3.91,0,0,0,42.89,13.09Zm.82-1.55h0Zm-.08.2h0l0,.06h0Zm0,.12h0l0,.1v0s0,0,0,0Zm-.07-.19h0Zm0,.28,0,.16-.1.25-.31.53c0-.06,0-.12,0-.18l.1-.22a0,0,0,0,0,.05,0,1.87,1.87,0,0,0,.17-.36l0,0h0l0-.08Zm-.06-.17h-.09v0h0s0,0,0,0h0Zm0-.1h0s0,0,0,0v0l-.09.07-.08,0H43.1s0,0,0,0h0a1.75,1.75,0,0,0,.21-.14h.1Zm-.4.07h0l.22-.07-.1.05s0,0,0,0,0,0,0,0Zm0,.19-.14.09a0,0,0,0,0,0,0Zm0-.31h0Zm.34-.17,0,0h-.41Zm-.58.18.14,0-.16,0A0,0,0,0,0,42.8,11.64Zm-.28.11a0,0,0,0,0,0,0h.15l-.17,0h0Zm-.32-.57h0Zm-3.78.22h0l-.14,0Zm-1.64.31.18,0-.39.09Zm-5.11,2.46a27.78,27.78,0,0,1,4.45-2,35.66,35.66,0,0,1,5.41-.61c-.07,0-.07.14,0,.14h.13a7.62,7.62,0,0,0-1.48.11s0,.08,0,.08c.59,0,1.17,0,1.76,0,0,0,0,0,0,0h0l-.2.06s0,.06,0,.06l-.14,0c-.05,0,0,.09,0,.09l.34-.07h0l.08,0,.19,0h0l-.22.08s0,0,0,0a2.44,2.44,0,0,0,.42-.15l.42-.11s0,.06,0,.06h0a4.26,4.26,0,0,0-.39.22,4,4,0,0,0-.38.17s0,0,0,0l-.13.07s0,.07,0,0l0,0s0,.06,0,0a4.68,4.68,0,0,1,.46-.31l.08,0,.15-.07-.48.33s0,.06,0,0,.23-.16.35-.25,0,0,0,0l-.13.11s0,.06,0,0a3.26,3.26,0,0,0,.49-.43h.07l-.08.14-.09,0s0,0,0,0l0,0,0,0s0,0,0,0l-.2.14a1.8,1.8,0,0,0-.39.27,0,0,0,0,0,0,0l.26-.18h0l.15-.1c-.13.18-.27.37-.4.55s0,.1.08.05c.15-.23.31-.46.46-.69l.09-.06-.08.14A15.3,15.3,0,0,1,42,13.93s0,0,0,0c-.15.19-.31.37-.47.55,0,0,0,0,0,0l-.6.52c.1-.13.2-.27.28-.41s0,0,0,0c-.11.17-.24.33-.36.49l-.62.52c.39-.39.77-.79,1.15-1.19l.24-.07s0,0,0,0l-.2,0s0,0,0,0l0,0-.19.07a4.84,4.84,0,0,0,1.2-1.82,0,0,0,0,0-.06,0,4.94,4.94,0,0,1-1.07,1.63,12.25,12.25,0,0,0,.81-1.3s0-.06,0,0a12.2,12.2,0,0,1-1.21,1.73A10.67,10.67,0,0,0,39,16s0,.05,0,0c.4-.36.82-.78,1.27-1.13,0,0,0,0,0,.06-.24.28-.48.56-.74.83,0,0,0,.09,0,.06a8.7,8.7,0,0,0,1.14-1.2l.18-.14.22-.09q-.82.83-1.67,1.63l-.4.31s0,0,0,0l0,0-.4.37a0,0,0,0,0,0,.05c.32-.27.62-.56.92-.84s.59-.44.87-.68l-.1.12-.19.19c-.14.11-.27.23-.41.34s0,0,0,0l.32-.27a23.4,23.4,0,0,1-2.45,2.1c-.68.45-1.38.88-2.1,1.3,0,0,0,.08,0,.06l.85-.47a5.46,5.46,0,0,1-1.49.73s0,0,0,0a6.31,6.31,0,0,0,2.08-1.1,13.15,13.15,0,0,0,3.15-2.62l.33-.35.47-.44a6.21,6.21,0,0,0,.79-.84l-.13.18s0,.06,0,0L42,14a7.23,7.23,0,0,1-3.14,3.3s0,.11.05.08a9,9,0,0,0,2-1.57A9.07,9.07,0,0,1,39.72,17s0,0,0,0c-.19.16-.36.33-.55.48-1.11.7-2.22,1.37-3.36,2a41.67,41.67,0,0,1-4,1.66l-.24.06c-.36.07-.72.16-1.07.25s-.81.12-1.21.2l.18-.1s0-.07,0-.06a1.94,1.94,0,0,1-1.44.07c.25-.07.5-.13.74-.23,0,0,0-.09,0-.07-.28.1-.57.18-.86.25l-.2-.1c.14-.09.29-.17.42-.27s0,0,0,0l-.32.17.06-.16c.21,0,.41,0,.62,0a14,14,0,0,0,3.49-.55,14.06,14.06,0,0,0,3.37-1.07,0,0,0,0,0,0-.05,16.4,16.4,0,0,1-2.41.82s0,0,0,0l-.88.25c-.76.16-1.54.29-2.32.4,0,0,0,0,0,0l-.35.07h-.06a25.66,25.66,0,0,0,2.65-.78s0-.08,0-.07l-.92.31h0c-.79.21-1.58.45-2.38.61,0,0,0,0,0,0l-.4,0h-.27l.12-.32a19.15,19.15,0,0,0,3.44-.63,7.66,7.66,0,0,0,2.25-.68,0,0,0,0,0,0,0,7.66,7.66,0,0,1-1.88.61,15,15,0,0,0,2.71-1.1s0-.07,0,0a15.33,15.33,0,0,1-3.6,1.3c-.76.1-1.53.16-2.3.25,0,0,0,0,0,0,.62-.07,1.24-.11,1.86-.17-.79.17-1.59.3-2.39.4l.11-.28s0,0,0,0a17.23,17.23,0,0,0,1.08-1.58,0,0,0,0,0-.06,0c-.36.51-.7,1-1,1.56l.16-.38c.33-.59.68-1.16,1.05-1.72,0,0,0-.09-.07,0-.2.3-.4.6-.59.91,0,0,0,0,0,0a7.57,7.57,0,0,0-.53,1l-.08.14s0,0,0,0-.1.27-.15.41l-.28,0s0,0,0,0l0,0h-.06s0,0,0,0l-.14.07c.19-.47.4-.94.62-1.39a7,7,0,0,0,.46-.71c.38-.43.78-.84,1.2-1.24a0,0,0,0,0,0,0c-.23.2-.44.42-.65.64l.78-.87s0-.08,0,0c-.35.38-.71.76-1.05,1.15,0-.07,0-.15.07-.22a14.05,14.05,0,0,1,3.8-3.52s0-.05,0,0a13.72,13.72,0,0,0-3.69,3.28v0s0-.06-.06,0-.06.14-.09.21l-.09.11s0,0,0,0c-.25.27-.56.54-.88.83h0l-.11.13-.26.25c.06-.09.13-.17.18-.26s0,0,0,0A18.47,18.47,0,0,0,29.3,16.4s0,0,0,0a19.08,19.08,0,0,1-1.92,2.55,0,0,0,0,0-.07,0l-.13.18-.11.1a0,0,0,1,0,0,0l0,0a7.32,7.32,0,0,1-.48.6s0-.08,0-.12,0,0-.05,0,0,.14,0,.22h0a0,0,0,1,0-.08,0s0,.06,0,.09l-.07.07c.05-.18.11-.36.17-.54a0,0,0,0,0-.05,0l-.2.56c0-.11,0-.21,0-.32a0,0,0,0,0-.06,0,4.3,4.3,0,0,0,0,.47l0,0h0s-.05-.07-.07,0l0,.06c0-.1,0-.2.08-.3s-.05-.06-.06,0,0,.19-.07.28,0-.1,0-.15a0,0,0,0,0-.07,0,2.91,2.91,0,0,0-.1.46l0,0a2.6,2.6,0,0,1,0-.56l.07-.07a28.32,28.32,0,0,0,3.23-3.68,0,0,0,0,0,0,0c.12-.15.24-.28.37-.42A14.22,14.22,0,0,1,31.68,14.16Zm9.18.91-.18.17s0,0,0,0l0-.06.1-.09a0,0,0,0,0,0,0Zm-8.87,7h-.08l0,0H32Zm-2.59.43-.17,0h.17Zm-1.67.88-.51.12s0,0,0,0l-.17.06H27l0-.09a3.7,3.7,0,0,1,.57-.16s0,0,0,0l.17,0Zm.06.26h0Zm-.14-.05h-.4l.44-.12ZM29,24l-.6.09s0,0,0,0c-.24-.07-.48-.14-.72-.23v0A6.53,6.53,0,0,0,29,24Zm-2.18.54,0,0h.05l.14.1s0,0,0,0l.27.18Zm-.06-.24c0-.05,0-.1,0-.15h0s0,0,0,0c.18.1.36.18.55.27h0Zm-.26-.12a3,3,0,0,0-.38-.19h0l.29,0a0,0,0,0,0,0,0l.25.09s0,.1,0,.15Zm.12.31s0,0,0,.06l-.17-.11.17,0Zm1.57,3.18c.6.45,1.17.93,1.72,1.42a36.49,36.49,0,0,0-4.14-2.61l.1,0c.22.15.45.3.69.43,0,0,0,0,0,0-.23-.13-.44-.28-.66-.43l.08,0,.15.08a10.91,10.91,0,0,0,1,.54s0,0,0,0l-.45-.27.08,0s0,0,0,0a2.78,2.78,0,0,1-.42-.17l-.25-.16.27-.09.59.41a16.69,16.69,0,0,0,2.52,1.64l.58.49a28.8,28.8,0,0,1,2.1,2.08q-.92-.76-1.87-1.47a26.32,26.32,0,0,0-2.13-1.78S28.17,27.7,28.19,27.71Zm-4.43-1.05v.07s0,0,0,0v-.09l0,0c0,.11,0,.22-.06.33v-.09h0s0-.09,0-.14Zm0-.1c0-.09,0-.18,0-.27h0c0,.08,0,.16,0,.25Zm.11-.71a.79.79,0,0,0-.07.09s0,0,0,0v-.07l.09-.08c0,.11,0,.22,0,.33l0,0,0,0a0,0,0,0,0,0-.06h0v0h0a.74.74,0,0,1,.09-.11S23.86,25.84,23.85,25.85Zm.09-.06a.58.58,0,0,1,.09-.1l0,.11a1.1,1.1,0,0,0-.13.2c0-.07,0-.13,0-.2Zm0-.08h0l0,0Zm-.12,0a0,0,0,0,0,0,0v0h0l.05-.1s0,0,.06,0l.07-.05,0,.06Zm0,.62,0,0h0l0,0c0,.06,0,.12,0,.18v0h0l0,.05V26.3S23.8,26.3,23.8,26.29Zm0-.09v0h0Zm.05,1.31s0,0,0,0h0a.08.08,0,0,0,.06,0,0,0,0,0,0,0,0s0-.06,0-.09a1,1,0,0,1,0-.15s.07-.08.1-.13c0,.17,0,.34,0,.51a1.58,1.58,0,0,0-.27.09S23.82,27.55,23.82,27.5Zm.13-.82c0-.09,0-.18,0-.27s0-.18.05-.26,0,0,0,0l.07-.06.07,0s0,0,0,0h0l0,.06a4.24,4.24,0,0,0-.08.66A.1.1,0,0,0,24,26.68Zm.18-1.62h0Zm.17.34,0,0h0Zm0,.12h0l0,0h0Zm.05,1-.07.06-.08-.31v0Zm.09.14,0,.06,0,.23-.13.07c0-.09,0-.18-.06-.27Zm-.3-1.28v0l0,0h0S24.19,25.33,24.19,25.34Zm0,0h0a0,0,0,0,0,0,0l0,0S24.21,25.38,24.23,25.37Zm0,.9.06.28-.12.11C24.2,26.53,24.23,26.41,24.25,26.28Zm0-1.4-.11,0,.11-.1,0,0Zm-.08,2.06a2.13,2.13,0,0,1,.18-.21c0,.09,0,.18.05.27l-.09,0s0,.08,0,.05l.05,0q0,.22.08.45a1.63,1.63,0,0,0-.33,0v-.06C24.16,27.29,24.16,27.11,24.17,26.93Zm.27.11.13-.07a5.23,5.23,0,0,1,0,.54h-.08Q24.49,27.28,24.44,27Zm.16-.17,0-.08,0,.07Zm0-.52-.23-.5c.11.15.23.29.35.43Zm-.23-5.48,0,0h0Zm0,.83,0,0h0Zm-.07-2.13h0v0a0,0,0,0,0,0,0l0,0h-.07l.13-.22h.06a.05.05,0,0,0,0-.11h0l0,0s0,.11.07.08Zm-.16.54h0l.06-.1h0a.07.07,0,0,0,.06.07l0,.06h-.05A0,0,0,0,0,24.13,20.13Zm-.77-1.7a16.62,16.62,0,0,1-.19-2.51l.11.22c0,.15.08.31.13.47s0,0,0,0c0,.5.08,1,.13,1.5,0,.11-.07.21-.1.32Zm.06.25v0Zm-.25.79.14.05v0Zm.11.31h0Zm0,0-.15,0-.1,0,0-.09Zm-.14-.5h-.05l-.14-.06v0a1.5,1.5,0,0,0,.4,0v0Zm-.58.34h-.05l-.08-.47.08.07c0,.1,0,.19,0,.29a0,0,0,0,0,.07,0v0l.05,0a.1.1,0,0,0,.07.1h0l0,0s0,0,.06,0l0,.06Zm.16,1.09,0,0h0v0l0,0Zm-.06-.17h0Zm0-.42a.11.11,0,0,0,0,0v0l0-.18.05,0A.07.07,0,0,0,22.6,20.16Zm-.2-1.68-.15-.06v0Zm-.16-.13,0-.21.21.11.11.11s0,.09,0,.13A3,3,0,0,1,22.24,18.35Zm.27.28c0,.07,0,.14,0,.22h0a0,0,0,0,0,0,0h0V19l-.09,0s0-.1,0-.1h-.06l-.05-.29Zm-.1.43,0,0v0Zm.24.36a.06.06,0,0,0-.06.06h0s0-.1,0-.15Zm-.07-.28,0,0,0,0h0Zm.17,1.29h0ZM22.56,19v-.09l.23,0h0s0,0,0,0h0a0,0,0,0,0,0,.06Zm.22-.29h0s0,.07,0,.11,0,.06,0,.08h0v0l-.23,0c0-.07,0-.14,0-.21Zm-.19-.17s0-.08,0-.12l.19.09s0,.07,0,.1h0l-.08,0Zm.23.69h0Zm.4-.42h0s0-.06,0-.07l-.07,0-.05-.14.12.05,0,.18Zm.07.14,0,0-.08,0h.06ZM23.1,19v0L22.88,19H23s0,0,0,0h0Zm-.21.56h0Zm.15-.7-.19-.07s0,0,0-.07l.18.07,0,.07Zm-.2-.26s0-.06,0-.1l.1,0,0,.12Zm0-.28v0l0,.05Zm0-.41c0-.15-.08-.3-.11-.45,0,.11.09.23.14.34Zm0,1.72h0l0,0,0,.11h-.11S22.84,19.68,22.84,19.64Zm.44-.54h0l.07,0h0Zm.07-2.81.06.09,0,.21C23.4,16.49,23.38,16.39,23.35,16.29Zm.32,2.54,0,.13-.16,0v-.05Zm-.09-.22v-.07h0v.1Zm.64-.27-.08,0h0Zm0-.1a3.09,3.09,0,0,0,.52-.39l-.14.15,0,0h0l-.07.07ZM25,18.1l-.22.22s0,0,0,0l.29-.29.19-.14-.1.14-.92.72-.2,0,0-.06A6.34,6.34,0,0,0,25,18.1Zm.55-.6-.45.31s0-.06-.06,0h0c.23-.16.45-.34.66-.52Zm.17,0-.17.22.11-.17Zm-.9,7.57h-.14a0,0,0,0,0,0-.09Zm-.13-5.31v0h0Zm0,1.35v0h0s0,0,0,0Zm.16,3L24.79,24h0l0-.08A.4.4,0,0,0,24.89,24.1Zm0-2v0l0,.06h0Zm0-.71h0l0-.18s0,0,0,0S24.9,21.4,24.88,21.44Zm0,3.7a0,0,0,0,0,0,0l.1.07h-.08l-.17,0h.13Zm.18.1h0s0,0,0,0ZM25,24h0Zm.87-2.77c0,.06,0,.11,0,.17l0,0-.07-.1v0Zm0-.63,0,0s0,.08,0,.12Zm.12,1s0,.08,0,.12h0l-.09-.05h0Zm-.06-.13h0v0h0Zm.61-.72c0,.06,0,.13,0,.19l-.15,0h0s0,0,0,0,0-.05,0-.08Zm0-.07v0Zm1.33-1.58a3.78,3.78,0,0,0-.93,1.79l-.18.08c0-.09-.06-.19-.09-.28l.2-.13s0-.05,0,0l-.2.11,0-.08c0-.05,0-.1,0-.15a2.79,2.79,0,0,1,.28-.5l.21-.28c.36-.44.81-.83,1.21-1.23C28.1,18.59,28,18.84,27.8,19.08Zm.62-.75c-.06.11-.13.21-.19.32l-.21.26h0Zm-.78,3-.08,0-.18-.09a0,0,0,0,0,0,0l.14.09-.26.12a1,1,0,0,1-.16-.21l.1-.25c.17,0,.34,0,.52,0l-.07.18S27.63,21.31,27.64,21.32Zm.13.38s0,0,0,0l-.27-.05h0l.37-.08.15.06A1.16,1.16,0,0,0,27.77,21.7Zm.36,0,.2,0a4.42,4.42,0,0,1-.49,0A1.48,1.48,0,0,1,28.13,21.69Zm-.81-.06h0l.27-.16.17.08Zm-.39,2.05h0l.07,0Zm.17,0h0l-.22,0v0Zm-.19-.14-.07,0s0,0,0,0l-.16.06.25-.19h0Zm-.06.14,0,0h-.19l.17-.06s0,0,0,0Zm-.53-.14s0,0,0,0l.28-.12s0-.09,0-.07l-.32.13.21-.17h0l.81-.06.14,0A4.25,4.25,0,0,0,26.32,23.57Zm.33,0,0,0h0Zm-1.21.31s0,0,0,0h0l0,0,0,0Zm0-1.72v0h0Zm.06-.15-.08-.14s0,0,0,0l0,0h.17a0,0,0,0,0,0,.06h-.12s0,0,0,0h.13a.51.51,0,0,0,0,.1Zm-.29.88,0,0,.23-.05Zm.13,1.23,0,0h0l0,0Zm-.09-2v0h0v0Zm0-.18v0s0,.06,0,.09Zm0-.08v-.08h0a.77.77,0,0,0,0,.08Zm.1.26h0v0h0Zm.29-.5-.11-.14.1-.07a1.58,1.58,0,0,0,.05.23Zm.06.05v0h0l0,0Zm-.19-.07,0,0,.07.1h-.07s0,0,0,0Zm0,0,0-.05h0l.05.07Zm.11-.74s0,.09,0,.14,0-.09,0-.13Zm0,0v0h0Zm0,.37h0v.05l0,0Zm0-.61h0s0,.09,0,.13,0,0,0,0v0s0,.07,0,.11l-.09.09a4.07,4.07,0,0,1,.2-.51Zm-.08.31a1.32,1.32,0,0,0,0,.19s0,0,0-.07a0,0,0,0,0,0,0,1,1,0,0,0,.1.28l-.12.12,0-.06c0-.06,0-.12,0-.18l0-.17Zm-.13.45,0,0s0-.06,0-.1S25.34,21.31,25.34,21.36Zm0,.38h0v0a0,0,0,0,0,0,0s0,0,0-.05A1,1,0,0,0,25.36,21.74Zm0,.85-.08,0h.08Zm0-.59,0,0h0Zm.15.14h0S25.52,22.14,25.52,22.14Zm.11-.27v0l0,0,0,0Zm.07,0,0,.08h-.06l0-.08Zm0,1.91h0l.12-.13,0,.06a.82.82,0,0,0-.09.13h0v-.06Zm.06-2.2h0Zm0,.53v0h.06l0,0Zm0-.4h0Zm.06,1.89,0-.05,0,0Zm0,.26h0v0S25.9,23.89,25.91,23.89Zm-.06-2.35,0-.06h0l0,0Zm0,.31h0l0,0h0Zm0,2.14h0l.16.08-.17,0Zm.06-.1a0,0,0,0,0,0,0l0,0h.23l-.06,0h0Zm0-.1h0Zm.14,0a1.4,1.4,0,0,0,.36-.08l-.1.07ZM26.42,22a.61.61,0,0,0,.1.15h-.25L26.16,22Zm0-.19.13,0,0,0-.12,0h0Zm-.16,1.52h.07l-.12.07-.06,0Zm.4-1.18h0a1,1,0,0,1-.14-.16l.17-.05a.47.47,0,0,0,.1.2Zm-.08-.34,0,0h.12Zm0-.12h-.08a1.63,1.63,0,0,1-.13-.21h0a1.81,1.81,0,0,0,.13.21l-.38,0v0a0,0,0,0,0,.06,0c0-.06,0-.11,0-.17h0a1.09,1.09,0,0,0,.11.15s.07,0,0,0a1.42,1.42,0,0,1-.1-.15l.22-.15s.06,0,.06,0h0a.05.05,0,0,0,.05.1l.11-.05,0,.09s.08,0,.07,0,0-.07,0-.1l.18-.08a.89.89,0,0,0,.25.44l-.22.08s0,0,0,0S26.68,21.65,26.59,21.66Zm.14-.62,0,0h0l-.07,0Zm.09-.05.06,0s0,0,0,0h-.06Zm.31.07-.07.18a.88.88,0,0,1,0-.17l0,0Zm0,0h0v0Zm.22,0h-.15l0-.06.39-.22.23,0c0,.1-.08.21-.11.31Zm-.35-.1a1.19,1.19,0,0,1,0-.24c.12-.23.26-.46.39-.68,0,0,0,0,0,0l.22-.29c-.17.36-.3.73-.44,1.09Zm-.4.2h0l-.05,0Zm-.16-.05,0-.15.15,0,0,.05Zm-.13-.62c0-.05,0-.11,0-.16l.15-.14v.06Zm.09.13s0,.09,0,.14h0v-.06Zm-.08.29h0Zm0,0c0,.07,0,.13,0,.2l-.27.14v0c0-.1.09-.19.13-.28l.06,0Zm-.18-.11.09-.27v.05C26.19,20.64,26.16,20.71,26.13,20.79Zm-.09,0h0a1.44,1.44,0,0,1,.07-.38h0l0,0C26.12,20.55,26.08,20.68,26,20.82ZM26,21v0Zm0-.21,0,.05s0,0,0-.05Zm0,1,0,0s0,0,0,0l.25,0v0h-.17v0a0,0,0,1,0,0,0v0H26v0Zm0,.09h0Zm-.06.17.07.06H26s0,0,0,0l0,0Zm-.11-.16,0,0h0l0,0Zm-.17-.78a2.8,2.8,0,0,1,0-.43l0,0a1.79,1.79,0,0,0,.09.41Zm0-.46c0-.08,0-.15,0-.23s0,.13,0,.19Zm0-.34,0-.16s0,0,0,0l-.06.26a0,0,0,0,0,0,0,4.32,4.32,0,0,0-.2.49,3.61,3.61,0,0,1,.1-.55l.26-.24h0l0,0C25.7,20.16,25.67,20.25,25.65,20.33Zm-.34.24h0s0,0-.06,0l.11-.11Zm-.07.33h0v0s0,.05,0,.08S25.25,20.92,25.24,20.91Zm0,0s0,.09,0,.13,0-.08,0-.12Zm0,.94,0,.08s0,0,0,.07h0a.7.7,0,0,1-.05-.17l0,0Zm0-.32a1.4,1.4,0,0,1-.09-.24h0a1.52,1.52,0,0,0,.08.26,1,1,0,0,1-.11-.18l0-.08.05-.06a1.13,1.13,0,0,0,.06.22S25.22,21.54,25.22,21.57Zm-.1-.28,0-.1s0,0,0,.06Zm.07-.63-.09.18c0-.07,0-.14,0-.21l.07-.06S25.2,20.63,25.19,20.66Zm-.11.17,0-.17,0,0C25.1,20.72,25.09,20.78,25.08,20.84Zm0,1.33h0s0,0,0,0h0Zm0,1.78,0,0h0s0,0,0,0Zm0-2.23,0,0h0l0-.09s0,.08,0,.11Zm.26,3.72.15.11q.26.23.54.44a2.65,2.65,0,0,1-.79-.31h0s0,0,0,0l-.18,0-.19-.13.16,0h0l.16.06.23.11s0,0,0,0l-.09-.06h0l-.28-.16h0a1.15,1.15,0,0,0-.49-.12h-.07A1.53,1.53,0,0,1,25.31,25.45Zm.32.59L25.53,26l.16.06Zm.33.39-.08,0-.38-.28h.07A4.19,4.19,0,0,0,26,26.43Zm-.64-.36-.27.07-.27-.25-.21-.22h0l.09-.05.21,0q.27.23.55.43h-.06l-.26-.2a0,0,0,0,0,0,0Zm-.81-.58s0-.05,0-.06l.06,0,.11,0,.06.05-.1,0h-.16Zm-.08-.23h0Zm.09.42.14.14a0,0,0,0,0,0,.06,2.72,2.72,0,0,0,.29.29l-.1,0L24.64,26l-.17-.26Zm.25-.15h0Zm.21.15.09.05h0l.27.24Zm-.47-6.56.07-.06s0,0,0,0Zm.43,5h0l0,0Zm-.31.86a.08.08,0,0,0,0,0l0,0Zm0-3.37h0a1.06,1.06,0,0,1,0-.16h0A.92.92,0,0,0,24.64,21.62Zm0-2.9h0v0c-.14.16-.29.33-.44.48l-.25-.06,0-.08.29,0s0-.06,0-.06l-.18,0,.18-.13.14,0a.06.06,0,0,0,0-.12h0c.17-.12.33-.24.49-.37Zm-.48,1,0,0h0l0,.08h-.11l.06-.08h.06l0,0S24.16,19.75,24.16,19.74Zm-.27,0a0,0,0,0,0,.07-.05l.12,0-.06.08h0l-.23-.05v0Zm-.1-1.22h0v.07h0Zm0,.67h0Zm.14.3-.07.07h-.05l0-.06Zm-.08-.1,0-.07.19,0-.06.06s0,0,0,0Zm.27.23-.1,0,.22-.2h0Zm0-.72L24,19s0,0,0,0h0l0-.15ZM24,18.44l-.12.06v-.06l.12,0Zm-.11.38-.06.15h0v0s0-.1,0-.14Zm-.06-.58-.08,0v-.13l.11-.09C23.87,18.13,23.86,18.19,23.85,18.24Zm-.07,1.08v0h0v0Zm0,.12v0l-.06,0v0Zm-.28-.1v-.07l.23,0,0,0Zm.18.1v0l-.09,0Zm-.07.17v0l-.12,0v0Zm-.05.22.12,0h-.12Zm.08-.18v0l.08,0v0Zm-.09-.59V19l.18,0v.07Zm-.08.75h0Zm0,.85h0Zm0,0a.09.09,0,0,0,0,0h.15v0h-.14Zm.1-.56a.08.08,0,0,0,0-.07h.3l-.06.09Zm.26.49h0s0,0,0,0h0l0,0,0,.05h-.07Zm0-.44.07-.1H24l-.07.11ZM24,21.23l.16-.14-.16.14Zm.13-1.32h0l0,0s0,0,0,0a.06.06,0,0,0,0-.05h.09Zm.35,5.55,0,0,0,0Zm.34.95.22.25c.05.06.15,0,.1-.08l-.17-.23.13-.05.32.26,0,0a4.72,4.72,0,0,0-.6.21c-.05-.09-.1-.19-.15-.28Zm.58,0-.19-.18,0,0h0l.47.27-.17,0Zm-.12-.21.22,0,.38.29-.11,0Zm.9.16-.34-.24h.08s0,0,0-.05l.24,0s0,0,0,0l.24.18Zm0-1.83s0,0,0,0a1,1,0,0,1-.17-.13h0l.6.46Zm0-.38h0l.2.06-.2,0Zm.45-.11h.15v0Zm-.26-.13.07,0,.41,0,0,.1Zm.67.33.43.15v0Zm-.17-.13v-.06H27s0,0,0,0l.44.19v0A5.91,5.91,0,0,0,26.8,24.13Zm.35-.05.34,0,0,.14ZM26.84,24l0-.11.44,0,.21.11v0A5,5,0,0,1,26.84,24Zm.67-.12h0Zm0-.06h.07v0Zm-.12-.1h-.21l-.14,0,.09,0h.51v0Zm.25-.49h.17v0ZM27.79,22h-.12l-.26,0-.63.09a.4.4,0,0,1-.11-.2l.14-.06.49-.1h0a0,0,0,0,0,.05,0h0l.23,0c-.28,0-.56.1-.84.14,0,0,0,.06,0,.06.3,0,.6-.09.9-.15a0,0,0,0,0,0,0,4.81,4.81,0,0,0,.85,0Zm.56-1,.14,0h0Zm.58-.09-.15,0,.31-.07-.16,0S28.93,20.91,28.93,20.92Zm.26,0,.33-.07,1-.13Q29.88,20.88,29.19,21ZM32.1,6h0c0,.18,0,.36,0,.54,0,0,0-.06,0-.09S32.1,6.14,32.1,6Zm-.95-3.52.05.15a2.5,2.5,0,0,0,.12.44c.1.44.2.89.27,1.33,0,0,0,0,0,0,.08.63.16,1.25.2,1.88,0,.18,0,.36,0,.53A8,8,0,0,0,31.61,5a10.16,10.16,0,0,0-.3-1.38s0,0,0,0a5.38,5.38,0,0,0-.2-1.26ZM31,3c.09.31.17.63.24.94s0,.58,0,.87q-.09-.35-.19-.69c0-.2,0-.39,0-.59h0A3.55,3.55,0,0,0,31,3Zm0,.9,0-.16a0,0,0,0,0,0,0C31,3.81,31,3.87,31,3.94Zm0-3.8h0s0,0,0,0h0a.1.1,0,0,0,0,0Zm0,.13s0,0,0,0h0l0,0h0l0,0h0Zm.16,2.79-.18-.54c0-.16,0-.32,0-.48C31,2.37,31.07,2.71,31.13,3.06Zm-.25.27c0,.08,0,.16,0,.24l0-.12Zm.14.86q0,.83,0,1.65l0-.17c0-.23,0-.45,0-.68a0,0,0,1,0,0,0c0,.17,0,.33,0,.5l-.16-.78c0-.13,0-.26,0-.39l.08-.76Zm-.17-2.34a0,0,0,0,0,0,0c0,.09,0,.19,0,.29h0c0-.21,0-.42-.06-.64C30.79,1.63,30.83,1.74,30.86,1.85ZM30.68,2v.07h0Zm0,.59a3.48,3.48,0,0,1,.07-.35,6.18,6.18,0,0,0,.12.76h0v0l0,.26-.1-.37a0,0,0,1,0,0,0l.12.46c0,.21,0,.42-.07.63,0-.32-.09-.63-.15-.95a4,4,0,0,1,0-.46ZM30.55.91,30.48,1l0,0Zm.05.23s0,0,0,0h0s0,0,0,0l0,.09s-.05-.05-.07,0a.73.73,0,0,1-.08.13s0,0-.06,0l.09-.1Zm-.18,1v0h0l0-.12Zm0,1v0h0Zm-.05,0,0,.17h0q.07.45.11.9c0-.37-.11-.73-.17-1.1Zm.08.21h0s0,0,0,.07ZM30.33.58h0l-.1.06h0Zm0,1.44v0h0Zm-.08-.53c-.27.26-.57.5-.84.76.26-.27.52-.52.8-.76Zm-.14-.12L30,1.43l-.1.05Zm-.28-.05.08-.06,0,0s0,0,0,0l-.4.27ZM23,6.9h0l-.14.22Zm-.79,2.49h0c1.12-3.19,3.91-5.55,6.69-7.49,0,0,0,.06,0,.06a8.42,8.42,0,0,0-.63.59h0a3.52,3.52,0,0,0-.74.93c0,.06,0,.12.09.06A6.51,6.51,0,0,1,28.14,3a11.42,11.42,0,0,1,1.3-1.07,3.3,3.3,0,0,0-.34.43s0,.12.08.07l.08-.08s0,.09.06.06c.27-.25.54-.49.8-.75a0,0,0,0,0,0,0c-.23.22-.45.46-.66.7a14.71,14.71,0,0,0-1.3,1,.06.06,0,0,0,.08.09c.47-.4,1-.78,1.43-1.16-.06.08-.13.15-.19.24a.07.07,0,0,0,.11.08l0,0h0c.09-.1.17-.22.26-.33l.2-.23a7,7,0,0,0-.34.71c0,.08-.09.16-.13.25s0,0,0,0-.05.15-.08.22a.05.05,0,0,0,.1,0c.16-.36.31-.72.46-1.08l0-.08v0l0,.11s0,.05,0,.06l0,.88V3.09h0c0,.07,0,.13,0,.2,0,.26,0,.51,0,.77a0,0,0,0,0,.06,0V3.93h0c0-.09,0-.17,0-.25l.06-1.37h0l0-.1a0,0,0,0,0,.05,0h0l0,.13a3,3,0,0,0,0,.62v0s-.08,0-.07,0a23.71,23.71,0,0,1,.25,2.77,0,0,0,0,0,.08,0c0,.14,0,.28,0,.42a0,0,0,0,0,.07,0,4.8,4.8,0,0,0,.06-.8c0-.06,0-.12,0-.19l.17.77a11.16,11.16,0,0,1-.48,2.28,22.36,22.36,0,0,0-.52-3.7C30,4,30,3.44,30,2.91c0,0-.06,0-.06,0,0,.46-.06.91-.09,1.37l-.13-.63h0l.13.77c0,.1,0,.21,0,.31a0,0,0,0,0,.06,0s0,0,0-.06a24.61,24.61,0,0,1,.44,3.83,18.14,18.14,0,0,1-.67,1.7s.05.08.08,0A9.46,9.46,0,0,0,30.35,9a11,11,0,0,1-.11,1.37c0,.05.07.06.08,0a10.2,10.2,0,0,0,.14-1.74A10.32,10.32,0,0,0,31,6.15v0s0,0,0,0,0,.18,0,.28a0,0,0,0,0,.05,0c0-.11,0-.21,0-.32h0a12,12,0,0,0,0-1.66q.09.37.17.75c0,.43,0,.87-.07,1.3a0,0,0,1,0,0,0,10,10,0,0,0,.08-1.06,8.62,8.62,0,0,1,.17,1.68s.07,0,.07,0a7.19,7.19,0,0,0-.22-2c0-.29,0-.58,0-.86a14.52,14.52,0,0,1,.27,2,0,0,0,0,0,.1,0c0-.13,0-.25,0-.38A8,8,0,0,1,31.73,7s0,0,0,0a14.91,14.91,0,0,1-.33,2.34A14.69,14.69,0,0,1,31,11c-.18.4-.35.82-.51,1.23-.09.2-.18.41-.28.61l-.4.71-.7.92c-.23.28-.45.57-.66.86s-.3.43-.45.64a19,19,0,0,0-2.08,2.45.08.08,0,0,0-.09,0c-.29.41-.62.8-.95,1.19h0a3.39,3.39,0,0,0,.39-.49c0-.06,0-.15-.1-.09s-.28.3-.44.44c.08-.15.16-.31.23-.47a5.69,5.69,0,0,0,1.57-1.55,0,0,0,0,0,0,0A5.54,5.54,0,0,1,25,18.78l0-.07a17.49,17.49,0,0,0,1.23-1.63l.23-.21a0,0,0,0,0-.05-.07c.16-.25.3-.49.44-.75a15.52,15.52,0,0,0,1.74-2.69s0,0,0,0a15.69,15.69,0,0,1-1.49,2.26l0-.07s0-.09-.07,0c-.11.21-.24.4-.36.59s-.42.45-.65.67c0,0-.05,0-.07,0l-.12.19a10.34,10.34,0,0,1-1.08.86l.92-.91s0-.06,0,0l.05,0a0,0,0,1,0,0,0,2.18,2.18,0,0,1-.79.48s0,0,0,0a2.2,2.2,0,0,0,.74-.44c-.3.28-.59.57-.88.86a3.09,3.09,0,0,0,.28-.32c.06-.08-.07-.17-.13-.09a3.49,3.49,0,0,1-1,.86c0-.06,0-.12,0-.18a27.69,27.69,0,0,1,2.39-1.7s0,0,0,0c-.81.53-1.61,1.09-2.37,1.7a9.73,9.73,0,0,0,0-1s-.06,0-.06,0a8.64,8.64,0,0,1,0,1.05l-.12.09V18c0-.06,0-.12.05-.18s0-.09-.08-.08q-.07-.58-.15-1.15c.08.11.15.22.24.32a.05.05,0,0,0,.08-.07,6.05,6.05,0,0,1-.36-.51l0-.34c0-.07-.12,0-.11,0v.07c-.08-.14-.16-.29-.22-.44h0c0-.23,0-.46,0-.69s-.13-.09-.13,0,0,.12,0,.18c0-.17-.1-.34-.15-.52a3.54,3.54,0,0,1-.06-.49,0,0,0,0,0-.09,0c-.05-.19-.1-.38-.16-.57,0,0,0,0,0,0,.06.19.11.39.16.58h0A4.11,4.11,0,0,0,23,15.62a12.84,12.84,0,0,0,.13,2.8H23L23,18.26l0-.15,0-.13s0-.09,0-.14l0,.06a0,0,0,0,0,.06,0l-.05-.14a2.55,2.55,0,0,1,.07-.28h0c0,.08-.05.17-.08.25-.09-.22-.18-.44-.26-.66-.1-.57-.16-1.15-.24-1.73,0,0,0,0,0,0,.05.48.09,1,.15,1.44l-.13-.31c-.1-.38-.21-.76-.3-1.14a0,0,0,0,0,0,0l.15.66c-.06-.14-.34-.7-.35-.33h0c0-.28.21.15.25.23s.12.31.18.47c.14.62.3,1.23.48,1.84,0,0,0,.09,0,.13l-.1,0-.1-.05v-.09a0,0,0,0,0-.09,0h0a1.38,1.38,0,0,1-.37-.76c0-.05-.09,0-.09,0a1.65,1.65,0,0,0,.2.67l-.1,0q-.16-.82-.34-1.66a5.56,5.56,0,0,0-.1-.82c0-.25-.07-.5-.12-.76s0-.36-.06-.53A14.06,14.06,0,0,1,22.23,9.39Zm7.93-7.65c-.07.08-.12.18-.2.26l-.11.13h0l-.16.12ZM25.84,17.28,26,17c.14-.13.28-.27.41-.41l-.39.55h0l-.13.13ZM23,15.21h0a3.92,3.92,0,0,1-.13-.47C22.93,14.9,23,15.05,23,15.21Zm.09,6.34A1.77,1.77,0,0,1,24.19,24a1.9,1.9,0,0,1-2.85.59l0,0a5.29,5.29,0,0,1-.44-.87,1.57,1.57,0,0,1,.26-1.16A2.13,2.13,0,0,1,23.11,21.55Zm.62,4.19h0l0,0v0h0Zm0,.16h0Zm0,.27c0,.09,0,.18,0,.27,0-.08,0-.16,0-.24Zm0,.52h0v0Zm-.09-1.08h0v0Zm0-.14s0,0,0,0h0a0,0,0,0,0,0,0h0Zm0,1.27s0,0,0-.07,0,.09,0,.14h0s0,.09,0,.14a1.46,1.46,0,0,1,0-.18S23.59,26.77,23.6,26.75Zm-1,.46-.09,0-.12-.39a1.54,1.54,0,0,1,.31.41c0,.44.05.89.08,1.34a9.93,9.93,0,0,0-.25-1.24h0C22.59,27.32,22.62,27.24,22.56,27.22Zm-.21.59a3.35,3.35,0,0,0-.28-.35s0-.07,0-.1h0c0-.09,0-.19,0-.28l.37.15c0,.14.08.29.11.43l0,.09v.06a5.3,5.3,0,0,0-.18-.57s-.09,0-.07,0A5,5,0,0,1,22.36,27.81Zm-1-1.06.06,0h.2l-.05.07Zm.2.42v0h0ZM21,27.12,21,27.2,21,27l.14-.08.29.15a7,7,0,0,1-.44.56c0-.08,0-.17,0-.25l.15-.19S21.06,27.07,21,27.12Zm-.24-.84a4.09,4.09,0,0,0-.59.42,0,0,0,0,0,.05.06c.19-.15.39-.29.58-.43l.1,0v0l-.12.11h0l-.08,0s0,.05,0,.07l0,0a6.66,6.66,0,0,1-1,.75s0,.08,0,.06a5.34,5.34,0,0,0,1-.77l.12.07-.41.39a15.54,15.54,0,0,0-2.3,1.79l0,0A12.15,12.15,0,0,0,19.85,27h0q.61-.56,1.18-1.16l.2-.1s0,.09,0,.1h0a1.17,1.17,0,0,0-.31.09c-.06,0,0,.12,0,.09a1.7,1.7,0,0,1,.32-.09h0a.05.05,0,0,0,0,0l-.2,0s0,0,0,0l0,0h0s0,0,0,0l-.21.13h-.07S20.76,26.24,20.78,26.27Zm-.88,2.11a5.59,5.59,0,0,0-.69.37c.41-.47.83-.93,1.27-1.38a0,0,0,0,0,0,0l.05-.05.37-.23-.08.33C20.52,27.73,20.21,28.06,19.9,28.38Zm.84-.74-.08.33-.17.18-.27.1Q20.49,28,20.74,27.64Zm-.89.79L19.3,29l-.76.56c.21-.26.41-.52.63-.78A5.52,5.52,0,0,1,19.85,28.43Zm1-.94c0,.07,0,.14,0,.21l-.09.1Zm-4.12.42.5-.35c-.11.09-.22.17-.33.27a.06.06,0,0,0,.08.09l.62-.44-.17.32c-.46.33-.93.63-1.41.93A8.9,8.9,0,0,0,17,27.44l.19-.21.73-.58a6.17,6.17,0,0,0-.47.46s0,0,0,0c.17-.2.39-.36.57-.55-.07.19-.15.38-.23.56l-.35.27-.7.49S16.76,27.92,16.77,27.91Zm.28-.55.06-.11h0Zm.41-.77a7.35,7.35,0,0,0,.67-.35,11.23,11.23,0,0,0-.9.77c.07-.14.16-.27.22-.41Zm.49-2.26c.17,0,.34,0,.51-.05s0,0,0,0l-.76,0c-.29,0-.58-.07-.87-.09l.49-.1a2.65,2.65,0,0,0,1,.06,2.48,2.48,0,0,0,.36,0l0,.06-.08,0-.49.12Zm0,.13-.2.07q-.56,0-1.11,0l.66-.11Zm-1.68-.3-.77,0c.5-.05,1-.08,1.51-.11Zm1.07-3.58.28.25h0a4.38,4.38,0,0,1-1-1l.65.46s0,0,0,0,.28.3.42.48l-.29-.26C17.37,20.43,17.3,20.53,17.36,20.58Zm.18-.49a2.83,2.83,0,0,1,.39.24l0,.13ZM17.46,20s0,0,0,0a4.85,4.85,0,0,1-.81-1c.43.44.87.87,1.34,1.27h0A2.36,2.36,0,0,0,17.46,20Zm.48-.48,0,0,.35.33Zm.13.81,0,0h0Zm-.08.09.39.31v.08L18,20.52Zm.37.43h0l0,0Zm0,.14v0l-.1-.13Zm0,.49.29.32h0l-.19,0s-.05,0,0,.06l-.18-.05A3,3,0,0,0,18.3,21.44Zm1,2.18v0a.82.82,0,0,1,.13.2s0,0,0,0h-.1l-.08-.18a0,0,0,0,0,0,0l.06.13a1.12,1.12,0,0,0-.23-.2h.22a.56.56,0,0,1,.11.21s0,0,0,0A.62.62,0,0,0,19.31,23.63Zm.37-2.93h-.07l-.1-.08-.16-.17.11.08s0,0,0,0h0Zm-.08-.18h0l0,.06Zm-.68-1.41-.11-.2h0L19,19a0,0,0,0,0,0-.07l-.11-.09h0l.49.27v0l-.26.14Zm.06.33,0,0h0Zm-.32-.85-.16-.38.48.23.09.09-.21.18Zm.08.39,0,0h0Zm-.32-.54a2.4,2.4,0,0,1-.06-.24,0,0,0,0,0-.09,0s0,.09,0,.14l-.25-.18-.05,0-.11-.09-.37-.34-.18-.19s0-.1-.07-.15c.35.23.72.45,1.09.66l0,.1,0,0s0,0,0,0l.07,0,.13.35Zm0,.31a3.72,3.72,0,0,1-.94-1q.41.39.86.74C18.37,18.61,18.39,18.68,18.42,18.76Zm.21,0,0,.09-.08,0h0a2.27,2.27,0,0,1-.11-.24Zm.51-.14.16.3,0,.07L19,18.78A1.39,1.39,0,0,0,19.14,18.61Zm-.35.16h0Zm.08.5,0,.08h0l-.12-.14Zm.49-.67h0l.15.06.15.24Zm.43.63,0,.1-.08-.1s0,0,0,0l0,0-.08-.11h0Zm-.35.25-.24-.17.23-.12a2.32,2.32,0,0,0,.18.28l-.12,0h0l-.06-.17a0,0,0,0,0,0,0Zm0,.12h0l.1.31-.16-.1a4.1,4.1,0,0,1-.3-.4Zm0,0a0,0,0,0,0,0-.06h0l.12,0a1.54,1.54,0,0,0,.27.29l.05.07h-.18a0,0,0,0,0,0,.08H20l.07.19-.06,0a3.41,3.41,0,0,1-.39-.18Q19.58,19.77,19.51,19.59Zm.39-.22,0-.07,0,0v0Zm0,0h0Zm1.24-.73.06.21A2.48,2.48,0,0,1,21,19l0-.24Zm0,0s0-.07,0-.1l0,.07Zm.19,1.43,0-.09,0-.06,0,.1h0Zm0,1.28h0v0h0Zm-.05-1h0l0,0Zm0-.54a1.45,1.45,0,0,1-.11.14h0a0,0,0,0,0,0,0h0l.19-.14v.06S21.3,19.73,21.29,19.75Zm-.09,1.34v0h0S21.19,21.1,21.2,21.09Zm0-.84c0-.05,0-.1,0-.16h0l.05.1Zm-.37,1.39,0,0,.09,0h0Zm.06.06h0Zm0,3.28a.64.64,0,0,0,0-.08l.08.08Zm0,.13,0,0s0,0,0,0Zm0-.13h0Zm0,.1h0Zm-.07,0,0-.1a.77.77,0,0,0,0-.08.85.85,0,0,1,0,.26,0,0,0,0,0,0,0s0,0,0,0l-.07.09h0v0h0s0,0,0,0A1.71,1.71,0,0,0,20.74,25Zm0-3.24h0Zm.3-2.21v.05l-.08.1-.19.08v-.07A1.6,1.6,0,0,0,21.06,19.58Zm-.29.08,0-.18s0-.09,0-.13a2.51,2.51,0,0,0,.23-.22c0,.12,0,.25.07.38A2.08,2.08,0,0,1,20.77,19.66Zm.27.22s0,0,0,0h0a1.49,1.49,0,0,1-.16.18l0-.09Zm0,.11h0a1.64,1.64,0,0,1-.16.19h0A1.18,1.18,0,0,0,21.09,20Zm0-.43.07,0-.06.08Zm0,.57c0,.05,0,.1,0,.16h0a.08.08,0,0,0-.07-.05h0S21.1,20.15,21.12,20.13Zm0-.46a1.33,1.33,0,0,0,.12-.18l0,.1Zm.08-.41,0,.13h0s-.05.07-.08.11a0,0,0,0,0,0,0l0,0c0-.13,0-.26-.06-.39a2.64,2.64,0,0,0,.2-.19l.07.29A.07.07,0,0,0,21.24,19.26ZM21,19.08a2.47,2.47,0,0,1-.22.22c0-.1,0-.2,0-.31l.18-.16Zm-.2,1s0,0,0,0l0,.09-.08.07,0-.09Zm0,1.7h0ZM20.65,20v0l.07,0h0Zm-.41,5.89-.15.13c0-.06,0-.11,0-.17s0,0,0,0v-.05c.15-.11.29-.23.42-.35s0,0,0,0,0,0,0,0l.05,0a.06.06,0,0,0,0,0l-.16.19-.24.26S20.24,25.83,20.24,25.84Zm-.2-3.3a.84.84,0,0,0,0-.12.07.07,0,0,0-.06-.07v0c0-.08-.11-.09-.12,0h0l-.06,0v0s0,0,0,0h0s0,0,0,0v0h0a.09.09,0,0,0,.1,0l.14-.07,0,0a0,0,0,0,0,0,0,1,1,0,0,1,0,.2l0,0s-.05,0-.05,0Zm0,2.68v-.09S20.05,25.19,20.05,25.22Zm-.22.19h0v-.07h0a1.8,1.8,0,0,0,.06-.45h0v0h0V25a1.63,1.63,0,0,1-.07.43Zm-.42-.26.09,0,0,.11h0l-.08.06S19.41,25.19,19.41,25.15Zm0,.54h0ZM19.19,25h0l.05.12,0,.07-.07,0C19.23,25.13,19.21,25.05,19.19,25Zm0,.68-.11,0,.1-.08Zm-.14-1h0s0-.09,0-.09a1.51,1.51,0,0,0-.1-.22l.05,0a3.68,3.68,0,0,1,.16.35Zm0,.09h0ZM19,21.59l.16.07a.08.08,0,0,0-.06.06c0,.05,0,.1,0,.16l-.1,0c0-.07,0-.15,0-.22A.07.07,0,0,0,19,21.59Zm.17,1.1h0l0,0-.06,0Zm-.08-.34h0l0-.08h0Zm.08,0h0l.07-.13h0Zm0-.13h0v0ZM19,22.17v0l-.07,0h0Zm-.09.59h0l.19.07h0l-.32-.09h0A0,0,0,0,0,18.94,22.76Zm0-.16.07-.09.06,0,0,0Zm.12,1a1.09,1.09,0,0,1,.27.22h-.14l-.06-.06L19,23.6Zm.45-1.7h0l0,0h0A.14.14,0,0,0,19.47,21.91Zm0,1.7v0s0,0,0,0l0-.07Zm0,.13v0h0Zm.09.29s0,.07,0,.1h0s0-.07,0-.1h0s0,.07,0,.1h-.07a2.69,2.69,0,0,0-.1-.26h.08Zm.4.39v.08a2.08,2.08,0,0,0-.14-.35h0A2.36,2.36,0,0,1,19.95,24.41Zm0-.72h0Zm0,0h0Zm0,.45h0s0,0,0,0Zm0,.49s0,.1,0,.14h0a1.35,1.35,0,0,0-.13-.53A2.08,2.08,0,0,1,20,24.58Zm0-.46h0ZM20,24h0Zm0,.72h0Zm-.19-2.17h0s0-.08,0-.12h0A.7.7,0,0,1,19.8,22.58Zm0,1.53h0Zm0,.36,0,0a2.67,2.67,0,0,0-.07-.29,1.65,1.65,0,0,1,.09.21Zm-.27.18-.07,0h-.06q0-.21,0-.42A1.84,1.84,0,0,1,19.51,24.64Zm-.14-.56a0,0,0,0,0,0,0l0,.09h0Zm0,.66h0s0,0,0,0l.06,0v0s0,.06,0,.09l-.14,0v-.08Zm.12.16h0l-.1,0a0,0,0,1,0,0,0l.09,0s0,0,0,.07l-.12.07v-.17Zm0,.19s0,0,0,0v0Zm0,0s0,0,0,.07h0l0-.08S19.54,25.15,19.54,25.14Zm0-.78c0-.05,0-.1,0-.15h0a1.15,1.15,0,0,1,0,.11h0a1.08,1.08,0,0,0,0-.11h0c0,.08,0,.16,0,.24Zm0,.71,0,0c0,.06,0,.11,0,.17a.07.07,0,0,0-.06,0S19.55,25.12,19.55,25.08Zm0-.12s0,0,0,0l0,0V25Zm0-.05h0Zm0-.28.07,0c0,.07,0,.13,0,.2l-.08,0C19.62,24.73,19.61,24.68,19.59,24.62Zm.08.25h0Zm0,.07.07,0h0l-.07,0S19.65,25,19.65,24.94Zm.07-3.17h0s0,0,0,0l0,0Zm0,1.85v0l0,0h0Zm-.07-1.91a.08.08,0,0,0,0-.06l.07.08Zm0,.67h0l0,.12s0,0,0,0h0Zm0,1.54,0,0h0Zm0-.08h0v0Zm0-1.24h0Zm0,1.58c0,.12.06.24.08.36l-.07,0s0-.08,0-.11,0-.19,0-.29ZM19.39,24s0,0,0,0h0L19.28,24h0l-.06-.06h.12Zm-.1.61a2.73,2.73,0,0,0-.14-.39l.11,0c0,.14,0,.28.05.42Zm0,.08h0ZM19.16,24v0l0,0Zm.08.09v0h-.08a.07.07,0,0,0,0,0Zm-.16-.22s0,.08.05.12H19c0-.05-.07-.09-.11-.14h.13Zm.11,1,0,0h0v0Zm.13.34s0,.08,0,.13l-.1.07c0-.05,0-.11,0-.16Zm.1.25s0,.09,0,.14l-.14,0s0,0,0-.07Zm0,0h0l.06.13-.08,0S19.43,25.49,19.43,25.44Zm.06,0,.06,0c0,.06,0,.12,0,.18h0Zm.07-.06,0,0v0h0a0,0,0,0,0,0,0,2.16,2.16,0,0,0,0-.28l.08,0c0,.15,0,.29,0,.44v0l-.15.07C19.59,25.47,19.57,25.41,19.56,25.34Zm.19-.83,0,0a1.93,1.93,0,0,1,0,.26h0C19.78,24.68,19.76,24.6,19.75,24.52Zm.09.4a1.79,1.79,0,0,1,0,.32c0-.1,0-.2,0-.3Zm.08.22c0,.07,0,.14,0,.21l-.11.06A1.78,1.78,0,0,0,19.92,25.13Zm0-.25s0,0,0,0l0,0s0,.07,0,.11,0,0,0-.05ZM20,23l0,0h0l.07,0h0Zm-.12-1h0Zm.27-1.62s0,.07.05.1l-.12-.09Zm0-.22h0v0Zm.15.42h0l-.17.06h0Zm0-.21h0Zm.15.41a.07.07,0,0,0,0,.06l-.06,0-.13-.17.14,0Zm0-.23h0Zm.19-1.33,0,0,.08.22-.23.12,0-.06s.07.06.08,0S20.45,19.3,20.47,19.21Zm-.11-.4c0-.19,0-.38,0-.57,0,.13.07.26.1.4s0,.19-.06.28Zm.12.36h0Zm-.15.72,0,.07-.06-.07Zm.15.4h0l0,0-.09.05,0,0h0S20.52,20.3,20.48,20.28Zm.16,4.29s0,0,0,0l0-.14v0s0,0,0,0Zm0,.68,0,0a2.19,2.19,0,0,0,0-.44A2.78,2.78,0,0,1,20.61,25.25Zm-.13-.15h0s0,0,0-.05a1.18,1.18,0,0,0-.07-.37s0,0,0,0a2.1,2.1,0,0,1,.13.67l-.07.05a.54.54,0,0,0,0-.17s0,0,0,0S20.48,25.12,20.48,25.1Zm.05-4.66,0,0h0Zm0-.43v0h0v0Zm0,4.41,0,0-.07-.18A1.65,1.65,0,0,1,20.54,24.43Zm-.14-4.17h0l0,0Zm.07,4.16s0,0,0,0l0,.13a2.08,2.08,0,0,0-.08-.19s0-.06,0-.09a.7.7,0,0,0,0-.11A1.74,1.74,0,0,1,20.47,24.41Zm-.05.85a.49.49,0,0,1,0,.12l-.07,0A.61.61,0,0,0,20.42,25.26Zm-.16-.78,0-.08v-.06A1.17,1.17,0,0,1,20.25,24.49Zm0-.23h0l0,0h0Zm0,.8a.59.59,0,0,1,0,.1l0,0c0-.05,0-.1,0-.15Zm0-.92s0,0,0,0h0a.7.7,0,0,0-.07-.12,1.26,1.26,0,0,0-.06-.13A.85.85,0,0,1,20.22,24.14Zm-.1-.35h0a0,0,0,0,0,0,0l0,0,0,0v0h0l0,0Zm.05,1.61s.05,0,0,0,0-.05,0-.08l0,0v0a2.56,2.56,0,0,1-.09.26C20.16,25.5,20.17,25.45,20.17,25.4Zm.08,0h0a0,0,0,0,0,0,.05l-.07,0Zm0-.69v0h0a2.22,2.22,0,0,1,0,.23C20.27,24.86,20.26,24.8,20.24,24.73Zm0-.8h0Zm0-3.07h0s0,0,0,0l0,.06,0,0Zm.08-.22,0,0h0l0,0Zm0,4.14s0,.07,0,.1,0-.11,0-.16Zm0-.32v0h0v0h0Zm0-.6v0s0,0,0,0,0,.05,0,.08Zm-.2-3.33-.1,0-.07-.13Zm-.18-.23-.11-.08.06,0,.14.06Zm0,.12.06.13-.07-.12Zm.16,3.84h0Zm0,.73c0,.09,0,.18,0,.27l0,0v0c0-.05,0-.1,0-.16Zm0,.39v0Zm.52-5.22,0,0,0,.08h0Zm0-.27v0s-.09,0-.07,0h0l0-.08.21-.08v.07Zm-.17-.12-.09-.22.23-.12,0,.13s0,.07,0,.11,0,0,0,0Zm.17-.36h0v0Zm0,0-.09-.22.06,0,0,.25h0Zm-.1-.24v0l0-.18,0,.15Zm0-.77c0-.13-.07-.26-.11-.39h0v-.22c.06.19.11.38.15.58Zm-.13.46,0,.11,0,.17,0,0C20.35,19,20.36,18.94,20.36,18.84Zm0,.29c0,.05,0,.1,0,.16l0,0c0-.06,0-.11,0-.17Zm0,.19s0,.07,0,.11l0,0v0Zm0,.48h-.06l-.12-.13.07,0h0l0,0h0Zm-.12-.62s-.07,0-.06,0v0h0l-.1-.15a10.31,10.31,0,0,0,.2-1.53A12.24,12.24,0,0,1,20.18,19.18Zm0,.1v0h0Zm-.09.14.11.14v0s0,0,0,0l-.07,0-.15-.18,0-.11Zm-.17.78-.05,0,0,0s0,0,0,0l0,0Zm-.07.25.09.17h0l-.12-.12s0,0,0,0l0,0h0Zm-.07.28.17.13s0,0,0,0,0,.08.06.13l-.17-.25s-.07,0-.05,0l-.07-.06Zm-.34,2.86,0,0h0l0,0Zm0-2.18h0l0,0Zm-.07-.06L19,21.09v0l.3.3Zm-.21.2-.23-.09h0l0-.07Zm-.16,0a.08.08,0,0,0-.08.07v.07a.07.07,0,0,0,0,0l-.05,0,.07-.18ZM18.79,21l-.33-.21v-.07a4.34,4.34,0,0,0,.36.26Zm0,0a.09.09,0,0,0,0,.05l-.29-.22h0v0Zm0,.25,0,.08-.26-.12a.08.08,0,0,0,0-.09l-.07-.09s0-.05,0-.08Zm-.36,0h0l.3.13-.05.14-.29-.26Zm.31.47h0ZM18.6,22l.21.07h0l-.15-.06a0,0,0,0,0,0,.06l.17.06s0,0,0,0,.1.1.12,0v0l.06,0,0,.09-.16,0-.2-.06a0,0,0,0,0,0,0h0Zm.13.4.11,0-.06.08-.44-.19Zm.26.49-.44,0,.12-.09Zm0,.77h0l-.08-.09H19Zm-.17-.06,0,0h0l.09.1h0l.07.08H18.9a1.55,1.55,0,0,0-.12-.16,0,0,0,0,0-.07.06s0,.08.07.12h-.09s0,0,0,0h.1l.07.12h-.14a1.74,1.74,0,0,0-.14-.17s-.13,0-.08.07l.07.1-.39,0h.27s0,0,0,0H18l.1,0,.25,0s0,0,0,0l-.18,0s0-.08,0-.08l-.22,0a7.68,7.68,0,0,1,.83-.22.39.39,0,0,1,0,.1s0,0,0,0A.52.52,0,0,0,18.82,23.63Zm-.6.48a2.5,2.5,0,0,1-.79,0l.3-.07h.09A3.26,3.26,0,0,0,18.21,24.11Zm.27.4h0l.35-.14c0,.07.08.15.11.22l0,0-.54-.06Zm.51.2h0l0,.08a3.46,3.46,0,0,1-.34.28l-.21.07s0,.06,0,0l.06,0-.27.17-.21,0A7,7,0,0,0,19,24.71Zm-.87.74-.72.4.05-.14.36-.22.09-.06Zm.32,0h0l-.19.13a0,0,0,0,0,0,.05c.14-.08.26-.19.41-.27s0-.09,0-.07l-.08.06h0c.14-.11.27-.22.4-.34l.13,0a1.55,1.55,0,0,1,0,.38h0a1.64,1.64,0,0,0,.06-.32,2.92,2.92,0,0,1,.07.36l-.44.32H18.7s0,0,0,.05l-.31.23s0,0-.05,0l-.06,0,.07-.2a0,0,0,1,0,0,0l-.08.23a8.38,8.38,0,0,1-1.11.5l.16-.39A9.58,9.58,0,0,0,18.44,25.48Zm-.35,1,.88-.7a3.16,3.16,0,0,0,.44-.11h0a5.56,5.56,0,0,1-1,.93h0c-.14.13-.31.25-.46.37l-.11.08C17.95,26.89,18,26.7,18.09,26.51Zm1.32-.65s0,0,0,0h0s0,0,0,0l.13-.16s0,0,0,0h0a1.75,1.75,0,0,1,0,.28h0a1.81,1.81,0,0,0,0-.28l.14-.06a2.35,2.35,0,0,1,0,.27s0,0,0,0a2.72,2.72,0,0,0,0-.27s0,0,0,0,0,0,0,0l.18-.1c0,.08,0,.16,0,.25-.32.22-.64.43-1,.63A5.73,5.73,0,0,0,19.41,25.86Zm1.67-.71h0Zm.22.4,0,0h0Zm0,1.07h0s0,0,0,0Zm0-.32h0Zm0,.42-.08,0H21l.06-.06h0s0,0,0,0ZM21,26.19s0,0,0,0h0Zm.22.66,0,0s0,0,0,0a2.11,2.11,0,0,1,.22.07l0,0A2.2,2.2,0,0,0,21.22,26.85Zm.2-.72h.11l0,0Zm.27.85h0l-.08.1,0,0Zm0-.35-.1,0s0,0,0,0h.14v0Zm0-.32,0,0-.06-.06.07-.07.27.08,0,.1Zm.72,0a1.27,1.27,0,0,1,.11.25l-.1-.06a1.49,1.49,0,0,0-.35-.29l0-.09h0A1.63,1.63,0,0,1,22.4,26.34Zm-.27-.56h0Zm.09,0,0,0,0,0h0S22.22,25.8,22.22,25.79Zm.08.43-.1-.07h0Zm.23,0h0l.09.16v.11a1.78,1.78,0,0,0-.13-.19S22.56,26.21,22.53,26.17Zm-.06-.07,0,0h0l0,0,.08,0,0,.08Zm-.1-.56h0v0Zm.08.69h0a1.75,1.75,0,0,1,.17.23v.19l-.06,0a1.34,1.34,0,0,0-.08-.22s0,0,0,0l0,0a1.3,1.3,0,0,0-.15-.25Zm.2.61v.09l-.12-.14h0Zm-.32-.35L22,26.37l0-.08A1.37,1.37,0,0,1,22.33,26.5Zm-.47.36h0v-.08h0a0,0,0,0,0,0,0Zm0,.18c0,.09,0,.18,0,.27l-.09-.08c0-.07,0-.13,0-.2Zm0-.25a2.16,2.16,0,0,1,.38.17l0,.14,0,0a1.8,1.8,0,0,0-.33-.19v-.09S21.92,26.79,21.9,26.79Zm.29-.12.05,0,0,.12s0,0,0,0v0l-.15-.07.11,0a0,0,0,0,0,0,0l-.39-.14h0l0,0ZM22,26.19l-.11-.06H22Zm0-.53h0l-.14-.06h.1l.07,0Zm-.11,1.69.12.11a9.83,9.83,0,0,1,0,1.63q-.08-.57-.2-1.13C21.79,27.74,21.81,27.54,21.83,27.34Zm-.48-5.9,0,0h0s0,0,0,0l0,0,0,0Zm.11-.08h0Zm0-1.12h0l0,0-.09-.15,0,0Zm-.32-3.15q.09.85.24,1.72l-.09-.27h0s0,0,0,0l-.09-.26a3.77,3.77,0,0,0-.05-1c0-.11,0-.22,0-.33S21.1,17.05,21.1,17.09ZM21,18.22c0,.15,0,.29,0,.44s0,0,0,0l-.08.07c0-.21-.09-.43-.14-.64,0-.06,0-.11,0-.17h0s0-.06,0-.1,0-.13,0-.19Q20.92,17.94,21,18.22Zm0-.35-.14-.35s0,0,0,0c0-.32,0-.63,0-.94A10.69,10.69,0,0,1,21,17.87Zm-.2,1c0-.19,0-.38,0-.56l.11.48-.18.16a4.25,4.25,0,0,0-.1-.55,6.08,6.08,0,0,0,0-.61l.07.31c0,.26,0,.51,0,.77A0,0,0,0,0,20.8,18.88Zm-.44-4.72c0,.16.08.32.12.49s0,.23,0,.34q-.14-.69-.31-1.37ZM12.5,2.66l.13.07.13.11h0c.16.16.32.3.49.45l-.12-.07h0l.14.08c.16.14.33.28.5.41a1.69,1.69,0,0,1,.11.15s0,0,0,0l0-.06,0,0h0l.86,1.11-.25-.23h0c-.26-.22-.54-.42-.82-.62l-.15-.14s0,0,0,0l-.08-.06c-.28-.26-.55-.53-.81-.8l-.07-.14.24.23c.08.11.18.2.25.32a0,0,0,1,0,0,0c0-.06-.09-.11-.13-.16l.32.31s0,0,0,0l-.05,0s.05,0,0-.05l-.62-.63.29.26s.07,0,0,0a6,6,0,0,0-.47-.41Zm1,.63,0,0,0,0h0Zm.1.13h0L13.05,3s0,0,0,0l.29.23Zm0-.07.1.09a0,0,0,0,0,0,0l0,0ZM13,2.84s0,0,0,0l0,0-.09-.09s0,0,0,0h0l.11,0A3.92,3.92,0,0,0,13.3,3l.1.11Zm1.31,1.29-.21-.24.1.1h0l.09.09s0,0,0,0ZM12.53,2.9h0v0l.15.14,0,0Zm.27.24.06.06-.05,0Zm-.41-.58h0Zm0-.31h0Zm0,0h0Zm-.11.57,0,0,0,.13s0,0,0,0v0l-.05-.07v0Zm0-.61h0s0,0,0,0h0Zm-.1,0h0ZM12,2.62h0Zm0,.07,0,.18s0,0-.05,0l0-.18Zm-.11-.54h.06l0,0,0,0Zm0,.72v0a0,0,0,0,0,0,0h0V2.84Zm0-.07v0Zm0-.59,0,0h0s0,0,0,0Zm-.06-.54h0l0,0Zm0,.78v0l0,0Zm-.12.86,0,0h0v.12s0,0,0,0a3,3,0,0,0,0,.43,2.06,2.06,0,0,0,0,.25h0A3.1,3.1,0,0,1,11.63,3.32ZM13.88,14a24.27,24.27,0,0,0-1.21-2.39,19.65,19.65,0,0,1-1.22-4.38c0-.36-.07-.72-.1-1.07s0-.73,0-1.1v.28c0,.07.11.09.12,0,0-.36,0-.72,0-1.08h0c0,.05,0,.11,0,.16a0,0,0,0,0,.09,0q0,.79.12,1.57c0,.07.11,0,.1,0,0-.47-.09-.94-.13-1.41a0,0,0,0,0,.05,0c0,.05,0,.11,0,.16s.06,0,.06,0c0-.19,0-.38,0-.57,0,0,0,0,0,0s0-.21,0-.32a2.58,2.58,0,0,1,0-.3.06.06,0,0,0,0-.07c0-.06,0-.12,0-.18l0-.24,0,0a8.15,8.15,0,0,0,.26,1.63s.09,0,.08,0-.05-.27-.08-.4a.05.05,0,0,0,.05-.06,8.59,8.59,0,0,1-.1-1l.06.39a0,0,0,0,0,0,0c0,.1,0,.21.07.31s0,0,0,0-.07-.3-.11-.45-.08-.41-.12-.61a.09.09,0,0,0,.06,0,9.73,9.73,0,0,1,.26,1,0,0,0,0,0,.1,0c0-.16-.07-.31-.11-.46l.08.21s.07,0,.06,0c-.07-.22-.17-.43-.26-.65l.06.08,0,.11,0,.12s0,0,0,0c.11.27.2.54.3.81,0,0,.06,0,.05,0s-.07-.2-.1-.29l.2.16.11.24s0,0,0,0L12.91,4c.8.66,1.43,1.48,2.19,2.19,0,0,.08,0,0,0a20.19,20.19,0,0,0-2.26-2.19l-.17-.35s0,0,0,0l-.07-.1,0,0-.32-.73h0l0,0a.44.44,0,0,1,0,.07s0,0,.06,0h0l.09.18-.13-.13h0l.15.16.1.21s0,0,0,0l0-.09.62.63-.38-.28s0,0,0,0l.71.56.08.08h0L14,4.4c.24.23.48.45.73.66l.15.17c.12.17.24.34.37.51L13.87,4.44s0,0,0,0c.5.49,1,1,1.5,1.46,0,.09.1.17.13.27a0,0,0,0,0,.08,0l0-.06,0,0c.7.87,1.45,1.69,2.13,2.58,0,0,.05,0,0,0-.61-.79-1.27-1.54-1.91-2.3.49.48,1,1,1.46,1.46,0,0,.08,0,0,0-.54-.59-1.1-1.14-1.68-1.69a0,0,0,0,0,0,0l-.14-.21s0,0,0,0-.09-.16-.14-.24h0a7.69,7.69,0,0,0-1-1.32l-.13-.19a23,23,0,0,1,3,3.59s.07,0,0,0A19,19,0,0,0,14.26,4s0,0,0,0a5.6,5.6,0,0,0-.79-.74L13.33,3s.05,0,0,0l-.24-.18,0,0a0,0,0,0,0,0-.05l-.2-.1-.33-.24,0,0s0,0,0-.05a16,16,0,0,1,1.32.94c.12.15.25.31.38.45s0,0,0,0S14,3.48,14,3.37q.66.54,1.26,1.13c.29.32.57.64.85,1,0,0,0,0,0,0a22.42,22.42,0,0,1,1.71,2.22c.23.4.48.79.68,1.2a12.51,12.51,0,0,0,.7,1.49c.33,1,.62,1.94.91,2.92a19.63,19.63,0,0,1,.65,4.61l-.07-.3c0-.54-.06-1.08-.12-1.6,0,0-.06,0-.05,0a13.43,13.43,0,0,1,0,2c-.07-.21-.14-.41-.21-.6v-.06s0,0-.07,0a13.54,13.54,0,0,0-1.58-6.54s0,0,0,0A13.23,13.23,0,0,1,20,19l-.21-.29h0s0,0,0,0l-.06,0,0,0A10.55,10.55,0,0,1,19,17.5a0,0,0,0,0-.08,0c.17.35.35.72.56,1.08l-.17-.06-.12-.15-.05-.13a0,0,0,0,0-.05,0,3.85,3.85,0,0,1-.23-.38s-.07,0-.06,0l.12.21s0,0,0,.05v0a5.51,5.51,0,0,1-.84-1.05c.27.18.55.35.84.5,0,0,.06,0,0,0-.33-.18-.64-.38-1-.58l0-.07a0,0,0,0,0,0,0,27.48,27.48,0,0,1-2.26-1.74s0,0,0,0A24.43,24.43,0,0,0,18,17.05a6,6,0,0,0,1,1.33l-.45-.21,0-.09.09.06c.06,0,.11,0,.06-.08l-.21-.13-.13-.37a0,0,0,0,0,0,0l.1.32-1.08-.67a1.92,1.92,0,0,1-.07-.36s-.07,0-.07,0a1.87,1.87,0,0,0,.05.29L17,17.08a3.32,3.32,0,0,1-.22-.44s0,0,0,0A3.41,3.41,0,0,0,17,17l-.35-.23a11.32,11.32,0,0,1-1.33-1.74s0,0,0,0a11.78,11.78,0,0,0,1.11,1.54l-.39-.3s-.06,0,0,0c.19.17.4.31.6.46s.48.53.74.78A3.77,3.77,0,0,0,18.43,19l-.06,0c-.07,0,0,.13,0,.11l.15-.06,0,0a2.56,2.56,0,0,0,.22.33l-.07,0s0,0,0,0l.1,0a2.58,2.58,0,0,0,.47.45,2.47,2.47,0,0,0,.44.43l0,.07-.11,0c-.18-.22-.36-.44-.56-.64,0,0,0,0,0,0,.17.19.34.43.51.66h0L19,19.94l0,0h0a8.84,8.84,0,0,1-1.29-1.45s-.06,0,0,0a5.17,5.17,0,0,0,.4.58l-1-.93-.31-.33-.22-.25c-.47-.67-1-1.31-1.47-2S14.23,14.56,13.88,14ZM12.43,3.17l0-.08,0,.08,0,.09Zm.1.17.08.17s0,0,0,0,.12.25.18.37l-.19-.14a5.41,5.41,0,0,0-.2-.5h0Zm-.14-.29V3l0,0Zm3,2.74.18.28L15.49,6C15.47,5.91,15.45,5.85,15.43,5.8Zm1.8,11.64L16.83,17l.28.21.11.16Zm-2.35-.57-.18-.16.12.09Zm-.2-.88-.08-.12.08.11Zm.6,1.61a19,19,0,0,0-5.1-3.49,17,17,0,0,1,2,.92A36.69,36.69,0,0,1,15.27,17.6ZM7.34,13.72c-.32,0-.64,0-1,.05a9.81,9.81,0,0,0-3,.19A10.87,10.87,0,0,1,7.34,13.72Zm-4,.35,0-.05h0a11.11,11.11,0,0,1,2.06-.2C4.74,13.87,4,14,3.36,14.07Zm0,0h0Zm0-.12s0,0,0,0h0l0,.08-.39.05h0l.38,0h0l-.66.14L3,14.06Zm-.2.33c-.41.08-.81.19-1.22.3l.34-.17.12,0a0,0,0,0,0,0,0l.08,0,.76-.16Zm0,0a8,8,0,0,1,1-.13l-.43.1c-.21,0-.43.11-.64.19Zm-1.38.3s0,0,0,0a2.2,2.2,0,0,1,.41-.16l-.31.16Zm0,0,0,0h0Zm1-.54-.33.17-.48.1C2.34,14.26,2.61,14.17,2.88,14.09Zm-1,.34.53-.11-.1.05a2.09,2.09,0,0,0-.54.2s0,0,0,0H1.7s0,0,0,0Zm-.1.24h0l.08,0c.42-.11.84-.21,1.26-.29L3,14.5a3.12,3.12,0,0,0-.62.31H2.15l.16-.07.53-.2s0,0,0,0l-.13,0a0,0,0,0,0,0,0c-.21.08-.42.18-.62.28l-.45,0Zm2.73,2.94c-.23-.12-.45-.25-.67-.38a6.43,6.43,0,0,1-.52-.55,3.37,3.37,0,0,0,.44,0Zm-.74-1,0,0h0Zm.81,1.14.27.33a8.38,8.38,0,0,1-.79-.61Zm-.25.92s0,0,0,0h0A11.42,11.42,0,0,1,3,17.37l.52.14,1,1.25Zm.25.26a4.26,4.26,0,0,1-.4-.19l.12,0s0,0,0,0ZM1.84,16.68h0l.22.24H2Zm-.11-.49-.06,0,0,0-.13-.22a.09.09,0,0,0,0,0l0,0c.11.14.24.27.36.4l-.14-.06c-.07-.1-.15-.2-.22-.3s-.06,0,0,0S1.67,16.11,1.72,16.18Zm-.35-.71h0l.22.22h0C1.51,15.62,1.44,15.55,1.37,15.47Zm0-.35h0Zm.85-.27h.07L2.16,15l-.3-.05s0,0,0,0l.28.05-.33.06L1.74,15l.15-.06Zm-.23,0H2Zm.64.2-.2,0,.22,0a0,0,0,0,0,0-.08L2.27,15l.17-.11.36,0Zm0,0h0Zm-.16,1.73c.13.11.27.21.41.3A.06.06,0,0,0,3,17l-.57-.47.09,0a4.42,4.42,0,0,0,.48.33c.14.16.28.33.41.49l-.52-.14C2.78,17.1,2.65,17,2.54,16.81Zm.26.39-.15-.06c-.05-.1-.11-.2-.15-.31C2.6,17,2.7,17.08,2.8,17.2Zm0-.67-.23-.15c-.23-.19-.46-.39-.68-.6l.14,0,0,0s.05,0,.06,0l.23.12-.16,0a0,0,0,1,0,0,.05l.23,0h.12a3.45,3.45,0,0,0,.37.24c.09.15.18.29.29.43Zm.49.15c.1.13.22.25.33.38L3,16.66Zm-.85-.24-.09,0-.06-.05-.09-.13Zm-.15-.8-.12,0L2,15.61l.09,0Zm-.06-.12h0Zm.13.19.16.15h0l-.23-.13Zm0-.18,0,0,.13,0,0,0Zm.05,0,0,0,0,0Zm0,0,0,0,.27-.06a1.86,1.86,0,0,1,.19.09l-.41.07-.06,0Zm.05-.07,0,0,.13,0,.07,0Zm.07-.09,0,0h0Zm0-.06-.16-.06s0,0,0,0l.15.07,0,0-.18.06L2,15.29l.17,0,.29,0ZM2,15.25l0,0H2Zm0-.09H2Zm0,.14H2l.08.09-.11-.06Zm0,.14a0,0,0,0,0,0-.05l.1.11h0l-.25-.11h0Zm-.11-.17h0a1.09,1.09,0,0,0-.23-.07l.14,0,.1,0,.05.05Zm-.16,0H1.7l-.1,0h0Zm0,0,0,0,0,0-.09,0Zm.21.21H2s0,0,0,0l.06,0h0l-.09,0-.15-.09-.07-.06Zm-.14.12,0,0-.13,0-.06-.06.12,0Zm.11.41-.09,0-.19-.21h0Zm.07.08.1.15-.2-.21Zm.84-.07-.09-.13s0,0,0,0l.05.08-.22-.13.47-.07c0,.08-.09.17-.14.25ZM3,15.77l-.49.08-.17-.15h0l.11,0s.06,0,0-.07l.27,0s0,0,0,0h.14Zm0-.11h.18l-.05.09h0Zm-.13,0h0Zm0-.08s0,0,0,0l-.16-.09.08,0,.09.11Zm-.06-.13h0l-.12,0-.07,0,.22-.06.23,0-.26,0Zm-.23,0-.05,0,0-.06.19,0Zm0-.16h-.1l.13,0Zm-.29,0-.17,0,.05-.06L2.43,15l.23,0v0Zm-.51-.12-.19,0H1.48L1.69,15Zm.07.57-.11,0-.26-.25Zm-.16.12h0l-.05-.06h0Zm-.1.09h0Zm.28.78h0a2.19,2.19,0,0,0,.28.27.05.05,0,0,0,.09,0L2.3,17s.08,0,.05,0-.18-.24-.27-.36,0,0,0,0L2,16.49l-.11-.14.21.1.3.27s-.08,0-.06.06.08.2.12.3l-.35-.14Zm.68.55c0,.09.1.19.15.28-.15-.14-.31-.27-.45-.42Zm.19.36.06.09-.25-.26Zm0-.29.21.08a10.25,10.25,0,0,0,1.21,1.2l-.44-.15A3.43,3.43,0,0,1,2.71,17.25Zm.44-.33a0,0,0,0,0,0-.06L3,16.76H3l.72.47.3.29-.44-.09Zm.1-.33c-.1-.12-.18-.25-.27-.38a5,5,0,0,0,.63.29l.08.1A3.85,3.85,0,0,1,3.26,16.59Zm-.34-.5c.05-.08.1-.17.15-.26h0l.42.52A5.3,5.3,0,0,1,2.92,16.09Zm.24-.43h.41l-.46.08Zm-.21,0v0l.25,0,0,.05Zm-.08-.09-.1-.11.3-.05.16,0s0,0,0-.06h.06l-.08.16Zm.38-.22s0,0,0,0l-.23,0,.38-.1-.06.13Zm-.34-.06-.34,0,0,0,.48-.09h.17s0,0,0,0H3.21l.25,0,0,.11Zm-.1-.21h-.1l.13-.17.59,0Zm0-.22H2.61l.2,0s0,0,0,0l-.25,0A2.9,2.9,0,0,1,3,14.58C2.93,14.66,2.89,14.75,2.83,14.84ZM1.12,15h0l0,0Zm.07.6h0Zm0-.53,0,0,0,0Zm.06.07h0l0,0h0l0,0Zm0-.16.23-.06a.09.09,0,0,0,0-.11h0l.42,0-.25.09h0l0,0s-.06,0,0,0-.2,0-.3.07a0,0,0,0,0,0,0l.17,0-.17.05Zm.35,0-.22.1h0Zm-.25,1.25c.19.24.39.47.6.7,0,0,0,0,0,0H2l.14.07.27.26h0l.44.48a3.72,3.72,0,0,0,.28.36,4.12,4.12,0,0,1-1.56-1.47C1.51,16.51,1.44,16.38,1.37,16.24Zm1.05,1.63h0l-.15-.19.1.09a4.36,4.36,0,0,0,1.48,1l.34.32a7.37,7.37,0,0,1-1.29-.66C2.73,18.24,2.57,18.06,2.43,17.87Zm.59.71a6,6,0,0,0,1.21.6s0,0,0,0l.36.35s0,0,0,0c-.25-.22-.49-.46-.73-.69l.24.08a2.76,2.76,0,0,0,.53.19A.05.05,0,0,0,4.75,19l.36.27s.06,0,0,0c-.2-.14-.39-.29-.58-.44,0,0,.1,0,.06-.07-.31-.4-.62-.79-.93-1.18l.44.06a6.53,6.53,0,0,0,.91.66l.07.09s0,0,.05,0l.14.09s.09,0,0-.07l-.27-.18-.27-.37s0,0,0,0l0,0c-.28-.38-.59-.74-.9-1.09l.14,0,.43.14a0,0,0,0,0,0-.07l-.28-.1c.08,0,.16,0,.24,0s0-.08,0-.07a3.89,3.89,0,0,1-.39.06l-.41-.16-.51-.58L4,15.69l2.06,0a0,0,0,0,0,0-.08,11.5,11.5,0,0,0-1.54,0L5,15.54a0,0,0,0,0,0-.08l-1.16.18H3.18l0-.05c.38-.05.76-.11,1.13-.19a0,0,0,0,0,0-.08l-1.06.17.08-.16c.89-.16,1.79-.28,2.69-.39,0,0,0,0,0,0-.9.11-1.79.24-2.68.4l.06-.13a12.1,12.1,0,0,1,2-.33l.48,0a9.12,9.12,0,0,1,1,0,0,0,0,0,0,0-.05,10.17,10.17,0,0,0-3.47.34l0-.11,2-.34c.05,0,0-.09,0-.08a17.24,17.24,0,0,0-2,.3s0,0,0,0h0c0-.09.08-.18.12-.28s0,0,0,0-.08.19-.12.28l-.65,0c.07-.09.12-.19.18-.28A21.92,21.92,0,0,1,6.59,14a0,0,0,0,0,0-.1,8,8,0,0,0-2.21.22s0,0,0,0a7.71,7.71,0,0,0-1.13.16l.09-.14.1,0a0,0,0,0,0,0,0c1-.12,2-.15,2.95-.22l.47,0c.06,0,.06-.07,0-.09l.55,0s0,0,0-.05a13.74,13.74,0,0,1,4.75,1.55c1.67.89,2.85,2.34,4.29,3.47a.07.07,0,0,0,0,.08,3.71,3.71,0,0,0,.19.36h0a2.11,2.11,0,0,0,.17.31h0a4.37,4.37,0,0,0,.35.51,5.48,5.48,0,0,0-.62-.46l0-.07s0,0-.07,0a8.17,8.17,0,0,1-1-.67s-.07,0,0,.06a10.47,10.47,0,0,0,1.05.8,3.46,3.46,0,0,0,.87,1.07l.32.27,0,.07s0,.05,0,0l0-.06.21.18a1.05,1.05,0,0,0,.18.13l.08,0c.14.07,0,0,.07,0h0s0,.06,0,.08l0,.11h0c-.3-.15-.59-.3-.86-.46l.13,0s0-.07,0-.06l-.17.05-.34-.21-.29-.42s0,0,0,0l.21.34-.12-.08a6,6,0,0,1-.82-1.06s-.05,0,0,0c.13.24.29.47.45.7a4.75,4.75,0,0,1-.79-.86s0,0,0,0a5.77,5.77,0,0,0,1.23,1.35c.08.09.17.17.26.26l-.42.1-.12-.13h.27s0-.05,0-.05h-.31a1.89,1.89,0,0,1-.14-.15s0,0,0,0l.11.14h-.42a.24.24,0,0,0-.1-.32.41.41,0,0,0-.15-.2v0l0,0a0,0,0,0,0,0,0l-.1-.08a1.35,1.35,0,0,0-.21-.28h0c-1.79-3.41-7.18-4.34-10.51-3.62a.18.18,0,0,0-.13.12.09.09,0,0,0,0,.11c.9,2.1,2.79,3.14,4.9,3.76s4.09,1.35,6.15.68a.24.24,0,0,0,.11-.1h.5l.11.14-.15,0-.18-.11s0,0,0,0l.14.09-.14,0c0-.06,0-.11,0-.17a0,0,0,0,0-.07,0c0,.06,0,.11,0,.17l-1.18.19c-.05,0,0,.08,0,.08a10,10,0,0,0,1.18-.16l0,.15s0,0,0,0h0v0a6,6,0,0,0-1.29.46.09.09,0,0,0,0,.17,1.77,1.77,0,0,0,.67-.11.06.06,0,0,0,0-.12h0l.67-.25,0,.1a3.42,3.42,0,0,0-.92.41.05.05,0,0,0,0,.09c.31-.09.61-.23.92-.34h0a1.61,1.61,0,0,0,.14.21c-.26,0-.52,0-.78,0-.07,0-.08.11,0,.11a5.92,5.92,0,0,0,.85,0l0,0h0a0,0,0,0,0,.06-.05,2.09,2.09,0,0,1-.2-.34l.31-.11a8.92,8.92,0,0,0,.89.36h0a6.48,6.48,0,0,1-2.88.09.07.07,0,0,0-.06.12.82.82,0,0,0,.24.11l-.57,0s-.05,0,0,.07-.11.13,0,.15l.1,0s0,0,0,0h.09a7.57,7.57,0,0,0,3.51-.21c.07,0,0-.12,0-.11l-.25,0,.17-.22h0l0,0,.19-.05s0-.08,0-.07l-.09,0c.06-.09.1-.18.15-.27l.39.13c0,.07-.05.14-.09.21s0,0,0,0l-.25,0s-.06,0-.06.07l-.08,0c-.06,0-.09.07,0,.09l.68.32,0,0a3.9,3.9,0,0,1-.36-.15s-.08.05,0,.08l.31.15-.08.07s0,.05,0,.07a26.79,26.79,0,0,0-4.93.26l-1.47-.1A16,16,0,0,1,3,18.58ZM17.43,22.4H17.3l.42-.12.06,0-.14.2a7.65,7.65,0,0,1-1.15.14l1-.15C17.52,22.5,17.5,22.39,17.43,22.4Zm.32-.2h0A1.93,1.93,0,0,0,18,22c0,.06-.05.11-.08.17Zm-.06,0-.9-.34.29-.11.2.08a2.91,2.91,0,0,0,.44.17h0l.09,0a0,0,0,0,0,0-.09l-.1,0-.36-.45a2.9,2.9,0,0,0,.3.2s-.07.08,0,.1l.38.12L18,22A2.18,2.18,0,0,1,17.69,22.18Zm-.84-.74-.23-.17.4-.12.15.14.05.06Zm.41,0a4.22,4.22,0,0,0,.34.41l-.38-.17s0,0,0,0h0L17,21.52Zm-.51,0h0l-.28-.15.11,0Zm-.12,0-.43.1h0c0-.06,0-.13-.05-.19l.23-.06Zm-.28.22.16.08-.22.06-.05-.1Zm.07,0,.35-.11.18.1-.35.08Zm1.33-.06s0,0,0,0l-.35-.28a3.59,3.59,0,0,0,.75.3h0l-.05.11Zm-2.25-.88C12.13,21.62,7,19.67,5,16.92A10.09,10.09,0,0,1,15.5,20.75Zm-13,10,0,.21-.16.22C2.35,31,2.41,30.85,2.48,30.71Zm.72-.12a11.94,11.94,0,0,1,1.07-1.16c-.21.27-.42.54-.62.82C3.51,30.35,3.36,30.47,3.21,30.59Zm1-.62-.14.16L3.16,31l.43-.59A6.3,6.3,0,0,1,4.21,30Zm-.67.44-.43.6-.49.46a6,6,0,0,1,.46-.7Zm-1,1.16-.18.17c0-.15.06-.3.09-.45l.5-.4A5.24,5.24,0,0,0,2.52,31.57Zm.06,0-.06.07v0ZM2,32.16c-.08.16-.15.31-.22.47l-.09.09a3.55,3.55,0,0,1,.13-.39Zm-.15.06s.05-.08.07-.12a2.93,2.93,0,0,1,.28-.29l-.1.17Zm.22-.13.18-.17,0,.11c-.14.18-.28.36-.41.56h0C1.89,32.42,2,32.25,2.06,32.09Zm.1-.18.12-.2,0,.11Zm0-.11s0,0,0,0A2.87,2.87,0,0,0,2,32a2.17,2.17,0,0,1,.19-.32s0-.06,0,0a1.84,1.84,0,0,0-.24.38c.07-.17.15-.33.23-.5l.25-.19-.05.29Zm0-.4.2-.25,0,.12Zm.13.44.14-.14,0,.06-.13.16Zm-.1-1c-.09.17-.17.34-.25.52l-.18.16C1.93,31.32,2.07,31.09,2.22,30.88Zm-.61,1,.16-.25h0l.17-.15,0,.05q-.26.36-.5.74h0Zm-.18.42h0q.23-.35.47-.69l0,.1a6.17,6.17,0,0,0-.48.81h0ZM1.26,33l.19-.42s0,0,0,0l-.12.29c0-.09,0-.19.07-.28A5,5,0,0,1,1.71,32c0,.08-.07.17-.1.25a.06.06,0,0,0,.06.08,2.86,2.86,0,0,0-.27.46h0a2.79,2.79,0,0,1,.27-.46.06.06,0,0,0,0,0h0a3.41,3.41,0,0,0-.14.49l-.3.31s0,0,0,0l0,0h0Zm.49.34.13-.07.23-.08-.23.23-.21.06Zm0-.09,0-.07.07,0,0,.08Zm.69,0L2.6,33,2.75,33l0,0-.14.16c0,.06,0,.12.09.07L2.91,33l.15.07-1.18.44s0,0,0,0a4.48,4.48,0,0,0,.55-.19s0-.08,0-.07L2,33.38l.07-.07s0,0,.06,0l.17-.21h0l0,0S2.39,33.27,2.43,33.22Zm0-.2.08-.1-.07.1Zm2.15.37c-.43-.1-.86-.2-1.29-.33a8.48,8.48,0,0,0,.84.12,5.91,5.91,0,0,0,1.51.35h0A6.64,6.64,0,0,1,4.58,33.39Zm.9.16-.18,0-.24-.07Zm-.61.07c-.51.06-1,.11-1.53.13H3.11l.33-.07a0,0,0,0,0,0-.06c-.37.06-.73.15-1.1.24H2.26a11.56,11.56,0,0,0,1.35-.39c.05,0,0-.1,0-.09-.54.13-1.06.31-1.6.42l.11,0a8.67,8.67,0,0,0,1.14-.3s0-.1,0-.09c-.52.12-1,.29-1.56.4h0a10.45,10.45,0,0,0,1.51-.56s0,0,0,0A12.14,12.14,0,0,0,4.86,33.62Zm.92.48c.14,0,.27,0,.4-.07l.57,0a8.39,8.39,0,0,1-1.6.45q-.53,0-1.05,0l-.49-.1.21,0a5.07,5.07,0,0,0,1.55-.27A2.08,2.08,0,0,0,5.78,34.11Zm-.35,0,.14,0,.31,0h.23A2.54,2.54,0,0,1,5.43,34.1Zm1.19-.18h0Zm-2.4.24c.31,0,.63,0,.94-.07a5.71,5.71,0,0,1-.92.18s0-.05,0,0l-.52.08c-.2,0-.4,0-.6,0h0l.35-.07a0,0,0,0,0,0-.06l-.26,0a0,0,0,0,0,0,0H2.85c.21,0,.42-.07.63-.13,0,0,0,0,0,0l.26,0a0,0,0,1,0,0,0A6.64,6.64,0,0,1,2.66,34h0a0,0,0,0,0,0-.09h.7c.05,0,.06-.08,0-.08H2.48l.42-.09v0H3s0,0,0,0h.13c.74.08,1.49.14,2.24.18l-.22,0,0,0s0,0,0,0l-.85.07S4.2,34.16,4.23,34.16Zm-1,.3h0Zm-.87-.37h0l.12.06-.2,0h0l-.19,0-.15,0A3.16,3.16,0,0,0,2.37,34.09ZM1.8,34h.3Zm.75,0h0A4.88,4.88,0,0,0,3.39,34a6.69,6.69,0,0,1-.66.15h0Zm.11.14h0ZM2.53,34h0Zm-.11.26.36.06a0,0,0,0,0,0,0l-.47-.09Zm.51,0h0Zm.06.13H3l-.15,0h.09Zm-1.44-.72h0l0,0,0,0Zm0-.09v0Zm0,0h0v0h0Zm0-.25-.06,0,.08-.12Zm0,.47h0s0,0,0,0h0a.17.17,0,0,0,0-.08S1.52,33.77,1.54,33.77Zm-.07-.21h0l0,0Zm.15.46h0Zm0-.19h0Zm0-.19v0l.09,0Zm.14.51v0l-.09,0Zm-.08-.64h0l.06-.11,0,0h0Zm0-.17-.07,0v0l.09-.06Zm-.41.17.09-.13s0,0,0,0a1.57,1.57,0,0,1,.23-.29h0l-.34.49Zm-.06.12.23-.31v0s0,.05,0,0l-.05,0a0,0,0,0,0,0,0l-.19.2h0ZM1.09,33l0,.16,0,0Zm.09.8-.11.11,0,0v0l.14-.15A.08.08,0,0,0,1.18,33.84Zm-.12,0,0-.07,0-.06.08,0Zm.31-.41h0l.11-.07v0l-.16.09s0,.06,0,0h0l-.1.08-.08,0Zm-.16.33.06-.07a0,0,0,0,0,0,0c.2,0,0,0-.06,0h0Zm.06.5,0,0a5.2,5.2,0,0,0,.91.16,0,0,0,0,0,0,0C1.85,34.4,1.55,34.35,1.26,34.28Zm1.44.25v0l-.17,0-.26-.06h0a.06.06,0,0,0,.07-.06l.33,0s0,0,0,0c.35.07.7.12,1,.16l.08,0h-.1l-.7,0Zm1.05.39h0Zm.16-.17H3.43l-.25,0c.17,0,.35,0,.52,0a.07.07,0,0,0,.06-.06h.35l.13,0-.33,0ZM5,35c-.36,0-.71,0-1.07,0a8.74,8.74,0,0,0,1.16-.1,5.45,5.45,0,0,0,1.07,0A8.35,8.35,0,0,1,5,35Zm3,0a10.81,10.81,0,0,1-3,.35A17.65,17.65,0,0,0,8,35Zm1.89-1a12.4,12.4,0,0,1-3.77.89c.5-.09,1-.2,1.48-.32a0,0,0,0,0,0-.07l-.71.14.11,0s0,0,0,0a18.23,18.23,0,0,0,3.83-1.23s0-.06,0,0l-.16.06.7-.36s0,0,0,0a15.42,15.42,0,0,1-1.71.77L9.15,34a11.9,11.9,0,0,1-1.72.45,0,0,0,0,0,0,0l.29-.06L7,34.56s0,0,0,0H7c.52-.24,1.06-.43,1.61-.61,0,0,0,0,0,0-.55.19-1.1.39-1.64.64l-1,.08a6.57,6.57,0,0,0,1.87-.49s0-.08,0-.06a7.06,7.06,0,0,1-1.21.38s0-.08-.06-.07a11,11,0,0,1-1.13.14A7.06,7.06,0,0,0,7,34a0,0,0,1,0,0,0l-.27.1a.07.07,0,0,0,0-.13h0l.19,0,.44-.06a0,0,0,0,0,0-.06l-1,.14c-.73-.05-1.46-.08-2.2-.11.38,0,.77-.05,1.15-.09l.55.1s.06-.07,0-.08l-.22-.06.61-.07a11.16,11.16,0,0,0,1.58-.14h0a7.29,7.29,0,0,0,1.53-.29h0c.69-.2,1.36-.46,2-.72,0,0,0-.08,0-.07-.41.13-.82.28-1.22.43A22.49,22.49,0,0,1,5.39,33a25.79,25.79,0,0,0,4.92-.55s0-.05,0,0A28.46,28.46,0,0,1,5.23,33L4.44,33s0,0,0,0L5,33h0s0,0,0,0H5.1a20.21,20.21,0,0,0,4.77-.15,8.59,8.59,0,0,1-2.09.51h0c-.41.06-.82.11-1.23.13a.05.05,0,0,0,0-.1,12.73,12.73,0,0,1-1.92-.24,6.16,6.16,0,0,0,.7,0,0,0,0,0,0,0-.05H4.35a4.81,4.81,0,0,1-1-.37s-.07,0,0,.05a5.92,5.92,0,0,0,.61.28A7.51,7.51,0,0,1,3.17,33s0,0,0,0L3,33q.43-.48.88-.94a.24.24,0,0,0,.2.23C8.55,33,15.44,31,16,25.7a.09.09,0,0,0-.16-.06c-1.7-.78-4,.21-5.63.81A12.16,12.16,0,0,0,4,31.67a.17.17,0,0,0,0,.08,14.54,14.54,0,0,0-1.06,1.1l-.1,0-.07,0a9.75,9.75,0,0,1,1-1c.06,0,0-.13-.07-.09a8.24,8.24,0,0,0-.87.81l.51-.69s0-.08-.06,0l-.75.94-.14-.06s-.08.06,0,.08l.12.05-.1.13s0,0,0,0-.32.16-.48.26l0-.08L2,33.06s0,0,0,0l0-.06.13-.07s0-.08,0-.06h0c.35-.57.76-1.1,1.15-1.65,0,0,0-.07-.05,0A12.68,12.68,0,0,0,2,33L1.93,33l.21-.38s0,0,0,0l-.22.4-.07,0L2,32.84s0-.06,0,0l0,0s0,0,0,0-.11.22-.16.33l-.13.09,0-.14c.09-.15.18-.29.27-.43l.06-.07s0,0,0,0h0l0,0s0,0,0,0l.25-.34s0,0,0,0v-.06l0,0a3.86,3.86,0,0,0-.15.59h0A4.23,4.23,0,0,1,2.38,32l.36-.46s0-.06,0-.06L3,31.24l-.61.89s0,0,0,0c.21-.32.43-.63.65-.95l.79-.74-.56.65h0l.6-.69L4.25,30s0,0,0,0l-.12.11L4.23,30l0,0s0,0,0,0c.38-.42.76-.84,1.17-1.24h0c-.41.4-.79.82-1.17,1.24,0,0,0,0,0,0a4.3,4.3,0,0,0-.56.33c.22-.3.44-.59.67-.88l.48-.46s0,0,0,0L4.66,29l.86-.82s0-.07,0,0A23.91,23.91,0,0,0,3.63,30l-.28.32c-.13.15-.27.3-.4.45l-.51.42,0-.17a28.33,28.33,0,0,1,3-3.07,0,0,0,0,0,0,0,23.92,23.92,0,0,0-2.93,2.85c0-.1.06-.2.08-.3L2.9,30a14,14,0,0,1,1.49-1.49s0-.1-.06-.06c-.36.3-.71.61-1.05.93a16.22,16.22,0,0,1,2.33-2.16c.3-.16.6-.31.91-.46,0,0,0,0,0,0l-.84.43a17.67,17.67,0,0,1,5.1-2.72c2.61-.84,5.32-.61,8-.9h0a6.2,6.2,0,0,0-1,.26l-.15,0-.14,0s0,0,0,0c-.86,0-1.73,0-2.6.08,0,0,0,.06,0,.05.9,0,1.78-.09,2.67-.08l.1,0-.11,0a12,12,0,0,0-3,.25,0,0,0,0,0,0,.08l.69-.1a0,0,0,0,0,0,0c.11,0,.22,0,.33.06l-.73.12c-.06,0,0,.1,0,.09.37,0,.74-.09,1.1-.15l.67,0c-.56.08-1.12.17-1.68.26-.05,0-.05.1,0,.1l.15,0s0,.09,0,.09l1.31-.11.12,0a0,0,0,0,0,0,0l-.1,0,1,0h0a4.53,4.53,0,0,0-1.16.36c-.05,0,0,.11,0,.1a8.84,8.84,0,0,1,2.37-.43,8.31,8.31,0,0,1-1,.59l-.43-.06a5.25,5.25,0,0,0,.85-.28c.06,0,0-.12,0-.09a6.36,6.36,0,0,1-1,.35l-.62-.11c-.07,0-.09.1,0,.12.35.08.7.14,1.05.2h0l-.08,0s0,0,0,0h0a3.75,3.75,0,0,0-1.1.7c0,.05,0,.14.07.11a7.86,7.86,0,0,0,.92-.53l-.05.14a5.28,5.28,0,0,0-.82.53.07.07,0,0,0,.07.12l.62-.3-.17.38-.25.1s.05-.09.07-.14a0,0,0,0,0,0,0,1.92,1.92,0,0,1-.1.18l-.21.09s0,.1,0,.09l.11,0a4.88,4.88,0,0,1-.3.44s0,0,0,0a4.31,4.31,0,0,0,.34-.49l.25-.09a10.92,10.92,0,0,1-1.12,1.93s0,.07,0,0a9.84,9.84,0,0,0,1.16-2l.36-.13c-.08.17-.19.33-.28.5l0,0s0,0,0,0-.13.24-.2.35-.21.26-.33.37a0,0,0,0,0,0,0c.1-.09.17-.2.27-.3a9.75,9.75,0,0,1-1,1.26l-.72.46s0,.08,0,.06l.37-.19c-.36.36-.73.7-1.12,1,0,0,0,.06,0,0a12.17,12.17,0,0,0,1.3-1.17A12.47,12.47,0,0,0,17.35,28l-.09.15s0,.06,0,0,.1-.17.14-.26c.33-.26.65-.53,1-.8,0,0,0-.07,0,0-.26.22-.53.43-.8.63l.15-.31a11.62,11.62,0,0,0,1-.84A11,11,0,0,0,20,25.84c0,.07,0,.14,0,.21h0l-1.07.89c.13-.17.26-.34.37-.51s0-.09-.06,0a8.09,8.09,0,0,1-.78,1q-.79.67-1.57,1.38l-.49.36s0,.06,0,.09a27.17,27.17,0,0,0-2,2.06c-.17.17-.34.33-.52.49A18.81,18.81,0,0,1,9.88,34ZM4.37,31.8A13.08,13.08,0,0,1,9.85,27c2-1,3.89-1,6-1.32C14.34,30.48,9,32.45,4.37,31.8Zm13.74-3.26a28.75,28.75,0,0,1-2.7,2.5C16.26,30.15,17.18,29.34,18.11,28.53ZM14.2,32.48l-.09.1.08-.1Zm-1.84,6.46a11.54,11.54,0,0,0,1.2,4.42,4.86,4.86,0,0,0,.1.5A13,13,0,0,1,12.35,38.94Zm1.15,3.3a4.27,4.27,0,0,0-.16-.45c0-.11,0-.22-.05-.33l.1.24,0,.08s0,0,0,0S13.46,42.1,13.5,42.25Zm-.05.16.16.33a0,0,0,0,0-.07,0c-.06-.1-.1-.21-.15-.31s.07,0,.06,0Zm.08.38h0l0,.06a0,0,0,0,0-.05,0l-.14-.35Zm.23.78,0-.14h0l0-.09,0-.08c0-.09,0-.18,0-.27l.17.36a4.65,4.65,0,0,0,.15.47L14,44l-.14-.44A0,0,0,1,0,13.76,43.57ZM14,44.65l0-.06A3.44,3.44,0,0,1,13.8,44l.11.28a1.78,1.78,0,0,0,.09.21l0,.09Zm.08-.15c0-.09-.09-.19-.13-.29l-.13-.36c.08.22.17.43.26.64Zm.13-.06-.09,0-.08-.2a0,0,0,0,0,.06,0l.11.17Zm.09,0h0c-.12-.36-.22-.72-.33-1.08,0-.2-.07-.39-.11-.59l.11.19a6.78,6.78,0,0,0,.3,1c0,.16,0,.33,0,.5Zm.17,0h0l0,0s0-.06,0-.09a0,0,0,0,0,.07,0v0s0,0,0,0Zm.15.32h0s0,0,0,0h0Zm0-.24,0-.1.12-.13-.1.22Zm.14.17h.06l0,0h-.06Zm0,.28-.05,0,0-.05h0Zm.15-.52v0s0-.09-.07,0l-.07.09h-.05l.11-.24L15.4,44l-.34.42Zm.4-.11,0,0h0Zm-.32.31h0l.07-.1h0s0,0,0,0h0l.06,0s0,0,0,0Zm.44-.25.24-.1-.14.13-.29.14Zm.1-.5.4-.21-.18.2-.43.3c.07-.09.15-.18.21-.27S15.65,43.87,15.65,43.86Zm-.27.88h0l0,0a2.5,2.5,0,0,0,.42-.21Zm.54-.29,0,0h0Zm-.17-.27c.07-.07.13-.16.2-.24l.27-.18a0,0,0,0,0,0,0h0l-.28.3Zm.74-.51.78-.36-.17.15-.15.13-.67.35C16.35,43.84,16.42,43.75,16.49,43.66Zm-.26.4.36-.17-.31.26S16.27,44.08,16.23,44.07ZM20.68,40a14.48,14.48,0,0,1-1.26,2,12.6,12.6,0,0,1-2.54,2.2l.22-.18a.06.06,0,0,0,0-.07,6.59,6.59,0,0,0,.76-.62.06.06,0,0,0-.08-.09c-.49.33-1,.69-1.45,1,.22-.17.42-.36.48-.41l0,0A7.24,7.24,0,0,0,18,43l.12,0s0,0,0,0a4.5,4.5,0,0,0,.41-.41,6.26,6.26,0,0,0,.86-.77s0,0,0,0a6.5,6.5,0,0,1-.72.68,3.26,3.26,0,0,0,.42-.67,4.35,4.35,0,0,0,1.14-1.67s0,0,0,0a4.92,4.92,0,0,1-1,1.39l0-.07s0,0,0,0-.06.11-.08.17c-.3.31-.61.6-.93.9,0,0,0,.07,0,.07-.25.25-.5.49-.77.72l-.82.37v0s0,0,0,0l.14-.1c.06,0,0-.13-.07-.09l-.44.3c0-.05.09-.09.12-.14h0c.29-.17.57-.34.84-.53,0,0,0-.07,0,0-.27.18-.55.35-.82.52a0,0,0,0,0-.05,0l-.06.07-.55.31a.05.05,0,0,0-.09,0l-.09.11-.47.25.08-.16s0,0,0,0a2.53,2.53,0,0,0,.15-.26l.11-.18a.1.1,0,0,0,.1-.06h0l-.08,0,.26-.42a14.42,14.42,0,0,0,1.9-1.35s0,0,0,0A14.75,14.75,0,0,1,15.61,43v0c0-.05,0-.11-.08-.05l-.17.25a3.14,3.14,0,0,0,.08-.5.08.08,0,0,0-.16,0,2.84,2.84,0,0,1-.22.87l-.05.08,0-.07a0,0,0,0,0-.08,0l-.15.31a11.86,11.86,0,0,0,.2-1.19c0-.07-.09-.07-.1,0-.08.4-.17.8-.27,1.19,0-.1,0-.19,0-.29l.09-.4s-.06-.07-.07,0l0,.13c0-.41-.07-.82-.13-1.21,0-.06-.1,0-.1,0,.06.54,0,1.12.11,1.66v0s0,0,0,0,0,.12,0,.18a0,0,0,0,0,0,0l-.05.22c0-.15-.09-.31-.13-.46s0-.31-.06-.46a0,0,0,0,0-.07,0l0-.05c-.16-.54-.32-1.07-.45-1.62a0,0,0,0,0-.08,0c.07.34.14.7.22,1.06l-.11-.18c-.13-.65-.26-1.3-.37-1.95a.05.05,0,0,0-.1,0c0,.09,0,.18,0,.27a.22.22,0,0,0-.14-.13s0,0,0,0l.15.15h0c0,.31.08.62.12.94v0s0,0,0,0l0-.1-.06-.24a0,0,0,0,0-.05,0l-.09-.22c-.09-.67-.15-1.33-.21-2,0,0-.07,0-.07,0A13.18,13.18,0,0,0,13,40.5a16.36,16.36,0,0,1-.46-1.79s0,0,0,0A17.36,17.36,0,0,0,13,40.8a11.16,11.16,0,0,0,.29,1.55c0-.1-.1-.19-.14-.29a28.88,28.88,0,0,1-.8-3.42s0,0-.07,0a11.2,11.2,0,0,1,.41-3.12c.32-.62.66-1.22,1-1.81l.07-.11c.21-.29.42-.58.64-.85.7-.72,1.38-1.45,2.05-2.19.56-.51,1.08-1,1.58-1.56,0,0,0,.1.08.06.58-.47,1.15-.94,1.75-1.37l-.4.44s0,.09.06.07q-.37.37-.7.77a4.85,4.85,0,0,0-.61.51s0,0,0,0a4.66,4.66,0,0,1,.53-.43,9.36,9.36,0,0,0-.57.76,8.11,8.11,0,0,0-1.86,1.78s0,.05,0,0a10.2,10.2,0,0,1,1.8-1.71,0,0,0,0,0,.06,0l.09-.11.79-.6c-.13.15-.26.29-.38.45s0,.14.09.09c.43-.47.88-.93,1.31-1.4l.26-.09c-.41.41-.82.81-1.19,1.27,0,.05,0,.13.09.08.32-.31.64-.62,1-.94a0,0,0,0,0,.06.05l0,0s0,.11.07.07l0,0v0a22.06,22.06,0,0,0-3,2.73s0,.08,0,.05a29.9,29.9,0,0,1,3-2.71c0,.14-.07.28-.1.42s.1.09.11,0,.08-.36.13-.54.2-.15.3-.22,0-.05,0,0l-.27.19v-.06a4,4,0,0,0,.33-.33,32.1,32.1,0,0,0,.72,4,0,0,0,0,0,.05,0c0,.06,0,.12,0,.18h0c0-.06,0-.12,0-.18a0,0,0,0,0,0,0c0-.12,0-.23-.07-.35a8,8,0,0,0-.29-1.47c-.14-.76-.26-1.53-.37-2.29l.09-.11.36-.09a0,0,0,1,0,0,0l-.33.07a3.15,3.15,0,0,0,.32-.54l.17-.22,0,0a9.54,9.54,0,0,1-.37,1.85.05.05,0,0,0,.1,0,6.53,6.53,0,0,0,.3-1.12c.08.42.16.84.2,1.26,0,.09,0,.17,0,.26s0,0,0,0a15.34,15.34,0,0,1-.34,4.69s0,.05.05,0A14.17,14.17,0,0,0,22,29.54h0a8.14,8.14,0,0,0,0-1.87,6.43,6.43,0,0,1,.06,1.93,0,0,0,0,0,.07,0,4.34,4.34,0,0,0-.07-2,3.28,3.28,0,0,1,.26.32,8.52,8.52,0,0,1,.13,1.39,23.18,23.18,0,0,1-.65,6.9s0,0,0,0a20.11,20.11,0,0,0,.67-5.8s.09,0,.09-.05,0-.1,0-.15,0,0,0,0c0-.18,0-.36,0-.54,0,0,.07,0,.07,0s0-.14,0-.21q.05.56.12,1.13A26.49,26.49,0,0,1,20.68,40Zm-3.26,3.33.12-.1.08,0Zm1.2-1.19.28-.26a3.8,3.8,0,0,1-.78.92l-.3.18a6.77,6.77,0,0,0,.8-.84Zm-.59.74-.27.2-.11,0,.08-.07Zm3.41-12.39a8,8,0,0,1,.27,1.36C21.61,31.36,21.53,30.91,21.44,30.45Zm1.77-5h0Zm0,.37h0s0,0,0,.07S23.23,25.83,23.23,25.81Zm0,.3s0-.07,0-.11v-.09s0,0,0,0v0l0,0C23.3,26,23.28,26.05,23.27,26.11Zm.1,1c0-.05,0-.11,0-.16l0,0a4.11,4.11,0,0,0,0,.42C23.4,27.22,23.39,27.14,23.37,27.06Zm.1.51h0a0,0,0,0,0,.06,0c0-.09,0-.18,0-.28a1.63,1.63,0,0,0,0,.26.18.18,0,0,0,.08.13l-.14.1Zm.6,6.77c-.14-.51-.25-1-.35-1.56,0-.15,0-.3,0-.45v0a5.74,5.74,0,0,0,.41,1.9A.14.14,0,0,0,24.07,34.34Zm.14.47a.14.14,0,0,0,.1,0l.08.26s-.08,0-.06.06l.14.36,0,.16Q24.35,35.25,24.21,34.81Zm6.87,6.88c.73.34,1.49.61,2.23.92h0l.52.18.36.18-.78-.22A19,19,0,0,1,31.09,41.69Zm.47-.45a4.39,4.39,0,0,0,1.37.35,0,0,0,0,0,0-.08,4.89,4.89,0,0,1-1.44-.42,4.48,4.48,0,0,0,1,0l.15.05a4.23,4.23,0,0,0,1,1c-.4-.08-.79-.18-1.18-.29A5.33,5.33,0,0,1,31.56,41.24Zm.52.45a8.2,8.2,0,0,1-2.08-1,5.9,5.9,0,0,0,1.17.37l.16.08A4.91,4.91,0,0,0,32.08,41.7Zm1.71-.77s0-.1,0-.14l.06,0,.06.15q0,.2,0,.41l-.14,0-.16,0-.14-.18c0-.05-.12,0-.08.07l0,.08a4.29,4.29,0,0,1-.48-.16,4.67,4.67,0,0,0,.86-.27s0,.09,0,.14Zm.93-.6c0,.38,0,.76,0,1.14l-.23,0c0-.11-.08-.22-.13-.33V41A6.3,6.3,0,0,0,34.72,40.32Zm-.3.5a8.37,8.37,0,0,0,.15-1.29c.05.21.09.41.13.61A6.12,6.12,0,0,1,34.42,40.83Zm.31.77s0,.08,0,.12l-.11-.13Zm-.32-.18-.12,0c-.1-.23-.2-.45-.31-.66v0h0s0,0,0,0,0-.18,0-.28C34.14,40.73,34.27,41.08,34.41,41.42Zm-.09.81-.07,0L34,41.89a.59.59,0,0,0,.29.13l.07.23Zm.13.6-.12-.06L34,42.6l-.25-.16.48.13s0,0,0,0Zm-.26-1.28.07.17s0,.08,0,.12a.91.91,0,0,1-.36-.33Zm-.27-.24c0-.11,0-.22,0-.34l.15.36Zm.07-1h0c0,.12,0,.24,0,.36h0v0a.05.05,0,0,0-.09,0v0h0c.11-.64.16-1.29.21-1.94C34,39.27,34,39.78,34,40.29Zm-.43,1.14.26.42-.17-.13s-.09,0-.06.06a2.52,2.52,0,0,0,.22.19h0a4.15,4.15,0,0,1-1-.77A7.09,7.09,0,0,0,33.55,41.43Zm.49.9.12.07,0,.07-.6-.2ZM34,43l.21.05a0,0,0,0,0,0,0l0,0,.09,0,.17.08Zm.47-.36,0,0h0Zm-.12-1h.11l.15.4s.09,0,.08,0-.05-.14-.08-.2l.12.17q0,.15,0,.31s-.05,0,0,.07h0c0,.06,0,.11,0,.17l-.14-.13A4.93,4.93,0,0,0,34.36,41.57Zm1.14.67,0-.1h0a3.92,3.92,0,0,0,0-.47l0,.09v0l0,.21a.07.07,0,0,0,.06.07l.05.31a1.53,1.53,0,0,0-.06-.26s-.08,0-.07,0S35.49,42.19,35.5,42.24Zm.05-.62,0,0,0-.08a4.85,4.85,0,0,0,0-.62,6.24,6.24,0,0,0,.06-.73,5.43,5.43,0,0,1,.15.66C35.63,41.12,35.59,41.37,35.55,41.62Zm-.1.6,0-.05h0Zm.09.74.05.13a3.06,3.06,0,0,1-.19-.26l-.13-.2h0Zm-.31-.77,0,0v0l0,0v0h0l-.05,0s0,0,0,0Zm0,.14a.07.07,0,0,0,0,.08h0l.09.16-.21-.3h0s0,0,0,0Zm.13-1.79c0-.07,0-.14-.06-.22s0-.34.06-.51v-.06c0-.17,0-.34,0-.51,0,0,0,0,0-.06A8.56,8.56,0,0,1,35.39,40.54Zm0,1.49,0,0-.06-.12c0-.05,0-.1,0-.15s0-.16.06-.24C35.34,41.68,35.35,41.86,35.36,42Zm-.1-.62c0-.2,0-.4-.07-.61v-.05l0-.13c0,.2,0,.39.06.59S35.27,41.35,35.26,41.41Zm0-1.45,0,.1v0l0-.34a0,0,0,1,0-.06,0s0,.09,0,.14c-.05-.17-.12-.33-.18-.5a7,7,0,0,0,.17-1.46A10.88,10.88,0,0,1,35.28,40Zm-.12.25,0,.21c-.05-.27-.11-.54-.18-.81l0-.09A6.9,6.9,0,0,1,35.16,40.21ZM35,42.87h0Zm0-2.12c-.06-.24-.11-.48-.18-.72l0-.14C34.91,40.18,35,40.47,35,40.75Zm0,1.69v.12s-.07,0,0,0l0,.06h0l-.08-.07c0-.06,0-.13,0-.19Zm0-.14s0-.07,0-.1h0v.11h0Zm0,.68-.2-.1h0s0,0,0,0l.13.08Zm-.26.17h0l.18.07s0,0,0,0l-.07,0,.08,0a1.47,1.47,0,0,0,.3.14Zm.6-.29-.08-.1c0-.05,0-.1,0-.16l0,0,.19.31-.11-.11S35.22,42.84,35.23,42.87Zm.54.63,0,0-.48-.14.24.05h0a.07.07,0,0,0,.07,0h0l.16,0Zm0-.16-.09,0,0,0h0a0,0,0,0,0,0,0l0,0s0,0,0,0l0,0h0a.05.05,0,0,0,0-.05l0,0s0,.1,0,.15.07.05.07,0v0h0Zm-.1-1.59c0-.08,0-.17.05-.25l0,.17v.21Zm.11.28V42c0,.08,0,.17,0,.25A1.79,1.79,0,0,0,35.81,42Zm.09.61s0,0,0,0a2.08,2.08,0,0,0,0-.39,0,0,0,0,0,.07,0c0-.1,0-.2,0-.29s0,0,0,0,0-.13,0-.2v.14C36,42.11,35.94,42.37,35.9,42.64ZM36,39.55a6.76,6.76,0,0,1-.08,1.69c0-.08,0-.16,0-.24s0-.46,0-.68,0-.35,0-.53,0-.06-.08,0c0-.17,0-.35-.09-.52h0a4.75,4.75,0,0,1,.07.54h0c0,.18,0,.35-.05.53a2.15,2.15,0,0,0-.13-.33.06.06,0,0,0-.08,0,10.78,10.78,0,0,0-.12-1.43A10.34,10.34,0,0,0,35.16,37a6.41,6.41,0,0,0-.39-1.59c.31.57.61,1.15.91,1.74a19.76,19.76,0,0,1,.11,2.32c0,.06.08.06.09,0a17.44,17.44,0,0,0-.08-2.09l.22.45a18.94,18.94,0,0,1,.07,1.95c0-.08,0-.17,0-.25S36,39.5,36,39.55Zm.24-1a19.54,19.54,0,0,1-.15,2.8v0a6.26,6.26,0,0,0,0-1.42,17.78,17.78,0,0,0-.06-2c.06.12.12.24.18.37S36.22,38.45,36.23,38.56Zm-1-3.73.24.47c.1.2.2.41.31.61l.11.29a10.17,10.17,0,0,1,.3,1.92v0c-.14-.31-.28-.61-.43-.91a10.9,10.9,0,0,0-.54-2.41Zm0,0a0,0,0,0,0-.07,0A10.55,10.55,0,0,1,35.65,37c-.31-.59-.63-1.17-1-1.75a5.69,5.69,0,0,0-.39-.75,0,0,0,0,0-.06,0,14.17,14.17,0,0,1,.68,2,7.84,7.84,0,0,1,0,2.59,0,0,0,0,0-.07,0s0,.09,0,.14,0,.06,0,.1c-.08-.3-.16-.59-.25-.89,0-.05-.09,0-.08,0,.1.39.17.79.24,1.18l0,.17-.12-.44a0,0,0,0,0-.08,0,15.4,15.4,0,0,0-.68-4.38s0,0,0,0A13.59,13.59,0,0,1,34.31,41c-.1-.23-.2-.46-.29-.69h0c0-.51,0-1,0-1.53h0c0-.61.08-1.21.14-1.82,0,0,0,0,0,0-.13,1.26-.14,2.53-.34,3.79a5,5,0,0,1-1,.29,5.67,5.67,0,0,1-.76-.4s-.06,0,0,0l.41.25A6.65,6.65,0,0,1,29,38.08s-.09,0-.07,0a7.07,7.07,0,0,0,3.4,2.94,4.62,4.62,0,0,1-1,0L31.23,41a3.77,3.77,0,0,1-.39-.44,5.21,5.21,0,0,0,.89.34s0,0,0,0a5.21,5.21,0,0,1-1-.38c-.05-.07-.11-.14-.15-.21s0,0,0,0l.12.17a6,6,0,0,1-1.37-1s-.06,0,0,0a6.11,6.11,0,0,0,1.46,1,3.92,3.92,0,0,0,.33.41,13.1,13.1,0,0,1-2.89-2.36s-.05,0,0,0A13.38,13.38,0,0,0,31,40.94a6,6,0,0,1-1.09-.36,6.42,6.42,0,0,1-1-.91s-.09,0-.06,0A7.76,7.76,0,0,0,32.39,42a.07.07,0,0,0,0,0c.35.19.72.35,1.09.5-.31-.13-.63-.25-.93-.39,0,0-.05,0-.06,0-.79-.35-1.58-.68-2.35-1.08a.05.05,0,0,0-.06,0,13.38,13.38,0,0,1-3.81-3.58,10.61,10.61,0,0,1-1.35-6c.13.48.29.95.47,1.41s.23,1,.38,1.54c0,0,.06,0,0,0-.09-.33-.17-.67-.25-1,.07.24.13.47.22.71,0,0,0,0,0,0-.07-.21-.13-.43-.2-.64l0,.11s.07,0,.05,0c-.09-.21-.17-.42-.25-.63l0-.19a14.61,14.61,0,0,0,1.22,2.75s.06,0,0,0l-.13-.23s0,0,0,0a35.33,35.33,0,0,1-1.29-7s0,0,0,0a32.43,32.43,0,0,0,1.22,6.83,17.09,17.09,0,0,1-1.1-2.57,13.14,13.14,0,0,1,0-5.15h0a12.49,12.49,0,0,0-.12,4.82h0a20.4,20.4,0,0,1-.53-3.79h0a20.5,20.5,0,0,0,.51,3.8h0v0c0,.1,0,.2.07.31-.14-.39-.27-.78-.38-1.18h0a10.65,10.65,0,0,1-.34-1.67s0,0,0,0a11,11,0,0,0,.34,1.73,9.71,9.71,0,0,0,.92,5.38,13.84,13.84,0,0,1-1.39-3l0-.09-.08-.4c-.09-.73-.19-1.47-.34-2.2l0-.34A9.31,9.31,0,0,0,23.74,29s0-.08,0-.12l0,0,0-.08a.1.1,0,0,0,0,0c0-.28-.07-.57-.12-.85l.17-.12,0,.21c0,.1,0,.2,0,.3s0,.23,0,.35,0,0,0,0l0,.1-.14.11a.06.06,0,0,0,.08.09l.11-.08a3,3,0,0,0,.25.52s.06,0,0,0a3.1,3.1,0,0,1-.23-.55,2.11,2.11,0,0,1,.6-.32c.08,0,.05-.14,0-.12a2,2,0,0,0-.62.31,4,4,0,0,1-.14-1,1.73,1.73,0,0,1,.27-.11s0,.07,0,.1,0,0,0,0,0,.16,0,.23.05,0,0,0,0-.24,0-.36a1.62,1.62,0,0,1,.33,0c0,.08,0,.15,0,.23a0,0,0,0,0,0,0c0-.07,0-.14,0-.21h.07c0,.05,0,.11,0,.16a0,0,0,0,0,0,0c0-.06,0-.11,0-.16h.15a0,0,0,0,0,0,0l-.16,0a3.8,3.8,0,0,0-.06-.58l.05,0a4.43,4.43,0,0,0,.36.46c.06.07.17,0,.11-.09a3.26,3.26,0,0,1-.32-.45,5.26,5.26,0,0,1,.61-.22l.2.2s0,0,0,0l-.14-.15.14.11s0,0,0,0a.73.73,0,0,0-.13-.15l.18-.05c.43.24.86.48,1.29.73,0,0,0,0,0,0,1.47,1.35,2.92,2.71,4.33,4.12,0,0,.07,0,0,0-1.37-1.42-2.84-2.74-4.3-4.06,1.14.7,2.24,1.46,3.31,2.26.27.25.55.5.81.76,0,0,.08,0,0,0s-.26-.24-.38-.36q.8.62,1.59,1.26h0A30.45,30.45,0,0,1,35.23,34.79Zm1.37-5c-1.13-.35-2.28-.63-3.4-1l-1.06-.45c-.91-.45-1.75-1-2.62-1.53a3.77,3.77,0,0,0-.61-.35,21.29,21.29,0,0,0-2.7-1.54.06.06,0,0,0,0,0l.58.27,0,0h0l.76.36s0,0,0,0L26.8,25h0a4.63,4.63,0,0,0-.51-.41l.43.25a4.31,4.31,0,0,0,.4.27s.05,0,0,0l-.06,0c.06,0,.11-.06,0-.1l-.41-.27v0l.5.35s0,0,0,0l-.51-.35v0l.12.07a7.76,7.76,0,0,0,1.11.79l.14.13s0,0,.06,0a6.44,6.44,0,0,0,1.33.52,8.52,8.52,0,0,0,.88.61,16.61,16.61,0,0,1-1.73-.82,0,0,0,1,0,0,0,18,18,0,0,0,1.93.92A9.32,9.32,0,0,0,33.5,28s.07-.07,0-.08a10.37,10.37,0,0,1-2-.67,0,0,0,0,0,0,0l-.77-.34a8.63,8.63,0,0,1-1.12-.73c.16,0,.32.1.48.13s0,0,0,0a5.94,5.94,0,0,0,1,.2c.06,0,.07-.09,0-.1a7.73,7.73,0,0,1-1.93-.54,8.14,8.14,0,0,1-.72-.67s0,0,0,0a8.38,8.38,0,0,0,.64.62A13.43,13.43,0,0,1,27,24.6l.3.05h0c0,.06.09.08.1,0h0l.12,0s.06,0,.05-.08c.68.33,1.38.62,2.07,1,0,0,.07,0,0-.07a12.77,12.77,0,0,0-2.22-1v0l.72.32s.07,0,0-.06a6,6,0,0,0-.73-.34v0a6.4,6.4,0,0,0,2,.69c.07,0,.09-.1,0-.12a13.35,13.35,0,0,1-2-.68l.08-.25a13.33,13.33,0,0,0,2.31.76.05.05,0,0,0,0-.1,11,11,0,0,0-1.53-.48c1.07-.07,2.14-.26,3.2-.39,0,0,0-.08,0-.08-.81.1-1.63.19-2.44.3,0,0,0,0,0,0-.51-.08-1-.08-1.49-.16l0-.06.16,0c.42,0,.84,0,1.25,0s.66,0,1,0a0,0,0,0,0,0-.07h.11s0-.05,0-.05l-1.06,0-1,0s0,0,0,0l-.12,0h-.29l0-.16.17,0a0,0,0,0,0,0-.07l-.14,0,0-.05c1,.05,2.05,0,3.08-.08.05,0,.06-.08,0-.08-1,0-2,.12-3.06.08v0A26.1,26.1,0,0,0,34,21.9c1.36.21,2.72.29,4.06.55A48,48,0,0,1,42.34,25l0,0s0,0,0,0a4.53,4.53,0,0,0,1.32,1.14s0,0,0,0c.27.16.52.35.77.54l0,0-.41-.24a0,0,0,0,0,0,.05c.21.14.43.27.64.39l0,0-.35-.09-.48-.27s-.08,0,0,.06l.26.14-.21,0a16.71,16.71,0,0,1-1.32-1.13s0,0,0,0a11.33,11.33,0,0,0,1.23,1.08h-.07c-.54-.41-1.07-.83-1.6-1.26,0,0,0,0,0,0,.47.4.94.82,1.44,1.19l-.61-.08a.09.09,0,0,0-.06.16,6.07,6.07,0,0,0,1.54.67,5.88,5.88,0,0,1-1.55.22.06.06,0,0,0,0,.12,3.76,3.76,0,0,0,1.67-.25s0,0,0,0l.3.1-.25.09h-.06a0,0,0,0,0,0,0,2.57,2.57,0,0,0-.43.17,0,0,0,0,0,0,.06,5.66,5.66,0,0,1,.65-.22l-.4.16s0,0,0,0l.5-.21h.21s0,0,0,0l.14,0h0a2.56,2.56,0,0,0-.67.23l-.29.14-.66.14c.26-.07.52-.15.79-.2a0,0,0,0,0,0-.08c-.73.14-1.45.37-2.17.58-.06,0,0,.1,0,.09l.33-.09h0a5.88,5.88,0,0,0,1.26-.2s0,.11,0,.09l.41-.2.18,0a.05.05,0,0,0,0-.06L44.8,28h0l.12-.06.26-.11.13,0a8.82,8.82,0,0,1-1,.62h0l-.92.48a0,0,0,0,0,0,.09l.24-.13h0c.42-.19.84-.4,1.25-.61A10.85,10.85,0,0,1,36.61,29.74ZM27.52,25a12.7,12.7,0,0,0,1.22.7,8.73,8.73,0,0,1-.81-.37A3.1,3.1,0,0,0,27.52,25Zm.57-1.29.1,0h0l.28,0ZM45.3,28l-.17.11-.52.23.7-.41A0,0,0,0,0,45.3,28Zm.21-.16-.14,0,.19-.11h0Zm0-.11.06,0h0l0,0Zm.37-.16h0s0,0,0,0h0Z"/><path class="cls-1" d="M27.17,29.14A33,33,0,0,1,30,31.22s0,0,0,0a32.72,32.72,0,0,0-3.34-2.46l-.11-.09h0l-.39-.26s0,0,0,0l.35.24a.1.1,0,0,0-.07.12l0,0h0a.19.19,0,0,0,0,.09,3.16,3.16,0,0,0,0,1.46c-.06,4,2.86,8.3,6.56,9.45a.16.16,0,0,0,.2-.13h0a.06.06,0,0,0,0,0v0h0v0a1.77,1.77,0,0,0,0-.32c0-.09,0-.18,0-.28s0,0,0,0a4.09,4.09,0,0,0,0-.7,9.24,9.24,0,0,0-.43-1.77h0A10.69,10.69,0,0,0,31,33.76,26.55,26.55,0,0,0,27.17,29.14Zm5.24,10.12h0Zm.32-1.5c0,.07,0,.14,0,.21,0,.43,0,.86,0,1.28l-.24-.1h0c-.43-.19-.85-.4-1.27-.61l-.57-.4c-.38-.32-.74-.65-1.1-1h0c-.35-.45-.68-.91-1-1.33a11.2,11.2,0,0,1-2.13-6.93,43.77,43.77,0,0,1,3.36,3.74,12.13,12.13,0,0,1,2.79,4.47Z"/><path class="cls-1" d="M28.81,32.7c.42.7.78,1.43,1.17,2.15A10.27,10.27,0,0,0,31.28,37a.09.09,0,0,0,.11,0h.05s0,0,0,0a3.07,3.07,0,0,1-.32-.53c-.28-.46-.55-.93-.81-1.4a21.93,21.93,0,0,0-1.38-2.44C28.89,32.55,28.77,32.62,28.81,32.7Z"/><path class="cls-1" d="M8.4,18s-.06.06,0,.08c1.73.49,3.38,1.22,5.1,1.75.08,0,.12-.09,0-.11A43.53,43.53,0,0,0,8.4,18Z"/><path class="cls-1" d="M19.15,16.22c.13,0,.14-.16,0-.2a14,14,0,0,0-1.43-4.65,15,15,0,0,0-4-5.61.16.16,0,0,0-.19,0,.18.18,0,0,0-.24.14C12.64,9.53,14.85,15.9,19.15,16.22Zm-5.48-10a17.67,17.67,0,0,1,3.81,5.23c.71,1.43.94,3,1.59,4.49C15.05,15.16,13.43,10,13.67,6.27Z"/><path class="cls-1" d="M17.23,13.69a0,0,0,0,0,.07-.06,25.49,25.49,0,0,1-1.23-2.51,8.79,8.79,0,0,0-1.23-2.42.11.11,0,0,0-.18.11c.45.88.84,1.77,1.22,2.67A5,5,0,0,0,17.23,13.69Z"/><path class="cls-1" d="M25,15.89A14.27,14.27,0,0,0,29.32,4.43c0-.1-.1-.13-.19-.11a.17.17,0,0,0-.22-.08l-.39.22c.11-.1.21-.2.33-.3s0,0,0,0-.32.27-.47.41c-3.75,2.25-5.63,7.35-3.42,11.3C24.95,15.88,25,15.92,25,15.89Zm4-11.3a15.52,15.52,0,0,1-1.16,6.91c-.68,1.6-2,2.83-2.87,4.27C23.41,11.18,25.19,7.32,29,4.59Z"/><path class="cls-1" d="M25.67,13.06a12.88,12.88,0,0,0,2.17-4.43c0-.11-.12-.17-.16-.06A36.15,36.15,0,0,1,25.59,13S25.64,13.1,25.67,13.06Z"/><path class="cls-1" d="M30,19.33a.06.06,0,0,0,0,.07c-.06.09,0,.25.11.24a11.54,11.54,0,0,0,9.46-5.25.18.18,0,0,0,0-.12.14.14,0,0,0,0-.28C35.67,13.55,31.45,15.63,30,19.33Zm9.14-5c-2.43,3-5.07,4.67-9,5C31.74,15.74,35.42,14.34,39.12,14.31Z"/><path class="cls-1" d="M36.13,16.15a.06.06,0,0,0-.06-.09,14.65,14.65,0,0,1-1.74.8,5.17,5.17,0,0,0-1.65.87,0,0,0,0,0,.05.08A18.31,18.31,0,0,0,36.13,16.15Z"/><path class="cls-1" d="M42.59,27.38a.21.21,0,0,0-.08-.23c-3.44-2.57-7.83-4.53-11.81-2-.08,0,0,.17.08.14l.35.34a6,6,0,0,1-.83-.38s-.07,0,0,.05a6.58,6.58,0,0,0,1,.45c2.68,2.33,8.42,4.23,11.29,1.8A.17.17,0,0,0,42.59,27.38ZM30.88,25.29c4-2.16,7.86-.29,11.25,2.16C38.82,30,33.72,27,30.88,25.29Z"/><path class="cls-1" d="M34.08,25.76a11.69,11.69,0,0,0,5.53,1.37.08.08,0,0,0,0-.16,20.47,20.47,0,0,1-5.52-1.27S34,25.75,34.08,25.76Z"/><path class="cls-1" d="M20.4,29.31c0-.09-.12-.16-.2-.08C17.08,32.38,14.62,37,15.09,41.5c-.05.18.14.38.3.22,3.45-3.48,6.32-7.2,5.12-12.33A.11.11,0,0,0,20.4,29.31Zm-5,11.78a16.69,16.69,0,0,1,4.87-11.56C21.27,34.47,18.57,37.74,15.42,41.1Z"/><path class="cls-1" d="M19,32.81a22.62,22.62,0,0,0-2.29,5.55.11.11,0,0,0,.21.08c.81-1.82,1.4-3.73,2.23-5.54C19.21,32.8,19.07,32.73,19,32.81Z"/><path class="cls-1" d="M8.59,29.77c1.49-.65,2.89-1.55,4.33-2.3a0,0,0,0,0,0-.08,27.71,27.71,0,0,0-4.4,2.15A.13.13,0,0,0,8.59,29.77Z"/><path class="cls-1" d="M22.28,22.21a1.17,1.17,0,0,1,1,.13s.13,0,.09-.08a.78.78,0,0,0-1.18-.19A.09.09,0,0,0,22.28,22.21Z"/><path class="cls-1" d="M22.31,24.54c.08,0,.09-.1,0-.12a1.62,1.62,0,0,1-.71-.77s-.09,0-.08,0A.91.91,0,0,0,22.31,24.54Z"/><path class="cls-1" d="M27.06,22l0,0s0,0,0,0l0,0S27,21.93,27.06,22Z"/><path class="cls-1" d="M40.08,11.78s0,0,0,0l-.07.09s0,0,0,0Z"/><path class="cls-1" d="M35.89,12.88h0a1.92,1.92,0,0,1-.46.16s0,0,0,0A1.86,1.86,0,0,0,35.89,12.88Z"/><path class="cls-1" d="M39.63,12s0-.06,0-.05a8.08,8.08,0,0,0-3.27.66.05.05,0,0,0,0,.09A12,12,0,0,1,39.63,12Z"/><path class="cls-1" d="M41.43,25.09a9,9,0,0,0-3.18-1.19s0,0,0,0c1.11.27,2.08.94,3.18,1.2A0,0,0,0,0,41.43,25.09Z"/><path class="cls-1" d="M13,36.6a5.08,5.08,0,0,0-.15,2.86s0,0,0,0a6.88,6.88,0,0,1,.22-2.82C13.11,36.58,13,36.54,13,36.6Z"/><path class="cls-1" d="M19,40.48s0,0,0,0c-.36.42-.77.8-1.14,1.22h0C18.24,41.28,18.66,40.91,19,40.48Z"/><path class="cls-1" d="M2.44,32.26l.08-.1-.09.1Z"/><path class="cls-1" d="M2.59,32.08A.59.59,0,0,0,2.66,32h0Z"/><path class="cls-1" d="M15.35,6a5.57,5.57,0,0,0-.62-.53s0,0,0,0a5.82,5.82,0,0,1,.6.54S15.36,6,15.35,6Z"/><path class="cls-1" d="M22.06,12.52a42.15,42.15,0,0,0,.87,4.24s.07,0,.06,0c-.41-1.39-.6-2.82-.9-4.23A0,0,0,1,0,22.06,12.52Z"/><path class="cls-1" d="M24,16.8q-.46-1.72-.76-3.46a0,0,0,0,0,0,0,30,30,0,0,0,.73,3.47S24,16.84,24,16.8Z"/><path class="cls-1" d="M25.62,16.23s0,0,0,0a4.78,4.78,0,0,0,1.6-1.3s0,0,0,0A4.78,4.78,0,0,1,25.62,16.23Z"/><path class="cls-1" d="M26.61,15.13q-1.25,1.19-2.56,2.3s0,0,0,0q1.33-1.1,2.57-2.29S26.63,15.12,26.61,15.13Z"/><path class="cls-1" d="M36.81,17.58l-.3.2-.35.19a0,0,0,0,0,0,0l.24-.13h0l.1-.07a19.52,19.52,0,0,0,2.87-1.89s0,0,0,0a20.6,20.6,0,0,1-2.53,1.71S36.83,17.57,36.81,17.58Z"/><path class="cls-1" d="M16.76,15.89s-.05,0,0,0A8.67,8.67,0,0,0,19,17.46s.06,0,0-.06A10.41,10.41,0,0,1,16.76,15.89Z"/><path class="cls-1" d="M19.64,17.56a18.53,18.53,0,0,1-2.8-1.87s-.09,0,0,.07a16.55,16.55,0,0,0,2.82,1.9c0,.06,0,.12,0,.18a0,0,0,1,0,0,0c0-.06,0-.11,0-.17l.18.09h0c0,.06,0,.12,0,.17a0,0,0,0,0,0,0c0-.06,0-.12,0-.18s0-.05,0-.07h0c0-.16,0-.31-.08-.47a6.56,6.56,0,0,0-.09-3.06,0,0,0,1,0,0,0,6.75,6.75,0,0,1,.11,3c-.07-.36-.14-.72-.23-1.08,0,0,0,0,0,0,.1.38.18.76.25,1.15Q19.68,17.38,19.64,17.56Zm.16.09-.14-.07c0-.1.05-.2.07-.3Q19.77,17.46,19.8,17.65Z"/><path class="cls-1" d="M13.62,39.72a14.1,14.1,0,0,0,.67,2.2s0,0,0,0a13.61,13.61,0,0,1-.67-2.2Z"/><path class="cls-1" d="M18,40.43a8.41,8.41,0,0,1-2.62,1.86s0,0,0,0A8.39,8.39,0,0,0,18,40.45S18,40.42,18,40.43Z"/><path class="cls-1" d="M19,40.7s0-.09,0-.06a9.41,9.41,0,0,1-3.48,2.61s0,0,0,0A8.54,8.54,0,0,0,19,40.7Z"/><path class="cls-1" d="M20.22,39.14A27.22,27.22,0,0,1,18.1,41.9a13.08,13.08,0,0,1-1.93,1.38,0,0,0,0,0,0,.07,9.52,9.52,0,0,0,1.48-1l-.54.63-.19.14s0,0,0,0l.05,0-.16.18s0,.08.05,0l.45-.47a8.76,8.76,0,0,0,2.35-2.48s0-.07-.05,0c-.2.3-.42.59-.64.87a3.88,3.88,0,0,0,.43-.68l0,0s0,0,0,0,.09-.17.13-.26a.06.06,0,0,0,0-.08c.24-.34.46-.68.68-1C20.27,39.14,20.24,39.12,20.22,39.14Zm-2.69,3.59.61-.69s0,.08.08,0a6.64,6.64,0,0,0,.79-.8A8.77,8.77,0,0,1,17.54,42.73Zm1.6-1.9-.21.25.36-.48C19.24,40.67,19.19,40.75,19.14,40.82Z"/><path class="cls-1" d="M14.31,37.27s0,0,0,0a11.08,11.08,0,0,0,.5,5s.05,0,0,0A11.89,11.89,0,0,1,14.31,37.27Z"/><path class="cls-1" d="M7.49,26.91a13.63,13.63,0,0,0-3.1,2.63h0a13.64,13.64,0,0,1,3.1-2.63S7.5,26.9,7.49,26.91Z"/><path class="cls-1" d="M2.67,32.34s0,.05,0,0c1.54-2.48,3.81-4.26,6-6.17h0C6.51,28.06,4.13,29.82,2.67,32.34Z"/><path class="cls-1" d="M25.45,28.17c.26,1.63.69,3.23,1.08,4.83,0,0,0,0,0,0-.39-1.6-.84-3.19-1.11-4.83Z"/><path class="cls-1" d="M31.58,31.93a33.93,33.93,0,0,0-5.2-3.75s0,0,0,0A39.27,39.27,0,0,1,31.52,32C31.58,32.06,31.64,32,31.58,31.93Z"/><path class="cls-1" d="M11.83,4.27a13.5,13.5,0,0,1,0,2.37,0,0,0,0,0,.07,0,10.13,10.13,0,0,0,0-2.38S11.83,4.23,11.83,4.27Z"/><path class="cls-1" d="M12.35,3.94a8.82,8.82,0,0,1-.06,2.24s.06.05.07,0a8.12,8.12,0,0,0,.08-2.27C12.42,3.88,12.35,3.89,12.35,3.94Z"/><path class="cls-1" d="M43.91,27.91a6.36,6.36,0,0,1-1.84.28c-.07,0-.07.1,0,.11A5.19,5.19,0,0,0,43.95,28C44,28,44,27.89,43.91,27.91Z"/><path class="cls-1" d="M42.17,25.53s.12,0,.08-.06a9.75,9.75,0,0,0-2-1.73s-.08,0,0,.06A13.86,13.86,0,0,1,42.17,25.53Z"/><path class="cls-1" d="M40.14,25.2a30.72,30.72,0,0,1,2.64,1.87,11.75,11.75,0,0,1-2.57-1.76s0,0,0,0a11.48,11.48,0,0,0,2.84,2l.12.11s0,0,.06,0l.24.13s.07,0,0-.06l-.39-.22a14.4,14.4,0,0,0-2.94-2.07S40.12,25.18,40.14,25.2Z"/><path class="cls-1" d="M21.93,14.52a17.8,17.8,0,0,1,.36-3.7s0,0-.05,0a15.18,15.18,0,0,0-.39,3.69S21.93,14.57,21.93,14.52Z"/></svg>