<svg id="Layer_1" data-name="Layer 1" xmlns="http://www.w3.org/2000/svg" viewBox="0 0 41.2 58.7"><title>ilustracije_razmerje</title><path d="M40.66,55.44A4.76,4.76,0,0,0,41,54.09,9.6,9.6,0,0,0,40,47.61a6,6,0,0,0-2-2.31C27,34.49,19.82,21,12.38,7.72,10.66,4.63,8.6,0,4.4.05,1.92.08-1,1.19.31,4.06a.11.11,0,0,0,.08.07l.23.34a2.2,2.2,0,0,0-.47,1.2A4.37,4.37,0,0,0,.84,8.5a42.83,42.83,0,0,0,4.35,6c1.21,1.65,2.42,3.29,3.62,4.94,1.42,2.13,2.81,4.27,4.21,6.4l.78,1.24c.8,1.23,1.62,2.44,2.44,3.64C20.17,37.29,23.8,44,27.79,50.43c.3.52.62,1,.95,1.54.67,1.05,1.36,2.09,2,3.13a.07.07,0,0,0,0,.06,7.46,7.46,0,0,0,.58,1,4.62,4.62,0,0,0,3.21,2.45,4.35,4.35,0,0,0,2.9-.24,5.9,5.9,0,0,0,3.1-2.75s0,0,0,0ZM31.93,39.29s0,0,0,0l-.08,0-.18-.22,0,0a0,0,0,0,0,0,0l0,0ZM16.65,27.67l.21.3c-.86-1.11-1.73-2.21-2.64-3.28h0l0,0s0,0,0,0c-.47-.61-1-1.21-1.45-1.81a16.46,16.46,0,0,0-1.1-1.45s.07,0,0,0C10.81,20.14,9.89,19,9,17.86l.11,0,.32.47s.08,0,.06,0l-.31-.45.15-.08c2.17,3.31,4.57,6.46,7,9.55ZM13.56,24l-.13-.19.13.17S13.56,23.95,13.56,24ZM2.75,9.13c.11-.13.24-.27.36-.39l.05.08-.05.07A1.9,1.9,0,0,1,2.75,9.13ZM3.06,9a.93.93,0,0,1-.41.32l.09-.13A2.1,2.1,0,0,0,3.06,9Zm.28-.28a1.47,1.47,0,0,1-.12.11l-.07-.1.14-.15.77,1.12-.14.14s0,0,0,0l-.69-1a1.46,1.46,0,0,0,.13-.11S3.35,8.68,3.34,8.69Zm-.22-.16-.07,0-.11-.17.16-.12.18.26-.14.15-.07-.11.07,0S3.13,8.52,3.12,8.52ZM2.47,7.7h0L2,7A1.22,1.22,0,0,1,2.1,6.9s0,0,0,0A1.26,1.26,0,0,0,2,7H2l.12-.13s0-.08-.05,0l-.11.12L1.6,6.46l0,0,.18.25s.06,0,0,0l-.19-.27s0,0,0,0l-.08-.11h0s0,0,0,0c-.14-.19-.29-.36-.44-.54l.12-.25s0-.08-.07,0-.08.14-.12.21L.87,5.41a1.18,1.18,0,0,1,.22-.23l1,1.48q.48.8,1,1.57l-.16.13Zm-.35-.18a2,2,0,0,1-.41.33l0-.06A1,1,0,0,0,2,7.38s0,0,0,0a.93.93,0,0,1-.34.4l-.2-.26,0-.06c.13-.11.23-.24.35-.36l0,0,.28.4Zm0,0c-.1.14-.19.29-.27.44l-.1-.14A2,2,0,0,0,2.1,7.55Zm11.52,5.34-.25-.37a1.85,1.85,0,0,0,.32-.17l.19.23a1,1,0,0,1-.27,0s0,.05,0,.05a1.13,1.13,0,0,0,.3,0l.12.21h0a.91.91,0,0,1-.24,0s0,0,0,0h.21a1.13,1.13,0,0,1-.3,0S13.63,12.88,13.62,12.89Zm-.71-1,.24-.16.11.14L13,12ZM7,8.41l0,0,.51.74c-.25-.26-.52-.5-.79-.74l.16-.16L7,8.35l0,0S7,8.43,7,8.41ZM1.06,5.72l.39.56,0,.05-.07-.1s0,0,0,0l.08.11v0l-.17-.19,0-.08s0-.07-.05,0l-.05.08h0l-.06.09v0a0,0,0,0,0,0,0s0,.09,0,.13l-.16.19c0-.09,0-.19,0-.28A4.11,4.11,0,0,1,1.06,5.72ZM.85,6.84c0-.06,0-.12,0-.19L1,6.54a2.5,2.5,0,0,1-.11.29ZM1,6.47a2.29,2.29,0,0,0,.17-.26l.17.19a1.33,1.33,0,0,1-.46.41A2.61,2.61,0,0,0,1,6.47Zm-.15.4a1.34,1.34,0,0,0,.53-.43l.06.07a5.11,5.11,0,0,0-.41.59C1,7,.93,7,.86,6.9Zm.54-.45h0l.06.08h0Zm.13.11,0-.05.31.45,0,0Zm0-.07-.06-.08,0-.05.06.09Zm0-.16,0,0,.06.09,0,0Zm0,0L1.07,5.7h0c.14.17.28.35.41.53Zm-.6-.37s0-.08,0-.13a.07.07,0,1,0-.15,0c0,.2,0,.4,0,.59a3.18,3.18,0,0,0-.05.32h0A1.54,1.54,0,0,1,.86,5.42L1,5.6A2.71,2.71,0,0,0,.86,5.89Zm12,3.57h-.32a.64.64,0,0,0,.17-.06s0,0,0,0h0l.09,0,.12.21-.15,0h0S12.86,9.45,12.83,9.45ZM12,9.58l.13,0c.12.15.24.29.35.45l-.24,0a5.16,5.16,0,0,0-.62-.71s0,0,0,0a5,5,0,0,1,.62.71l-.34.12L11.75,10l.15,0s0,0,0,0l-.17,0-.62-.69-.06-.08A5,5,0,0,1,11.7,9l.2.26-.23.06s0,0,0,0l.23-.06.17.22-.11,0S12,9.59,12,9.58ZM14,12.83,14,12.7l.1.12Zm-.89-2.27s0,0,0,0l.08,0,.12.18.17.31-.22.15L13,10.66Zm-.21.05h0l.05,0Zm.25.61.06,0,.18.27-.16.11L13,11.13a1.35,1.35,0,0,1,.2,0l.06.09-.06,0A0,0,0,1,0,13.19,11.23Zm.15.42h0l0-.07.16-.11,0,.06Zm.19-.05.07.11-.19.07,0-.07h0Zm-.36-.54a1.39,1.39,0,0,0-.2.05l-.14-.21a0,0,0,1,0,0,0l.14.2-.21.05-.23-.28.41-.21Zm-.2.08.3.44-.12.08-.39-.48Zm.31.46.05.08v0l.05.08-.12,0-.12-.14Zm.14.21.26.43,0,0-.33-.41Zm.31.51.11.19-.14-.17Zm0,0,.13-.09a0,0,0,0,0,0-.07l-.13.08-.26-.42.19-.06.52.82s0,0,0,0a.88.88,0,0,0-.22,0Zm0-.59.08,0a0,0,0,1,0,0,0l-.1,0-.09-.13.14-.1q.16.39.31.79Zm-.15-.21,0-.06.08-.05s0,0,0,0l-.08.05-.19-.27.22-.15c.07.13.13.27.18.4Zm-.49-1.26.15.22a1.31,1.31,0,0,1-.29.12l-.08-.12a0,0,0,0,0,0,0l.07.11-.34.07s0,0,0,0l.36-.06h0a4.45,4.45,0,0,0-.41.21l-.23-.26.15-.1.1,0,.11.16h0l-.11-.15a1.38,1.38,0,0,0,.43-.2,0,0,0,0,0,0,0,1.4,1.4,0,0,1-.43.2h0l.47-.32ZM6.7,7.61l-.1-.15.07-.05.1.14Zm.09,0L7.07,8,7,8l-.27-.39Zm4.4,1.85.52.59-.08,0ZM9.92,6.9c-.11,0-.22.12-.33.17l-.27-.4.39-.28.18,0,.73,0c-.07,0-.13.1-.2.13h-.25a0,0,0,0,0,0,.05h.11a1.94,1.94,0,0,1-.4.14s0,.06,0,.05l.07,0s0,0,0,0a2.32,2.32,0,0,1,.58,0h0a2.65,2.65,0,0,0-.77.08s0,0,0,0a2.64,2.64,0,0,1,.71-.07l-.12.1-.65.19s0,0,0,0L10.26,7,10,7.22l-.3,0-.1-.16.32-.17S9.94,6.9,9.92,6.9ZM9,6.48l-.11-.14L9,6.27l.08.12L9,6.46ZM5.12,7.75l-.18.17-.66-.87.54-.35.06.06-.45.38h0l.45-.37L5.17,7l.28.4-.32.3-.45-.56s0,0,0,0ZM2.19,2.59a4.07,4.07,0,0,1,.3-.45,6.39,6.39,0,0,1,.6-.22,5.45,5.45,0,0,0-.9.68ZM3.63.83s0,0,0,0L3.87.71l.24,0H4s0,0,0,0l.18,0a4,4,0,0,0-.58.1h0a3.93,3.93,0,0,1,.61-.1l.36,0a3.77,3.77,0,0,0-1,.16,4.6,4.6,0,0,0-.7.15s0,0,0,0S3,1,3.1,1s0,0,0,0L3.51.84ZM12.51,9h0l-.21,0L12.45,9Zm-.09-.31h0Zm-.73.23-.21-.25c.2,0,.39,0,.58-.09a1.19,1.19,0,0,1-.32.08,0,0,0,0,0,0,.09l.18,0s0,0,0,0l0,0a.72.72,0,0,0,.33-.07h0Zm-1-1.07-.2.08s0,0,0,0l-.21.16-.21-.31.29-.17.29-.06.31,0h0l.39.14h0l-.14,0h-.05a0,0,0,0,0,0,0l-.35.13,0-.05s0,0,0,0Zm-.48.24L10,7.82l0,0,.2.31Zm0,0,.15.23-.16-.22ZM9.18,5.84a0,0,0,0,0,0,0c-.18.07-.37.13-.54.21l-.4-.49c.22-.13.44-.25.67-.36,0,0,0,0,0,0l.23-.15.37.07-.09.07-.23,0s0,.06,0,.07l.15,0-.06,0-.54.15s0,0,0,0l.56-.12h.08s0,0,0,0a3.9,3.9,0,0,1,.66.07l-.16.13-.15,0-.24,0a0,0,0,0,0,0,.09h0l-.52.1s0,.08,0,.06l.51-.09A1.85,1.85,0,0,0,9.18,5.84Zm-4.29.91-.06-.06.07,0,0,.06Zm.06,0L5.14,7,4.9,6.76ZM5,6.6l.46-.29L5,6.65ZM6,3.95l.39-.13.06.08-.8.55s0,0,0,0l.8-.55L6.5,4,5.43,4.7l-.17-.24Zm-.77.48-.07-.1A5.1,5.1,0,0,1,5.84,4Zm-2.57-3,0,0,.17-.07a0,0,0,0,0,0,0l-.09,0,.06-.06A4.89,4.89,0,0,1,3.89,1a5.34,5.34,0,0,0-.76.27A2.5,2.5,0,0,0,2.66,1.39ZM.93,2a7.33,7.33,0,0,1,.56-.69l0,0,.28-.14.05,0-.14.14-.19.11h0l.17-.1a5.82,5.82,0,0,0-.41.46h0a5.23,5.23,0,0,0-.42.6l-.12.06A2.44,2.44,0,0,1,.93,2ZM2.42,1a2.73,2.73,0,0,1,.35,0,6.26,6.26,0,0,0-1.25.63,4.59,4.59,0,0,1,.38-.42l.23-.13L2.32,1Zm.37.13-.08.08a3.81,3.81,0,0,0-.45.17A3.3,3.3,0,0,1,2.79,1.12Zm-1.32.57a4.89,4.89,0,0,1,.74-.39,3.86,3.86,0,0,0-.77.64L1.22,2C1.3,1.93,1.38,1.81,1.47,1.69Zm.48-.58.15,0-.19.1,0,0S2,1.13,1.95,1.12Zm-.74.95L1.41,2l-.15.16-.15.09ZM1.46,2l.12-.11,0,0L1.48,2Zm.16-.15a4,4,0,0,1,.62-.47s0,.05,0,0a3.6,3.6,0,0,1,.36-.13l-.07.07a4.09,4.09,0,0,0-.88.46ZM3.74,1a3.89,3.89,0,0,1,1-.11,5.64,5.64,0,0,0-.58.09Zm.71-.2a4.47,4.47,0,0,1,.77,0h0s0,0,0,0l.11,0H5.32l-.12,0L5,.82H5L4.44.76ZM11.76,7.9,11.37,8a1.82,1.82,0,0,1,.44-.09L11.9,8l-.19,0h.05S11.8,7.9,11.76,7.9Zm-.5-1c0-.06,0-.1-.06-.16h0l.12.19Zm-.62-.77h0ZM8.36,4.86h0L8,4.94l0,0,.18-.06s0,0,0,0l.17,0a5.66,5.66,0,0,1,.56-.11s0,0,0,0l.31,0,.22.05,0,0A5.31,5.31,0,0,0,8.36,4.86Zm-2.92.92.43-.31.22.36-.36.26,0,0-.16-.18Zm0,.06,0-.05h0Zm2.29-3H7.6l-.12-.05.23,0L7.94,3l-.22-.09h0S7.79,2.84,7.76,2.84ZM5.91,1.62H5.58l.51-.07H6.5l.36.11h0a6.06,6.06,0,0,0-.9,0A0,0,0,0,0,5.91,1.62Zm0-.26.46.06H6.18Zm-2,.35.1,0-.15.06,0,0Zm.3-.09-.12,0s0,0,0,0l.17,0Zm-.11-.06c.26-.06.52-.12.78-.16a4.08,4.08,0,0,0-.45.12Zm7.08,5.87h.09l-.23,0ZM9.65,5h.16L9.75,5,9.64,5Zm.11,0,0,0h0S9.76,4.92,9.76,4.91ZM8.42,4.76,8,4.87l0,0,.06,0s0,0,0,0l.66-.27.39.07A3.06,3.06,0,0,0,8.42,4.76Zm.41-.08-.18,0Zm-1.4.39L7.62,5h0l-.19.09Zm0,0-.17.07.16-.09ZM7.17,4l-.26.13-.19-.2.37-.26.09,0,.29.45-.41.19-.12-.13L7.18,4S7.19,4,7.17,4Zm-.5-.12,0,0,.12-.08.18,0ZM7.36,3l.38.09-.13,0-.32-.05.06,0A0,0,0,0,0,7.36,3Zm.89-.44.09.11-.08,0,0,0s0,0,0-.06l-.09,0a0,0,0,0,0,0,0h0l0,0ZM7.14,4.34l0-.05.24-.11h.2l0,.07-.33.22-.1-.12h.13a0,0,0,0,0,0,0Zm-.07,0L7,4.36l.08,0Zm.26-2.08h0Zm.14,0,.11,0,0,0-.21,0Zm.25.06L8,2.44l0,0-.31-.1Zm.49.24,0,0h0ZM7.86,4h0Zm1-.51,0,0H8.7s0,0,0,0h0L8.58,3.4l.13,0Zm.3.43s0,0,0,0h0L9,3.75H9l.17.2h0Zm.17,0v0h0l0,.06h0L9.18,3.8s0,0,0,0l-.06-.06h.1Zm.19.26L9.36,4h0l.11.15Zm-.3-.25,0,0,0,0Zm.05.1,0,.05h0L9.19,4Zm.2.25h0Zm-.22-.05.08,0,.06.06H9.29l-.07-.07Zm.2.14.16.2h0l-.19-.18Zm-.54-.56L9,3.9H8.93L8.8,3.76ZM9,3.92H9l0,0Zm0,.05,0,0H9L9,4ZM8.9,4h0Zm.36.28h0l0,0Zm.06.09h0l.18.17-.07,0Zm-.46-.83,0,0,.05,0Zm0,.39a3.82,3.82,0,0,1-.49,0l.38-.09Zm0,0,0,0H8.69a5.19,5.19,0,0,0-.53,0l.14,0A3.81,3.81,0,0,0,8.86,3.92Zm.32.25v0l0,0Zm.16.28h0L9,4.41l.21-.05ZM9,3.53H9L8.8,3.44h0s0,0,0,0h.08Zm-1.47,0a0,0,0,0,0,0,0h.34a3.81,3.81,0,0,0-.52.15,0,0,0,1,0,0,0,3,3,0,0,1,1.16-.16l0,0L8,3.73s0,.06,0,.05l.31,0-.2,0a2.05,2.05,0,0,1-.23,0s0,0,0,0l.2,0-.25.08H7.75s0,0,0,0L7.5,4,7.21,3.6l.29-.07s0,0,0,0ZM7.77,4h.32L8,4.12H7.81l0,0s0,0,0,0l-.07,0H7.57l0,0Zm0,.15h.16l-.24.17,0-.08Zm-.14.06,0-.05H7.7Zm-.09-.08H7.41l.09,0Zm.07.12,0,.08-.17.12-.16.07,0-.05Zm.06.11h0l-.05,0Zm-.26.14-.07,0h0Zm.14-.06.13-.06.23.39-.27.11-.27-.31Zm.4.31-.23-.39c.1,0,.19-.09.29-.13a0,0,0,0,0,0,0c-.1,0-.19.09-.29.13v0L8,4.16h.18a3,3,0,0,0,.65.06h.1a0,0,0,0,0,0,0A4.71,4.71,0,0,0,8,4.11L8.15,4l.4,0-.22,0s0,.05,0,0l.58,0,.14,0,.1.11H8.64a0,0,0,0,0,0,0h.54a2.64,2.64,0,0,0-.37.11H8.3a0,0,0,0,0,0,0H8.19s0,0,0,0h.08s0,0,0,0l.25,0Zm.45-.59.19,0ZM8.57,3l0-.05h0L8.61,3Zm-.88-.87.1.1-.14-.08S7.68,2.11,7.68,2.09Zm.19.18h0Zm-.7,0h0Zm1.07.58h0l.05,0a2.72,2.72,0,0,0-.36-.12l.28.09S8.24,2.83,8.24,2.83Zm.55.49-.09,0s0,0,0,0l-.09,0-.25,0-.1-.06h.39ZM8.16,3.2h0L8,3.18H8.1Zm-.66-.06H7.15l.1-.07Zm.93.34H8.15l.18,0Zm-1.27,0h0Zm0,0h0Zm.13,0h.2l-.27.06,0,0Zm-.1.09h0l0,0ZM7,4.27l-.15.09-.12-.15.14-.07Zm-.07.1.14,0,.12.15L7,4.6l-.15-.2Zm.28.14,0,0-.17.08,0,0Zm.05.06,0,0-.15.11,0,0Zm0,0,.26.31L7.44,5s0,0,0,0L7.39,5l-.24-.31ZM7.68,5l.26-.1,0,0L7.69,5ZM9.8,4.8l.09.12h0l-.12-.13Zm0,.19s0,0,0,0l0,0h0l.09.12L9.82,5Zm.32.31,0,0-.26-.08.19,0Zm0,.08v0a4,4,0,0,0-.4-.13h0C10,5.3,10.1,5.33,10.22,5.38Zm1.3,1.89h0l-.08,0h.12Zm-.09.21.1,0s0,0,0,0l.14,0-.17,0-.15-.13Zm.13.2,0,0,0,0Zm.28.2h.05l0,.06-.09-.07Zm-.09-.11h0Zm-.14-.07,0,0,.17-.05,0,.08ZM6.83,1.45h0Zm-.21,0,.31.05c.12.07.24.14.35.22l-.12,0L6.7,1.56h.08s0,0,0,0H6.67l-.31-.07Zm-.15.09H6.14l.18,0s0,0,0,0Zm1.1.4L7.63,2,7.4,1.94l.12,0Zm-.65,0,.14,0-.44,0h0ZM7.12,2,7.3,2a2.94,2.94,0,0,1,.45.2l-.25,0s0,0,0,0H7.16L7,2s-.06,0,0,0L7,2.08H6.66s0,0,0,0a3.61,3.61,0,0,0-.38,0l.32-.08Zm-1,.08.44,0H7s0,0,0,0l.07.06H7l-.2,0s0,0,0,0l.14,0-.18,0-.43-.06-.21-.05ZM8,2.66l0,0a3.33,3.33,0,0,0-.48-.1l-.11-.11A5.81,5.81,0,0,1,8,2.66Zm-.15.13A2.35,2.35,0,0,1,8.45,3h0L8.07,3l-.27-.26h.1S7.87,2.78,7.9,2.79Zm0,.25-.16,0A5.3,5.3,0,0,0,7,2.93l.59,0ZM7,2.93l.32,0L7.23,3,6.78,3h0Zm.19.14-.12.08H6.91L6.79,3ZM7,3.18,7,3.23l0-.05Zm.08,0h.34s0,.08,0,.07a1.6,1.6,0,0,1,.27,0l.18,0,.13,0-.35,0s0,0,0,0l.3,0s0,0,0,0l.11,0a3.89,3.89,0,0,1-.59.07H7.35l.21-.15a0,0,0,0,0,0,0l-.26.18-.18,0L7,3.27ZM7,3.41H6.95a0,0,0,0,0,0,.06l.15,0h0l-.48,0L7,3.29Zm.07.1,0,0L7,3.64l-.18,0,0,0s0,0,0,0l-.06,0-.16,0-.12-.12.13-.09Zm-.4.22-.08.06,0,0Zm-.12.08-.1.07-.06-.07.12,0Zm0,0,0,0-.11.07,0-.05Zm.09.09.18.2-.14.07L6.57,4Zm0,.29a12.33,12.33,0,0,0-1.16.65l-.06-.09L6.54,4Zm0,0,.12.16H6.76s0,0,0,0h0c-.12.07-.25.14-.36.22a0,0,0,0,0,0,0c.13-.09.28-.16.42-.23l.15.2A6.5,6.5,0,0,1,6.31,5s0,0,0,0A6.74,6.74,0,0,0,7,4.64l0,0a11.18,11.18,0,0,0-1.14.76l-.37-.58A12.62,12.62,0,0,1,6.7,4.23Zm.35.46,0,0-.45.32s0,0,0,0l.46-.31.23.31a4.89,4.89,0,0,0-.65.4l-.56.35L5.9,5.45A11.27,11.27,0,0,1,7.05,4.69Zm-1,1.16v0L5.85,6Zm0,.07-.32.28-.05-.07Zm.06-.07v0l.43-.27-.31.24Zm.61-.4q.31-.17.64-.32l0,0c-.34.16-.68.34-1,.52Zm.69-.34L7.64,5l0,0-.19.09Zm.25,0,.12.14-.18.13-.13-.17Zm.06,0L7.87,5a0,0,0,0,0,0,0L7.73,5l0,0L8,4.91l0,0S8,5,8,5H8l0,.06-.19.13ZM8.07,5l.14,0L8.1,5Zm1.23-.2-.11.07L9,4.81Zm.21,0h.14l.1.11h0l-.14,0H9.54l-.19,0ZM9.37,5l-.17.05H9.14L9.26,5Zm.06,0,.18,0-.1.06-.25-.06Zm.26.07.22.07-.19,0-.14,0Zm0,.11-.12,0H9.46l.09-.05Zm-.31.08h0Zm.19,0c.13,0,.25,0,.38.08a4.68,4.68,0,0,0-.6,0Zm.72.21-.26,0,.1-.08ZM10,5.68l.38-.09.09.16a1.76,1.76,0,0,0-.4-.06Zm.68.43h0v0Zm.08.14,0,.05h-.06l0-.05Zm.27.23.08.15h0L11,6.48Zm.12.22h0Zm0,.09,0,.07-.13,0Zm.38.43h-.3l.24-.08Zm-.15.27.16.14h0l-.32-.13Zm.76.8h0Zm.08.09h0l.06.12h-.08l-.15,0Zm-.12,0-.13.07-.25,0L12,8.33Zm0-.1h0Zm-.2,0-.09,0,.07,0Zm-.21.09s0,0,0,0l-.08,0Zm.57.26s0,0,0,0l0,0,0,0a.62.62,0,0,1-.18.05Zm-.14-.5L12,8h0a2.36,2.36,0,0,1,.15.23Zm-.21-.39-.08-.13.08,0,0,.08S11.9,7.72,11.89,7.75Zm-.12-.19,0,0a.06.06,0,0,0,0-.08l0,0,0,0s0,0,0,0h0l.12.21ZM4.88.89s0,0,0,0l.39.05L5.07,1,4.6.94Zm1.75.44.11.07h-.2l-.11,0-.23,0h.29s0,0,0,0H6.4Zm-2,0-.69.16h0a3.14,3.14,0,0,1,.44-.12Zm-.89.3h.12l-.13,0Zm.07.07-.12.08h0l.07-.07h0ZM3.5,2l.15-.11a4.48,4.48,0,0,1,1-.31h0l.59-.06a0,0,0,0,0,0-.05c-.21,0-.42,0-.62.05a4.66,4.66,0,0,1,1-.16l.48.11s0,0,0,0h.1l.08,0L6,1.54H5.77s0,0,0,0h.17a8.62,8.62,0,0,1-1.63.14h0a6.9,6.9,0,0,0,.82,0,9.79,9.79,0,0,0-1.61.41s0,0,0,0a9.18,9.18,0,0,1,2.22-.42s0,0,0,0a5.52,5.52,0,0,1,1.4.11H7a4.07,4.07,0,0,0-1.26-.07,0,0,0,0,0,0,0,3.25,3.25,0,0,1,.53,0c-.59,0-1.18.06-1.78.11h0c.67,0,1.34-.07,2-.08h0s0,.06,0,.06H6.6a8.73,8.73,0,0,0-1,0h0a8.59,8.59,0,0,1,1,0L6.25,2s0-.05,0-.05a4.62,4.62,0,0,0-.77,0,4.51,4.51,0,0,0-2.16.23Zm-.22.22-.22.1L3.44,2Zm3.61.14s0,0,0,0H7s0,.05,0,.06a3.65,3.65,0,0,1,.42.08l.13.12a4.16,4.16,0,0,0-1.08,0L7,2.48s0,0,0,0c-.25,0-.49.11-.75.15,0,0,0,0,0,0h0A5.54,5.54,0,0,0,5,2.63a14.19,14.19,0,0,1,1.84-.31Zm.91.36.05,0H7.79S7.79,2.71,7.79,2.7Zm-.11,0-.24,0-.06,0,.29,0Zm-.38,0h0l.05,0-.14,0s0,0,0,0l.17,0,.1,0a5.75,5.75,0,0,0-.76.06l0-.06A5.6,5.6,0,0,1,7.31,2.75ZM6.7,2.9h0s0,0,0,0H6.47l.19-.05Zm-.2,0L6.08,3l.27-.09Zm.25,0,.13.2a4,4,0,0,0-.49.08s0,0,0,0a4,4,0,0,1,.5-.07l0,.07-.39.27H6.38L6,3.09Zm-.21.57-.09.06-.05-.06Zm-.12.08-.08.06-.1-.13h.12Zm0,0,.1.11-.12,0-.07-.09Zm-.05.16-.32.1.26-.18Zm-1,.92-.57.4-.2-.23.6-.42Zm0,.06.06.09L5.31,5h0l.18-.11.37.58-.43.32-.09-.12s0,0,0,0l.09.12h0l-.55-.62Zm0,1-.52.39s0,0,0,0l.53-.39.25.29,0,0L5,6.58l-.7-1,.57-.39Zm.36.42h0Zm0,0,.43.55,0,0-.4-.58Zm0,0,.35-.3.36.61-.28.24Zm.39-.33h0q.62-.35,1.27-.67l.14.18L6.72,6s0,0,0,0L7,5.81H7a2.78,2.78,0,0,0,.65-.31l0,0-1.17,1ZM7.6,5.41l0,.07a2.91,2.91,0,0,1-.57.28Zm.11.15.06.09a4.45,4.45,0,0,1-.45.23Zm0,0,.17-.14a0,0,0,0,0,0,0l-.17.14,0,0,.14-.09s0,0,0,0l-.14.09-.05-.07.18-.13.2.24-.21.13Zm.3,0,.08.09-.22.14-.08-.11Zm.06,0,.45-.3s0,0,0,0l-.45.3-.21-.24.18-.13.11.19s0,0,0,0l-.11-.19.18-.12.6-.11s0,0,0,.05l.18,0,0,0H8.85s0,0,0,0H9L9,5C8.78,5,8.61,5,8.43,5c0,0,0,0,0,0,.17,0,.34,0,.5.07l-.2.14s0,.07,0,.09a5.69,5.69,0,0,0-.54.29ZM10.53,6l0,.14-.65.11.15-.11s0,0,0,0a2.33,2.33,0,0,0,.36-.16Zm-.65.31h0Zm.74,0,0,.05h-.48A3.18,3.18,0,0,1,10.63,6.24Zm.11.16h.07l0,.09s.06,0,.07,0h0l.08.15-.17,0s0,0,0,0h0l-.26,0Zm0,.22-.13.11a2.66,2.66,0,0,0-.61,0,2.05,2.05,0,0,0,.46-.14Zm.06,0,.25.05,0,0-.2.06-.19,0Zm-.18.17h0Zm0,0-.16,0,.06-.05Zm.18,0h0L11.2,7V7s0,0,.05,0l.08,0a1.51,1.51,0,0,1-.39,0s0,0,0,0a1.7,1.7,0,0,0,.43,0h0l-.32.1A2.51,2.51,0,0,0,10.66,7s0,0,0,0a2.36,2.36,0,0,1,.32.1l-.37,0s0,0,0,.06a3.59,3.59,0,0,0-.44,0L10.37,7Zm0,.41H11l.13,0a1.12,1.12,0,0,0-.37.05c-.07,0,0,.11,0,.11l-.26.07h0l.17-.1s0-.06,0,0l-.29.16-.16,0a0,0,0,0,0,0,0h0L10,7.66l-.14-.22L10,7.3C10.27,7.28,10.53,7.27,10.79,7.27Zm-.64.39L10,7.73l0,0Zm1.14.1h.14s0,.06,0,.06l.32,0a5.37,5.37,0,0,0-.53.13h0l-.31.06h0l-.13-.15ZM11.5,8s0,.05,0,.06A.94.94,0,0,0,12,8l0,.06a0,0,0,0,0,0,0h0l-.52-.08a.07.07,0,0,0,0,.14l.35,0s0,0,0,0h0a1,1,0,0,0-.2.07l-.16,0-.11,0a0,0,0,0,0,0,0h0l-.14,0-.3-.34Zm0,.42a2,2,0,0,0,.36.09h0a0,0,0,0,0,0,0l.25,0a6,6,0,0,1-.61.1l-.18-.21ZM4.08.64a6.26,6.26,0,0,1,1,.13,4.46,4.46,0,0,0-.65,0s0,0,0,0L4,.66ZM2.93.93H2.79L3,.91Zm-1.74.71h0ZM.75,2.5l.06,0-.05.09ZM1,2.34l.1-.06-.22.27Zm.79-.57-.13.08Zm.24-.13.4-.2,0,0-.36.16Zm.79-.2a5.06,5.06,0,0,0-.46.27,0,0,0,0,0,0,0A4.63,4.63,0,0,1,3,1.41a10.12,10.12,0,0,1,1.68-.18s0-.05,0,0a9.81,9.81,0,0,0-1.27.12h-.1A6.23,6.23,0,0,1,4.2,1h.66L4.79,1s0,0,0,0L5,1h.24s0,0,0-.05h0l.3,0,.57.14a3.11,3.11,0,0,0-.51,0s0,0,0,0a3.08,3.08,0,0,1,.7.08l.06,0,.06,0a5.18,5.18,0,0,0-1.4,0s0,0,0,0a5.51,5.51,0,0,1,1.35.09h-.6s0-.06,0-.06l-.3,0-.36,0h0l.32,0h-.1l-1-.16h0l.9.17a4.23,4.23,0,0,0-.71.06,4.63,4.63,0,0,0-1.3.32s0,0,0,0a4.1,4.1,0,0,1,.89-.24,3,3,0,0,0-.41.15l-.25.08-.34.06s0,0,0,0l.18,0-.67.23.19-.25s0-.08-.05,0L2.52,2l-.69.29c.22-.26.46-.5.7-.75Zm-1,.86L2.48,2v0a7.24,7.24,0,0,0-.87.51ZM3.46,1.8l.24-.05-.09.09a4,4,0,0,0-.82.53,0,0,0,1,0,0,0c.09-.07.19-.11.28-.17a8.62,8.62,0,0,0-.74.59l-.12-.17A6.66,6.66,0,0,1,3.46,1.8ZM3,2.32l.23-.1c-.1.1-.2.2-.29.31s0,0,0,0,.21-.23.31-.34A4.38,4.38,0,0,1,5.35,2a4.4,4.4,0,0,0-1.52.43L4.52,2s0-.05,0,0l-.32.19-.83.42s0,0,0,0L4,2.26a9.15,9.15,0,0,0-1.34,1l-.27-.39Q2.68,2.57,3,2.32Zm.6.22h0A4.35,4.35,0,0,1,5.06,2.1a5.77,5.77,0,0,0-1.39.51s0,0,0,0a5.21,5.21,0,0,1,2.21-.58l.13,0a3.24,3.24,0,0,0-.56.28l-.73.22a0,0,0,1,0,0,0l1.11-.34s0,0,0,0l-.36.11A3.3,3.3,0,0,1,6,2.09h0s0,0,0,0l.25,0-.23,0s0,0,0,0,.25,0,.38,0h.12l.11,0a11.25,11.25,0,0,0-1.87.35s0,0,0,0h0c-.24.06-.48.11-.72.14,0,0,0,0,0,0l.64-.11a5.33,5.33,0,0,1-1,.57,0,0,0,0,0,0,0,5.4,5.4,0,0,0,1.05-.59l.1,0a6,6,0,0,1,1.29,0,4.82,4.82,0,0,0-.61.17,0,0,0,0,0,0,0,4.51,4.51,0,0,1,.74-.18H6.4s0,0,0,0a4.4,4.4,0,0,1,.58,0h.12a4.25,4.25,0,0,1,.51.06h0a4.62,4.62,0,0,0-1,.11v0a0,0,0,1,0,0,0h0l-.3.09c-.23,0-.45,0-.68,0,0,0,0,0,0,0,.19,0,.38,0,.58,0L5.93,3h0L5.84,3s0,0,0,0l.07.07-.77.2s0,0,0,0l.63-.15-.12.05s0,0,0,0l.22-.09h.07l.4.43H6.21l-.3-.39s0,0,0,0l.29.37h0s0,0,0,0h0l.11.15L5.89,4a5.15,5.15,0,0,0-.74.35,11.91,11.91,0,0,0-1-1.24s0,0,0,0a12.34,12.34,0,0,1,1,1.24l-.19.11s0,0,0,0l.19-.11.07.1L4,5.25l-1.39-2A9,9,0,0,1,3.62,2.54Zm1,2.38.2.23-.56.39-.18-.25Zm-.42.67L3.54,6l-.19-.26L4,5.33Zm0,0,.69,1-.08,0-.14-.13h0l.14.13L4.27,7l-.72-1ZM5.48,7.33l0,0h0Zm0,0L5,6.66l.56-.43.1-.07.06.08-.08.07h0l.08-.07.4.58-.6.54Zm.7-.44.39.56-.48.4-.5-.44Zm0,0,0,0,.42.54-.07.05Zm.07-.05.28-.23v0s0,0,0,0v0l.71-.59a4.28,4.28,0,0,0,.53-.27l.08.12-.49.33a0,0,0,0,0,0,0l.5-.32.35.49a10.54,10.54,0,0,0-1.57,1Zm1.71-1,.22-.14.4.5-.27.14Zm.67.41h0l-.27.15h0Zm.08,0,.09,0-.09,0Zm.67-.27-.12,0,.24-.1.18,0L9.41,6a6,6,0,0,0-.66.26l0-.05a4.51,4.51,0,0,1,.66-.26A0,0,0,0,0,9.35,5.87Zm0,.15s0,0,0,0l.06,0,.15-.05s0,0,0,0h0l.23-.16.39.11a7.94,7.94,0,0,0-1,.51L9,6.27A4.4,4.4,0,0,1,9.59,6s0,0,0,0a4.66,4.66,0,0,0-.75.33l-.06-.07A6.09,6.09,0,0,1,9.37,6Zm-.09.38.09-.05h0l.19-.1a0,0,0,0,0,0,0,2.27,2.27,0,0,0,.71-.34l.07,0a2.44,2.44,0,0,1-.53.25,0,0,0,1,0,0,0L10,6.12l-.17.12-.16,0H9.6a0,0,0,0,0,0,.05l.13,0h0s0,0,0,0l-.37.27-.12-.18Zm.62.92-.1.08,0-.07Zm-.11.09-.06.05-.09-.12h.1Zm0,.05.14.21h0s0,0,0,0h0l0,0,0,0-.21-.27Zm.06.38-.05,0-.22-.24.07-.06Zm0,0,.23.3,0,0-.26-.29Zm.26.35.17.23-.19-.21Zm.59.61-.06-.08a2.47,2.47,0,0,1,.58,0s0,0,0,0a2.22,2.22,0,0,0-.61,0l-.38-.57L10.44,8l.32-.1.45.51L11,8.5s0,0,0,0l.21,0,.18.2h0s0,0,0,0h.06l.22.26a4.36,4.36,0,0,0-.64.21ZM12,8.93a0,0,0,0,0,0-.06l.37-.12v0h0l0,0s0,0,0,0l0,0h0l.06.13h0l-.06-.07s-.08,0,0,.06v0l-.25,0s0,0,0,0l.23,0a1.24,1.24,0,0,0-.32.16s0,0,0,0L12.24,9s0,0,0,0h.07l-.17,0s0,0,0,0a2.55,2.55,0,0,1,.41,0v0h0s0,0,0,0h0l-.52.12L11.74,9Zm.53.24h0ZM3.86.63l-.06,0h.06ZM3,.7a4.3,4.3,0,0,1,.65,0l-.4.13A7.65,7.65,0,0,0,2.33,1L2.57.83a0,0,0,0,0,0,0L2.3,1a3.55,3.55,0,0,0-.52.16A3.37,3.37,0,0,1,3,.7ZM.46,3l0,.15,0,.08a0,0,0,0,0,.06,0c0,.16.06.32.1.48l-.05,0a4.25,4.25,0,0,1-.12-.57A.74.74,0,0,1,.46,3ZM.82,4.3c0,.07,0,.14.08.21L.78,4.35A.11.11,0,0,0,.82,4.3Zm0-1.53.06-.11h0L1,2.46a2.77,2.77,0,0,0-.2.28h0a2.77,2.77,0,0,1,.46-.56,8.54,8.54,0,0,1,1-.58h0a6.29,6.29,0,0,0-.86,1.05l-.09.06s0,0,0,0l0,0a3.44,3.44,0,0,0-.22.4,0,0,0,0,0,0,0,3.67,3.67,0,0,1,.3-.48,7.15,7.15,0,0,1,.82-.44,3.42,3.42,0,0,0-.22.35v0a0,0,0,0,0-.06,0l0,.05,0,.06a4.31,4.31,0,0,0-.88,1.14,0,0,0,1,0,0,0,4.3,4.3,0,0,1,.82-1l0,.1s0,0,0,0a1.83,1.83,0,0,1,.08-.19l0,0,.12.17A4.23,4.23,0,0,0,1.34,4s0,0,0,0a4.26,4.26,0,0,1,.94-1.13l.27.39a7.15,7.15,0,0,0-.52.52s0,0,0,0a7,7,0,0,1,.52-.51L4,5.3l-.65.45c-.31-.42-.62-.84-.92-1.26a0,0,0,0,0,0,0c.3.43.61.84.91,1.27l-.89.62A10.92,10.92,0,0,1,.79,2.77ZM4.41,9.27c-.68-1-1.38-1.89-2-2.85l.9-.62.19.26-.3.21s0,0,0,0l.31-.21.72,1-.62.42h0l.63-.42L4.91,8a10.76,10.76,0,0,0-.79.89h0A11,11,0,0,1,4.92,8l.39.51-.87.82ZM5,7.93l.18-.17.4.51-.19.17Zm.19-.18.32-.29.22.31a0,0,0,0,0,.08-.05L5.53,7.4h0l.5.44-.5.44Zm1,.13L6.27,8l-.51.51L5.6,8.33Zm0,0,.47-.39.1.15L6.28,8Zm.59-.48a11.2,11.2,0,0,1,1.57-1h0c-.27.16-.54.34-.8.52,0,0,0,0,0,0,.27-.18.53-.35.81-.51l0,0A8.66,8.66,0,0,0,6.81,7.52Zm1.64-1,.28-.14,0,.05-.29.14Zm.34-.07.06.07-.27.17-.07-.1Zm.07.09.11.14-.3.16-.1-.13Zm.41.08.12.19-.12.11L9,6.56Zm.14.22.27.4-.1.05-.29-.36Zm.29.44.1.15-.1,0L9.5,7.17Zm.05.41-.07.06L9.3,7.27l.12-.06Zm-.08.07h0Zm0,0,.21.24h0l-.2-.25Zm.25.29.26.29,0,0-.24-.3Zm.29.33.28.31.12.17-.07,0-.37-.47Zm.44.54.32.44-.07,0-.32-.45Zm1.06,1.27.08,0,.12.13-.09,0Zm.22.14.36.4,0,0s0,0,0,0l0,0,.23.26L12.3,11l-.52-.74Zm.62.26h0l0,0Zm-.25.13-.35-.4.34-.11.25.35Zm-.29-1.3.34-.08s0,0,0,0l.3,0,0,0,0,.07a4,4,0,0,0-.57.19Zm.84,0h0l-.07,0v0h.06l0,.07Zm-.08-.11s0,0,0,0h0l0,0Zm-8.23.21.87-.82.49.64L5,10.13C4.82,9.88,4.66,9.62,4.48,9.37Zm.91-.86.19-.17.16.21-.08.08s0,0,0,0l.07-.07.3.39-.19.2Zm.38,0L6.28,8l.36.32-.57.58ZM6.3,8l.4-.38L7,8l-.31.3Zm.61.19s0,0,0,0L7,8.1l.06.09L7,8.33ZM7,8.09,7.12,8l0,.06-.07.1ZM7.15,8l.17-.15L7.18,8Zm0-.07-.28-.38A8.59,8.59,0,0,1,8.35,6.46l.07.1c-.17.11-.34.21-.51.32,0,0,0,0,0,0,.17-.12.34-.21.52-.32l.1.14a4.7,4.7,0,0,0-.75.61C7.54,7.52,7.32,7.72,7.1,7.92ZM8.94,6.61l.16.21L8.84,7l-.18-.26Zm.18.23.27.34-.12.06L9,7S9,7,9,7l.25.28-.21.11-.2-.29Zm.17.44.2.22s0,0,0,0l.07.09-.19.16-.27-.4Zm.28.39.2.25-.22.15-.16-.24ZM9.8,8l.24.31-.25.18-.23-.34Zm.27.35.36.46-.34.13-.27-.4Zm0,.62a3.77,3.77,0,0,0-.79.55L9,9.1s0,0,0,0l.78-.58Zm0,0,.34.5c-.27.16-.54.33-.81.51L9.29,9.5A3.72,3.72,0,0,1,10.08,9Zm0,0,.34-.13.33.46-.33.17Zm.7.38.46.64a0,0,0,1,0,0,0l-.45-.64.07,0,.56.78a5.1,5.1,0,0,0-.53.15l-.48-.72Zm.7.76.12.18a2.7,2.7,0,0,0-.45.29L11,10.24C11.17,10.18,11.35,10.13,11.53,10.09Zm.79.92.18-.11.23.27-.22.11Zm.43.18.39.48-.24.17-.37-.54Zm.54.67.33.41a2.42,2.42,0,0,1-.32.15L13,12Zm.86.95.11,0s0,0,0,0a.62.62,0,0,1-.16.06l-.15-.19a.77.77,0,0,1,.19,0,0,0,0,0,0,0,0l.32.52-.14,0-.2-.25,0,0S14.18,12.81,14.15,12.81Zm-.06-.48a0,0,0,0,0,0,0L14,12a9.57,9.57,0,0,1,.59,1h0C14.4,12.83,14.25,12.58,14.09,12.33Zm-.1-.38h0c-.09-.26-.19-.51-.3-.75.18.29.36.58.52.88,0,0,0,0,0,0-.18-.34-.38-.67-.59-1L13.57,11l.07,0,.42.64.8,1.48-.22,0A9.58,9.58,0,0,0,14,11.95Zm-.36-1-.07,0a4.56,4.56,0,0,0-.64-1h0v0a.29.29,0,0,0,.19,0s0,0,0,0h.06s0,0,0,0h-.2s0,0,0,0h0l0,0s0,0,0,0l.06.09s0,0,0,0l.06.08-.46.33-.25-.34a3.12,3.12,0,0,1,.5-.09,0,0,0,0,0,0,0l-.25,0c-.11-.16-.23-.3-.35-.45l.24-.07h.08s0,0,0,0a.86.86,0,0,0,.23.05s0,0,0,0a2.25,2.25,0,0,0,.29.09h0l.66,1.2-.5-.7s0,0,0,0ZM.8,7.3s0,0,0,0,0-.22,0-.33c.07.06.12.13.18.19L.9,7.35s0,.07.07,0,.08-.11.12-.17c.09.09.18.18.26.27L1,7.8C.94,7.63.86,7.46.8,7.3Zm.32-.14c.12-.2.26-.4.4-.59l.28.37,0,0-.22.23h0l-.21.21C1.31,7.35,1.21,7.26,1.12,7.17Zm.35.31v0h0ZM1.94,7h0ZM4,9.85l.13-.12.54.8-.14.15-.56-.83S4,9.87,4,9.85Zm1,.31.86-.93c1.27,1.65,2.56,3.29,3.83,4.94,0,0,.05,0,0,0-1.26-1.66-2.55-3.3-3.83-5L6.11,9c3.19,4,6.16,8.26,9.09,12.5a0,0,0,0,0,0,0C12.31,17.23,9.33,13,6.12,9L6.7,8.4c.3.27.59.54.87.82q3.45,5,6.91,10a0,0,0,0,0,0,0Q10.77,13.77,7,8.36l.1-.13,4.72,6.84s0,0,0,0Q9.49,11.63,7.12,8.22l.07-.1q.75,1,1.48,2.08s0,0,0,0Q8,9.12,7.22,8.08a5,5,0,0,1,.54-.63q.41-.33.84-.63l.19.27-.2.18s0,0,0,0l.2-.17.2.28c-.28.16-.56.33-.85.47,0,0,0,0,0,0,.29-.14.58-.3.87-.46l.28.41-.47.41s0,0,0,0,.32-.26.48-.39l.16.24a6.07,6.07,0,0,0-1,.92s0,0,0,0a5.94,5.94,0,0,1,1-.89l.23.34c-.47.37-.93.74-1.41,1.09,0,0,0,0,0,0,.22-.15.43-.31.65-.47l.25.37c-.2.18-.39.37-.58.57,0,0,0,0,0,0,.19-.2.38-.39.58-.56l.32.48-.26.18s0,0,0,0L9.61,10c.92,1.35,1.82,2.7,2.65,4.12,0,0,0,0,0,0-.82-1.41-1.73-2.77-2.65-4.11.27-.18.54-.34.82-.49l.49.72-.56.23s0,0,0,0l.57-.22.22.33-.19.15s0,0,0,0l.18-.15,1.06,1.56a0,0,0,1,0,0,0l-1-1.57a2.64,2.64,0,0,1,.45-.29l.33.47.19.29-.38.26s0,0,0,0l.39-.25.11.17h0l.07.09-.2.12a0,0,0,1,0,0,0l.2-.12.38.55-.1.07h0l.1-.07.06.09s0,0,0,0h0l.31.45-.1,0c-.06,0,0,.12,0,.11l.14-.05,1.41,2s.06,0,.07,0a28.6,28.6,0,0,1,2.77,4.69s0,0,0,0a28.74,28.74,0,0,0-2.79-4.7h0l-1.09-1.6a.91.91,0,0,0,.4,0l.06.11s0,0,0,0l-.06-.1h0l.2.24-.21,0s0,0,0,0l.22,0c.55.68,1.12,1.35,1.66,2,0,0,0,0,0,0-.54-.69-1.1-1.36-1.65-2l.14,0,.21.34s.08,0,.06,0-.13-.21-.19-.31h0c.1.21.21.42.3.63,0,0,0,0,0,0-.09-.21-.2-.42-.3-.63l.23,0,.83,1.53L15,13.65s0,0,0,0l.67,1s0,0,0,0c1.72,3.2,3.47,6.38,5.24,9,.32.54.66,1.07,1,1.61a.1.1,0,0,0,0,.15h0a.5.5,0,0,1-.16.07s0,.06,0,.05l.08,0s0,0,0,.06l.06.08,0,0s-.07.08-.13.09,0,0,0,0l-.24.22c-2-2.41-3.68-5.08-5.46-7.66,0,0,0,0,0,0a90.66,90.66,0,0,0,5.44,7.69,2.74,2.74,0,0,1-1,.58,0,0,0,0,0,0,0,2.77,2.77,0,0,0,1-.57s0,0,0,0a4,4,0,0,0,.39-.38l.09.12-.31.21s0,0,0,0l.12,0a.35.35,0,0,1-.14.05s0,.07,0,.06a.46.46,0,0,0,.22-.15l0,0h0L22,25.9h0a.08.08,0,0,0,.06.07h0l-.18.09s0,.08,0,.07l.06,0c-.21.18-.42.35-.65.52a2.35,2.35,0,0,1-.61.21s0,0,0,0a2.35,2.35,0,0,0,.54-.16h0a3.62,3.62,0,0,0,.64-.36h0a.61.61,0,0,0,.28-.21l.07.11a.49.49,0,0,0-.21,0s0,.07,0,.05a.39.39,0,0,1,.22,0l0,.06h-.06s0,0,0,0h.07l.06.09a.49.49,0,0,1-.17.08s0,0,0,0a5.47,5.47,0,0,1-1.14,1,0,0,0,0,0,0,0,5.62,5.62,0,0,0,.91-.75s0,.06,0,0a1.31,1.31,0,0,1,.33-.13s0-.06,0,0a1.51,1.51,0,0,0-.34.12,2.89,2.89,0,0,0,.24-.25s0,0,0,0h.11a0,0,0,0,0,0,0l.09,0,.12.2-.14.09s0,.07,0,.07L22.4,27l-.29,0c-.05,0,0,.09,0,.08l.22,0,0,0h0s0,0,0,.05h0a5,5,0,0,1-.49.39s0,0,0,0a5.18,5.18,0,0,0,.47-.35,3.14,3.14,0,0,1-.4.35,0,0,0,0,0,0,0,3.27,3.27,0,0,0,.47-.41h.06a.5.5,0,0,1-.28.23s0,0,0,0a.49.49,0,0,0,.28-.24,1,1,0,0,0,.31,0l0,.06a.57.57,0,0,1-.27.06,0,0,0,0,0,0,0,.5.5,0,0,0,.24,0l-.17.23a2.2,2.2,0,0,1-1.14.47,0,0,0,0,0,0,0,2.18,2.18,0,0,0,1-.33,1.94,1.94,0,0,1-.26.21c-.61.31-1.21.66-1.8,1-.62-.82-1.27-1.62-1.94-2.41a115.67,115.67,0,0,0-7.4-10.54s0,0,0,0a115.32,115.32,0,0,1,7.2,10.29c-.36-.42-.72-.85-1.11-1.26h0c-1.1-1.44-2.19-2.88-3.23-4.36,0,0,0,0,0,0,1,1.5,2.13,3,3.23,4.4h0l0,0Q18,26.41,19.1,27.78s0,0,0,0L20,29l-.68.39-1-1.29h0l1,1.29-.37.21h0l.37-.21.66.87a4.11,4.11,0,0,1-.66.15c-1-1.42-2.09-2.81-3.18-4.18C13,21.89,9.92,17.48,6.87,13.06Q6,11.6,5,10.17Zm26.1,28.77-.18.12a0,0,0,0,0,0,.06h0a0,0,0,0,0,0,0l.15-.06-.07.06c-.08,0,0,.16,0,.13a.39.39,0,0,0,.17-.1,0,0,0,0,0,0,0,.05.05,0,0,0,0,.11l.1,0,.12.14a.56.56,0,0,1-.15,0c-.08,0-.07.13,0,.13a.37.37,0,0,0,.22-.07l.83.93A45.93,45.93,0,0,0,36,44.19c-1.75-.25-3.38,3.09-2.85,4.88a7.72,7.72,0,0,0-.46-.66s0-.09,0-.13l.09-.27.19.28s.06,0,0,0l-.21-.32c.1-.32.19-.63.3-.94a0,0,0,0,0,0,0c.11-.35.22-.7.33-1,0,0,0,0,0,0-.18.53-.34,1.06-.51,1.6,0,.12-.09.24-.13.36l-.13-.2c.3-.65.53-1.34.86-2,0,0,0-.07-.07,0A11.72,11.72,0,0,0,32.79,47l-.11-.15a2.43,2.43,0,0,0,0-.44c.05-.13.11-.26.15-.4.34-.53.71-1,1.08-1.54,0,0,0-.08-.05,0l-.44.57a5.17,5.17,0,0,0-.42.55c.16-.48.31-1,.45-1.44,0,0,0,0,0,0-.15.5-.3,1-.46,1.49-.1.16-.2.31-.29.48l-.25.42,0-.07A7.41,7.41,0,0,0,33,45.14l0,0s0-.06,0,0a7.93,7.93,0,0,0-.65,1.06l0-.22s0,0,0,0l-.05.28-.06.12,0,0c0-.17,0-.35.06-.52a0,0,0,0,0-.05,0c0,.15,0,.31-.06.46-.12-.17-.23-.34-.36-.5.05-.13.11-.26.18-.38s.17-.25.27-.37h0c-.1.11-.17.23-.26.35.11-.21.22-.4.33-.58,0,0,0-.05,0,0a6.66,6.66,0,0,0-.54.94l-.13-.16a5.52,5.52,0,0,1,.74-1s0,0,0,0a5.58,5.58,0,0,0-.74,1l-.13-.15,0,0s0,0,0,0v0l-.17-.2a3.31,3.31,0,0,1,.74-.78s0,0,0,0a3.32,3.32,0,0,0-.74.78l-.14-.17.08-.14.26-.23a6.17,6.17,0,0,1,.84-.42,0,0,0,0,0,0,0,6.07,6.07,0,0,0-.77.38c.31-.25.64-.48,1-.7,0,0,0,0,0,0-.35.24-.69.49-1,.76l-.14.08a4.23,4.23,0,0,1,.36-.46s0,0,0,0a4.24,4.24,0,0,0-.43.55l-.2.13-.2-.23a14.3,14.3,0,0,1,1-1.15s0,0,0,0a10.94,10.94,0,0,0-1,1.14l-.14-.17s0,0,0,0l.15.17-.2.27-.21-.26s0,0,0,0l.21.27-.37.5a27,27,0,0,0-2-2.77c-.23-.37-.47-.74-.7-1.08-1.13-1.7-2.31-3.35-3.53-5-.38-.54-.77-1.08-1.19-1.6h0c.38.48.74,1,1.09,1.47-1.27-1.7-2.57-3.37-3.88-5l.28-.1A62.5,62.5,0,0,1,24,36.38a0,0,0,0,0,.06,0,56.47,56.47,0,0,0-3.73-5.17l.24-.09.45.6h0s0,0,0,0h0c.44.59.87,1.19,1.31,1.78h0a0,0,0,0,0,0,0h0c.65.89,1.31,1.77,1.94,2.67,0,0,0,0,0,0-.63-.9-1.28-1.78-1.94-2.67l.35-.06c.51.69,1,1.39,1.52,2.09,1.92,3,4,5.81,6,8.7a0,0,0,1,0,0,0c-1.93-2.79-4-5.52-5.82-8.36,0,0,0,0,0,0-.17-.24-.35-.47-.52-.71l-.19-.29s0,0,0,0l-1-1.39a5.54,5.54,0,0,0,.94-.26c.18.19.34.39.5.59a5.2,5.2,0,0,1-.72.2s0,0,0,0a5.44,5.44,0,0,0,.74-.19l.17.2,0,0h0l.15.17a4.84,4.84,0,0,1-.49.12s0,0,0,0a5,5,0,0,0,.5-.11c.26.32.52.65.77,1h0l.06.08-.22.12h0l.22-.11c1.16,1.59,2.2,3.27,3.32,4.91a0,0,0,1,0,.07,0c-1.11-1.64-2.14-3.32-3.31-4.9l.3-.15.26-.14A6.39,6.39,0,0,0,27.37,34h0l0,0a0,0,0,0,0,0,.06l.07,0,.18.22h0l-.17-.16s0,0,0,0,0,0,0,0a4.29,4.29,0,0,1-.53.49h-.09s0,0,0,0h0a3.43,3.43,0,0,1-1.12.58s0,.07,0,.05a3.48,3.48,0,0,0,1.21-.63h.29a2,2,0,0,1-.78.41c-.06,0,0,.11,0,.09a2.16,2.16,0,0,0,.86-.49l.08,0h.27l.16.19h0l0,0-.33,0,.1-.08s0-.06,0,0l-.12.1h0s0,0,0,.06a1.9,1.9,0,0,1-.48.3s0,.06,0,0a2,2,0,0,0,.5-.32l.32,0a2.5,2.5,0,0,1-1.48.72,0,0,0,1,0,0,.09,2.38,2.38,0,0,0,1.59-.8h.09s0,0,0,0l.08.08,0,0h-.1a0,0,0,0,0-.05,0h0s0,.06,0,.05h.05a1.79,1.79,0,0,1-1,.53s0,0,0,0a1.83,1.83,0,0,0,.74-.29s0,0,0,0a1.38,1.38,0,0,0,.21-.05.07.07,0,0,0,0,.05l-.07,0s0,0,0,0l.07,0,0,0,.21,0-.05,0h-.07s0,0,0,0l-.22.15s0,0,0,0,.28-.14.42-.2l.12-.05.08,0,.06.07-.14.06s0,0,0,0l.15-.06,0,0-.13.1h0a1.06,1.06,0,0,1-.22,0c-.07,0-.06.09,0,.11h0s0,0,0,0l-.31.14a0,0,0,0,0,0,0l.31-.13s0,0,0,0l.08,0a1,1,0,0,1-.42.22s0,.08,0,.07a1,1,0,0,0,.52-.32l.28-.11.07.09h-.06c-.08,0-.1.12,0,.13h0a0,0,0,0,0,0,.06l-.21.08c-.06,0,0,.11,0,.09h0s0,0,0,0a1.76,1.76,0,0,1-.65.24s0,0,0,0a1.88,1.88,0,0,0,.68-.25h.34a1.5,1.5,0,0,1-.16.15h0a1.35,1.35,0,0,0,.17-.15l.15,0,.17.21a0,0,0,0,0,.08,0l0,.06s0,0,0,0h0l-.13.07a5.62,5.62,0,0,1-.58,0,0,0,0,1,0,0,.09h.5l.29,0h0l0,0a0,0,0,0,0,0,0l-.15.13a.94.94,0,0,1-.37.07c-.06,0,0,.09,0,.09A1,1,0,0,0,29,37l-.16.09s0,.08,0,.06a2,2,0,0,0,.31-.18,1.05,1.05,0,0,0,.3-.18l0,.05a.07.07,0,0,0,0,.09,1.51,1.51,0,0,1-.26.16h-.09c-.06,0-.06.1,0,.1h.08s0,0,0,0h.18l0,0h.09a1.05,1.05,0,0,1-.34.32,0,0,0,1,0,0,0,1,1,0,0,0,.37-.31h.16l.07.09-.24,0c-.07,0-.06.13,0,.11l.3-.07,0,.06-.12,0h-.06a.05.05,0,0,0-.06.06h0c-.06,0,0,.09,0,.09h.12c-.1,0-.09.19,0,.18a.89.89,0,0,0,.31-.1l.15.16,0,0H30.1c-.06,0-.08,0-.07.09h-.14c-.06,0-.08.09,0,.1H30s0,.06,0,.07l.39,0s0,0,.05,0h.07l0,0a1,1,0,0,1-.49-.05c-.08,0-.14.09-.06.13a1.29,1.29,0,0,0,.65.07l0,0-.15.06a.06.06,0,0,0,0,.1l-.11,0c-.06,0-.05.09,0,.09a4.85,4.85,0,0,0,.49-.08s0,0,0,.06,0,0,0,0h0c-.06,0,0,.14.07.1l0,0h0l.14,0,.16.19-.14.06.06,0A0,0,0,0,0,31.11,38.93Zm6.77,17.8.15-.18h0l.25-.21,0,0s0,0,0,0l-.3.27Zm.74-2,.28-.45.28-.33a4.16,4.16,0,0,1-.17.46s0,.07.06,0l0-.11c0,.06,0,.13-.05.19l-.1.21-.24.34s0,0,0,0l.11-.18a0,0,0,0,0,0,0l-.25.42-.08.12h0c.17-.26.32-.54.47-.82,0,0,0-.05,0,0a11.16,11.16,0,0,1-.66,1.11,4,4,0,0,1-.43.37,0,0,0,0,0,0,0,4.06,4.06,0,0,0,.32-.27l0,0a2.37,2.37,0,0,1-.67.44,6.71,6.71,0,0,0,.83-1.4,4.69,4.69,0,0,0,.54-.47l-.18.3S38.62,54.71,38.63,54.69Zm.58-.84s0,0,0,0l0,.06.15-.28C39.25,53.69,39.23,53.77,39.21,53.85Zm-.89,1.75,0,0Zm.3-.33c.1-.12.19-.25.28-.37a6.16,6.16,0,0,1-.83,1.3l-.08.07a1.68,1.68,0,0,0,.16-.31s0,0,0,0l.08-.12A2.48,2.48,0,0,0,38.62,55.26Zm1.2-2.06,0,.11v-.05Zm-.22.7-.1.18c.06-.15.12-.3.17-.45C39.65,53.73,39.63,53.82,39.6,53.91Zm-.7,1.39h0l-.19.24Zm.24-.39c.08-.13.17-.26.25-.4,0,.08-.06.16-.1.24s0,0,0,0-.17.26-.27.39Zm.83-2v-.21a5.14,5.14,0,0,1-.13.65C39.91,53.23,39.94,53.08,40,52.93Zm-2,3.42h0Zm.17-.06a5.76,5.76,0,0,0,1-1.06c-.1.17-.21.33-.33.48l-.34.31h0c-.13.14-.26.26-.4.39l-.07.07h0l-.23.18Zm2.26-1h0l.06-.08,0,.1Zm.35-4.91v-.1l0,0,0,.09S40.73,50.37,40.71,50.38Zm-8,4.78v0Zm1.06,0a6.78,6.78,0,0,0-.79-.22c.17-.3.24-.61.68-.57a1.18,1.18,0,0,1,.86.51C34.85,55.33,34,55.18,33.8,55.13Zm-.87,0h0l0,0Zm0,0v0l.09,0h0l.09,0h0Zm2.27,1.54h0l0,0,.19-.09s0,0,0,0l.23-.19a1.08,1.08,0,0,1-.58.4Zm-.29-4.17.23.24ZM18.71,27q.76.93,1.48,1.88L20,29Zm.29.53-1.41-1.82c.29.33.59.66.87,1Zm1.2,1.37.46.63-.21.08h0L20,29ZM21.92,28s.07-.06.12-.09l.13-.07s0,0,0,0a2,2,0,0,0,.27-.22,2.15,2.15,0,0,0,.4-.35s0-.05,0,0l-.1.09s0,0,0-.06a.53.53,0,0,0,.09-.09l.1.17a0,0,0,0,0,0,.05l0,0a.46.46,0,0,1-.23.14s0,0,0,0h0a.65.65,0,0,0,.23-.14l.07.1h0l0,.06h0l-.06,0,.05,0a0,0,0,0,0-.05,0l-.16.15h-.11a0,0,0,1,0,0,.06h0a4.47,4.47,0,0,1-.83.61s0,0,0,0a3.81,3.81,0,0,0,.84-.57s0,0,0,0a.61.61,0,0,0,.25-.17l0,0a0,0,0,0,0,0,0l0-.06.11.16a.87.87,0,0,1-.49.3s0,0,0,0a1,1,0,0,0,.4-.16h0a.82.82,0,0,1-.52.23c-.05,0,0,.09,0,.08a.78.78,0,0,0,.61-.33,0,0,0,0,0,0,0l0,0h0l-.08.05.06-.07.17.25L23.1,28l0,0a0,0,0,1,0,0,0l-.25.17a3,3,0,0,1-.38.12s0,0,0,0l.29-.09a8.92,8.92,0,0,1-1.65.94s0,0,0,0a7.84,7.84,0,0,0,1.42-.78,1.54,1.54,0,0,0,.32-.07,1.14,1.14,0,0,1-.14.08s0,0,0,0l0,0a2.07,2.07,0,0,1-.65.47h0l-.1.05S22,29,22,29l-.28.14-1,.38-.47-.64c.54-.31,1.08-.61,1.63-.91h0S21.91,28,21.92,28Zm-.23-1.54.2-.15a0,0,0,0,0,0,0Zm.22-.17.24-.19h0l0,0A.46.46,0,0,1,21.91,26.26Zm0-.74s0,0-.06,0l.07,0,0,.06h0Zm.86,1.23,0,0,0,0,0,0Zm6,8.58s0,0,0,0a.06.06,0,0,0-.05.07l0-.05h0a0,0,0,0,0,0,0l-.07-.11h0a0,0,0,0,0,0,0Zm-.67,0-.09,0h0l.17-.09.06.08h-.14l0,0A0,0,0,0,0,28.11,35.37Zm-.24-.14h.19l0,0h0a1.36,1.36,0,0,1-.44.15A1.68,1.68,0,0,0,27.87,35.23Zm-.48-1,.14.13a.86.86,0,0,1-.28,0l.14-.15Zm-5.56-5.08.48-.18,0,0q-.65.44-1.32.84l-.12-.16C21.18,29.47,21.5,29.3,21.83,29.12Zm-1,.49-.07-.1.87-.32Zm1.89-2.44,0-.05h0s0,.06-.06.07Zm-.25-.81h0l-.08-.11s0,0,0-.11l.14.19s0,0,0,0l0,.05Zm-.26-.44h0Zm0,.07,0,0a.06.06,0,0,0,.08,0l0,0-.09,0Zm.12,0,.09.11s0,0,0,0l0,.09-.11-.17h.09S22.34,26,22.34,26Zm.22.43,0,0h0Zm5.07,8.11h0l-.24.06.06-.05a1.22,1.22,0,0,0,.28-.08l0,0Zm.56.57,0,0,.09,0,.06.07Zm0-.14h0l-.09,0,0-.05Zm-.1-.09s0,0,0,0H28l0,0,.08-.05.07.08Zm.21.35s0,0,0,0h0l.11.14-.07,0-.09-.1Zm1.62,2,0,0,0,0ZM29.78,37l.05.1h-.05l0-.06h0s0-.08,0-.06h0l-.08-.11,0,0ZM29,36l0,0,.16.22h0Zm-.25-.26h0a.06.06,0,0,0,.08,0l.08.1,0,0,0,0s0,0,0,0l-.08-.09Zm.44.48h0Zm-.62-.7,0,0-.06-.06,0,0Zm1,1.25h0l0-.07Zm1.19,1.75,0,0v0Zm-4.11-4.45h0Zm.07-.06.13-.13H27l-.2.13Zm.4-.15h.09l0,0-.19.1h-.13Zm.12-.07h0ZM26,34.18,26,34.09a3.67,3.67,0,0,0,.48-.39h0l.15,0A3.6,3.6,0,0,1,26,34.18Zm-1-1.89c-.1.09-.21.16-.32.24l-.13-.16A2.54,2.54,0,0,0,25,32a1.66,1.66,0,0,0,.27.06,2.91,2.91,0,0,1-.41.17s0,.08,0,.07a3,3,0,0,0,.5-.21h0a1.83,1.83,0,0,1-.65.51l0-.05a3.73,3.73,0,0,0,.32-.25S25.07,32.26,25,32.28Zm-1.86.58h0l-.35-.5a7.19,7.19,0,0,0,1-.44s0,0,0,0a3,3,0,0,0,.29-.08l.08.11-.15.07s0,0,0,0l.15-.07,0,.06-.07.07a2.17,2.17,0,0,1-.3.17s0,0,0,.05c-.17.12-.33.24-.51.35,0,0,0,.05,0,0,.18-.1.36-.21.53-.33,0,0,0,0,0,0a1.53,1.53,0,0,0,.38-.18,4.65,4.65,0,0,1-1.05.58Zm-.68.18-1.09-1.5.55-.2.35.49a4.09,4.09,0,0,1-.47.12s0,0,0,0a4.39,4.39,0,0,0,.49-.12l.18.26a3.61,3.61,0,0,1-.41.12s0,.06,0,.05a3.88,3.88,0,0,0,.44-.12l.16.22-.51.18a0,0,0,0,0,0,0l.53-.17.35.5a2.68,2.68,0,0,1-.55.12Zm.27-4.33a1.08,1.08,0,0,0,.48-.18h0l-.16.14a1.27,1.27,0,0,1-.32.11,0,0,0,0,0,0,0,.89.89,0,0,1-.15,0,0,0,0,1,0,0,0,1,1,0,0,0,.19-.06h0l.07,0a1.06,1.06,0,0,0,.2-.08,2.4,2.4,0,0,0,.35-.2l.1.16-.16.1,0,0a0,0,0,0,0-.06.07l-.19.1s0,0,0,0a11.79,11.79,0,0,0-1.29.79s0,0,0,0A12.45,12.45,0,0,1,23.1,29h0l.21-.1,0,0-.12.08s0,0,0,0l.12-.08.1.09a1.13,1.13,0,0,1-.31.09h0a1.14,1.14,0,0,0,.32-.09l.09.08h-.07s0,.06,0,.06l.12,0,0,0-.1.09h0l.06,0a0,0,0,1,0,0,0l-.09.06,0,0h0a0,0,0,0,0,0-.06l-.08,0-.14-.05s0,0,0,0l.12,0a2.68,2.68,0,0,0-.42.22c-.05,0,0,.11.05.08a2.37,2.37,0,0,1,.44-.26l.05,0-.64.43-.09-.16s-.06,0,0,0l.09.16c-.41.27-.82.54-1.25.77L21,29.88A19,19,0,0,0,22.77,28.71Zm0-.1a1.33,1.33,0,0,0,.27-.32l.28-.12.12.18-.07-.09s-.08,0-.06,0l.05.09a1.18,1.18,0,0,1-.41.19s0,0,0,0l.12-.06s0,0,0,0l-.16.08h0Zm.31-.4.07,0-.08,0Zm.24-.13-.07,0,.12-.12.05.08,0,0h0s-.08,0-.07,0l-.14.07.07-.07.08,0Zm2.17,2.77,0,0h0Zm1.15,2.55.22-.06h0l-.23,0ZM25,32.88l0,0,.06,0,0,0S25,32.87,25,32.88Zm-1.6-2.15h0l-.06-.1a4.56,4.56,0,0,0,.59-.37.8.8,0,0,0,.26-.17l.1,0a.55.55,0,0,1-.09.12,0,0,0,0,0,0,0,3.9,3.9,0,0,1-.52.49c-.05,0-.1.05-.16.07s0,0,0,0l.11,0s0,.06,0,0l.1-.09a2.41,2.41,0,0,0,.36-.15,0,0,0,0,0,0,0h0a2.54,2.54,0,0,1-.62.37l-.11-.16h0S23.41,30.72,23.4,30.72Zm-.33-.54.21-.14a0,0,0,0,0,0,0l-.21.13L23,30A2.81,2.81,0,0,0,24,29.55s0,0,0,0l0,0-.13.12,0,0a0,0,0,0,0,0,0,1.43,1.43,0,0,1-.19.06s0,0,0,0l.13,0-.12.09h0a3,3,0,0,1-.58.35Zm0,.06-.1,0,.09-.06Zm3.67,2.84,0,0,0,0h0Zm-1.1-.67h0Zm.23-.37h.07a0,0,0,0,0,0,0h0l0,0-.07.07,0-.06Zm-.35-.44-.1-.15.08,0s0-.07,0,0h0l0,0,.1.15h0l0,.07h0Zm-.31-.18-.2.09h0s0,0,0,0l0,0h0l0,0a1.16,1.16,0,0,0,.22-.17l.09.13-.13,0,.09,0S25.18,31.41,25.17,31.42ZM24,31.12a1.55,1.55,0,0,1-.27.12l0,0,.49-.32s0,0,0,0l.06,0a1.07,1.07,0,0,0,.27,0l.11,0h0a.82.82,0,0,0,.3-.11h0l-.32.25a.64.64,0,0,1-.3,0s0,0,0,0l.19,0a2.52,2.52,0,0,1-.7.41l-.06-.08a1.62,1.62,0,0,0,.26-.13S24.06,31.1,24,31.12Zm-.34.16-.08,0,.07,0Zm.51-1.1h0a.67.67,0,0,0,.1-.13l.16-.07.07.07-.1.07s0,0,0,0l.11-.07.05.05-.25.19h-.05s0,0,0,.06a2.64,2.64,0,0,1-.46.24,4.34,4.34,0,0,0,.41-.39A0,0,0,0,0,24.2,30.18Zm.16-.22s0,0-.05.07l-.08,0a0,0,0,0,0,0,0,.66.66,0,0,0,.1-.16h0l.08.09-.12.05,0-.06S24.37,29.95,24.36,30Zm-.12-.16,0,0h0l0,0Zm-.95-.26h0a.08.08,0,0,0-.05,0Zm.19-.06h0l-.15,0Zm.27-.13h0l0,0Zm1.63,1.87,0,.06-.1.1-.07-.1Zm0-.13v0h0v0Zm-1-.72h0Zm0-.08.22-.16,0,0-.15.12ZM24,29l0,0,0,0,0,0Zm0,0h0Zm.68,1s0,0,0,0h0l.13.18h0L24.64,30h0Zm.17.26.06.08h0l0-.07Zm.06.08-.06-.08h0l.06.09Zm-.14-.18-.06-.09.08.11Zm.22.29h0l0,0h0l.07.09h0l0,0h0ZM24.64,30v0s0,0,0,0l0,0ZM24,29.3h0l.13.15L24,29.32Zm.7.9,0,0-.16,0Zm.41.58-.2.1h0s0,0,0,0l-.07,0L25,30.7Zm-.33.19-.08,0,0,0Zm-.17.1.08,0a5,5,0,0,1-.49.35c.1-.09.22-.16.31-.26s0,0,0,0Zm.23-.05,0,0h0l0,0H25l-.15.06Zm.26-.12H25l.13-.07,0,.07-.06,0S25.09,30.88,25.07,30.89Zm0-.29h0l.21.28h0Zm-1-1.42h0Zm0,0,0,0a0,0,0,0,0,0,0L24,29h0l.09.13Zm-.18-.27,0,0-.2-.29,0,0Zm.16,1.17h0Zm.18.32h0l-.08.06,0,0h0Zm.08,0,.08-.06.2,0-.1.05Zm.42-.11,0,0-.1,0ZM24,31.4h0l.21-.12-.27.22,0,0Zm-.12.15,0,0-.25.1.24-.16Zm1.29-.64h0L25,31Zm.14.21h0Zm.28.87h0Zm.19.19-.08.08-.1,0,.14-.12Zm.18-.12,0,.05h-.08Zm.39.55h0Zm.25.21h0l.12.16h0l0,0s0,0,0,0Zm0-.05-.05-.08.06.08Zm.19.24,0,.05h0l0,0Zm.09.14h0l0,0h0Zm-1.36-2h0l0,0h0Zm-.07-.09-.1-.13h0l.1.14Zm-1.72-2.5,0,0-.31-.46,0,0Zm-.32-.07-.08,0,.07-.06Zm.06.32h0l-.06,0h0Zm.11,0,.09.12-.12.07-.11-.1Zm.1.13.11.15,0,0h-.07L23.55,29Zm.1.23.06,0,.09.11,0,0-.12-.1Zm0,.18-.07,0-.11,0,.09-.08Zm-.11.06,0,0h-.13l.06-.05Zm-.24,0h0c-.05,0-.06,0,0,.08l0,0-.12,0s0,.07,0,.06h0l-.32.24,0-.08.66-.46h0Zm-.15.21a.08.08,0,0,0,.09.12,1.08,1.08,0,0,0,.5-.25l.11,0,0,0h0a2.8,2.8,0,0,1-1.05.45l-.06-.1Zm.52.31A1.79,1.79,0,0,0,24,29.7l.09-.05.11.12,0,0-.17,0s-.05.05,0,.06h.07a1.12,1.12,0,0,1-.4.09h0a1.13,1.13,0,0,0,.42-.09h0a.77.77,0,0,1-.22.09s0,0,0,0a.78.78,0,0,0,.24-.1h0a2.88,2.88,0,0,1-.72.52s0,.09,0,.07l.21-.12h0c-.14.09-.29.18-.43.26l-.18-.31A3,3,0,0,0,23.78,29.88Zm.4.65h.11s0,0,0,0a3.85,3.85,0,0,0,.55-.1h0l-.3.1s0,.06,0,0l.3-.1h0l.07.1-.08,0s0-.07,0,0a.82.82,0,0,1-.2.12,1.56,1.56,0,0,1-.45.06c-.05,0,0,.06,0,.08a0,0,0,0,0,0,0h0l-.29.18-.22.1-.17-.24A2.49,2.49,0,0,0,24.17,30.53Zm-.46.64h0Zm-.07,0-.18.1-.16,0,.34-.13Zm-.22.18a1.36,1.36,0,0,0,.3-.06l.05.07a2.81,2.81,0,0,1-.32.11s0,.06,0,.05a2.79,2.79,0,0,0,.33-.12h0a6.45,6.45,0,0,1-1.21.63l-.18-.25A5.44,5.44,0,0,0,23.43,31.4Zm-.05.4.31-.09a6.88,6.88,0,0,1-.94.58l-.1-.15A4.8,4.8,0,0,0,23.38,31.79Zm-.6.53a6.73,6.73,0,0,0,1.14-.72h0l.06.08h0s0,0,0,0l0,0,0,.06a6.82,6.82,0,0,1-1.24.59Zm1.31-.65.2-.07-.17.11Zm0,.12,0,0-.23.07Zm.08,0,.28-.2a2.55,2.55,0,0,0,.35-.19s0,0,0,0a2.52,2.52,0,0,1-.28.15,3.32,3.32,0,0,0,.37-.33s0,0,0,0a3.82,3.82,0,0,1-.51.43l-.26.09L24,31.57l.17-.09a1.66,1.66,0,0,0,.55-.38,1.18,1.18,0,0,0,.51-.12l.09.14a0,0,0,0,0,0,0l-.09.06a1.1,1.1,0,0,1-.34,0c-.09,0-.08.13,0,.13H25a1.68,1.68,0,0,1-.5.22c-.05,0,0,.1,0,.08a2.13,2.13,0,0,0,.3-.11l0,0h-.05s0,0,0,.06l0,0a4.28,4.28,0,0,1-.49.17Zm.48,0-.13.14-.21.1-.07-.1A4.18,4.18,0,0,0,24.61,31.71Zm-.2.2-.09.09,0,0Zm.55-.21v0l-.23.19.21-.21Zm0,0a0,0,0,0,0,0,0s0-.1-.07-.07l-.38.31.22-.23.11-.09.33-.08-.14.13Zm.28-.16.09.11-.08,0s0,0,0,0h-.15Zm.38.1,0,.05-.14,0,0,0Zm.06.09,0,.07-.09.06h0l-.07-.09Zm0,.36,0,0h-.14s0,0,0,0h.12l-.15.12-.1,0h0l.12-.15Zm-.26.18h0l.07,0a2.41,2.41,0,0,1-.31.19A1.75,1.75,0,0,0,25.44,32.24Zm-.36.32h0a2.61,2.61,0,0,0,.44-.26l.08,0-.28.21-.42.21-.07-.08A1.39,1.39,0,0,0,25.08,32.57Zm.69-.25h0l.05-.06,0,.06-.15.05Zm.13-.18H26l0,.07-.07,0Zm.19.1.1.14-.05,0L26,32.28Zm.16.22.09.12,0,0-.11-.12Zm0,.29v0l-.05,0,0,0Zm.12,0h0l0,0Zm.05,0,.06.09h0l-.07-.08Zm.1.14.08.11a0,0,0,0,0,0,0l0,0,0,0-.13-.16Zm-1-1.66h0l0,.06Zm-2.81-1.45,0,.08a9.22,9.22,0,0,1-1.24.75l-.06-.09A13.45,13.45,0,0,0,22.75,29.77Zm.08.13,0,.08-.1,0s0,0,0,0l.12,0,.09.16-.24.15-.09,0s0,0,0,0a9,9,0,0,1-.88.49l-.19-.26A8.91,8.91,0,0,0,22.83,29.9Zm-.07.49.3-.09.18.31a4.74,4.74,0,0,1-.59.26,0,0,0,1,0,0,0,5,5,0,0,0,.6-.26l.06.1c-.42.2-.85.37-1.28.53l-.25-.36A7.58,7.58,0,0,0,22.76,30.39Zm.57.38.11.16-.09,0s0,0,0,0l.09,0,.17.24a6.81,6.81,0,0,1-1.26.41s0,0,0,0a8,8,0,0,0,.92-.25,0,0,0,0,0,0,.07,5.4,5.4,0,0,1-.88.38l-.35-.5A13.33,13.33,0,0,0,23.34,30.77Zm1.08,1.5.07.09a3.37,3.37,0,0,1-.84.38A5.1,5.1,0,0,0,24.41,32.27Zm.07-.06c.19-.14.37-.3.54-.46a.73.73,0,0,0,.41,0l0,0a2.31,2.31,0,0,1-.43.08s0,0,0,0a2.28,2.28,0,0,0,.45-.09l.07.09a.08.08,0,0,0,0,.05l0,0h0s0,0,0,0l-.07,0a1.33,1.33,0,0,1-.36-.06s0,0,0,0l0,0h0a2.9,2.9,0,0,1-.42.35Zm.22.43-.1,0,.07-.06Zm.05.07.07.09a3.39,3.39,0,0,1-1,.29,4.28,4.28,0,0,0,.64-.33A1.25,1.25,0,0,0,24.76,32.72Zm.14.18,0,0-.14,0Zm.13,0h0a2.49,2.49,0,0,0,.51-.37l.11-.06a0,0,0,0,0,0-.07h0l.21-.07.13.14-.29.17.09-.07s0-.07,0,0l-.34.25a2.18,2.18,0,0,1-.42.13Zm.23.06a3.33,3.33,0,0,0,.83-.41l.09.1a1.68,1.68,0,0,1-.32.06,0,0,0,0,0,0,.09h.06c-.22.16-.43.3-.66.43L25.14,33Zm.77-.18h0l.16,0a4.2,4.2,0,0,1-.75.66l-.12-.15A6.57,6.57,0,0,0,26,32.79Zm.14,0h0l.13,0,.08.09-.2.09c-.05,0,0,.1,0,.08l.23-.11.14.16,0,0-.18,0a.06.06,0,0,0,0,.11h.08a6,6,0,0,1-.76.49l-.22-.28A4,4,0,0,0,26.18,32.84Zm.34.39h.18l0,0a2,2,0,0,1-.2.06.05.05,0,0,0,0,.1,5.45,5.45,0,0,1-.68.42l-.07-.08A5.44,5.44,0,0,0,26.52,33.23Zm0,.26a.06.06,0,0,0,.07.06l.18,0-.25,0a.07.07,0,0,0-.06.09h0l-.49.37-.11-.14A5,5,0,0,0,26.48,33.49Zm-.86-2.39h0a7.63,7.63,0,0,0,.49.69h0Zm-2.86-4h0Zm.37,1.11-.08,0,.06-.1s0,0,0,0L23.3,28A1.71,1.71,0,0,1,23.13,28.17ZM23,28.1a1.63,1.63,0,0,1-.1.17,1.55,1.55,0,0,1-.29.07l.31-.21Zm-.62.72.16-.08.11-.06-.29.21L22,29Zm-1.46,1.09.45.61-.4.21a0,0,0,0,0,0,0l.42-.2.07.09c-.17.09-.34.18-.53.25l-.53-.73Q20.68,30.06,20.94,29.92Zm.56.76.19.26c-.09,0-.16.1-.25.13a0,0,0,0,0,0,0L21.7,31l.25.35-.55.21-.44-.6C21.15,30.86,21.32,30.76,21.49,30.68Zm-.14.86-.32.12-.46-.6.35-.13Zm0,0c.45.61.88,1.23,1.33,1.84l-.34.07c-.44-.6-.87-1.2-1.31-1.79Zm1.17,1.53a3,3,0,0,0,.91-.25h0a0,0,0,0,0,0,.05l.2.23a5.58,5.58,0,0,1-.93.27Zm1-.27a3.51,3.51,0,0,0,1-.41l.13.17-.14.11a1.07,1.07,0,0,1-.21,0s0,.08,0,.08h.07a4.61,4.61,0,0,1-.6.31Zm1,.2a.06.06,0,0,0,.06.05A1.88,1.88,0,0,0,25,33v0a3.15,3.15,0,0,1-.92.31s0,.06,0,.05a3.21,3.21,0,0,0,1-.32l.15.19a5.9,5.9,0,0,1-.91.43l-.44-.52A3.13,3.13,0,0,0,24.58,33Zm.65.29.13.16a4.34,4.34,0,0,1-.88.46l-.17-.2A5.64,5.64,0,0,0,25.24,33.31Zm.15.18.22.27a5.06,5.06,0,0,1-1,.36l-.16-.18A4.38,4.38,0,0,0,25.38,33.49Zm.25.3.07.08c-.29.15-.58.28-.89.42h0l-.14-.16A5,5,0,0,0,25.63,33.8Zm.11.13.12.15a4.52,4.52,0,0,1-.5.32s0,.07,0,.06a5.42,5.42,0,0,0,.53-.31l.07.08a4.3,4.3,0,0,1-.87.46l-.27-.34C25.14,34.2,25.44,34.07,25.74,33.92Zm.28.34h0s.1,0,.06,0a3.36,3.36,0,0,0,.67-.58,1.17,1.17,0,0,0,.27-.11l.19.22-.12.08h-.15l.16-.15s0-.06,0,0l-.15.14-.07,0h0s0,0,0,0l-.37.35-.27.16s0,.07,0,.07,0,.06,0,0l.17-.16.36-.23h.17a3.47,3.47,0,0,1-1.56,1l-.27-.37A4.44,4.44,0,0,0,26,34.27Zm-.56.9.17-.06-.16.08ZM27,34.1s0,0,0,0a1.08,1.08,0,0,0,.29-.12,5.82,5.82,0,0,1-.9.68A7,7,0,0,0,27,34.1Zm.65.29h0l0,0h0Zm-.07,0h-.06l0,0Zm-.41,0s0,0,0,0h0s0,0,0,0h-.1Zm-.14.14s0,0,0,0a1.33,1.33,0,0,0,.2,0l-.06.05h-.29Zm.65,0,.07,0,0,0h-.09Zm.17.07h0l.13.12-.08,0-.14-.16Zm1,1.46.07.08-.29,0Zm.5.48h-.07l.05,0Zm.15.34,0,0-.18,0Zm.89,1.17,0,0-.16,0Zm.33.44h0s0,0,0,0h-.09Zm.21.06h-.07s0,0,0,0Zm-1.33-2-.12-.15h0l.1.11Zm-2-2.62,0,0h0l0,0s0,0,0,0ZM27,33.31h0Zm0-.3h0v0Zm0,0-.06-.06h0L27,33Zm-.09-.09-.09-.14-.08-.13h0l.19.26Zm-.21-.33-.07-.11a.07.07,0,0,0-.05,0v0l0,0,.13.19Zm-.16-.19-.3-.42h0c0,.05.08.11.12.16h0l.16.24ZM24.87,30,24.81,30h0l.06.08S24.88,30,24.87,30Zm-1.8-2.74L22.88,27l0,0,.22.33A.05.05,0,0,0,23.07,27.31Zm-.2-.32v0s0,0,0,0l-.1-.15,0,0,.12.18Zm-.18-.3-.12-.18h0l.12.18Zm-.75-1.14v0h0l0,0ZM22.45,27a.47.47,0,0,1,0,.07h0Zm0,0,0,0,0,0h0l.09-.1a0,0,0,0,0,0,0l0,0,0,.06-.11.08a.52.52,0,0,0,.12-.07l.08.13v0a1.49,1.49,0,0,1-.31,0A.64.64,0,0,0,22.47,27Zm.22.21a.67.67,0,0,1,0,.07l-.11.09.12-.16Zm.06.46.13-.06a.5.5,0,0,1-.23.15Zm-2.34,2s0,0,0,0l.22-.08.08.11-.22.12s0,0,0,0l.23-.12.12.17-.45.25-.06,0-.32-.43a0,0,0,1,0,0,0l.31.43-.37.14-.67-.87L20,29Zm-.35.65h0s0,0,0,0l.22-.12.1,0,.53.73-.35.13L20,30.32Zm.47.75-.24.09c-.14-.16-.27-.33-.41-.49s-.07,0,0,0,.26.32.39.47l-.27.1-.2-.25a.14.14,0,0,0-.07,0l-.36-.5a4.11,4.11,0,0,0,.66-.14Zm4.95,8.28-.07-.12.76,1.08Zm5.68,5.44,0,0-.05-.06.17-.11Zm.16-.18.11-.06-.16.15Zm-.23.76c.06-.1.13-.19.2-.28l.17.22a3.45,3.45,0,0,0-.17.38L31,45.23c.05-.12.12-.22.18-.34l.14.17c-.07.1-.14.18-.2.29Zm1.72.74-.11.3h0s-.06,0-.06,0l0-.08Zm.81,3.69s0,0,0,0l-.06,0-.1-.12.14.07Zm-2.87-4.62.06-.06.1.13a3.84,3.84,0,0,0-.22.68c-.13-.15-.26-.3-.38-.46h0a3.91,3.91,0,0,0,.45-.42l.06.07-.06.06S30.74,45.17,30.75,45.17ZM32.08,47l0,0c0,.07,0,.14,0,.22v0s-.08,0-.07,0l.05.21,0,.14-.12-.17c0-.11.06-.23.1-.34ZM30.72,46c.13.13.25.27.37.41s0,.07,0,.1-.18-.22-.26-.32l-.11-.16Zm0,0,0-.07,0,.05Zm.5.53.09.11,0,.08-.09-.12,0-.08Zm.34.54-.28-.34,0-.08.1.12.13.21S31.51,47,31.52,47.07Zm.09.11v0l.08.13Zm.5.53h0Zm-1-1.21h0Zm1.34,1.2a2.61,2.61,0,0,1-.13.35l-.08-.09a4.69,4.69,0,0,0-.13-.51h0l.1-.21.26.39Zm-.61-.33,0,0,.06-.09Zm-.7-.86v0l0,.07Zm0,0h0s0,0,0,0l0,0ZM30.73,46v0l.19.24Zm0,0-.07-.07h0l-.26-.38c.11.14.22.28.34.41Zm1.71,2.13.06-.12a1.73,1.73,0,0,0,0,.22Zm.2-1.35h0v0Zm0,0-.06-.09.12-.24c0,.08,0,.17,0,.25Zm0,.07c-.06.14-.1.29-.17.44h0c.06-.14.11-.29.16-.43l0,0c0,.22,0,.44-.08.65l-.23-.35.21-.44Zm-.38.19c0-.07,0-.14,0-.21l0-.07-.05.3Zm-.08-.12,0-.1v0Zm-.14.22-.13.2-.23-.33v-.06s0,0,0,0a2.39,2.39,0,0,1,.06-.58l.38.59Zm-.46-.26-.18-.26c.06-.15.13-.29.2-.44l.06.09A2.32,2.32,0,0,0,31.5,46.81Zm-.19-.27-.1-.14c.06-.16.12-.31.19-.46l.11.16C31.44,46.25,31.37,46.39,31.31,46.55Zm-.12-.17,0,0a3.61,3.61,0,0,1,.14-.55l.09.13C31.31,46.07,31.25,46.22,31.19,46.38Zm-.07-.1,0-.06s-.05,0,0,0l.06.1v.06h0L30.73,46a3.8,3.8,0,0,1,.21-.68l.31.45A3.32,3.32,0,0,0,31.12,46.28ZM32.69,48s0-.06,0-.09l0,0Zm0,.13-.06.19h0a2.85,2.85,0,0,1,0-.55l0,0,.08.12A2.48,2.48,0,0,0,32.65,48.12Zm-.07-.62,0-.16c0-.12,0-.25.06-.37l.09.13-.19.48ZM32.21,47l.06-.3.09-.14.05.07Zm.08-.43,0-.09,0,0Zm0-.18v-.07a7.52,7.52,0,0,1,.59-1,8.81,8.81,0,0,1-.56,1.13Zm0,.07,0,.15-.05.09,0-.15,0-.11Zm-.13.12-.1.27-.39-.59a3.86,3.86,0,0,1,.15-.45l.38.52C32.19,46.38,32.17,46.46,32.16,46.54Zm-.56-.42-.05-.07c.07-.12.13-.25.21-.37h0A3.77,3.77,0,0,0,31.6,46.12ZM31.55,46l-.11-.16c.06-.13.12-.25.19-.37l.13.16C31.68,45.79,31.61,45.92,31.55,46Zm-.13-.19-.09-.13c0-.13.1-.27.17-.39l.12.16C31.54,45.6,31.48,45.73,31.42,45.85Zm-.48-.66-.09-.11c.08-.08.17-.15.26-.23h0C31.05,45,31,45.08,30.93,45.19Zm.19-.36h0v0Zm0,0c-.08.08-.18.15-.26.23L30.78,45l.13-.14.13-.09Zm-.32.15,0,0,.12-.08Zm.16-.17h0l-.18.12-.11-.14.2-.27.19.22ZM30.7,45l-.35.24s0,0,0,0l.35-.24,0,0a4,4,0,0,1-.45.42l-.07-.1.38-.5Zm2.86,4.58,0,0a.09.09,0,0,0,0,0,3.45,3.45,0,0,1-.12-1.23A7.05,7.05,0,0,0,33.56,49.55ZM30.24,37.23l.11.13h0Zm-1.6-2.08a0,0,0,0,0,0,0h-.08L28.41,35h.08ZM28,34.46s0-.08,0-.06h0l-.08-.09h0l.33.37-.06,0Zm-.92-1h0Zm-3.05,3.9,0,.07-.48-.67Zm8.62,15.34a1.5,1.5,0,0,1,.57-.14A2.42,2.42,0,0,0,32.67,52.66Zm7.52-3.22c0,.17.05.34.07.5h0A9.23,9.23,0,0,1,40,53.76a.13.13,0,0,0-.05.12s0,0,0,.06v0a6.43,6.43,0,0,1-.27.59l-.06.11c-.05.09-.12.18-.17.27s0,0,0,0-.05.08-.08.12q.13-.26.24-.54a4.73,4.73,0,0,0,.57-1.88s-.06-.06-.07,0a4.3,4.3,0,0,1-.07.43,4.29,4.29,0,0,0,.05-.44,0,0,0,0,0,0,0l0-.13s0,0,0,0l0,.11s0-.08,0-.11a0,0,0,0,0,0,0c0-.16,0-.32,0-.48a0,0,0,0,0,0,0v0s0,0,0,0a5.26,5.26,0,0,0,0-1.09,0,0,0,0,0-.05,0,10.76,10.76,0,0,1-.19,2.11,0,0,0,0,0,.08,0c0-.06,0-.12,0-.18,0,.13,0,.25,0,.38-.09.31-.2.61-.32.9s-.18.42-.27.63l-.23.38a4.44,4.44,0,0,0,.21-.55l.15-.26s0,0,0,0l-.08.13a4.63,4.63,0,0,0,.5-1.82h0a4.63,4.63,0,0,1-.45,1.64c0-.07,0-.14,0-.21a2.64,2.64,0,0,0,.12-.57l.05-.09s0,0,0,0a2.39,2.39,0,0,0,0-.65s-.08,0-.08,0a2.41,2.41,0,0,1,0,.82c-.1.22-.22.43-.34.64a5.68,5.68,0,0,1-.67.68l.14-.31.1-.11a0,0,0,0,0,0,0l-.05.06h0c.07-.14.15-.28.22-.43s-.06-.09-.08,0c-.14.31-.3.6-.47.89-.11.12-.2.24-.31.36l-.22.14a0,0,0,0,0,0,0l.17-.1a6.91,6.91,0,0,1-.86.75s0,0,0,0a6.7,6.7,0,0,0,1-.87c-.1.15-.19.31-.29.45s0,.1.07.06c.15-.2.28-.41.41-.62l0,0a6.37,6.37,0,0,1-.87,1.37,4.25,4.25,0,0,1-.62.17h0a3.93,3.93,0,0,0,.57-.12,3.53,3.53,0,0,1-.29.31s0,0,0,0a13.33,13.33,0,0,1-1.73.88s0,0,0,0a8.65,8.65,0,0,0,2.44-1.22,0,0,0,0,0,0-.06l-.62.36a3.35,3.35,0,0,0,.36-.36,2.41,2.41,0,0,0,.45-.21,2.29,2.29,0,0,1-.26.22s0,0,0,0a2.35,2.35,0,0,0,.34-.27,2.12,2.12,0,0,0,.31-.26c-.08.13-.16.26-.26.39s0,0,0,0l.2-.3a1.77,1.77,0,0,1-.29.51,4,4,0,0,1-.45.36,0,0,0,0,0,0,0c.12-.07.22-.16.33-.24l-.12.14s0,0,0,0,.14-.16.2-.24l.05,0-.27.31a3.09,3.09,0,0,1-1.55.59s0,0,0,0a3,3,0,0,0,.56-.1l-.22.06h0a2.86,2.86,0,0,0,1.49-.67,4.33,4.33,0,0,1-.64.56s0,0,0,0a4.34,4.34,0,0,0,.59-.49s0,0,0,0l.09-.07h0l0,0a4.74,4.74,0,0,0,1.42-1.4,5.79,5.79,0,0,1-.86,1.2,6.21,6.21,0,0,1-1.21.89s0,0,0,0l-.27.09s0,0,0,0l-.47.19H36.5a5.66,5.66,0,0,1-2.16,0,3.62,3.62,0,0,1-2.42-2.08,2.57,2.57,0,0,1-.19-.83,1.8,1.8,0,0,1,.06-.56s0,0,0,0a4.87,4.87,0,0,1,.25-.59,1.53,1.53,0,0,1,.5-.56,2.68,2.68,0,0,1,1.73-.29,2.17,2.17,0,0,1,.76.27l0,0,.36.35h0l.08.1h0a2.11,2.11,0,0,1,.34,1.82c-.39,1.64-2.37,1.14-2.86-.11a3,3,0,0,1,.73.21,1.75,1.75,0,0,0,.63.11.67.67,0,0,0,.73-.37c.75-1.6-2.78-2.1-2.63-.38a0,0,0,0,0,0,0l.06.23a1.6,1.6,0,0,0,.2.52,1.28,1.28,0,0,0,.28.41c1,1.25,3,1.26,3.38-.7a2.13,2.13,0,0,0,0-.62.08.08,0,0,0,0-.06c-.07-1.16-1.08-2.14-2.07-2.91a15.15,15.15,0,0,0-1.19-1.23,58.31,58.31,0,0,1-5.74-7.87q1.19,1.61,2.43,3.17A15.72,15.72,0,0,0,32,48.53a5.05,5.05,0,0,0,.63.7c.45.53.9,1.07,1.36,1.59h0l0,0s0,0,0,0a6.07,6.07,0,0,0,.47.55c1.9,2.37,5.71,1.71,5.29-2-.05-.45-1.06-2.74-1.95-2.53a1,1,0,0,0-.33-.08l-.11,0-.08,0s0,0,0,0a2,2,0,0,0-2.49,2.48c.42,1.36,2.36,3.28,2.93,1a5.59,5.59,0,0,0-.2-2.15q1.47-.69,1.74.85a2.44,2.44,0,0,1-2.46,3.55,3.25,3.25,0,0,1-2.38-1.77s0,0,0-.05l0,0a6,6,0,0,1-.59-3.74c.59-3.1,3.58-1.62,5.18,0A14.23,14.23,0,0,1,40.19,49.44Zm-2,5.42,0,0h0Zm-1.07,2.28-.2.09Zm0-9.06a14.73,14.73,0,0,1,0,1.88c-.12,1-1.07.63-1.41-.05a2.86,2.86,0,0,1-.21-.62,8.64,8.64,0,0,1-.06-.89c.07-.92,1-1.1,1.73-1.11A2.93,2.93,0,0,0,37,48.08Zm.16,2.65a.16.16,0,0,0-.08,0h0a.8.8,0,0,0,.17-.21A1.1,1.1,0,0,1,37.21,50.73Zm-5-10.92a.25.25,0,0,0,.06-.06c.7.82,1.42,1.63,2.15,2.43C33.69,41.43,32.94,40.63,32.24,39.81Zm-.07-.08-.23-.26.06,0s0,0,0,0l-.07,0,0,0,.05,0s0,0,0,0l.3.37ZM31.56,39l-.07-.09h0a0,0,0,1,0,0,0h0l-.13-.16.08,0h0l.24.3Zm-.32-.4-.17-.21.06-.05.2.25ZM31,38.28l-.11-.15h0l0,0,.14.17Zm-.57-.78,0-.05s0,0,0,0l.11.13Zm-2-2.62h-.09l-.1-.13.07,0,.05.06Zm-.8-1.06h0a0,0,0,0,0,0,0v0l0,0Zm-.12-.06-.14-.19.08.09a0,0,0,0,0,.07,0l0,.06ZM1.26,1.14l.26-.3A3.89,3.89,0,0,1,2,.68,3.29,3.29,0,0,0,1.26,1.14ZM.7,1.75l0,.07v0l0,0Zm-.3.41a.11.11,0,0,0-.07,0,1.2,1.2,0,0,0-.08.19A1.75,1.75,0,0,1,.4,1.83C.39,1.95.4,2,.4,2.15ZM14.73,27.64l-.24-.37A59.48,59.48,0,0,0,6.57,15.63l-.08-.11a.11.11,0,0,0,0-.06C5.88,14.28,2.31,10.58,1,7.86l.36-.32,0,0a1.67,1.67,0,0,0-.11.19h0a1.7,1.7,0,0,1,.11-.19l.18.25-.27.13h0l.27-.13,0,.05A1.61,1.61,0,0,1,1.19,8s0,0,0,0a1.63,1.63,0,0,0,.46-.18L1.77,8a1.88,1.88,0,0,0-.22.38,0,0,0,1,0,0,0,1.82,1.82,0,0,1,.21-.37,3.92,3.92,0,0,0-.27.6s0,0,0,0a3.71,3.71,0,0,1,.29-.58l.09.12a2.21,2.21,0,0,0-.17.3h0a2.38,2.38,0,0,1,.17-.3l0,0s.1,0,.07,0l-.06-.08a4.12,4.12,0,0,1,.31-.41s0,0,0,0a4.06,4.06,0,0,0-.31.41L1.86,8l.07-.11a1.32,1.32,0,0,1,.14-.14,0,0,0,0,0,0,0L2,7.82l.19-.3.08.11a0,0,0,0,0,0,0L2.2,7.47s0,0,0,0L1.9,7,2,7l.49.71h0l.44.67a2.55,2.55,0,0,1-.31.22l.18-.33s0,0,0,0l-.2.37-.31.13.18-.31a1.26,1.26,0,0,0,.3-.25s0,0,0,0a1.23,1.23,0,0,1-.26.22l.1-.18s0-.05-.05,0l-.17.3a1.51,1.51,0,0,1-.45.16s0,0,0,0a1.54,1.54,0,0,0,.44-.15l-.18.28,0,0s0,0,0,0h0a3.66,3.66,0,0,1-.23.32s0,.07,0,0a4,4,0,0,0,.29-.4,2.22,2.22,0,0,0,.31-.13l-.34.62s0,0,0,0l.36-.66a2.44,2.44,0,0,0,.36-.23l.1.16a1.78,1.78,0,0,1-.48.15h0A2,2,0,0,0,3,8.59l.08.12a4.8,4.8,0,0,0-.4.45l-.14.07s0,0,0,0l.12-.06a2.93,2.93,0,0,0-.34.52,0,0,0,1,0,0,0,2.58,2.58,0,0,1,.28-.4.94.94,0,0,0,.53-.43l0,0,1.26,1.89-.53.59h0l.53-.58.65,1a1.56,1.56,0,0,1-.54.26s0,.06,0,.06a1.4,1.4,0,0,0,.55-.28c.32.48.64,1,1,1.44a0,0,0,0,0,.05,0L4.52,10.71l.14-.15q1.19,1.77,2.4,3.53c.15.24.3.48.45.73.57,1,1.18,1.94,1.8,2.88l-.15.08-2.05-3,.19.22c.27.39.53.78.81,1.17,0,0,.07,0,.05,0-.44-.67-.89-1.33-1.37-2l.12-.06,1,1.52s.07,0,0,0l-1-1.52,0,0s0,0,0,0l0,0C6.15,13,5.38,11.84,4.64,10.68c0,0,0,0,0,0C5.34,11.86,6.1,13,6.87,14.13l-.12.06a13.89,13.89,0,0,0-1.23-1.44s0,0,0,0a13.73,13.73,0,0,1,1.18,1.45h0l-.06-.09s-.06,0,0,0l.06.08-.41.13s0,0,0,0l.41-.14.26.38a.65.65,0,0,1-.43.09s0,0,0,0a.75.75,0,0,0,.45-.1Q8,16.24,9.08,17.81l-.11,0L8,16.6a0,0,0,0,0,0,0c1.2,1.57,2.44,3.11,3.65,4.68a7.52,7.52,0,0,0-.52-.55s-.07,0,0,0a9.15,9.15,0,0,1,.62.73h0l.07.08c.6.79,1.11,1.65,1.72,2.42a.07.07,0,0,0,.12-.05c.71.89,1.41,1.78,2.08,2.71,0,0,.08,0,.06,0-.18-.26-.37-.51-.56-.76.79,1,1.56,2,2.33,3,0,0,0,0,0,0l1.79,2.48c-.82-1-1.66-2.07-2.57-3l-1.12-1.47s-.09,0-.06,0l.75,1-.21-.24c-.7-.92-1.4-1.84-2.08-2.77a0,0,0,0,0,0,0c.46.68.95,1.33,1.43,2,0,0-.06,0,0,0l.41.47c.56.75,1.13,1.49,1.67,2.25,0,0,.1,0,.07,0-.14-.21-.3-.41-.45-.62.44.57.87,1.14,1.31,1.7l.53.73a0,0,0,0,0,0,0l-.44-.62s0,0,0,0l-.78-1-.22-.3c.91,1.11,1.76,2.27,2.7,3.37a.07.07,0,0,0,.08,0l3.14,4.44a18.26,18.26,0,0,0-2.11-2,0,0,0,0,0,0,0,19.36,19.36,0,0,1,2.36,2.26l.15.21c-.12-.11-.23-.22-.36-.32h0c.14.11.27.23.39.35l2,2.74a55.59,55.59,0,0,0,8.13,11.61c-1.22-.39-2.53.89-2.87,2.15-2.24-2.42-3.49-5.75-5.37-8.45l-.34-.68c-1.41-2.76-3.12-5.34-4.68-8q-.5-.95-1-1.87c-.11-.2-.23-.4-.34-.61a.07.07,0,0,0-.06,0c-1-1.69-2.12-3.32-3.24-5C15.58,29,15.16,28.3,14.73,27.64Zm-8-13.39h0l.41.57-.2-.23Zm33.85,41,0,.07h0ZM9.5,3.4a11.32,11.32,0,0,0-1-1.15l.09.06s0,0,0,0l-.28-.19A7.76,7.76,0,0,0,6.46.8l.23.08A6.92,6.92,0,0,1,9.5,3.4ZM1.09,1.07a2.33,2.33,0,0,0-.28.31,1.75,1.75,0,0,0-.18.25v0a.1.1,0,0,0-.06-.08A2,2,0,0,1,1.09,1.07Zm34.7,57.32h.08l.37,0-.07,0A2.83,2.83,0,0,1,35.79,58.39Zm3.73-1.81v0s.06,0,.09,0,.09-.1.14-.15Z"/><path d="M12.88,9.62l-.39.07s0,0,0,0l.39,0S12.92,9.61,12.88,9.62Z"/><path d="M12.85,9.8s0,0,0,0h.21s0,0,0,0S13,9.78,12.85,9.8Z"/><path d="M4.68,2.84l-.12,0Z"/><path d="M4.43,2.89h0Z"/><path d="M4.78,2.78l-.1.06.11-.05Z"/><path d="M29.64,38.75a27.65,27.65,0,0,0,2.28,2.7s.11,0,.07,0c-.76-.9-1.6-1.74-2.3-2.68C29.66,38.69,29.62,38.72,29.64,38.75Z"/><path d="M28.36,35.59s0,0,0,0,0,0-.06,0,0,0,0,0h.06Z"/><path d="M28,35.68a2.89,2.89,0,0,1-1,.46s0,0,0,0a2.55,2.55,0,0,0,1.07-.42S28.07,35.66,28,35.68Z"/><path d="M16.74,28.18a21.07,21.07,0,0,0-2-2.57s0,0,0,0a20.65,20.65,0,0,1,2,2.58S16.75,28.2,16.74,28.18Z"/><path d="M3.62,9.56A1.23,1.23,0,0,1,3,9.9l.49-.34a0,0,0,0,0,0,0l-.58.4s0,0,0,0a1.11,1.11,0,0,1-.3,0s0,0,0,0a1.15,1.15,0,0,0,.3,0,0,0,0,0,0,0,0l0,0a1.24,1.24,0,0,0,.66-.37S3.63,9.54,3.62,9.56Z"/><path d="M2.89,8.8h0c-.11.05-.23.07-.34.13h0C2.66,8.88,2.78,8.86,2.89,8.8Z"/><path d="M7.23,15.85h0Z"/><path d="M27.84,46c-.81-1.18-1.64-2.37-2.33-3.62h0a33.87,33.87,0,0,0,2.29,3.66S27.87,46.08,27.84,46Z"/><path d="M27.58,45.16l.26.36c.32.49.64,1,1,1.46,0,0,0,0,.05,0,.59.83,1.18,1.66,1.84,2.44,0,0,.09,0,.06,0l-.1-.13c.67.75,1.33,1.5,2,2.23,0,0,.06,0,0,0Q31.51,50,30.26,48.68q-1-1.24-1.87-2.5a37,37,0,0,1-2.49-4.33s-.09,0-.07,0a28.47,28.47,0,0,0,1.77,3.26S27.57,45.14,27.58,45.16Z"/><path d="M32.08,45.54a5,5,0,0,1,1.43-1.63,0,0,0,0,0,0,0,5,5,0,0,0-1.44,1.64A0,0,0,0,0,32.08,45.54Z"/><path d="M25.5,38.53l2.71,3.9s0,0,0,0l-2.7-3.91S25.49,38.52,25.5,38.53Z"/><path d="M24.63,35.71a53.35,53.35,0,0,1,5.89,8.54s0,0,0,0a53.29,53.29,0,0,0-5.92-8.52Z"/><path d="M30,42.87a72.28,72.28,0,0,0-5.92-8.52s0,0,0,0A77.25,77.25,0,0,1,30,42.9S30.07,42.9,30,42.87Z"/><path d="M19.18,28.37A132.53,132.53,0,0,0,10.86,17s0,0,0,0c3,3.59,5.61,7.51,8.28,11.38A0,0,0,0,0,19.18,28.37Z"/><path d="M25,35.9a2.47,2.47,0,0,1,.74.77h0A2.43,2.43,0,0,0,25,35.9Z"/><path d="M27.34,46a59.06,59.06,0,0,0-4-7.07.06.06,0,0,0-.1.07,76.13,76.13,0,0,1,4,7S27.36,46.08,27.34,46Z"/><path d="M26.35,45c1.13,1.36,2.17,2.79,3.43,4,0,0,0,0,0,0-1.26-1.25-2.3-2.68-3.44-4Z"/><path d="M28.17,46.73a36.51,36.51,0,0,0,2.54,3.38s.06,0,0,0a36.34,36.34,0,0,1-2.55-3.37S28.16,46.71,28.17,46.73Z"/><path d="M25.27,40.61c-.43-.63-.87-1.25-1.32-1.87h0l-1.4-2s0,0,0,0l.83,1.21c-.6-.82-1.22-1.63-1.87-2.41h0c1.32,1.65,2.51,3.39,3.73,5.12C25.25,40.66,25.29,40.64,25.27,40.61Z"/><path d="M21.6,28.36a2.67,2.67,0,0,0,1.2-1s0-.08,0,0a3.1,3.1,0,0,1-1.17,1A0,0,0,0,0,21.6,28.36Z"/><path d="M21.28,25.92h-.08S21.21,25.92,21.28,25.92Z"/></svg>