<svg id="Layer_1" data-name="Layer 1" xmlns="http://www.w3.org/2000/svg" viewBox="0 0 25.48 21.63"><defs><style>.cls-1{fill:#231f20;}</style></defs><title>ilustracije_razmerje</title><path class="cls-1" d="M25.3,1.61a2.9,2.9,0,0,0,.17-.67c.25-2.4-4.83.55-5.17.75-1.92,1.14-3.75,2.47-5.65,3.66a18.49,18.49,0,0,1-4.8,2.31,4.51,4.51,0,0,1-3.09-.29l-1-.47c-.85-.47-1.66-1-2.49-1.46C1.88,4.7.84,4.83.49,5.39l-.1.06C-.34,6,.65,7,1.08,7.38a7.29,7.29,0,0,0,1.26.93l.54.34h0c-2.07,2.25-4,5.49-2,8.39,1.65,2.41,5.46,2.14,7.73.83a4.65,4.65,0,0,0,0,1.95c.18.7.74,1.65,1.56,1.66,1.21,0,1.63-2.82,2-5a8.47,8.47,0,0,1,1.49-3.44,28.46,28.46,0,0,1,3.08-2.93c1.5-1.2,3.1-2.32,4.52-3.52l.46-.39h0C23.16,5,24.82,3.52,25.3,1.61ZM2.11,6l.12,0s0,0,0,0L2.11,6s0,0,0-.07A7.68,7.68,0,0,1,5,7.3s.05,0,0,0a6.56,6.56,0,0,0-2.93-1.4.56.56,0,0,1,0-.13,3,3,0,0,1,.74.33s0,0,0,0a2.3,2.3,0,0,0-.74-.34v0a5.34,5.34,0,0,1,1.5.65A14.22,14.22,0,0,0,7.38,8.16a.16.16,0,0,0,.08,0,5.46,5.46,0,0,0,1.27.22l-.49.11L7.94,8.4s0,0,0,0l.2.07h0l-.27,0h0l.26,0-.31.07-.33,0c-.05-.06-.09-.12-.15-.18a0,0,0,0,0,0,0l.12.15h0s0,0,0,0h0a6,6,0,0,1,.46.6l-.3-.11L7.4,8.89s0,0,0,0l.16.19a18.53,18.53,0,0,1-4.46-2.8s0,0,0,0A17.9,17.9,0,0,0,7.6,9.15a8.43,8.43,0,0,1,.87,1.18h0c.15.33.28.66.4,1,0,0,0,0,0,0a9.7,9.7,0,0,0-.93-2l.35.09A19.65,19.65,0,0,1,11,13.88s0,0,0,0A18.22,18.22,0,0,0,8.41,9.39l.29.07s0,0,0,0l-.34-.09L8.3,9.27s-.06,0,0,0h0l-.34-.09a5.58,5.58,0,0,0-.45-.6,5.43,5.43,0,0,0,1.31.28h0l.49,0L9.36,9l.14.18-.17.06a0,0,0,0,0,0,0l.19-.06a3,3,0,0,1,.23.32l-.14.05a0,0,0,0,0,0,0l.15,0a2.93,2.93,0,0,1,.27.62h0a3,3,0,0,0-.26-.63h0a4.12,4.12,0,0,1,.54,1.19,0,0,0,0,0,.06,0,3.1,3.1,0,0,0-.53-1.2l.06,0a6,6,0,0,1,.44.81h0a6,6,0,0,0-.44-.81l.36-.12a4,4,0,0,1,.81,1.5s0,0,0,0a4,4,0,0,0-.79-1.51l.36-.12a1.57,1.57,0,0,1,.13.16s0,0,0,0a1.52,1.52,0,0,0-.13-.15l.3-.12,0,0h0s0,.05,0,0h0c.2.28.38.58.56.88,0,0,0,0,0,0l0-.07a5.52,5.52,0,0,1,.87,1.39l-.05,0h0l.05,0h0s0,0,0,0h0c.62-.52,1.26-1,1.9-1.5l.21.34c-.55.41-1.1.83-1.66,1.23h0c.56-.4,1.11-.82,1.66-1.23l.19.32s0,0,0,0l-.19-.33.23-.17a3.25,3.25,0,0,1,.24.74h0a3.27,3.27,0,0,0-.24-.75q1.66-1.24,3.3-2.51c.06.16.11.32.16.49L18,8.16s0,0,0,0L18.31,8l0,.15C17.19,9.14,16,10.05,14.82,11s-2.8,2.25-3.2,3.76c-.1.39-.3,2.48-.72,4.05l0,0v0s0,0,0,0l0,.05-.15.11c0-.05,0-.1,0-.15l0,0h0a27.71,27.71,0,0,0,.71-4.25s0,0,0,0a30.06,30.06,0,0,1-.69,4.25h0l-.12.13c0-.07,0-.14.06-.21a4.87,4.87,0,0,0,.19-3.34,0,0,0,0,0,0,0,4.93,4.93,0,0,1,.16,2,6.78,6.78,0,0,0-.28-1.4c0-.19.05-.38.08-.57,0,0,0,0,0,0,0,.17-.05.34-.08.51a6,6,0,0,0-.2-.59s0,0,0,0a5.77,5.77,0,0,1,.21.61l0,.1h0s0,0,0,0,0,.07,0,.11c-.14,1-.23,2-.46,2.93.06-.62.07-1.25.18-1.87,0,0,0-.05-.06,0a16.11,16.11,0,0,0-.18,1.92l-.07,0a17,17,0,0,0,.18-2.22s0,0,0,0a20.51,20.51,0,0,1-.18,2.2.47.47,0,0,1-.14-.15l0-.07c0-.05,0-.1,0-.15s.11-.25.15-.37,0,0,0,0l-.09.22q0-.36.06-.73t.08-.56s0,0,0,0v-.07c0-.36.07-.71.1-1.05,0,0,0,0,0,0,0,.27-.07.54-.11.81v-.22s0,0,0,0a3.43,3.43,0,0,0-.21-.61,9.87,9.87,0,0,0-.1-1s-.07,0-.07,0,0,.29,0,.44c0,0,0-.06,0-.09s0,0,0,0h0c0-.11-.1-.22-.16-.33h0a3.24,3.24,0,0,1,.18.36c0,.08,0,.15,0,.23s0,.1,0,.16a2.2,2.2,0,0,0-.17-.26,2.43,2.43,0,0,0-.67-1,2.69,2.69,0,0,0-.3-.34A2.19,2.19,0,0,0,7.55,14s0,0,0,0h-.1L7,13.88a3.26,3.26,0,0,1-.79-.4l-.06-.08.12,0,0,0s0,0,0,0h0a.87.87,0,0,0,.75.17,0,0,0,0,0,0,0,1,1,0,0,1-.67-.12,2.13,2.13,0,0,0,.55.05s0,0,0,0a2,2,0,0,1-.65-.09l-.06-.06L6.05,13a.68.68,0,0,1,0-.1.68.68,0,0,0,.15.2s0,0,0,0a.74.74,0,0,1-.16-.23l0-.06a1.47,1.47,0,0,0,.46.61s0,0,0,0a1.61,1.61,0,0,1-.46-.62.89.89,0,0,1,0-.1s0,0,0,0a.85.85,0,0,0,0,.09c0-.05-.05-.1-.07-.15a1.9,1.9,0,0,1,.28-.93s0,0,0,0a1.51,1.51,0,0,0-.18.39l0-.1s0,0,0,0l0,.08a1.09,1.09,0,0,0,0-.4A2.43,2.43,0,0,0,5.7,10s-.06,0,0,0a4,4,0,0,1,.24.54c-.61-1.37-2-2.05-3.37-2.84A5.2,5.2,0,0,1,2.11,6ZM18.37,8.19l0-.15c.15-.07.3-.13.45-.21v0Zm-6.86,1.7-.14-.24h0a2,2,0,0,0-.21-.45l.21-.11,0,.06-.15.05a0,0,0,0,0,0,0l.15-.05a3.28,3.28,0,0,1,.36.65h0a3.27,3.27,0,0,0-.33-.66l.16-.05.22.34-.13.1s0,0,0,0l.13-.1c.13.23.26.46.37.7h0c-.11-.24-.24-.48-.37-.7l.29-.21a5.07,5.07,0,0,1,.29.46h0a5.27,5.27,0,0,0-.29-.46l.12-.08.05.07,0,0a3.45,3.45,0,0,1,.24.43l-.06,0s0,0,0,0l.05,0,.09.18s.05,0,0,0l-.09-.19.46-.26,0,0h0l0,0h0a2.64,2.64,0,0,1,.15.3h0a2.7,2.7,0,0,0-.15-.3l0,0a5,5,0,0,1,.39.66h0a5.09,5.09,0,0,0-.39-.66l.06,0a3.94,3.94,0,0,1,.5,1s0,0,0,0a4.07,4.07,0,0,0-.49-1L13.79,9c.2.27.39.55.56.83-.64.49-1.27,1-1.89,1.51a5,5,0,0,0-.95-1.49Zm-2.76-1,0,0L9,8.74l.29,0,.1.11H9.3v0s0,0,0,0ZM7.43,8.57l.31,0h0s0,.07,0,.06L8,8.6h.42l.08,0,.2.17h0s0,0,0,0h0l0,0a5.26,5.26,0,0,1-1.29-.27Zm12.1-5.47h.07l-.09.05,0,0S19.53,3.11,19.53,3.09Zm1.18-.74h0l-.18.13c-.18.07-.36.17-.54.26C20.24,2.62,20.47,2.48,20.71,2.36Zm2.2-1.24.06,0-.11,0h0s0,0,0,0Zm-.57,3.6-.4.35q.28-.35.53-.71h0l-.08.09s0,0,0,0l.06-.06c0,.06,0,.12,0,.18ZM16.08,8.55l-.66.5-.26-.57.36-.23c0,.05.08.1.11.15a0,0,0,0,0,.06,0,1,1,0,0,0-.07-.19h0l0,0s.08,0,.06,0l0,0q1-.64,1.91-1.32l0,.08h0l0-.08,0,0c0,.08.05.15.07.23a0,0,0,0,0,0,0c0-.08,0-.16-.07-.24l.07,0c.07.14.14.27.21.41L16.19,8.46l-.12.08Zm-1.76.64L14.24,9c.3-.18.59-.37.89-.56l.27.57-.77.58A4.2,4.2,0,0,0,14.32,9.19Zm.3.46-.05,0-.19-.39A4.07,4.07,0,0,1,14.62,9.65Zm-2.07-.21a2.58,2.58,0,0,0-.23-.35l.39-.28a2,2,0,0,1,.26.3c0,.09.09.17.13.26l-.46.26,0-.1,0,0s0,0,0,0ZM8.69,8.59h0l-.12,0a5.15,5.15,0,0,0,.81,0l.08.07-.26.07Zm.26.14-.27.07-.19-.17Zm7.51-3.64.09.1,0,0-.07-.1ZM19.72,3l.09,0h0l0,0Zm2.93,1.24.12-.13s0,.05,0,.08ZM19.43,7.31a3.37,3.37,0,0,0,0-.35c.31-.36.62-.71.95-1l.43-.33a2,2,0,0,1,.12.39l-.19.17C20.3,6.55,19.87,6.93,19.43,7.31ZM14.14,8.85l.11-.05s0,0,0,0l-.11.05c-.12-.21-.24-.43-.37-.63l.69-.34s0,0,0,0l-.66.32h0s0,0,0,0l0,0-.17-.23.27-.13s0,0,0,0l.63-.35a4.53,4.53,0,0,1,.67,1c-.3.19-.59.39-.89.57ZM13,9.08a2,2,0,0,0-.24-.28h0l.21.25ZM12.7,8.8l-.39.28a2.11,2.11,0,0,0-.15-.18l.48-.2.07.09h0l-.06-.07h0ZM11,8.94a2.09,2.09,0,0,0-.2-.19L11,8.67l.16.18-.12.06Zm-.81-.09h0l-.24,0L10,8.78a4.24,4.24,0,0,0,.6-.09h0l-.08,0C10.44,8.78,10.31,8.82,10.18,8.85Zm.17,0-.09,0h0ZM20,3.2s0,0,0,0a5.31,5.31,0,0,0-.9.34s0,0,0,0L19,3.64l-.21.1s0,0,0,0l0,0L18.54,4q-.25.15-.49.32v0q.41-.29.8-.59h0l.25-.17.12-.07A8,8,0,0,1,20,3.2Zm.3.11.32.26-.13.12a1.52,1.52,0,0,0-.3-.2l-.1-.1s-.09,0-.05.06l0,0s0,0,0,0l0,0,.36.42-.14.1A4.41,4.41,0,0,0,20,3.63s-.06,0,0,0l.33.46-.29.2s0,0,0,0c-.15-.42-.69-.46-1.08-.42A7.93,7.93,0,0,1,20,3.48c.05,0,0-.09,0-.08a4.5,4.5,0,0,0-1,.34l.12-.11a6.84,6.84,0,0,1,1-.38Zm.77.08-.15,0,.14-.12.13,0s0,0,0,0l.13.1-.51.34c-.05-.05-.09-.11-.15-.16l.15-.13.2,0S21.13,3.39,21.1,3.39Zm2.71-2.3.06,0H23.8Zm.62,0h-.11l0,0ZM22,4.46h0L22,4.54a1.07,1.07,0,0,0,0-.23L22.27,4a1.47,1.47,0,0,1,0,.18s0,0,0,0a1.57,1.57,0,0,0,0-.21l.15-.15c0,.07,0,.14,0,.21l-.37.34-.12,0S22,4.47,22,4.46ZM19.53,6.55l.65-.49c-.27.28-.52.58-.77.88a3.43,3.43,0,0,0-.06-.35l.88-.68s0,0,0,0l-.87.68a3.76,3.76,0,0,0-.11-.38c.43-.34.84-.69,1.26-1a1.8,1.8,0,0,1,.14.19c-.37.31-.73.64-1.1.95,0,0,0,0,0,0l1.11-.92.07.12L20.26,6l-.73.57Zm-1.12-.33,0,0,.09.19h0l-.09-.19L18.66,6a2.83,2.83,0,0,1,.08.31h0A2.94,2.94,0,0,0,18.68,6l.14-.1c0,.15.1.3.14.45l-.36.27C18.54,6.49,18.48,6.35,18.41,6.22Zm.14.45,0,0a4.38,4.38,0,0,0-.2-.41l0,0C18.43,6.39,18.49,6.53,18.55,6.67ZM17.33,6l-.11-.18.09.12Zm.14.2.08.15-.06-.1Zm-.33-.5,0,0h0a3.34,3.34,0,0,0-.43-.42l.18-.09.37.65Zm-1.71,1-.1-.07.13-.08,0,.1Zm.09,0,0,.09-.08-.06Zm-1.09.74-.9.49,0,0,.06,0q.44-.29.87-.62l.15.1-.13.07-.07-.09s0,0,0,0ZM12.1,8.85,12,8.73l.45-.23.17.18-.49.2Zm-2.28,0,0,0h0a0,0,0,0,0,0,0l.11,0-.08,0Zm1.23-.73.19-.06h0l-.42.17L11,8.14Zm.12-.05.06,0h0Zm4.28-1.63a0,0,0,0,0,0,0v0l-.14.09-.07-.05c.32-.23.66-.45,1-.66v0a9.17,9.17,0,0,1-.76.58Zm-.77.81-.16-.1.05,0,.14.11Zm-.19-.11-.08,0,.08,0,.05,0Zm0-.61.16-.11h0l-.5.34h0s0,0,0,0L14,6.87h0s-.05,0,0,0l0,0-.48.12,0,0,.23-.14.43-.26c-.08.08-.18.15-.26.23s0,0,0,0,.24-.22.36-.33l.37-.19,0,0-.16.11S14.47,6.54,14.49,6.52Zm.65-.44s0,0,0,0l.33-.2h0l.1-.06,0,0-.47.3h0l-.4.28h0l.42-.29ZM15,6.4l.11.08-.2.15-.17-.19L15,6.28l.46-.3-.18.17c-.07.06,0,.16.11.1l.17-.16h0v0q.27-.24.53-.5l.1.18c-.35.22-.7.44-1,.68L15,6.36A0,0,0,0,0,15,6.4Zm-.79.86h0ZM10.94,8.33l.43-.14h0l-.52.19,0,0h0Zm.69-.23L11.71,8,11.89,8l0,0,0,0-.52.19h0l.16-.07Zm.4-.2.06,0L12,8l-.05,0ZM14.4,7,14.32,7l-.08,0h0l.09,0Zm-1.07.68,0,0L13,7.93l-.1-.08Zm-.9.63.09.09h0l-.09-.09Zm.11.08.26-.18,0,0-.3.16Zm0,0-.08-.09.25-.14.09,0Zm-.12-.13-.13-.14L12.47,8l.18.1ZM12.29,8l.1,0s0,0,0,0h0Zm.61-.37-.1.05,0,0Zm.37-.24.49-.31-.33.23ZM12.13,8l0,0h0Zm-.66.25h0l0,0h0Zm.13.08h0l0,0h0Zm0,0,.12-.06.14-.06-.25.13Zm.63-.21.13.14h0l-.16-.13Zm.13.2.08.09-.05,0-.08-.08Zm.51-.13-.05,0,.07-.05,0,0Zm-.06,0-.08,0,.1-.05.05,0Zm-.14-.08L12.52,8l.06,0,.1,0,.13.11Zm0-.19.15-.06s0,0,0,0l.1.08L12.86,8Zm-.14,0-.11,0h0l.19-.08,0,0Zm1.05-.68.23-.18L14,7l-.21.14Zm.58-.35-.16,0h0l.1-.07.07,0Zm-1.63.93-.21.09,0,0,.33-.14Zm-.28.09s0,0,0,0h0l-.1,0,0,0h0l0,0Zm-.51.22-.06,0s0,0,0,0h0l-.19.07h0l.06,0,.29-.1Zm-.32.1,0,0h0Zm0,0-.08,0-.28.1h0s0,0,0,0l0,0,.4-.14ZM11,8.42l0,0-.08,0,0,0Zm.57,0h0l-.19.1s0,0,0,0Zm.08,0h0l0,0Zm0,0,.5-.22-.49.23Zm.54-.2.16.13-.05,0-.14-.14s0,0,0,0l.13.14-.43.24L11.7,8.4Zm.13.21.08.08-.47.2,0,0ZM13,8.14l-.06,0L13.05,8l.08.06Zm-.06,0,0,0L13,8l0,0ZM13,8l.27-.18-.24.2Zm.41-.27,0,0h0Zm-.08,0v0l.14-.06Zm-.44.11.44-.22s0,0,0,0l-.67.32,0,0a11,11,0,0,0,1.24-.68L14.16,7l.09.05L14,7.24h0l-.35.23Zm1.8-1-.11-.16s0,0,0,0l.11.16-.12.1-.23,0h0l.18-.12s0-.07,0-.05l-.21.14-.08,0,.47-.33.17.19Zm-1.68.77,0,0-.67.28a0,0,0,0,0,0,0l-.12.08-.05,0-.06,0a11.32,11.32,0,0,0,1.06-.61l.53-.15Zm-1.62.66h0Zm-.66.19,0,0-.3.1-.06-.06Zm.1.1-.18.05h-.05l.22-.07Zm.37,0h.05l0,0h0Zm.43-.1.16.16-.06,0-.15-.17Zm.2.2,0,0h-.07l0,0Zm0,.1h0Zm.1,0h0Zm0,0h0Zm1.15-.66L13.08,8l.27-.23,0,0h0l-.1.1h0l.1-.09.06.09Zm.27-.32.15-.12.27-.18.06,0a0,0,0,0,0,0,0L14,7.37a5.07,5.07,0,0,1-.55.46Zm1.23-.82h0s0,0,0,0l.05,0,0,0L14.56,7Zm1.42-1.35,0,0,.09-.06.07,0,.13.17-.24.15Zm-4.83,3a2.58,2.58,0,0,1,.23.14l-.07,0-.16-.18Zm.05,0,.3-.12.15.17-.22.1A2.54,2.54,0,0,0,11.3,8.57Zm.49.08,0,0-.22.08,0,0Zm.06.07h0l-.2.09,0,0Zm.09,0h0l0,0h0ZM13.36,8l.12-.09v0ZM14,7.43s0,0,0,0,.19-.19.28-.28h0l.08,0-.59.43ZM14.59,7l.21-.11L14.63,7Zm.21-.15,0,0,.15-.11,0,0Zm.14-.15.22-.16.06.05L15,6.75Zm1.28-.88.14-.09-.13.11Zm.21-.25-.13-.17.22-.12.1.16Zm-.77.19,0,0h0l.06,0Zm-1,.6,0,0,.17-.09ZM10.71,8.26h0l.09,0Zm.46.29h0l-.12.05,0,0Zm.05.06.16.18-.14.06-.16-.18Zm.19.2h0l-.12,0Zm0,0,.09,0,0,0-.1,0Zm.15,0,0,0-.11,0,0,0Zm.3,0h0l-.18.09h0Zm.11,0h0Zm.49-.25,0,0,.16.17v0l-.05,0Zm.19.07-.08-.12.34-.17a2.9,2.9,0,0,1,.22.19l-.4.18ZM13,8.24l.06,0c.07.07.16.12.23.19l-.07,0A2.63,2.63,0,0,0,13,8.24Zm.1,0,.07,0,0,0,.23.2-.12.05C13.24,8.31,13.15,8.26,13.08,8.19Zm1.68-.92.22.18-.25-.17Zm.11-.06L15,7.14c0,.08.08.17.12.25Zm0,0L15,7.09v0Zm-.07,0-.15-.11.18-.14.1.14Zm0-.25.09-.07h0l.07,0,.09.14L14.93,7ZM15,6.79l.26-.16.1.08-.27.21Zm.47-.29,0,0s0,0,0,0l.06,0-.06,0Zm.08,0h0a8.79,8.79,0,0,0,.7-.55l0,.11-.65.48Zm.7-.56.23-.2.09.12L16.3,6Zm.24-.22.08-.07.09-.06.08.14-.16.12Zm.2-.15h0a0,0,0,0,0,0-.07h0l-.1-.16.05,0c.09.1.19.21.27.32l-.11.08Zm.5-.7,0,0,.2-.12h0Zm1.65-.9s0,.05,0,.05a1.07,1.07,0,0,1,1,.38s0,0,0,0l-.33.22A.81.81,0,0,0,19,4c-.05,0-.07.06,0,.08a.78.78,0,0,1,.51.59L19,5a2.23,2.23,0,0,0-.18-.25s0,0,0,0A2.22,2.22,0,0,1,19,5l-.18.12,0,0a1.59,1.59,0,0,1-.13-.17,2.09,2.09,0,0,0-.27-.72l.17-.12a1.37,1.37,0,0,1,.43.72h0a1.31,1.31,0,0,0-.39-.76l.06,0ZM20,4.33l.3-.2.27.4-.36.27a2.16,2.16,0,0,0-.51-.26s0,0,0,0a2.22,2.22,0,0,1,.47.25L19,5.69a4.89,4.89,0,0,0-.29-.51l0,0a1.1,1.1,0,0,0,.43.29,0,0,0,0,0,0,0A2.17,2.17,0,0,0,19,5l.46-.31a1,1,0,0,1,0,.16,0,0,0,0,0,.08,0,.59.59,0,0,0,0-.24l.34-.23A0,0,0,0,0,20,4.33Zm.49-.56.12.14h0l-.12-.14Zm.35,0-.16.11a1.52,1.52,0,0,0-.12-.15l.13-.11Zm-.22.16a2.18,2.18,0,0,1,.2.24,0,0,0,1,0,.06,0,1.61,1.61,0,0,0-.19-.25l.16-.11a3,3,0,0,1,.49.66l-.23.19-.19-.29.15-.11s0,0,0,0l-.15.11-.28-.36ZM23,3.28v0h0v0Zm0,.26h0l-.1.15a1.69,1.69,0,0,0,0-.18L23,3.38C23,3.43,23,3.49,23,3.54Zm-.28.33a2,2,0,0,0,0-.23l.05,0a1.63,1.63,0,0,1,0,.25ZM22,3l0,0a1.92,1.92,0,0,0-.21-.23l.15-.11a3.65,3.65,0,0,1,.51,1l-.11.09A1.57,1.57,0,0,0,22,3l0,0S22,3,22,3Zm.42-1.44-.13,0,0,0,.12-.06.23-.08.15,0a1.46,1.46,0,0,1,.24.17h0l-.13,0a0,0,0,0,0,0-.05l-.07,0-.13,0a0,0,0,0,0,0,0l.09,0-.45.15h0l.13-.05A.05.05,0,0,0,22.4,1.54Zm1-.35h.08l.09.12h0l-.08-.06Zm.14-.06h.08l-.11,0,0,0Zm.08,0a2.1,2.1,0,0,1,.21.3l0,0h0a1,1,0,0,0-.14-.15s0,0,0,0l.09.11-.07-.07-.12-.17Zm.48.5h0l0,0h0L24,1.4h0l.11.25h0ZM23.78,3l0-.09v0L23.78,3Zm-.1-.33.07-.05s0,0,0,0h0s0,0,0,0a0,0,0,0,0,0,0s0,0,0,.06h0Zm-.42.27-.09.1a1.44,1.44,0,0,0-.24-.27,1.51,1.51,0,0,0-.44-.55l.1-.08a2.19,2.19,0,0,1,.67.77Zm-.47.82,0,0s0-.08,0-.11S22.79,3.73,22.79,3.76Zm-1.1-1s0,0,0,0l-.15.12-.4-.09-.09,0,.17,0s0,0,0,0L21,2.7l-.07,0-.1-.08h0s0,0,0,0l0,0,.34-.14.52.07.09.12Zm.84-1a1.62,1.62,0,0,1,.28.22l0,0-.09-.06s0,0,0,0l.06,0h0a1.26,1.26,0,0,0-.31-.24Zm-1.11.63.07,0,.22.06h0Zm.72-.48.08,0L21.84,2h0Zm.63.17.05,0h-.05V2Zm-1.14.22s0,0,0,0l.13,0,.2.15A1.86,1.86,0,0,0,21.64,2.24Zm.2-.12h0Zm.46-.17.06,0h-.18Zm.23.92h0l0,0a0,0,0,0,0,.06,0,1.39,1.39,0,0,0-.11-.16l.18.13s.09,0,.05-.06a1.91,1.91,0,0,0-.45-.33l0,0,.1-.07a1.19,1.19,0,0,1,.6.88l-.17.13A1.62,1.62,0,0,0,22.53,2.87Zm.41.1a1.53,1.53,0,0,1,.07.2h0A1.55,1.55,0,0,0,22.94,3Zm0-.13a1.46,1.46,0,0,1,.19.22l-.1.08A1.64,1.64,0,0,0,23,2.83Zm-.57-.53.06,0a2.06,2.06,0,0,1,.22.23A1,1,0,0,0,22.39,2.3Zm-.06,0h0s0,0,0,0l-.1.07a2.38,2.38,0,0,0-.3-.26l0,0a4.34,4.34,0,0,1,.52,0s0,0,0,0h0Zm.5-.29h0L22.9,2Zm.25.13s.09.06.13.1l-.08,0ZM22.6,2l-.16,0-.1-.06h0s0-.06,0-.06l-.09,0-.09-.06.09,0A1.35,1.35,0,0,1,22.6,2Zm-1.36.87.18,0L21.35,3Zm.6-.38.12,0-.07.05Zm.21,0h.07s0,0,0,0a1.76,1.76,0,0,1,.32.32l0,0s.05.09.08.14a1.83,1.83,0,0,1,.09.37l-.22.17a3.22,3.22,0,0,0-.5-1Zm.62.85v0h0S22.68,3.4,22.68,3.39Zm0,.06,0,.06,0,0s0-.06,0-.08Zm.09-.07L23,3.24h0l-.17.17ZM23,3.21h0l0,0Zm.34-.95.13.13-.07,0Zm0-.06-.13-.12L23,1.94s0,0,0,0l0,0-.13-.09L23,1.82s0-.05,0,0l-.13.09h0a1.3,1.3,0,0,0-.26-.19l.25-.09.13.05s0,0,0,0l0,0a0,0,0,0,0,0,0l.26.17a1.75,1.75,0,0,1,.23.53h0Zm1-.33h0V1.8h0s0,.07,0,.1v0Zm0-.35h0v0Zm.23.51,0-.07h0s0,.05,0,.08Zm0-.26a.89.89,0,0,1-.05.12,1,1,0,0,0,0-.16s0-.06,0-.09A.94.94,0,0,1,24.54,1.76Zm0,0a1,1,0,0,0-.08-.18.77.77,0,0,0,0-.08,1,1,0,0,1,.08.26Zm-.18,0v-.1l0,0S24.37,1.65,24.37,1.67Zm-.16.61,0,0v0Zm-.11.25s0-.06,0-.09l0,0s0,.08,0,.12ZM24,2.28V2.22h0v0s0-.06,0-.09A1.12,1.12,0,0,1,24,2.28ZM24,2s0-.06,0-.09h0S24,2,24,2Zm.07.37h0a1.17,1.17,0,0,0,0-.24,1.21,1.21,0,0,1,0,.16Zm0,.16v0Zm-.09-.42v0s0,0,0-.05S23.92,2.08,23.93,2.11ZM24,2.4v.05h0l0-.1c0-.05,0-.11,0-.16A1.71,1.71,0,0,1,24,2.4Zm-.17.16v0h0s0-.07,0-.11Zm0,.2v0h0v0ZM24,2.7s0-.06,0-.09l0,.08,0,.07Zm.11-.14v0S24.07,2.57,24.06,2.56Zm-.14,0h0v0S23.92,2.51,23.92,2.52Zm-.19-.12a1.27,1.27,0,0,1,0,.2,2,2,0,0,0-.2-.15A1.89,1.89,0,0,0,23.39,2,2.16,2.16,0,0,1,23.73,2.4Zm.12.43v0s0,.08,0,.12h0l0,0Zm.06-.07,0,.06-.05.07S23.9,2.8,23.91,2.76Zm.08.08h0l0-.06s0,0,0,0Zm.07-.1s0,0,0,0l0-.05h0v0Zm.14-.28a1.89,1.89,0,0,0,.09-.22s0,0,0,0,0,0,0,0,0-.08,0-.12,0,0,0-.06.05,0,0,0l0-.06a1.53,1.53,0,0,0,.08-.19,1.21,1.21,0,0,1,0,.36c-.07.12-.15.24-.23.36S24.21,2.49,24.21,2.46ZM24.5,2V2l0,0S24.5,2,24.5,2Zm.09-.5,0,0h0Zm-.23-.08a.75.75,0,0,1,0,.13l0,0s0,0,0-.05,0,0,0,0l0,0,0-.1h0l0,0ZM24.28,2a1.49,1.49,0,0,1-.08.17h0a1.65,1.65,0,0,0,.06-.22Zm-.47.13a1.84,1.84,0,0,0-.31-.38,1.55,1.55,0,0,1,.3.31S23.81,2.1,23.81,2.13Zm0,.16s0,.08,0,.12a1.65,1.65,0,0,0-.14-.23A1.27,1.27,0,0,0,23.6,2,1.88,1.88,0,0,1,23.83,2.29Zm-.26.2.16.12-.06,0-.09-.13Zm.3.5L24,2.87h0l-.08.1Zm.69-1.72a.52.52,0,0,1,0,.11l-.08,0a1,1,0,0,0-.13-.15h0A.42.42,0,0,1,24.55,1.26Zm-.33.35s0,.09,0,.13h0l-.13-.28A.37.37,0,0,1,24.22,1.61Zm-.09.11.05.08,0,0v0a1.56,1.56,0,0,1,0,.23A1,1,0,0,0,24,1.8,1,1,0,0,0,24,1.67l0-.05h0Zm-.42.1a1.58,1.58,0,0,0-.21-.19l.15,0S23.69,1.77,23.71,1.82Zm-.63-.3s0,0,0,0a4.13,4.13,0,0,1,.34.27h0a1.3,1.3,0,0,1,.1.13l-.11-.08-.2-.15A1.35,1.35,0,0,0,23,1.5ZM20.56,2.69l.11-.05.16.08h0Zm.93.43-.1-.1.11-.08.22.05s.05,0,0-.06l-.16-.05.12-.09a2.22,2.22,0,0,1,.21.22l-.29.2Zm.92.54,0,.11-.14.12s0-.1,0-.14Zm-.14.26L22,4.18a1.23,1.23,0,0,0,0-.15l.33-.25S22.27,3.88,22.27,3.93Zm-.35.3-.45.39-.07-.16.48-.37A1,1,0,0,1,21.92,4.22Zm-.48.41-.22.19-.09-.17.23-.18Zm-.27.24-.22.19-.09-.2.21-.16Zm0-.24h0l.23-.19v0Zm-.06,0-.19.15.18-.15Zm-.22.14c-.05-.11-.11-.22-.17-.32l.17-.13.2.29Zm-.07.05-.26.22a1.83,1.83,0,0,0-.28-.26l.35-.27C20.65,4.66,20.71,4.77,20.77,4.88Zm0,0,.1.19-.22.19a1.78,1.78,0,0,0-.13-.19Zm.12.24,0,.09-.21.21-.06-.12Zm.05,0,.23-.19,0,.05L21,5.2Zm.28-.24.21-.17v0l-.19.19Zm.24-.2.4-.35-.39.39Zm1-.92,0-.11.21-.17s0,.06,0,.09l-.16.17Zm.43-.37L23,3.31s0,0,0,0Zm.18-.18.1-.11v0l-.12.1S23.07,3.21,23.07,3.2Zm-.41-1h.08s.09.08.12.13a0,0,0,0,0,.06,0l0-.07.19.06a1.4,1.4,0,0,1,.19.61A2.12,2.12,0,0,0,22.67,2.16Zm.84.29,0,0s0,.09,0,.14,0,0,0,0V2.56l.07.1-.08.06a1.86,1.86,0,0,0-.15-.31Zm.17.23.05.08-.11.12,0-.12Zm.08.12h0v.07l-.1.13,0-.06Zm0,.13h0l0,.07,0,.06V3Zm-.07.13s0,0,0,0h0Zm.08.07.08-.1h0l-.08.1Zm.5-1.94h0l0,0h0v0Zm-.07.2v.06a1.67,1.67,0,0,0-.23-.2A.92.92,0,0,1,24.19,1.38Zm-.1,0-.07,0,0-.06a0,0,0,1,0,0,0v0h0l0-.06a0,0,0,0,0-.05,0,3,3,0,0,0,.19.3h0v0L24,1.58l0,0a1.57,1.57,0,0,0-.24-.41l.13,0A1.8,1.8,0,0,1,24.1,1.39Zm-.67-.24h0l0,0H23.4l0,0Zm-.11.09.08.06-.17-.08h.08S23.31,1.23,23.32,1.23Zm.17.14h0l0,0Zm-.14,0a1.25,1.25,0,0,1,.21.17l-.19,0A1.36,1.36,0,0,0,23,1.38,1.78,1.78,0,0,1,23.35,1.41Zm-1.18.34L21.62,2h0l.54-.23Zm-1.78,1h0l-.09,0Zm.24,0,.32,0a3.15,3.15,0,0,0,.28.25l0,0A1.66,1.66,0,0,0,20.95,3h0a2.4,2.4,0,0,0-.33-.19Zm.61.35,0,0,.26.17-.05,0A1.81,1.81,0,0,0,21.25,3.13Zm.3.15.12.08a0,0,0,0,0,0-.08l-.08-.05.29-.2a1.56,1.56,0,0,1,.34.72L21.93,4a1.57,1.57,0,0,0-.44-.68Zm.32.77-.49.38v0l.31-.26s0,0,0,0l-.3.25a2.79,2.79,0,0,0-.47-.66l.51-.34A1.57,1.57,0,0,1,21.87,4.05Zm-1.06.28-.17.13a4.58,4.58,0,0,0-.26-.4l.14-.1ZM18.68,5l.12.12,0,0a5.82,5.82,0,0,0-.44-.58c0-.05,0-.11-.08-.17a0,0,0,0,0,0,0l0,.05-.1-.1.11-.07a5.59,5.59,0,0,0,.42.68s0,0,0,.05h0S18.68,5,18.68,5Zm-.27-.21c.1.13.2.26.29.4l-.08.05C18.56,5.1,18.48,5,18.41,4.8Zm-.14-.5.09-.06a2.14,2.14,0,0,1,.29.67A5.77,5.77,0,0,1,18.26,4.3Zm-.18.11.24.28c.1.19.19.38.27.58l0,0h0l0,0c.08.19.14.39.21.58l-.13.1a3.51,3.51,0,0,0-.79-1.42Zm.54.84.08-.05a5.07,5.07,0,0,1,.3.51l-.17.13C18.76,5.65,18.7,5.45,18.62,5.26Zm.19-.13L19,5c0,.07.1.13.14.21s-.06.14-.13.06A1.34,1.34,0,0,1,18.81,5.13Zm-1-.68h0l0,0L18,4.3v0Zm-.34.19.28-.18,0,0-.29.17Zm.36-.08A3.69,3.69,0,0,1,18.65,6l-.22.17a5.1,5.1,0,0,0-.87-1.42Zm1,1.34L19,5.77a4.15,4.15,0,0,1,.18.42L19,6.35C18.93,6.2,18.88,6,18.84,5.9Zm.22-.16,1.14-.87a1.91,1.91,0,0,1,.28.26l-.29.24-.64.5h0l.33-.26-.66.54A4.13,4.13,0,0,0,19.06,5.73Zm1.69-.21,0,0-.31.25Zm0,0,.2-.2,0,.08-.2.17ZM21,5.4a3.26,3.26,0,0,1,.12.37l-.2.19a2,2,0,0,0-.12-.4Zm.16.34c0-.13-.07-.25-.11-.38l.26-.21a3.41,3.41,0,0,1,.14.33ZM21,5.33l0-.09L21.25,5l.05.1ZM21.3,5l.19-.18,0,.14-.18.15Zm.21-.21.41-.4a1,1,0,0,1,0,.24l-.34.3Zm1-.95,0,0,.17-.15a1.89,1.89,0,0,1,0,.23L22.52,4C22.52,4,22.49,3.89,22.48,3.82Zm.23.09-.19.28s0-.08,0-.11ZM23,3.34h0c0,.05,0,.11,0,.17l0,0A1.74,1.74,0,0,0,23,3.34Zm.06-.06.13-.11,0,.06,0,.07-.13.14C23.09,3.39,23.09,3.34,23.08,3.29Zm.14-.13,0,0,0,.08Zm0,0,0,0L23.26,3h0s0,0,0,.06Zm.22-.34-.1.1a1.49,1.49,0,0,0-.07-.42,2,2,0,0,1,.22.34l-.08.07.07-.07S23.44,2.76,23.43,2.78Zm-.19-.47.06,0a1.92,1.92,0,0,1,.23.43h0A1.94,1.94,0,0,0,23.23,2.31Zm.3.48h0Zm.6-1.73v.05h0s0,0,0,0h0L24,1.07Zm-.14,0-.1,0h0Zm-.67.07h-.07l.07,0Zm-.15,0h0l.28.13h0l-.07,0s0,0,0,0a1.65,1.65,0,0,0-.47,0h-.09l.39-.12Zm-3,1.63.26-.06A3.61,3.61,0,0,1,20.9,3L20.66,3a2.21,2.21,0,0,0-.53-.09Zm.5.67-.23-.17.36.06Zm-3.55,1.3,0,0L17,4.93l.08-.06Zm-1.29.76h0l.08-.07Zm-4,2.18-.05,0h0l.05,0Zm-.6.29h0l0,0Zm-.62.21h0l-.32.09h0Zm-.47.26L10,8.63s0,0,0,0l.31-.15.09,0,.08.06L10,8.68l-.43,0,0,0Zm-.66.11h0l.19,0Zm0,.06h0Zm.21.17H9.64l.1,0Zm1-.16.06,0L11,8.6l0,0-.26.07Zm.7.15,0,0-.14.06,0-.05Zm0,.06h0L11.36,9V9Zm0,0,.11,0-.1.05Zm.15,0h0L11.55,9h0Zm0,0h0L11.56,9h0Zm0,0,.09,0-.08,0Zm.16-.08h0l.09.15L11.82,9l-.1-.1Zm0,0,0,0,.15.14-.1,0Zm.84,0,0,0,.13.22Zm0,0-.07-.08.05,0,.06.08Zm.05,0h0Zm0-.08.4-.18,0,0-.36.22Zm.45-.2.07,0v0l-.06,0Zm.12-.06.12-.06h0l-.11.07Zm.13-.09-.23-.2.3-.15.16.24,0,0Zm1-.9.07,0h0l0,0a3.33,3.33,0,0,1,.87.87l-.36.23A4.11,4.11,0,0,0,14.49,7.41Zm1.1.69,0,0h0Zm-.47-.7c0-.09-.08-.18-.13-.26l.14-.08s0,0,0,0L15,7.11v0L15.11,7c.1.13.2.27.28.41s0,0,0,0-.19-.28-.28-.41l.28-.22c.06.06.14.1.2.16a1.48,1.48,0,0,1,.06.39,0,0,0,0,0,0,0,1.23,1.23,0,0,0,0-.35c.18.18.35.37.53.57,0,0,.08,0,.06,0a3.21,3.21,0,0,0-.63-.68l-.07-.15.09-.07a3.26,3.26,0,0,1,.87.9,0,0,0,1,0,0,0,2.22,2.22,0,0,0-.86-.93l.62-.45a5,5,0,0,1,.26.62h0a5.05,5.05,0,0,0-.25-.64l.29-.21c.19.27.36.56.53.84h0c-.17-.29-.33-.58-.52-.85l.15-.11c.18.34.33.7.49,1.05h0c-.16-.36-.3-.72-.48-1.07l.12-.09a6.94,6.94,0,0,1,.68,1.13q-.94.69-1.91,1.33A2.37,2.37,0,0,0,15.12,7.4Zm1.82-1.79s0-.06,0,0h0c-.08-.11-.17-.22-.27-.32h0a3.6,3.6,0,0,1,.46.45l.29.45a4.42,4.42,0,0,1,.23.61l0,0A6.88,6.88,0,0,0,16.93,5.61Zm.64.8.08.13.06.14,0,0C17.63,6.61,17.61,6.51,17.57,6.41Zm.14.27,0-.09,0,.08Zm-.11-.27a3.12,3.12,0,0,0-.17-.33,9.27,9.27,0,0,0-.52-1l.35-.18s0,0,0,0l.26-.14a5.66,5.66,0,0,1,.9,1.41l0,0a3.69,3.69,0,0,0-1-1.26s-.05,0,0,0a4.49,4.49,0,0,1,1,1.27l0,0a4.18,4.18,0,0,0-.79-1.08s0,0,0,0a4.46,4.46,0,0,1,.78,1.08l0,0a3.9,3.9,0,0,0-.65-.84s0,0,0,0a4.85,4.85,0,0,1,.64.84l-.47.35Zm.63-.06c.08.13.15.26.22.39L18,7.11c-.06-.14-.13-.28-.21-.41Zm0,0,0,0a4.49,4.49,0,0,1,.2.41h0C18.41,6.59,18.34,6.46,18.26,6.33Zm.24.42v0l0,0Zm0,0,0,0,0,.09,0,0Zm.08-.06L19,6.4l0,.12s0,0,0,0l-.37.25Zm.53-.22a0,0,0,1,0,0,0L19,6.51l0-.13.22-.17a3.64,3.64,0,0,1,.11.38L18.76,7c0-.08-.07-.16-.1-.24Zm.17.16a3.48,3.48,0,0,1,.06.36l-.26.3a0,0,0,1,0,0,0L19.38,7a3.27,3.27,0,0,1,0,.33l-.26.22-.16.1c-.07-.2-.14-.41-.22-.62ZM21.5,5.44c0-.11-.08-.23-.13-.34L21.54,5a2.2,2.2,0,0,1,.06.21s0,0,0,0a2.27,2.27,0,0,0-.06-.22l.32-.27s0,.06,0,.09,0,0,0,0a1.05,1.05,0,0,0,.05-.17l.19-.18.24-.06c-.24.33-.49.64-.75,1Zm.7-1.07.29-.27s0,.08,0,.11l-.07.09Zm.33-.09L22.71,4s0,.07,0,.1,0,0,0,0l-.12.13Zm0,.06h0Zm.24-.26a1.53,1.53,0,0,0,0-.16l0,0a1.52,1.52,0,0,1,0,.17Zm.12-.32,0,0L23,3.65s0,0,0,.07,0,0,0,0,0-.08,0-.12l0,0v0a0,0,0,0,0,0,0s0,0,0-.07l.09-.1a1.36,1.36,0,0,1-.1.21s0,0,0,0-.17.22-.27.32A1.67,1.67,0,0,0,22.87,3.76Zm.41-.44h0l0,.08-.16.21A1.35,1.35,0,0,0,23.27,3.32Zm.05-.25h0v0s0,0,0,0l0,0,0,0s0,0,0,0l0,0V3l.16-.12.06.12-.26.27A1.41,1.41,0,0,0,23.32,3.07Zm1.44-1.7V1.31a.53.53,0,0,1,0,.06ZM24.17.94h0ZM20,3h0Zm1,.28-.14.12a5.89,5.89,0,0,1-.6-.13l0,0s0,0,0,0h0s0,0,0,0h0s0-.08,0-.07a3.23,3.23,0,0,0-.58.13h0l0,0h0l.28-.16A3.33,3.33,0,0,1,21,3.23Zm-4.56,2-.22.13h0a.05.05,0,0,0,0-.06v0l.21-.15ZM11.79,7.81,11.33,8l0,0,.48-.21Zm-1.14.39,0,0,.32-.09ZM10,8.42l-.19,0,.25-.06Zm-.26.09-.31.08-.08-.06.39-.06A0,0,0,0,0,9.78,8.51Zm-.3.12h0s0,0,0,0H9.3Zm.2.17-.1,0s0,0,0,0H9.43l-.1-.1Zm0,.34-.07,0-.22-.23h.11Zm-.17-.21.29,0,0,0s0,0,0,0l.1-.05L10,9l-.31.1Zm.4,0,.22,0s0,0,0,0l.1,0,0,0L10,9Zm.41,0A1.05,1.05,0,0,1,10.5,9l-.4.08L10,9.05Zm.24.11a1.09,1.09,0,0,0-.22-.12l.26-.12.15,0,.16.2Zm.21-.28h0a2.36,2.36,0,0,1,.21.19h0Zm.35.19.17,0,0,.06L11.07,9,11,9Zm.23,0V9l-.22.11,0,0Zm0,.06,0,0-.21.11,0,0Zm0,0L11.53,9h0l-.05,0s0,0,0,0l.05,0h0l-.14.07Zm.16,0,.06.09-.16.05,0-.07Zm0,0,.12-.06.1.1-.15.05ZM11.8,9c.08.08.16.15.23.23s0,0,0,0-.14-.15-.21-.22L12,9l.15.24-.29.21-.21-.33ZM12,9l.1,0,.16.19-.11.08Zm1,.2c0,.06.07.14.11.2h0C13.08,9.29,13,9.22,13,9.15Zm0,0,.11.15,0,0C13.09,9.3,13.07,9.24,13,9.19ZM13,9.05c-.05-.1-.11-.2-.17-.3h0a4.92,4.92,0,0,1,.41.55l-.06,0Zm-.13-.32.36-.22a3,3,0,0,1,.26.24s.05,0,0,0a2.45,2.45,0,0,0-.25-.24l.06,0a6,6,0,0,1,.47.56l-.54.28A4.82,4.82,0,0,0,12.83,8.74Zm.52-.31.11-.07c.2.17.38.35.56.53l-.2.1A5.41,5.41,0,0,0,13.35,8.42Zm.14-.08.08,0,.13-.06c.13.21.28.41.39.62l0,0A7.7,7.7,0,0,0,13.49,8.34Zm.61.53.08.16-.12-.14ZM18,7.15l0,.06L16.79,8Zm0,0,.49-.37,0,.08L18,7.21Zm.59-.31,0,0,.11.24-.07.05,0-.09Zm.1.27.07-.05c.08.2.15.4.23.6l-.17.11a4.88,4.88,0,0,0-.13-.63l.15.31s0,0,0,0Zm3.84-2.73.06-.07.2-.08-.27.31C22.5,4.49,22.5,4.44,22.51,4.39Zm.33-.23s0-.09,0-.13a6,6,0,0,0,.47-.6s0,0,0,.07h0s0-.05,0-.08.12-.15.17-.24,0,0,0,0-.11.15-.17.22l0-.08.28-.3,0,.07,0,0a0,0,0,0,0,0,0l0,0,0,.09,0,0h0c-.22.25-.44.49-.64.72,0,0,0,0,0,0,.18-.21.41-.44.63-.69h0c-.24.3-.52.58-.78.87Zm1.94-2.83v0a.58.58,0,0,0-.05-.17h.06A.61.61,0,0,1,24.78,1.32ZM24.1.92v0H24l0,0ZM22,1.6h0l0,0ZM17.7,4.21,18.07,4c-.4.3-.79.61-1.18.93h0l0,0-.06-.09.92-.64ZM16.79,5l-.19.15,0,0s0,0,0,0l0,0h0l-.09-.1.25-.18ZM9.08,8.4a6.15,6.15,0,0,0,1.51-.2h0l0,0-.3.11,0,0s0,0,0,0l0,0-.07,0a6.82,6.82,0,0,1-.83.16l-.09-.07s0,0,0,0l.07.05a5.11,5.11,0,0,1-.86,0l-.11,0L9,8.39Zm-.7.2H8l.25-.05Zm1.22.6.07,0c.08.1.16.2.23.31l-.06,0C9.76,9.39,9.68,9.29,9.6,9.19Zm.17.34h0Zm-.14-.21,0,0Zm.06-.15.32-.1.06.07-.35.06s0,0,0,0l.36-.06.18.2-.35.12C9.84,9.37,9.76,9.27,9.68,9.16Zm.43,0,.42-.08a1.25,1.25,0,0,1,.12.15l-.36.13Zm.44-.08L10.89,9h0l-.05,0a0,0,0,1,0,0,0l.06,0,.06.07-.3.12A1.27,1.27,0,0,0,10.55,9.07ZM10.94,9l0,0,.05.07,0,0Zm.11.08,0,0,0,0,0,0Zm.06.08,0,0h0a1.88,1.88,0,0,1,.17.34l-.24-.36ZM13.84,9l.2-.1.18.2.32.62-.16.13C14.21,9.55,14,9.27,13.84,9Zm.71.73.11.22s0,0,0,0l-.11-.23.05,0a3.59,3.59,0,0,1,.19.37l-.23.17-.2-.35Zm.1-.08.77-.58.07.15s0,0,0,0l-.06-.15,1.11-.83,1.47-1c0,.09.09.19.13.28Q16.49,8.79,14.83,10A3.59,3.59,0,0,0,14.64,9.66ZM18,7.22l.51-.35,0,0,.07.22-.48.37C18.1,7.41,18.06,7.32,18,7.22Zm.61-.07a4.91,4.91,0,0,1,.14.64c-.15.08-.3.15-.45.22,0-.17-.1-.33-.16-.49Zm.17.66.14-.08-.13.11ZM24.74,1l-.08,0,0,0h0ZM24.6.89h0l0,0h0S24.6.89,24.6.89Zm-.09,0h0l0,0S24.49.89,24.5.91Zm-1,0-.06,0h0s0,0,0,0a3.3,3.3,0,0,0-.42.15l-.05,0C23.16,1,23.35,1,23.54.91Zm-.78.26-.4.23L22,1.48C22.18,1.41,22.45,1.29,22.76,1.17ZM20.59,2.33c-.15.1-.31.19-.45.3h0a6.42,6.42,0,0,1,.61-.39l.71-.42.45-.18s0,0,0,0h0c-.18.09-.35.18-.52.29s-.35.2-.52.31l-.1,0H20.7s0,0,0,.05a8.22,8.22,0,0,0-.89.52L19.56,3s0,0,0,0h0l-.13,0c.39-.25.78-.48,1.18-.72Zm0,0h0Zm-1.35.83.16,0L19,3.4a0,0,0,0,0-.07,0l-.13.07ZM7.9,9.26a7.92,7.92,0,0,1,.57,1.05,8.48,8.48,0,0,0-.84-1.15ZM9,15a3.09,3.09,0,0,1,.32.5,1.67,1.67,0,0,0-.16-.12A2.47,2.47,0,0,0,9,15Zm.37.62a2.2,2.2,0,0,1,.22,1.07s0,0,0,0a2.29,2.29,0,0,0-.1-.79c0,.05.07.1.1.16,0,.33,0,.66,0,1l0,.11h0c0,.12,0,.25-.07.37v0l0-.19s0,0-.05,0v0l0-.23h0a3.32,3.32,0,0,1,0-.34s-.05-.07-.07,0a2.21,2.21,0,0,0-.16.72l0-.12a4.74,4.74,0,0,0-.08-1.87A2,2,0,0,1,9.35,15.6Zm.53,2a7.12,7.12,0,0,1-.16.81V18.4c0-.7,0-1.4,0-2.1a4.74,4.74,0,0,1,.19.61Zm.95.44c0,.12-.07.24-.11.36a4.73,4.73,0,0,1-.26.6l-.06.06-.15,0a7.5,7.5,0,0,0,.4-2.94l0-.19a6.82,6.82,0,0,1,.28,1.4,4.93,4.93,0,0,1-.2.88c0-.07,0-.13.06-.2Zm-.18.94v0l.15-.11-.24.58a1.27,1.27,0,0,1-.32.13l.06-.12.14,0s0,0,0,0l-.1,0,.16-.32.13-.07h0S10.64,19,10.65,19Zm-1.4-1.59,0,.2a4.84,4.84,0,0,0,.05.71c-.06.39-.1.77-.15,1.16h0A8.5,8.5,0,0,1,9.25,17.45Zm.19-.14,0,.22c0,.1,0,.21-.05.32A4.63,4.63,0,0,1,9.44,17.3Zm.22-.15c0,.29,0,.57,0,.86h0c0-.12,0-.25-.06-.37s0-.23.05-.34Zm.53,2h.06l0,.15,0,0c0-.05,0-.1,0-.15Zm0,.29h0V19.4l0,0Zm0-.1.2-.19-.16.27-.07,0Zm-.14.32v0H9.89v-.05Zm-.13-.07v-.05l.14,0v.07Zm.22.32L10,20v0l.07,0Zm-1-.31h0Zm0,.07.08-.12h0l.07.07c0,.06,0,.12,0,.18s0,0,0,0l0,0,0,0a1,1,0,0,1,0-.14,0,0,0,0,0-.06,0,1,1,0,0,0,0,.14h0ZM9.67,19v0l-.08.21v-.11h0c0-.06,0-.13,0-.18h0l0-.1C9.66,18.92,9.67,19,9.67,19Zm.33.9-.17.11s0,0,0,0l-.09,0v0s0,0,0,0v0s.05,0,0,0,0-.06,0-.09l.22,0h0Zm-.17-.11-.07,0v0h.07ZM9.53,20v0h0s0,0,0,.07h0L9.49,20Zm.06.08h0Zm0-.15v-.09h.09v.07Zm0-.14h0Zm-.12,0h0v0Zm.21.28h0l0-.08h.06S9.69,20,9.69,20Zm.08-.13.06,0v0H9.77Zm.09,0h0l0,0-.06,0Zm-.18-.11h0l-.06,0h0s0-.06,0-.09l.09,0h0S9.68,19.72,9.68,19.75Zm-.27-.14h.05v0l0,0Zm0,.08,0,0h0v-.06Zm0,.07h0l0,.06Zm.06,0h0a1.15,1.15,0,0,0,0,.13h0a0,0,0,0,0,0,0Zm.51.33h0Zm-.07,0L10,20v0Zm.08-.19,0,0h0s0,0,0,0H10v0Zm-.44-.71h0v0l0-.07Zm-.08,0h0Zm0,.11c0,.06,0,.11,0,.17s0,.05,0,.08h0c0-.07,0-.13,0-.2Zm-.07.25H9.32l.08-.13Zm.67.37h0Zm0,0v0a1,1,0,0,0,.25-.09h0l0,0Zm0-.11v0h.07Zm-.23,0h0l-.05-.07h0l.11,0Zm-.18-.55a.77.77,0,0,0,0,.34H9.59s0-.07,0-.1l.1-.26Zm0-.49q-.05.15-.11.3a3.71,3.71,0,0,1,.07-.62C9.62,18.49,9.63,18.6,9.65,18.71Zm0-.52v-.06c0,.06,0,.11,0,.17Zm-.15.25c0-.17,0-.35,0-.52,0,.09,0,.19,0,.28A1.66,1.66,0,0,0,9.5,18.43Zm0,0c0-.09,0-.17,0-.26l0-.31v0C9.47,18,9.46,18.21,9.45,18.41Zm0,.55c0,.1,0,.2,0,.3s-.1.17-.16.26h0c0-.32.1-.63.15-.95Zm-.21.62,0,0v0Zm-.05,0v0h0Zm1.16.38,0,0v0Zm.2-.34h0l0,0Zm-.06.06c-.05.05-.1.12-.15.17l0,0h-.12l.23-.15h0s0,0,0,0l0,0h0l0,0Zm-.36-.07,0-.08.07,0v0s0,0,0,0l0,0,.09,0-.06.12Zm.15-.17c.07-.11.14-.21.2-.33l0,0-.16.32Zm-.05-.12,0-.14.13,0Zm-.12.17-.12,0,.13-.09Zm-.19.09v0H9.83l.05,0Zm-.13,0h0s0,0,0,0h0Zm-.05-.67c0-.08,0-.16,0-.23l0-.09a1.39,1.39,0,0,0,0,.17ZM9.5,17.71v0h0Zm.91,2.22h0l0,0a.43.43,0,0,0,.11-.08Zm.11-.86,0,0,.15-.16,0,.14Zm0,0h0l0-.05Zm0-.08.12-.26c0,.06,0,.13-.06.2Zm-.28.15h-.06a25.8,25.8,0,0,0,.46-2.81A8.19,8.19,0,0,1,10.25,19.15Zm-.14.24-.14.09c0-.11.07-.23.09-.34l.07,0C10.12,19.24,10.11,19.31,10.11,19.39Zm-.19.12,0,0H9.76c0-.08,0-.17,0-.25s0-.27.07-.4a.83.83,0,0,0,.1.18l.07.05C10,19.25,10,19.38,9.92,19.51Zm-.12-.76a1.35,1.35,0,0,1,0-.16c0-.13.08-.26.11-.4,0,.17,0,.34,0,.52Zm.77,1-.1,0s0,0,0,0l0,0,.15-.17Zm.16-.41-.06.05-.05,0c.08-.19.16-.38.23-.58l0,0C10.84,19,10.78,19.2,10.73,19.37ZM6,10.92a2,2,0,0,1,.05.65,1,1,0,0,0,0-.16.73.73,0,0,0,0-.24A1.19,1.19,0,0,0,6,11S6,10.95,6,10.92ZM5.8,12.56A1.47,1.47,0,0,0,6,11.94v0l0,0H6l0-.11A1.16,1.16,0,0,1,5.8,12.56Zm.13-.62-.06.13s0-.05,0-.08,0,0,0,0,.06-.19.08-.29A1.9,1.9,0,0,1,5.93,11.94Zm.06.83c0,.06,0,.11,0,.17v0a1.63,1.63,0,0,1,0-.33A.83.83,0,0,0,6,12.77ZM6,13H6a1,1,0,0,0,0,.11v0a.26.26,0,0,1,0-.1H6a.21.21,0,0,0,0,.1L5.88,13v0a0,0,0,1,0,0,0h0a.73.73,0,0,1,0-.09,0,0,0,0,0,0,0s0,0,0,0l0-.1a0,0,0,1,0,0,0l0,.12-.06-.1,0-.12.07-.09.19.3v0l0,0h0Zm-.24-.37,0,0c0-.05,0-.11,0-.16l0,.08Zm.1-.64a1.11,1.11,0,0,0,0,.13c0,.06-.06.11-.08.17C5.79,12.19,5.81,12.09,5.84,12Zm0,1.1v0l0,0Zm.15,0H6ZM6,13H6v0H6Zm0-.1-.17-.27a1.34,1.34,0,0,0,.14-.21A1.73,1.73,0,0,0,6,12.9Zm-.26-.41h0c0-.1.09-.2.13-.3s0,.06,0,.09,0,0,0,0,0-.1,0-.15L5.92,12a1.43,1.43,0,0,1-.16.57Zm.45.93,0,0h0l.06.08Zm-.07-.15,0-.05,0,.06Zm0-.1s0,0,0,0a1.23,1.23,0,0,0,.17.22l-.12-.07Zm0-.07s0,0,0,0l.14.22A1.26,1.26,0,0,1,6.06,13.1Zm0,0v0S6,13,6,13.05ZM6,13s0-.06,0-.1l0,0A.65.65,0,0,0,6,13Zm0-.32s0,.09.07.14l0,.06A.78.78,0,0,1,6,12.65Zm0-.09A1.22,1.22,0,0,1,6,12.2,2.15,2.15,0,0,0,6,12.56Zm0,0s0-.08,0-.13l0,0A1.21,1.21,0,0,0,6,12.51Zm0-.67a2,2,0,0,0,0-.23l0-.06H6v0a1.83,1.83,0,0,1,0,.18ZM24.42.81l0,0-.17,0ZM4.29,17.22a8.47,8.47,0,0,1-1,0c.33,0,.67,0,1,0Zm.49.73a5,5,0,0,0,.64,0c-.27,0-.53,0-.8,0v0Zm-.18,0h0Zm0,0,0-.07a8.06,8.06,0,0,0,1.09,0,7.78,7.78,0,0,1-.83.11Zm-.12,0-.16,0L4,17.83l.56,0,0,.07-.1,0S4.48,17.9,4.48,17.9ZM1,15.9,1,16H1Zm-.09-.57A6.11,6.11,0,0,1,1,13.69c.07-.18.16-.36.24-.53-.09.39-.17.78-.3,1.16,0,0,0-.1,0-.14s0,0,0,0A5.3,5.3,0,0,0,1,15.91c0-.05,0-.11,0-.16S.93,15.47.92,15.33Zm0-1.13,0-.17,0-.08a6.33,6.33,0,0,0-.08.64C.87,14.46.87,14.33.88,14.2Zm0,0v0l0-.05ZM1,13.85H1Zm1.41,1.69-.26.19,0,0,.27-.17Zm0,0,.28-.17-.27.18ZM2.8,17.2h0v0l.42.05c-.13,0-.25,0-.38,0S2.8,17.2,2.8,17.2Zm.66.46h0a3.69,3.69,0,0,0,.44.14H3.73l-.55-.22h0ZM2,17.23l-.11-.08.27.08a1.72,1.72,0,0,0,.36.2l.32.2-.19-.06C2.39,17.46,2.18,17.35,2,17.23Zm-.61-.55h0l.26-.1s0,0,0,0h0l0,.06,0,0-.09,0s-.07,0,0,.05l0,0,0,0s0,.06,0,0l.06,0,.07.07h0l-.21-.08Zm-.1-.94h0s0-.05,0-.08l.05-.13Zm0-.26c.08-.21.17-.42.27-.62,0,.15,0,.3,0,.44l-.29.42Zm0,.3.3-.42s0,.09,0,.13l-.05.13-.11.13h0l.1-.11,0,0,0,0h0l-.09.22a1.57,1.57,0,0,1-.12-.15Zm.32-.44.09-.11-.09.22S1.59,15.37,1.59,15.33ZM2.74,16.6l-.14,0v0h.15Zm0,0h0Zm-1.1.14.11.08h0l-.09-.08Zm.69-.19H2.16l.33-.11,0,.05Zm.18,0,0,0H2.42Zm-.54,0H1.91l.28-.08Zm-.17,0,.62-.24,0,.05A4.68,4.68,0,0,0,1.81,16.52Zm0,0h.08l-.16.07,0,0Zm.19,0h.16s0,0,0,0l.08,0h.32v0l-.71.15-.1-.1Zm-.09.34,0,0h0l0,0Zm-.13-.1h0Zm.28,0s0,0,0,0H2l-.11-.05.68-.14.07.2Zm-.3-.1-.05,0h0Zm1,.13H2.68l-.07-.2.14,0c0,.07,0,.15.06.22Zm-.17-.34,0,0,.16,0,0,.07Zm0-.07,0,0,.17-.05,0,.06Zm.55-.28h0c-.13,0-.25.08-.37.12l0-.09L3.48,16Zm-.44,0,0,.09-.19,0,0-.06.1,0ZM2,16l.07,0,.11,0h0ZM2,16s0,0,0,0l-.18,0,.14-.11.23-.07,0,.06Zm-.24,0L1.65,16h0l.1-.07.15,0-.13.1-.21,0v0Zm.38-.19h0Zm0,0-.13,0h0l.15-.11,0,0Zm-.16.05h0l-.22.07L2,15.67l0,0Zm-.29.09-.06,0v-.07L2,15.55l.07.1Zm-.07,0H1.46l.09-.07ZM1.49,16l0,0h0Zm0-.05h0l0,0,.11-.25.06-.06c0,.08,0,.16,0,.24l-.1.08Zm.07-.31,0-.06,0,0v0Zm0-.08,0,0v0ZM1.37,16v0l-.12,0c0-.06,0-.12,0-.17A1.57,1.57,0,0,0,1.37,16Zm0,0h0Zm0,.05,0,0h0s0,0,0,0l-.1,0,0-.06Zm0,0h0Zm0,0,0,0h0v0H1.47Zm.07,0v0l0,0Zm0,0,.15,0,0,0h0l0,0,.2,0-.09.05-.26.1,0,0Zm0,.09h0v0Zm1.21,1H2.67l-.16-.08.24.05ZM2.37,17l-.22-.11.54,0,0,.16Zm.39-.4.42-.09s0,0,0,0a2.75,2.75,0,0,0,.35-.09s0-.06,0,0a6.27,6.27,0,0,1-.78.12l0-.07L3,16.39s0,0,0,0l-.29.05,0-.07h0l.75-.13a0,0,0,0,0,0,0L3,16.23,3.64,16l.14,0q.16.35.3.71c-.42,0-.84.11-1.27.18C2.8,16.78,2.78,16.71,2.76,16.63Zm1-.71c-.32.06-.65.12-1,.19.29-.13.59-.27.87-.42l.1.23Zm-1.5,0v0l.24-.11v0Zm0,0,0-.06.26-.1,0,0Zm-.09-.12h0l.25-.18,0,.08Zm0-.06,0,0,.29-.18,0,0Zm0-.06L2,15.54l.29-.22.07.13ZM2,15.52l-.05-.07s0,0,0,0l.05.07-.38.33c0-.08,0-.16,0-.24a5.75,5.75,0,0,1,.58-.5l.09.17Zm-.38.07v0A6.58,6.58,0,0,1,2.1,15l.05.1A5.65,5.65,0,0,0,1.58,15.6Zm0-.06v0l.14-.32L2,14.84l.09.16A6.33,6.33,0,0,0,1.58,15.54Zm0-.26c0-.16,0-.32,0-.48s.09-.21.15-.31,0,0,0,0-.09.19-.14.29q0-.25,0-.5c.13.17.26.35.37.54A5.48,5.48,0,0,0,1.59,15.28Zm0-.45c-.09.21-.18.41-.27.62a5.52,5.52,0,0,1,.11-.69s0,0,0,0a3.81,3.81,0,0,1,.17-.44C1.57,14.49,1.57,14.66,1.57,14.83Zm-.29.68-.06.15s0-.08,0-.11a7.21,7.21,0,0,1,.21-.77A6.1,6.1,0,0,0,1.28,15.51Zm-.05.27L1.1,16l.07-.35A1.45,1.45,0,0,0,1.23,15.78ZM1.07,16h0l.15-.21h0c0,.06,0,.13,0,.19l-.16,0v0Zm0,0H1Zm0,0s0,.09,0,.14,0,0,0,0,0-.12-.05-.17l.26,0,0,.06-.17,0a0,0,0,0,0,0,0l.15,0h0s0,0,0,0h0l.17,0,0,.06v0l-.26.1a.2.2,0,0,0-.13.13h0l-.06-.23ZM3.2,17.92h0l.11,0Zm-.15-.07-.15-.07h0l.16.08Zm-.13-.12h0l-.19-.1.17.05a2.26,2.26,0,0,0,.49.19H3.18Zm.82.08h.18l.13,0-.22,0Zm.82,0,0-.09.82.07Q5,17.86,4.56,17.85Zm0,0-.59,0-.28-.09a2,2,0,0,0,.53.05,0,0,0,0,0,0,0l.27,0Zm-.32-.13h0a3.63,3.63,0,0,1-.41-.09,2.66,2.66,0,0,0,.49,0s0,0,0,0a3.3,3.3,0,0,1-.58,0l-.3-.06-.26-.1a4.94,4.94,0,0,0,1.25.12l.09.21Zm-1.14-.34L3,17.32H3a12,12,0,0,0,1.41.11l0,.07A4.9,4.9,0,0,1,3.09,17.37Zm.12-.05h.07s0-.06,0-.06-.24,0-.36,0a7.74,7.74,0,0,0,1.38,0l.05.14A9.93,9.93,0,0,1,3.21,17.32Zm-.47-.2,0-.16h.48A6.88,6.88,0,0,0,4,16.89s0-.07,0-.07H4l.12,0,.14.37A9,9,0,0,1,2.75,17.12Zm.94-.28-.35,0,.18,0s0,0,0,0a3,3,0,0,1-.42,0l1-.14,0,.07Zm.44-.14h.06s0,0,0,0H4.12Q4,16.31,3.83,16l.15,0s0-.05,0,0l-.16,0s0,0,0,0h0l-.11-.24.17-.1a12.59,12.59,0,0,1,.46,1.18l-.17,0Zm-.59-1.34-.15-.27L3.58,15l.14.29Zm-.15-.27a5.16,5.16,0,0,0-.59-.81s0,0,0,0a5.28,5.28,0,0,1,.58.81l-.74.43h0l.74-.43.15.27c-.32.15-.65.29-1,.43v0l.05,0s0,0,0,0l-.05,0,0,0,.64-.26s0-.06,0-.05c-.22.07-.44.15-.65.24l0-.09c.16-.11.32-.23.49-.33,0,0,0,0,0,0l-.18.12s0,0,0,0l-.32.19,0,0,.68-.4a0,0,0,1,0,0,0l-.68.4-.07-.14c.19-.14.39-.27.59-.4,0,0,0,0,0,0a6.92,6.92,0,0,0-.59.4l-.09-.17c.13-.1.26-.2.41-.28s0,0,0,0a4.56,4.56,0,0,0-.41.28L2.12,15l.16-.15h0L2.12,15,2,14.81l.09-.11s0,0,0,0l-.09.1c-.12-.19-.25-.37-.38-.54a2.89,2.89,0,0,1,.2-.35s0-.05,0,0a2.27,2.27,0,0,0-.17.28c0-.28,0-.55,0-.82,0,0,0,0,0,0,0,.29,0,.57,0,.86h0s0,0,0,0l0,0a4.42,4.42,0,0,0-.41,1.26,2,2,0,0,1,.09-1.17s0-.05-.05,0a1.77,1.77,0,0,0-.05,1.27L1.06,16h0A7.52,7.52,0,0,1,1,14.42c.15-.44.25-.9.36-1.35l.25-.46a7.33,7.33,0,0,1,2,2.37ZM1.37,13c0-.15.08-.3.13-.44l.08.06Zm-.05.11c-.09.18-.18.37-.26.55v-.05h0c.08-.22.17-.44.26-.66h0c-.1.22-.18.43-.26.65,0,0,0,0,0,0a10.5,10.5,0,0,1,.42-1Q1.38,12.8,1.32,13.07ZM1,13.78s0,.09,0,.13l-.06.16c0-.06,0-.12,0-.18L1,13.6C1,13.66,1,13.72,1,13.78Zm-.12.37a4.43,4.43,0,0,0-.15.77c0-.12,0-.25,0-.37L.89,14C.88,14,.87,14.09.87,14.16Zm0,.1v0c0,.08,0,.16-.06.25h0c0-.07,0-.14.06-.21,0,.17,0,.35,0,.53s0,.09,0,.14,0,.21,0,.32a3.16,3.16,0,0,0,.05.38c0,.13,0,.25.08.38s0,0,0,0H1c0,.08,0,.15.07.22h0a2.93,2.93,0,0,1-.21-.38,9.58,9.58,0,0,1-.16-1A4.31,4.31,0,0,1,.86,14.26Zm7.75,3.09a7.2,7.2,0,0,1-3.85.88,5.11,5.11,0,0,0,2.12-.51s0,0,0,0a5.24,5.24,0,0,1-2.26.51,5.58,5.58,0,0,1-.92-.16l-.34-.13h.31s0,0,0,0H3.8L4,18a0,0,0,0,0,0-.06l-.09,0,.56.05h0l.11,0h0c-.15,0-.31,0-.46,0h0c.16,0,.31,0,.46,0v0c-.25,0-.49,0-.74,0h0c.25,0,.49,0,.74,0l0,.07h0l0-.06a9,9,0,0,0,1.48-.12,7.12,7.12,0,0,1-1,.16s0,0,0,0A9.77,9.77,0,0,0,8,17.3s0,0,0,0a13.15,13.15,0,0,1-1.86.59s0,0,0,0l-.22,0s0,0,0,0a5.54,5.54,0,0,1-1,.07,8.87,8.87,0,0,0,1.14-.17l.2,0s0,0,0,0l.35-.08s0,0,0,0l-.46.1c-.24,0-.49.07-.73.09,0,0,0,0,0,0l-.89-.08-.08-.21a10.25,10.25,0,0,0,1.84-.24s0,0,0,0a11.44,11.44,0,0,1-1.84.24l0-.07a3.28,3.28,0,0,0,.43,0s0,0,0,0l-.43,0-.05-.14a7.91,7.91,0,0,0,1-.11,0,0,0,1,0,0,0,9.65,9.65,0,0,1-1,.11v0s0,0,0,0h0l-.14-.37.17,0,0,.13a0,0,0,1,0,0,0l0-.12.26,0s0,0,0,0l-.26,0a12.69,12.69,0,0,0-.45-1.19c.29-.16.57-.32.84-.5.47.66.9,1.36,1.33,2.05,0,0,0,0,0,0-.43-.7-.86-1.4-1.33-2.06.25-.17.51-.33.75-.52s0-.28-.12-.2-.53.33-.8.49a9.32,9.32,0,0,0-1-1.16,0,0,0,1,0,0,0,9.65,9.65,0,0,1,1,1.16c-.27.15-.54.29-.82.43L3.6,15l.74-.43s0,0,0,0L3.59,15a7.25,7.25,0,0,0-2-2.39c.19-.34.4-.67.6-1,0,0,0,0,0,0-.2.32-.41.65-.6,1L1.5,12.5l0-.12.11-.21s0,0,0,0l0-.08a9.47,9.47,0,0,1,.58-.83,0,0,0,1,0,0,0c-.18.23-.36.47-.52.72a2.92,2.92,0,0,1,.4-.64s0,0,0,0a3,3,0,0,0-.49.81l-.06.09s0,0,0,0v0l0,.08-.1.19-.09-.07a0,0,0,0,0,0,0l.09.07a8.32,8.32,0,0,0-.51,1.25c0-.06,0-.13,0-.19h0c0,.08,0,.17,0,.26l-.22.69A2.66,2.66,0,0,1,1,13.2s0-.05,0,0a3.33,3.33,0,0,0-.16,2.56,6.41,6.41,0,0,1-.18-.82c-.16-2.06,1.5-4.43,2.72-5.77l0,0L3.47,9l.68.43A4,4,0,0,1,5.4,10.87a12.09,12.09,0,0,1-.46,1.6.67.67,0,0,0-.06.19s0,.06,0,.09a1.44,1.44,0,0,0,1,1.58,2.22,2.22,0,0,0,.93.06l.11,0a1.8,1.8,0,0,1,1.72,1.48c0,.16,0,.34,0,.54a5.43,5.43,0,0,1-.06.92Z"/><path class="cls-1" d="M1.18,15.22h0a2.48,2.48,0,0,1,.33-1.42h0A2.48,2.48,0,0,0,1.18,15.22Z"/><path class="cls-1" d="M1,15.07H1a1.77,1.77,0,0,1,0-.51H1A1.85,1.85,0,0,0,1,15.07Z"/><path class="cls-1" d="M1.66,12.21a0,0,0,0,0,0,0l.06,0s0,0,0,0Z"/><path class="cls-1" d="M4,13.36l.22.37h0L4,13.35Z"/><path class="cls-1" d="M2.73,11.93a8,8,0,0,1,1,1.4h0a7.06,7.06,0,0,0-1-1.41Z"/><path class="cls-1" d="M3.6,11.59s0,0,0,0a3.12,3.12,0,0,0-.78-.79,0,0,0,1,0,0,0A3.4,3.4,0,0,1,3.6,11.59Z"/><path class="cls-1" d="M4.15,12.09a10.42,10.42,0,0,0-1.32-1.71s0,0,0,0a11,11,0,0,1,1.32,1.7Z"/><path class="cls-1" d="M4.1,11.3a5.78,5.78,0,0,0-1-1.22,0,0,0,1,0,0,0,6.62,6.62,0,0,1,1,1.21Z"/><path class="cls-1" d="M3.81,10.24v0Z"/><path class="cls-1" d="M3.78,10.33v-.05l0,.05Z"/><path class="cls-1" d="M4.53,10.07a.69.69,0,0,1,.25.43h0a.65.65,0,0,0-.25-.43Z"/><path class="cls-1" d="M6.27,12.92h0l.24-.87a0,0,0,1,0,0,0Z"/><path class="cls-1" d="M6.42,11.19a3.2,3.2,0,0,0-.69-1.5s-.05,0,0,0a3.44,3.44,0,0,1,.71,1.48S6.43,11.2,6.42,11.19Z"/><path class="cls-1" d="M6.07,10.4s0,0,0,0a2.4,2.4,0,0,1,.24.7A2.49,2.49,0,0,0,6,10.44a0,0,0,0,0,0,0,2.91,2.91,0,0,1,.34,1.23,2.66,2.66,0,0,1-.15.79s0,0,0,0A2.36,2.36,0,0,0,6.07,10.4Zm.23.93s0,.08,0,.11Z"/><path class="cls-1" d="M6.52,13.36A2.2,2.2,0,0,1,8,14.07s0,0,0,0a2.11,2.11,0,0,0-1.49-.7Z"/><path class="cls-1" d="M2.26,6.45A25.28,25.28,0,0,1,5,8.32s0,0,0,0A23.63,23.63,0,0,0,2.27,6.43S2.25,6.44,2.26,6.45Z"/><path class="cls-1" d="M3.88,7.4a7.27,7.27,0,0,1,1.27.91,0,0,0,1,0,0,0,6.87,6.87,0,0,0-1.27-.91S3.86,7.4,3.88,7.4Z"/><path class="cls-1" d="M5.59,8.46A23.91,23.91,0,0,0,3.48,7s0,0,0,0c.7.5,1.44.93,2.1,1.5C5.58,8.48,5.59,8.47,5.59,8.46Z"/><path class="cls-1" d="M10.3,16.18a1.52,1.52,0,0,1,.16.56h0a1.62,1.62,0,0,0-.17-.57Z"/><polygon class="cls-1" points="17.81 5.98 17.8 5.98 17.8 5.98 17.81 5.98"/><path class="cls-1" d="M17.28,5.21s0,0,0,0A1.11,1.11,0,0,1,17.8,6h0A1.12,1.12,0,0,0,17.28,5.21Z"/><path class="cls-1" d="M9.68,9.87s0,0,0,0a3.79,3.79,0,0,1,.3.4,0,0,0,1,0,0,0,2.94,2.94,0,0,0-.72-.82s0,0,0,0a3.31,3.31,0,0,1,.41.4l-.34-.22a4.14,4.14,0,0,0-.85-.73s0,0,0,0a6.2,6.2,0,0,1,2.24,3.13h0A7.5,7.5,0,0,0,9.35,9.66Z"/><path class="cls-1" d="M16.49,6.24a0,0,0,0,0,0,0,1,1,0,0,1,.45.63,0,0,0,0,0,0,0A1.07,1.07,0,0,0,16.49,6.24Z"/><path class="cls-1" d="M6.28,8.38A19,19,0,0,0,3.77,6.63s0,0,0,0A22.72,22.72,0,0,1,6.27,8.4S6.3,8.39,6.28,8.38Z"/><path class="cls-1" d="M8.64,11.29a0,0,0,0,0,0,0c.1.1.18.22.27.33a8.23,8.23,0,0,1,.84,2.14,0,0,0,1,0,0,0A8.64,8.64,0,0,0,9,11.84a10.11,10.11,0,0,1,1.43,2.67s0,0,0,0A8.76,8.76,0,0,0,9,11.65a7,7,0,0,0-1.3-1.76s0,0,0,0a9.4,9.4,0,0,1,1.08,1.46Z"/><path class="cls-1" d="M8.08,11.05a16.39,16.39,0,0,0-1.61-2.2,0,0,0,1,0,0,0,19,19,0,0,1,1.61,2.19S8.08,11.06,8.08,11.05Z"/><path class="cls-1" d="M6.44,13.57a5.81,5.81,0,0,0,1.08.33s0,0,0,0a9,9,0,0,1-1.09-.32Z"/><path class="cls-1" d="M5.71,15.45a5.94,5.94,0,0,1,1,2s0,0,0,0a5.68,5.68,0,0,0-1-2S5.7,15.44,5.71,15.45Z"/><path class="cls-1" d="M6,15.11A7.13,7.13,0,0,1,7.1,17.24h0A6.81,6.81,0,0,0,6,15.09S6,15.09,6,15.11Z"/><path class="cls-1" d="M6.87,15.4a3.93,3.93,0,0,1,.55,2h0a3.56,3.56,0,0,0-.53-2S6.86,15.39,6.87,15.4Z"/></svg>