<svg id="Layer_1" data-name="Layer 1" xmlns="http://www.w3.org/2000/svg" viewBox="0 0 21.14 21.47"><defs><style>.cls-1{fill:#231f20;}</style></defs><title>ilustracije_razmerje</title><path class="cls-1" d="M19.84,3.83C16.75-1.43,9.15-.77,5.08,2.78c0,0,0,0,0,0l-.32.28C.89,6.23-1,11,.55,15.47c0,0,0,0,0,0l.08.23a2,2,0,0,0,.52,1.08,11.11,11.11,0,0,0,.8,1.35c3.32,4.73,9.93,3.91,13.87.56C20.06,15.07,22.94,9.12,19.84,3.83ZM2.23,6.34a18.48,18.48,0,0,1,1.91-2.2l0,0q-.29.34-.55.71c-.26.27-.51.56-.74.85a.05.05,0,0,0,0,0A8.61,8.61,0,0,0,1.74,7.22h0v0c-.06.11-.1.23-.15.34a5.89,5.89,0,0,0-.39.82,6.2,6.2,0,0,0-.68,2h0l0,.06H.43A13.26,13.26,0,0,1,2.23,6.34ZM9,9a26.13,26.13,0,0,0-2.44,2l-.3.23-.13-.47A12.64,12.64,0,0,1,8,9l.35-.18s0-.09,0-.07l-.09,0s0-.08-.05-.05-.21.17-.31.25a13.33,13.33,0,0,0-1.54.92c.45-.34.91-.67,1.33-1,.07,0,0-.17-.07-.12a25.85,25.85,0,0,0-2.09,1.55l0-.08A9.6,9.6,0,0,1,8.79,7.58s0-.07,0-.06a8,8,0,0,0-1.17.67s0,0,0,0l-.15.11a18.16,18.16,0,0,1,2-1.48,0,0,0,0,0,0-.07,18.2,18.2,0,0,0-3.49,2.7h0a5.66,5.66,0,0,1,1.52-1.6c.09-.07,0-.22-.09-.15A6,6,0,0,0,5.85,9.11c0-.2,0-.41-.06-.61.22-.21.44-.42.67-.61a7.54,7.54,0,0,1,1.08-.7c.06,0,0-.09,0-.1a7.62,7.62,0,0,1,2.74-1.24c.06,0,0-.1,0-.09A8.28,8.28,0,0,0,6.75,7.48a8,8,0,0,0-.88.65A9.53,9.53,0,0,1,10,5s0-.09,0-.08A9.28,9.28,0,0,0,5.76,8.16V8q.68-.76,1.38-1.49c.05-.05,0-.14-.08-.08q-.67.69-1.31,1.4,0-.41,0-.81c.52-.5,1-1,1.6-1.44l.09-.05s0,0,0,0q.55-.45,1.14-.88c.61-.26,1.25-.48,1.88-.68a10.82,10.82,0,0,0,1,3.44c-.78.46-1.55,1-2.3,1.49-.06-.17-.13-.33-.18-.5a0,0,0,0,0-.09,0C8.89,8.61,9,8.78,9,9Zm-2,4.71L7,13.81l-.14-.25L7,13.42Zm0-.29.77-.62a7.56,7.56,0,0,1-.67.85Zm2.23,3.41L9,17l-.34,0-.16-.07-.2-.19.58-.33C9,16.55,9.12,16.67,9.27,16.79Zm1.65,0-.77.42L10,17.08l.33-.21Zm2.42-2.19c-.16.17-.34.33-.51.5L11.71,13.4q.63-.67,1.2-1.39.42.45.88.86c-.41.45-.83.88-1.25,1.32,0,0,0,.06,0,0,.42-.44.83-.88,1.24-1.33a15.72,15.72,0,0,0,1.43,1.17,18.3,18.3,0,0,1-1.86,1.75l-.06-.08a5.94,5.94,0,0,0,.67-.51s0-.11-.07-.07a5.85,5.85,0,0,1-.66.49h0l.15-.12s0-.07,0,0l-.15.11-.32-.46c.17-.17.35-.33.52-.51S13.38,14.5,13.34,14.55Zm2.49-.23-.39-.26a7.64,7.64,0,0,0,.88-1.22.06.06,0,0,0-.1-.06,7.72,7.72,0,0,1-.89,1.2,16.89,16.89,0,0,1-1.43-1.17,12.46,12.46,0,0,0,1.89-2.58,0,0,0,1,0,0,0,12.44,12.44,0,0,1-1.9,2.57q-.46-.42-.88-.87a16.43,16.43,0,0,0,2.31-4A15.47,15.47,0,0,0,18,9.84a0,0,0,0,0,0,0,8.16,8.16,0,0,1-1,3A17.14,17.14,0,0,1,15.83,14.32ZM14.12,16.1s0,0,0,0l-.32.25-.14-.19.39-.37s0-.12-.07-.07l-.4.34-.11-.15a16,16,0,0,0,1.9-1.79l.4.26C15.24,15,14.7,15.56,14.12,16.1Zm1.74-1.64,0,0-.61.61C15.48,14.89,15.67,14.67,15.86,14.46Zm-.59.65-.25.24ZM20,8.72a14.55,14.55,0,0,1-.34,2.12l0,.1q0-.36,0-.72s.08.06.09,0a8.3,8.3,0,0,0-.1-3.35c0-.21,0-.43,0-.64A15.34,15.34,0,0,1,20,8.72ZM17,3.93l-.08-.09a3.76,3.76,0,0,0,.47.43A2.56,2.56,0,0,1,17,3.93Zm3.21,2.9h0Zm.08,1.61a11.91,11.91,0,0,1-1,4.72c0-.07,0-.14.06-.21a8.09,8.09,0,0,0,.21-.83A12.87,12.87,0,0,0,20.19,8C20.2,8.14,20.22,8.29,20.24,8.43Zm-4.49,9.5a10.73,10.73,0,0,0,.75-.9.09.09,0,0,0,.05,0c.31-.31.64-.64,1-1q-.43.57-.91,1.12T15.75,17.93ZM5.8,4l-.13.13c-.21.14-.42.27-.62.43,0,0,0,0,0,0,.17-.13.34-.23.51-.35A11.6,11.6,0,0,0,4.43,5.51c0-.1,0-.19,0-.29a6.94,6.94,0,0,1,.43-.62c.19-.17.4-.33.6-.5l.31-.17Zm.95,2q-.54.46-1.06,1s0-.07,0-.1c.22-.22.45-.43.69-.63Zm-.66,4.6c-.22.24-.45.47-.66.72l-.13-.43v0l0-.06A14.78,14.78,0,0,1,7.44,9.3a12.25,12.25,0,0,0-1.33,1.2L6,10.28s0,0,0,0ZM11,16.85h0l.4-.23c.25-.08.5-.17.75-.27-.41.3-.81.61-1.23.89-.17,0-.35.06-.52.09l-.13-.08C10.53,17.12,10.77,17,11,16.85Zm2-.56.4-.33.11.15-.29.25a.07.07,0,0,0-.09,0L13,16.4,12.79,16c.16-.09.33-.17.49-.27l.06.08-.42.35C12.86,16.25,13,16.34,13,16.29Zm1.24.82.11.15-.48.33-.16-.13.22-.16Zm4-3.25.24-.37A10.77,10.77,0,0,1,17.73,15C17.92,14.64,18.09,14.25,18.25,13.85Zm1.1-2c-.11.35-.21.69-.35,1,0,.07.08.11.11.05s0,.17-.07.26a8.2,8.2,0,0,1-2,2.93l0,0L17.2,16c.09-.09.18-.17.27-.27s0-.06,0-.06c.14-.2.27-.41.39-.62a5.75,5.75,0,0,0,1.25-2S19,13,19,13a5.78,5.78,0,0,1-1,1.65,11.35,11.35,0,0,0,.65-1.5,9.87,9.87,0,0,0,.69-1.37ZM5.74,20.44l-.21-.08-.08,0v0l.27.1,0,0Zm-3.92-12,.13-.26c.08-.14.16-.28.25-.41-.22.38-.44.76-.63,1.16,0,0,0,0,0-.06l.22-.42S1.81,8.44,1.81,8.43Zm12,9.24a18.17,18.17,0,0,1-1.83,1l-.12,0a13.46,13.46,0,0,0,1.8-1.11Zm2-.36h0l0,0ZM2.34,6.61l-.08.12.05-.09Zm.75,0h0c.19-.29.41-.56.63-.82a14.14,14.14,0,0,0-.9,1.55.05.05,0,0,0,0,.08c-.18.25-.34.5-.51.75l0-.22C2.6,7.53,2.84,7.09,3.09,6.65Zm8.6,12.05.11,0-.43.2h-.23l.15-.05s0,0,0,0Zm-.61,1.39h0a10.68,10.68,0,0,0,1.39-.65s0,0,0,0h.17l-.06,0a0,0,0,0,0,0,0l.11-.06h.11a6.18,6.18,0,0,1-.73.39s0-.09-.08-.08C11.7,19.86,11.4,20,11.09,20.1Zm-9-13L2.13,7,2.1,7Zm2.86,5.51v.05c-.18.2-.34.41-.51.62l0-.09,0-.07L4.5,13Zm1,2.2-.06.06v0l.06,0Zm3.86,4.05H10l-.19.08h0l-.1,0ZM2.25,8.74c-.22.37-.43.75-.61,1.14v0q.18-.4.37-.78s0,0,0,0,.13-.21.2-.32Zm-.67,1.43,0,.11,0-.07ZM5.39,15l0,0-.23-.2.09-.07Zm-.11-.29.43-.32s0,0,0,0,0,.23.07.34l-.31.2ZM7.9,18.08l-.2.07h0c-.08-.07-.16-.14-.24-.22l.34-.1.25.15Zm3.29,1.55-.38.15a.07.07,0,0,0-.05-.11h0ZM7.51,18.26l-.15,0-.09,0c.06,0,.11-.06.06-.1L7.16,18l.07,0C7.32,18.1,7.42,18.18,7.51,18.26Zm-3.88-5.7,0,.13h0l-.1.11h0c0-.07,0-.14.06-.21Zm7.16,6.83h0l.25,0-.07,0h-.34l-.91,0-.1,0,.57-.1A3.28,3.28,0,0,0,10.79,19.39ZM6,16.37s.07,0,.08,0l.27.28-.23.14a4.23,4.23,0,0,1-.39-.27v0L6,16.34Zm1,.93.08,0L7,17.38l0-.06Zm0,.43H7l.06.08-.13,0-.15-.12.07,0s0,0,0-.06l.06,0,.08.1S7,17.73,7,17.73Zm2.53,1.78-1,.11,0,0-.42,0,.63-.2H9l.42,0Zm-3.21-.23h0l.25,0,.11,0,.15.08-.18-.05s-.06,0,0,.07Zm-5.1-8.17,0-.09c0,.07,0,.15,0,.22s0,.15-.05.23c0-.1,0-.2,0-.3Zm0-.08,0-.07v0Zm.56-.73h0l0-.07h0l-.1.21Zm1.9,2.58L3.59,13v0l.11-.17Zm.13-.24h0l0,0,0,0Zm4,6.85-.33-.12c.24,0,.48,0,.73,0ZM1,12.6c0,.06,0,.12,0,.17v0s0-.05,0-.08Zm1.78-1.92h0Zm5,8.17-.46.1L7,18.76c.18,0,.36,0,.54,0l.25.09ZM1.9,11.7l0-.05c0,.08,0,.16,0,.24s-.1.22-.15.34c0-.11,0-.23,0-.34Zm2.51,2.92h0c0,.17,0,.34.08.51l0,0c-.2-.36-.39-.73-.56-1.08h0L4,14l.2.2Zm1.67,3.53-.16,0L6,18.12ZM4.6,16l-.2-.21,0-.12.08,0,.26.33h0Zm.71,1.13-.14,0-.11-.07L4.93,17l-.18-.18.33-.1C5.15,16.88,5.23,17,5.3,17.15Zm-2.86-4h0v0h0l0-.1,0-.06S2.44,13.14,2.44,13.18Zm1.7,2.45L4,15.68l0-.06.12-.07Zm.92,3.09h0ZM1.35,13.14l0,.19,0-.06s0-.1,0-.14v0Zm2.47,2.61h0l0,0h0ZM2.55,14.17v0l0,0v-.06Zm-.49.77s0,0,0,0l0,0a.07.07,0,0,0,0,.07v0L2.05,15v0h0Zm.16.47,0-.05-.06-.08,0-.12s0,0,0,0S2.18,15.32,2.22,15.41Zm.15.4,0,.1-.09-.1h0l0,0Zm.88.55,0,0h0Zm-.95-.62,0,.05,0,0,0-.06Zm.76-.27h0Zm-.86.14v0h0ZM3,15.18H3c0,.09,0,.16,0,.24h0l-.13-.19.1-.09Zm-1.1-.11v0l0,0,0,.11Zm1.05,0-.11.1-.06-.1L2.94,15Zm-1-.13,0,0h0l0,0ZM3.16,15h0l0,0Zm0-.09,0,0,0-.08,0,0Zm-.28-.11,0,.06-.12.1h0Zm-.44.37,0,0,0,0S2.42,15.19,2.42,15.19Zm-.22-.31,0-.05h0Zm-.3-.27,0-.11,0,.09Zm0,.25c0-.07,0-.14,0-.22l.08.18Zm1.2-.1,0,0H3l0,0Zm-.36-.13c0,.05,0,.1,0,.15h0v0l-.09-.18v-.07l.05,0Zm-.11.31v0l-.17-.3,0,0C2.51,14.74,2.56,14.84,2.61,14.94Zm.46-.22,0,0,0-.1,0,0Zm-.52-.39h0Zm-.42.41h0l0,0v0ZM2,14.56l0-.06s0-.09,0-.14l.13.28,0,0Zm-.46.84v0h0ZM4.32,18l0,0h0Zm.14-.42h0Zm.12.12.07.09-.08-.09ZM3.47,15.41v0Zm-.51-1,0,.06,0-.11.06,0Zm-.41-.11h0Zm-.15.15,0,.05,0,0h0l0,0Zm-.92.67v.06s0,0,0,0l0,.09h0l-.07-.19v0ZM3,17.6A.08.08,0,0,0,3,17.54l.07.06a.13.13,0,0,0,0,.09L3,17.62Zm.9-1.76h0l0,.07Zm-1-1.62v0l0,0v0Zm-.26.14,0,0h0v-.05l0,.07Zm-.26,0-.06.07h0l.06-.08Zm-1-.67c0-.06,0-.13-.07-.19s0-.16,0-.25a3.62,3.62,0,0,0,.1.35S1.36,13.71,1.36,13.73Zm.08,1.33v0Zm1.63,2.75h0v.06l0-.06Zm1.6.53h0l-.07-.06.07,0Zm0-1.19-.26-.22.08,0,.08.06ZM3.43,14.48l.05,0v0l-.05,0Zm-1-.61s0,0,0,0,0,.12,0,.18v.1c0-.09-.06-.18-.08-.27l.08-.1Zm-.1.42-.08.1-.12-.26L2.27,14C2.29,14.09,2.32,14.19,2.35,14.29ZM2.12,14c0-.07,0-.13,0-.2l.11-.15c0,.07,0,.13,0,.2Zm0-.42,0-.07v0Zm-.08.06c0-.09,0-.19,0-.28v-.07l0-.11,0-.09c0,.1,0,.2,0,.3Zm.89,4h0l0-.08Zm1.82.76h0l0,0h0ZM5,17.55H5ZM3.42,14.41c0-.07,0-.14,0-.21l.06-.07c0,.08,0,.15,0,.23Zm-1-.8h0l-.07-.19,0,0C2.43,13.47,2.44,13.54,2.46,13.61Zm-.07.09-.07.09c0-.07,0-.14,0-.22l0,0Zm-.12-.24v-.08h0l0,.07Zm-.33-.24-.09.21-.07-.2c.09-.16.16-.32.25-.47C2,12.91,2,13.07,1.95,13.22Zm-.33.48h0Zm-.3-.62s0,0,0-.05v0Zm2.61,5.17,0,0,0,0Zm1,.3h0l0,0ZM3.59,15l0,0h0Zm-.12-.3,0-.06h0s0,.08,0,.13Zm-.63-.59-.06.1,0,0L2.84,14Zm-.45-.74,0,0,0-.08,0,0ZM2.3,13.2,2.23,13l0-.08.06.22Zm-1.17.61s0,0,0,0h0c0,.16,0,.31,0,.47L1.12,14c0-.14,0-.27,0-.41C1.12,13.69,1.12,13.75,1.13,13.81Zm-.25,0h0Zm4.15,5H5Zm.26.07,0,0-.09,0Zm-.11-1.44-.05-.06h0l.25.2ZM4.06,15.78l.13,0c0,.13.09.26.15.39h0l-.05,0ZM3.63,15h0v0Zm-.07-.21v0l0,.07Zm-.36-.74,0,0-.07-.28.06-.1Zm-.48,0,0-.06.1-.13,0,.09Zm-.12-.28h0Zm-.22-.71-.06-.22,0-.05.08.18Zm-.25-.64h0v0Zm0-.08v0Zm-.7.87v0l0-.13,0,.08Zm-.38.71v0h0c0-.09,0-.18,0-.27l0,0C1.07,13.66,1.09,13.78,1.09,13.9Zm1.58,3.67.06.08-.07-.08Zm3.28,1,.11.06H6Zm-.22-.44-.29-.34.5.25-.19.11ZM4.37,16.28l.24-.11.37.39-.37.1Zm.12-.22,0,0,0,0Zm-.19-.5,0-.13h0l.09.12Zm.08-.22.05.11-.07-.1Zm-.48.19,0-.07-.09-.27.23.28ZM3.73,15h0Zm-.35-1.1,0,0c0-.06,0-.11,0-.17l0,.07Zm-.63-.25v0l-.11.14,0-.16,0-.25.09.2Zm-.22-.22v0c0-.07,0-.13,0-.2l0,0,0,.07Zm-.12-.81v0s0,0,0,0Zm0-.38-.15.27,0-.13.12-.16Zm-1.19.11h0Zm-.14,1.18v-.07l0,0Zm5.12,5.19h.05l.15.08-.05,0ZM4.7,16.12h0a.06.06,0,0,0,0,0l.09.18Zm-.62-.69h0l-.31-.36s.09,0,.07,0-.1-.34-.15-.52l0,0,0,.08s0,0,0,0l.09.14C3.94,15,4,15.23,4.08,15.43Zm-1-1.88-.06.11h0v0l.07-.16Zm-.59-.65,0-.06c0,.06,0,.12,0,.19Zm0-.1c0-.06,0-.13,0-.19s0,0,0,0v0l0,.16ZM1.23,12h0v0Zm-.09.61s0,0,0-.06h0Zm-.21.76,0-.11v0S.94,13.28.94,13.33Zm3,5.29H4Zm2.48.26h0l.06,0ZM6.09,18,6,17.86l-.06-.07.27.12Zm-.73-.64h0l0,0Zm.11-.23-.1-.1h0l-.11-.18.28.25ZM4.34,15.26l0,0c-.09-.14-.17-.28-.26-.42l-.14-.43C4.05,14.7,4.19,15,4.34,15.26ZM3.49,13.8v0s0-.08,0-.12l0,.12Zm-.09-.33V13.4h0S3.4,13.44,3.4,13.47Zm-.71-.83,0,0,0,.09Zm0-.1v0l.05,0v0Zm0-.14-.06.05,0-.21.05-.09,0,.09C2.71,12.29,2.71,12.35,2.72,12.41Zm-.31-1.05s0,.09,0,.14h0l-.21.22ZM2,11.69l0-.18.3-.42Q2.15,11.38,2,11.69Zm.14.24c-.05.08-.09.17-.14.25L2.06,12Zm.08-.11,0,0Zm-.94,0h0l0,.09v0l0-.09Zm-.12.6h0s0-.06,0-.09ZM4,18.67H4l0,0H4Zm2,.22.1,0H6Zm.86-.11h0l0,0Zm.39-.14.07,0H7.12ZM7,18.57l-.1.05h0l-.07,0-.08-.06L7,18.55Zm-.29.14h0l-.11-.06h0Zm-.31-.17c-.16-.08-.31-.16-.46-.26l.23,0c.09.1.19.19.29.28ZM6.23,18,6.38,18l.06,0-.2,0Zm-1-1.36h0l0,0ZM2.75,13l0-.1c0,.19.06.37.09.56C2.82,13.27,2.78,13.12,2.75,13Zm-.12-1h0Zm-1.16-.35v0Zm2.46,7.24L4.2,19v0h0ZM6.11,19l.08,0L6,19Zm1.07.2h0ZM6.6,18.5c-.1-.08-.19-.17-.28-.26l.44.22Zm-.74-.91h0Zm-.14-.07,0,0-.16-.24h0l.24.24Zm-.31-.92.13-.06.27.37L5.7,17Zm-.32-.07,0,0,0-.09h0l.07.1Zm-.55-1.28h0v0Zm0-.17c0-.15-.05-.3-.08-.46a.07.07,0,0,0,0-.07L4.7,15Zm-.21-.91-.15-.35,0,0,.13.38Zm-.18-.46,0,0h0Zm-.05-.12h0l0,0v0Zm-.38.17v0h0l0,0ZM3,13v.18H3c0-.15-.05-.3-.07-.45Zm0-.89L3,12s0,.07,0,.1Zm0-.41c-.06.15-.11.31-.16.46l0-.27,0-.07L3,11.69Zm-.42,0v0Zm-.94.76,0,.09,0,0,0-.12s0-.09,0-.13l.11-.27C1.66,12.25,1.65,12.38,1.64,12.51Zm-.17-.86v-.11c0,.09,0,.17,0,.26S1.48,11.7,1.47,11.65ZM.66,14.36l0,.06h0Zm2.51,4.18.12.11.06.09-.06,0-.2-.2Zm3,.6,0,0h0Zm2.49,0-.12,0H8.18l-.58-.13h0l.5-.1.31.09.11,0Zm-2.15-1,.1,0,.28.2Zm.08-.34.06,0,.13.1-.07,0Zm-.52-.18,0,0h0ZM6,17.58l-.08-.07s0,0,0,0l-.27-.25h.05l.32.35Zm-.05-.75h0Zm-.53-.41-.1,0q-.19-.26-.37-.53A5.17,5.17,0,0,0,5.42,16.43Zm-.8-1.23.14-.1.1.21-.18.09Zm-.67-1.64-.07.14,0,0,.11-.11Zm-.24,0,0,0c0-.12-.05-.25-.08-.37L3.74,13c0,.13.09.26.14.38ZM3,12.71c0-.11-.09-.22-.13-.34v0L3,12.2H3c0,.12,0,.23,0,.35Zm-.36-1.16h0Zm.08-.72v0l.06-.09a0,0,0,0,0,0,0h0s0,0,0,0L2.74,11ZM1.68,12.06l-.11.27v-.08h0v0Zm-.53-.35-.07.17s0-.06,0-.09,0-.21.06-.32C1.14,11.56,1.14,11.64,1.14,11.71ZM.71,14.65v0s0,.09,0,.13,0,.17,0,.25a1.3,1.3,0,0,1-.08-.19,0,0,0,0,0,0,0Zm6.13,2.84-.19.12-.12-.13.24-.09Zm-.32.19-.08,0,0,0-.14-.14.11,0Zm-.33-.18-.32-.33.1,0c.1.11.21.22.32.33Zm-1.47-2,.17-.09c.11.24.24.46.37.69A6.26,6.26,0,0,1,4.73,15.52Zm.15-.66,0-.09.08.07Zm-.82-1.67,0,0c-.05-.14-.1-.29-.14-.43l0,0,.13.32ZM2.78,11.47v-.09l.08-.11a.08.08,0,0,0-.1-.13v-.1l.18-.34h0c0,.18,0,.37,0,.55Zm.07-1.54-.18.24v0l.25-.4Zm-1,1.69h0Zm-.11.2L1.64,12l0,0,0-.15.08-.11Zm-.1-.14,0,0,0,0c0-.18,0-.36,0-.54s.13-.34.21-.5a5.53,5.53,0,0,0-.11.72h0C1.66,11.51,1.65,11.59,1.62,11.68Zm.22-1.45,0,.06,0-.13h0l0,.07Zm-.5.69v0h0v0Zm0-.07v-.07h0s0,.05,0,.08Zm-.34,1c0-.06,0-.13,0-.19l0-.08.06-.12C1.05,11.55,1,11.68,1,11.81Zm5.56,7.79-.21-.07,0,0,.05,0c.23.07.45.13.68.19l-.23,0ZM9,19.73l.92-.1.12,0-.25.05C9.52,19.73,9.25,19.73,9,19.73ZM7,18.07H7c.09.06.16.13.25.19Zm.57-.42-.17.06h-.1l-.09-.12.31,0Zm-.37-.21,0,0,0,0ZM6.7,17.3l-.25.1-.31-.33.13,0,.36.16ZM6.45,17l.05,0,0,.06Zm-.11-.15.07,0h0Zm-.11-.4-.13-.15.06,0C6.18,16.28,6.2,16.35,6.22,16.41Zm-.36-.2-.27.13c-.07-.11-.14-.23-.21-.35l.16.23c0,.07.16,0,.11-.07h0l.12-.07Zm-.27-.14c-.16-.23-.32-.49-.47-.75l.08,0c.16.24.33.48.51.72Zm-.53-.86L4.93,15l.06,0,.14.24Zm-.38-.76,0-.11.08.14Zm-.6-1.58L4,12.62l0,0,0,.14S4.08,12.82,4.09,12.87Zm-.66.08h0v-.06h0ZM2.94,9.53v.1L2.68,10l0-.17Zm-.22.24c0-.09,0-.18,0-.27L3,9.08c0,.12,0,.24,0,.36Zm-.23.59,0,.08,0-.13.08-.14C2.5,10.23,2.49,10.3,2.49,10.36Zm-.13.24v0l-.14.21c0-.12.08-.24.13-.36Zm-.47-.5h0Zm-.35-.25h0c0,.06,0,.12,0,.19S1.52,9.9,1.53,9.85Zm-.19.53s0,0,0,0,0-.16.06-.24C1.36,10.21,1.34,10.29,1.34,10.37Zm-.05.34s0,0,0,0,0-.18,0-.27C1.29,10.51,1.29,10.61,1.29,10.71Zm-.15.53,0,.11,0,.1.08-.24Zm8.75,9.13h0ZM8.72,20l.14,0L8.8,20Zm-.57-.07-.85-.14.15,0,.72.08.42.06Zm1.37-.73-.18,0,0,0,0,0h.19ZM7.43,17.45l-.13-.1.17-.11c.13.09.26.16.39.24Zm-.6-.34,0,0,.06.05Zm-.42-.78.14.15,0,0C6.47,16.46,6.43,16.4,6.4,16.34ZM6.08,16l0,.08L6,16.14,5.87,16,6,15.92ZM4,12.56v0s0,0,0,.07Zm0-.09v0a0,0,0,1,0,0,0v0l0,0,0-.1,0-.07,0,.1Zm-.12-.18s-.11,0-.09,0l0,.07h0l0-.09.12-.18,0,.09ZM3.08,8.95s0,0,0,0l0-.07Zm-.56,1.11-.07.11L2.53,10Zm-.47,1,0,0-.15.22v-.07c.09-.18.18-.35.28-.52C2.12,10.87,2.08,11,2,11.08ZM1.45,11v-.07l.08-.18Zm-.28-.22-.05.12.06-.2ZM.94,10.6l0-.16L1,10.12c0,.06,0,.12,0,.18S1,10.5.94,10.6Zm9.22,9.8H10l.06,0h.06ZM9,20A.08.08,0,0,0,8.91,20s0,0,0,0h.21s0,0,0,0l.16,0,.81,0c.09,0,.09-.13,0-.14H10.1s0,0,0,0l.26,0,.3.08c-.28.11-.57.21-.86.29Zm3-.7.14,0-.43.07Zm-2-.19H9.71s0,0,0,0h0l0,0h0ZM9.07,19l-.28,0-.07,0,.38.08Zm-1.41-.58h0l0,0Zm.6-.74,0,0H8.16Zm-1.19-.54H7l-.33-.3.17-.08.38.3ZM6.6,16.7l0,0,.08-.05.05,0Zm-.7-1a0,0,0,0,0-.05.06l.11.11-.14.09,0,0c-.16-.22-.31-.44-.46-.67h0l.51.4ZM4.24,13h0s0-.07,0-.1l0,.07ZM4,12.32l0-.05s0,.08,0,.12ZM4,12.19l0-.08.15-.17V12Zm-.62.41c0-.18-.07-.37-.1-.55a.06.06,0,0,0,.05,0l0,0c0,.2,0,.39.05.59Zm-.13-.78V11.7c0-.09,0-.18,0-.28l0,0c0,.09,0,.19,0,.28Zm.07-.61,0,0v0l0,0S3.29,11.19,3.29,11.2ZM3.2,11h0c0-.2,0-.39,0-.59l.1-.08C3.27,10.53,3.23,10.75,3.2,11Zm.13-1.56.14-.17Zm-.94.66v0l.1-.19Zm-.07.2-.09.25c-.12.19-.23.38-.33.58v0a9,9,0,0,1,.4-.88ZM2,10.74l0-.18a3.06,3.06,0,0,1,.12-.31c0-.06.08-.13.13-.19s0,0,0,0l0-.06s0,.09,0,.14C2.18,10.3,2.07,10.51,2,10.74Zm.18-.66-.08.11v0l.19-.35s0,0,0,.06Zm-.53.43,0,0s0,0,0,0v.07l-.1.23c0-.06,0-.12,0-.17l.16-.22Zm-.2,6s0,0,0,0l.22.36,0,0,0,0h0l-.26-.44Zm9,3.67.06,0s0,0,0,0l.35-.05a0,0,0,1,0,0-.1l-.45.08a11.55,11.55,0,0,0,1.16-.46h0l.75-.11a13.14,13.14,0,0,1-1.44.64Zm1.85-.92h0s0,0,0,0l.56-.19.31,0-.06,0-.65.16Zm.85-.31.41-.14-.21.17Zm-1.79.23,0,0,.06,0ZM9,18.73l.19.09-.3-.06.1,0Zm-.42-.07h0l-.1,0,.14,0,0,0Zm-.39-.08-.28-.23h0a4.15,4.15,0,0,0,.46.21Zm-.23-.76h.39l-.2.12ZM6.81,16.53,7,16.41l.09.06-.22.11Zm-.12-.12-.31-.32.07,0,.4.26ZM6.27,16l0-.07.07,0Zm-.63-.74-.12-.16.27-.18c0,.18.06.37.11.54Zm.25-.54,0-.09,0,.07Zm-.87,0,0,0-.29-.49.1-.14c.11.19.22.38.33.56ZM4.61,14l-.08-.15-.11-.25.1-.08.18.34Zm-.23-.5v0l.09-.1,0,.05Zm-.06-.16,0-.08.06-.1,0,.08Zm0-.45-.08-.17c0-.12,0-.24,0-.35l.16-.21c0,.14,0,.28,0,.42s0,0,.07,0S4.34,12.84,4.28,12.94Zm0-.83h0l-.14.18c0-.07,0-.14,0-.21l.11-.17Zm-.12-.26s0,0,0,0l.08-.09h0Zm-.71.54c0-.19,0-.38,0-.58l0,0c0,.17,0,.34.08.51Zm-.05-.62h0l0-.06h0v0Zm.11-.65c0-.05-.12-.05-.12,0s0,.13,0,.19l0,.07c0-.14,0-.28,0-.42l0-.06.48-.52Q3.72,10.76,3.54,11.12Zm-.21-.87-.1.09c0-.06,0-.12,0-.18l.16-.29,0,.19Zm0-1,0-.22.3-.42c0,.12-.06.24-.09.35ZM2.8,9.19V9.11L2.92,9Zm-.21.36-.23.4s0-.1,0-.15l.26-.4Zm-.24.16s0,0,0-.06l.21-.36a.06.06,0,0,0-.1-.06l-.07.11q.18-.38.39-.75-.08.35-.14.7C2.54,9.42,2.44,9.56,2.35,9.7Zm-.71.72-.18.24c0-.17.09-.33.15-.49s0,0,0,0a13,13,0,0,1,.67-1.32c0,.06,0,.13,0,.19A12.1,12.1,0,0,0,1.65,10.42Zm.41-1.86c-.06.12-.13.23-.18.35s-.12.16-.17.24v0s0-.09.06-.14,0,0,0,0l.05-.15.27-.31Zm-.49.72,0,0,0-.08Zm-.49,1.26a9.92,9.92,0,0,1,.37-1.43h0l0-.07c0,.12,0,.24,0,.37A9.79,9.79,0,0,0,1.08,10.55Zm4.36,9.62h0Zm6.28-1-.22-.07a5.41,5.41,0,0,0,.81-.18l.19,0ZM8,18.27l0,0,.08,0,.34.23A3.93,3.93,0,0,1,8,18.27Zm.26-.33.19-.11h0l-.12.07Zm1.64-.53.14-.07.06,0Zm-.81.07,0,0,0,0h0Zm-.44-.08-.05,0-.05-.06h0Zm-.21-.16,0-.06.06.05Zm-.37.19,0,0c-.13-.08-.27-.14-.4-.22l.24,0Zm-.43-.31L7.77,17l0,.06Zm0-.21L7.4,17,7.32,17,7,16.71l.26-.14.24.13Zm-.48-.59,0,0,0,.06ZM7,16.2l-.4-.26.06,0c.07,0,0-.16-.07-.12l-.12.07-.18-.12.42-.26c.13.23.26.45.4.66Zm-.8-.52-.09-.07C6.07,15.42,6,15.23,6,15l.35-.34.15.31L6,15.09s0,.06,0,.06l.46-.09.18.33Zm0-1.16L6,14.75l0,0a0,0,0,0,0,0,0l-.12-.17s0-.08,0-.12,0,0-.06,0l.3-.23Zm-1,.09c-.12-.19-.24-.38-.35-.57l.24-.34c.05.27.11.54.18.81l0,0Zm-.45-.75-.17-.32L5,13.18c0,.08,0,.16,0,.24S4.84,13.71,4.74,13.85ZM5,13.07l-.47.37,0-.06L5,12.84C5,12.92,5,13,5,13.07Zm.12-.64,0,0,0,0Zm-.23,0-.06,0,.11-.16s0,0,0,.06Zm-.4.17c0-.28-.05-.55-.08-.82l.41-.58.25-.23h0a5.71,5.71,0,0,0-.12,1C4.79,12.14,4.62,12.35,4.48,12.57Zm-.13-1.39s0-.07,0-.1,0,0,0,0v0l.51-.45C4.67,10.77,4.51,11,4.34,11.18Zm-.12.13v0c-.18.24-.36.49-.53.74,0-.15,0-.3-.06-.44l.58-.52C4.21,11.19,4.22,11.25,4.23,11.31Zm-.61.28v0L4.21,11s0,0,0,0Zm0-.08v-.08q.28-.51.59-1c0,.17,0,.34,0,.51Zm1-2a0,0,0,0,0-.06,0l.17-.22v.06Zm-.26,0v0l0,0Zm-.13.17q-.37.48-.72,1l0,0c0-.17,0-.34,0-.51l.72-.59S4.17,9.66,4.17,9.69Zm-.71.45v-.05q.08-.35.19-.68c.17-.28.35-.54.53-.81l.08-.08c0,.34-.07.68-.08,1Zm.63-1.72L4,8.48A5.79,5.79,0,0,1,4.35,8s0,.08,0,.12S4.17,8.31,4.09,8.42Zm.27-.62a5.8,5.8,0,0,0-.52.91l-.15.17c0-.09,0-.18.06-.26s0,0,0,0l.06-.08s0,0,0,0-.24.33-.37.5v0l.08-.17,0,0,.07-.1h0A7.87,7.87,0,0,1,4,7.9l.29-.23Zm-1.24.83-.18.16s0,.05,0,0L2.84,9q.07-.37.15-.74l.3-.35c-.05.21-.1.43-.14.65Zm.09-.77.18-.29,0,.14Zm-.62.79-.11.17c.15-.29.31-.58.48-.86l0,.13Q2.74,8.37,2.59,8.65Zm.46-1H3c-.25.41-.49.83-.71,1.25,0-.05,0-.11,0-.16.17-.28.34-.56.51-.84l.24-.33Zm0-.46q.23-.43.49-.85c-.08.17-.16.35-.23.52Zm-.79,1Zm-.21.32h0l-.26.31c.08-.22.17-.43.27-.64l.25-.43c0,.06,0,.12,0,.18S2.17,8.29,2.09,8.48Zm-.28.09c-.09.19-.19.38-.27.58,0-.06,0-.13,0-.19s.23-.38.34-.58ZM.26,13.11s0-.06,0-.09h0Zm4.5,6.77-.06,0h0l.09,0Zm8.1-.29.21-.13h.06Zm2.84-2.24-.54.43.08-.07s0-.05,0-.07c.28-.24.55-.48.82-.73l0,0-.42.36S15.67,17.36,15.7,17.34ZM14.43,18l-.45.36c-.25.12-.5.21-.75.31q.61-.32,1.19-.68Zm-1.66.85-.24,0,.22-.07c.08,0,0-.16,0-.13l-.23.07s0-.06-.05,0l-.23.07.22-.12a14.45,14.45,0,0,0,1.5-.82,2.05,2.05,0,0,0,.4.22C13.84,18.33,13.31,18.61,12.78,18.89Zm-1.52-.09-.56.17-.47,0,.26-.09.07,0a16.68,16.68,0,0,0,2.23-.89A12.69,12.69,0,0,1,11.25,18.8Zm-.65-.21-.37.06h0l.59-.31A.52.52,0,0,1,10.61,18.59Zm-1.27.07-.1-.05a.08.08,0,0,0-.09-.11l-.26.07h0l.46-.11.36.21C9.56,18.66,9.45,18.67,9.34,18.66Zm-.14-.29h0ZM9,18.42l-.26.05a5.5,5.5,0,0,1-.47-.3h0l.06,0,.18.11s.09,0,0-.07l-.14-.08.25-.14h0c.15.13.3.26.46.38ZM9.22,18,9,17.81l.15-.05h.09l.17.1c.09,0,.16-.08.08-.13h0l.38-.07.24.07-.64.39Zm1-.35a.07.07,0,0,0,0-.06l.23-.06h0Zm-.6-.25-.07,0,.25-.16.1.05Zm-.26-.08-.05,0,.31-.2,0,0ZM7.14,15.2l.44-.33h0c-.15.11-.28.23-.44.33Zm0-.08L7,15l.39-.07Zm-1.44-.89a6.55,6.55,0,0,1-.39-.64s-.05,0,0,0a6.75,6.75,0,0,0,.4.64l-.22.19q-.12-.46-.19-.92c.14-.18.29-.36.43-.53.11.32.22.64.35,1Zm-.48-1c0-.19,0-.37-.06-.55l.32-.33.13.42C5.43,12.91,5.3,13.06,5.17,13.22Zm-.06-1s0-.1,0-.15l.17-.24,0,.18Zm0-.52c0-.11,0-.22.06-.34l0,.2Zm-.27-.77-.17.16.37-.45h0ZM5.37,10l-.25.28h0v0L5.37,10ZM5,10.37,4.33,11s0,0,0,0L5,10.33Zm-.66.45c0-.19,0-.38,0-.57s.3-.43.46-.64l.19.65Zm.49-1.65V9.12L4.88,9l.24-.19Zm-.33.11-.18.15c0-.35,0-.69.07-1l.07-.08c.05.27.12.53.18.79Zm-.17-1.7-.05,0,.05-.06ZM4,8c-.1.15-.21.29-.3.45l.2-.36h0Zm-.48.5,0-.1,0,0Zm0-.53A0,0,0,0,0,3.4,8c0,.07,0,.15-.06.22,0-.14.07-.28.1-.42l.09-.09C3.5,7.76,3.48,7.85,3.46,7.94Zm0-.37.06-.24.13-.13-.1.27Zm0-.38-.38.57c0-.15.1-.31.15-.46l.34-.43C3.57,7,3.53,7.09,3.49,7.19Zm-.17-.05v0l.37-.49,0,.07Zm.85-1.29-.09.1c.06-.13.12-.27.19-.4,0,.06,0,.12,0,.18l-.09.11Zm-.3.33-.32.37c0-.1.08-.21.13-.31s0,0,0,0a11.81,11.81,0,0,1,.69-1l0,.13A7.77,7.77,0,0,0,3.88,6.18ZM4.52,5l.05-.07.06-.06L4.51,5ZM3.19,6.48l0-.08s0,0,0,0l.16-.21s0,0,0,0ZM3,6.7c-.21.34-.42.69-.59,1,0-.05,0-.11,0-.16q.26-.44.57-.87ZM1.73,8.24l0-.09s0,0,0,0l.1-.27c.1-.16.2-.31.31-.47h0l-.27.44h0l.21-.33L1.86,8Zm.73-1.61a5.66,5.66,0,0,1,.37-.54l-.15.3Zm.82-.9L3.07,6l.22-.39.29-.25C3.48,5.46,3.37,5.59,3.28,5.73ZM3,5.73l-.17.17.23-.27ZM.84,15.65v.07l0-.11Zm8.88,5.13,0,0H9.59ZM14.11,19l-.53.28-.12.05h-.19l0,0a6.26,6.26,0,0,0,.88-.37Zm2.33-2.35-.29.25s0,0,0,0l0,0,.55-.53Zm-1.94,1.3a2.25,2.25,0,0,1-.43-.21l.43-.29.25.34Zm-3.29.58a15.11,15.11,0,0,0,2.18-1.28l.13.16A17.2,17.2,0,0,1,11.2,18.51Zm-.31-.06a1,1,0,0,0,0-.1c0-.07-.06-.09-.1,0q.41-.23.8-.5A11,11,0,0,0,13.19,17l.08.12A15.71,15.71,0,0,1,10.9,18.46Zm1.26-1c.31-.23.61-.48.9-.73l.07.13Q12.65,17.18,12.15,17.45ZM11,18l-.29.13s0,0,0,0l0,0q-.37.22-.75.42a2.73,2.73,0,0,1-.54-.36h0l.16.06c.06,0,.08-.07,0-.09l-.07,0c.33-.18.65-.37,1-.57.08,0,.14.08.22.11s.08-.07,0-.1l-.15-.08.12-.08a8.66,8.66,0,0,0,1.6-.5c.05,0,0-.08,0-.12l.57-.27h0A20.61,20.61,0,0,1,11,18Zm2.1-2.26.11-.09h0Zm-.35.31.16.37c-.53.25-1.07.48-1.61.67.45-.31.89-.64,1.32-1ZM9.94,17.13h0l0,0Zm-.14-.07-.05,0h0l.05,0Zm-.25,0-.35.23h0L9,17.15l.18-.1L9.54,17ZM7.2,15.3c.16-.11.3-.23.46-.35l.15.13c.09.15.17.3.27.44l-.54.36C7.42,15.7,7.31,15.5,7.2,15.3ZM7,14.9c-.1-.2-.19-.39-.27-.6l.22-.22a4.23,4.23,0,0,0,.57.71Zm-.34-.77-.12-.33.18-.15c0,.09.08.19.14.28ZM5.9,12.69l0,0q.09.33.2.67C6,13.11,6,12.9,5.9,12.69Zm0-.29,0,.05-.13-.38L5.77,12Zm-.05-.84a.08.08,0,0,0-.14.07v0l-.1.08L5.5,11.5c.2-.26.42-.51.64-.76l.12.46ZM5.42,9.85l-.35.3-.19-.7.24-.3.46-.47q0,.35.1.7A5,5,0,0,0,5.42,9.85Zm.13-1.44-.16.14-.32.26.46-.54ZM4.77,9c-.06-.26-.12-.53-.17-.79q.42-.45.86-.89,0,.41.06.82Zm.14-1.31c.18-.22.35-.44.54-.65,0,0,0,.07,0,.11Zm.53-.83a11.34,11.34,0,0,0-.91,1l0-.17,0-.15q.45-.36.91-.71ZM4,7.83l0,0,.21-.35c0-.06-.05-.11-.09-.05-.16.23-.3.46-.44.69l-.13.11c.06-.26.12-.52.19-.79L4.26,7c0,.17,0,.33,0,.5Zm0-.77,0,0s0,0,0,0H4l.2-.26s0,.07,0,.11Zm-.21.12L3.87,7l.36-.37h0Zm.85-1.07-.27.26s0,0,0,0l.27-.23Zm-.44.42-.3.3L4,6.66c0-.06-.07-.08-.09,0s-.1.27-.14.41l-.06.07s0-.06,0-.07.09-.26.14-.39l0,0c.13-.17.28-.32.42-.48C4.24,6.26,4.23,6.39,4.23,6.53Zm0-.41h0s0-.06,0,0l-.33.41,0-.06L4.25,6v.08Zm.2-.31c.21-.23.44-.46.66-.68l.52-.45Q5,5.27,4.4,5.89S4.4,5.84,4.41,5.81Zm1.47-1.6v0l.1,0Zm-.2.16c-.26.22-.51.46-.76.7.23-.27.46-.52.7-.77l.09,0Zm0-.08.1-.1,0,.06Zm-1.35.79,0,0L4.31,5Zm-2,2.41.37-.74.08-.11c-.14.25-.27.52-.4.79ZM4,4.86a0,0,0,0,0-.06,0,3.64,3.64,0,0,0-.25.3h0c-.11.08-.22.17-.32.26L3.68,5a13.26,13.26,0,0,1,1.06-1c0,.1-.08.2-.12.3Q4.32,4.54,4,4.86ZM1.33,8.13l0,.11-.06.1a6,6,0,0,1,.3-.65C1.46,7.84,1.39,8,1.33,8.13ZM.56,10.41s0,0,0,0c0-.18.1-.36.15-.54l.05-.14,0,.19a4.88,4.88,0,0,0-.16.57l-.06,0Zm.3,5.45V16l0-.08S.85,15.87.86,15.86Zm1.54,2.27a.94.94,0,0,0,.17.14l.06.09.06.06a.55.55,0,0,0,.15.17h0a1.73,1.73,0,0,0,.23.26l-.31-.26-.13-.14Zm.78.81h0L3.3,19h0Zm4.09,1.81a.06.06,0,0,0,0-.07h0a2.12,2.12,0,0,0,.32,0h0s0,0,0,0l.15,0H7.27Zm3.38-.19.4-.08-.16.1ZM15,18.29s0,0,0,0l-.24.22q-.43.25-.87.46l0,0,.35-.29c.19-.12.39-.24.58-.37s.63-.44.92-.67h0C15.46,17.83,15.24,18.06,15,18.29ZM19.74,8q0,.42-.06.82c0-.53,0-1.06,0-1.59C19.69,7.45,19.72,7.71,19.74,8Zm0,.47A10.77,10.77,0,0,1,19.68,10q0-.37,0-.75T19.76,8.44Zm-.36,3.18a9.55,9.55,0,0,1-.61,1.24c0-.08.07-.16.09-.25s0,0-.05,0c-.06.19-.15.37-.21.56l-.25.4v0a18.47,18.47,0,0,0,1.13-3.38C19.5,10.63,19.47,11.13,19.4,11.62Zm-4.38,6-.22.15-.25-.34a11,11,0,0,0,1-.83l.35.25Zm-.59-.36-.11-.15c.34-.22.67-.46,1-.71l.08.07A12.12,12.12,0,0,1,14.43,17.22Zm.69-.88.08-.07h0Zm-1.43,1-.06,0-.14-.16.1-.07c.1-.07,0-.25-.1-.17l-.13.09-.08-.11.55-.39.32.43Zm-.47-.5-.09-.14.49-.44.14.19Zm0-1.19-.54.39a7.34,7.34,0,0,1-.74.32c.38-.25.76-.52,1.13-.8.06,0,0-.14-.08-.1-.45.34-.92.66-1.39,1q.67-.59,1.31-1.22ZM9.9,17l-.06,0h0l.19,0Zm-.31-.12-.06-.05h0l.07.05Zm-.17,0h0Zm-.87-.49.16-.14,0,0Zm-.44.2a6.2,6.2,0,0,1-.47-.6l.52-.38a6.72,6.72,0,0,0,.48.57Zm.15-1,.12-.09a4.16,4.16,0,0,0,.74.34l-.39.31A6.88,6.88,0,0,1,8.26,15.57Zm-.09-.11L8,15.26l.21.15Zm-.42-.73,0,0,0,0ZM7,14l.11-.12c.09.21.19.42.29.62A4.17,4.17,0,0,1,7,14Zm-.14-.64,0,0h0Zm-.21,0a4.13,4.13,0,0,1-.22-.61,0,0,0,0,0-.09,0,3.9,3.9,0,0,0,.2.67l-.16.13c-.13-.36-.25-.72-.35-1.09l.43-.43q.17.58.39,1.14ZM6,12.25l-.11-.39.42-.41.11.38ZM9.09,9.13c0,.12.07.24.12.35-.72.4-1.43.82-2.12,1.27C7.73,10.18,8.4,9.65,9.09,9.13ZM7,5.68,6.56,6s0-.08-.06-.05-.2.18-.31.26-.35.24-.52.37c0-.08,0-.17,0-.25A12.14,12.14,0,0,1,8.1,4.84Q7.55,5.25,7,5.68Zm-1.59,1c-.3.22-.6.45-.88.69l0-.09a8.72,8.72,0,0,1,.87-.83Q5.44,6.58,5.44,6.7Zm-.81.45c.26-.29.54-.58.81-.86,0,0,0,.06,0,.09A9.47,9.47,0,0,0,4.63,7.15Zm0,0c0-.12,0-.23.07-.35a0,0,0,0,0-.06,0c0,.16-.06.32-.1.48l0,0q0-.23,0-.45l1-.85s0-.1-.06-.06l-.95.8c0-.05,0-.11,0-.16l.35-.43c.24-.21.5-.4.75-.59q0,.34,0,.68C5.16,6.53,4.88,6.83,4.6,7.14Zm.82-1.65-.22.17-.12.09.43-.47,0,.14Zm-.73.59-.3.25q0-.2,0-.39Q5,5.29,5.62,4.69c0,.16-.06.31-.09.47C5.24,5.45,5,5.76,4.7,6.08ZM5.83,4.48l0,0c.24-.19.48-.38.73-.56,0,0,0,0,0,0l1.06-.5A14.26,14.26,0,0,0,5.77,4.92C5.79,4.77,5.8,4.63,5.83,4.48Zm.75-.65h0a11.58,11.58,0,0,1,1-.67l.74-.28c-.22.13-.42.27-.63.41ZM6,4.11l-.12.06,0-.18L6,3.91a10.61,10.61,0,0,1,1-.49Q6.47,3.74,6,4.11Zm-1.59.71a7.87,7.87,0,0,0-.67.82A13.32,13.32,0,0,0,2.63,7.06,12.07,12.07,0,0,1,3.88,5.21l.32-.33.23-.14S4.42,4.79,4.42,4.82Zm0-.11.12-.11,0,.05Zm.42-.61c0-.07,0-.14.07-.21s0,0,0,0A11.35,11.35,0,0,1,6.74,2.59,14.79,14.79,0,0,0,4.79,4.09Zm-4.24,11h0v0s0,.06,0,.09l0-.11ZM1.44,17l.15.23,0,0L1.42,17Zm2.42,2.46.07,0,.1.07.09.08-.22-.15ZM8.1,21a.05.05,0,0,0,0-.07h.25l-.21,0a0,0,0,0,0,0,0h0Zm2.36-.13h-.09l-.27,0h.19a0,0,0,1,0,0,0h-.06v0l.2,0,.51,0Zm.67-.22a7.8,7.8,0,0,0,1.09-.26,10.43,10.43,0,0,1-1.09.34A.08.08,0,0,0,11.12,20.63Zm2.08-.69c-.74.2-1.45.48-2.19.63l.28-.16.1,0s0,.08,0,.07a13.69,13.69,0,0,0,1.73-.78l.52-.24h.13c0,.06.06.11.13.07a9.69,9.69,0,0,0,1.32-1.05.12.12,0,0,0,0,.07l-.28.28a.17.17,0,0,0-.05.12A11.87,11.87,0,0,1,13.21,19.94ZM19.4,4.09c.08.1.13.21.2.31a2.58,2.58,0,0,1-2.17-.34,3.07,3.07,0,0,1-1.15-1.4A10.93,10.93,0,0,1,16,1.35,8.63,8.63,0,0,1,19.4,4.09ZM15.69,1.21a2.77,2.77,0,0,0-.09.46c0-.15,0-.31.07-.47Zm-.29-.12h0a3.63,3.63,0,0,0-.18.78h0v0a5.9,5.9,0,0,0,0,1,0,0,0,0,0,.09,0c0-.08,0-.16,0-.24a7.14,7.14,0,0,0,.14,1s0,0,0,0a8.6,8.6,0,0,1-.17-1.2,4.48,4.48,0,0,1,.19-1.24h0l.11,0a5.27,5.27,0,0,0,0,2.63.07.07,0,0,0,.13,0,7.45,7.45,0,0,1-.11-2,3.56,3.56,0,0,0,.86,2.48,3.52,3.52,0,0,0,3.44,1.11c.05.23.11.45.15.68,0,0,0,0,0,0s0,.17,0,.26c0-.18-.08-.37-.13-.55a.05.05,0,0,0-.1,0A12,12,0,0,1,20,7c0,.36,0,.71,0,1.07a17.75,17.75,0,0,0-.4-2.1s0,0,0,0l0,.18s-.05,0-.05,0,0,.28,0,.41c0-.07,0-.14-.05-.21s-.07,0-.06,0,.06.29.1.44c0,1,0,1.93,0,2.88A14.94,14.94,0,0,1,19,11.52c.11-.4.22-.81.31-1.21,0-.09-.12-.13-.14,0a21.68,21.68,0,0,1-1.54,4.29l-.24.34s0,.07.06,0c-.15.28-.3.54-.46.81l-.87.78s0,.07,0,0l.3-.25-.49.44-.34-.27A8.78,8.78,0,0,0,17,14.9c.05-.08-.08-.15-.13-.08a10.2,10.2,0,0,1-1.38,1.53l-.08-.06c.16-.12.32-.22.47-.35s0-.15-.1-.1-.32.24-.48.36h0l.75-.68h0l-.12.13s0,.11.07.07A7.06,7.06,0,0,0,17,14.65l.25-.24s0-.08,0-.09a8.24,8.24,0,0,0,.44-.77,9.32,9.32,0,0,0,.59-1.16s0-.07-.07,0l-.07.13a13.1,13.1,0,0,0,.54-2s0,0,0,0a11.53,11.53,0,0,1-1,3,10.78,10.78,0,0,1-1,1.39c-.45.41-.91.82-1.37,1.23l-.35-.28c-.05,0-.13,0-.08.08l.34.28c-.29.25-.58.5-.88.74l-.32-.43A16.35,16.35,0,0,0,16,14.55l.25.17c-.15.19-.3.38-.46.56s0,.17.1.1.32-.39.47-.59h0s.1,0,0-.08h0a11.2,11.2,0,0,0,1.91-3.58s0-.06-.06,0a11.52,11.52,0,0,1-2,3.53l-.25-.17c.44-.48.86-1,1.26-1.48,0,0,0-.1-.06-.06-.42.5-.85,1-1.31,1.47l0,0a13.77,13.77,0,0,0,2-2.93c0-.05-.05-.1-.08,0-.17.32-.37.63-.56.93A8.94,8.94,0,0,0,18,9.87s0,0,0,0l.32.18c-.07.27-.15.54-.24.81,0,.07.08.1.11,0,.09-.26.16-.52.23-.78l.06,0a0,0,0,0,0,0-.07l-.08,0a9.29,9.29,0,0,0,.35-3.29s-.06,0-.06,0a10,10,0,0,1-.4,3.23,16.33,16.33,0,0,1-3-2.14c.08-.21.17-.42.24-.64,0,0,0-.05-.06,0-.07.21-.15.41-.23.61a6.87,6.87,0,0,1-2.36-4.69s-.07,0-.07,0a6.81,6.81,0,0,0,2.39,4.8,17,17,0,0,1-2.3,4c-.2-.22-.41-.43-.6-.66-.05-.06-.14,0-.09.09.19.24.4.45.61.68-.37.48-.77,1-1.18,1.41L11.44,13h0l.25.38c-.29.32-.58.62-.89.92l.34-.33.56-.58,1.11,1.66c-.5.49-1,1-1.54,1.46-.26.08-.53.15-.8.2a0,0,0,0,0-.06,0l-.07,0-.25,0,.72-.5s0-.11,0-.08l-1,.63-.09,0-.11-.08c.51-.3,1-.63,1.49-1,.07,0,0-.15-.06-.11l-1.57,1-.12-.09s-.09,0-.05.05l.1.08h0c-.15-.12-.31-.23-.45-.37l.2-.11c.06,0,0-.14-.06-.1l-.22.12,0-.06.4-.35a3.94,3.94,0,0,0,.88.19.07.07,0,0,0,0-.13,5.71,5.71,0,0,1-.74-.22c.44-.41.88-.82,1.3-1.24-.44.42-.89.83-1.36,1.22a5.28,5.28,0,0,1-.73-.34L9,15s0-.12-.06-.08l-.47.32a4.76,4.76,0,0,1-.63-.44l0,0c.76-.17,1.51-.37,2.25-.6.07,0,0-.13,0-.11q-1,.34-2.07.6A17.07,17.07,0,0,0,12.3,10s0-.06-.05,0a17.86,17.86,0,0,1-4,4.41,23,23,0,0,0,2.24-2.11s0-.05,0,0a26.54,26.54,0,0,1-2.74,2.43c-.17-.29-.32-.6-.46-.91a7.26,7.26,0,0,0,.92-1.2.07.07,0,0,0,0-.09L8.78,12s0-.1-.05-.07c-.59.45-1.16.91-1.73,1.38H7l0,0c.05,0,0-.12-.07-.07H7q-.22-.56-.4-1.14.57-.56,1.16-1.1c.09-.08,0-.22-.13-.14q-.56.49-1.1,1l-.12-.37A30.9,30.9,0,0,1,9.24,9.55a8.8,8.8,0,0,0,.59,1.13,0,0,0,0,0,.08,0c-.21-.37-.41-.75-.58-1.14l1.55-.87a0,0,0,0,0,0,0l-1.56.84c-.05-.12-.09-.24-.13-.36.73-.55,1.49-1.07,2.27-1.58.18.37.36.74.55,1.08a.07.07,0,0,0,.13-.07c-.19-.35-.37-.72-.54-1.1l.33-.22a0,0,0,0,0,0-.06l-.33.2a11.22,11.22,0,0,1-1-3.4c.69-.21,1.37-.4,2-.57.07,0,0-.11,0-.1a18.19,18.19,0,0,0-2,.48,6,6,0,0,1,.36-2.68c0-.06-.07-.09-.1,0a5.77,5.77,0,0,0-.43,2.77c-.43.13-.87.29-1.3.46L9.42,4s0-.09,0-.07l-.64.45A13.21,13.21,0,0,0,5.68,6.18s0-.09,0-.14L6.87,4.86s0-.05,0,0L5.68,6c0-.21,0-.41,0-.62A28.75,28.75,0,0,1,9,3.26,0,0,0,0,0,9,3.2c-.8.44-1.59.9-2.35,1.4-.32.2-.63.41-.93.64l0-.2A14.51,14.51,0,0,1,8,3.19c.37-.17.75-.35,1.13-.51,0,0,0,0,0,0-.36.15-.72.32-1.07.49l.57-.35L9,2.67a0,0,0,0,0,0,0l-.2.07.29-.17a0,0,0,0,0,0,0l-.51.29L8,2.94c.25-.13.5-.27.77-.38.07,0,0-.14,0-.11a10.65,10.65,0,0,0-1.59.84,10.89,10.89,0,0,0-1,.53l.22-.18C7.22,3.15,8.12,2.69,9,2.28c0,0,0-.08,0-.07-.79.33-1.56.7-2.31,1.1A11.32,11.32,0,0,1,8,2.39a0,0,0,0,0,0,0A12.14,12.14,0,0,0,6.35,3.51L6,3.72H6l.12-.1a0,0,0,0,0,0,0c.29-.23.58-.46.88-.67,0,0,0-.07,0-.05-.52.37-1,.76-1.49,1.17l.06-.06s0,0,0,0c.21-.17.43-.34.66-.51,0,0,0-.06,0,0A11.27,11.27,0,0,0,4.82,4.42l-.18.12v0c.31-.27.64-.52,1-.78h0c-.31.26-.64.51-.94.78l0-.09,1-.94a0,0,0,0,0,0,0L6.27,3a27.74,27.74,0,0,1,4.39-1.81,0,0,0,0,0,0-.08A16.52,16.52,0,0,0,6.44,2.85c.32-.23.64-.45,1-.66a0,0,0,0,0,0,0l-.3.19a0,0,0,0,0,0,0A10.44,10.44,0,0,0,4.28,4.18,6.94,6.94,0,0,1,5.58,3h0l.36-.25h0A14.45,14.45,0,0,1,8.15,1.5,10.49,10.49,0,0,1,15.4,1.09ZM.16,12.41c0,.12,0,.24,0,.36C.16,12.65.16,12.53.16,12.41Z"/><path class="cls-1" d="M10.8,14.32l-.14.14Z"/><path class="cls-1" d="M18.25,12.47a12.77,12.77,0,0,0,.87-3.54c0,.55,0,1.09-.06,1.64h0c.06-.7.07-1.4.07-2.1,0-.07,0-.14,0-.21a0,0,0,0,0,0,0,11.67,11.67,0,0,1-.92,4.2S18.24,12.5,18.25,12.47Z"/><path class="cls-1" d="M13.08,3.28A7,7,0,0,1,13.55,1s0-.05,0,0A6.17,6.17,0,0,0,13,3.28S13.07,3.32,13.08,3.28Z"/></svg>