<svg id="Layer_1" data-name="Layer 1" xmlns="http://www.w3.org/2000/svg" viewBox="0 0 70.68 60.34"><defs><style>.cls-1{fill:#231f20;}</style></defs><title>ilustracije_razmerje</title><path class="cls-1" d="M51.59,20.73c-.28.09-.16.58.13.51s.83-.17,1.24-.24l-.14,0a.1.1,0,0,0-.07.11l-.17.07a7.56,7.56,0,0,0-1,.31c-.16.06-.06.29.1.25s.57-.13.86-.18a.15.15,0,0,0,.16.12l.9,0a4,4,0,0,0-.5.25.14.14,0,0,0,0,.24s0,0,0,0a4.44,4.44,0,0,0-1.08.67c-.14.12,0,.37.16.29a10.55,10.55,0,0,1,4.07-.88,3.09,3.09,0,0,0-1.27.37l-.54,0a2.62,2.62,0,0,0-1.49.37.07.07,0,0,0,0,.08l-.26.14c-.09.06,0,.21.09.16a6,6,0,0,1,1.9-.58,2.2,2.2,0,0,0-.3.29c-.09.11.07.28.18.18a3.08,3.08,0,0,1,.7-.48c.24,0,.48-.08.72-.1l.56,0h0a7.81,7.81,0,0,1,.86,0l0,0c-.23,0-.47,0-.69,0a.17.17,0,0,0,0,.34c.46,0,.93.1,1.41.17h-.48a13.15,13.15,0,0,0-1.39-.12c-.21,0-.27.31,0,.34l.71.12,0,0,.53.21a.16.16,0,0,0,.13.15l.46.08a16,16,0,0,1,6,3.77A7.82,7.82,0,0,0,61,26.59c-.11,0-.13.15,0,.17a8,8,0,0,1,3.44,1.52l.16.19a.13.13,0,0,0,.11.06l.12.12a6.12,6.12,0,0,1,1.32,2.64c0-.08-.08-.16-.13-.23s-.11,0-.08.06c.13.23.24.47.35.71l0,.13a.07.07,0,0,0,.06.06,10.24,10.24,0,0,1,.51,1.36,13.84,13.84,0,0,1,0,1.72c-.06-.39-.14-.78-.24-1.17A23.24,23.24,0,0,0,66,31.61c0-.11-.21-.06-.19,0v0c-.13-.31-.27-.61-.42-.91a0,0,0,0,0-.08,0,6.53,6.53,0,0,0-4.09-3.62,4.69,4.69,0,0,0-2.56-.89s0,.06,0,.06a4.59,4.59,0,0,1,2.27.76s0,0,0,0l.13,0a8.58,8.58,0,0,1,2.31,2.49,10.47,10.47,0,0,0-.86-.81c-.06,0-.12,0-.07.09A11.19,11.19,0,0,1,64,30.64c-1-.54-1.79-1.19-2.69-1.73A7.88,7.88,0,0,0,58,26.68s0,0,0,0a7.53,7.53,0,0,1,2.34,1.38,0,0,0,0,0,0,.07c.18.16.33.33.49.5A6.62,6.62,0,0,0,59.14,28a10.4,10.4,0,0,0-4.83.38,2.92,2.92,0,0,0-.66-1s-.07,0,0,0a4.74,4.74,0,0,1,1,2.65.06.06,0,0,0,.12,0,6.19,6.19,0,0,0-.39-1.62c.54-.13,1.07-.22,1.61-.3a16.27,16.27,0,0,0,2.37,1.71c2.87,2.82,2.88,7.7,1.9,11.59-1.67,2.49-4.16,4.23-7.5,3.87a.07.07,0,0,0,0,.13,7.21,7.21,0,0,0,6.74-2.25c-.39.55-.79,1.09-1.23,1.61-.06.07,0,.15.11.08.46-.5.9-1,1.33-1.6v0s0,0,0,.07a7.52,7.52,0,0,1-2.11,2.27,8.48,8.48,0,0,1-2.34.9,12.66,12.66,0,0,1-6.15-1.9s-.08,0,0,.05a13.22,13.22,0,0,0,5.16,2l-.13,0c-.08,0-.06.12,0,.12.28,0,.56,0,.83-.05h.16l-.58.12a10.61,10.61,0,0,1-4.13-1.13,18.17,18.17,0,0,0,1.82.65s.07,0,0-.06a21,21,0,0,1-2.42-.91l-.05,0h0a14.63,14.63,0,0,1-2.47-1.42,0,0,0,1,0,0,0,14.36,14.36,0,0,0,2.44,1.45h0c.14.1.28.18.42.27a0,0,0,0,0,0,0l.15.11-.55-.25c-.19-.09-.37.21-.19.33a8.94,8.94,0,0,0,1,.56l-.92-.2q-.48-.26-.93-.55a.16.16,0,0,0-.23,0,14.63,14.63,0,0,1-3.59-3.49,0,0,0,1,0,0,0,16,16,0,0,0,2.68,2.94,17.9,17.9,0,0,1-3.6-3.68,0,0,0,0,0,0,0,18.39,18.39,0,0,0,4.32,4.32l-.41-.14a.09.09,0,0,0,0-.12,24.77,24.77,0,0,1-4.06-3.2c-.05-.05-.14,0-.09.09a20.32,20.32,0,0,0,3.58,3,17.93,17.93,0,0,1-3.57-1.8s-.07,0,0,0a17.54,17.54,0,0,0,5,2.39c.33.23.66.47,1,.69,0,0,.07,0,.06-.05a10,10,0,0,0,2.48,1,8.25,8.25,0,0,1-2.91-1.13c-.08-.05-.17.06-.09.12s.21.14.31.2l-.07,0c-.2-.09-.38.21-.2.34l.3.18A17.75,17.75,0,0,1,44.83,46c-.1-.05-.16.1-.06.16a16.72,16.72,0,0,0,1.79.86.46.46,0,0,0,0,.81,16.79,16.79,0,0,0,6.07,2,.14.14,0,0,0-.15.1c-.17.65-.39,1.29-.62,1.93,0,0,0,0,0,0h0a5.53,5.53,0,0,0,.2-1s0,0,0,0a5.35,5.35,0,0,1-.26,1l-.08,0,.08-.17c0-.07-.07-.11-.1,0l-.08.16-.11-.05a4.65,4.65,0,0,0,.35-.45s0-.09-.06,0a5.88,5.88,0,0,1-.39.45l-.46-.26,0-.22s-.08,0-.08,0,0,.11,0,.16a6.16,6.16,0,0,1-1.29-1.08c-.18-.2-.49,0-.33.25a4.14,4.14,0,0,0,1.65,1.31c0,.11,0,.22,0,.33a4.27,4.27,0,0,1-1.52.82,3.06,3.06,0,0,1-.69-1L49,52l.38.22a.15.15,0,0,0,.2-.06c.14.08.27.17.42.24s.23-.15.09-.22a11.82,11.82,0,0,1-1.08-.7,4.9,4.9,0,0,0,.8,0s0,0,0,0a4.74,4.74,0,0,1-.92-.05A22.7,22.7,0,0,1,44,46s-.06,0,0,0a20.19,20.19,0,0,0,4,5,14.47,14.47,0,0,0-1.57-.83.11.11,0,0,0-.15.07,12.4,12.4,0,0,1-1.76-1.51c-.08-.08-.23,0-.15.11s.45.46.69.68a.13.13,0,0,0,0,.21,12.3,12.3,0,0,0,3.15,2s0,0,0,0a2.57,2.57,0,0,0,.44,1c-.22-.16-.44-.3-.65-.48s-.33.11-.19.25a6.38,6.38,0,0,0,.69.55,3.2,3.2,0,0,1-1.16-.12,5.26,5.26,0,0,1-.56-.66l.17.09c.18.1.3-.2.12-.29s-.46-.27-.68-.41a5.79,5.79,0,0,1-.39-.83s0,0,0,0a5.63,5.63,0,0,0,.3.76c-.91-.59-1.76-1.27-2.69-1.84a.15.15,0,0,0-.19.24,16.22,16.22,0,0,0,3.19,2.18,5.78,5.78,0,0,0,.48.66,6.72,6.72,0,0,1-1.36-.74l-.33-.57c0-.05-.12,0-.09,0l.22.4-.32-.22a.11.11,0,0,0-.15.15,3.64,3.64,0,0,0,1,.92A5.06,5.06,0,0,0,47,54a5,5,0,0,1-1.38-.89c-.21-.2-.52.13-.36.35a3.37,3.37,0,0,0,.87.79l-.2,0c-.37-.31-.73-.64-1.09-.94-.13-.11-.37.05-.29.22a3.46,3.46,0,0,0,.24.38l-.11,0a15.36,15.36,0,0,1-2.63-2.46,10.44,10.44,0,0,1-.67-4.09s-.07-.06-.08,0A10.76,10.76,0,0,0,41.8,51c-.33-.41-.66-.83-1-1.29-.1-.14-.35,0-.27.15a11.45,11.45,0,0,0,1.8,2.57l0,.05-.19-.13a.12.12,0,0,0-.15.19l.6.44a8.36,8.36,0,0,0,.94,1.37,10.37,10.37,0,0,1-2-1,.15.15,0,0,0-.18.23A7.25,7.25,0,0,0,44.25,55l.15.07c.15.12.3.24.46.35L44,55.34a11.56,11.56,0,0,1-5.33-5c0-.06-.14,0-.1.06A12.63,12.63,0,0,0,43,55.29a.16.16,0,0,0,.12.17l.36.08a7.07,7.07,0,0,0,.75.32c-.43-.08-.87-.16-1.3-.28-.93-.63-1.82-1.34-2.71-2.07a.17.17,0,0,0-.11,0q-.51-.71-1-1.46a8,8,0,0,1-.91-6.26c0-.07-.08-.11-.1,0a7.57,7.57,0,0,0,0,4.54c-.09,0-.21,0-.22.11a5.23,5.23,0,0,0,.6,2.75c.11.33.24.64.38,1a12.32,12.32,0,0,1-2.56-4.58s0,0,0,0a12.18,12.18,0,0,0,2.93,5.24l.09.17A14.26,14.26,0,0,1,36,51.55c-.06-.08-.17,0-.12.09a15.68,15.68,0,0,0,1.27,1.71.17.17,0,0,0-.13.22c.07.18.15.36.24.53A14.17,14.17,0,0,1,35,50.77c-.11-.35-.22-.7-.31-1.06,0-.07-.09-.08-.15,0a8.45,8.45,0,0,1-.43-2h0a8.59,8.59,0,0,0,.4,2.08.08.08,0,0,0,0,.06,13.4,13.4,0,0,0,1.46,4.1l-.05-.06a.17.17,0,0,0-.15-.06,7.66,7.66,0,0,1-.56-1.24c-.07-.22-.45-.12-.39.1a6.18,6.18,0,0,0,.45,1.22h-.05c-.2-.35-.4-.71-.61-1-.08-.13-.31,0-.24.13l.41.77a10,10,0,0,1-1-.4c-.14-.18-.28-.37-.4-.56a13.54,13.54,0,0,1-.65-3.1c0-.19-.3-.15-.29,0a10.5,10.5,0,0,0,.19,1.68,10.57,10.57,0,0,1-.89-3.93c0-.09-.14-.07-.14,0a10.63,10.63,0,0,0,.08,1.11.06.06,0,0,0-.07.06,12,12,0,0,0,.18,2.22,11,11,0,0,0,0,1.21,14.34,14.34,0,0,1-1.23-4.11c0-.17-.29-.14-.26,0a15.81,15.81,0,0,0,.94,3.66,11.45,11.45,0,0,1-1.51-1.65c0-1.1.16-2.19.25-3a.14.14,0,0,0-.27,0,18.17,18.17,0,0,0-.33,2.59c-.12-.17-.22-.35-.33-.52s-.1-.57-.14-.85c0-.1-.17-.1-.17,0s0,.25,0,.38c-.1-.18-.19-.36-.28-.54A11,11,0,0,1,28,44.07c0-.08-.11-.1-.12,0A11.9,11.9,0,0,0,28,47.22a18.06,18.06,0,0,1-1.33-4.65c0,.12,0,.24.08.36s.09,0,.08,0a6.2,6.2,0,0,1,2.73-7.2s0-.08,0-.05a6,6,0,0,0-3,6.22h0a18.87,18.87,0,0,0,.59,3.21.15.15,0,0,0-.24,0A12.71,12.71,0,0,0,26,47.48a8.68,8.68,0,0,1,.45-5.37c0-.06-.06-.1-.09,0a8.35,8.35,0,0,0-.75,4.28.12.12,0,0,0,0,.06c-.12.56-.22,1.13-.3,1.7l0,0c0-.08-.18,0-.14.08l.12.22a16.68,16.68,0,0,0-.14,2.16.14.14,0,0,0-.26,0,4.35,4.35,0,0,0-.09.5l0,0c0-.21-.05-.42-.07-.63s.18-.58.27-.87-.21-.29-.26-.11l0,.13a12.36,12.36,0,0,1,.59-3.76c.05-.17-.19-.27-.25-.11s-.12.38-.18.57a.12.12,0,0,0-.16.08l-.2.89c0-.17,0-.34.06-.51v0a.08.08,0,0,0,0-.08c0-.13,0-.26,0-.38a.13.13,0,0,0-.26,0c0,.22-.07.45-.11.67a5.09,5.09,0,0,0-.34.71h0a16.82,16.82,0,0,1,.5-2.54l.08-.17a.14.14,0,0,0,0-.11c.18-.64.37-1.27.55-1.87a.1.1,0,0,0-.12-.12l0-.06h0c.16-.27.32-.54.49-.8a.08.08,0,0,0-.12-.09,11.66,11.66,0,0,0-1.87,3.52,14.61,14.61,0,0,1,1-3.79c0-.06-.06-.09-.09,0a13.91,13.91,0,0,0-.93,3.29,10.57,10.57,0,0,1,1.19-5c0-.06-.07-.1-.1,0a10.62,10.62,0,0,0-1.2,6.11c-.07.23-.13.47-.19.71,0-.14-.07-.28-.1-.42a11.52,11.52,0,0,1,.38-3.31c0-.07-.09-.09-.11,0a12.17,12.17,0,0,0-.4,2.29,11.68,11.68,0,0,1,1.74-6.38c0-.07-.08-.13-.12-.07A10.69,10.69,0,0,0,22.75,46a8.75,8.75,0,0,0,.11,1.29c0,.13-.05.26-.08.39-.31-.88-.58-1.76-.82-2.62,0-.12-.24-.07-.21.05.26,1,.57,2.09.94,3.16v.12a.47.47,0,0,0-.41-.16c-.14-.27-.26-.55-.38-.83A.23.23,0,0,0,22,47.1a5.38,5.38,0,0,0-.19-.52,14.42,14.42,0,0,1,.71-7.8c0-.08-.09-.13-.12-.05-.16.44-.29.89-.42,1.34,0,0,0,0,0,0a9.07,9.07,0,0,1-.84,1,.07.07,0,1,0,.1.1,8.35,8.35,0,0,0,.72-.87,13.3,13.3,0,0,0-.37,5.65,2.85,2.85,0,0,1-.1-.38.31.31,0,0,0-.19-.24c-.06-.3-.11-.6-.14-.9a.09.09,0,0,0-.17,0,17.18,17.18,0,0,1-.29-1.82c0-.27,0-.52,0-.73s0-.66.06-1c0,0,.12,0,.11,0a6.55,6.55,0,0,1,0-.73q.11-.85.26-1.69a11.41,11.41,0,0,1,2-3.57c0-.05,0-.11-.08-.06a11.07,11.07,0,0,0-1.76,2.82l0-.26,0-.09a.11.11,0,0,0,0-.09,8.32,8.32,0,0,1,.5-1.06c0-.07-.07-.11-.11,0s-.18.38-.27.57h0a8,8,0,0,0-1,2.57c0-.27,0-.54,0-.81,0-.1-.15-.08-.15,0,0,.61,0,1.23,0,1.85a17.47,17.47,0,0,0-.11,2,12.51,12.51,0,0,1-.09-2.5l.13-.33a.05.05,0,0,0-.09,0v0a8.56,8.56,0,0,1,.2-1.2c0-.07-.09-.08-.11,0a9.06,9.06,0,0,0-.25,1.6A11,11,0,0,0,19.12,42c0-.12,0-.24,0-.36a20.52,20.52,0,0,1,.63-3.7c0,.21,0,.42,0,.63s.19.11.2,0c.21-3.51.53-6.63,3-9.31,0,0,0-.11-.08-.08-2.74,1.66-3.05,5.5-3.11,8.51a.09.09,0,0,0-.12.05c-.13.47-.25,1-.35,1.48q-.11.36-.19.71c0-.79.09-1.58.19-2.37a0,0,0,0,0-.09,0,26.64,26.64,0,0,0-.24,3.14c0,.18-.05.37-.07.55,0-.31,0-.62,0-.93,0-.67,0-1.33.12-2,0-.33.49-1.52.45-1.57a0,0,0,0,0,.08,0l.09-.15a.18.18,0,0,0-.25-.25,1.6,1.6,0,0,0-.18.15c0-.1.05-.2.09-.29s-.08-.11-.1,0-.12.34-.18.5a1.89,1.89,0,0,0-.18.27A9.24,9.24,0,0,1,20.19,32a.07.07,0,0,0-.11-.08,6.24,6.24,0,0,0-1.39,3.81,9.11,9.11,0,0,0-.29,1.29h0c-.07.09-.12.19-.18.29a20.9,20.9,0,0,1,1-4,.17.17,0,0,0-.32-.13,19.56,19.56,0,0,0-1.43,5.44l-.22-.24A10.83,10.83,0,0,1,17,35.61s0,0,0,0a10,10,0,0,0,0,2.5,2.31,2.31,0,0,1-.15-.26.07.07,0,0,0,0-.06,13.41,13.41,0,0,1-.36-4.33s0,0-.05,0a9.35,9.35,0,0,0,.15,3.84,2.23,2.23,0,0,0,.08.42l0,.1a.08.08,0,0,0,0,0,2.09,2.09,0,0,0,.32.6c0,.22.09.45.14.67l-.37,0-.13-.25.28,0a.11.11,0,0,0,.06-.21l-.22-.06.15,0a.07.07,0,0,0,0-.13h-.44a3.49,3.49,0,0,1-.2-.52c0-.16-.23-.13-.3,0a7.64,7.64,0,0,1-.43-.87l0,.08c.07.11.23,0,.16-.12L15.67,37h0a11.79,11.79,0,0,1-.33-2.68c0-.08-.12-.06-.12,0a11.62,11.62,0,0,0,.31,2.42,6.72,6.72,0,0,1-.13-4.48c0-.14-.18-.17-.22,0l0,.13a4.75,4.75,0,0,0-.46,1c-.09-.67-.17-1.34-.21-2,0-.06,0-.12.06-.18s0-.06-.06,0v0a10,10,0,0,1,.23-2.95c0-.1-.14-.12-.16,0a10.36,10.36,0,0,0-.26,3.47,6.8,6.8,0,0,0,.15,5.09l-.07,0a11.46,11.46,0,0,1-1-2,18.92,18.92,0,0,1-.56-3.2c0-.05-.07,0-.08,0a9,9,0,0,1,.1-1.47l.11-.22c0-.07-.08-.14-.12-.07h0s0,0-.05,0v.07c-.1.16-.19.31-.27.48,0-.26,0-.53,0-.8a.07.07,0,0,0-.13,0,11.27,11.27,0,0,0-.1,1.26,5.1,5.1,0,0,0-.09,3.49,15.79,15.79,0,0,1-.76-1.46,7.35,7.35,0,0,1,.8-4.63c0-.08-.08-.12-.12,0a7.2,7.2,0,0,0-.57,1.29.06.06,0,0,0-.08,0,6.28,6.28,0,0,0-.51,1.39c-.07-1-.07-1.93-.06-2.91.11-.22.23-.43.36-.63s0-.13-.09-.07-.18.3-.27.45c0-.08,0-.16,0-.24s-.07,0-.08,0l0,.41-.11.21a10.45,10.45,0,0,1,1.15-3.86c0-.08-.08-.12-.12,0a11.52,11.52,0,0,0-1.34,4.55c-.08.17-.15.34-.22.51h0s-.08,0-.07,0l0,.11a11.63,11.63,0,0,0-.52,1.75,9.34,9.34,0,0,1,1-4.72s0-.05-.05,0a9.4,9.4,0,0,0-1.08,5.3l0,.13a11.24,11.24,0,0,1-.52-2.53c.22-.78.47-1.54.73-2.28a19.94,19.94,0,0,1,1.44-2.13c.1-.13-.09-.28-.2-.15a11.92,11.92,0,0,0-2,3.17c0-.15,0-.3,0-.45s-.11-.09-.12,0c0,.28,0,.56,0,.84s-.15.46-.22.69c0-.52.09-1,.16-1.54A5,5,0,0,1,9,26.87c.07-.08-.06-.18-.13-.1L8.73,27c0-.12,0-.25.05-.38.1-.47.21-.94.33-1.41a10.82,10.82,0,0,1,2.34-4.4c.07-.08-.06-.18-.13-.1a10.19,10.19,0,0,0-.82,1c0-.08-.11-.16-.18-.09C9.65,22.23,8.81,23,8,23.85c.09-.21.2-.42.31-.63L8.47,23a.09.09,0,0,0,0-.12,6.92,6.92,0,0,1,.47-.7s0-.06,0,0a6.63,6.63,0,0,0-.51.68.11.11,0,0,0-.1,0l-.16.2.07-.19c.18-.26.36-.52.54-.77,0-.06,0-.12-.09-.07l-.3.42c.34-.92.7-1.8,1-2.62a.14.14,0,0,0-.26-.11l-.44.93a.07.07,0,0,0-.11,0q-.42.77-.86,1.52c.08-.17.15-.34.24-.5s-.07-.13-.11-.07-.07.14-.11.21a24.36,24.36,0,0,1,2.52-4.1,0,0,0,0,0,0,0,21.82,21.82,0,0,0-3.48,6c-.17.25-.34.5-.52.74a.08.08,0,0,0,.06.13l0,0a5.41,5.41,0,0,0-.38.49q.08-.36.16-.71a4,4,0,0,1,.38-.34c.09-.07,0-.2-.11-.14s-.12.1-.18.15a15.67,15.67,0,0,1,.63-1.88,0,0,0,1,0,0,0,15.25,15.25,0,0,0-.79,2.07,4.27,4.27,0,0,0-.41.36v0l.26-.68a.09.09,0,0,0-.16-.07l0,.05,0-.13c.07-.11.12-.24.19-.35a.07.07,0,0,0,0-.08c1.09-2.38,2.3-5,4.46-6.41a3.07,3.07,0,0,0,1,.37c.1,0,.15-.15.05-.18a3.63,3.63,0,0,1-.81-.34,6.49,6.49,0,0,1,1.12-.54,4.76,4.76,0,0,0,1.22,1c.1.05.2-.11.1-.17a5.24,5.24,0,0,1-1.09-.87c.19-.06.39-.12.59-.17s.07-.15,0-.13a6.84,6.84,0,0,0-.68.19,4.85,4.85,0,0,1-1.25-3.59s0,0,0,0,0-.08,0-.12,0-.33.05-.51a.05.05,0,0,0-.1,0v0a4.06,4.06,0,0,1,0-.82,0,0,0,0,0,0,0,4.52,4.52,0,0,0,0,1.18,5,5,0,0,0,1.13,4,6.64,6.64,0,0,0-1.16.57,4,4,0,0,1-1.75-2.9,3.87,3.87,0,0,0,1.58.51.09.09,0,0,0,0-.17A4.17,4.17,0,0,1,9.63,14a.1.1,0,0,0-.06-.12c-.28-.13-.55-.28-.81-.43L9,13.31a.16.16,0,0,0,.09-.09c.11,0,.2-.12.11-.24a4,4,0,0,1-.66-2.51.12.12,0,0,0,0-.08c.06-.35.12-.7.21-1l0-.08a6,6,0,0,1,4-.82c.12,0,.2-.18.06-.22a4.75,4.75,0,0,0-2.83.07.08.08,0,0,0,0-.06A3.59,3.59,0,0,1,11.69,8c.13,0,.17-.19,0-.21a3.85,3.85,0,0,0-2.48.53,2.65,2.65,0,0,1,1.1-1.15c.61.06,1.22.16,1.83.28.1,0,.12-.13,0-.15-.52-.09-1-.17-1.54-.23A5.25,5.25,0,0,1,11.79,7a.11.11,0,0,0,.05-.2l.3,0a.11.11,0,0,0,0-.22,6.48,6.48,0,0,0-1.47-.05l.16-.05c.12,0,.1-.22,0-.2a5.34,5.34,0,0,0-1.16.41,5.88,5.88,0,0,0-1,.36,6.12,6.12,0,0,0-1.2.27s0,.08,0,.07a5.79,5.79,0,0,1,.9-.2A7.39,7.39,0,0,0,6.48,8.68a6.12,6.12,0,0,1,.65-1.47c.11-.11.23-.21.36-.31a7.05,7.05,0,0,1,3.14-1.13,8.08,8.08,0,0,1,2.52.68l-.09.1s0,.08.06,0l.12-.11.1,0c.08,0,.14-.09.05-.13l0,0,.21-.2.32.19s.1,0,.05-.07l-.3-.19c.38-.38.76-.76,1.16-1.11l.14.09S15,5,15,5l-.12-.07.3-.23.12,0,.35.43A5.91,5.91,0,0,0,14.72,7s0,0,0,0,0,0,0,0h.05c.35-.54.71-1.07,1.08-1.59l.16.18a.13.13,0,0,0,.09,0l-.6.88c0,.07.05.14.1.08l.83-1.16h0A10.15,10.15,0,0,0,15.7,7a0,0,0,0,0,.07,0,12.76,12.76,0,0,1,.72-1.34s0,0,0,0c.31-.34.62-.67.94-1a7.48,7.48,0,0,1,1-.51,5.14,5.14,0,0,0-1.82,1.55c0,.07.05.14.1.08a4.86,4.86,0,0,1,.75-.8,0,0,0,0,0,.05.07A13.54,13.54,0,0,1,19.4,3.93c.21-.07.43-.13.64-.18L19.79,4a7.67,7.67,0,0,0-3.67,3.2,8.12,8.12,0,0,0-2.59,8.07c0,.05.1,0,.09,0a7.87,7.87,0,0,1,2.34-7.7,0,0,0,0,0,.06,0l0-.08A9,9,0,0,1,17,6.71c.27.25.56.48.86.71a0,0,0,0,0,0,0c-.3-.22-.58-.46-.85-.71a9.34,9.34,0,0,1,1.51-.84L18.45,6a.06.06,0,0,0,0,0l-.23.25c-.06.07.05.15.11.09.21-.24.43-.46.66-.68a9.57,9.57,0,0,1,1.56-.45l-.75.52s0,.08,0,.05l.9-.6.14,0a15.24,15.24,0,0,0-4.26,3.76c-.07.08.06.18.13.1A14.48,14.48,0,0,1,21.3,5.09l.12,0s0,0,0,0h-.05a9.11,9.11,0,0,1,4.45-.95l-.51.08-.61.1h-.05a9.87,9.87,0,0,0-2.32.79l-.38.15s0,0,0,0a16.11,16.11,0,0,0-2.75,1.88s0,.07,0,0A16.12,16.12,0,0,1,22,5.33s0,0,0,0a18.45,18.45,0,0,1,2.74-.89l.61.12a14.69,14.69,0,0,0-4.67,3c-.05,0,0,.13.06.09a15,15,0,0,1,4.85-3l.17,0a.09.09,0,0,0,.09.12l.37,0a.1.1,0,0,0,.13.1l.12,0a14.81,14.81,0,0,1,3.09,1.23c.4.34.79.68,1.16,1a9.64,9.64,0,0,0-.95-.46l-.27-.25s-.12,0-.08.08l.06.06a10.18,10.18,0,0,0-1-.32c-.65-.38-1.33-.75-2-1.08-.14-.07-.23.15-.09.22L27.47,6a13.2,13.2,0,0,0-4.26,0,.16.16,0,0,0,0,.32l.27,0a4.48,4.48,0,0,0-2,1.08c-.08.08,0,.22.11.15A7.12,7.12,0,0,1,25,6.2a14.32,14.32,0,0,1,2.3.16c.84.76,1.73,1.46,2.59,2.2a24.41,24.41,0,0,0-3.35-1.48c-.41-.27-.82-.53-1.25-.77,0,0-.1.06,0,.08.28.16.54.33.8.51l-.48-.17s0,0,0,0l.77.3q.55.37,1.06.78a11.09,11.09,0,0,0-2.1-.38c-.06,0-.08.09,0,.1a11.33,11.33,0,0,1,2.39.52q.61.51,1.17,1.07a6.6,6.6,0,0,0-1.66-.77c-2.22-1.15-4.73-1.43-6.8.36A.16.16,0,0,0,20.5,9,6.11,6.11,0,0,1,22,8.18,14.35,14.35,0,0,1,26.37,9a4.76,4.76,0,0,0-2.94.44c-.08,0,0,.16,0,.12A4.91,4.91,0,0,1,27,9.25a10.57,10.57,0,0,1,1,.48,3.27,3.27,0,0,1,.34.26s0,0,0,0l-.12-.1a10.17,10.17,0,0,1,1.07.73c.1.08.2-.07.11-.15-1.9-1.8-4.52-2.32-7.07-2.38a5.89,5.89,0,0,1,3.28,0,.07.07,0,0,0,0,.15A8.89,8.89,0,0,1,27,8.58q.45.21.9.47A.11.11,0,0,0,28,9a7.39,7.39,0,0,1,1.6,1.08,17.85,17.85,0,0,1,2.18,3.19c.11.29.22.57.31.88,0,0,.07,0,.06,0s-.11-.34-.16-.51c.08.1.27,0,.21-.1a14.8,14.8,0,0,0-1.35-2.28,8,8,0,0,0-.57-.74,16.27,16.27,0,0,0-2.22-2.24,10.19,10.19,0,0,1,4.64,3.47,7.64,7.64,0,0,1,.92,2.14.16.16,0,0,0,.24.1,8.29,8.29,0,0,1,.3,1.11c0,.22,0,.45-.06.67a.13.13,0,0,0,.26,0c0-.16.05-.32.07-.49a.11.11,0,0,0,0-.06v0a6,6,0,0,0,0-1.09,10.62,10.62,0,0,1,.08,1.1c0,.14.23.14.24,0a8.3,8.3,0,0,0-.36-3.11l.09.13a.1.1,0,0,0,.15,0c.13.2.25.41.38.62a17.58,17.58,0,0,1,.05,2.81c0,.15.21.24.27.08a4.46,4.46,0,0,0,.21-2.14c.06,0,.1-.06.07-.12l-.13-.23a6.57,6.57,0,0,0-.16-.67c.11.21.21.42.33.63s.35.06.27-.11c-.35-.63-.66-1.29-1-1.94q-.06-.24-.14-.48c.08.12.17.24.24.36.2.4.4.8.59,1.21a.07.07,0,0,0,0,0A15,15,0,0,1,36.31,14a9.75,9.75,0,0,1,.08,1.14c0,.17.29.17.29,0,0,0,0,0,0,0a.19.19,0,0,0,.25-.06.18.18,0,0,0,.32,0,3,3,0,0,0,.33-1.34,4.15,4.15,0,0,1,.09.5c0,.13.23.13.23,0a4.11,4.11,0,0,0-.06-.63.13.13,0,0,0,.11-.15c0-.11-.06-.22-.09-.33a.18.18,0,0,0,.12,0l0,.06a6.36,6.36,0,0,1,0,1.58h0a14,14,0,0,0-4.45,2.78.13.13,0,0,0,0,.19,6.18,6.18,0,0,0-1.14,2.44c0,.07.08.11.1,0a6.94,6.94,0,0,1,1.12-2.44.13.13,0,0,0,.09,0c.57-.38,1.16-.73,1.74-1.07a.1.1,0,0,0,.1,0l.07,0-.42.32.09-.13h0l-.12.15A10.27,10.27,0,0,0,34,18.21l-.4.25a.08.08,0,0,0,.06.14,6.9,6.9,0,0,0-1.17,2.17s.05.08.07,0A7.37,7.37,0,0,1,34,18.44l.4-.2A13,13,0,0,0,32.66,24c0,.08.11.09.12,0a15.94,15.94,0,0,1,1.39-5,.12.12,0,0,0,.17,0c.45-.42.93-.87,1.43-1.3l.3-.07c-.14.14-.29.27-.43.42a.07.07,0,0,0,0,.09A5.09,5.09,0,0,0,33.55,21c0,.13.19.19.23.06a6.31,6.31,0,0,1,3.36-3.33,4.94,4.94,0,0,0-1.07,2,5.62,5.62,0,0,0-.54,1.34c0,.1.06.16.15.15a5.81,5.81,0,0,0-.14,4c0,.11.23.07.2,0a8,8,0,0,1,1.86-6.63h0A5,5,0,0,1,38,18.2l.4-.29c.1,0,.2.07.3.12s.13-.09.06-.13l-.21-.1.12-.06a.08.08,0,0,0,.11,0l.2-.17a6.38,6.38,0,0,1,.9-.4l.48-.1a17.18,17.18,0,0,1,1.78.44,2.86,2.86,0,0,0-1.79.21,4.77,4.77,0,0,0-3.11,1.57c-.08.08.06.18.14.11A4.93,4.93,0,0,1,40,18l-.14.1c-.07.06,0,.17.09.11a2.81,2.81,0,0,1,.39-.25,4.35,4.35,0,0,1,1.83.21,6.82,6.82,0,0,0-4.51,1.78.07.07,0,0,0,.08.11c.33-.25.69-.49,1-.72a.05.05,0,0,0,.07,0A10.89,10.89,0,0,1,41,18.75a5.75,5.75,0,0,1,2.19.78l-.46-.13c-.21-.05-.3.29-.1.37a17.52,17.52,0,0,1,4,2,10.24,10.24,0,0,1,.36,1.3,11.37,11.37,0,0,0-1.38-1.18c-.19-.22-.39-.44-.59-.66s-.21,0-.14.11l.07.09c-.28-.18-.55-.35-.84-.51,0,0,0,0,0,0a9,9,0,0,0-.89-.41.15.15,0,0,0-.12.28,9,9,0,0,1,4.13,3.59c0,.35.05.7.05,1.06a18,18,0,0,0-1.94-1.55,0,0,0,0,0,0,.06,17.85,17.85,0,0,1,2,1.92c0,.29,0,.59,0,.88a.14.14,0,0,0,.27,0c0-.19,0-.38.06-.56a12.05,12.05,0,0,1,1.72,2.83,11.69,11.69,0,0,1-.38,1.55c-.06.18.21.3.27.12a9.59,9.59,0,0,0,.34-1.11l0,.08c.07.18.37.11.33-.08a6.07,6.07,0,0,0-.22-.76,7.83,7.83,0,0,0-.07-2.7.1.1,0,0,0,.15-.1c0-.17-.05-.33-.08-.5a9.57,9.57,0,0,1,.48,1.06c0,.15,0,.3,0,.46a.15.15,0,0,0,.22.16,5.12,5.12,0,0,1-.08,2.88.23.23,0,0,0,.42.17A4.09,4.09,0,0,0,51.1,29h0v0a3.81,3.81,0,0,0,0-.94.18.18,0,0,0,.18-.15,8.14,8.14,0,0,0,0-1.5.38.38,0,0,0,.47-.41c-.37-4.1-1.86-9-5.9-10.92a9.54,9.54,0,0,0-6.53-.68s0,0,0,0C38,2.86,26.6-2.36,16.88,3a.22.22,0,0,0,0-.3C14.37-.85,7.77-.82,4.83,2.28A13.91,13.91,0,0,0,3.56,3.83c.13-.21.26-.4.4-.59s-.06-.18-.13-.1A9.18,9.18,0,0,0,1.94,7.05a9.62,9.62,0,0,0,1.69,9.12c-2.91,3-4,7.32-3.36,12,1.15,8.95,8,12.43,15.92,14.32a.37.37,0,0,0,.24,0,2.67,2.67,0,0,0,.85.16h0a5.42,5.42,0,0,0,.33,1.61A20,20,0,0,0,29.52,58.44c8.69,3.85,23.13,2.19,26.24-8.22a.5.5,0,0,0,0-.32,15.77,15.77,0,0,0,10.71-5.63.31.31,0,0,0,.24-.2l.09-.19a18.39,18.39,0,0,0,3.74-8.42C72.21,25.6,60.21,18,51.59,20.73Zm-1.83-.15,0,0,.11.28-.13-.23c-.11-.27-.23-.56-.38-.85a5.24,5.24,0,0,1,.29.53Zm-6-2h0Zm-6.86-3.82,0-.19,0,0ZM29,5.39l-.9-.65c.3,0,.61,0,.91.06l.86.37a1.22,1.22,0,0,0-.24,0c-.12,0-.14.16-.06.23a3.37,3.37,0,0,0,1.33.47l.25,0c.28.24.55.49.81.75l-1.38-.72c-.06,0-.1.07,0,.1.58.33,1.15.65,1.69,1a.07.07,0,0,0,0,.09,13.83,13.83,0,0,1,1.06,1.2c.1.15.2.29.29.44l0,0A11.16,11.16,0,0,0,29,5.39Zm-10.23.2.17-.3L19.43,5q-.29.25-.57.53Zm.3-.52a6.88,6.88,0,0,1,.51-.66h0c.49-.22,1-.44,1.56-.64l.47-.11a7.42,7.42,0,0,0-1.73,1Q19.52,4.83,19.11,5.07ZM11,3.92a9.34,9.34,0,0,0-1.29,0,10.12,10.12,0,0,1,1.59-.34l.62.18c.08,0,.13-.09,0-.12l-.34-.11.56,0a9.1,9.1,0,0,1,1.41.75c-.49-.1-1-.19-1.46-.25A3.78,3.78,0,0,0,11,3.92Zm-1,.17a6.74,6.74,0,0,0-1.23.2L9.3,4.1a7.81,7.81,0,0,1,1-.09ZM7.79,10.56a.12.12,0,0,0,.13-.06,3.76,3.76,0,0,1,.43-.68,4.19,4.19,0,0,0,.13,2.51,8.57,8.57,0,0,1-1-.93.1.1,0,0,0,0-.12h0A5.91,5.91,0,0,1,7.79,10.56ZM7.1,11.8c0-.2,0-.39,0-.58l.07.09,0,.07a.14.14,0,0,0,.21.13A6.78,6.78,0,0,0,8.6,12.6a2.46,2.46,0,0,0,.27.42l-.51.19a7.85,7.85,0,0,1-.8-.61,4,4,0,0,1-.48-.73A.1.1,0,0,0,7.1,11.8ZM7.62,13a4.29,4.29,0,0,0,.35.34l-.66.28a4.78,4.78,0,0,1-.38-.4H7A.12.12,0,0,0,7,13H6.75l-.15-.22a3.34,3.34,0,0,0,.58.31c.12,0,.23-.13.12-.2a5.88,5.88,0,0,1-1-.78,2.36,2.36,0,0,1-.12-.71.11.11,0,0,0-.08-.11c0-.08,0-.15,0-.23A6.59,6.59,0,0,0,7.62,13ZM4.24,27a20.37,20.37,0,0,1,.89-4.59c0,.15,0,.3,0,.45a8.44,8.44,0,0,0-.55,3.35A9.4,9.4,0,0,0,4,28.49c0-.07-.05-.14-.08-.22h0c0-.21,0-.42,0-.64.08-.73.21-1.47.3-2.18a.07.07,0,0,0-.07-.08,15.86,15.86,0,0,1,.41-1.71c0-.06-.08-.1-.09,0A15.27,15.27,0,0,0,3.8,27.1c-.06.41-.11.83-.13,1.24a15.13,15.13,0,0,1,.23-4.19c0-.06-.08-.07-.1,0a12.9,12.9,0,0,1,1.58-3.57,31.13,31.13,0,0,0-1.1,3c0,.07.08.11.1,0,.34-1,.67-2,1.07-2.92A10.77,10.77,0,0,0,5.18,22a19.53,19.53,0,0,0-1,5C4.13,27.08,4.24,27.09,4.24,27Zm4.07,1a12.52,12.52,0,0,0-.08,3.37,16.2,16.2,0,0,1-.38-2.28c0-.08,0-.17.07-.25L8,28.72a.06.06,0,0,0,0,0,6.94,6.94,0,0,1,.32-.75S8.32,28,8.31,28Zm4,7a6.68,6.68,0,0,0,0,.67,17.32,17.32,0,0,1-1-2.36c0-.14-.08-.28-.11-.42A12.89,12.89,0,0,0,12.34,35Zm1.1,1.38c-.22-.08-.43-.18-.65-.27a5.62,5.62,0,0,1-.13-.65A9.28,9.28,0,0,0,13.44,36.42Zm3.85,4.26h0ZM20.43,42c0,.1,0,.19,0,.29s0,.16,0,.24Q20.42,42.25,20.43,42Zm.19-1.85c0,.07,0,.15,0,.22,0,.27-.06.54-.08.8,0-.3,0-.59,0-.89Zm2.45,7s0,0,0,0,0,.25-.06.38l0-.1Zm4.47.33s0,0,0,0c.28.41.55.83.85,1.22.08.21.16.42.26.63a13.92,13.92,0,0,0,1.26,4.38.2.2,0,0,0-.22.12c-.38-.33-.74-.67-1.09-1-.1-.49-.18-1-.24-1.46a.11.11,0,0,0-.23,0c0,.16,0,.33,0,.5a18,18,0,0,1-.6-2.54.13.13,0,0,0-.25,0,12.06,12.06,0,0,0,.4,2.41q-.27-.44-.51-.91A8.47,8.47,0,0,1,27.54,47.42Zm4.74,5.47c.06.14.13.28.2.41L32.2,53l0-.17Zm17.34.81.12,0-.13.14-.19,0Zm1.55-1.8c0,.1-.08.2-.12.3l-.12.15,0-.22,0,0,.2-.19ZM31.89,6l.25,0,.1.06,0,0c0,.1.07.18.11.27Zm-3-1.38h0l-.22-.09h.43l.34.17Zm1.61.21a6.5,6.5,0,0,0-.75-.32l.78,0q.47.3.92.65a7.73,7.73,0,0,0-.91-.3A.06.06,0,0,0,30.51,4.79ZM26.5,3l.63.06a10.89,10.89,0,0,1,1.63.51l-.21,0a10.63,10.63,0,0,0-1.82-.23l-.36,0s0,0,0,0a4.21,4.21,0,0,0-.58-.19C26,3,26.25,3,26.5,3ZM29,4.24h0c-.16-.09-.32-.19-.49-.26l.21,0c.07,0,.06-.12,0-.11l-.43,0-.55-.21.69,0a9.5,9.5,0,0,1,1.2.29h0l.52.28C29.78,4.24,29.4,4.24,29,4.24Zm1.6,0,.33.15h-.07ZM24.17,2l.2,0,0,0h-.22Zm2.36,0A11.41,11.41,0,0,0,25,1.93l0,0a6.14,6.14,0,0,1,.86-.07,5.56,5.56,0,0,1,.68.14Zm5.16,2.87.1.09-.23-.18Zm.91-.53,0,0,0,0ZM29.18,2.81l.4.1a.31.31,0,0,0,0,.18l-.14,0A3.12,3.12,0,0,0,29.18,2.81Zm.72,1-.17,0-.32-.13ZM26,3.27h-.15c-.25,0-.5-.06-.76-.07l.38-.07A4.55,4.55,0,0,1,26,3.27Zm.13-.81a15,15,0,0,1,2,.39,5,5,0,0,1,.65.3.17.17,0,0,0,0,.05.13.13,0,0,0,0,0c-.23,0-.47-.09-.72-.12,0,0,0,0,0,0L27.64,3s0,0,0,0l.53.14a.1.1,0,0,0,.13-.08h.15a0,0,0,0,0,0-.05h-.16a.08.08,0,0,0-.05,0,14,14,0,0,0-2.59-.51ZM27.6,3l-.16,0h.16Zm-2,0-.16,0H26Zm-.43.08-.42.09H24.7a.06.06,0,0,0-.06,0h-.82l.58-.09A5.61,5.61,0,0,1,25.2,3.1Zm-2.8.09-.16,0,.21,0Zm5.8.88-.29,0,.17,0Zm.3.18-.36,0-.34-.11C28,4.2,28.28,4.22,28.51,4.26Zm1.16.37s0,0,0,0l-.22-.13c.2.06.39.16.58.25l-.24,0ZM30.4,5s0,0,0,0L30.32,5Zm1.31.42,0,0a11.57,11.57,0,0,0-1.13-.4A7.9,7.9,0,0,1,31.7,5.45Zm.78.79.28.31-.21-.14C32.53,6.35,32.51,6.3,32.49,6.24ZM27.65,2l0,0,.1,0Zm-9.2,1.61.07,0-.5.28Zm4.71-1h.07l1.25-.09s0,.09.06.09a12.22,12.22,0,0,1,2.69.33H27a13.25,13.25,0,0,0-2.15-.22s0,0,0,0c.42,0,.82.06,1.21.12a10.89,10.89,0,0,0-1.36,0,6.07,6.07,0,0,0-.62,0h0l-.18,0h-.13l-1.21.13c.18-.06.35-.13.53-.18s0-.06,0-.05c-.29.08-.56.18-.83.27l-.62.09L22.14,3a13,13,0,0,1,2.55-.31s0-.05,0-.05A12.41,12.41,0,0,0,21,3.16a7.08,7.08,0,0,1,.9-.51C22.29,2.63,22.73,2.61,23.16,2.57Zm-1.65.54-.26.12-.32.05Zm0,.36-.26.06.07,0Zm4.76.05.29.06-.16,0ZM27,3.7c.27.07.53.15.8.24L27.41,4h-.17l-.4-.11-.23-.14Zm1.3.83h-.06Zm1.57.39.45.3-.73-.34Zm.51.16a12,12,0,0,1,1.33.62,6.17,6.17,0,0,1-.66-.14Q30.76,5.31,30.41,5.08Zm2.24,1.78.14.2L32.63,7l-.35-.37Zm.35.25.46.35-.36-.22Zm1.14,1.18.21.38-.67-.73ZM17.56,3.51h0a.13.13,0,0,0-.1.13,3.23,3.23,0,0,0-.24.32s0,0,0,0L17,3.86c.2-.17.42-.33.64-.48Zm-4.5-.1h.14l.08,0,0,0Zm-.35,0-.46,0-.18-.05.17,0s0,0,0-.06h.22ZM6.07,5.94a.07.07,0,0,0,0,0l-.21.19a6.2,6.2,0,0,1,.62-.74c.27-.22.54-.43.82-.63a5.3,5.3,0,0,1,1.53-.62q-.41.17-.79.38A5.28,5.28,0,0,0,6.07,5.94ZM3.45,21.7a5.19,5.19,0,0,1,1-1.48c-.27.43-.53.88-.76,1.34-.17.25-.33.5-.48.76.06-.17.11-.34.18-.5Zm-.32,5.73s.09,0,.09,0a17.22,17.22,0,0,1,.54-3.21,13.43,13.43,0,0,0-.11,5c0,.19,0,.38,0,.57a10.17,10.17,0,0,1-.6-2C3.11,27.71,3.13,27.57,3.14,27.44Zm0-.6c0-.16,0-.32,0-.48C3.2,26.52,3.19,26.68,3.17,26.84Zm17,18.56.1.18a9.05,9.05,0,0,0,.34,1.3h0A9.88,9.88,0,0,1,20,45.76c0-.07,0-.13.07-.2s0,0,0,0A.83.83,0,0,1,20.16,45.4Zm.54-.19v0h0c0-.06-.08-.11-.13-.17a.08.08,0,0,0,.06,0C20.65,45.09,20.68,45.15,20.7,45.21Zm.84,2.46-.18-.29L21.18,47h.09a1.77,1.77,0,0,0,.15.16.14.14,0,0,0,0,.12C21.44,47.4,21.49,47.53,21.54,47.67Zm7.68,2.11s0,.06,0,.09c-.08-.13-.15-.26-.22-.4v0Zm1.44,1.77q.15.58.33,1.14c0-.12-.1-.24-.14-.37a.13.13,0,0,0-.24.06,7.32,7.32,0,0,0,1.33,2.93h-.22a13.07,13.07,0,0,1-1.05-1.92.22.22,0,0,0-.15-.13c-.12-.2-.25-.4-.39-.58a.16.16,0,0,0-.21,0v0a6.93,6.93,0,0,1-.31-1.89h0c.08.1.24,0,.16-.12l-.17-.23s0,0,0-.06A11.72,11.72,0,0,0,30.66,51.55Zm19,4.81-.07,0,0-.07a.24.24,0,0,1,.05.09ZM15.94,4V4h0ZM4.76,12.13a5.94,5.94,0,0,1-.26-.93l.09.2h0l-.1-.22c0-.2-.06-.4-.08-.6a4.74,4.74,0,0,0,.31.4.11.11,0,0,0,.07,0l-.12.2c-.06.11.12.19.18.08L5,11.08a6.62,6.62,0,0,0,.66,1.71A2.4,2.4,0,0,1,4.76,12.13ZM6.21,5.48A5.06,5.06,0,0,1,8.14,3.7c.06,0,0-.12,0-.09A5,5,0,0,0,6.52,4.84,7.84,7.84,0,0,1,7.68,3.67a7.68,7.68,0,0,1,1.81-.35A8.61,8.61,0,0,0,6.21,5.48ZM4.46,8.59h0a3.58,3.58,0,0,0-.27.59c0-.2,0-.4,0-.6a.06.06,0,0,0,.08,0c0-.11.09-.21.13-.32s0,0,0,0l0-.11h0C4.48,8.25,4.47,8.42,4.46,8.59ZM15.66,3l-.09,0a.44.44,0,0,0,.05-.11.34.34,0,0,0,.1,0l0,0A.36.36,0,0,0,15.66,3ZM8.2,2.66h0A5.36,5.36,0,0,0,7,3.34l-.19.07c.12-.12.24-.23.36-.33A4.76,4.76,0,0,1,8.2,2.66ZM4.8,5.72l.45-.43c-.09.18-.16.35-.24.53a.12.12,0,0,0-.21,0c-.14.18-.27.37-.38.57a6.89,6.89,0,0,1,.3-.66S4.76,5.75,4.8,5.72Zm-.86,5.11s0,0,0,.07-.07-.19-.1-.28a10,10,0,0,1-.12-1.34l0,0c0,.06,0,.12.05.18h0l0,.08A7.86,7.86,0,0,0,3.94,10.82Zm6.15-9.35a2.64,2.64,0,0,0-.57.3l0,0c.1-.05.2-.09.29-.15a.1.1,0,0,0,0-.05Zm-2,1.66L8,3.18H8l.08,0ZM3.51,12c-.06-.12-.12-.24-.17-.37v-.05a2.57,2.57,0,0,1,0-.31l.06.11C3.44,11.55,3.47,11.75,3.51,12ZM3,10.31H3Zm.66,2.16,0-.09,0,0,0,.12ZM2.45,9.73h0l0,0ZM4.21,7.46h0A8.42,8.42,0,0,1,4.92,6c-.07.18-.14.36-.2.54A4.34,4.34,0,0,0,4.21,7.46Zm5-4.77,0,0h0Zm2.56-1.21h0l-.35.08-.43,0A3.36,3.36,0,0,1,11.75,1.48ZM4.27,8.21h0l0,.11Zm.5-2.63c.08-.16.18-.31.27-.46l.53-.39-.08.15C5.23,5.11,5,5.35,4.77,5.58ZM5.85,4.53,6,4.45l-.14.12ZM7.16,3.7l.29-.2.14,0h.05l-.15.11Zm1-.39H8.3l-.18.05Zm2.43-.37h-.23a8.48,8.48,0,0,0-1.4,0,3.06,3.06,0,0,1,.88-.17,6.06,6.06,0,0,1,.8.18ZM9.36,2.66H9.26l.31-.13a5.14,5.14,0,0,1,.56.06C9.87,2.61,9.61,2.63,9.36,2.66ZM8.3,2.84a.24.24,0,0,0,.05-.08l.05,0Zm2.33-1h-.06l.11,0Zm3.11.37a3.1,3.1,0,0,1,.64.15l.1.06a.35.35,0,0,0,0,.1c-.28-.1-.56-.18-.85-.26C13.71,2.25,13.74,2.22,13.74,2.18ZM4.31,10.82l0,.18,0-.17ZM4.9,6.56c0-.06.07-.13.11-.19s0-.06,0-.07L5,6.11A8.94,8.94,0,0,1,5.58,5c.39-.35.8-.7,1.23-1a.06.06,0,0,0,.07,0L7,3.92A9.77,9.77,0,0,0,4.77,7C4.81,6.87,4.86,6.71,4.9,6.56ZM10,2.74a2.82,2.82,0,0,1,.57,0c.05,0,.06-.07,0-.08h-.08c.32,0,.63,0,1,0l-.71.18A6,6,0,0,0,10,2.74Zm1.59-.23-.32-.1.37.07Zm-.64-.13s0,0,0,0c.17.06.32.14.48.2-.3,0-.6,0-.9,0a.08.08,0,0,0,0-.1l-.28-.07A4.39,4.39,0,0,1,10.94,2.38Zm-2,.21-.12,0h0s0,0,0,0l-.13.05h0a.27.27,0,0,0-.27-.06,4.44,4.44,0,0,1,.52-.09Zm-.19-.3.1,0,.25,0,0,.06Zm3.15-.38,0,0h0Zm1.61.23.2.08-.42-.1Zm.63-.51-.31-.1a.13.13,0,0,0,0-.12Zm-1.86-.59.15,0,.28.09ZM4.88,15a.11.11,0,0,0,0-.07l0,0-.39-.54.34.24c.07,0,.13.1.2.15H5l.15.09c.07,0,.14,0,.15-.1l0,0-.4.3Zm.77-.42,0,0a.14.14,0,0,0,0-.15l-.21-.17a.08.08,0,0,0,0-.08l-.49-.44a3.76,3.76,0,0,1-.79-1.42l0,0h.08a3.13,3.13,0,0,0,1.42,1.87.13.13,0,0,0,.15,0c.08.09.15.18.23.26ZM4.47,11.7l0-.08,0-.21c0,.1,0,.21.07.31Zm.46-.9,0,0a5.33,5.33,0,0,1-.43-.76,1.69,1.69,0,0,1,.1-.25c.13-.21-.16-.45-.31-.26l0-.1a3.66,3.66,0,0,1,.21-.6s.06.05.07,0,0-.13,0-.19l0,0s0,0,0,0c0-.2,0-.4.06-.6a.46.46,0,0,0,.14-.52A12.3,12.3,0,0,1,5.35,6.3c-.17.3-.31.59-.44.86,0,.08.08.12.12,0A12.85,12.85,0,0,1,6.4,5a6.78,6.78,0,0,0-.78,1.24c-.05.08-.11.14-.17.23s0,0,0,0a6,6,0,0,0-.61,1.35.07.07,0,0,0,0,.09A6.76,6.76,0,0,0,4.93,10.8Zm5-7.47.25,0a6.32,6.32,0,0,0-1,.28C9.39,3.54,9.65,3.43,9.91,3.33Zm-1,.39-.06,0ZM11,3l.57-.14s0,0,.05,0a5.52,5.52,0,0,0,1,.26l0,0-.93-.08C11.52,3,11.28,3,11,3Zm.81-.58a4.41,4.41,0,0,0-1.9-.09.06.06,0,0,0-.08,0l-.13.05-.17,0,.23-.16a5.54,5.54,0,0,1,.79,0l.06,0h0l.3-.08a10.42,10.42,0,0,1,2,.29A4,4,0,0,0,11.84,2.4ZM11.44,1c-.28,0-.56,0-.85,0A3.78,3.78,0,0,1,11.94.92ZM4.55,15.19l.09.07h0ZM3.7,30.13a.06.06,0,0,0,.08,0c0,.09,0,.17.05.26v.13A16,16,0,0,1,3,28s0,0,0,0H3A9.28,9.28,0,0,0,3.7,30.13ZM5,31.51l.12.23c.06.21.12.43.19.63a.09.09,0,0,0,.13.05,7.24,7.24,0,0,0,.42.86s0,.08,0,.12.1.11.14,0c.07.11.14.22.22.33a.09.09,0,0,0,0,.12c.18.25.38.47.58.69-.11-.07-.2-.17-.3-.25l-.09-.13a.05.05,0,0,0-.08,0,5.33,5.33,0,0,1-1.68-3c0-.07-.13-.06-.12,0a7.06,7.06,0,0,0,.36,1.24c-.15-.25-.31-.49-.44-.75l-.1-.19-.15-.32c.06,0,.14,0,.11-.12s-.07-.2-.11-.3,0,0,0,0l0,.09a0,0,0,0,0,.09,0Zm6.88,5a9.9,9.9,0,0,0,.79.71l-1.28-.76s0,0-.05-.05l-.12-.06-.08,0-.21-.2C11.22,36.22,11.54,36.34,11.86,36.47Zm3.37,3.62-.37,0L14.78,40,15,40ZM29.65,54.65a2,2,0,0,0,.11.38l-.23-.16c-.13-.23-.26-.47-.38-.71C29.32,54.33,29.48,54.49,29.65,54.65Zm20.4.24a.17.17,0,0,0,.13-.07l-.26.3h0L50,54.9h0Zm-9.29,2.19.07,0h-.08l-.08,0Zm-5.34.17.33.38-.1,0-.23-.36Zm-4.2-1.34v0l-.06,0h.05Zm-8.17-4.66h0l.11.2L23,51.3Zm15.83,7.33h0Zm9.39-2.08-.15.15-.47.3c.18-.13.35-.28.53-.42ZM21.77,49l-.15-.15a.23.23,0,0,0-.14-.06c0-.13-.06-.26-.1-.38l.23.3Zm25.09,7.57v0l-.39.09.11-.06Zm-11.72.91a.34.34,0,0,0-.14-.14l-.31-.12h.24Zm8.6-.69h0l0,0,.07,0Zm-.77.52h0l-.2,0,0,0Zm-1,.2-.44,0-.27-.13h.38Zm-7.84-1.65-.19-.06c-.05,0-.09.06,0,.08l.27.1a4.79,4.79,0,0,0,.51.9c-.16,0-.3-.05-.46-.07a5.42,5.42,0,0,1-.54-.86,11.33,11.33,0,0,1-.24-1.21,6.8,6.8,0,0,0,.61.62.19.19,0,0,0-.06.19A3.07,3.07,0,0,0,34.12,55.88Zm-1.27.68-.26-.08c-.14-.17-.28-.34-.42-.51.21.19.42.38.65.57Zm-4.67-2.46c-.07-.15-.15-.3-.21-.46.2.25.41.49.63.72Zm-1.51.23s0,0,0,0l-.14-.14.1,0,.23.29Zm24.09.22,0,0v0Zm-.47-1-.11,0c.17-.19.34-.38.5-.58A4.69,4.69,0,0,1,50.3,53.54ZM39.16,56.9a5.14,5.14,0,0,0,.83.7H39.6l0,0h0c-.27-.19-.53-.4-.78-.61l0,0,0-.07Zm0,.67h0l-.18-.05,0-.08Zm-6.24-3a2.43,2.43,0,0,0,.06,1,7.71,7.71,0,0,1-.64-1.87,7.5,7.5,0,0,0,.66.73A.17.17,0,0,0,32.92,54.57Zm-.54,1.29.16.25L32,55.67h0l0-.07h.25Zm-4.25-2.95c.15.38.31.75.49,1.11v0A10.19,10.19,0,0,1,27.72,53a9.89,9.89,0,0,1-.35-1.21A13.59,13.59,0,0,0,28.13,52.92ZM21.2,47.09h0s0-.06,0-.09h0l.07.16ZM2.13,25.4h0l0,0v0Zm3,.87a.09.09,0,0,0,0,0c0,.09,0,.17,0,.26s-.18.28-.27.43v0c.06-.33.13-.65.22-1Zm.4,2.41c0-.06,0-.12,0-.17a5.21,5.21,0,0,1,.29-1v.07a8.57,8.57,0,0,0-.29,2.23h0a3.87,3.87,0,0,1,0-1.13S5.5,28.72,5.49,28.68ZM6,33.15l.07.09.09.23c-.06-.08-.12-.16-.18-.25Zm-.28-3.24a9.23,9.23,0,0,0,.34,2.26v0a7,7,0,0,1-.43-2.54Zm3,6.43c-.16-.08-.31-.2-.46-.29l-.08-.14.5.35a7.09,7.09,0,0,0,.32.65l-.39-.25-.25-.44c.11.06.22.14.33.19S8.78,36.36,8.74,36.34ZM6.5,31.7c0,.08,0,.16,0,.24l0-.17ZM7,33.41s0,.06,0,.09l0-.12ZM2.68,27.28c0,.26,0,.52.07.76a0,0,0,0,0,.05,0,9.58,9.58,0,0,0,.74,3.09h0l0,.06h0c-.18-.39-.35-.79-.51-1.2s-.12-.84-.18-1.26a.31.31,0,0,0-.09-.18l0-.2A9.44,9.44,0,0,1,2.68,27.28Zm9.6,11.2-.1-.06.1.05ZM9.91,36.73l-.16-.19.22.22Zm1.86,1.06.08,0h0ZM10,36.33l.06,0,.06.12Zm-1-.15-.07,0L8.84,36Zm.39.51a8.14,8.14,0,0,0,1,1.06c-.3-.16-.59-.33-.88-.5a8.24,8.24,0,0,1-.42-.71Zm2.08,1.79a6.5,6.5,0,0,0,.79.38l.11.06h-.08a11.54,11.54,0,0,1-2.55-1.24h0A13.36,13.36,0,0,0,11.47,38.48ZM1.8,29c0-.14-.05-.28-.07-.42C1.75,28.73,1.77,28.87,1.8,29Zm1.52,2.2L3.19,31l-.13-.43a.38.38,0,0,0,0,0c.09.23.17.47.26.69Zm9.1,6.93.44,0,.1,0,.13.21C12.86,38.34,12.63,38.24,12.42,38.13Zm-.18-.34c-.43-.17-.85-.35-1.27-.54h0l-.2-.3a10.08,10.08,0,0,0,1.54.86ZM7.8,34l.09.21a.14.14,0,0,0-.16,0L7.44,34c0-.09,0-.18,0-.28Zm-.41-.69c0-.13,0-.26,0-.39.06.18.13.36.19.53Zm-.28,1.13Zm-.41-.55.1.25c-.07-.07-.15-.14-.22-.21s-.12-.25-.18-.37Zm.16.39h0l-.09-.08,0,0Zm.13.19h.06l0,0s0,0,0,0l0,.14c-.05-.05-.12-.1-.17-.15Zm.61.29q.36.31.75.58l.19.5c-.21-.15-.42-.31-.62-.47ZM3.87,31.17a.32.32,0,0,0-.18,0,8.21,8.21,0,0,1-.48-1.41,7.79,7.79,0,0,0,.66,1.42ZM2.53,27.36l0-.12s0,0,0,0S2.53,27.33,2.53,27.36Zm10.74,12.4-.13,0,.23,0a.14.14,0,0,0,.09,0l.07.1Zm.18-1.18-.07-.1.24.15Zm0-.19a0,0,0,0,0-.06.07l-.11-.15a.07.07,0,0,0,.05-.07h.11c.08.1.16.19.25.28ZM8,33.62c.11.15.25.3.38.45l-.26-.19ZM7,33.06l-.18-.15a5.4,5.4,0,0,1-.2-1.24q.2.32.43.63Q7,32.68,7,33.06Zm-.64-1.64c0-.1-.05-.21-.07-.31h0l.12.2Zm-1-.8c0,.32.08.65.16,1,0,.05.09,0,.08,0-.06-.24-.08-.48-.12-.72h0a7,7,0,0,0,.22.94l0,.21-.28-.24c-.11-.17-.22-.33-.32-.51s-.09-.37-.13-.55c.05,0,.15,0,.15,0l0-.5A4.09,4.09,0,0,0,5.41,30.63Zm2.23,4.86.14.25-.11-.07,0-.19Zm.27.47.24.39-.33-.23-.17-.18a.1.1,0,0,0,.05-.1Zm-.54-.34,0,0,0,0ZM2.61,25.69c0,.09,0,.19,0,.28q-.07.62-.1,1.24l0-.21A8.59,8.59,0,0,1,2.61,25.69Zm-.5.3,0-.09s0,.07,0,.1Zm.71-7.44h0l0,0,0-.06A.16.16,0,0,0,2.81,18.54Zm13.4,22.51v0L16.09,41Zm-2.39-1.18a3.32,3.32,0,0,1-.24-.36.13.13,0,0,0,.08-.09l.17,0c.15.18.31.35.48.51Zm-.13-1.33c.1.08.23,0,.23-.13l.25.07,0,0h.06l.42.19a3.27,3.27,0,0,0-.7,0ZM9.1,35v0l.17.11Zm-.27-.17-.37-.23,0-.07.39.27ZM6.24,30c0-.4,0-.8,0-1.2a13,13,0,0,0,.28,1.88C6.44,30.49,6.35,30.26,6.24,30Zm-.44-.7a.17.17,0,0,0-.12,0,8.76,8.76,0,0,1,.23-1.58c0,.46-.08.93-.09,1.4C5.81,29.24,5.8,29.28,5.79,29.33Zm-.74.8c0-.11-.08-.21-.11-.32s0-.24,0-.37a.08.08,0,0,0,.09,0l.08-.22Q5.07,29.66,5.05,30.13Zm-.3-1.67a6.89,6.89,0,0,1,0-.88h0a.08.08,0,0,0,.06.06A7.38,7.38,0,0,0,4.75,28.46ZM5.92,33l0,.13c-.1-.19-.2-.39-.29-.59Zm.09.31a5,5,0,0,0,.31.44l0,.08a4.6,4.6,0,0,1-.35-.5Zm.83,1.42c.12.13.26.25.39.37s0,.17.06.25L6.87,35l-.15-.22,0,0S6.83,34.76,6.84,34.72Zm-.08.39c.11.17.23.33.36.49H7c-.1-.11-.21-.2-.3-.31a.26.26,0,0,0-.37,0L6.08,35,6,34.81a.12.12,0,0,0,.08-.19c-.21-.24-.4-.48-.58-.73,0,0,0,0,0-.08l-.08-.15A10.63,10.63,0,0,0,6.75,35.1Zm-4-8.53c0-.09,0-.17,0-.26v-.07s0,.09,0,.14S2.77,26.51,2.77,26.58Zm.32-3.4v0l0,0Zm-.21.72-.06.24A9.9,9.9,0,0,1,3,23.07Q2.93,23.48,2.88,23.89ZM2.63,25c0,.2-.09.39-.13.59l0,.08h0c0,.19-.06.38-.09.57A.26.26,0,0,0,2.29,26a4.17,4.17,0,0,1,0-.43c.11-.26.22-.51.36-.76C2.63,24.9,2.63,24.94,2.63,25Zm12,14.1L14.4,39l.36.06h0l.37.07-.42,0Zm1.41.09-.17-.09a.15.15,0,0,0-.07-.22h0l.3.06c0,.09.07.17.11.25ZM8.73,34.33l0,0a.07.07,0,0,0,0-.09l-.11-.15-.07-.14.32.28.16.3ZM7.42,32l0-.08c0-.42.06-.84.12-1.26a16,16,0,0,0,.8,2.38A12.67,12.67,0,0,1,7.42,32ZM6.67,30.6l0,.08a12.5,12.5,0,0,1-.28-2.31l0-.12a.86.86,0,0,1,.14-.34A10,10,0,0,0,6.67,30.6ZM6.12,28s0-.09,0-.14c0-.38.05-.78.1-1.19l.07-.19a12.69,12.69,0,0,0-.06,1.31C6.2,27.91,6.16,28,6.12,28Zm-.83-.83c-.06.4-.11.8-.14,1.21-.08.23-.16.46-.23.7a7.37,7.37,0,0,1,.37-2.2C5.29,27,5.29,27.12,5.3,27.22ZM3.16,22.74v-.09l.09-.18Zm-.49,1.76q-.19.29-.36.59a6,6,0,0,1,.55-1.82A10.43,10.43,0,0,0,2.67,24.51Zm-2,.63s0,.09,0,.14S.71,25.19.71,25.14ZM18.11,40.31h0v0Zm.23,1.75h0c0,.21,0,.41.08.62s0,.21.05.31c.06.34.12.69.2,1a13.28,13.28,0,0,1-.33-2Zm.61,2.85L19,45l.11.45c-.06-.17-.12-.34-.17-.51ZM34.89,58.8h0a.35.35,0,0,0,0,.09l-.07-.07Zm2.84.34.12,0h-.09l0,0Zm12.46-4.33s0,0,0,0h0ZM50,53.42l-.11-.05q.45-.51.87-1.07v.22C50.55,52.82,50.29,53.12,50,53.42Zm0,.42,0,0h-.11l.06-.06Zm-.27.34a4.91,4.91,0,0,1-.38.31l-.48,0,0,0C49.17,54.35,49.45,54.27,49.72,54.18Zm-1.07.75q-.28.15-.58.27H48l.37-.29ZM41.4,56.86l-.55-.26-.18-.19c.37.17.75.33,1.14.48Zm-1.17-.56c-.36-.19-.72-.39-1.07-.6L39,55.54c.34.21.7.4,1.06.59Zm-1.41.24-.3-.07-.22-.34C38.46,56.28,38.64,56.41,38.82,56.54Zm-.35.6.09.17-.28-.3Zm-.65,0h0Zm-5.14-3.47,0,0h0Zm-.43,1.4L32.2,55A23.44,23.44,0,0,1,31,51.86l.42.37c.1.19.2.38.31.56A8.94,8.94,0,0,0,32.25,55.07Zm-3-4.86c0,.09,0,.19,0,.28,0-.13-.06-.27-.09-.4Zm.92,3.85,0,.09-.08-.07c0-.05,0-.1,0-.16Zm.2.52.13.3-.2-.16a2.73,2.73,0,0,1-.1-.25Zm-.71-.47-.41-.44.43.36S29.63,54.08,29.62,54.11Zm-2.79-2.54c-.06-.11-.13-.22-.19-.33s-.17,0-.13.05c.15.32.31.62.48.92a12.05,12.05,0,0,0,.49,1.43,10,10,0,0,1-.92-2,.12.12,0,0,0-.11-.09,9.14,9.14,0,0,1-.28-1.59c.16.26.33.51.5.76S26.77,51.28,26.83,51.57Zm-7.32-6.52c0,.1,0,.2.06.3q-.1-.26-.18-.53l0-.16.11.26Zm-4.13-4.82a.1.1,0,0,0,0-.08l.36.13Zm.34-.49-.31-.23h.05l1,.17,0,0A5.74,5.74,0,0,1,15.72,39.74ZM10,35.14,10,35.07l.44.29ZM7.68,29.74v.11Zm-.27.51-.09.42q-.07.32-.12.65A8.09,8.09,0,0,1,7,30.51c.1-.2.2-.4.31-.6ZM7,30.12s0-.06,0-.09L7,30s0,0,0,0a12.23,12.23,0,0,1,.18-3.12,12.11,12.11,0,0,0,.14,2.76C7.18,29.75,7.08,29.94,7,30.12ZM6.6,27.31h0a2.87,2.87,0,0,0-.23.31,12.55,12.55,0,0,1,.12-1.42q.21-.32.44-.62A16,16,0,0,0,6.6,27.31Zm-.6-1c-.08.16-.15.32-.22.49s-.16.35-.24.52l0,.05c.05-.44.12-.89.2-1.33.16-.22.33-.43.51-.64C6.14,25.71,6.07,26,6,26.32Zm-.81.09v-.05h0ZM5,25.24c-.05.08-.09.17-.14.26,0-.14.09-.27.14-.41Zm-.59,2.64-.12.27c0-.21.08-.41.12-.62C4.46,27.65,4.46,27.76,4.46,27.88Zm-.19.8c.06-.16.14-.3.21-.45a14,14,0,0,0,.32,2.3,12.89,12.89,0,0,1-.59-1.37C4.23,29,4.25,28.84,4.27,28.68Zm.5,2.42-.53-.49-.12-.31c0-.2,0-.4,0-.6A13.92,13.92,0,0,0,4.77,31.1Zm-.94-2c0,.13,0,.27,0,.4v0l0-.09C3.84,29.29,3.83,29.18,3.83,29.06Zm-.4-6.5c0-.15.08-.31.12-.46s0,0,0,0l.17-.33.2-.31C3.74,21.82,3.58,22.19,3.43,22.57Zm-.49-.46-.06.12h0l.06-.13Zm.3-.55.07-.11-.07.13Zm-.63.79,0-.14v0s0,0,0,0l0-.16.2-.29v.14C2.78,22,2.69,22.18,2.61,22.35Zm1.77-5.16.25-.3c-.08.1-.17.19-.25.3ZM6.1,14.26a5.87,5.87,0,0,1-1-1.44,2.29,2.29,0,0,0,.7.34c.12.36.24.72.37,1.08ZM6,12.3a3.8,3.8,0,0,0,.23.55A4.1,4.1,0,0,1,5.65,12l-.12-.37A3.68,3.68,0,0,0,6,12.3Zm2-8a6.77,6.77,0,0,1,2.48-.93l.7.15A9.76,9.76,0,0,0,9.42,4,6.13,6.13,0,0,0,8,4.34Zm3-1a5.62,5.62,0,0,1,.76,0l.19.1-.42,0Zm1,.11h0l-.07,0,.12,0Zm2.57.7a3.82,3.82,0,0,1-1.1-.61Zm-.28-.65.5.16.41.41-.49-.26A3.63,3.63,0,0,0,14.33,3.53Zm1.93,1.06A7.85,7.85,0,0,1,16.82,4h0l-.53.7C16.3,4.69,16.27,4.64,16.25,4.59Zm0-.11a2.38,2.38,0,0,0-.22-.4L16.1,4h.05l.3-.17.28.16C16.55,4.14,16.37,4.3,16.21,4.48ZM.73,26c0,.06,0,.12,0,.17l0,0C.73,26.06.73,26,.73,26Zm53.3,25,.13-.2c0,.08,0,.15-.06.23A.07.07,0,0,0,54,50.92Zm-.1.15a2.3,2.3,0,0,1,0,.24l-.54.88c-.21.34-.44.66-.67,1l0-.11a15.63,15.63,0,0,0,.93-1.57C53.76,51.36,53.84,51.21,53.93,51.07Zm-1.2.82,0,0,0-.09ZM51,53.69v0h0Zm-.15.22,0,0-.43.29,0,0,.24-.28,0,0,.1-.12.07,0C50.86,53.79,50.86,53.85,50.86,53.91ZM51,52.59l.06-.17.23-.3-.29.57v0A.08.08,0,0,0,51,52.59Zm-1.16.72a3.35,3.35,0,0,1-.41-.29,5.07,5.07,0,0,0,1.27-.73A13.26,13.26,0,0,1,49.84,53.31Zm-1.78,1.56c-.12.08-.23.18-.35.26a3.51,3.51,0,0,1-1-.44l.49,0A5.48,5.48,0,0,0,48.06,54.87Zm-8.5-.11a11.77,11.77,0,0,0,1.63,1.09l-.79-.38a9.82,9.82,0,0,1-.9-.73c-.1-.18-.19-.36-.28-.55.1.1.2.2.31.3A.19.19,0,0,0,39.56,54.76Zm-1.14-.07-.07-.11.11.11Zm-.73.11c.09.13.18.26.28.39l-.3-.25a.18.18,0,0,0-.27.07l-.19-.23a.22.22,0,0,0-.35,0c-.1-.15-.21-.29-.3-.44l.73,0Zm-.18,2-.38-.1-.44-.49.41.17Zm-2.31-.94,0,0a14.86,14.86,0,0,1-1-1.38.16.16,0,0,0-.17-.06c-.1-.19-.18-.39-.27-.59a8.75,8.75,0,0,0,1.42,1.43.22.22,0,0,0-.09.25A3.81,3.81,0,0,0,35.21,55.89Zm-1.59-1.34a7.31,7.31,0,0,1-1-1.44l.43.25A12.6,12.6,0,0,0,33.62,54.55ZM26.16,49.5c0-.13,0-.26,0-.4.11.35.25.7.39,1.05Zm.23,2a.14.14,0,0,0-.1.12,8.33,8.33,0,0,1-.13-1.08A9.12,9.12,0,0,0,26.38,51.52Zm.51,1.77-.12-.08a7.31,7.31,0,0,1-.4-1.23A6.57,6.57,0,0,0,26.89,53.28Zm-3.34-4.4a1.17,1.17,0,0,0-.34-.35,4.27,4.27,0,0,1,.1-.78c0,.06,0,.12,0,.18s.13.06.12,0,0-.32-.06-.48l.08-.25c0,.11.09.21.13.32A9.25,9.25,0,0,0,23.55,48.89Zm-2.62-3.57-.06,0a7.26,7.26,0,0,1-.2-1.26q.12.65.3,1.27Zm-.39-1.2v0c0-.4-.07-.79-.09-1.18,0-.12,0-.24,0-.37,0,.06,0,.12,0,.18s0,0,0,.06C20.48,43.11,20.49,43.6,20.54,44.12Zm-.29.65q-.06-.43-.11-.86.09.45.19.9A.27.27,0,0,0,20.24,44.78Zm-3.18-4.06a4.62,4.62,0,0,0-.54-.1l-.09,0h.16a.1.1,0,0,0,.09,0l.31.07ZM16.12,40l.42-.09.18.31Zm-1.77-1.92-.19,0-.6-.32a.16.16,0,0,0,0-.27c-.15-.11-.28-.24-.42-.35L13,36.87v0c.22.06.43.14.66.18s.23-.23.07-.27l-.05,0,.09,0,.17.17h0A7.58,7.58,0,0,0,14.59,38a4.57,4.57,0,0,1-1.24-1s-.09,0-.06,0A5.62,5.62,0,0,0,14.35,38.07Zm-3.6-6.24c0-.11,0-.21,0-.32l0,.08C10.74,31.67,10.74,31.75,10.75,31.83ZM12,35.5c.07.14.15.28.22.42l-.15-.06A6,6,0,0,1,11,33.15,6.86,6.86,0,0,0,12,35.5Zm-1.25-.39c-.34-.22-.66-.46-1-.71a8.37,8.37,0,0,1-.14-1.26A11,11,0,0,0,10.73,35.11Zm-3.17-6a10.38,10.38,0,0,1,.08-4.16c0,1.29-.09,2.67,0,4Zm-.45-4.26,0,0,0-.05Zm-.42.24.06-.23c0-.07.06-.14.11-.21l.27-.28C7,24.6,6.84,24.85,6.69,25.08Zm0-.59h0l0-.08Zm-1.36.82,0-.06c0,.19,0,.37,0,.56C5.32,25.66,5.31,25.49,5.31,25.32ZM5,24.58c-.08.2-.16.41-.22.62A9.18,9.18,0,0,1,5,23.89C5,24.13,5,24.36,5,24.58Zm.77-4.91-.22.43A12.51,12.51,0,0,0,4,23.17a10.33,10.33,0,0,1,2.13-4.11A5.44,5.44,0,0,0,5.8,19.67Zm-2.26,5c-.11.48-.21,1-.28,1.45a21.87,21.87,0,0,1,1.24-4.84l.36-.54A14.31,14.31,0,0,0,3.54,24.65ZM2.93,26V26c0-.25,0-.49,0-.74,0,0,0,0,0,0,.07-.3.14-.59.23-.88,0-.06-.07-.09-.09,0s-.12.39-.17.59c0-.27.09-.54.14-.8s.14-.25.22-.38,0-.09-.06,0l-.11.16v0a9.9,9.9,0,0,1,.65-1.41A16.5,16.5,0,0,0,2.93,26Zm.46-3a15.54,15.54,0,0,1,1.07-2.35q-.3.7-.56,1.41C3.71,22.4,3.55,22.72,3.39,23Zm1-2.49-.11.15q.29-.48.59-1l-.1.21C4.65,20.15,4.52,20.35,4.4,20.55Zm.66-1.19s0,0,0,0L4.62,20a0,0,0,0,0-.05,0,5.11,5.11,0,0,0-1,1.35.1.1,0,0,0-.16,0l.11-.17a.05.05,0,0,0-.09-.07c-.06.07-.1.15-.16.22v-.14c.32-.42.66-.82,1-1.23-.08.14-.18.26-.26.4s.06.1.09.05a14.48,14.48,0,0,1,1.46-2Q5.31,18.86,5.07,19.36ZM4.9,18.27c-.28.32-.56.64-.85,1,.22-.33.46-.65.69-1l.5-.48C5.12,18,5,18.16,4.9,18.27Zm-.15-1.19A9,9,0,0,1,6,15.71l.61-.27.06.15A12.34,12.34,0,0,0,4.75,17.08Zm1.56-2.94c-.11-.3-.22-.61-.32-.92l.13,0a2.49,2.49,0,0,0,.77.6Zm-.4-3.45c0,.23,0,.45,0,.67,0,0,0,0,0,0a2.37,2.37,0,0,0,0,.28,3.79,3.79,0,0,1-.62-1.09,11.64,11.64,0,0,1,.76-1.08,8.58,8.58,0,0,0-.13,1c-.06-.12-.12-.23-.17-.36a0,0,0,0,0-.06,0C5.76,10.34,5.83,10.51,5.91,10.69ZM5.6,9.75A7.64,7.64,0,0,1,6,8.67,4.77,4.77,0,0,0,6,9.2C5.88,9.37,5.74,9.56,5.6,9.75Zm.77-1.64.2-.28a6.41,6.41,0,0,0-.27.7C6.32,8.39,6.34,8.25,6.37,8.11Zm.07-1.05A4.41,4.41,0,0,0,5.1,9.67a4.28,4.28,0,0,1,.32-2.32.07.07,0,0,0,.09,0A20.06,20.06,0,0,1,7.59,5.59,4.15,4.15,0,0,0,6.45,7.06ZM5.64,7l0-.08a.15.15,0,0,0-.16-.24c0-.07.09-.13.13-.2h0c.14-.14.28-.26.42-.39a.09.09,0,0,0,.12,0A4.94,4.94,0,0,1,7,5.36l.06,0a5.55,5.55,0,0,1,2.21-.94A12.4,12.4,0,0,0,5.64,7Zm6.72-3.45.36,0s0,0,0,0l.57.17a4,4,0,0,0,1.45.81c.08,0,.11-.06.1-.12l.11.06.2.23,0,0-1.28-.3A10.33,10.33,0,0,0,12.36,3.51ZM16,4.92,16.1,5,16,5.18,15.87,5,16,4.9Zm.42.08a.12.12,0,0,0,0-.17l-.06,0,.52-.73.28.16h.07L17,4.49l-.22.15s0,.07,0,.08l-.31.41Zm.82-.54c.36-.24.72-.46,1.08-.66a9.19,9.19,0,0,0-1,.83c-.15.1-.3.2-.45.31Zm4.27-1.8h.17a6.93,6.93,0,0,0-1,.61l-.58.22-.46.13a9.31,9.31,0,0,1,1.88-1Zm-.56.9-.24.11-.22.07.22-.13Zm1.48,0,0,0c.45-.07.9-.11,1.35-.13a13,13,0,0,0-3,.82A6.73,6.73,0,0,1,22.45,3.54Zm3.51,0,.16,0s0,0,0,0l.07,0a.08.08,0,0,0-.06.1A8.68,8.68,0,0,0,25,3.6Q25.47,3.55,26,3.53Zm.44.24.05,0-.13,0Zm1.22.59h0l0,0ZM34,8.89a10.58,10.58,0,0,0-.93-1.35l.06,0c.3.36.63.71.93,1.08a11.67,11.67,0,0,1,1.23,1.9l.08.17a8.86,8.86,0,0,0-1-1.26C34.31,9.28,34.18,9.09,34,8.89Zm3.31,7-.4.23-.45.19c.07,0,.13-.1.2-.14ZM46.1,19l-.24-.18c-.15-.12-.28-.24-.43-.35h0l-1-.74c.4.17.78.35,1.15.56a10.21,10.21,0,0,1,.69.84l-.13-.1Zm-2.81-2.21c-.06-.06-.17,0-.11.11l.07.07q-.37-.12-.74-.22l-.21-.2a.12.12,0,0,0-.07,0q.56.11,1.12.28a8.58,8.58,0,0,1,1.26.72c-.31-.15-.64-.29-1-.42Zm-1.15-.29h.07a.11.11,0,0,0-.11.12l-.4-.14Zm1.64,1,.41.39-.2-.11c-.09-.07-.17-.15-.27-.21s-.05,0,0,0c-.19-.1-.39-.18-.58-.27L43,17.27C43.27,17.34,43.52,17.42,43.77,17.51Zm-3.83-2.22a4.23,4.23,0,0,1,.64.08h-.13a.06.06,0,0,0-.06,0l-.15,0h-.09a.07.07,0,0,0-.08-.07l-.5.08Zm-.2,1.3-.18,0,0,0Zm6.11,2.83,0,0a16.14,16.14,0,0,1,1.17,1.14l.25.32c0,.09.07.17.1.26a.1.1,0,0,0,.09.07l.14.26a.17.17,0,0,0,0,.14l.08.23A9.55,9.55,0,0,0,45.85,19.42Zm.83-1.71.12.08.15.19Zm-11-.57c-.17.15-.32.29-.48.45l-.16.08c.06-.07.13-.14.19-.21ZM37.24,17l-.1.07.1-.07ZM39,16.63l-.08.07s0,0,0,0l-.5.13.34-.23Zm10.2,5.44c.06.12.1.24.15.36.09.29.16.59.24.89-.12-.24-.25-.48-.37-.72a.2.2,0,0,0,.06-.16C49.24,22.31,49.21,22.19,49.18,22.07ZM37,17.38c.21-.16.4-.32.62-.47a.15.15,0,0,0,.2.14l.17-.08-.1.08c-.29.1-.57.21-.85.33Zm.78.07c.29-.12.59-.22.89-.31a3.46,3.46,0,0,0-.56.45c-.12,0-.25-.07-.37-.1Zm11.55,6c.26.56.51,1.12.74,1.68-.22-.37-.45-.73-.68-1.09A5.71,5.71,0,0,0,49.3,23.5ZM20.91,2h-.18l.42-.1ZM18,3.08h0a9.87,9.87,0,0,0-1,.72l-.2-.15q.72-.41,1.44-.74ZM3.22,33.92l0,.08,0-.07ZM43.57,58.8h0l-.11,0Zm10.64-7.94c0-.08,0-.17,0-.25s0,0,0,0,.19-.29.28-.44-.06-.11-.09-.06-.22.31-.33.47c0-.08.08-.15.11-.23a.09.09,0,0,0-.17-.07c-.26.52-.55,1-.85,1.51L53,52a14.67,14.67,0,0,0,.6-1.9h0a.12.12,0,0,0-.1-.14c.4,0,.79,0,1.18,0l-.18.47C54.41,50.56,54.31,50.71,54.21,50.86ZM61,41.22l.07-.14q-.08.29-.18.57C61,41.51,61,41.37,61,41.22Zm2.74-3.9a.07.07,0,0,0,.13,0c0-.28,0-.56,0-.84a14.59,14.59,0,0,0-.07-3.17,0,0,0,0,0,0,0,15.83,15.83,0,0,1,0,2.18,14.43,14.43,0,0,0-.61-3c0-.29-.1-.58-.15-.87l.07.11c0,.05.11,0,.08-.06L63,31.31q-.13-.63-.3-1.25a12.53,12.53,0,0,0,1.38.88h.05a17.37,17.37,0,0,1,1,2.28c.16.6.32,1.21.45,1.82a5.93,5.93,0,0,1-.14,1.33,10.46,10.46,0,0,0-.28-1.28c0-.05-.11,0-.09,0a11.08,11.08,0,0,1,.26,1.65A6.11,6.11,0,0,1,64.74,38a.1.1,0,0,0-.19,0c0,.09,0,.18,0,.27a7.09,7.09,0,0,1-.48.66,5.88,5.88,0,0,0-.07-.64s-.08,0-.07,0a5.75,5.75,0,0,1,.07.72,8.23,8.23,0,0,1-.89.9A13.28,13.28,0,0,0,63.78,37.32ZM63,31.95a10,10,0,0,0-.91-1.86c.29.41.56.85.83,1.3C63,31.57,63,31.76,63,31.95Zm2.51,7a.17.17,0,0,0,.11.21c-.11.3-.22.59-.35.87a9.52,9.52,0,0,0,.23-2.33l0-.11a.16.16,0,0,0-.05-.16c0-.24,0-.47-.05-.71a6.25,6.25,0,0,0,.22-1A6.58,6.58,0,0,1,65.52,39Zm-8,8.22a8.32,8.32,0,0,0,1.68-.73h0c-.12.07-.22.17-.34.24s0,.05,0,0,.3-.21.45-.31a7.75,7.75,0,0,0,1.58-.59l-.29.22-.32.16a.35.35,0,0,0-.13.13l-.17.09a.18.18,0,0,0-.1.13l-.11.06a13.63,13.63,0,0,1-1.9.6Zm3.78-24.66-.08,0h0Zm6.57,15.3a.19.19,0,0,0,0,.06l-.07.19C67.85,38,67.86,37.89,67.87,37.81ZM59.77,22h0Zm8.08,13.32v0h0c0-.05,0-.11,0-.16h0ZM61.73,46.63a.21.21,0,0,0,0-.12c.23-.09.44-.18.62-.26h0Zm5.91-10.89v.13a.09.09,0,0,0-.09,0v-.14A.21.21,0,0,0,67.64,35.74Zm-3.88,6.68q.22-.52.5-1c0,.2-.08.39-.13.58Zm-1.41,1.43h0l0,0Zm.93-18.15a1.56,1.56,0,0,1,0-.17l.23.18a.18.18,0,0,0,0,.12l-.17-.11Zm2,15.51-.13.2q.13-.26.24-.52C65.31,41,65.27,41.11,65.23,41.21Zm-.69.15a11.24,11.24,0,0,0,.2-1.3,14,14,0,0,0,.5-1.4,9.59,9.59,0,0,1-.63,2.57Zm.75-4a.15.15,0,0,0-.14.11c0-.09.09-.19.13-.28C65.28,37.26,65.28,37.32,65.29,37.37Zm-.51,1.24c0-.13,0-.26,0-.39a6.76,6.76,0,0,0,.38-.74C65,37.87,64.91,38.24,64.77,38.62Zm-.25.64c-.16.4-.33.8-.52,1.19a6.4,6.4,0,0,0,.08-1.28c.16-.19.32-.39.46-.59C64.55,38.8,64.54,39,64.53,39.26Zm-6.7,7.35h0l-.28.08ZM56.07,47l.29-.1a8.73,8.73,0,0,0,1.15-.17A9.22,9.22,0,0,1,56.07,47ZM64.8,32.08l-.13-.3c0,.09.09.19.13.28ZM64,39.28a6.51,6.51,0,0,1-.16,1.47,12,12,0,0,1-4.64,5l0,0-.08,0a8.81,8.81,0,0,1-1.57.54,6.54,6.54,0,0,0,.75-.48A11.18,11.18,0,0,0,63,40.23,8.6,8.6,0,0,0,64,39.28ZM55.73,47h-.17l.14,0Zm1.26.33,0,0-.44.06Zm2.31.93.23,0-.23.08A.29.29,0,0,0,59.3,48.25Zm10-10.46h0a.22.22,0,0,0,0-.06,7,7,0,0,0,.23-.82Q69.38,37.36,69.27,37.79Zm-8-13.6.14.08c-.35-.11-.7-.2-1-.27a12.1,12.1,0,0,0-1.62-.49A10.56,10.56,0,0,1,61.28,24.19ZM66.45,32a.07.07,0,0,0,0-.05,7.34,7.34,0,0,0-1.72-3.41.16.16,0,0,0,.06-.17c-.39-1.34-2-2.22-3.09-3-.39-.27-.8-.51-1.22-.73l.31.08a10.24,10.24,0,0,1,2,1.11A.23.23,0,0,0,63,26a7.93,7.93,0,0,1,1.44,1.38.1.1,0,0,0,.17,0,10.22,10.22,0,0,1,.95,1.22,11.59,11.59,0,0,1,1.22,4h0a.15.15,0,0,0,0,.12v.13C66.7,32.48,66.58,32.22,66.45,32Zm-5.07-4.68c2,.55,3.29,2.46,4.21,4.34a16,16,0,0,1,.53,2.1c0,.9,0,1.79,0,2.67a14,14,0,0,0-.46-2.32,7,7,0,0,0-.5-1.78L65.08,32A.11.11,0,0,0,65,32a8.44,8.44,0,0,0-1-1.65A9.59,9.59,0,0,0,61.39,27.28ZM62.64,30h0c.09.36.17.72.24,1.07a15.16,15.16,0,0,0-1.24-1.79Zm-3.53-1.84a5.74,5.74,0,0,1,2,.82,9.74,9.74,0,0,1,1.95,3.63A17.09,17.09,0,0,1,62.26,40a.07.07,0,0,0,.12.05,14.4,14.4,0,0,0,.89-6.8,17.16,17.16,0,0,1,.45,3.07,14,14,0,0,1-1,4l-.29.23c-.07.05,0,.16.08.11l.07-.05a11.75,11.75,0,0,1-2.06,3.09,6.93,6.93,0,0,0,1.28-3.93,12.71,12.71,0,0,0,1-3.85.14.14,0,0,0-.23-.12,8,8,0,0,0-.18-1.62.1.1,0,0,0-.19,0c0,.18,0,.36,0,.53a5.8,5.8,0,0,0-.83-2.33A7.24,7.24,0,0,0,59,30.2,6.92,6.92,0,0,0,57.7,29c-.13-.09-.27.1-.15.19s.2.17.3.25A12.81,12.81,0,0,1,56,28.18,10.06,10.06,0,0,1,59.11,28.19Zm.15,2.31.37.25A6.1,6.1,0,0,1,62,37a.05.05,0,0,0,.05.06,12.41,12.41,0,0,1-.27,1.28c-.08.23-.17.46-.27.69a.13.13,0,0,0-.1.12c0,.06,0,.11,0,.17l-.07.17a14.7,14.7,0,0,0,0-3.74c0-.39,0-.78-.08-1.17,0-.06-.09,0-.09,0s0,.12,0,.19A10.26,10.26,0,0,0,59.26,30.51ZM51.09,46.9a9.74,9.74,0,0,0,1.82.53,9.25,9.25,0,0,0,3,.45s0,0,0,0L54.25,48a14,14,0,0,1-4.05-1.22Zm-2.65-.79v0c-.29-.21-.58-.43-.87-.65Q48,45.81,48.43,46.11Zm1.47,1.83.15.09-.45-.13Zm2.84,2a.11.11,0,0,0-.1-.14l.81.08a.12.12,0,0,0-.08.07,9.11,9.11,0,0,0-.4,1.2c0-.12,0-.24,0-.36l.12-.55c0-.07-.11-.11-.13,0v0c0-.1,0-.2,0-.3s-.06,0-.07,0c0,.21,0,.42,0,.63a13.88,13.88,0,0,1-.71,1.95s0,0,0,0,0,.08,0,.13.06-.21.07-.31a.13.13,0,0,0-.08-.13A11.88,11.88,0,0,0,52.74,50Zm-1,2.12h0q-.27.72-.57,1.42h-.07s0,0-.05,0l-.1,0v0a5.81,5.81,0,0,0,.71-1.4ZM51.59,52a6.31,6.31,0,0,1-.61,1.1h0c.18-.37.35-.75.52-1.12Zm-.26,0c0-.06-.05-.11-.1-.06l0,0,0-.11.14,0Zm-.45-.25.16.07L50.9,52ZM48.7,53.23a6.32,6.32,0,0,0,.8.42l-.28.27a2.79,2.79,0,0,1-1.5-.6A4.15,4.15,0,0,0,48.7,53.23ZM46.25,53a3.47,3.47,0,0,0,1.2.34,3.1,3.1,0,0,0,1.46.79c-.28.06-.56.13-.85.16A3.59,3.59,0,0,1,46.25,53Zm-3.14.28.49.29a12,12,0,0,0,1.16.81.13.13,0,0,0,.08.2l.3,0c.26.15.53.28.81.41-.6-.15-1.2-.31-1.79-.5A8.16,8.16,0,0,1,43.12,53.26ZM41.4,55.11l-.18-.2.37.26Zm-2.78-3.44a.15.15,0,0,0-.06.2A17,17,0,0,0,39.88,54a5.72,5.72,0,0,1-1.63-3.29C38.35,51.07,38.48,51.37,38.61,51.67ZM38,54.2l0,0L37.74,54Zm-.86-.05-.68-.07a15.32,15.32,0,0,1-1.23-2.65A14.47,14.47,0,0,0,37.09,54.14Zm-1.7,0a9.06,9.06,0,0,0,1,1.43L36,55.4l-.67-1.23Zm-.46-.1.5.92a8.92,8.92,0,0,1-1.28-1.16C34.4,53.92,34.66,54,34.93,54.07Zm-2.17-1.69c0,.17.1.33.16.5l-.53-.32a8.89,8.89,0,0,1-.36-1c0-.28,0-.56-.07-.83a.14.14,0,0,0-.16-.13,11.68,11.68,0,0,1-.19-1.6A10.94,10.94,0,0,0,32.76,52.39Zm-5.61-7.13a17.18,17.18,0,0,0,1,2.69c0,.13.07.26.11.39-.48-.64-1-1.28-1.39-2,0,0-.06,0,0,0,.19.3.41.58.61.87a.09.09,0,0,0-.11.05A6,6,0,0,0,27,48.57c0-.41,0-.81,0-1.2a.18.18,0,0,0-.35,0,11.19,11.19,0,0,0-.1,1.89q-.15-.4-.27-.81A15.11,15.11,0,0,1,27.15,45.26Zm-1.4,2c0,.28.1.57.16.85s-.09.55-.11.82l-.22-.37Q25.66,47.91,25.75,47.26Zm0,2a8.44,8.44,0,0,0,.52,3.63l-.19-.13-.61-.91a15.29,15.29,0,0,1,.06-3ZM25.15,51c0,.14,0,.28,0,.42l0-.06C25.13,51.19,25.14,51.07,25.15,51Zm-.57.58-.12-.24c0-.07,0-.14,0-.2C24.52,51.24,24.55,51.39,24.57,51.54Zm-.21-2.43a11.12,11.12,0,0,0,0,1.26l-.08.3c0-.38,0-.76,0-1.14C24.33,49.39,24.35,49.25,24.37,49.11Zm-.29-1.41A17.49,17.49,0,0,0,24,50l0,.26c0-.09,0-.17-.05-.26l0,0a1,1,0,0,0-.11-.84h0c0-.16,0-.32,0-.48s.07-.28.11-.41c.06,0,.15,0,.12-.08L24,48C24,47.9,24,47.8,24.08,47.7Zm-.44-.58c0-.09,0-.18-.06-.27l.17-.43C23.7,46.65,23.67,46.88,23.63,47.12Zm.5-2.27c-.21.39-.42.79-.61,1.21a24.29,24.29,0,0,1,1.17-2.92C24.5,43.69,24.31,44.26,24.13,44.85Zm-1,1.92L23.1,47v0Zm-.23-.06,0,.1v.06C22.93,46.82,22.93,46.77,22.92,46.72Zm0,1,0,.16c0,.1,0,.19,0,.29l-.08-.2C22.89,47.84,22.91,47.76,22.93,47.67ZM21.27,36.81c0,.09-.09.18-.13.27a.1.1,0,0,0-.06.06,6.1,6.1,0,0,0-.34,1.18,11.22,11.22,0,0,0-.27,1.54c-.07.32-.13.64-.17,1,0-.53,0-1.05,0-1.57A8.1,8.1,0,0,1,21.27,36.81Zm-1.14,3.63a19.63,19.63,0,0,0,.13,3c0,.15,0,.3,0,.45-.1-.52-.2-1-.27-1.57S20.07,41,20.13,40.43Zm-.37-.3A14.1,14.1,0,0,0,20,43c0,.61.09,1.22.17,1.82,0,0,0,0-.06,0a1.4,1.4,0,0,0-.23.25l-.08-.19A17.27,17.27,0,0,1,19.55,43c0-.16-.24-.12-.24,0s0,.4,0,.61q-.11-.55-.18-1.12A10,10,0,0,1,19.76,40.14Zm-1.45-2.38-.06,0,.08-.14Zm-1.06.91a1.64,1.64,0,0,0,.15.14c0,.1,0,.2,0,.29h0C17.32,39,17.28,38.81,17.25,38.66Zm0,.62c0,.15.08.31.13.46v.17c0,.16,0,.32,0,.48l-.22-.08-.29-.49h0a.15.15,0,0,0,.22-.12s0,0,0,0a.14.14,0,0,0,0-.06l-.08-.17a1.09,1.09,0,0,0,.12.12s0,0,0,0a.69.69,0,0,1-.16-.15l0-.05Zm-2.9-7.46c.06.63.15,1.27.26,1.9a4.71,4.71,0,0,0,.27,3.08l-.09,0A6.84,6.84,0,0,1,14.32,31.82ZM15,37.76c.09.13.28,0,.19-.15a7,7,0,0,1-.39-.65l.06,0a4.72,4.72,0,0,0,.47.78.07.07,0,0,0,.11-.09A4.44,4.44,0,0,1,14.77,34a.08.08,0,0,0,0-.07v0a6.13,6.13,0,0,1,.2-.69,7.5,7.5,0,0,0,0,2.22,6.33,6.33,0,0,0,.95,2.84c0,.05,0,.1,0,.15l-.37-.09,0,0-.41-.09a8.25,8.25,0,0,1-.93-1.38h.08l.09.13a.08.08,0,0,0,.13-.09h0A6.36,6.36,0,0,0,15,37.76Zm-.93-1.15h0L14,36.46Zm-1.29-3.87a8.75,8.75,0,0,1-.1-1.11Q12.76,32.17,12.82,32.73Zm-.53-1.36a14.36,14.36,0,0,0,.47,3.35c0,.08.17,0,.15,0a21.32,21.32,0,0,1-.47-3.78c.07-.19.14-.38.23-.56A9,9,0,0,0,13.24,35a10.65,10.65,0,0,0,.4,1.24,13.6,13.6,0,0,1-1-1.3c0-.11,0-.23,0-.34a.15.15,0,0,0-.22-.13A4.77,4.77,0,0,1,12.29,31.37Zm-.91-1.46a6.92,6.92,0,0,0-.14,2.52L11.06,32c0-.21-.05-.41-.07-.62A6.59,6.59,0,0,1,11.39,29.91Zm-.63-1.75A28.08,28.08,0,0,0,10.7,31l0-.14a15.53,15.53,0,0,1,0-2.44Zm-.44,1c0,.21,0,.42,0,.62l-.1-.33Zm-.15.44.15.58a10.71,10.71,0,0,0,.34,2.29.08.08,0,0,0,.12,0,6,6,0,0,0,1.1,3.21l-.25-.14A11.66,11.66,0,0,1,9.94,33,7.3,7.3,0,0,1,9.66,32,10.59,10.59,0,0,1,10.16,29.62Zm-.8,2.78a8.89,8.89,0,0,0,0,1.68l-.15-.14-.14-.26h0a10,10,0,0,1-.58-2.46,14.41,14.41,0,0,1,.29-1.45A11.63,11.63,0,0,0,9.36,32.4Zm-.07-4.78c-.15.43-.29.87-.41,1.31,0-.11,0-.22,0-.34A9.72,9.72,0,0,1,9.29,27.62ZM8.72,29c0,.12,0,.24,0,.36-.12.45-.21.9-.29,1.36,0-.08,0-.16,0-.24v-.08h0v0A7,7,0,0,1,8.72,29Zm1.7-7.23a12.66,12.66,0,0,0-2,5.64,6,6,0,0,0-.56,1.23c-.11-1.35-.1-2.73-.08-4.06l0,0C8.67,23.52,9.67,22.58,10.42,21.8Zm-2.06-.41c-.33.75-.64,1.55-.91,2.36-.19.17-.38.34-.55.53.1-.32.22-.64.34-1C7.63,22.69,8,22,8.37,21.39Zm-1.83,3c0,.1-.06.21-.09.31a.11.11,0,0,0-.09-.06h0Zm-.7.26c-.09.31-.17.63-.24.95-.06.11-.12.22-.17.32,0-.27,0-.55.06-.82A4.42,4.42,0,0,1,5.84,24.63Zm-.38-.37-.15.35c0-.09,0-.18,0-.28s.11-.2.17-.3C5.47,24.12,5.47,24.19,5.46,24.27Zm4.68-7.4c-2.14,1.45-3.37,4-4.44,6.42,0-.3.09-.6.14-.91,0-.07-.09-.08-.11,0-.07.41-.14.83-.2,1.24-.08.13-.15.26-.22.39,0-.32,0-.64.05-1s.09-.44.15-.66a15.36,15.36,0,0,1,2.41-4.06c.05-.06,0-.13-.1-.07A15.5,15.5,0,0,0,6,20.88a0,0,0,0,0,0,0c0,.06,0,.12-.06.18-.13.25-.26.5-.38.76q.07-.42.17-.82a11.82,11.82,0,0,1,1.74-2.79s0-.07-.05,0a11.58,11.58,0,0,0-1.55,2.34,6.82,6.82,0,0,1,.52-1.25c.11-.12.2-.25.31-.37s0-.08-.06,0a4.41,4.41,0,0,1,1.48-1.41s0,0,0,0a3.29,3.29,0,0,0-1.2.71l0-.05s0-.06,0,0l-.23.31a4,4,0,0,0-.33.42,7.8,7.8,0,0,0-1,1.3h0l-.67,1q.28-.74.6-1.46A8.34,8.34,0,0,1,6.45,18.2s0-.09,0-.06A8.3,8.3,0,0,0,5.3,19.27q.27-.6.55-1.19a.05.05,0,0,0,0,0,7.88,7.88,0,0,1,2-1.55c.08,0,0-.17,0-.13a8,8,0,0,0-1.93,1.48,1.53,1.53,0,0,0,.24-.54,6.85,6.85,0,0,1,1.46-.87s0,0,0,0a6.91,6.91,0,0,0-1.44.87c0-.07,0-.11-.12-.11H5.95c.66-.54,1.34-1.06,2-1.58.09-.07,0-.2-.11-.14a21.48,21.48,0,0,0-2.3,1.73v0l.57-.67.07-.06s0,0,0-.05l.28-.32h0a12.17,12.17,0,0,1,1.83-1,.1.1,0,0,0-.08-.19,7.46,7.46,0,0,0-1.45.66l-.05-.14L7.51,15a.16.16,0,0,0-.07-.3,5.43,5.43,0,0,0-.75.09.13.13,0,0,0-.07-.17c.23-.15.47-.29.71-.44a3,3,0,0,0,1.35.72h0A3.67,3.67,0,0,0,10.14,16.87Zm-1.55-2.3A7,7,0,0,1,7.72,14l.64-.33.06,0A6.32,6.32,0,0,0,8.59,14.56Zm.25-6A4.31,4.31,0,0,0,7.27,11a1.58,1.58,0,0,1-.12-.23V10.7a.15.15,0,0,0,.08-.12A3.87,3.87,0,0,1,9.91,7.24,3.2,3.2,0,0,0,8.84,8.57ZM11.6,6.76h0Zm-1.73.15L9.59,7h0l.05,0Zm-1.51.58c-1,.85-2,2.18-1.48,3.35,0,.2,0,.4,0,.6a3.47,3.47,0,0,1-.06-2.19c0-.1-.12-.17-.15-.06A3.79,3.79,0,0,0,6.91,12a6.34,6.34,0,0,1-.8-1.12c0-.28,0-.56.07-.84.07,0,.18,0,.16-.11s0-.33,0-.49,0-.17,0-.25A7.51,7.51,0,0,1,8.37,7.48Zm4.88-1.15a8.62,8.62,0,0,0-2.07-.67l.23,0c.12,0,.11-.21,0-.2l-1.31.16A5.13,5.13,0,0,0,8.26,6a4.41,4.41,0,0,1,1-.56.06.06,0,0,0,0-.1,4.41,4.41,0,0,0-1.42.88,5.41,5.41,0,0,0-.89.51A3.81,3.81,0,0,1,8.57,5.15a.07.07,0,0,0,0-.08,6.54,6.54,0,0,1,4.84,1ZM13.52,6A6.34,6.34,0,0,0,8.6,5a.06.06,0,0,0-.08,0l-.15.08h0a7.07,7.07,0,0,1,2-.85A7.65,7.65,0,0,1,13.92,5c.08,0,.13-.08.05-.12a6.89,6.89,0,0,0-1.14-.47.1.1,0,0,0,0-.17h0l1.12.21.78.5A13.8,13.8,0,0,0,13.52,6Zm-1.86-1.9.19,0Zm.45.07.26.07Zm2.65.67-.64-.4.9.2Zm.93-.07s0-.06,0-.07h-.06l0,0,.28.14-.08.1ZM14.93,6.7a6.4,6.4,0,0,1,.77-1.44l.12.14C15.51,5.82,15.22,6.26,14.93,6.7Zm1.31-1.21L16,5.24l.11-.15.21.27-.11.16S16.24,5.5,16.24,5.49Zm.44-.14h0l.1-.16c.11-.09.21-.2.33-.28ZM19,3.49l.71-.31a6.6,6.6,0,0,0-.86.69,8,8,0,0,0-1,.5A7.42,7.42,0,0,1,19,3.49Zm1.38.17.14,0-.41.24h0C20.16,3.8,20.26,3.74,20.34,3.66ZM16.87,6.61c-.18.13-.36.25-.53.39a7.77,7.77,0,0,1,3.29-2.82l0,0-.26.2a13.09,13.09,0,0,0-1.72,1.24c-.05,0,0,.13.06.09.27-.24.56-.44.84-.65-.45.41-.88.84-1.3,1.28l-.35.23-.08-.07s0,0,0,0Zm.69-.43a20.07,20.07,0,0,1,1.71-1.57,6.45,6.45,0,0,0-.39.6l-.43.25c-.06,0,0,.13.07.09l.25-.14-.14.24A8.64,8.64,0,0,0,17.55,6.18Zm1.63-.71a9.93,9.93,0,0,1,.87-.73,14.56,14.56,0,0,1,2.72-1,.09.09,0,0,0,.06.14l-.1,0a3.8,3.8,0,0,0-.61.31c-.5.27-1,.56-1.47.88A8.76,8.76,0,0,0,19.19,5.46Zm1.65-.36.83-.5c0,.07,0,.16.1.11,1.31-1.16,3.15-1.14,4.95-.69h-.13a8.92,8.92,0,0,0-4,.3c-.06,0,0,.08,0,.1A9.33,9.33,0,0,0,21,5.09Zm4.28-.76a11.2,11.2,0,0,1,1.13-.17h.3c-.29.07-.56.16-.84.26Zm1.82-.12.23,0,.2.14-.58.13-.45,0L26,4.49Q26.45,4.34,26.94,4.23Zm.08.51h.82l.62.45Q27.75,4.93,27,4.74Zm3.69,2a13.09,13.09,0,0,1,1.34,1,.18.18,0,0,0-.14.11l-.16-.12Q31.25,7.24,30.71,6.75ZM31.54,8q.35.39.67.81-.48-.4-1-.76l-.64-.61A10,10,0,0,1,31.54,8Zm-1.4-.79.23.23-.5-.34Zm-2.72-.8.42.07A10.45,10.45,0,0,1,29,6.93a24.65,24.65,0,0,1,2.59,1.92,10.6,10.6,0,0,1,1.88,2.8,10,10,0,0,0-2.1-2.1C30.17,8.39,28.71,7.42,27.42,6.38ZM27.7,8q-.45-.36-.93-.69a21.17,21.17,0,0,1,3.9,2l.41.39A11.19,11.19,0,0,0,27.7,8Zm5.75,4.35A7.47,7.47,0,0,0,32.65,11,11.56,11.56,0,0,1,33.58,12a.07.07,0,0,0,.08,0,7.73,7.73,0,0,1,.43,1.6A7.8,7.8,0,0,0,33.45,12.3Zm.7.26A9,9,0,0,0,32.77,10c.25.29.5.57.73.87A10.39,10.39,0,0,1,34.15,12.56Zm-.26-1.78v0l.3.33c.08.09.24,0,.16-.12-.22-.28-.46-.56-.71-.83.11.05.25-.06.15-.16L33,9.14A1.08,1.08,0,0,1,32.81,9l-.13-.16a.3.3,0,0,1,.11-.32l.13.09a13.83,13.83,0,0,1,1.44,1.76.12.12,0,0,0,.09.05c.05.14.11.28.15.42a8.42,8.42,0,0,0-.45-.71s0,0,0,0a6.67,6.67,0,0,1,.81,2.1A16.85,16.85,0,0,0,33.9,10.78Zm3.05,3.12A8.21,8.21,0,0,0,36.48,12a5.79,5.79,0,0,0-.21-.95.15.15,0,0,0,0-.08q.3.43.56.88A9.2,9.2,0,0,1,36.95,13.89Zm1.26,0c0,.24.07.47.11.72a.19.19,0,0,0,.06.11l-.19.07A6.19,6.19,0,0,0,38.21,13.86Zm-.66,3.8.33.07a5.85,5.85,0,0,0-1,.87A6.09,6.09,0,0,1,37.55,17.65Zm5.2.18c.27.17.52.35.78.53h-.11l-1.32-.6c-.11-.05-.18.08-.12.17a4.57,4.57,0,0,0-1.21-.22A3.18,3.18,0,0,1,42.76,17.83Zm-.11.51.08,0h-.36c-.1,0-.08.16,0,.15l.62,0,.75.47a4.86,4.86,0,0,0-3.11-.3,4.68,4.68,0,0,0-1,.1A4.63,4.63,0,0,1,42.65,18.34Zm-3.71.84c.22-.13.45-.25.68-.37a4.67,4.67,0,0,1,.87-.09A10.71,10.71,0,0,0,38.93,19.18Zm2.22-.45a4,4,0,0,1,3.65,1.16s.07,0,0,0a3.55,3.55,0,0,0-.41-.38,14.8,14.8,0,0,1,1.47,1.23,11.11,11.11,0,0,0-2.39-1.09A6,6,0,0,0,41.16,18.73Zm6.26,4.58c.09.17.4.1.35-.11l0-.06c.09.17.18.33.26.5s.42.13.37-.09c0-.07,0-.14-.06-.21a8.42,8.42,0,0,1,1.08,4,8.75,8.75,0,0,0-1.94-3.76C47.45,23.48,47.44,23.4,47.42,23.31Zm.83,2.3a14.38,14.38,0,0,1,.82,2,8,8,0,0,0-.51-.77A11.56,11.56,0,0,0,48,25.35Zm-.65-.56a11.28,11.28,0,0,1,.56,1.3c-.18-.21-.37-.41-.57-.61C47.6,25.51,47.6,25.28,47.6,25.05Zm1.76.3c-.08-.27-.18-.55-.3-.82l.19.33C49.29,25,49.33,25.19,49.36,25.35Zm1.49,1.48c0-.06,0-.12,0-.18s0,0-.06,0c-.06-.24-.11-.47-.18-.71A6.91,6.91,0,0,0,50,22.8l0-.08c.12.28.23.57.33.87A20.41,20.41,0,0,1,50.89,27ZM16.74,3.11h0l.06,0ZM54.8,50h0Z"/><path class="cls-1" d="M11.39,8.79c.12-.1,0-.29-.15-.19A4.27,4.27,0,0,0,9.93,14c.08.14.32,0,.25-.14A4.13,4.13,0,0,1,11.39,8.79Z"/><path class="cls-1" d="M12.9,15.05c.1.07.21-.07.11-.15a4.8,4.8,0,0,1-.9-6.27c0-.08-.07-.17-.11-.09A4.88,4.88,0,0,0,12.9,15.05Z"/><path class="cls-1" d="M16.62,37.87a6.73,6.73,0,0,1-.85-3.24s0,0,0,0a5.94,5.94,0,0,0,.83,3.29S16.65,37.92,16.62,37.87Z"/><path class="cls-1" d="M10.48,9.2a.1.1,0,0,0,0-.21c-1.36,0-2,1.71-1.59,2.82,0,.1.18,0,.15-.06A2,2,0,0,1,10.48,9.2Z"/><path class="cls-1" d="M60.18,25.74c.15.09.32-.12.17-.22-2-1.3-5.49-2.13-7.73-1a.14.14,0,0,0,.1.27A9.49,9.49,0,0,1,60.18,25.74Z"/><path class="cls-1" d="M50.83,41.11a.08.08,0,0,0,.09.12,6.78,6.78,0,0,0,2.52-3.64c0-.09-.11-.14-.13-.05A6.64,6.64,0,0,1,50.83,41.11Z"/><path class="cls-1" d="M53.69,31.06c0-.06-.11,0-.09,0,.78,2.76,1.27,5.57-.1,8.2h0c0,.09-.07.17-.12.26s.14.24.21.12.12-.25.19-.38a6.13,6.13,0,0,0,1.86-.42A8.4,8.4,0,0,1,53,42.24a8.66,8.66,0,0,1-2.08,0,.05.05,0,0,0,0,.1,9.24,9.24,0,0,0,1.89,0l-.08.06c-.12.08,0,.25.13.17l.38-.29a6,6,0,0,0,.88-.2,5.54,5.54,0,0,1-1.19.75,16.07,16.07,0,0,1-4.28,0c-.19,0-.29.28-.09.34a9.64,9.64,0,0,0,1.54.28,8.63,8.63,0,0,1-1,0c-.12,0-.14.17,0,.19a7.7,7.7,0,0,0,2.41-.1,7.56,7.56,0,0,0,4.32-1.45,9.69,9.69,0,0,1-1.2,1.61.14.14,0,0,0,0,.1,11,11,0,0,1-1.68.77c-.14.05-.05.25.09.22a9.24,9.24,0,0,0,3.57-1.92,12.34,12.34,0,0,1-1.3,1.52s0,.14.07.09a12,12,0,0,0,2-2.35,9.69,9.69,0,0,0,2.33-6.06,10.72,10.72,0,0,1-.61,5,.12.12,0,0,0,.21.09,10.29,10.29,0,0,0,.39-6.42,13.46,13.46,0,0,0-.67-3.46c0-.06-.11,0-.09,0a13.72,13.72,0,0,1,.52,2.49l-.05-.18c0-.06,0-.12,0-.18s0-.05-.07,0a18.89,18.89,0,0,0-1.89-3.92s-.1,0-.07.05c.22.37.43.74.63,1.12,0,0,0,0,0,0a53.1,53.1,0,0,1-.11,5.32,17.49,17.49,0,0,0-1.62-6.54c0-.09-.2,0-.15.06a16.07,16.07,0,0,1,1.27,8.31,6.63,6.63,0,0,1-1.19.76c1-2.59.68-5.62,0-8.6,0,0,0,0,0,0,.59,3,.8,6.14-.32,8.76a6.09,6.09,0,0,1-1.88.47C55.12,36.67,54.52,33.79,53.69,31.06ZM57,40.74h0l0-.09Zm2.35-5.83a10.58,10.58,0,0,1-.81,4.47,14,14,0,0,0,.71-4.9C59.32,34.61,59.35,34.76,59.38,34.9Zm-1.47-4.08a16.88,16.88,0,0,1,1.21,3,15,15,0,0,1-1.54,7.24,9.12,9.12,0,0,1-1.92,2A8.14,8.14,0,0,0,57,40.91l.05-.06c0,.17-.07.34-.11.51s.14.12.16,0A34.67,34.67,0,0,0,57.91,30.83ZM57.17,38a11.22,11.22,0,0,1-1,3.34,5.94,5.94,0,0,1-2.81,1.45,5.53,5.53,0,0,0,.93-.72A4.75,4.75,0,0,0,56.07,41c.06-.06,0-.15-.1-.1a5.34,5.34,0,0,1-2.53,1.3A8.12,8.12,0,0,0,56,38.73,6.64,6.64,0,0,0,57.17,38Z"/><path class="cls-1" d="M51.62,35c0-.06-.07-.1-.1,0a6.92,6.92,0,0,1-1.09,1.46s0,.1.08.06A7.09,7.09,0,0,0,51.62,35Z"/><path class="cls-1" d="M53,36.53a5.61,5.61,0,0,0-.16-2.65c0-.08-.14,0-.12,0a5.44,5.44,0,0,1,.08,2.58C52.71,36.63,52.92,36.66,53,36.53Z"/><path class="cls-1" d="M52.21,29.72,52.58,31c0,.06.11,0,.09,0l-.37-1.26C52.29,29.62,52.2,29.66,52.21,29.72Z"/><path class="cls-1" d="M26.62,11s-.05,0,0,0a7.9,7.9,0,0,1,2.14,1.08c.05,0,.11,0,.06-.08A6.41,6.41,0,0,0,26.62,11Z"/><path class="cls-1" d="M25.94,12.42a4.9,4.9,0,0,1,2.47.15c.13,0,.22-.16.08-.2a3.45,3.45,0,0,0-2.6-.13C25.8,12.28,25.83,12.44,25.94,12.42Z"/><path class="cls-1" d="M28.38,13.56a.05.05,0,0,0,0,.1,6,6,0,0,1,1.44,1,.07.07,0,0,0,.09-.09A3.54,3.54,0,0,0,28.38,13.56Z"/><path class="cls-1" d="M34,16.13c-.23-2.29-1.69-4-3.06-5.78,0,0,0,0,0,0a13.82,13.82,0,0,1,3,5.77A.07.07,0,0,0,34,16.13Z"/><path class="cls-1" d="M29.72,10.62A23.21,23.21,0,0,1,32.26,16c0,.08.15,0,.12,0a20.62,20.62,0,0,0-2.6-5.34S29.69,10.57,29.72,10.62Z"/><path class="cls-1" d="M33,18.45a7.09,7.09,0,0,0-1.51,5.8s0,0,0,0a7.65,7.65,0,0,1,1.49-5.77A0,0,0,1,0,33,18.45Z"/><path class="cls-1" d="M34.35,21a13.42,13.42,0,0,0-.08,2.14s0,0,0,0A13.61,13.61,0,0,1,34.36,21Z"/><path class="cls-1" d="M39.23,42.61c.67-1.25,1.37-2.53,2.79-3,.07,0,0-.13,0-.12-1.54.37-2.26,1.73-2.88,3.07C39.08,42.63,39.19,42.68,39.23,42.61Z"/><path class="cls-1" d="M24,27.73c.25-.22.52-.42.79-.61A16.34,16.34,0,0,0,27,28.83c.05,0,.12,0,.06-.08A17.78,17.78,0,0,1,24.94,27l.54-.36a13.12,13.12,0,0,0,2.84,3.25s.05,0,0,0a13.94,13.94,0,0,1-2.83-3.23l.11-.07A10.61,10.61,0,0,1,27.38,26a.08.08,0,0,0,0-.13c-.45-.32-1.17,0-1.59.25-.16.08-.32.17-.48.26a9.07,9.07,0,0,1-1.06-2.89,0,0,0,0,0,0,0,9.2,9.2,0,0,0,1,2.9,6.28,6.28,0,0,0-.6.43,26.84,26.84,0,0,1-3.21-3.73c0-.06-.13,0-.09.07a25.81,25.81,0,0,0,3.2,3.75,8,8,0,0,0-.72.67C23.78,27.66,23.93,27.81,24,27.73Z"/><path class="cls-1" d="M25.27,35.4a11,11,0,0,1,1.33-2.16A17.53,17.53,0,0,0,28.71,35s.06,0,0,0a18.55,18.55,0,0,1-2.11-1.73A7.75,7.75,0,0,1,28,31.87c.05,0,0-.11-.06-.08a6.53,6.53,0,0,0-1.42,1.26,12.45,12.45,0,0,1-2.26-2.88s-.05,0,0,0a12.52,12.52,0,0,0,2.26,2.91,8.66,8.66,0,0,0-1.36,2.22A.09.09,0,0,0,25.27,35.4Z"/><path class="cls-1" d="M46,34.34a9.83,9.83,0,0,1-5.55.92c-.08,0-.09.11,0,.12a8.64,8.64,0,0,0,5.57-1A0,0,0,0,0,46,34.34Z"/><path class="cls-1" d="M30.21,36.7c.18-.47.38-.94.6-1.39a39.3,39.3,0,0,0,7.71,3c.05,0,.08-.08,0-.09a45.27,45.27,0,0,1-7.7-3,15.79,15.79,0,0,1,1.88-3,15.66,15.66,0,0,0,2.3.52c.09.13.18.26.27.39a.09.09,0,0,0,.14-.11l-.16-.24a21.33,21.33,0,0,0,3.38.16,16.68,16.68,0,0,1-2.78.79s0,0,0,0a16.69,16.69,0,0,0,2.8-.8h.4s0-.07,0-.07h-.22c.19-.08.39-.16.58-.25h0c-.19.09-.39.17-.59.26a23,23,0,0,1-3.6-.17c-.43-.61-.82-1.23-1.18-1.87a9.14,9.14,0,0,1,3.79-2.08,8.27,8.27,0,0,0,2.38,4.18s.11,0,.07-.07a9.35,9.35,0,0,1-2.38-4.13l.42-.11s0-.07,0-.06l-.43.1a7.49,7.49,0,0,1-.15-.86,0,0,0,0,0,0,0,8,8,0,0,0,.14.87,9.12,9.12,0,0,0-3.86,2,23.94,23.94,0,0,1-1.82-4c0-.07-.12,0-.1,0a20.45,20.45,0,0,0,1.75,4.14,11.55,11.55,0,0,0-1.24,1.3,13.27,13.27,0,0,1-2.68-1.15s0,0,0,0a13.39,13.39,0,0,0,2.66,1.18,14.45,14.45,0,0,0-1.86,3q-1.82-.89-3.61-1.89s0,0,0,0c1.18.68,2.38,1.33,3.59,1.94-.21.47-.4.94-.57,1.42C30,36.74,30.17,36.81,30.21,36.7Zm3.67-5.76A17.74,17.74,0,0,0,35,32.62a16,16,0,0,1-2.21-.48A11.82,11.82,0,0,1,33.88,30.94Z"/><path class="cls-1" d="M42.54,30.67c.36-.23,2.72-1.89,2.26-2.43a0,0,0,0,0,0,0,11.39,11.39,0,0,1-1,1.17,11.84,11.84,0,0,1-1.35,1.09C42.32,30.58,42.44,30.74,42.54,30.67Z"/><path class="cls-1" d="M20.38,22.25c-1.77.32-4.4,1.83-4.28,3.94a.08.08,0,0,0,.15,0,7.06,7.06,0,0,1,1.57-2.46,5.68,5.68,0,0,1,2.58-1.35C20.48,22.37,20.47,22.23,20.38,22.25Z"/><path class="cls-1" d="M23.13,38.75a14.51,14.51,0,0,0-.66,7.91c0,.09.15.07.13,0a14.88,14.88,0,0,1,.59-7.87S23.15,38.71,23.13,38.75Z"/><path class="cls-1" d="M43.41,21.76a2,2,0,0,0-.85-.46,4.52,4.52,0,0,0-4.75,0c-.08,0,0,.18.08.15a5.09,5.09,0,0,1,3.26-.5,4.57,4.57,0,0,1,.89.3,4.86,4.86,0,0,0-2.69,1.5c-.06.05,0,.16.08.1.82-.71,1.9-1.59,3-1.41a12.91,12.91,0,0,1,2,1.33c.08.07.18-.06.1-.13a12.08,12.08,0,0,0-1-.8A.07.07,0,0,0,43.41,21.76Z"/><path class="cls-1" d="M44.12,23.07c-1.45-.54-3-.74-4.13.54,0,0,0,.07.05,0,1.11-1.25,2.63-1,4-.52C44.14,23.15,44.16,23.09,44.12,23.07Z"/><path class="cls-1" d="M24.24,8.78a.06.06,0,0,0,0-.13,6.82,6.82,0,0,0-6.78,3,.06.06,0,0,0,.1.08A6.76,6.76,0,0,1,24.24,8.78Z"/><path class="cls-1" d="M44.09,45.58a20.64,20.64,0,0,0,3.64,1.26s.08-.05,0-.07a24,24,0,0,1-3.65-1.25S44.06,45.56,44.09,45.58Z"/><path class="cls-1" d="M48.62,46.86c-.46-.09-.9-.24-1.36-.33,0,0-.05.06,0,.07.46.1.9.26,1.36.37C48.67,47,48.69,46.87,48.62,46.86Z"/><path class="cls-1" d="M23.23,23s.09,0,.07,0a16.89,16.89,0,0,1-.74-2,12.08,12.08,0,0,0,4.13-3.61.06.06,0,0,0-.1-.07,12.61,12.61,0,0,1-4.12,3.38,13.35,13.35,0,0,1-.56-3.6s0,0,0,0a13,13,0,0,0,.52,3.62,8.27,8.27,0,0,1-2.15.7,11.72,11.72,0,0,1-2-3.92c.11,0,.13-.19,0-.2H18.2q-.1-.4-.15-.81s0,0,0,0c0,.27.09.54.15.81a14.72,14.72,0,0,1-2.82-.38,6.2,6.2,0,0,1,2.09-.38c.08,0,.08-.14,0-.14a5.76,5.76,0,0,0-2.48.4,4.77,4.77,0,0,1-1.25-.64,0,0,0,1,0,0,.05,4.56,4.56,0,0,0,1.06.67,5.93,5.93,0,0,0-2.16,1.63s0,0,0,0A11.12,11.12,0,0,1,15.09,17a9.87,9.87,0,0,0,3.14.49,11.72,11.72,0,0,0,2,3.92,7.33,7.33,0,0,1-1.53.11s0,0,0,0a5.22,5.22,0,0,0,1.69.1l.48.62s.09,0,.06,0l-.45-.58A6.51,6.51,0,0,0,22.49,21,16,16,0,0,0,23.23,23Z"/><path class="cls-1" d="M40.13,38.76a11.59,11.59,0,0,1-6,.6.05.05,0,0,0,0,.11,11.27,11.27,0,0,0,6-.64A0,0,0,0,0,40.13,38.76Z"/><path class="cls-1" d="M37.34,42c.06,0,.11-.08,0-.1a15,15,0,0,1-3.24-1.65c0-.07,0-.13,0-.19A.09.09,0,0,0,34,40s0,.07,0,.1a16.68,16.68,0,0,1-2.89-2.54s-.06,0,0,0a16.46,16.46,0,0,0,2.92,2.62c-.3,2.48.87,4.6,2.39,6.49a.13.13,0,0,0,.2-.15c-1.41-1.85-2.61-3.84-2.41-6.22A14.36,14.36,0,0,0,37.34,42Z"/><path class="cls-1" d="M15,20.05c-1.39,2-3,4-2.87,6.52,0,.07.1.05.1,0-.08-2.5,1.53-4.48,2.84-6.46C15.14,20.06,15.07,20,15,20.05Z"/><path class="cls-1" d="M13.44,26.11a7.25,7.25,0,0,1,2.67-4.29s0-.08,0-.05a7.37,7.37,0,0,0-2.75,4.33A.06.06,0,0,0,13.44,26.11Z"/><path class="cls-1" d="M17.72,25.71a6.88,6.88,0,0,0,.66,4.84s.06,0,0,0a6.85,6.85,0,0,1-.71-4.82Z"/><path class="cls-1" d="M50.27,36.82s0,0,0,0a6.42,6.42,0,0,1-3.69,2.74s0,.06,0,.05A6.35,6.35,0,0,0,50.27,36.82Z"/><path class="cls-1" d="M45.84,39.33s0-.08,0-.07a13.52,13.52,0,0,1-4.78-.61s0,0,0,0A13.36,13.36,0,0,0,45.84,39.33Z"/><path class="cls-1" d="M29.42,21.14a9.45,9.45,0,0,0,.23-4.82h0a10,10,0,0,1-.25,4.81S29.41,21.16,29.42,21.14Z"/></svg>