<svg id="Layer_1" data-name="Layer 1" xmlns="http://www.w3.org/2000/svg" viewBox="0 0 23.55 23.49"><defs><style>.cls-1{fill:#231f20;}</style></defs><title>ilustracije_razmerje</title><path class="cls-1" d="M12.75.08a12.77,12.77,0,0,0-3,.42A10,10,0,0,0,2,5.17,12.62,12.62,0,0,0,1,16.77c2.29,5.15,8.17,7.58,13.44,6.43a.11.11,0,0,0,.1,0h0a11.51,11.51,0,0,0,3.82-1.63C27,15.75,24.2-1.31,12.75.08Zm-6.27,2h0c.21-.09.41-.17.62-.25q-.39.25-.77.51a6.2,6.2,0,0,0-1,.4A10.17,10.17,0,0,1,6.48,2.1ZM3.77,8.38l-.11.39c-.11.24-.2.49-.29.74q.14-.5.32-1Zm.67-.7c-.09.16-.17.32-.25.48.08-.23.18-.45.27-.68l.17-.19C4.56,7.42,4.5,7.55,4.44,7.68Zm5.45,7.72c0,.34,0,.68.07,1h0c-.05-.31-.1-.61-.13-.93,0,0-.08,0-.08,0,0,.33.07.65.12,1q-.27.13-.55.24c0-.4-.08-.8-.1-1.21Zm2.68-.5a8.8,8.8,0,0,1-1.24,1.44c0-.21,0-.41-.05-.62a6.87,6.87,0,0,0,.81-.71Zm-1.68,1.88.28-.25c0,.08,0,.15,0,.23-.28.22-.57.44-.85.66-.08-.33-.13-.67-.18-1a6.84,6.84,0,0,0,1-.57c0,.22,0,.43,0,.65s-.19.18-.3.27S10.87,16.79,10.88,16.78Zm5.23-1.46c-.21.57-.43,1.14-.69,1.69a5.54,5.54,0,0,1-.8.62c.27-.5.53-1,.78-1.53,0,0,0,0,0,0-.26.52-.51,1.05-.79,1.56l-.28.17c-.06-.29-.13-.58-.2-.87,0-.07-.12,0-.11,0,.06.3.12.61.17.91a8.16,8.16,0,0,1-1.27.52c0-.11,0-.22-.08-.33l.07-.13q.26-.34.49-.69a7.74,7.74,0,0,0,.87-.56A10.36,10.36,0,0,0,16.11,15.31Zm.4.76.12-.43.25-.3c0,.12-.09.23-.14.35S16.58,15.95,16.51,16.08Zm1.81,0c-.08.19-.18.37-.27.56l-.85.68.07-.13q.37-.53.68-1.09Zm2.52-2h0a.15.15,0,0,0-.2-.12c.09-.35.17-.7.23-1.05C20.84,13.31,20.84,13.7,20.83,14.09ZM5.66,2.89a7.74,7.74,0,0,0-2,1.62,9,9,0,0,1,.55-.72A6.61,6.61,0,0,1,5.87,2.73Zm.61,10.72a11,11,0,0,0,.11,1.22c0,.2,0,.41,0,.61H6.32a12.21,12.21,0,0,1-.15-2.15Zm-2.94-8-.11.12c.11-.17.23-.33.34-.5C3.48,5.32,3.4,5.45,3.33,5.58Zm8.72,13.08-.24.06.55-.64s0-.09-.05-.05l-.56.63c-.07-.24-.13-.47-.18-.71h.06a6.1,6.1,0,0,0,.88-.27c0,.14,0,.28.07.42C12.41,18.3,12.23,18.47,12.05,18.66Zm.47-.22,0,.09s0,0,0,0l-.07,0ZM16,19l-.31.35-.15.07.11-.08c.08-.07,0-.21-.12-.15l-.12.09,0,0a.06.06,0,0,0,0,0ZM1.58,16c-.06-.15-.11-.3-.16-.45l0,0c0,.07,0,.13.08.2a.11.11,0,0,0,.07.06l.1.15.12.28-.06,0Zm1.94-1.22v0h0Zm-.05-.89c0,.14,0,.29,0,.43s0,.18,0,.27q0-.37-.08-.74A.08.08,0,0,0,3.47,13.92ZM3.81,16a6.65,6.65,0,0,0,.84,2.22q.11.3.23.59a10.23,10.23,0,0,1-1-2.4C3.84,16.28,3.83,16.15,3.81,16Zm4.78,2.69h0l.09,0,.14.18c0,.06,0,.12,0,.18s-.21-.17-.31-.27A.1.1,0,0,0,8.59,18.71Zm3.44.74a3.77,3.77,0,0,0,.53.08l-.12.11H12.1ZM2.23,7.71c-.06.13-.11.27-.17.41l.1-.31.05-.13ZM9.5,19.29a2.56,2.56,0,0,0,1,.71l-.13.12L10,20l-.13-.14a.14.14,0,0,0-.06-.23c-.08,0-.15-.09-.23-.12l-.17-.25H9.5Zm3.11.47a.06.06,0,0,0,.06-.07l.12-.14h0l0,0H13a5.79,5.79,0,0,1-.48.37h-.07l.17-.16Zm.59,1.52-.49.13.13,0Zm4.38-1.49.11-.1-.09.11ZM15,21.52l-.17.09.18-.1Zm-.46.23-.07,0,.29-.13ZM9.26,19.33l0,0,0,0Zm-4.37.08L4.39,19c0-.15-.08-.3-.12-.45.1.18.2.36.31.54a.1.1,0,0,0,.13,0Zm-.88-1a.1.1,0,0,0,.07.06c0,.14.07.28.12.43L4,18.73l-.12-.18a.07.07,0,0,0,0-.06c-.15-.41-.31-.82-.46-1.23l0-.21,0,0C3.63,17.53,3.81,18,4,18.39Zm5.1,2.34-.18-.24.39.25-.2.07A.09.09,0,0,0,9.11,20.73Zm3.38.2-.32.07.28-.16.11.07Zm-2.89.8H9.32l-.11,0,.4,0,0,0Zm-.92-.49h.09l.06,0h0l-.28,0-.15-.11a.11.11,0,0,0,0-.1l.18.1C8.59,21.19,8.62,21.25,8.68,21.25Zm.76-.64a.1.1,0,0,0,0-.16l-.14-.15c.18.05.36.11.54.15a3.79,3.79,0,0,1-.38.21Zm.56-.15h0c-.12.09-.23.2-.36.28l-.09-.05A3.91,3.91,0,0,0,10,20.46Zm.26,0h.05l.21.15c-.22.07-.44.13-.66.19l-.05,0ZM2.81,15.06h0c0,.26.06.51.11.77,0-.18-.1-.36-.15-.53v-.06Zm0,0h0v0Zm4.94,6.08-.17,0-.27-.34.08,0C7.52,20.89,7.64,21,7.77,21.11Zm-.64-.46.16.22-.23-.16A.11.11,0,0,0,7.13,20.65Zm-.07.15-.15,0a.15.15,0,0,0,0-.05Zm-.18-.26,0,.06h0l0,0Zm-.52.17,0,0,0,0h0Zm2.93.46.34-.06h0s0,0,0,0h.11l.15,0s0,0,0,0l0,0h.08l.21.08-.77.07Zm1.79-.41.3-.13.16,0Zm-.59.4.39,0-.21.08H10.6Zm1.17-.52v0h.08Zm-3.72.11,0,0L8,20.8Zm2.18.69h0s0,0,0,0Zm-.11,0-.35,0-.07,0,.81-.06,0,0h0ZM11.5,21l.28-.06-.21.1-.45.06Zm1.08-.29,0,0,.56-.23.07,0,.34-.06c-.29.16-.59.29-.9.43Zm-1.89-.15-.06,0,.13,0ZM10,20.27A8,8,0,0,1,9.12,20L9,19.9a.15.15,0,0,0,0,0,6,6,0,0,0,1,.35Zm-.79.19-.31-.2v-.09C9,20.27,9.1,20.37,9.21,20.46Zm.18.33.11.07-.15.1-.29,0L9,20.93H9A3.17,3.17,0,0,0,9.39,20.79ZM1.51,11.36H1.45c0-.2,0-.4,0-.6h0C1.5,11,1.5,11.16,1.51,11.36Zm0-.71c0-.15,0-.29,0-.44,0,.15,0,.29,0,.44Zm-.37,1v.06s0,0,0,.07v-.12Zm9,9.82.29-.1.06,0,.17.07c.07,0,.11-.08,0-.11h0l.08,0,.62-.08-.51.24C10.65,21.43,10.4,21.44,10.15,21.44ZM12,21.1l.24,0-.47.15Zm.18-.84a.13.13,0,0,0,0,.15h-.09l-.1-.07.18-.1Zm-3.35-.14v.08l-.2-.13,0,0Zm.19.73H9v-.06Zm-1.77-1h0l0,0Zm3.58,1.76H11l-.39.06Zm1.37-.38c.2-.07.38-.15.57-.23h0s.07,0,.07,0l.2-.08.17,0-.55.26Zm1.14-1.31-.25.16-.74.11h0l0,0,0,0c.32-.07.64-.14,1-.23Zm-.93.07h-.07l0,0h0Zm-1,.32v0h.09Zm-.17.07h-.13l-.15,0,.25,0Zm-.51-.08-.12,0,.39-.32.09.17h0s0,.05,0,.05h0l0,.07Zm.18-.52-.2.16h0l.19-.18Zm-.32.26-.12.1h0l.12-.1Zm-1.61-.42-.06,0v0Zm-.51.17h0l.05,0Zm-.37,0a3.32,3.32,0,0,0,.75.89c0,.05,0,.11,0,.16-.21-.13-.42-.26-.61-.41a.09.09,0,0,0,0-.07c-.14-.23-.27-.47-.39-.7Zm-.24.31a8.07,8.07,0,0,1-1-1.07l0,0a8.15,8.15,0,0,0,.69.47C7.58,19.7,7.71,19.91,7.84,20.12ZM5.45,17.57l0-.06,0,.1Zm-.19-.36.07.2h0v0ZM5.76,19l0,.06a.07.07,0,0,0,.13,0l.09.12a.24.24,0,0,0,0,.15v0H6l-.16-.18Zm6.38,2.47.48-.09h0s0,0,0,0l-.7.14Zm2.1-1h0l.39-.29v.05Zm-1.59-.59a4.38,4.38,0,0,0,.42-.34l.12.21Zm-.48,0,0-.07h.13Zm-.47.31-.06,0,.2,0Zm-.22,0-.15,0,0-.07h.11Zm-.2-.09,0-.1.11.09Zm-.67-.22a3.31,3.31,0,0,1-.52-.34,5.63,5.63,0,0,0,.71.16Zm-1.48-.58-.25-.18c0-.05,0-.1,0-.15Zm-.63,0,.31.25v0l-.17-.1Zm-1.29-.32c0,.1.1.2.15.3a7.86,7.86,0,0,1-.69-.48q-.14-.32-.24-.66A7.17,7.17,0,0,0,7.21,18.93ZM3.39,15.87c0-.12,0-.23,0-.35a12.25,12.25,0,0,0,.32,1.32Q3.53,16.35,3.39,15.87Zm-.95-2.39a16.81,16.81,0,0,1-.15-1.7c0-.21,0-.41.07-.62a17.66,17.66,0,0,0,.12,1.9C2.46,13.2,2.45,13.34,2.44,13.48ZM13.35,22l-.09,0h-.12Zm-3,0a9.6,9.6,0,0,0,1.19-.06l-.68.16Zm4.47-1.86v-.06l.08-.07.25-.1C15,20,14.91,20,14.81,20.11Zm-1-.51-.18.06-.06,0c0-.06-.09-.11-.13-.18a4.62,4.62,0,0,0,.53-.11l-.12.13A.1.1,0,0,0,13.77,19.6Zm-1.86.17L12,20l0,0-.38.06-.37-.29,0,0C11.46,19.75,11.69,19.77,11.91,19.77Zm-.56-.14.37-.35c0,.13.09.25.14.37Zm-.58-.05a5.4,5.4,0,0,1-.81-.19l-.11-.11h.61Zm-2.68-.43h0v0ZM6.2,17.81c.05.22.11.43.18.65l-.1-.2c-.05-.18-.11-.35-.15-.53l0,0Zm-3.58-6,0,.24c0-.27,0-.55,0-.82l.15.06C2.67,11.46,2.64,11.64,2.62,11.81ZM2.19,8.75a7.5,7.5,0,0,1,.53-1.23c-.12.28-.24.55-.34.83C2.31,8.49,2.24,8.62,2.19,8.75ZM2.11,9l.05-.17Zm.48-1.92c0-.1.06-.21.1-.31L3,6.39l-.08.22C2.78,6.75,2.68,6.9,2.59,7.05ZM1,14.17l0,0c-.05-.33-.09-.66-.12-1v0A9.54,9.54,0,0,0,1,14.17Zm17.66,5.32,0,0h0l0,0Zm1.93-2.27a.13.13,0,0,0,.08,0l-.21.26Zm-1.4,1.51-.78.65a11.54,11.54,0,0,0,.94-.89ZM14.91,21h-.38a0,0,0,0,0,0,0l.26,0a24.08,24.08,0,0,1-3.21,1,.13.13,0,0,0-.09.14l-.29,0a11,11,0,0,0,1.35-.39,6.92,6.92,0,0,0,.91-.29.11.11,0,0,0,.07-.12c.2-.1.4-.21.59-.33a10.92,10.92,0,0,0,1.72-.5C15.54,20.67,15.23,20.82,14.91,21Zm-1.36-1.6c.28-.18.54-.36.79-.56l0,.14-.25.25A4.86,4.86,0,0,1,13.55,19.36Zm0-.09a9.21,9.21,0,0,0,.63-.9l.07,0,.07.39C14.08,18.92,13.82,19.1,13.56,19.27Zm.61-.89a9.06,9.06,0,0,1-.63.91l-.18.11h0a5.78,5.78,0,0,1-.26-.59A8.34,8.34,0,0,0,14.17,18.38Zm-1.18,1,0,0h0c.05-.07-.06-.16-.12-.09l-.2.18A3.68,3.68,0,0,1,12,19.4c0-.09-.08-.19-.11-.28h0q.46-.08.9-.21A4.79,4.79,0,0,0,13,19.35Zm-1.17-.46,0-.08.13,0-.1.1Zm.92-1.29c.12,0,.22-.12.34-.17-.1.13-.19.26-.29.39C12.76,17.75,12.74,17.68,12.73,17.61Zm-1.17,1.56c-.15.15-.3.31-.46.45h0l0,0,.35-.38Zm-.55.31-.1-.23.35,0Zm-.43-.37h-.07c-.23-.22-.45-.45-.66-.69l.45-.12h0C10.39,18.57,10.48,18.84,10.59,19.1Zm-.31-.92-.49.15-.14-.15h0l.53-.36C10.19,17.94,10.23,18.06,10.27,18.18Zm-.67.16,0,0h0Zm.1.11c.2.23.4.46.61.68l-.47,0c-.08-.23-.14-.46-.2-.7Zm-.06.63a4.49,4.49,0,0,1-.39-.53l.21,0C9.52,18.7,9.58,18.9,9.65,19.09Zm-.23.09-.09,0c-.1-.17-.2-.35-.29-.53H9A4.11,4.11,0,0,0,9.42,19.18Zm-.76-.54-.06,0s0-.09,0-.13Zm-.19-.77c0-.23-.08-.46-.12-.68.14.42.29.85.47,1.26C8.69,18.26,8.58,18.07,8.46,17.87Zm-.07.8a5.17,5.17,0,0,1-.57-.73,8.29,8.29,0,0,1-.38-1.41A15.67,15.67,0,0,0,8.23,18C8.28,18.22,8.33,18.45,8.4,18.68ZM7.11,15.8c0,.27,0,.54.06.82a9.48,9.48,0,0,1-.34-1H7Zm.21,1.87a8.53,8.53,0,0,0,.3,1.16l-.29-.22c-.07-.17-.13-.34-.19-.51a.1.1,0,0,0,0-.1c-.06-.11-.09-.23-.15-.35a10.74,10.74,0,0,1-.39-1.8A7.73,7.73,0,0,0,7.32,17.67Zm-2.62-2-.06-.23h0Zm0,1.41a.15.15,0,0,0,0,.11v.08a8.62,8.62,0,0,1-.27-.87q-.11-.51-.19-1h0Q4.48,16.22,4.74,17.06Zm-.5-1.79-.07-.43v-.07c0,.17.06.33.1.5Zm.11,2.07a6.63,6.63,0,0,1-.56-1.94,0,0,0,0,0,0,0v-.09l.21,0A9.14,9.14,0,0,0,4.36,17.34Zm-.83-5.58a10.19,10.19,0,0,0-.13,1.93q0-.36,0-.72c0-.47.05-.94.1-1.4l.07,0C3.53,11.64,3.53,11.7,3.53,11.76ZM2.9,9.84l-.17.79a.1.1,0,0,0,0,.11c0,.15,0,.3-.07.45l-.17-.06c0-.17,0-.34,0-.51s.23-.55.37-.82ZM3,7.41c.07-.11.16-.22.24-.32-.18.31-.34.63-.49,1C2.83,7.83,2.91,7.62,3,7.41Zm.49-.7h0c-.13.14-.23.29-.34.43a11,11,0,0,1,.56-1c.13-.15.28-.28.43-.42L4,5.83A.13.13,0,0,0,4,6C3.81,6.2,3.64,6.45,3.48,6.71ZM2.4,6.49a.15.15,0,0,0,0-.06,8.42,8.42,0,0,1,.58-1A11,11,0,0,0,2.4,6.49ZM.81,12.82h0c0-.08,0-.17,0-.25C.8,12.65.81,12.74.81,12.82Zm16.39,8c.2-.14.39-.28.58-.44l-.31.29-.27.15ZM20,17.13l0,.05h0c-.1.16-.21.3-.31.45.13-.19.26-.38.37-.59,0,0,0,0,0,0s-.16.23-.23.34a0,0,0,0,0-.07,0,11.92,11.92,0,0,0,.52-1.08l.17-.33,0,.07s0,0,0,0l.1-.29.07-.15.16-.06A8,8,0,0,1,20,17.13Zm-2.48,1.72a11.15,11.15,0,0,1-.94,1.08,16.7,16.7,0,0,1-1.62.71,8.23,8.23,0,0,0,2.66-2,.11.11,0,0,0-.07-.18c.13-.1.26-.2.39-.32C17.81,18.41,17.66,18.63,17.52,18.85ZM16,19.62l.26-.25c.2-.11.4-.23.6-.36C16.54,19.23,16.25,19.43,16,19.62Zm.51-1h-.06a8.5,8.5,0,0,0,.53-.82l.62-.48C17.22,17.73,16.86,18.17,16.48,18.58Zm-.27.2-.05.06-.65.25,0,0c.19-.16.38-.32.55-.49,0,.06.07.14.12.08.19-.22.36-.45.54-.68l.11-.08A8.51,8.51,0,0,1,16.21,18.78Zm-1.7-.12.12-.11-.11.18Zm0-.07-.07-.33c.19-.1.36-.21.54-.33-.08.15-.15.3-.23.45Zm-1.79,0-.5.14.06-.06.43-.1Zm-.1-.13,0-.08v.06Zm-1,.28-.24.06s0,.07,0,.06l.24,0-.09.1-.65.12c-.11-.28-.19-.56-.27-.84l.8-.24Q11.45,18.39,11.56,18.78ZM10.1,17.6,9.54,18c-.09-.43-.17-.86-.23-1.29q.28-.09.56-.21C9.93,16.89,10,17.25,10.1,17.6ZM10,16.5h0c0,.07,0,.14,0,.21S10,16.57,10,16.5Zm-.51,1.93-.23.06v0l.22-.15ZM8.28,16.76c0-.12,0-.23,0-.35.08.35.17.7.29,1.06Zm-.2.42c-.28-.52-.53-1.05-.77-1.59H7.9A15.56,15.56,0,0,0,8.08,17.19ZM6.78,15.44c-.07-.3-.14-.6-.18-.9q.17.45.35.9Zm-.37.15c0,.18,0,.36,0,.54,0-.18-.09-.36-.12-.54Zm.41,2.3.1.3a8.65,8.65,0,0,1-.72-.92,7.11,7.11,0,0,1-.14-1.4,0,0,0,0,0-.05,0,7.11,7.11,0,0,0,.06,1.21l-.14-.2c-.09-.44-.17-.88-.23-1.33l.37,0A7.13,7.13,0,0,0,6.83,17.88Zm-1.41-2-.07-.15c0-.08,0-.17,0-.26h.07C5.38,15.64,5.4,15.77,5.42,15.91ZM4.31,12.65a.12.12,0,0,0-.12.14,13.26,13.26,0,0,0,.38,1.61c0,.21,0,.42.05.63,0,0,0,0,0,0v0c0,.07,0,.13,0,.2h0c-.13-.47-.26-.93-.38-1.4a.09.09,0,0,0-.12-.07,15.54,15.54,0,0,1,.07-1.9c0-.07-.11-.08-.12,0,0,.32-.08.66-.11,1,0,0-.05,0-.05,0s0,.15,0,.23-.16,0-.15,0c0,.5.1,1,.16,1.54,0,.16,0,.32,0,.48l-.2,0q0-.54-.09-1.08c0-.62,0-1.25,0-1.88,0-.2,0-.4.09-.6l.58.17C4.33,12.09,4.32,12.37,4.31,12.65Zm-.83-1.18c.05-.5.13-1,.23-1.49l0-.13a14.1,14.1,0,0,0-.21,1.64Zm-.94-1.23c0-.06,0-.13,0-.19,0-.22.08-.43.14-.65l.22.09Q2.71,9.85,2.54,10.23ZM4.71,4.75l-.19.12v0a.07.07,0,0,0,0-.06l.37-.31ZM3.2,4.94c-.09.11-.19.22-.28.34.14-.2.29-.4.45-.59Zm-1,1.5h0l0,0,.16-.29Zm.34-.61.18-.29Zm.28,12.58h0A2.19,2.19,0,0,1,2.46,18ZM21,16.72a12.27,12.27,0,0,0,.56-1.54l.09,0c-.12.37-.24.73-.38,1.1C21.16,16.4,21.06,16.56,21,16.72Zm1.1-2.06q.08-.45.12-.89l.12,0C22.25,14,22.17,14.35,22.07,14.66Zm-.37.21-.1.05c0-.15.07-.29.11-.44l0-.12c0-.15.07-.3.09-.45h0l.11,0A9.7,9.7,0,0,1,21.7,14.87Zm-.31-.62,0-.25h0C21.45,14.08,21.42,14.17,21.4,14.26Zm-.6,1-.12,0,.13-.27a.07.07,0,0,0-.05-.1l.09-.29v0a0,0,0,0,0,.09,0c0-.13,0-.26,0-.39l.07-.24H21A7.81,7.81,0,0,1,20.79,15.3Zm.14-1V14.1h0Zm-.1.36c0,.12-.07.24-.11.36a.06.06,0,0,0,0,0l-.06.12a7,7,0,0,0,.2-1h0C20.83,14.28,20.83,14.44,20.83,14.6Zm-1,1.32c-.31.72-.66,1.42-1,2.13l-.21.33-.18.23-.51.57,0,0a4.92,4.92,0,0,0,.84-1.54l.08-.16a.08.08,0,0,0-.13-.1c.2-.46.38-.92.54-1.4q.34-.06.66-.14Zm-1.28,1a.08.08,0,0,0-.09.06c0,.13-.08.26-.13.38l-.21.42a8.46,8.46,0,0,1-1.33,1l.14-.17.17-.07s0-.08,0-.06l0,0a9.47,9.47,0,0,0,.73-1L18.1,17a.09.09,0,0,0,0-.13v0l.68-.54c.11-.09,0-.28-.11-.19l-.35.26c.05-.12.12-.23.16-.35L19,16C18.84,16.32,18.7,16.65,18.55,17Zm-.88-.83,0-.09h0Zm-2.81,2.22.31-.3-.42.49Zm.65-.74c-.18.2-.37.4-.57.58l.19-.37c.17-.12.34-.25.5-.38Zm-2.85-.34c0-.1,0-.21,0-.31a9.35,9.35,0,0,0,1.15-.86l-.45.82Zm-.2.08q-.46.21-.94.39l0-.16a9.42,9.42,0,0,0,.95-.51C12.45,17.17,12.45,17.26,12.46,17.36Zm-1.13.46-.81.28,0-.12h.05c.26-.09.51-.21.77-.32Zm-.88-.05,0,0,0-.12.83-.58c0,.1,0,.2,0,.3C11,17.51,10.73,17.64,10.45,17.76Zm.81-2.21c0-.12,0-.24,0-.36l.54-.1C11.6,15.25,11.43,15.41,11.26,15.55Zm-.18-.34q0,.23,0,.47a6.85,6.85,0,0,1-1,.63c0-.31-.05-.62-.07-.93Zm-2,1.54-.27.09a0,0,0,0,0,0,0l.26-.08a12.15,12.15,0,0,0,.25,1.35l-.25.19a9.3,9.3,0,0,1-.9-2.43c0-.11,0-.23,0-.34h.16a.06.06,0,0,0,.11,0l.57,0C9.06,15.93,9.08,16.34,9.13,16.76ZM8.19,15.4a18.36,18.36,0,0,1,.13-3h.29a29.31,29.31,0,0,0-.26,3Zm-.3,0-.6,0a13.4,13.4,0,0,1,.06-2.59s-.08-.06-.08,0a14.93,14.93,0,0,0-.14,1.91,0,0,0,0,0,0,0c0,.11,0,.23,0,.35-.2-.46-.38-.93-.57-1.4,0-.08,0-.15,0-.23s-.09-.06-.09,0v0l0-.07a12.38,12.38,0,0,1,0-1.24c.53.07,1.06.12,1.6.15A16.42,16.42,0,0,0,7.89,15.41ZM6.26,13l-.07-.17c0-.24,0-.47,0-.71H6.3Q6.26,12.61,6.26,13ZM6,12.6a.06.06,0,0,0-.06.08l0,.13a12.22,12.22,0,0,0,0,2.62l-.37,0a17.58,17.58,0,0,1-.09-3.33l.47.07C6.06,12.3,6,12.45,6,12.6Zm-.68,2.78H5.27a15.73,15.73,0,0,1-.32-3.44l.21,0A17.64,17.64,0,0,0,5.35,15.38ZM4.55,9.88l-.25,0a10.64,10.64,0,0,1,.48-1Q4.64,9.33,4.55,9.88Zm0,.07c-.09.58-.16,1.17-.19,1.77l-.57-.16a10.45,10.45,0,0,1,.5-1.65Zm-.76.63c0-.26.07-.52.12-.77l.13,0C3.95,10.08,3.86,10.33,3.79,10.58Zm.07-2c0-.11.06-.21.09-.32S4,8.1,4,8,4,8,4,8l0,0C4,8.16,3.93,8.37,3.86,8.58Zm-.73-.41C3.06,8.56,3,9,3,9.35l0,.08L2.7,9.34A12.15,12.15,0,0,1,3.55,7c.15-.27.31-.55.48-.81A15,15,0,0,0,3.26,8.4c0-.06,0-.13,0-.19S3.14,8.06,3.13,8.17Zm2.48-4.5c-.4.27-.79.57-1.16.87A11.26,11.26,0,0,1,5.59,3.36l.73-.45s0-.05,0,0l-.43.26.43-.35c.23-.13.47-.24.72-.35A8.76,8.76,0,0,0,5.61,3.67Zm13.8,15.81-.24.18.15-.22a8.48,8.48,0,0,0,1.26-1.51A11.79,11.79,0,0,1,19.41,19.48ZM22,7.18a12,12,0,0,1,.57,3.72s0,0,0,0c0,.74-.07,1.47-.16,2.2,0,.16-.06.32-.09.47l-.14.05a8.07,8.07,0,0,0,0-1.64c0-.08-.13-.08-.13,0A6.82,6.82,0,0,1,22,13.76l-.1,0,.06-.2a.08.08,0,0,0,0-.09A12.45,12.45,0,0,0,22,11.4c0-.13,0-.25,0-.38s0,0,0,0,0,.07,0,.1c0-.25,0-.49-.06-.74,0,0,0,0,0,0a9.27,9.27,0,0,1,0,1.62c0,.13,0,.25,0,.38l0,.22c-.08.45-.18.89-.3,1.33h-.05a13.42,13.42,0,0,0,.12-2.37,0,0,0,1,0,0,0,13.21,13.21,0,0,1-.26,2.32.12.12,0,0,0-.22,0s0,.06,0,.09H21c0-.13.08-.25.1-.37a0,0,0,0,0,0,0c0,.13-.07.26-.11.39h-.05a12.65,12.65,0,0,0-.3-3.74,0,0,0,0,0-.06,0,10.2,10.2,0,0,1,.27,2.49s0,0,0,0c-.08.42-.19.82-.31,1.22v0c-.06.27-.16.51-.24.77s-.18.51-.28.76q-.34.11-.69.18c.12-.36.24-.73.34-1.1a.06.06,0,0,0-.12,0c-.13.41-.29.79-.45,1.18l-.51.07a9.06,9.06,0,0,0,.33-1,.05.05,0,0,0-.1,0,11.11,11.11,0,0,1-.39,1.08l-.36,0a9.77,9.77,0,0,0,1.36-5.75s0,0,0,0a10,10,0,0,1-1.57,5.74h0a12.33,12.33,0,0,0,.32-1.23,10.3,10.3,0,0,0,1.08-2.21c0-.06-.07-.08-.09,0a9.64,9.64,0,0,1-.94,1.94,28.66,28.66,0,0,0,.37-4.08c0-.09-.14-.09-.15,0a32.35,32.35,0,0,1-.46,4.43c-.33.51-.68,1-1,1.52,0,.06.05.11.1.06l.24-.35.36,0c0,.16-.1.31-.16.46l0,0a19.3,19.3,0,0,1-2,2.08l-.22.13c.21-.23.43-.46.62-.7.06-.08,0-.2-.11-.11s-.27.29-.4.44a11.93,11.93,0,0,0,2-3.46,10.72,10.72,0,0,0,.77-1.2s0-.07-.06,0c-.18.32-.39.62-.6.92.07-.21.16-.4.23-.62a.06.06,0,0,0-.11,0c-.13.39-.3.76-.46,1.13l0,.06h0v0l-.3.39c.49-1.85.81-3.85-.08-5.61.42-.18.81-.44,1.23-.62,0,0,0,0,0,0-.43.18-.81.43-1.24.62l-.05-.12s-.08,0-.06,0c1,1.8.64,3.89.14,5.79l-.26.34s0,.05,0,0l.2-.25-.1.36s0,0,0,0c-.19.33-.37.66-.58,1a.14.14,0,0,0-.21,0l-.06,0c.08-.08.16-.15.23-.24s-.05-.23-.14-.14l-.09.09c.25-.54.47-1.1.67-1.67l.2-.19a.11.11,0,0,0-.07-.18c0-.1.07-.19.1-.29s-.1-.11-.12,0-.1.29-.15.44c-.25.23-.51.46-.77.67a.09.09,0,0,0-.13,0q-.37.34-.76.66c-.28.19-.57.36-.86.53a.06.06,0,0,0-.11-.06l0,.06.45-.83a9.41,9.41,0,0,0,.89-1c.07-.08,0-.21-.12-.12s-.28.28-.42.42l.89-1.7c0-.06-.06-.11-.09-.05-.38.68-.74,1.36-1.1,2a10,10,0,0,1-1.49,1.13c0-.17,0-.34,0-.51a.07.07,0,0,0-.15,0c0,.2,0,.41,0,.62-.32.19-.64.37-1,.54,0-.11,0-.23-.05-.34a7.36,7.36,0,0,0,2.09-2.24c0-.07-.06-.17-.12-.09a13.09,13.09,0,0,1-2,2c0-.08,0-.15,0-.23a8.9,8.9,0,0,0,1.35-1.51l.23-.05c.08,0,0-.15,0-.13H12.8a17.12,17.12,0,0,0,2-4.36c0-.06-.07-.08-.09,0a19.54,19.54,0,0,1-2,4.41l-.43.09a6.48,6.48,0,0,0,.7-.93c.06-.1-.09-.19-.16-.09A8.06,8.06,0,0,1,12,14.88c-.64.13-1.27.24-1.9.33,0-.21,0-.42,0-.63a.08.08,0,0,0-.15,0c0,.22,0,.44,0,.65l-.68.08c0-.91,0-1.82,0-2.74,0-.08-.12-.08-.12,0,0,.93-.07,1.85,0,2.76l-.54,0c.06-1,.16-2,.3-3l1.61,0A16.14,16.14,0,0,0,10.17,15a.07.07,0,0,0,.14,0,17.13,17.13,0,0,1,.22-2.63h.06c-.06.68-.11,1.36-.15,2,0,0,.06,0,.06,0,.1-1.14.19-2.27.33-3.4a10.86,10.86,0,0,1,.46-1.31,10.62,10.62,0,0,0,3.76-.5q.12.54.19,1.1c-.14.55-.3,1.08-.42,1.63,0,0,0,0,0,0,.11-.52.26-1,.39-1.54q.08.63.13,1.26s0,0,0,0c0-.44-.08-.89-.14-1.32,0-.2.11-.39.14-.59,0,0,0,0,0,0s-.08.33-.12.5c0-.35-.11-.7-.19-1a12.49,12.49,0,0,0,3.42-1.71c.08-.05,0-.18-.07-.12A16.17,16.17,0,0,1,15,9a8.31,8.31,0,0,0-1.27-3h0A8.28,8.28,0,0,1,15,9a10.54,10.54,0,0,1-3.67.58c.12-.26.24-.52.38-.78a0,0,0,0,0,0,0c-.15.26-.29.53-.41.8H11c0-.26.09-.51.14-.77,0,0-.06-.07-.07,0-.06.26-.1.52-.15.79h-.27c-.07,0-.07.1,0,.11h.25q-.11.62-.19,1.24a12.07,12.07,0,0,0-.34,1.41L8.8,12.32a17.43,17.43,0,0,1,2.68-7.43c0-.07-.06-.13-.11-.07a17.31,17.31,0,0,0-2.74,7.48H8.33a18.13,18.13,0,0,1,2.93-7.83s0-.05,0,0A18,18,0,0,0,8,12.27c-.54,0-1.08-.1-1.61-.17q0-.54.12-1.07c0-.08-.11-.12-.12,0-.06.36-.1.72-.13,1.09H6.23c.11-1.26.33-2.52.54-3.7,0,0,0,0,0,0-.24,1.15-.51,2.41-.67,3.69L5.61,12A14.29,14.29,0,0,1,8.15,4.64s0,0,0,0a14.21,14.21,0,0,0-2.7,6.74A14.69,14.69,0,0,1,6.26,7.1c0-.06-.07-.08-.09,0a15.25,15.25,0,0,0-1,4.81l-.22,0c0-.61,0-1.22.1-1.83l.26,0s0-.07,0-.08l-.25,0c0-.12,0-.24,0-.37A10,10,0,0,1,6,7.2a0,0,0,0,0-.07,0c-.14.26-.25.52-.37.78.11-.28.23-.56.36-.84A10.59,10.59,0,0,1,7,5.89c.1-.09,0-.24-.15-.15s-.35.34-.53.51L6.46,6a6,6,0,0,1,.92-.91c.08-.06,0-.19-.1-.13s-.22.19-.33.28c.1-.14.18-.29.29-.43s-.09-.23-.17-.13A10.73,10.73,0,0,0,6,6.2a6.42,6.42,0,0,0-.87,1.45A10,10,0,0,0,4.06,9.78l-.15,0A9.87,9.87,0,0,1,4.2,8.6,9.35,9.35,0,0,1,5.58,6.28l0-.05h0a8.59,8.59,0,0,1,1-1s0-.11-.07-.07a8.56,8.56,0,0,0-1.1,1.07l-.11.11.08-.12s0-.07,0,0-.19.27-.28.4l-.46.49h0c0-.08-.08-.16-.13-.07s-.12.29-.19.43l-.14.18c.11-.3.22-.61.35-.9,0-.07-.07-.13-.1-.06A13.73,13.73,0,0,0,3.9,7.92l-.21.29a.09.09,0,0,0-.12.05l-.08.24h0A12.68,12.68,0,0,1,5,5l.09-.09a6.37,6.37,0,0,0-.43,1c0,.11.13.18.18.08A7.8,7.8,0,0,1,9.07,1.8a.09.09,0,0,0,.06-.08A6.22,6.22,0,0,1,10,1.51c.09,0,.06-.16,0-.15a5.51,5.51,0,0,0-2.45.77s0,0,0,0l-.35.13h0l-.1,0H7c.4-.28.8-.54,1.23-.8.36-.1.73-.2,1.09-.27q1.23-.1,2.47-.24h0a11.2,11.2,0,0,1,6.48,1.29l.12.13s0,0,0,0l-.05-.06A8.56,8.56,0,0,1,22,7.18Zm-4.46,8.74-.34,0,.54-.8C17.73,15.38,17.67,15.66,17.59,15.93Zm-7-3.56h-.05c0-.2.07-.39.11-.59C10.62,12,10.61,12.18,10.59,12.37Zm.3-1.84c0-.27.08-.54.13-.81h.19Q11,10.13,10.89,10.53Zm-7.31,9a.14.14,0,0,0,.08,0c.18.14.35.28.52.43s.21.25.32.36h0a9.78,9.78,0,0,1-.85-.73Z"/><path class="cls-1" d="M21.29,10.74c0,.11.16.1.16,0a8,8,0,0,0-1.63-5.66h0C21.14,6.66,21.34,8.77,21.29,10.74Z"/><path class="cls-1" d="M8,3A7,7,0,0,0,5.29,5.75a.13.13,0,0,0,.22.13A7.46,7.46,0,0,1,8.11,3.19.14.14,0,0,0,8,3Z"/><path class="cls-1" d="M8.89,4.13A15.1,15.1,0,0,0,6.6,9.44a.08.08,0,0,0,.16,0A16,16,0,0,1,9,4.21C9.07,4.13,8.95,4.06,8.89,4.13Z"/><path class="cls-1" d="M13.46,2.38c-.06,0-.12.06-.06.1a7.44,7.44,0,0,1,2.69,4.17.08.08,0,0,0,.16,0A6.86,6.86,0,0,0,13.46,2.38Z"/><path class="cls-1" d="M20,15.26s.06,0,.06,0a13.1,13.1,0,0,0-.84-7.13s0,0,0,0A13.39,13.39,0,0,1,20,15.26Z"/><path class="cls-1" d="M7,11.69s.07.07.08,0c.49-3.29,1.23-7.91,4.64-9.43,0,0,0-.09,0-.07C8.19,3.71,7.48,8.38,7,11.69Z"/></svg>