<svg id="Layer_1" data-name="Layer 1" xmlns="http://www.w3.org/2000/svg" viewBox="0 0 25.71 17.43"><defs><style>.cls-1{fill:#231f20;}</style></defs><title>ilustracije_razmerje</title><path class="cls-1" d="M25.58,8.51C22,4.82,17.57,2.37,13,.13l-.07,0A.59.59,0,0,0,12.46,0a.61.61,0,0,0-.48,0,2.36,2.36,0,0,0-.76.71A12.38,12.38,0,0,0,9.67,2.38C8.41,3.79,7.16,5.23,6,6.76H6C3.9,9,1.66,10.89.05,13.54A.36.36,0,0,0,.16,14c1.46.85,5.15,4.18,7,3.2,5.64-2.92,10.65-10,17.87-7.91A.5.5,0,0,0,25.58,8.51ZM22,7l-.37-.19-.2-.1c-.66-.35-1.32-.71-2-1.08l.06-.06,1.8,1a0,0,0,0,0,0,0l.67.41ZM22,7l.47.27L22,7ZM19.53,5.51l0,0,1.29.79Zm-.2-.11c-.67-.38-1.34-.75-2-1.11,0,0,0,0,0,0,.67.36,1.33.73,2,1.11l-.07.05L17.77,4.7s-.08,0,0,.06l0,0-.88-.46s-.05,0,0,0l2.26,1.18L19,5.61l-.73-.4,0,0s0-.08-.06-.05l0,0-1.86-1,.1-.12.66.27c.05,0,.08,0,.06-.08a.09.09,0,0,0,0-.15c-.16-.11-.33-.21-.49-.32l0,0s0-.06,0,0v0q-.45-.28-.92-.53l.1-.17a.13.13,0,0,0,0,.07A2.12,2.12,0,0,0,17,3.71l1.53.9L17.31,4s0,0,0,0l1.41.71.78.44-1.26-.64L18,4.43,18,4.4l-1-.49s-.05,0,0,0l.28.15s0,0,0,0,.29.24.43.32c.31.18.64.34.95.53a.08.08,0,0,0,.1,0l.67.38ZM20.18,8l.51-.52,1.38.65a9.37,9.37,0,0,0-3.2.68l-.43-.28c.5-.46.91-1,1.39-1.47l.82.4c-.17.17-.35.32-.5.5C20.12,8,20.15,8,20.18,8Zm-1.8.5-1.06-.65c.32-.38.63-.75,1-1.11l.25.14a.06.06,0,0,0,.07-.11l-.23-.14.19-.2.84.43L19.8,7C19.3,7.5,18.85,8,18.38,8.5Zm-.28-2-.53-.32.16-.2a5.71,5.71,0,0,0,.55.34ZM10,6.2h0A3.42,3.42,0,0,0,9.58,6l0-.05.4.22ZM8.87,7.4,8.5,7.19l.12-.14.38.2Zm.2-.22a3.39,3.39,0,0,0-.36-.23l.18-.21.28.16c.06,0,.11-.05.06-.09L9,6.67l.32-.36.4.21ZM7.6,6.33,8,5.73l.49.21-.27.37-.33-.17s-.05,0,0,.05l.32.17-.15.21Zm9.55-2.66a.12.12,0,0,0,0-.14c.47.26.94.52,1.41.79ZM16.52,4c-.32-.14-.63-.27-1-.39l.08-.13.89.5Zm.06,0,.07,0-.08,0Zm-.27.22-.09.1-.85-.42.11-.18.93.38-.1.11-.57-.29s0,0,0,0Zm-2,2.16c-.19-.14-.39-.26-.59-.38L14,5.73c.19.14.38.28.57.43ZM9.72,5.8l.1-.11.38.26L10.13,6Zm-.89.11,0,0,.43.22,0,.05C9.11,6.07,9,6,8.83,5.91Zm.33.33-.33.36-.4-.21L8.73,6Zm-1-.62.06-.08,0,0a2.4,2.4,0,0,0,.43.28l0,0ZM13.84,4v0l-.48-.24-.07,0,.13-.14.38.19s0,0,.05,0l.13.08L13.86,4l-.14-.09s0,0,0,0Zm-.91,1.08-.61-.29.12-.15L13,5Zm.26.06.43.29-.47-.24Zm-1.59.09L11.18,5l0-.05.39.24Zm.26.13h0Zm.6-3,.33.1,0,0-.36-.13v0a1.92,1.92,0,0,0-.19-.14l0,0,.08,0h0a1,1,0,0,0,.2.06h0l.29.1,0,0-.35-.11A0,0,0,0,0,12.46,2.39Zm.44.74-.36-.21,0,0,.33.24ZM9.3,4.48h0l.09.07ZM11.71,3h0l0,0,.33.24-.11-.06Zm0-.16v0l.29.21Zm.11-.22h0l.29.21-.18-.08h0A1,1,0,0,0,11.81,2.67ZM9.42,4.34a.1.1,0,0,0,0,0h0Zm1.71-1.09,0,0,0,0ZM12,2.92h0Zm.17-.23a.08.08,0,0,0,0-.1l.32.22,0,0Zm-3.08,2,0,0h0Zm1.27-.05.16.1-.17-.07Zm1-.83a.11.11,0,0,0,0-.13c-.06,0-.14-.08-.2-.12l0,0,.06,0,.3.21-.06.07Zm-.08-.45.29.15.13.08,0,0Zm1.1-.07h0l.12.07ZM12.09,3l.13.07,0,0Zm.67.11.09.06h0Zm-2,1.42a.06.06,0,0,0,0,0c-.11-.09-.22-.17-.34-.25l.41.25Zm-.13-.31h0l-.16-.13.45.28,0,0Zm.3-.11-.24-.2a.12.12,0,0,0,.13-.13l.1.05.28.24-.12.12Zm.59-.21.06-.05.11.07s0,0,0,0l.23.15,0,0Zm.23-.22,0,0,.36.22,0,0Zm.52-.11.11.05h0Zm0-.41,0,0,0,0a.06.06,0,0,0,.08,0l.18.09.1.07-.08.08Zm.63.06h0l.21.13ZM10.64,4.81l.1-.11.38.23L11.07,5Zm.4,0,.15.07h0Zm-.2-.19.07-.07.18.12c.06,0,.11,0,.06-.09L11,4.45l0,0,.16.1s0,0,.05,0l.17.14-.15.15Zm.35-.34.11-.1.29.28h0l0,0Zm.51.09a1.22,1.22,0,0,0-.13-.17l.19.1ZM12,4.18l0,0,.25.16a.1.1,0,0,0,.11-.17L12.21,4l0,0,.38.22-.21.21Zm.45-.46,0,0,.13.06a.07.07,0,0,0,.09-.06l.25.14L12.85,4Zm.25-.27.07-.08.2.14s.07,0,.08,0l.16.08-.12.12Zm.71-.08h0l-.22-.14a.09.09,0,0,0,.09-.08l.25.13Zm-.58-.82,0,0,.47.15-.05.05Zm0-.05,0,0,.45.17h0Zm.54.16.1,0-.11,0Zm-.76-.42v0l.15.08Zm-.16-.36h0l.09.07Zm.12-.12h0l.08.07-.09-.06Zm.52,0,.25.1-.14,0Zm-3.32,3,0,0,0,0,.53.24L10.32,5Zm1.44.16,0,0,.42.2,0,.05Zm.08-.08.13-.14.36.25-.08.09Zm.25-.23.39.19,0,0Zm.08-.11.18-.18.29.15.09.06-.15.17ZM13,4.95h0Zm-.41-.47.18-.2.55.33-.14.16Zm.56-.08s0,0,.05,0l.21.11,0,0Zm.06-.1h0c-.08-.08-.17-.14-.25-.21l.14-.16.15.08.39.23-.16.2Zm.33-.14.12.06h0Zm0-.65.16-.18.52.26L14,3.8ZM13.79,3l-.44-.2.05-.06.33.1.2.12L13.87,3Zm.29-.2-.47-.29.12-.13a.06.06,0,0,0,0,0l.47.27-.13.12Zm-.5-.31c-.26-.16-.53-.32-.81-.46a.07.07,0,0,0,0-.12l0,0,.06,0a.08.08,0,0,0,.07.09L13,2a1.88,1.88,0,0,0,.27.14h0l.35.18Zm.07-.33.2.06,0,0Zm-5,3.37-.2-.18.06-.07.37.27,0,.06Zm.06-.34,0-.06h0c0,.05.11,0,.09-.07l.34.17L9,5.37Zm.84.25.08,0c.09,0,.14-.1.07-.14l0,0c.08,0,.16-.09.08-.16L9.58,5l0,0h0l.24.14h0l.18.11-.26.26-.22-.1Zm.41.19.23-.26.4.25-.21.23Zm.4-.24a.09.09,0,0,0,0-.1l.33.19-.07.08Zm.08-.29L10.47,5l0,0,.36.22-.05.06Zm.57.22.39.24-.07.07a3.82,3.82,0,0,0-.38-.26Zm.37,0,.17.08h0Zm.44.2.25.11c.06,0,.09,0,.08-.08l.31.19-.12.14-.55-.33Zm.15-.18L12,5.24l.26.12s.06,0,0-.06L12,5.18l0-.06.54.35-.14.16ZM12.18,5l0-.06.6.29-.09.11Zm.86.34.72.37h0l-.16.18-.71-.43Zm.22-.25,0,0,.75.4-.09.1Zm.19-.22.13-.15.7.42-.1.13Zm.19-.22,0,0,.73.39-.06.07Zm.09-.11.16-.19.69.44-.12.15Zm.17-.21v0l.73.38-.06.07Zm.38-.06-.22-.14L14.17,4l.68.44-.07.08Zm0-.36.18-.22.73.37-.22.29Zm1.24.14,0,0L15.32,4l0-.06.83.43-.08.09Zm-.23-.14L15,3.81a.09.09,0,0,0,0,0l.2.1Zm-.15-.2a.08.08,0,0,0,0-.07l-.43-.26,0,0,.77.3-.12.17Zm-.65-.44,0,0,.05,0ZM14,3l0,0,.08,0A.1.1,0,0,0,14.25,3l.13,0a0,0,0,0,0,0,0l-.14,0h0s0-.07,0-.09l-.07,0,.11-.12.46.26-.21.26Zm.54-.4h0l-.11-.06.1-.11a0,0,0,1,0,0,0l-.11.1-.54-.3,0,0,.25.07c.29.14.58.28.88.41l-.14.13ZM9,5.67l0,0,.07,0h0l.36.18,0,0C9.33,5.82,9.18,5.74,9,5.67Zm.16-.11,0,0,.11-.13.43.21,0,0-.11.13Zm1.65.55a4.35,4.35,0,0,0-.43-.26l.21-.22.41.26Zm-.15-.55.07-.07.39.26,0,.05Zm.72.37.14.09c.07.05.15-.05.09-.11l-.12-.11.09-.11.54.34-.22.26L11.38,6Zm.92.21.7.44-.2.22-.72-.42ZM12.48,6l.12-.13.71.43-.13.14Zm.2-.22.14-.15.71.43-.13.14Zm1,.36.59.36-.12.13-.59-.35Zm1,0c-.18-.16-.37-.29-.56-.44l.11-.12.65.36Zm-.31-.76.1-.13.67.4-.12.14Q14.64,5.53,14.31,5.33Zm.15-.2.06-.08.16.09s.09,0,0-.07L14.57,5l.11-.14.67.44-.21.24Zm.23-.3.06-.08.54.28a.1.1,0,0,0,.08,0l.13.08-.13.15Zm.76.13a.09.09,0,0,0,0-.11l-.52-.27.06-.07.69.46L15.57,5ZM15,4.42l.22-.3.14.07h0l.62.36-.3.34Zm1,.16.7.41-.36.39-.65-.45Zm.11-.13.08-.09.74.38-.11.12Zm.83.3,1.09.57-.17.17-1-.62Zm0-.05,0,0s0,0,0,0l0,0-.74-.37.09-.1,1.85,1-.08.09ZM15.51,3.55l-.78-.29L14.89,3l.7.4ZM15,2.86l.11-.16.76.31-.15.22ZM8.39,6.45l.39.22-.18.2c-.12-.07-.24-.16-.37-.22Zm1-.24.05-.06.41.2-.08.08Zm1.17.1a3.44,3.44,0,0,0-.34-.24L10.27,6l.44.27-.09.1Zm.45.12.54.32-.11.12-.52-.34Zm.1-.12.22-.27.53.34-.2.23Zm.92.18.71.43-.18.18-.73-.39Zm.84.5.55.33-.16.17-.57-.32ZM13,6.88l.19-.22.55.35-.2.2Zm.35-.39.13-.15.59.35-.15.16Zm.77.23.76.45-.16.19-.76-.48Zm.09-.09.12-.12h0c.08.05.14,0,.1-.11l.46-.47L15,6a.09.09,0,0,0,.1-.16L15,5.78l.12-.14.65.42c-.29.33-.57.68-.84,1Zm1-1.06.21-.24.65.43L15.82,6Zm.23-.27.13-.15.68.41-.16.17Zm.21-.24L15.68,5l.65.44h0Zm1.59.88c-.25-.18-.51-.35-.76-.53L16.79,5l1,.6-.14.14a3.76,3.76,0,0,1-.37-.28s-.11,0-.07.06a3.23,3.23,0,0,0,.36.3L17.4,6Zm.59-.1.13-.17.61.35-.17.16A6.06,6.06,0,0,1,17.81,5.84ZM18,5.56l.15-.19.7.36-.24.21Zm.19-.24.07-.09.72.4-.08.06Zm-.75-1.11-.08,0Zm1.28.72v0l.73.39,0,0ZM7.52,16.24c-1.71,1.1-4.27-1.18-5.7-2.06C-.39,12.84,4.16,9.51,5.39,8.3,5.94,7.75,6.47,7.17,7,6.57c-.42.59-.83,1.18-1.22,1.76-.06.1.08.22.16.13.56-.64,1.08-1.32,1.59-2l.5.27c0,.06.06.12.1.07h0l.38.2-.12.14-.78-.41c-.08,0-.15.08-.07.12l.77.38c-.51.57-1,1.12-1.54,1.7-.07.08,0,.19.11.12.54-.56,1.06-1.15,1.57-1.74l.39.19C7.47,9,6.2,10.6,5,12.26l-1.17-.52s0,0,0,0l1.14.55c-.2.27-.41.52-.61.79-.78-.44-1.56-.86-2.36-1.25,0,0-.07,0,0,0,.79.4,1.56.85,2.32,1.3,0,.07.06.12.11.07,1.11.66,2.22,1.35,3.37,2,.08,0,.15-.07.07-.12-1.12-.64-2.23-1.31-3.36-1.94l.63-.79c.94.46,1.88.93,2.8,1.45.05,0,.1,0,0-.08a29.74,29.74,0,0,0-2.8-1.43c1.13-1.41,2.22-2.84,3.34-4.26.41-.52.85-1,1.3-1.51l.18.1A.05.05,0,0,0,10,6.56l-.16-.09.1-.1A.09.09,0,0,0,10,6.27l.09-.1.43.26s0,0,0,0c-1.4,1.65-2.71,3.4-4,5.13,0,.07.06.16.11.09C8.15,10,9.49,8.26,10.87,6.57l.52.34,0,0c-.06.08.07.18.13.11L11.53,7l.55.36a0,0,0,0,0,0,0L11.57,7l.12-.13.72.4C10.59,9.14,8.65,10.94,7,13c0,0,0,.06,0,0C8.69,11,10.71,9.22,12.55,7.31l.58.3C11.78,9,10.42,10.29,9.2,11.73c0,0,0,.09,0,.05,1.23-1.44,2.59-2.78,3.94-4.14l.16.09c.08,0,.17-.08.08-.13l-.13-.07.16-.16.72.43a.07.07,0,0,0,.08-.13l-.68-.42.2-.2.8.46c-.8,1-1.56,2.07-2.27,3.15,0,0,0,.1.08,0,.76-1.05,1.53-2.09,2.33-3.12l.26.15a.09.09,0,0,0,.09-.15l-.23-.15L15,7.25l.42.25c.07,0,.14-.07.07-.11l-.4-.24c.27-.34.55-.68.83-1l.61.39s.06,0,0,0c-.19-.14-.4-.27-.6-.4l.21-.26.06,0s0,0,0,0l-.06,0,.15-.19,1,.55c-1.73,1.82-3.4,3.7-5.12,5.53a.07.07,0,0,0,.1.11,42.37,42.37,0,0,0,5.2-5.53l.53.31c-.33.36-.64.74-.94,1.13l-.2-.12s-.09,0,0,.07l.19.12c-.48.63-.92,1.26-1.35,1.81-.06.07.06.17.12.1.52-.58,1-1.17,1.48-1.75l1.49.93a29.29,29.29,0,0,0-6.24,3.67C10.83,13.76,9.27,15.11,7.52,16.24Zm15-8.13q-.82-.43-1.67-.81c.16-.16.33-.33.5-.48s0-.07,0,0c-.18.16-.34.34-.51.5l-.3-.14L20,6.92l.09-.09s0,0,0,0l-.1.1c-.42-.17-.85-.36-1.28-.57l.15-.15.25.15a.05.05,0,0,0,.06-.09L18.9,6.1l.25-.24.91.47s.05,0,0,0l-.89-.47.06-.06.31.18s.05,0,0,0l-.3-.17.08-.08.09,0c.81.46,1.63.91,2.47,1.32-.1.11-.2.21-.29.32s0,0,0,0,.2-.22.29-.33c.26.13.52.26.78.38,0,0,0,0,0,0l.63.35c.07,0,.13-.06.06-.1l-1.33-.79,0-.05s0-.05,0,0l-.06.06c-.81-.48-1.63-1-2.45-1.42l0,0c.67.35,1.34.69,2,1,0,0,.08-.05,0-.07l-1-.49a.12.12,0,0,0,0-.2,7.87,7.87,0,0,0-.7-.47c1.36.71,3.18,1.69,3.5,2.33-.28-.17-.57-.33-.83-.51-.07-.05-.14.06-.07.12.31.23.62.44.94.65C23.56,7.94,23.23,8.08,22.53,8.12Z"/><path class="cls-1" d="M1.77,12.65a0,0,0,0,0,0,0,30.59,30.59,0,0,0,3.9,2.11c.1,0,.17-.12.08-.17C4.43,13.93,3.08,13.32,1.77,12.65Z"/></svg>