<svg id="Layer_1" data-name="Layer 1" xmlns="http://www.w3.org/2000/svg" viewBox="0 0 9.16 14.49"><defs><style>.cls-1{fill:#231f20;}</style></defs><title>ilustracije_razmerje</title><path class="cls-1" d="M7.35,1.27C5.41-1.17,1.46.6.36,2.88A5.87,5.87,0,0,0,.13,6.23C.19,6.84.3,7.44.4,8c.32,1.78.61,3.58,1.06,5.33l0,0c0,.26.07.51.11.78a.14.14,0,0,0,.15.11l.11,0,.13.06H2a1.87,1.87,0,0,0,.62.06c2,.1,5.25-1.49,5.88-3.16C9.63,8.35,9.35,3.79,7.35,1.27Zm.53,8.27c0,.14-.05.28-.08.41-.27,0-.53.06-.8.1-.08-.78-.17-1.55-.27-2.33a6,6,0,0,0,.8,0c.06.37.11.73.14,1.09,0,.09.14.09.14,0,0-.38,0-.75-.08-1.13a0,0,0,0,0,0,0c0-.28,0-.55-.08-.83l.46,0a15.73,15.73,0,0,1-.22,2.63H7.14a0,0,0,1,0,0,0ZM4.16,5.89c0-.11,0-.22,0-.33H4.7c0,.17,0,.33,0,.5L4.17,6ZM1.4,5.21l.16,0a6.78,6.78,0,0,0,.08.71H1.45C1.43,5.69,1.41,5.45,1.4,5.21Zm6.69.87H7.84s0,.06,0,.06H8.1c0,.19,0,.37,0,.56l-.48,0c0-.24-.06-.48-.09-.72l.55,0S8.09,6,8.09,6.08Zm-1-.88a.1.1,0,0,0-.07,0l-.65,0,0-.27c.24,0,.47,0,.71-.07C7.1,5,7.12,5.08,7.13,5.2Zm-.87.31L6.31,6H5.67c0-.18,0-.35,0-.53l.64,0Zm.06.66c0,.28.06.56.08.84L5.77,7c0-.25-.06-.5-.08-.74ZM4.91,5.55l.56,0c0,.17,0,.35,0,.52H4.95Q4.93,5.81,4.91,5.55Zm-3.1-.27h0ZM1.16,3.7h.1c0,.24-.08.48-.11.72H1.1C1.12,4.18,1.13,3.94,1.16,3.7Zm.28,0h.17c0,.25,0,.5-.05.75H1.38C1.39,4.17,1.42,3.92,1.44,3.67ZM6,4.54a1,1,0,0,0-.52-.18v0l.59-.06,0,.18c-.06,0-.06.12,0,.12h0l0,.18-.61.08,0-.2.45,0A.08.08,0,0,0,6,4.54ZM2.24,3.75l.56.06-.2,0s0,.08,0,.08h.25s0,.08,0,.12L2.24,4C2.24,3.9,2.24,3.83,2.24,3.75Zm2.1.4h.24l-.42.06ZM4,4.14H4ZM4.62,4,4.46,4H4V3.87h.63ZM3,3.72s0-.08,0-.12c.29,0,.58-.07.86-.13,0,.08,0,.16,0,.24l-.24,0ZM7.05,2.57v.09a6.65,6.65,0,0,0-.79.06.1.1,0,0,0-.1-.06h0v0a6.18,6.18,0,0,0,.73,0ZM4.21,2.24s0,0,0,0H4.06l.53-.21s0,.08,0,.12Zm0-.68H4.19s0,0,0,0Zm-.77.14h0ZM4.36,2a.08.08,0,0,0-.1-.07L3.88,2s0,0,0,0a0,0,0,0,0,0,0s0,0,0,0l-.59.18h0a0,0,0,0,0,0-.08l.45-.16c.3,0,.59-.07.89-.1v0Zm.34-.13h0ZM2.67,2,2.55,2l.17-.08Zm2,0,.39-.16a.06.06,0,0,0,0,0H5.3v.06h0c-.06,0-.06.09,0,.09h.05v.08l-.59.1Zm.62,0h.58l-.57.09Zm0-.09V1.82h.5ZM2.7,2.55h0ZM4.35,2.3l.24,0s0,.06,0,.09l-.26,0C4.38,2.39,4.38,2.34,4.35,2.3Zm.38.06V2.27l.59,0V2.3Zm.63-.06V2.23l.58,0s0,.06,0,.08Zm-2.72.31h0l-.15.06-.12,0Zm.64-.06h0l-.11,0Zm.39-.06.15,0h0l-.41.06Zm.22,0h0Zm.59.32h0Zm.27,0h0s0,0,0-.08l.15,0H5l.35,0s0,0,0,0h0v.14H4.75Zm.64,0V2.63h.56v.07Zm1-.45a.11.11,0,0,0-.08,0H6.1V2.19l.55-.07.16.08a.09.09,0,0,0,.08,0l.06.1-.31,0A1.14,1.14,0,0,1,6.43,2.31Zm-2.6.41h0L3,2.79v0Zm.08.2.25,0h.38L3.91,3Zm.7.38c0,.06,0,.12,0,.19l-.29,0s-.05.07,0,.07l.3,0v.08L4,3.7l0-.25Zm.19.32.24,0H4.8Zm0-.12V3.26l.48-.13h0l.08,0v.37ZM6,3.11v.07L5.6,3.12Zm.94-1a.13.13,0,0,0,0,0L7,2.26Zm-4.38.63h.39v0h-.2s0,0,0,0l-.21,0A.09.09,0,0,0,2.54,2.78Zm.85.08L3,2.92V2.87Zm-.28.19h.06L3.82,3V3L3,3.08H3Zm.25.05L3,3.19V3.14Zm2.1.42,0-.34L6,3.37l0,.18Zm.74-.1c.19,0,.39.09.58.12H6.21Zm0-.22V3.1A3.72,3.72,0,0,0,7,2.93q0,.2,0,.41ZM2.92,2.87v.06L2.8,3,2.29,3v-.1Zm0,.21h0l-.62.07h0Zm0,.06v.07h0l-.45,0a0,0,0,0,0,0,.05h.1l-.27.06c0-.05,0-.11,0-.16Zm-.74.49v0l-.3,0Zm.1,0c.21,0,.41,0,.62,0v.11l-.62,0S2.24,3.65,2.25,3.64ZM3,3.88l.51,0,.35,0s0,.1,0,.15H3S3,3.93,3,3.88Zm.87.25V4.2l-.17.05-.7,0c0-.05,0-.1,0-.16Zm1-.13V3.88l.56,0V4Zm2.39-.62c0-.17,0-.34,0-.5h0a5.63,5.63,0,0,0,.25.57ZM1.69,2.91l0,.22-.16,0h0l0-.23Zm.11,0H2s0,0,0,0h.19V3L1.88,3a0,0,0,0,0,0,.08H2l-.17,0C1.8,3,1.8,3,1.8,2.9Zm.41.25h0l-.33,0s0,0,0,0l.33,0c0,.06,0,.12,0,.18l-.38.1c0-.1,0-.19,0-.29Zm-.41.53.34,0c0,.16,0,.32,0,.48H1.8C1.8,4,1.8,3.86,1.8,3.69ZM2.24,4l.61.06c0,.05,0,.11,0,.16H2.24C2.24,4.15,2.23,4.08,2.24,4Zm.62.3s0,.06,0,.09l-.22,0h-.4s0-.1,0-.15Zm.1.08s0,0,0-.07l.35,0-.2,0Zm2.44,0h0ZM5.49,4V3.84h.58l0,.16ZM1.19,2.85l0,0H1.3Zm.31.36h.16c0,.11,0,.22,0,.33l-.17,0Zm.3,1,.32,0c0,.05,0,.11,0,.16H1.8C1.8,4.36,1.8,4.29,1.8,4.23Zm.12.24H1.8s0,0,0,0Zm-.12.06h.31c0,.22,0,.43,0,.65H1.81C1.81,5,1.8,4.75,1.8,4.54Zm.44,0h.62c0,.2,0,.4,0,.6l-.64,0C2.25,5,2.25,4.76,2.24,4.55Zm3.17.08v.22H5.36c-.06,0-.07.1,0,.1h.07l0,.27-.56,0c0-.22,0-.45,0-.67Zm.18.59,0-.27.62,0,0,.27Zm.76-.49,0-.15c.23,0,.48,0,.72,0v.06C6.83,4.68,6.59,4.69,6.36,4.73Zm0-.31,0-.18a.12.12,0,0,0,.08-.08H6.6A.07.07,0,0,0,6.6,4H6.27l0-.15.76,0C7,4,7,4.17,7,4.35,6.81,4.38,6.56,4.4,6.32,4.41Zm.93-.61h.27l.16,0,.1.14c0,.09,0,.19.06.28l-.52.09Q7.27,4.06,7.25,3.8ZM1.38,2.94h.06c-.06.21-.11.43-.15.66H1.23s0,0,0,0h0l-.11,0c0-.2.06-.41.11-.62,0,0,0,0,0,0l0,.2L1.2,3ZM1.1,4.45h.05a6,6,0,0,0,0,.62H1.08Q1.09,4.75,1.1,4.45Zm.28,0h.18c0,.23,0,.46,0,.7l-.16,0C1.39,4.91,1.37,4.69,1.38,4.46Zm.43,1h0l.26,0c0,.17,0,.35,0,.52h-.3C1.81,5.77,1.81,5.59,1.81,5.41Zm1.1-.12v0h0Zm.07,0,.5,0a.06.06,0,0,0,0-.11L3,5.15c0-.2,0-.4,0-.59l.49,0,.4,0c0,.25,0,.5,0,.75L3,5.3Zm1.07-.74.58,0c0,.23,0,.46,0,.69l-.56,0C4.1,5,4.08,4.79,4.05,4.55ZM4.75,6.2c0,.25,0,.49.06.74h-.6c0-.26,0-.51,0-.77Zm.21,0h.56c0,.25,0,.49.08.74H5C5,6.7,5,6.45,5,6.21Zm.66.93,0,.36-.59-.06c0-.11,0-.22,0-.33Zm.18,0,.64,0,0,.39-.63-.06Zm.87,0h.24c.09,0,.11-.14,0-.15L6.64,7l-.11-.88h.09c.06,0,0-.11,0-.11h-.1l-.07-.57.62-.05a.12.12,0,0,0,.09-.06c.06.43.13.86.2,1.29H6.69a.06.06,0,0,0,0,.11l.7.08c0,.27.09.54.13.8l-.8-.05ZM8.08,5.91H7.52c0-.15,0-.29-.06-.44A3.53,3.53,0,0,0,8,5.59C8.05,5.69,8.07,5.8,8.08,5.91Zm-.65-.7-.05-.4h.07c.1,0,.08-.18,0-.17H7.35V4.58a1.81,1.81,0,0,0,.53-.13c.06.28.11.57.14.87A3.64,3.64,0,0,1,7.43,5.21ZM1,3.25A3.79,3.79,0,0,0,1,4.42h0a0,0,0,0,0,0,0H1c0,.18,0,.37,0,.55L.73,4.9s0,0,0,0L.94,5a4.8,4.8,0,0,0,0,.58c0,.06.1,0,.1,0s0-.34,0-.51l.05,0a4,4,0,0,0,.1.8,0,0,0,0,0,0,0h0c0,.08,0,.17.06.25s.17.08.16,0,0-.15,0-.22h.2c0,.1,0,.2,0,.3a.07.07,0,0,0,.14,0c0-.09,0-.18,0-.27l.3,0c0,.14,0,.27,0,.41q-.66,0-1.32,0c0-.09,0-.18,0-.27A6.08,6.08,0,0,1,1,3.25ZM4.12,13.2c0-1.13-.11-2.27-.12-3.4a.06.06,0,0,0-.11,0,27.63,27.63,0,0,0,.18,3.42,5.16,5.16,0,0,1-1.75.3,59,59,0,0,1-1.47-7l1.31,0c0,.28,0,.57.06.85-.25,0-.51,0-.76.05a0,0,0,0,0,0,.06c.26,0,.52,0,.78,0,.07.58.16,1.17.28,1.74,0,.1.16.06.15,0-.09-.58-.16-1.15-.23-1.72l.66-.06a.06.06,0,1,0,0-.12l-.66.08c0-.28,0-.55-.07-.82h.56a.07.07,0,0,0,0-.14c-.19,0-.39,0-.58,0,0-.14,0-.27,0-.41l.58,0s0,0,0-.05L2.29,6c0-.17,0-.34,0-.52l.67.06c.07.66.17,1.32.28,2q-.15-1-.21-1.95l.9,0c0,.16,0,.32,0,.47L3.23,6c-.06,0-.07.1,0,.1l.7.05c0,.26,0,.52.06.79H3.28a0,0,0,0,0,0,.08l.72,0c.08,1,.18,2.05.27,3,0,.08.13.08.13,0-.09-1-.14-2-.19-3l.61,0c0,.11,0,.21,0,.32H4.81s0,0,0,0h.06c.06.48.11,1,.19,1.45,0,.1.16.06.15,0-.06-.46-.1-.92-.14-1.37l.6.11a22,22,0,0,0,.58,3,.08.08,0,0,0,.16,0,25,25,0,0,1-.56-2.93l.63.09c.09.8.2,1.6.35,2.39l-.34.06a0,0,0,0,0,0,.06l1.27-.11,0,.15C7.46,11.47,5.74,12.65,4.12,13.2Z"/><path class="cls-1" d="M3.36,8.31l-.15-.84c0,.28.07.56.13.84C3.34,8.33,3.36,8.33,3.36,8.31Z"/><path class="cls-1" d="M2.75,12.43c0,.32,0,.64,0,1a0,0,0,0,0,.09,0c0-.32,0-.64,0-1C2.82,12.38,2.74,12.38,2.75,12.43Z"/><path class="cls-1" d="M3.26,11.32c0,.62.06,1.24.09,1.86h0c0-.62-.07-1.24-.08-1.85C3.28,11.3,3.26,11.3,3.26,11.32Z"/></svg>