<svg id="Layer_1" data-name="Layer 1" xmlns="http://www.w3.org/2000/svg" viewBox="0 0 9.42 14.01"><defs><style>.cls-1{fill:#231f20;}</style></defs><title>ilustracije_razmerje</title><path class="cls-1" d="M6.56.93A3.77,3.77,0,0,0,5.9.16h0a.11.11,0,0,0-.16,0L4.93.63a5.11,5.11,0,0,0-1.1.79l-.31.21-.11.07a4,4,0,0,0-.48.35h0a3.67,3.67,0,0,0-.71.51,7.11,7.11,0,0,0-1,.82,3.28,3.28,0,0,0-.58.49.63.63,0,0,0-.32.25A.73.73,0,0,0,.18,5s0,0,.06.05C1.07,8.38,3,11.15,5,13.86a.44.44,0,0,0,.63,0c1.75-2,3.45-4.09,3.75-6.78C9.65,4.77,8.15,2.57,6.56.93Zm2,6.83v0l-.9-.25L7.79,7l.83.25C8.6,7.44,8.6,7.59,8.57,7.75ZM7.21,10.33a8.93,8.93,0,0,0-1.57-.44,0,0,0,0,0,0,0c0,.17.31.23.44.27.35.11.71.21,1.06.31L7,10.71c-.49-.14-1-.22-1.5-.34.3-1.33.69-2.64,1.11-4l.21-.52.69.16-.11.36L7,6.34c-.06,0-.09.08,0,.09l.35.09-.07.25L7,6.7a.07.07,0,1,0,0,.13l.23.05-.14.48-.27-.07a0,0,0,0,0,0,.09l.27.09c-.13.43-.26.86-.38,1.29,0,.06.07.09.09,0,.13-.43.24-.86.36-1.29l.16.05C7.16,8,7,8.37,6.87,8.77c0,.12.13.16.18.06-.08.31-.15.62-.23.93A.12.12,0,0,0,7,9.83c.23-.72.42-1.45.59-2.18l.89.25A20.8,20.8,0,0,1,7.21,10.33Zm-3.92-4,.17-.44.6.16c0,.16-.09.32-.14.48Zm5.34-.13h0C8.42,6.09,8.22,6.05,8,6l.06-.24.3.08c.12,0,.18-.15.06-.18l-.32-.08.06-.25.31,0A5.84,5.84,0,0,1,8.63,6.16Zm-.69-.62L7,5.3l.08-.23c.31.09.63.17.94.24ZM5.45,1.32l.31.12-.38,0v0s0,0,0,0v0H5.21Zm-1.33.85h0l0,0h0Zm3,2.28L7,4.65l-.48-.12.06-.18.31.05h0ZM4.9,2.75v0l-.17,0Zm.31.67,0,.08-.26-.07,0-.07Zm.1.11,0-.08.34.07,0,.1ZM5,2.44H5l-.11,0Zm.34.45-.24-.07v0l.25.05,0,0v0Zm.14,0v0L5.83,3h0Zm-.31-.41v0h.07l.25.07v0ZM4.7,2.35l0,0-.34-.11Zm.07,1,0,.08-.21,0,0-.09Zm0,.63L5,4l0,.13-.2-.06Zm.33.23,0-.13.32.09,0,.13L5.24,4.2ZM5.93,3h0Zm0-.26-.45-.15v0l.5.14,0,.06ZM4.7,1.71a.13.13,0,0,0-.07.05l-.11.08h0A3.5,3.5,0,0,1,5,1.52Zm-.21.14h0l-.11.08a.07.07,0,0,0,0,.08H4.3Zm0,1.38,0,.1H4.42l0-.1Zm-.17.56L4.29,4l-.1,0,.07-.19Zm.07,0,.23.07L4.6,4,4.36,4Zm1.69.44.4.07-.06.17-.38-.1Zm.09-1.42,0-.06h0l0,.06ZM4.54,2.58H4.27V2.49Zm-.14.63,0,.1-.25,0,0-.13Zm-.22.53-.08.19-.19,0c0-.07.05-.14.07-.21Zm2.05.07,0-.17.4.15L6.62,4ZM6.62,3h0l-.13-.05,0-.08.43.1,0,.08Zm-2.7-.6.12,0L4,2.54l-.2,0ZM5.4,4.53l-.11.4L5,4.85l.12-.44Zm1.69-.29A.12.12,0,0,0,7,4.13C6.94,4.08,6.83,4,6.73,4l.06-.18L7.15,4a.06.06,0,0,0,.06,0l0,0-.1.29Zm-.32-.78L6.5,3.39l-.1-.05.37.11Zm.1,0h0ZM6.5,3.19h0l.31.11v0ZM7,3,7,3,7.45,3l.06.1ZM3.63,2.65l.28.1,0,.09a0,0,0,0,0,0,0v0L3.45,2.8ZM3.86,4,4,4.06l-.21.52-.14,0C3.75,4.36,3.81,4.19,3.86,4Zm.27.09.11,0c-.05.17-.11.35-.16.52l-.15,0Zm.19.06.24.08c0,.17-.1.34-.14.51l-.24-.06C4.23,4.5,4.27,4.33,4.32,4.15Zm.42.14.18.06-.14.46-.18,0C4.64,4.61,4.7,4.45,4.74,4.29Zm0,.65c-.06.21-.12.42-.19.62l-.1.28-.16,0c.09-.3.19-.6.27-.9Zm0,.67c.07-.21.14-.42.2-.63l.33.08-.2.71L5,6l-.36-.12ZM6,4.71l.29.09s0,0,0,0L6.92,5l-.07.24-1-.21Zm.89,1c.22.06.44.11.67.16,0,0,.08-.06,0-.08l-.67-.15.05-.15.94.24L7.81,6c-.32-.07-.64-.15-1-.21Zm.9.42-.1.36-.22-.05.1-.36Zm-.13.46-.08.24-.21-.05.07-.25Zm-.11.37-.17.49-.17,0,.14-.49ZM8,6.18l.57.13a.09.09,0,0,0,.08,0c0,.15,0,.3,0,.45-.25-.08-.5-.14-.75-.2Zm.25-1,.08-.33c0,.13.09.26.13.39Zm-.13,0L7.42,5l0,0,.18,0c.08,0,.11-.1,0-.12l-.19,0a.1.1,0,0,0-.07-.08l-.21-.05.05-.18.61.21a.1.1,0,0,0,.06-.18l-.09,0,.43.11h0l0,0ZM7.27,4.3h0L7.35,4l.3.11c.09,0,.15,0,.14-.11L8,4H8c.08.16.16.32.22.49C7.91,4.44,7.59,4.36,7.27,4.3Zm.47-.4,0,0-.15-.06.23,0c.07,0,.1-.09,0-.1l-.38-.09.1-.32a0,0,0,0,0-.07,0c0,.1-.07.21-.11.32A3.26,3.26,0,0,1,7,3.53H7a.11.11,0,0,0-.06,0l.14,0c.06,0,.1-.07,0-.1L6.9,3.35v0l.1,0H7l.06,0c.1,0,.14-.09.07-.15a.08.08,0,0,0,0,0l.48.09q.2.32.36.65Zm-4.38-1h0s0,0,0,.06L3.82,3l0,.15-.64-.12Zm-.18.67a.08.08,0,0,0,.13,0l0-.06.32.11-.07.22-.44-.13Zm.39.27c-.07.21-.12.43-.18.65L3,4.37a0,0,0,0,0,0,.06l.37.11,0,.19L3,5.48l-.47-.08h0a15.69,15.69,0,0,0,.63-1.7ZM3.33,4.94a.13.13,0,0,0,.23,0c0-.09.06-.19.09-.28l.14,0c-.12.3-.24.6-.36.9l-.37-.08C3.15,5.31,3.24,5.12,3.33,4.94Zm.57-.23.15,0L4,4.92a.05.05,0,0,0,.1,0l0-.17.24.07c-.08.3-.17.6-.26.9L3.55,5.6ZM4.22,6l.15,0-.17.48-.12,0C4.13,6.37,4.17,6.21,4.22,6Zm.31.08.38.1-.17.52-.39-.13Zm.58.15h0L5,6.83l-.07,0Zm.09-.2h0l.08-.21Zm1.6-.65h0l-.06.15c-.32-.08-.63-.16-.95-.22l0-.16Zm-1,0,.94.23,0,.06-1-.17Zm2,1.45.06-.25.78.22c0,.09,0,.19,0,.28C8.36,7,8.1,7,7.82,6.89ZM5.31,12.74A28.34,28.34,0,0,1,1.63,6.27l-.11-.54a5.12,5.12,0,0,1,0-.54,3.33,3.33,0,0,1,.61-1.32l.69-.57.2.07L3,3.6,2.8,3.55s0,0,0,0L3,3.61c-.19.57-.39,1.15-.6,1.71a.07.07,0,0,0,0,0l-.3-.05c-.1,0-.13.15,0,.17.28.06.56.14.83.21l-.45.94s0,.09.07,0c.16-.32.31-.65.46-1l.38.1-.17.43L3,6.18a0,0,0,0,0,0,.08l.2.07L3,6.67c0,.08.1.12.13,0l.13-.34.65.23a.08.08,0,0,0,.11,0l.13,0a12.15,12.15,0,0,0-.63,2.16c0,.1.15.13.17,0a14.65,14.65,0,0,1,.62-2.14l.39.13C4.47,7.57,4.24,8.27,4,9,4,9,4,9,4.05,9l.81-2.06.07,0c-.08.28-.17.57-.26.85s.18.23.25.08.21-.55.32-.83l.14,0a.06.06,0,0,0,0-.12l-.14,0c.15-.43.3-.86.42-1.3l.92.22c-.15.36-.3.72-.43,1.09A.07.07,0,0,0,6.31,7l-.1.3a26.6,26.6,0,0,0-.94,3,4.38,4.38,0,0,1-1-.36s-.06,0,0,0a4,4,0,0,0,1,.45c0,.19-.08.39-.1.59s.15.13.17,0,.09-.37.13-.55c.47.14.94.24,1.42.37C6.15,12,5.46,12.95,5.31,12.74Z"/><path class="cls-1" d="M4.7,10c.19-.69.44-1.36.7-2S5.84,6.5,6,5.76a0,0,0,0,0-.06,0c-.52,1.37-1,2.8-1.42,4.21C4.53,10,4.68,10.09,4.7,10Z"/></svg>