<svg id="Layer_1" data-name="Layer 1" xmlns="http://www.w3.org/2000/svg" viewBox="0 0 13.91 9.55"><defs><style>.cls-1{fill:#231f20;}</style></defs><title>ilustracije_razmerje</title><path class="cls-1" d="M13.78,3.31C11.71,1.71,9.46.16,6.75.05,4.39,0,2.31,1.62.78,3.32A3.76,3.76,0,0,0,.07,4h0a.11.11,0,0,0,0,.16c.19.25.38.5.57.75a5.13,5.13,0,0,0,.87,1l.23.28.08.11a3.56,3.56,0,0,0,.39.49h0a3.66,3.66,0,0,0,.56.66,7.12,7.12,0,0,0,.9,1,3.28,3.28,0,0,0,.53.55.63.63,0,0,0,.28.3.73.73,0,0,0,.88,0s0,0,0-.06c3.24-1.06,5.87-3.19,8.42-5.39A.44.44,0,0,0,13.78,3.31ZM5.52,7h0a15.66,15.66,0,0,0-1.74-.5c0-.15.07-.3.11-.44l.66.13c0,.12,0,.25-.07.37a0,0,0,0,0,.07,0c0-.12.06-.25.09-.37l.19,0,.76.3C5.56,6.72,5.54,6.88,5.52,7ZM5.11,3.74l.16-1h0l.15,0c-.05.32-.11.64-.15,1ZM5,1.54l.24.07c-.06.32-.12.63-.17.95L4.88,2.5C4.94,2.18,5,1.86,5,1.54ZM1.86,5.32v0L2,5.41a.07.07,0,0,0,.08,0s0,0,0,.07Zm.55-.52h0l0,.11S2.4,4.84,2.41,4.8Zm.33.05L2.7,5c0-.06,0-.12,0-.17Zm.62-.36.08,0c0,.09,0,.17,0,.26H3.31Zm.1-.11H3.38c0-.11,0-.23,0-.34l.1,0C3.5,4.16,3.48,4.27,3.46,4.38Zm-.64,0-.05.24h0c0-.09,0-.17,0-.26v0h0Zm1.08.42,0-.22.13,0c0,.07,0,.14,0,.21ZM2.85,4.28h0L2.9,3.9h0Zm-.52.8,0,0-.08.34Zm.95-.14h.08c0,.07,0,.14,0,.22l-.1,0Zm.84-.43L4,4.47,4,4.14l.13,0,0,.23Zm0-1c0-.13,0-.27,0-.4l.18,0-.07.39Zm-1.21.25v0h0v0Zm-.47.83h0V4.55l.05-.25h0Zm.77.57.1,0v.06l-.1,0Zm.57.13.18,0,0,.11-.19-.06Zm0-.07L3.87,5l.16,0,0,.24Zm.56-2.19L4.19,3c0-.08,0-.15,0-.23l.06-.26.19,0Zm-1.7.7-.12.47h0l.1-.5.06,0ZM2.2,5.66h0l0,0v0Zm.37-.44c0,.09,0,.18,0,.27H2.5Zm.63.1.11,0,0,.26-.13,0Zm.55.18.2.07,0,.19L3.7,5.7ZM3.67,3.45l-.17,0c0-.14.08-.28.12-.41L3.8,3C3.76,3.18,3.71,3.31,3.67,3.45Zm-1,.1H2.65v0l.06,0Zm-1.36.91h0s0,0,0,0h0s0,.1,0,.15a1.3,1.3,0,0,1-.09-.24c0-.11.07-.21.1-.32C1.35,4.2,1.35,4.33,1.35,4.46Zm.35.66a.13.13,0,0,0,.06.07l.09.1s0,0,0,0a3.5,3.5,0,0,1-.36-.44Zm.71.73,0-.12.13,0,0,.2Zm2-1.63.41.08,0,.34-.45-.09ZM4,2.55a.12.12,0,0,0-.1.07c0,.1-.06.21-.1.31l-.18,0c0-.13.07-.25.11-.38a.06.06,0,0,0,0-.06v0l.29.08Zm-.76.37c0,.09,0,.18,0,.28l0,.1.08-.38Zm0-.1h0ZM3,3.22v0l.09-.32h0C3.11,3,3.07,3.11,3,3.22Zm-.22-.1,0,.14-.08,0c0-.14,0-.29.07-.43l.08,0c0,.1,0,.19,0,.29Zm-.12,3,0-.14h0c0-.05,0-.1,0-.15l.09,0h.05c0,.14,0,.28,0,.42ZM4,5.79l0-.18.53.17,0,.15Zm.07-.27,0-.11.53.12,0,.15Zm0-.19.06-.25.51.11c0,.08,0,.16,0,.24Zm.11-.43.05-.18.47.11,0,.18Zm.65,0L5.55,5l.28.08,0,.16L4.88,5Zm.67,0-.64-.16L5,4.33l.72.15L6,4.54c0,.12-.07.25-.1.37Zm-1-1.2c0-.1,0-.2.07-.29s0,0,0,0l.14-.64.25.06Q5,3.21,5,3.7Zm.93-1c0-.22.08-.45.11-.68,0-.05-.07-.07-.08,0,0,.22-.07.45-.11.67l-.15,0c.05-.32.11-.63.17-1l.25.05c0,.32-.1.65-.14,1Zm.36-.92.37.08,0,.22L5.84,2Zm.47.1.25.06c0,.07,0,.14,0,.21l-.25-.05Zm.37.09.5.14,0,.17-.5-.1C6.7,2.08,6.71,2,6.72,1.94Zm-.8-.42c0-.19.06-.39.09-.58A.09.09,0,0,0,6,.87L6.43.82c-.06.25-.11.51-.15.77ZM5.84.9c0,.2-.06.4-.09.6l-.24,0c0-.1,0-.21.06-.31S5.4,1,5.37,1.1s0,.21-.06.32l-.25,0c0-.1,0-.21,0-.31A5.85,5.85,0,0,1,5.85.88Zm-1,.45-.33-.06.38-.16Zm0,.14c0,.23-.07.46-.09.69l0,0c0-.06,0-.12,0-.18s-.1-.11-.12,0l0,.19a.1.1,0,0,0-.07.08l0,.21-.18,0c.05-.21.11-.42.16-.62a.1.1,0,0,0-.18,0l0,.1c0-.15.05-.29.08-.44h0l0,0ZM4.25,1.4c-.06.32-.12.65-.16,1h0l-.3-.07L3.88,2c0-.1,0-.14-.12-.14s0-.14,0-.21h0C3.94,1.57,4.09,1.48,4.25,1.4Zm-.59.53,0,0-.05.15,0-.23c0-.07-.09-.1-.11,0s0,.26-.06.39l-.32-.08a0,0,0,0,0,0,.07l.33.09a3.28,3.28,0,0,1-.09.39s0,0,0,0a.11.11,0,0,0,0,.06l0-.14c0-.06-.08-.1-.1,0s0,.13-.07.2h0l0-.1h0l0-.06c0-.1-.1-.13-.15-.06l0,0c0-.16,0-.32.06-.48q.31-.22.63-.41C3.69,1.78,3.67,1.86,3.66,1.93Zm-.8.83H2.78c0-.15,0-.31,0-.46l.1-.07C2.9,2.4,2.88,2.58,2.86,2.76ZM3,6.37H3s0,0,.06,0,.05-.28.08-.42l.15,0c0,.22-.05.43-.08.65Zm.64,0-.07,0L3.62,6l.23.05-.1.45-.11,0A.08.08,0,0,0,3.6,6.37ZM5,6.26A.13.13,0,0,0,5,6L4.68,6l0-.14.93.29c0,.13,0,.25-.05.38Zm-.27-.55,0-.16.18,0a.05.05,0,0,0,0-.11l-.18,0,.05-.24.91.19c0,.19-.08.39-.11.58ZM6,5.46l.48.1-.15.64-.45-.14C6,5.86,6,5.66,6,5.46Zm.52-.06-.49-.11,0-.15.49.14ZM6.12,5l.07-.38.53.13c0,.13-.07.26-.1.39Zm.11-.59v0l.54.12,0,.07ZM6,4.33l-.21-.06.21,0Zm-.69-.54c0-.32.1-.64.16-1l.06,0-.1,1Zm.92-.89-.53-.17L5.84,2l.37.08c0,.12,0,.23-.06.35s.08.08.09,0l.06-.35.25.05c0,.08,0,.16,0,.25a.07.07,0,1,0,.13,0c0-.08,0-.16,0-.23l.49.11-.06.27a0,0,0,0,0,.09,0l.07-.27,1.31.29a0,0,0,0,0,0-.09L7.29,2.27l0-.17c.42.11.84.22,1.25.35.12,0,.16-.14,0-.18l.94.16a.12.12,0,0,0,.05-.22C8.89,2,8.15,1.9,7.41,1.77c.07-.3.13-.6.19-.9A20.76,20.76,0,0,1,10.12,2a9,9,0,0,0-.33,1.6,0,0,0,0,0,0,0c.16,0,.21-.33.24-.45.09-.36.16-.72.23-1.08l.22.12c-.1.5-.15,1-.23,1.52C8.93,3.52,7.59,3.22,6.26,2.9ZM7.47.84c-.07.3-.13.61-.19.91l-.51-.09c.06-.28.13-.57.19-.85.16,0,.32,0,.48,0Zm-.64,0c-.07.28-.14.55-.19.83l-.25,0c0-.27.1-.53.16-.8Zm5.82,2.92A28.34,28.34,0,0,1,6.46,7.85L5.94,8a5.13,5.13,0,0,1-.55,0A3.33,3.33,0,0,1,4,7.49l-.62-.65.05-.2.24.06,0,.17h0l0-.17c.59.15,1.17.3,1.75.47h0c0,.1,0,.2,0,.3s.16.12.17,0c0-.28.1-.56.15-.85l1,.39S6.87,7,6.82,7c-.33-.14-.67-.26-1-.39,0-.13,0-.26.07-.39l.44.14-.05.22a0,0,0,0,0,.08,0l.06-.21.35.11c.08,0,.12-.11,0-.13l-.35-.11.18-.66a.08.08,0,0,0,0-.12l0-.14a12.15,12.15,0,0,0,2.2.48c.1,0,.12-.16,0-.17a14.67,14.67,0,0,1-2.17-.46l.1-.4c.71.18,1.43.36,2.14.56,0,0,.06-.05,0-.06L6.88,4.59l0-.08.86.2c.16,0,.21-.19.06-.25S7.26,4.28,7,4.2l0-.15A.06.06,0,0,0,6.9,4l0,.14C6.43,4,6,3.93,5.54,3.83c0-.31.1-.62.15-.94.37.12.74.25,1.12.35a.07.07,0,0,0,.07-.11l.31.07a26.57,26.57,0,0,0,3,.73,4.38,4.38,0,0,1-.28,1S10,5,10,5a4.05,4.05,0,0,0,.38-1c.2,0,.39.05.59.06s.12-.16,0-.17l-.56-.09c.1-.47.17-1,.27-1.44C11.86,2.93,12.85,3.56,12.65,3.72Z"/><path class="cls-1" d="M10,4.52c-.7-.14-1.39-.35-2.07-.56S6.4,3.64,5.64,3.48a0,0,0,0,0,0,.06C7,4,8.49,4.36,9.92,4.67,10,4.69,10.05,4.54,10,4.52Z"/></svg>