<svg id="Layer_1" data-name="Layer 1" xmlns="http://www.w3.org/2000/svg" viewBox="0 0 23.74 54.19"><defs><style>.cls-1{fill:#231f20;}</style></defs><title>ilustracije_razmerje</title><path class="cls-1" d="M23.54,43.72a4.9,4.9,0,0,0-.13-.7A20.68,20.68,0,0,0,22.18,39c-2.58-6.05-9-8.69-14.8-10.63a.81.81,0,0,1-.15-.11L7,28a51.78,51.78,0,0,1-2.49-5C2,17,.1,9.56,2.91,4.28a8.15,8.15,0,0,1,.66-.93h.08a1.56,1.56,0,0,0,2.08-2A1.94,1.94,0,0,0,4.63.3a.06.06,0,0,0,0,0A.93.93,0,0,0,4.29.18s0,0,0,0L4,.12l0,0a1.22,1.22,0,0,0-.45,0,1,1,0,0,0-.67.31A1.64,1.64,0,0,0,2.22,1.7a.45.45,0,0,0,.08.5h0l-.09.15a5,5,0,0,0-.66,1.08c-3.73,7.06,0,18.16,3.5,24.65.5,1.49-.38,3.1-.56,4.61a.08.08,0,0,0,0,.07c-.05.42-.1.83-.13,1.25A26.3,26.3,0,0,0,4,38.93a11.21,11.21,0,0,0,.09,1.74,14.9,14.9,0,0,0,.53,3,5.27,5.27,0,0,0,.14.53c0,.08,0,.17.06.25a4,4,0,0,0,.52,1.22l0,.08c-.06.41.63,1.29.78,1.54a13.25,13.25,0,0,0,.78,1.14c2.15,3.23,6,5.86,9.87,5.7a2.13,2.13,0,0,0,.53,0,7.84,7.84,0,0,0,2.27-.58C23.54,51.86,24.15,47.62,23.54,43.72ZM5.15,25.55q.38.8.76,1.53a3.33,3.33,0,0,1-.46.11c-.07-.1-.12-.21-.19-.31h0l-.31-.55c-.09-.18-.18-.36-.28-.54h0l-.1-.19a1,1,0,0,0,.22,0l.31.53a0,0,0,0,0,.06,0l-.27-.51a1.46,1.46,0,0,0,.28,0S5.15,25.56,5.15,25.55ZM8.61,49.8l.13.11.28.2s0,0,0,0l.27.27.06.09L9,50.25ZM3.27,22.54c0-.12-.08-.25-.12-.37h0L3,21.73a10.44,10.44,0,0,1,.59,1.67L3.42,23s0,0,0,0S3.32,22.69,3.27,22.54ZM8.44,37c-.39.25-.79.48-1.2.69,0-.08,0-.15-.07-.23a0,0,0,0,0-.05,0c0,.08.05.16.07.25L7,37.84s0-.06,0-.09,0,0,0,0,0,.07,0,.1c-.3.15-.6.29-.9.42-.2-1.86-.16-3.73-.36-5.6,0,0,0,0,0,0,.15,1.9.16,3.76.33,5.63l-.39.14a19.6,19.6,0,0,1-.11-2.61s-.06,0-.06,0a18.46,18.46,0,0,0,.06,2.65l-.15.05c-.06-1.06-.1-2.12-.13-3.18,0-.2,0-.4.07-.61,0,0,0-.05-.05,0-.06.3-.1.6-.13.9,0-.49,0-1,.08-1.47s.23-1.14.35-1.71a8.31,8.31,0,0,0,1.59-.06A32.74,32.74,0,0,0,8.44,37Zm4.13-3.22q.51.47,1,1C14.33,36,15.2,37.17,16,38.35l-.38.34c0-.2-.1-.4-.16-.6a0,0,0,0,0-.06,0c.06.21.11.43.16.64q-.51.45-1,.87v0s-.07,0-.05,0l0,0-.06,0c-.07-.29-.13-.58-.19-.86,0,0,0,0,0,0l.19.88q-.49.37-1,.71L13,40a5.85,5.85,0,0,0,.93-.77s0-.12-.07-.07a8.83,8.83,0,0,1-.95.72l-.22-.3c.19-.15.37-.31.54-.47a12.22,12.22,0,0,0,2-1.59s0-.09-.06-.06a13,13,0,0,1-1.54,1.25l.13-.13c.07-.08,0-.2-.12-.12a9.43,9.43,0,0,1-.87.81l-.21.12-.29-.4a4.74,4.74,0,0,0,1-.85s0-.09-.06-.06a5.71,5.71,0,0,1-1,.82L12,38.62h0s0-.12-.07-.09h0q-.4-.55-.78-1.11c.63-.34,1.26-.71,1.86-1.11,0,0,0-.07,0-.05-.6.41-1.23.77-1.86,1.12-.33-.48-.64-1-.94-1.47A23.37,23.37,0,0,0,12.58,33.79Zm6.13,1.32q.32.26.62.54l.45.77c-.08-.11-.16-.22-.24-.33s-.06,0,0,0,.24.35.36.52c-.36-.38-.75-.74-1.14-1.09l-.17-.2.11-.18.22.21a0,0,0,0,0,.06-.06ZM4.53,36.49c0,.1,0,.2,0,.3,0-.06,0-.12,0-.18Zm.57.31h0s0-.09,0-.14c0-.3,0-.61,0-.92q0,1.11,0,2.22C5.13,37.58,5.1,37.19,5.1,36.8Zm11.46,2.44-.2.24c-.06-.26-.12-.52-.16-.78,0,0-.07,0-.06,0,0,.27.11.55.17.82l-.48.56a7.84,7.84,0,0,0-.21-1.34l.4-.35C16.21,38.68,16.39,39,16.56,39.24Zm.38-.35.43-.52.24.34a28.59,28.59,0,0,0,.45,3.06l-.26-.33a13.79,13.79,0,0,0-1.13-2.23l.2-.24L17.6,40s.08,0,.06,0Zm3-.68.41.49.25.46c-.18-.29-.38-.58-.6-.86Zm.8.74a7.37,7.37,0,0,1,.64.7c.09.19.18.38.26.58h0c0,.06,0,.12,0,.18a11.53,11.53,0,0,0-.77-1.15Zm-15,4.55,0,.11h0l-.09-.2,0-.1Zm-.3-2.77v0a14.85,14.85,0,0,0,.65,1.85H5.89c-.13-.46-.24-.92-.33-1.39C5.53,41,5.52,40.86,5.5,40.73Zm6.37-.81q-.3.19-.61.35l-.06-.11q.43-.18.84-.38Zm9.39-1a10,10,0,0,1,.45.94l0-.06A11.34,11.34,0,0,0,21,38.44l.22.35ZM8.19,48.94l-.11-.12c-.13-.2-.27-.39-.4-.59a0,0,0,0,0,0,0L7.63,48l0,.05A4,4,0,0,0,8.19,48.94ZM6.69,47a0,0,0,0,0,0,0l0,0s0,0,0-.05.08.13.12.19.09,0,.07-.05-.12-.2-.18-.3l.11.15c.07.19.16.37.24.56L7,47.45Zm-.34-1-.22-.29L6,45.45l.07.13a.06.06,0,0,0,.08,0C6.21,45.75,6.28,45.91,6.35,46.06Zm.09-1.13-.06-.11h0Zm-.16-2.09c0,.06.14,0,.11,0l0-.09h0A13.83,13.83,0,0,0,7.84,46,17.27,17.27,0,0,1,6.77,44.3s-.07,0-.05,0c.23.43.48.84.75,1.24,0,0,0,0,0,.07l.11.24a11,11,0,0,1-.56-1c0-.06-.12,0-.09.05s.08.15.12.23,0,0,0,0l.17.23s0,.07,0,.1a4.19,4.19,0,0,1-.58-1.65c0-.07-.12-.07-.11,0a4.21,4.21,0,0,0,.1.56,16,16,0,0,1-.69-1.89h.27ZM7.58,44s0-.08,0-.12l.29.5a14.26,14.26,0,0,0,1,1.64,3.69,3.69,0,0,0,.7,1h0l0,0-.22-.24s0-.08-.06-.11,0,0,0,0v0a11.24,11.24,0,0,1-.73-.91C8.13,45.26,7.85,44.64,7.58,44Zm.33-1.59a24.7,24.7,0,0,0,.92,2.35c-.17-.21-.34-.41-.49-.63,0,0-.05,0,0,0,.19.28.41.54.62.8s.19.38.29.57l-.09,0s0,0,0,0l.09,0c.07.14.14.28.21.41a5.36,5.36,0,0,1-.64-.64,9.4,9.4,0,0,1-.7-1.74,0,0,0,0,0-.06,0,8.21,8.21,0,0,0,.42,1.25,8.69,8.69,0,0,1-1-1.94s-.1,0-.08,0q.15.43.34.83l-.28-.56c-.09-.23-.16-.46-.23-.7Zm-.71,0a7.92,7.92,0,0,1-.26-1.28l.55-.06q.19.63.41,1.27Zm1.34,1.26.36-.11c.31.54.62,1.08.95,1.61l-.45.22L9,45.08A23.79,23.79,0,0,1,8,42.43l.25,0c.2.42.42.82.65,1.23l-.35.11S8.52,43.75,8.53,43.75Zm7.3-1.12.63.82-.45.43q-.13-.55-.29-1.1Zm-.19-.09-.09-.27.14.19Zm3.42.82.05.13-.14.16-.23-.3.18-.23Zm-14.24-1,0,.15h0l0-.1ZM5,43H5l-.13-.46h0Zm1.23,3,.2.25c.08.16.18.31.26.47v0l-.26-.33C6.38,46.3,6.31,46.15,6.24,46Zm.73.06,0,0a6.91,6.91,0,0,0,.49.7l.1.21a6.42,6.42,0,0,1-.55-.8Zm2.57,1.18.18.17-.17-.11s0,0,0,0l.37.26q.34.33.71.62s0,0,0,0h0l.07.05H10.6l0-.06a.07.07,0,0,0-.13.06h-.08l-.56-.4L10,48c.06,0,.08-.07,0-.09l-.37-.16c-.06-.16-.12-.31-.19-.46Zm-.14-.11L9.35,47l.08.1ZM8.68,45.4s0,0,0,0l-.35-.59c.1.16.22.31.33.46s.12.27.19.41l-.1-.16S8.69,45.44,8.68,45.4Zm.67.11c.21.23.42.46.64.68l-.28.1q-.22-.37-.42-.75Zm-.07,0-.1-.19.16.17Zm4.26-.62s.13,0,.09-.07l-.07-.09.43-.29.1.1.48.56-.59.43-.55-.71,0,0ZM16,44c.07.33.14.66.2,1-.17-.24-.35-.48-.53-.72Zm.24,1.26,0,.26,0,.06c-.26-.37-.53-.74-.82-1.09l.18-.15C15.79,44.67,16,45,16.21,45.28ZM17,44.13a4.67,4.67,0,0,0,.08-.83l.08.12a9.12,9.12,0,0,1,.28,1.36h0l-.2-.3c.07.11.12.22.19.34s-.12.29-.19.43c-.12-.2-.26-.39-.38-.59a4,4,0,0,0,.15-.53l0,.07Zm1.12,1a4.32,4.32,0,0,1-.23.42l0,0a4.64,4.64,0,0,0,.11-.67ZM7.63,46.46c.11.12.23.23.35.34L8.1,47l-.3-.29Zm2.76,1.46h0l-.06-.08.17.08a2,2,0,0,0,.33.31l-.14,0C10.59,48.11,10.49,48,10.39,47.92Zm.56-3.3.05,0,0,0-.06,0Zm5.34,1.19c0,.2,0,.39.06.59l-.22.15-.25-.29L16,46l.19-.23Zm0-.12h0Zm3.11-1.18.13.21-.17.21c0-.11,0-.22,0-.32Zm-.11-.11v-.07l0,0ZM7.83,47.7l.1.09s0,0,0,0l0,.06-.08-.1Zm.48.4h0a1.74,1.74,0,0,0,0,.22l-.1-.1c-.07-.12-.13-.25-.19-.37a.06.06,0,0,0,0,0ZM12,49.18l.1.07-.13,0-.35-.29.38.25Zm-.31-1.41.19.18.14.14H12L11.83,48s0,0,0,0l.14.11-.28,0-.17,0a4,4,0,0,1-.19-.41h0A1,1,0,0,1,11.7,47.78Zm.65.2c-.31-.18-.59-.39-.87-.6s-.28-.31-.4-.47l.66-.19.18.2L11.8,47a0,0,0,0,0,0,0l.12-.08q.47.49,1,.94l-.26.08-.08-.08s-.1,0-.06.06l0,.05-.21.06a2.25,2.25,0,0,0-.56-.31l-.18-.2c.23.16.46.33.71.48A0,0,0,0,0,12.36,48Zm-1.1-.75L10.92,47l.09,0Zm0-2.39.61.59-.11.06-.15-.15c-.12-.16-.23-.33-.35-.49Zm.28,3.87h0l.31.22.06.07Zm4.11-2.05,0,0,.1-.14.13.19-.43.25.06-.09.23-.12C15.78,46.72,15.73,46.63,15.66,46.66Zm-.77-1.31q.43.44.83.89h0l0,.05,0,.08c-.27-.35-.57-.69-.86-1Zm.94,1,.21.25-.1.06-.16-.23Zm.54.27c0,.08,0,.16,0,.23l-.13-.16,0,0Zm1-.85,0,0,.07.12c0,.07,0,.13,0,.2l0,0v0C17.41,46,17.4,45.88,17.39,45.78ZM20,44.87v0l0-.06s0-.1,0-.14S20,44.8,20,44.87ZM22.94,43h0q.08.4.14.8L23,43.65c-.05-.29-.11-.58-.18-.86,0,0,0-.08,0-.13h0C22.87,42.78,22.92,42.9,22.94,43ZM9.56,48.27l.17.24c-.18-.15-.36-.3-.53-.46h0s0,0,0,0Zm8.68-2.62c0,.07,0,.15,0,.22l-.18.21L18,45.95l.09-.19Zm2.23-1.89h0v0Zm-8.86,4.58h.07l.3.14h-.1l-.26-.11Zm2.29-1.19.28.22-.49.22c-.36-.32-.7-.65-1-1a4.37,4.37,0,0,0,.56.17A6.65,6.65,0,0,0,13.91,47.15Zm-.47-.34.11,0,.14.13ZM10,48.61l.14.13h0l-.12-.1,0,0Zm1.77-.06.34.14s0,0,0,0h0c.27.1.54.18.81.26l.24.2a8.53,8.53,0,0,1-1.35-.43l-.13-.19Zm2.84-1,.09.06-.07,0-.07-.05Zm-.18-.07,0,0,0,0,0,0Zm-.63.91h.11l0,0-.22,0,0,0Zm4.33-2,.09.25c-.11.09-.22.19-.33.28h0l0,0s0,0,0,0l-.07-.14.11-.12,0,0a0,0,0,0,0,.05,0l0-.06.1-.11Zm3.76-2.76c0-.07,0-.15-.07-.22s0-.2,0-.29l0,.17C21.89,43.42,21.9,43.54,21.9,43.65Zm-9.17,8.61h0Zm-.88-2.74h0l0,0A.06.06,0,0,0,11.85,49.53Zm1.92-1.59.19,0,.25.21-.31.06L13.63,48Zm-1.74,2,.07.06h0l-.05,0Zm6.65-3.24-.09.2c0-.07,0-.15,0-.22l.05,0Zm2.62-2.48h0v0S21.31,44.21,21.31,44.2Zm.59.1s0,.07,0,.1l-.07.3,0-.18c0-.12,0-.24.06-.36ZM15,48.16l.19-.05h0l-.17.06h0ZM20,46.35h0c-.06.14-.11.28-.18.41a.07.07,0,0,0-.06,0l0-.1Zm1.84-.21,0-.14c0-.1,0-.21.05-.31C21.81,45.84,21.8,46,21.79,46.13Zm1.06.69s0,0,0,0v-.07S22.86,46.79,22.85,46.82Zm-2.11.73c.07-.12.13-.23.2-.35L21,47a8,8,0,0,1-.38.74s0-.05,0-.08h0l0,0ZM15.26,48.7a.09.09,0,0,0,0,0,.08.08,0,0,0,0,0l-.1,0Zm1.06-.52h0l.05,0h0s0,.08,0,.11l0,0-.09-.09Zm.9.29,0,.06-.13.08,0-.1.12,0Zm0,.64.11-.08.1,0-.07.11-.09.06h0Zm.43,1.46-.11.12h0a1.57,1.57,0,0,0,.13-.16Zm1,1.16-.11,0,.06-.05h0l.15,0Zm.28-.25h0Zm1-.09-.1,0h0l0,0,.07,0,.14,0,0,0Zm.9-1h0Zm-.1.12-.12.12,0,0,.11-.11Zm-1.4-.64.06-.07v0Zm1.13,1.24,0,0,0-.05h0Zm-3.84-1.78h0Zm-1.12,3.27h0Zm5.25-1.85h0l.08-.11h0l0,.06Zm-.25-.67h0c-.09.1-.19.18-.28.27h0v0l.14-.14Zm-3.87-.59h0Zm3.86.27.09-.1-.16.19ZM17,48.55l0,.12-.11,0-.07-.07.08-.05Zm-.23.09h0Zm4.31.56-.07.11s0-.09.05-.13l0,0Zm-3.35-1-.31.2,0,0,.33-.18ZM16.3,49.57h0l-.15.07.11-.07Zm.08,0-.13.12-.06,0-.06,0ZM16,49.54h.09l-.16.11-.12-.05Zm-.27.38.11-.07.17-.06.08,0-.15.08Zm6.89-2.79,0,0,0,.09Zm-6,1,0,0v0Zm-.2,0,.12,0-.12.15S16.46,48.16,16.46,48.13Zm-.78,1.52.16.07-.28.17-.32-.16C15.39,49.71,15.54,49.69,15.68,49.65Zm5.54-1.3,0-.11.07-.11-.07.17ZM16.77,48l.09,0-.08.06Zm-1.37,1.9-.27-.07,0,0Zm6.09-2.54v0h0Zm-6.37,2.39,0,.06-.17,0,.18,0Zm.34.31.09,0,0,0-.11-.05Zm6.11-3s0,.09,0,.13l0,0c0-.06,0-.11,0-.17V47S21.56,47,21.56,47.05Zm-1.5-.92v0Zm-.1.28a.06.06,0,0,0,.06.05v0a.07.07,0,0,0,0,0c0,.16-.09.3-.13.45,0-.05,0-.1,0-.15a.08.08,0,0,0-.08-.08l.16-.37Zm-.86.73v0h0l-.13.12h0l.13-.17Zm-2.76.76.07-.06h0Zm-.54.58,0,0h0l-.27,0,.24-.17Zm-.84.23h0Zm.11.1.09,0-.07,0,0,0Zm-.21,2.85.24.06-.48-.07-.11,0Zm-1.32.27-.09,0h0Zm4.4-4.45,0,0v0Zm-1.16.17,0,0,0,0Zm-.15,0v0h0Zm-.11.07v0l-.08,0v0l0,0h0ZM15,48.55l.29-.19.08,0h.13l0,0-.54.33-.11,0a0,0,0,0,0,0-.06l-.09-.08.07,0A.08.08,0,0,0,15,48.55Zm-.12.14h0l-.17,0h0l.1-.05Zm0,1.35h0Zm.15,0h.06l.06,0-.11.06-.14-.07Zm-.74.42.17,0,.11,0-.08,0-.29-.12Zm-.14,1.06.17.07-.44-.06-.18-.11Zm5.72-5.2-.06.12h0v0h0Zm-1.81,1v0l0,0h0S18.06,47.36,18.06,47.38Zm-3.19,1.15h0Zm-.09.05-.1.06-.06,0,.14,0Zm.14.36h0l0,0ZM14.58,50l.14.07-.12,0s0,0,0,0l.16,0,.18.09-.52-.09,0-.08c0-.07-.15,0-.14,0h0l-.13,0L14.3,50Zm-1,1.38.23.14H13.7l-.21-.14Zm7-5.26h0v0Zm-.31.44c0-.1,0-.2,0-.3,0,.08,0,.15,0,.24Zm-2,.72a.08.08,0,0,0-.08,0c.05-.07.09-.14.14-.21s0,.15,0,.23Zm-1.09.17.08-.14,0,0s.05,0,0,0l0-.06.11-.1c0,.05,0,.11,0,.16Zm-.05-.06-.1.15-.07,0,0,0,.13-.11Zm-2.44,1.06h0l-.18.05h0Zm-.4.12-.19.06h0l-.09-.06.22,0Zm.16.09.12.07h-.24a0,0,0,0,0,0,0h.23l-.15.09-.18-.12Zm.15.09.19.11-.21.1-.16-.11Zm-.1.25-.19.08L14.07,49h0l.21-.12ZM14,50.6a7.1,7.1,0,0,1-.76-.17l.51,0Zm-1.48.68-.12,0-.07,0s0,0,0,0Zm9.71-4.43c0,.06,0,.12-.06.19s0-.13,0-.19l0-.11.07-.21C22.31,46.63,22.3,46.74,22.28,46.85ZM22,45.2s0,0,0,0h0c0-.08,0-.16,0-.23l0-.25c0,.13,0,.26,0,.39Zm-1.44.22c0,.15,0,.29-.07.44v0l0-.33Zm-.13.26,0-.05,0,0Zm0,.28,0,.14c0-.11,0-.21-.08-.32l0,0Zm-6.53,2.63.44.29-.21.12-.54-.38Zm.49,1.18h0Zm-1.48,1.46h0Zm9.53-5v.07l-.06.17h0l.07-.23ZM21.76,45v0Zm-3.33,1.87.08-.1c0,.07,0,.14,0,.21Zm-3,1.17-.09,0h0l.1,0Zm-2,.59.38.28-.29-.13-.15-.15Zm.43,1-.11,0h.11Zm.3.13.06,0h-.07S14.13,49.78,14.12,49.77Zm-.9-.08-.07,0,.13,0Zm-.18.59h0l0,0h0S13,50.27,13,50.28Zm-.61.78,0,0,0,0,.15.06Zm-.49-.11h0l-.05,0h0Zm2.41,1.95h.05l.2,0,.05,0h0l.17.06-.19,0Zm6.81-8s0,.08,0,.12v0c0-.05,0-.1,0-.16Zm-3.62,2.28,0-.09V47l.09-.08c0,.07,0,.14,0,.21Zm-2.63.64h0l.08-.14.08,0,.06.07Zm0,0-.08-.06.13,0Zm-.25,0,.06-.06.14.11-.11,0a.1.1,0,0,0-.06.11l-.35.07-.25-.21.55-.12v0S14.59,47.82,14.61,47.81Zm-.2.47h0l-.22.05h0l0,0,.24,0ZM13,48.66l.21.11L13,48.66Zm.71.5.09.08-.09,0-.34-.19Zm.07.57-.53-.12h.1Zm-2.55-.06a.08.08,0,0,0,0,0l-.31-.25.3.18Zm.67,1,.45.22L12,50.78l-.11-.08ZM14,52.81h0l.07,0,.1,0L14,52.81Zm6.89-7.73c0,.15,0,.3-.06.44s0,0,0,0,0,.13,0,.19h0l-.06.1c0-.21,0-.42,0-.63v0l.07-.1.1-.11s0,0,0-.07l0-.06C20.89,44.92,20.89,45,20.89,45.08Zm-3.13,2-.13.08c0-.07,0-.14,0-.22l.1-.1.07.15Zm-.31-.42h0s0,0,0-.06v0S17.45,46.59,17.45,46.62Zm-.4.5-.27.21c.09-.09.18-.19.26-.29l0,.05Zm-4,1.67-.16-.06-.06,0h.05Zm9.29-3v0Zm-1.41-1.3-.17.27c.06-.14.11-.28.16-.43Q20.88,44.43,20.89,44.51ZM19.84,45.7v.08l0,.12-.12.12,0-.18.12-.2Zm-2.26.79h0Zm-.28.2h0Zm-.12.22L17.1,47l0,0,0,0Zm-.37.19-.13.14h0l.09-.09Zm-.66.42-.13.11-.17.07,0,0Zm-2.53.91-.32,0h0l.3,0Zm-.43,0h0Zm-1.31,1.09a.06.06,0,0,0,0,.07,3.25,3.25,0,0,1,.51.13l0,0,.14.1-.68-.19,0,0a0,0,0,0,0-.06,0h0l0,0A.07.07,0,0,0,11.87,49.57Zm-.57.77.28.23h0l-.21-.13-.2-.2Zm1.47,1.94.08,0,.08.06-.16-.09ZM22,43.85h0l0-.12c0-.11,0-.21,0-.32l0,.11C21.95,43.64,22,43.75,22,43.85Zm-.5.32h0c0-.07,0-.14,0-.21v0C21.49,44,21.48,44.11,21.46,44.17ZM21.2,43l.06.42c0,.09,0,.18,0,.27,0-.18-.06-.35-.1-.53Zm-.57,1.6v-.12c0-.14.07-.29.09-.43l.06.09C20.73,44.33,20.68,44.48,20.63,44.64Zm-.14,0q0,.21-.1.41c0-.13,0-.25,0-.38l.07-.13Zm-.69.88,0,.07,0-.11Zm-1.24.7v0Zm-.2.2s0,0,0,0,0,.08,0,.12l-.07-.16.12-.06S18.35,46.35,18.35,46.37Zm-.74,0h0Zm-3.07,1.25-.3.07.25-.11Zm-1,.41.19.16h0a0,0,0,0,0,0,0l-.08,0-.11,0-.08-.06.1,0s0,0,0,0Zm-.17.18.05,0-.29.06L13,48.26l.22-.07Zm-.44.15-.1,0-.12-.09.15,0Zm-.21.08v0l-.23-.14h.08Zm0,.28h0l-.17-.05h0Zm-.78.07.29.11a11.42,11.42,0,0,0,1.19.38l.06,0v0l-.17,0h-.22A7.72,7.72,0,0,1,12,48.84Zm-2-.08,0,0,0,0-.12-.1.06,0Zm-.21.09a7.35,7.35,0,0,0,.77.75l0,.06.1.13-.18-.1-.1-.11c-.23-.27-.46-.52-.7-.78ZM21.6,43.48s0,.1,0,.14l0-.1V43.4Zm-.79.58h0L20.75,44v0Zm-.38.36c0-.09,0-.19,0-.28l0,.22Zm-.11.39c0,.13,0,.26,0,.4s0,0,0,0l0,.16,0-.08,0-.38v-.08ZM19,46.65v0c0-.06,0-.12,0-.19a.11.11,0,0,0-.05-.08l0-.06.08.26Zm-.57-.26,0,0v0s0,0,0,0v-.09h0s0-.07,0-.1l.16-.12C18.51,46.18,18.48,46.28,18.45,46.39Zm-.6-.08.15-.26,0,.1Zm-.19.07s0-.06,0-.09l0,0,0,0Zm-2.12,1-.06-.07a4.38,4.38,0,0,0,.53-.38l.16.23Zm-.65.1-.05,0h0Zm0,0,0,0-.08-.06,0,0Zm-.54-.19,0,0-.1-.08.13.06Zm0,.15,0,0-.49.24-.06,0Zm-.52.31-.09,0-.27.05,0,0,.33-.12ZM13.3,48h0l0,0,.17,0Zm-.14,0-.09,0-.09,0s0,0,0,0h0l-.16,0,0,0,.34,0Zm-.66.09h0l.18-.05,0,0Zm.08.47h0Zm-.13,0h0l-.15,0h.09Zm-.87-.13.08.13-.25-.17Zm1.14.85h-.1l-.26-.16Zm-1.56,0a.11.11,0,0,0-.07,0l-.32-.26,0,0C10.92,49.23,11,49.28,11.16,49.35ZM10,48.62l0,0,0,0Zm-.61-.22-.19-.14.17.11Zm.53,1.88.16.11.14.17L10,50.41h0Zm12.32-6h0c0-.14-.05-.27-.08-.41s0-.09,0-.13C22.18,43.87,22.21,44.05,22.24,44.23ZM21.64,43l0,0,0-.07S21.64,42.91,21.64,43Zm-.55-.3v0Zm-.11.12,0-.13Zm-.06.88v0h0l-.09-.2c0-.1,0-.2,0-.3,0,.14.08.28.1.43Zm-.32.46,0,.07,0-.25,0-.16.12.17C20.61,44,20.6,44.06,20.59,44.12Zm-.59,1h0Zm-.18-.14,0-.11v0l0,.08Zm-1,1.19v0l.05-.11a.07.07,0,0,0,0-.06l0,.11Zm0-.25h0l0,0,0,.07A.08.08,0,0,0,18.77,45.88Zm-1,.34,0,0,.13-.17Zm-1.11.57c0-.11,0-.23.05-.34l.12.2Zm-.28.22h0l-.11.09-.17-.25.09-.08Zm-.94.23-.05-.06.52-.27A4.43,4.43,0,0,1,15.42,47.25Zm-.67.07-.14.07-.06,0,.17-.08Zm-.81-.23L13.79,47l.2.13Zm-1-.76c.17.14.34.28.51.41l-.2,0-.43-.29Zm-.16,0h0l.09,0Zm.27.28-.39-.14.11-.06Zm.58,1-.35.13a4.13,4.13,0,0,0-.56-.4q-.31-.25-.6-.52l.44-.27Q13.07,47.11,13.63,47.62Zm-.28.28h-.07l.06,0Zm-1.12.44.18.15h-.23l-.4-.17h0Zm.16.94h0l-.05,0ZM9,47.94l.21.26-.12-.08-.2-.29Zm13.17-4.33c0-.11-.06-.21-.09-.31l.07.22Zm-.54-1.2c0,.07,0,.15,0,.22a0,0,0,0,0,0,0c0-.12,0-.24,0-.36Zm-.63.07h0Zm-.37,1.33-.1-.15,0-.07.08.14Zm-.81.93h0v0ZM19.26,46c0,.06,0,.12,0,.19l-.06.11v0c0-.08,0-.16,0-.24l.07-.08Zm-.6-.47v0h0v0Zm-.36.28c0-.07,0-.14,0-.21l.06-.06.08.14Zm-1.45.77-.14-.24.14-.1.13.23Zm-.28.23-.12.1h0c0-.11,0-.23,0-.34l.23-.17C16.62,46.57,16.6,46.71,16.57,46.84Zm-1.28.2,0,0,0,0,.17-.09Zm-1.62-1-.08,0,0,0Zm-.24.05a2.26,2.26,0,0,0,.35.08l.27.33-.11.17s0,.1.08.06l.1-.15.5.58-.23.11-.67-.46s0,0,0,0h0c-.23-.17-.45-.35-.68-.53l.14-.08Zm-.72,0-.14.05q-.35-.29-.69-.61l.12-.05C12.22,45.75,12.46,45.94,12.7,46.14Zm-.21.08-.1,0c-.18-.2-.35-.4-.52-.6Q12.17,46,12.5,46.22Zm.2.16,0,0-.11.07-.05,0h0Zm-.16.15-.43.28-.15-.14.49-.18Zm-.63.15.16.15-.1.06-.17-.19Zm.18.17.44.4a1.87,1.87,0,0,0-.3-.14s0,0,0,0L12,46.91Zm.61.54.5.39-.2.07c-.25-.21-.49-.43-.72-.66A2.11,2.11,0,0,1,12.7,47.39Zm-.55.7-.21-.2a2.66,2.66,0,0,1,.29.19Zm-.75.15h0Zm-.9.67h0l0,0,0,0Zm-.58-.51h0l0,0Zm0,0,0,0,0-.05h0l.06.07Zm-.15-.17h0L9.53,48l0,0C9.59,48,9.68,48.13,9.76,48.22Zm0,1.49.11.19A11.64,11.64,0,0,0,9,49l.19.1A7.68,7.68,0,0,0,9.74,49.71Zm1.81,2.16h0l.23.07.19.1.19.13Zm1.14.62a5.12,5.12,0,0,1-.59-.23l-.08,0h0Q12.36,52.37,12.68,52.5Zm9.6-9.3h0l-.07-.3.06.18Zm-.3-.3-.07-.29,0-.12s0,0,0,0v-.05c.07.25.13.49.19.74Zm-.35-1.15c0-.08-.07-.16-.09-.24s0-.1,0-.16C21.55,41.48,21.59,41.61,21.63,41.75Zm-.33-.56v0l.07.19Zm.22.89c0,.21,0,.41,0,.62l0-.1c0-.27,0-.53-.06-.79Zm-.54.27,0,0-.08-.24s0-.05,0-.08Zm-1.39,1.93h0Zm.05.72q0,.29,0,.58c0,.09-.08.19-.12.28v0s0-.1,0-.14h0a.1.1,0,0,0,0-.13c0-.11,0-.21,0-.32Zm-.46.47,0,.14,0,0,0-.15Zm0,.21h0v0s-.06,0-.06,0,0,.08,0,.11l-.1.12,0,0,0-.13.19-.18Zm-.62,0a.09.09,0,0,0-.08,0l-.09-.15.13-.12C18.53,45.5,18.54,45.59,18.55,45.69Zm-1.1,0,0,0s0,.07,0,.1Zm-.12.13V46l-.07-.1Zm0,.25v.11h0l-.26.22L17,46.19l.29-.28ZM16.85,46h0c.08-.12.16-.24.23-.37l.07.11Zm-2-.63c.3.35.6.71.87,1.08l-.16.26-.32.16a3.89,3.89,0,0,0,0-.8s0,0,0,0a3.78,3.78,0,0,1,0,.82h0l-.66-.77a2.11,2.11,0,0,0,.62-.23,0,0,0,0,0,0-.07,2.09,2.09,0,0,1-.6.2,4.39,4.39,0,0,0,.27-.62Zm-.47.6-.2-.25.4-.21Q14.45,45.76,14.34,46Zm-1.52.11L12.7,46s0,0,0,0l-.58-.49.16-.07a4.22,4.22,0,0,0,.87.55ZM12,45.38l-.61-.58.13-.07c.2.21.41.4.62.58Zm.36.9-.08,0a4.34,4.34,0,0,1-.78-.55l.31-.13C12,45.86,12.14,46.07,12.33,46.28Zm-.18.07-.39.13c-.17-.18-.34-.37-.5-.57,0,0,0,0,0,0,.15.2.31.38.48.56l-.11,0q-.28-.31-.55-.62l.31-.11A4.42,4.42,0,0,0,12.15,46.35Zm-.58.19-.63.19c-.16-.2-.31-.41-.46-.62l.56-.2Q11.3,46.24,11.58,46.54ZM10.94,48l-.06-.06.19.09Zm-.19-.09-.17-.15.08,0Zm-.33-.31a1.55,1.55,0,0,1-.12-.28l.29.38Zm-.25-.06-.13-.1.09.06Zm1.06,1.14a0,0,0,0,0,0,0l0-.07Zm0,.05.42.38L11.52,49l-.22-.17Zm.18.24-.07,0v0ZM11.3,49l-.14,0h0s0,0,0,0l.08,0ZM11,48.89l0,0,.09.05ZM9.2,47.81l.09.12-.2-.17-.16-.24Zm0,.87.33.41.07.09,0,0h0a4.87,4.87,0,0,1-.76-.95.06.06,0,0,0-.11.06l.05.09a7,7,0,0,1-.4-.64A9.68,9.68,0,0,1,9.17,48.68Zm-.07.3-.21-.1-.43-.43a1.73,1.73,0,0,1-.07-.24A9.12,9.12,0,0,0,9.09,49Zm2.78,3.16.13.07h0l-.1-.05S11.87,52.14,11.87,52.13Zm10.3-9.41v0l-.08-.3Zm-.73-1.58,0,.2c0-.12-.09-.24-.14-.36l.11.15Zm-.1,1.16-.06-.11c0-.14,0-.28,0-.42C21.33,41.95,21.33,42.13,21.34,42.3Zm-1.11,1.4c0-.05,0-.11,0-.16l0,0Zm-.1.68v0l0,0Zm-.35,0v0c0-.07,0-.14,0-.22s0,.15,0,.22Zm-.09.11h0l0,0v0l0,.06Zm-.21-.05v0h0Zm-.26.6-.11-.22.08-.09C19.2,44.82,19.21,44.92,19.22,45Zm-.19.2-.2.2-.08-.23L19,45Zm-.61,0-.09.08.07-.1Zm-.15,0,.06-.16,0,0Zm-.51.38,0-.08v0Zm-.19.21s0,0,0-.06v0Zm-.12-.48-.12.13-.11-.19c.07-.13.12-.27.18-.42C17.43,45.08,17.46,45.24,17.46,45.4Zm-.16.18-.13.14-.08-.11.11-.2Zm-.26,0-.22-.3s0,0,0,0c0-.16,0-.33,0-.5.12.19.24.38.36.58Zm-.24-.29.22.32c-.07.12-.15.25-.23.36l0,0C16.78,45.68,16.8,45.47,16.8,45.25Zm-.26,1-.14.1c0-.15,0-.29,0-.44l.2.31Zm-.7,0h0l.06-.06Zm-1.17-1.09h0Zm0,.08,0,.09-.56.27c.18-.13.37-.26.55-.4Zm-1.16.63-.22.09a3.86,3.86,0,0,1-.92-.54l.57-.29Zm-1.28-.57a8.57,8.57,0,0,1-.64-.58l.73-.41c.16.23.33.45.5.67Zm-.73-.68,0,0,.16-.05Zm-.08,0-.14.07-.07-.06.17-.05Zm-.32,0,.06.09,0,0L11,44.69Zm.13.19.13.19-.16-.17Zm.33.47.14.19-.31.14a5.2,5.2,0,0,1-.56-.62l.33-.14Zm-.26.36-.28.12c-.17-.21-.34-.42-.5-.63l.23-.1A5.26,5.26,0,0,0,11.29,45.7Zm-.32.13-.53.21c-.15-.22-.29-.44-.42-.66h0l.45-.2C10.64,45.4,10.8,45.62,11,45.83Zm-.57.35s.06,0,.05,0c.14.21.29.4.43.6l-.14,0c-.22-.18-.44-.36-.64-.56l.28-.09Zm.28.64-.55.15c-.14-.2-.26-.41-.38-.61l.3-.1C10.25,46.45,10.47,46.63,10.68,46.82Zm.18.15.53.41.26.3h0a1.09,1.09,0,0,0-.32,0h0a4,4,0,0,1-.14-.43c0-.06-.11,0-.1,0a4,4,0,0,0,.29.81h0l-.56-.28c-.18-.22-.35-.45-.52-.69Zm-.6.32a0,0,0,0,0-.06,0,1.14,1.14,0,0,0,0,.14c-.09-.09-.16-.19-.24-.29l.14,0Zm-.24.08L9.9,47.3h0l-.08-.1h.06Zm-.31-.3-.09-.12-.15-.24c.09.12.2.23.29.35Zm.57.67,0,0,0,0Zm.57.56h0Zm.22.1.33.3-.31-.22v0a0,0,0,0,0,0,0l-.05,0Zm0,.17c0,.07.07.13.1.19l-.27-.21h0l.29.23,0,.06-.37-.22-.16-.22h.19Zm-.44,0,.17.23-.14-.06c-.15-.12-.31-.24-.45-.37h.14Zm-.47-.29s0,0,0,0L10,48.13l.24.16Zm-1-.65.05.1-.13-.15Zm-1-.51.2.35c-.14-.19-.29-.37-.43-.57Zm.09.53h0l0,0Zm0,.09a7,7,0,0,0,.46.73,8.8,8.8,0,0,1-.65-.8l.12.1S8.27,47.78,8.29,47.75ZM8,47.66a3.68,3.68,0,0,1-.28-.25l0-.11.24.22Zm-.39-.42,0,.12-.06-.06,0-.13Zm14.68-6,0-.07,0,0Zm-1.08-.5v0c-.05-.19-.13-.37-.19-.56a6.82,6.82,0,0,1,.34.72Zm0,.49c0,.19,0,.38,0,.57q-.13-.43-.3-.84c0-.09,0-.19.05-.29C21,40.82,21.1,41,21.19,41.21Zm-.38.67v0l0,0-.05-.15Zm-.21,1.2v0l.1-.14C20.66,43,20.62,43,20.6,43.07Zm-.39.71-.13.21,0-.21.16-.21C20.21,43.64,20.21,43.71,20.21,43.78Zm-.3.26c0,.05,0,.11,0,.16l0,0c0-.08,0-.16,0-.24l.06-.06Zm-.1-.2c0-.18-.05-.35-.09-.53,0,.16.1.32.14.48Zm-.12.33v0h0Zm-.27.07,0,0c-.1-.16-.2-.32-.31-.48l.11-.12C19.27,43.86,19.35,44.05,19.42,44.24Zm-.22,0a0,0,0,0,0,0,0c0,.08,0,.15,0,.23l-.14.15c-.09-.16-.19-.32-.3-.48L19,43.9Zm-.32.59L18.7,45v-.07a0,0,0,0,0,0,0l-.13-.35s0,0,0,0,0-.1,0-.15h0l0,0Q18.74,44.56,18.87,44.82Zm-.44.27h0l0-.07h0Zm-.68.31,0,0,0-.06S17.76,45.36,17.75,45.39Zm0,.07c0,.09-.05.18-.08.26l0,.07c0-.1,0-.19,0-.29l.1-.12Zm-.17-.19,0-.15.06.1Zm-.77-1c0-.15,0-.3,0-.45l.09.14C16.85,44.12,16.83,44.22,16.8,44.33Zm-.07,1.5-.27-.4a3.81,3.81,0,0,0,.32-.68C16.77,45.11,16.76,45.47,16.73,45.82Zm0,.19v.06l-.11.13-.25-.38,0-.2.06-.09Zm-.41-.55v-.07l0,0Zm-1-1-.35-.4c0-.14,0-.28,0-.43l.52.67Zm0,0-.43.36a5.74,5.74,0,0,0,.1-.75Zm.05.06c.29.36.55.73.81,1.11a4.65,4.65,0,0,1-.41.5q-.38-.43-.79-.84l.06,0a.08.08,0,0,0-.08-.14l-.1,0-.05-.05,0-.16Zm-.76.53h0Zm-1.31-.41L12.81,44h0l.51.66Zm-1.92-.17-.1-.1c.25-.17.49-.36.73-.55l.2.3C11.95,44.26,11.67,44.38,11.39,44.48Zm-.1-.11c-.37-.4-.72-.81-1.06-1.18q.54-.21,1.07-.44c.23.36.46.71.71,1.07Zm-.07.05h0l.08.08-.17.05,0,0,.13-.1-.14.09-.24-.27,0,0h0c-.27-.3-.55-.6-.8-.92l.15-.06C10.48,43.6,10.83,44,11.21,44.43Zm-.22.14-.05,0c-.36-.41-.72-.84-1.08-1.28l0,0Q10.42,44,11,44.57Zm-.08.05,0,0-.28.09a7.8,7.8,0,0,1-.72-1.37C10.22,43.8,10.56,44.22,10.91,44.63Zm-.23.17.3-.09.08.09-.31.15-.1-.13Zm0,.19-.23.11L10.37,45l.21-.13Zm-.25.12-.41.19s0,0,0,0l-.06-.09.42-.23Zm-.08,1-.29.1c-.22-.22-.44-.45-.65-.69l.46-.21Zm-.72.25h0a0,0,0,0,0,0,.06h0c.12.2.24.41.38.6l-.15,0a9.06,9.06,0,0,1-1-1.46,5.34,5.34,0,0,0,.49.49,0,0,0,0,0,.05,0ZM9.5,47a3.7,3.7,0,0,1-.37-.48Zm.39.49.12.14c-.13-.12-.26-.23-.39-.35h0Zm-.25.28-.09,0c-.1-.12-.18-.26-.27-.38l.15,0C9.52,47.41,9.59,47.56,9.65,47.72Zm-.59-.31L9,47.35H9ZM8.45,47l-.16-.12-.22-.37.13.12.07.09ZM8,46.41,8,46.32l.07.09Zm-.6-.47-.17-.25,0-.11C7.3,45.7,7.35,45.83,7.42,45.94Zm.17.58-.09-.1-.05-.12Zm.1.15c.18.26.38.51.57.77a4.39,4.39,0,0,1-.7-.9Zm.48.88,0,.06a5.27,5.27,0,0,1-.43-.41l-.16-.28.32.35Zm-.2.59,0,.09-.08-.08L7.85,48ZM6.92,46.94l0-.05q.16.27.34.54l-.12-.14Zm.37.81h0v0Zm.12,0-.12-.21.14.18ZM22.1,40.68l.15.41,0,0a5.33,5.33,0,0,0-.25-.62Zm.08.47s0,0,0,0a8,8,0,0,1,.33.88l0,.16c0,.09,0,.19,0,.28a8.37,8.37,0,0,0-.38-1s0,0,0,0S22.19,41.22,22.17,41.14Zm.33,1.79c0,.07,0,.15,0,.22,0-.12,0-.24-.07-.36ZM21,40.54l0,0,0-.05V40.4Zm-.21-.08v0h0v0Zm-.2,1.19c0,.09.06.18.09.27l-.1-.25Zm.11,1-.19.25h0c0-.27,0-.53,0-.8C20.6,42.33,20.67,42.51,20.72,42.69Zm-.51.07-.06-.09V42.6l.06.12Zm.05.33,0,.11v0l0,0-.05-.07c0-.08,0-.17,0-.25Zm-.25.51,0-.12c0-.14,0-.28,0-.43l.23.31Zm-.3-.86-.1.12c0-.15-.09-.29-.13-.44l.22.28Zm0,.24c0,.25.09.5.13.75l0,0c-.06-.22-.13-.44-.2-.66h0Zm0,.93-.09.1c0-.23-.07-.45-.11-.67,0,0,0,0,0,0l.11-.13C19.65,43.44,19.69,43.68,19.72,43.93Zm-.26-.56c0,.19.06.39.09.58l-.25-.4Zm-.57.38-.25.28-.17-.25s0-.07,0-.1l.22-.24Zm-.45-.18,0-.13c0-.13,0-.27,0-.4l.23.33Zm-.08.8v0l0,.09s0,.07,0,.11h0l0,.11,0,0-.06-.1C18.33,44.51,18.35,44.44,18.36,44.37Zm-.23.65,0,0a6.1,6.1,0,0,1-.31-.66l.35.48S18.14,45,18.13,45Zm-.44-.77a4.76,4.76,0,0,0,.24.59,0,0,0,0,0-.08,0c0,.1,0,.21-.05.31a.08.08,0,0,0-.12,0l0,0-.1-.17,0-.12c0-.06,0-.11,0-.17h0a9,9,0,0,0-.19-.89l0-.18Zm-.74-1.17h0Zm0,.1a4.85,4.85,0,0,1-.07.85l-.09-.14c0-.13,0-.26,0-.4h0c0,.13,0,.25,0,.38l0,0,0,0c0,.18,0,.37,0,.55l0,.15c-.17-.26-.33-.52-.5-.77,0,0,0,0,0,0,.18.26.34.54.5.81a3.88,3.88,0,0,1-.32.72l-.13-.2c-.06-.39-.13-.78-.22-1.17.16-.15.31-.31.47-.47h0l.4-.4Zm-.48.28-.62-.85a5.45,5.45,0,0,0,.33-.59c.22.35.46.7.69,1Zm-.51.49-.36.31-.54-.68a6.17,6.17,0,0,0,.61-.72Q15.83,43.39,16,43.94Zm-1.08,0-.1-.12.12-.1C14.89,43.79,14.89,43.87,14.88,43.94Zm-.11-.11.11.13a6,6,0,0,1-.17,1l0,0-.1-.1s0,0,0,0l-.53-.5A8,8,0,0,0,14.77,43.83Zm-.95.46-.39.28-.48-.66.42-.23.38.46-.3-.28s-.06,0,0,0Zm-1.09-.42-.08-.11.08.11Zm-1.45-1.14q-.53.24-1.07.45c-.23-.26-.45-.49-.66-.68l0-.06c.43-.13.87-.28,1.31-.44C11,42.24,11.13,42.49,11.28,42.73Zm-1.84-.27s0,0,0,0l0,0v0l-.06-.08Zm.16.19c.17.16.34.35.53.56l-.15.06c-.12-.15-.22-.31-.33-.46Zm.29.65,0,0-.08-.2Zm.67,1.56-.21.13L10,44.54s0,0,0,0l.32.45c-.14.08-.29.14-.43.22q-.26-.44-.5-.9s0,0,0,0c.09.18.19.36.29.54q-.37-.62-.73-1.24l.81-.25A7.58,7.58,0,0,0,10.56,44.85ZM8.77,46.36c.16.2.32.38.49.57l.12.21-.17,0a12,12,0,0,1-.68-1.12Zm.23.87H9L8.75,47a4.92,4.92,0,0,1-.4-1A12.19,12.19,0,0,0,9,47.23Zm-.12,0h0l0,0Zm0,0h0l-.18-.21L8.58,47l.19.18ZM7.24,46c0,.09.07.18.11.27l-.1-.12c0-.12-.1-.23-.13-.36Zm.15.39a3.89,3.89,0,0,0,.31.58L7.5,46.7c-.08-.15-.15-.3-.21-.46Zm0,.16a6.85,6.85,0,0,1-.44-.64l-.06-.18.36.45C7.25,46.27,7.3,46.39,7.35,46.52Zm-1.21-2,0,.07-.06-.1h0Zm1.2,2.45.08.15h0l-.11-.2Zm.14.5c0,.07,0,.15,0,.22a6.8,6.8,0,0,1-.65-1l0,0a4.44,4.44,0,0,0,.54.64Zm-.95-1.32v0l0,.07-.15-.35ZM4.72,42l0-.2,0-.14C4.67,41.77,4.69,41.88,4.72,42Zm3,6.46-.06-.06,0,0Zm14.73-5.91-.12-.24c0-.16-.08-.31-.12-.47C22.32,42.06,22.4,42.3,22.47,42.54Zm-.61-1.3a11.36,11.36,0,0,0-.54-1.16s-.06,0,0,0,.06.14.1.22l-.11-.21V40s0,0,0-.06l-.08-.19a11.21,11.21,0,0,1,.59,1C21.82,41,21.83,41.1,21.87,41.24Zm-1.13-1.55c0,.11.09.22.13.34s0,0,0,0l-.19-.33,0-.2Zm.13.51s0,.05,0,.08l-.1-.17,0-.21Zm-.07.4s0,.06,0,.09l-.21-.47.2.2Zm0,.69h0Zm-.27-.19,0,0-.18-.25v0Zm0,.32,0,0-.08-.19Zm-.18,1.21-.05-.1,0-.22.15-.25Zm-.23-.07v.09l-.06-.08,0,0Zm0,.37c0,.09,0,.17,0,.26l-.25-.32v-.09l.07-.09Zm-.34-.51v.19l-.06-.27Zm-.18-.27s0,0,0,0l.07.34-.17-.2.12-.19Zm-.17.13,0,0c-.07-.23-.13-.46-.21-.68l.38.53Zm.08.68-.34.42L19,43c.13-.16.26-.32.38-.49C19.45,42.66,19.51,42.81,19.55,43Zm-.86.32-.3-.39q0-.31-.05-.63.28.39.54.79Zm-.52-.74,0-.08q-.11-.4-.25-.79l.19.25C18.12,42.14,18.15,42.34,18.18,42.55Zm0,1.87L18,44.14l.21-.23C18.24,44.08,18.23,44.25,18.22,44.42Zm-.29-.24h0l.26.43v.09c-.32-.43-.64-.85-1-1.28L17.1,43h0l.08.33c0-.12-.08-.23-.13-.34l.06-.06Q17.53,43.53,17.93,44.18ZM17,42.9s0-.07,0-.11l0,.07Zm-.19-.49a16.28,16.28,0,0,0-1-2c0-.08,0-.15,0-.23l.49-.55a24.61,24.61,0,0,1,.58,2.87Zm-1.08-2.13h0Zm0,.14a5.43,5.43,0,0,1-.24,1.7,0,0,0,0,0,.05,0,5.42,5.42,0,0,0,.26-1.59,16.34,16.34,0,0,1,.79,1.58l-.43-.58s-.06,0,0,0l.59.83c.07.17.12.35.18.52s0,0,0,.07l0,0q-.37-.5-.72-1c0-.06.07-.12.1-.18a.06.06,0,0,0-.1-.06l-.08.12,0-.06a0,0,0,0,0,0,0l0,.07c-.12.19-.24.36-.37.54l-.21-.28q-.19-.58-.43-1.16l.62-.67Zm-.39,1.53c-.16-.23-.32-.46-.47-.69,0,0-.06,0,0,0,.18.29.37.56.57.83s.11.33.16.5a8.34,8.34,0,0,1-.6.67c0-.12,0-.24,0-.36l.07.11s.07,0,0,0L15,42.8q0-.17,0-.33l.12-.09c.06,0,0-.14-.09-.09l0,0c0-.33-.1-.67-.17-1L15,41C15.16,41.33,15.28,41.64,15.38,41.94Zm-.54.43-.1.08-.45-.67.41-.41C14.76,41.71,14.81,42,14.85,42.38Zm0,.14v.12l-.06-.09Zm0,.25c0,.2,0,.4,0,.6l-.46-.54.32-.24Zm0,.67a9.24,9.24,0,0,1-1,.8l-.49-.58a9.58,9.58,0,0,0,1-.67s0-.07,0-.09h0Zm-1.58.08,0,0s0,0,0,0l0,0-.39.26-.28-.39c.43-.37.85-.76,1.26-1.16.16.18.31.37.47.55Q13.79,43.17,13.26,43.52Zm-2-1.91,0,0h0l0,0Zm-.12-.2L11,41h0l.2.38ZM10.92,41l-.07-.13h0l.07.13Zm-.11-.26h0Zm.16.06.31-.21.1.19-.33.16Zm.18-.44-.32.15-.07-.15.33-.12Zm-.42-.07-.19-.41.29-.11.22.4Zm-.22-.49-.11-.25.27-.11.13.25Zm-.07,0-.12,0-.13-.28.15,0Zm-.08.12.11,0,.17.41-.07,0Zm.31.45.06.15,0,0-.08-.15Zm-.54.36a4.69,4.69,0,0,1-1.06.19.06.06,0,0,0,0,.12,3.9,3.9,0,0,0,1.15-.14l.06.11a4.71,4.71,0,0,1-1.08.42s0,.07,0,.06a5.12,5.12,0,0,0,1.12-.38l.06.11-.65.29s0,0,0,0l.67-.26.23.41c-.4.18-.81.35-1.25.5a0,0,0,0,0,0,0c.43-.12.88-.25,1.31-.42l0,.06q-.61.28-1.26.52s-.09,0-.07,0l0,0A15.14,15.14,0,0,1,8.5,41,15.75,15.75,0,0,0,10,40.57ZM9.3,42.46l-.18.07a0,0,0,0,0,0,0l.19-.06.25.35c.06.17.12.34.18.5l-.82.25c-.23-.4-.45-.81-.65-1.22l.31-.05a0,0,0,0,0,0,0l-.32.05c-.2-.41-.39-.82-.56-1.25l.7-.12A15.09,15.09,0,0,0,9.3,42.46Zm-1.09-.1L8,42.4q-.22-.63-.41-1.27l.11,0C7.82,41.53,8,41.95,8.21,42.36Zm-.67-1.26-.09-.27a0,0,0,0,0-.06,0l.08.27-.55.07s0-.05,0-.08-.09-.05-.08,0,0,.06,0,.09l-.23,0c-.08-.24-.15-.48-.21-.73s-.15-.64-.21-1l.91-.32a11.37,11.37,0,0,0,.54,1.87Zm-.69.12a8.18,8.18,0,0,0,.26,1.28h0c-.17-.41-.33-.82-.47-1.25Zm.27,1.32v0Zm.4,1.29s0,.05,0,.08l-.19-.44c0-.05-.11,0-.09,0l.33.8a3.25,3.25,0,0,0,.4.95c.12.26.24.52.37.78,0,0,0,0,0,0a4.87,4.87,0,0,0,.37,1l-.25-.23a16.3,16.3,0,0,1-2-4.05c.45,1,.9,2,1.43,2.91,0,0,.07,0,0,0-.54-1-1-2-1.5-3l.47,0A13.94,13.94,0,0,0,7.52,43.83ZM6.81,45.2l-.33-.57-.25-.75A12.78,12.78,0,0,0,6.81,45.2Zm.27.53s0,0,0,0,.07.19.1.28c-.13-.15-.25-.31-.36-.47l-.21-.61C6.75,45.21,6.92,45.47,7.09,45.73Zm-.81-1.26-.18-.35L6,43.82l.21.39Zm-.45-.67.28.66q-.2-.38-.37-.77s0,0,0,0a9.58,9.58,0,0,0,.55,1.08A8.76,8.76,0,0,0,7.1,46.6c0,.11.07.22.11.32a5.83,5.83,0,0,1-.65-1c0-.08-.06-.16-.08-.25s0,0,0,0-.05-.16-.07-.24,0,0,0,0c-.13-.3-.25-.6-.36-.9,0-.05-.1,0-.08,0a10.73,10.73,0,0,0,.49,1.26c.07.16.14.33.21.49l0,.14c-.15-.29-.29-.59-.43-.88,0,0,0,0,0,0l-.06-.11c-.1-.21-.21-.42-.3-.64l-.32-.93c.08.17.14.34.24.5s.09,0,.07,0a10.92,10.92,0,0,1-.65-1.74h.1Q5.52,43.19,5.83,43.8ZM7.6,48.26s0,0,0,0l-.13-.21Zm.37.53.26.36c-.14-.17-.28-.34-.4-.51Zm.62.78h0Zm-.26-.44a0,0,0,0,0,0,0L8.19,49a0,0,0,0,0,0,0,6.16,6.16,0,0,0,.54.59L9,49.9H9A5.82,5.82,0,0,1,8.33,49.13Zm2.22,2.26h0ZM20.87,38.25l-.2-.3Zm-.22,1.45-.38-.63a0,0,0,0,0,0,0q.23.39.45.78l0,.21A9.47,9.47,0,0,0,20,39l-.32-.64a8.25,8.25,0,0,1,1,1.18Zm.08.59-.19-.17h0l-.4-.81A9.64,9.64,0,0,1,20.74,40.29Zm-.06.73,0,.06a16.47,16.47,0,0,0-2.42-3.7,8.85,8.85,0,0,1,1.43,1.35C20,39.51,20.38,40.26,20.67,41Zm-.37-.16-.22-.3L20,40.3l.36.54Zm.07.85c-.06.12-.12.24-.19.36,0-.19-.09-.38-.15-.57h0l.15-.3C20.25,41.37,20.31,41.55,20.38,41.72Zm-.25.45,0,0,0,0c0-.16-.08-.33-.12-.49l0-.08C20,41.79,20.08,42,20.12,42.17Zm-.08,0-.2-.31.09-.14C20,41.84,20,42,20,42.13Zm0,.22,0,.06L19.7,42l.06-.1ZM19.66,42,19,41.18c-.14-.34-.29-.68-.46-1,.4.57.78,1.14,1.13,1.72Zm-.88-1.18c-.21-.28-.4-.57-.58-.85a0,0,0,0,0,0,0c.24.39.5.78.76,1.16s.24.59.34.89l-.52-.62s-.05,0,0,0l.61.77.06.2c-.12.17-.25.33-.39.5l-.29-.64s-.09,0-.08,0l.23.54q-.26-.38-.54-.74c-.14-1.09-.4-2.17-.6-3.25A14.61,14.61,0,0,1,18.78,40.82Zm-1.2.34h0c0-.09-.09-.19-.14-.28s-.06,0-.07,0l-.43-.53s0,0,0,0l.52.66A9.46,9.46,0,0,1,18,42.43l-.45-.52s0,0,0,0c.18.22.35.44.52.66s.14.51.2.78c0,0,0,.08,0,.12-.2-.27-.4-.54-.58-.81a0,0,0,0,0-.07,0c.2.37.42.72.64,1.06h0l-.26.28c-.27-.41-.55-.82-.83-1.22h0s0-.06,0,0h0L17,42.65a23.46,23.46,0,0,0-.63-3.08l.22-.26A14.9,14.9,0,0,1,17.58,41.16Zm-1.82-1,0,0v0a0,0,0,0,0-.06,0l0,0-.61.67c-.17-.43-.36-.86-.56-1.28q.54-.4,1-.84A8.09,8.09,0,0,1,15.76,40.18ZM15,41l-.28.31c-.1-.53-.22-1.05-.34-1.56l.06,0C14.67,40.13,14.85,40.56,15,41Zm-.33.36-.41.42c-.3-.44-.61-.88-.93-1.31q.52-.33,1-.69C14.49,40.3,14.6,40.83,14.7,41.36Zm-.46.47-.26.26.26-.25.45.66-.33.25-.49-.55.11-.11-.11.1-.05-.06s-.07,0,0,0l.05.06c-.32.3-.64.6-1,.88l-.3.25c-.21-.3-.4-.6-.6-.91l.93-.48a0,0,0,1,0,0,0l-.93.48c-.15-.24-.29-.47-.43-.71a5.74,5.74,0,0,0,1.56-1s0-.06,0-.08l.24-.14C13.61,40.95,13.92,41.39,14.24,41.83ZM13,40.65h0c-.52.34-1,.63-1.58.9l0,0a4.49,4.49,0,0,0,1.66-1.31l.21.29Zm0-.55a7.34,7.34,0,0,1-1.67,1.25L11.1,41l.34-.14,0,.08c0,.05.11,0,.08,0l0-.07A10,10,0,0,0,12.94,40l0,.06Zm-1.51.59-.1-.2.29-.2a8.11,8.11,0,0,0,1-.66l.22.3A13.78,13.78,0,0,1,11.47,40.69Zm-.32-.61-.2-.4A7.46,7.46,0,0,0,12.19,39l.29.4A13.49,13.49,0,0,1,11.16,40.08Zm-.25-.48-.13-.25a5.41,5.41,0,0,0,1.16-.67l.19.26A8.36,8.36,0,0,1,10.91,39.6Zm-.2-.39L10.12,38c.33-.16.66-.32,1-.49q.38.56.77,1.12A12.81,12.81,0,0,1,10.71,39.2Zm-.12.06-.26.11-.09-.19s-.06,0,0,0,.06.13.08.19l-.15,0c-.2-.4-.39-.8-.57-1.2L10,38Q10.29,38.64,10.6,39.26Zm-1,.35a4.15,4.15,0,0,1-.91.09,0,0,0,0,0,0,.06,4.6,4.6,0,0,0,1-.06l.4.8q-.75.24-1.54.41A14.4,14.4,0,0,1,7.63,39c.47-.18.94-.37,1.4-.57C9.2,38.84,9.38,39.23,9.56,39.61ZM8.39,40.93l-.69.13a11.44,11.44,0,0,1-.55-1.88L7.57,39A14.41,14.41,0,0,0,8.39,40.93ZM7.14,39.15A9.22,9.22,0,0,1,7,37.91l.24-.11c.1.41.21.81.35,1.2Zm0,0-.9.33c-.07-.39-.12-.78-.16-1.17.31-.12.61-.26.91-.4A9.22,9.22,0,0,0,7.1,39.17Zm-1,.35L6,39.58s0,0,0,0l.15-.05c0,.33.08.65.14,1s.11.48.17.71l-.28,0s0,0,0,0l.29,0a10.32,10.32,0,0,0,.44,1.25l-.47,0-.07-.14c-.08-.29-.14-.58-.19-.88,0,0,0,0,0,0a23.9,23.9,0,0,1-.52-3L6,38.35C6,38.74,6.07,39.13,6.13,39.52ZM6.1,42a18.45,18.45,0,0,1-.69-2.44s0-.07,0-.11h0c0-.29-.06-.59-.07-.88l.15-.05A19.77,19.77,0,0,0,6.1,42Zm0,1.94-.25-.46-.05-.15a0,0,0,0,0,0,0l-.11-.2a0,0,0,0,0,0,0l-.2-.57h.29Q5.89,43.27,6.11,44Zm-1-1.44A12.77,12.77,0,0,1,4.83,41a8.48,8.48,0,0,0,.43,1.55ZM4.7,40.63l0,.15,0,.25c-.09-.45-.16-.9-.21-1.35s0-.63-.05-.95c0,0,0,0,0,0s0-.21,0-.32l0,.24h0c0,.54.08,1.09.13,1.63h0C4.66,40.4,4.68,40.51,4.7,40.63Zm-.23-2.19s0-.09,0-.14a0,0,0,0,0,0,0c0-.1,0-.2,0-.29h0c0-.1,0-.2,0-.3s0,.07,0,.1C4.46,38,4.46,38.21,4.46,38.44Zm2.65,9.27v0l-.06-.07Zm1.61,2,.22.24-.24-.19A0,0,0,0,0,8.72,49.74Zm12.45-11.4s0,0,0,0Zm-2.6-2.89-.06,0h0Zm.68,1a3.25,3.25,0,0,0-.36-.13,0,0,0,0,0,0,0,3.36,3.36,0,0,1,.47.19A14.07,14.07,0,0,1,20.5,38c.21.4.44.78.67,1.17-.17-.18-.34-.34-.53-.5a12.5,12.5,0,0,0-2.35-2.92l.14-.21Q18.87,36,19.27,36.42Zm.83,1.79c-.46-.5-.95-1-1.45-1.43,0,0,0,0,0,0q.42.39.81.8s0,0,0,0c.21.25.4.5.59.76s.27.42.39.63a8.68,8.68,0,0,0-.87-.9l-.1-.2c0-.06-.09,0-.1,0a11.2,11.2,0,0,0-.9-.7s0,0,0,0a11,11,0,0,1,1,.8l.19.43a8.81,8.81,0,0,0-1.33-1.2s0,0,0,0L18,37.13s0,0,0,0a16,16,0,0,1,2.14,3.24l-.42-.54c-.17-.34-.35-.68-.51-1,0-.05-.1,0-.08,0l.25.56-.6-.69s-.05,0,0,0c.27.31.52.63.76.94l.18.41a12,12,0,0,0-1.32-1.3s-.09,0-.05.05a12.23,12.23,0,0,1,1.53,1.62l.29.66-.17.32a0,0,0,0,0,0,0h0l0,.08c0-.09,0-.17-.08-.26h0c0,.09.05.18.08.27l-.1.15c-.43-.66-.9-1.29-1.36-1.92a0,0,0,0,0,0,0c-.22-.4-.46-.8-.73-1.19,0-.1,0-.2-.06-.3a0,0,0,0,0,0,0c0,.06,0,.13,0,.19l-.19-.27v0c-.17-.24-.34-.48-.53-.71a15.55,15.55,0,0,0,1.34-1.68A14.63,14.63,0,0,1,20.09,38.21Zm-2.76.1-.42.51-.52-.77.44-.44C17,37.84,17.16,38.08,17.33,38.31Zm-.5.6-.2.24c-.17-.27-.35-.55-.53-.82l.19-.19Zm-.77-.64c-.72-1.06-1.5-2.1-2.22-3.22a31.83,31.83,0,0,1,2.4,3Zm-5-.86c-.32.17-.65.33-1,.49l-.67-1.42c.25-.17.49-.36.73-.55C10.44,36.44,10.75,36.93,11.07,37.41ZM10,38l-.43.21c-.2-.46-.4-.92-.59-1.39l.37-.24Zm-1,.43c-.46.2-.92.4-1.39.58-.14-.39-.25-.8-.36-1.21.41-.21.82-.43,1.21-.67C8.64,37.54,8.82,38,9,38.41ZM5.16,33.79a15.69,15.69,0,0,0-.1,2,12.81,12.81,0,0,0,0,2.85l-.12,0a18.59,18.59,0,0,1,.07-5s0,0,0,0a14.74,14.74,0,0,0-.18,5.06l-.2.07s0,0,0,0l.19-.07a10.13,10.13,0,0,0,.21,1,0,0,0,0,0,.08,0c-.08-.35-.12-.69-.16-1l.12,0q.06.5.16,1c0,.65.11,1.31.2,2,0,0,0,0,.08,0q.08.45.19.9H5.42a9.8,9.8,0,0,1-.59-3.2,0,0,0,0,0,0,0,9.62,9.62,0,0,0,.51,3.12,8.8,8.8,0,0,1-.54-2s0,0,0,0q-.06-.53-.11-1.07c0,.07,0,.14,0,.21s0,0,0,0c-.08-.62-.15-1.23-.19-1.84,0-.43,0-.87,0-1.3,0,0,0,0,0,0q0-.23.05-.46a6.14,6.14,0,0,1,.11-.63,0,0,0,0,0,0,0c0,.09,0,.18-.05.28s0,0,0,0l.07-.46s0,0,0,0c0-.32.09-.64.14-1h0c0-.31.09-.61.15-.92s.13-.51.19-.76h.2C5.32,32.91,5.22,33.35,5.16,33.79Zm-.09-1.3v0h0Zm.68-4.66-.23-.44.24.44Zm0,1.49v0c0-.05,0-.11,0-.16S5.75,29.29,5.75,29.33Zm-.11-.92a3,3,0,0,0-.16-.51l.12,0,0,.07s.05,0,0,0l0,0h0l0,.06a2.21,2.21,0,0,1,.15.4l-.2,0Zm.24-.1,0,.07h0Zm-.28-.49v0Zm-.18-.32.13.31-.13-.05-.05-.12-.15-.35H5.3Zm.31,2v0h0Zm.07-.24a3,3,0,0,0,0-.34H6c0,.21,0,.42,0,.64l-.21,0A2.68,2.68,0,0,0,5.8,29.23Zm0-.36c0-.07,0-.14,0-.21s0,0,0,0,0,.14,0,.21h0a0,0,0,0,0,0,0h0c0,.07,0,.14,0,.21,0-.14,0-.29-.05-.43s0,0,0,0,0,.09,0,.14l0-.07s0,0,0-.07a.16.16,0,0,0,0-.06s0,0,0,0l0,0s0,0,0,0h.2a3.14,3.14,0,0,1,.07.36ZM6,28.5H6l0,.06s.09,0,.07,0l0,0h0l.19.31a.77.77,0,0,1-.26.08A3,3,0,0,0,6,28.5ZM6,28.36l-.22-.43h0l.24.42Zm-.12-.44a1.41,1.41,0,0,0,.39-.11h0l.22.41a1.84,1.84,0,0,1-.37.12Zm-.05-.09c-.11-.19-.23-.37-.34-.56A2.2,2.2,0,0,0,6,27.16l.31.59A1.72,1.72,0,0,1,5.84,27.83Zm-.58-.62H5.19c-.07-.16-.13-.32-.2-.48s-.06,0-.05,0l-.23-.47s0,0,0,0l-.2-.41-.13-.3h0C4.66,26.12,5,26.67,5.26,27.21Zm2,20.84.07.11L7.26,48Zm2.18,2.56.14.18h0l.12.15c-.2-.18-.39-.37-.58-.56ZM22,39.9a17.21,17.21,0,0,0-.81-1.63,0,0,0,0,0-.06,0h0a10.07,10.07,0,0,0-.63-.87v0a6.27,6.27,0,0,1,.61.71c.13.2.26.41.38.62C21.66,39.08,21.84,39.48,22,39.9Zm-1.19-2.39a5.17,5.17,0,0,0-.57-.51q-.37-.57-.73-1.15c.21.2.4.41.59.63S20.6,37.15,20.82,37.51ZM17.44,34a6.53,6.53,0,0,0-1.61-.87s0,0,0,0a6,6,0,0,1,.87.43l-.16-.08c-.05,0-.09,0,0,.08.48.27.94.56,1.39.87q.37.31.73.65l-.11.17c-.19-.21-.36-.43-.56-.64h0c.19.21.36.43.55.65v0L18,34.93s0,0,0,0c-.23-.19-.46-.39-.71-.57,0,0-.08,0,0,.06.43.34.83.7,1.21,1.07l-.14.21c-.31-.28-.62-.55-1-.8,0,0-.09,0-.05.07a12.25,12.25,0,0,1,.92.85,17.28,17.28,0,0,1-1.34,1.67,21.75,21.75,0,0,0-1.93-2.09,0,0,0,1,0,0,0,22,22,0,0,1,1.91,2.11l-.43.44a23.26,23.26,0,0,0-3.67-4.3c.28-.29.56-.58.83-.88,0,0,0-.07,0,0l-.86.86a12.86,12.86,0,0,0-2.69-1.85s-.06,0,0,0a14.43,14.43,0,0,1,2.62,1.9,29.14,29.14,0,0,1-2.36,2.07c-.23-.39-.45-.79-.66-1.2,0,0,0,0,0,0,.2.42.41.82.64,1.22-.24.19-.47.37-.72.55-.27-.56-.54-1.11-.83-1.66,0,0-.08,0-.07,0l.78,1.7-.36.24a43.81,43.81,0,0,1-1.47-4.37,2.19,2.19,0,0,0,1.11-.67s0-.11-.07-.07a2.38,2.38,0,0,1-1.09.6c-.06-.22-.12-.45-.18-.67s-.05-.55-.09-.82,0-.58-.34-.62c-.54-.09-.2.7.06,1.07.07.38.13.75.21,1.12a8.46,8.46,0,0,1-1.54.08,3.76,3.76,0,0,0,.08-1,0,0,0,0,0-.06,0,5.29,5.29,0,0,1-.12,1H5.24c.05-.2.09-.4.15-.6a0,0,0,0,0,0,0c.12-.47.25-.94.36-1.41a0,0,0,0,0,0,0c-.17.68-.4,1.36-.59,2h0q.11-.67.22-1.34l.17-.72c.06-.2.13-.4.19-.6,0,0,0-.06,0-.09l0-.05h0a2,2,0,0,1,0,.34s0,0,0,0c-.13.35-.26.7-.38,1.06a0,0,0,0,0,.05,0c.14-.39.28-.77.41-1.16,0,0,0,0-.05,0h0a2.09,2.09,0,0,0,0-.25.69.69,0,0,0,.22,0v0c-.07.31-.14.63-.2.94,0,.06.08.09.09,0,.05-.24.1-.49.14-.74,0,0,.06,0,.06,0s0-.17,0-.25a1.39,1.39,0,0,0,.4-.14s0,0,0,0a.89.89,0,0,1-.38.13,3.89,3.89,0,0,0,0-.63.73.73,0,0,0,.28-.08c.06.09.11.19.18.28s.08,0,.06,0l-.17-.28.15-.11s0,0,0,0a.86.86,0,0,1-.15.09l-.17-.29a1.67,1.67,0,0,0,.35-.14l.19.36a.23.23,0,0,0,.3.11.28.28,0,0,0,.12.07c4.12,1.37,7.91,2.92,11.22,5.77C18.07,34.4,17.76,34.21,17.44,34Zm-13-8.57c-.12-.22-.22-.45-.33-.68l.17,0c.12.23.24.45.37.67Zm-.33-.7c-.11-.24-.21-.48-.3-.73l-.05-.3c.16.37.33.73.53,1.08ZM2.88,21.49c-.08-.23-.16-.46-.22-.69.11.22.2.44.29.66C2.92,21.44,2.88,21.46,2.88,21.49Zm.45,1.45,0,.11-.21-.55L3,22.05C3.12,22.35,3.23,22.65,3.33,22.95Zm8.55,29.64,0,0,0,0ZM1.3,4.81l.06-.17c0,.08-.05.16-.07.25Zm.33-1.07h0l-.05.1ZM4.37,3a1.49,1.49,0,0,0-.08-.3h0A1,1,0,0,1,4.4,3ZM2.81,2h0Zm-.4.38s0,0,0,.06l-.05.07h0Zm0,.55h0Zm0-.2.08,0-.09,0Zm.12-.41v0h0Zm0,.24h0ZM2.08,3h0L2.1,3h0Zm.23,0h0s0,0,0,0h0l0,0h0Zm.15,0h0v0h0Zm0-.37h0l0,0h0Zm.07-.12s0,0,0,0h0v0Zm.68-.68-.11-.06.13.06Zm.91-.41a.07.07,0,0,0-.08,0l-.22-.11a.89.89,0,0,1,.27,0,3.32,3.32,0,0,1,.35.3s0,0,0,0a1,1,0,0,1,.08.14l0,0A1.09,1.09,0,0,0,4.14,1.48Zm.35.15h0l0,0h0Zm-.42-.35L4,1.23H4l.19.09Zm-.34-.06h0Zm1.13.95h0l0,.07,0,0S4.87,2.18,4.87,2.18Zm-.4-1h0Zm.48,1.15v0l0,0Zm-.22-.77,0,0h0l-.06-.07ZM3.22,1.2h0Zm1.28.11h0ZM3.73,1h0ZM3,1.49H3ZM3.85,1h.06a1,1,0,0,1,.19.05h0l.07.06Zm-1,.54,0,0h0l0,0ZM3,1.44h.09l0,0Zm.26.12h0a0,0,0,0,0,0,0h0l.09-.07h0s0,0,0,0h0l.15.05h0l-.17-.06s0,0,0,0l.11,0H3.24Zm1.46.79h0v0s0,0,0,0l0,.06s0,0,0,0h0s0,0,0,0a1,1,0,0,0-.06-.1Zm-1.18-1h0ZM4.65,2.45l.06.21,0,0h0a1,1,0,0,0-.08-.21Zm-1-1.06h0a2.86,2.86,0,0,1,.34.2l0,0,.1.08,0,0,.12.13A2.29,2.29,0,0,0,3.67,1.39Zm.9,1.15h0a1,1,0,0,1,.08.28h0A1.33,1.33,0,0,0,4.57,2.54ZM3,1.83H3l0,0,.17.09H3.06l-.1,0H3S3.07,1.84,3,1.83Zm.53-.18a1.67,1.67,0,0,1,.25.18,2,2,0,0,0-.31-.17Zm.14,0h0l.19.12a2.7,2.7,0,0,1,.34.39,0,0,0,0,0,.08,0L4.3,2s0,0,0,0l-.06-.06L4.13,1.8a3.58,3.58,0,0,1,.35.34.5.5,0,0,1,0,.18s0,0,0,0l0,0h0l0,0h0l0,.06a1.4,1.4,0,0,0-.16-.2,0,0,0,1,0,0,0v0A1.67,1.67,0,0,0,3.72,1.67ZM4,2l-.1-.09Zm.61.89,0,0s0,0,0-.06Zm-2.45,0h0Zm.09.32-.07.15-.08,0,.11-.15Zm.29-.5h0Zm.29-.77h0s0,0,0,0l.06,0,.09,0H2.91a0,0,0,0,0,0,0h0Zm.52-.25h.05a2.51,2.51,0,0,1,.76.52h0a1.67,1.67,0,0,1,.17.32l-.09.06L4.2,2.5A1.23,1.23,0,0,0,3.36,1.68ZM2.3,2.56s0,0,0,0h0l-.13.17h0ZM1.9,3.62h0L2,3.43l.09,0L2,3.66H1.89Zm2.31-1V2.52h0l0,.08h0Zm-2.31.7L2,3.1l.06,0h0L2,3.3l-.09,0Zm.81-.6h0l.08,0,0,0Zm.69-.59h.08l0,0s0,0,0,0h.07A1.43,1.43,0,0,1,4,2.46a1.5,1.5,0,0,0-.34-.24Zm.92.6.08,0v0h0L4.51,3s0,0,0,0H4.45A1,1,0,0,0,4.33,2.69Zm-2.47.68.07,0-.15.22s0,0,0,0h0Zm1.05-.63h0Zm-.07-.28s0,0,0-.07L3,2.45,3,2.52Zm-.07-.3a.65.65,0,0,0,0-.1l.14.12Zm.12-.08H3a1.83,1.83,0,0,1,.46.27A1.41,1.41,0,0,0,3,2.15Zm.88.56-.05-.09Zm.46.17,0,.12a.92.92,0,0,0,0-.1S4.23,2.81,4.24,2.8ZM4.29,3h0Zm-3,1.43h0l0,.06Zm0-.09,0-.06,0,.06Zm.34-.64,0,0a7.6,7.6,0,0,0-.41.83V4.49C1.45,4.23,1.57,4,1.69,3.71Zm.08.18-.12.29h0Zm.07-.11.09,0-.15.26a0,0,0,0,0,0,.06l0,.09-.08,0Zm.48-.19.05,0-.08,0Zm.06-.09h.17s.06-.07,0-.08l-.12,0,0-.07a1.15,1.15,0,0,1,.23.18c.05.06.13,0,.08-.08a.81.81,0,0,0-.11-.11l0,0s.06-.09,0-.1l-.06,0,.07-.1a2.47,2.47,0,0,1,.27.18s.1,0,.07-.06a.83.83,0,0,0-.25-.24l.11,0h0l.25.21a0,0,0,0,0,.06-.06A1.39,1.39,0,0,0,3,2.89s.06,0,0-.05l-.1-.06h0l.11,0s0,0,0,0H3l.09,0A1.5,1.5,0,0,1,3.31,3c0,.06.14,0,.1-.06a1.12,1.12,0,0,0-.34-.35l0,0,.06-.08.2.1s0,0,0,0l.16.17s.11,0,.08-.06a2,2,0,0,0-.2-.25s0,0,0,0h0l-.18-.13L3,2.18a1.51,1.51,0,0,1,.74.67c0,.05.1,0,.09,0a1,1,0,0,1,.06.11C4,3,4,3,4,2.9A.69.69,0,0,0,4,2.68l.12.13A1.29,1.29,0,0,1,4.21,3h-.4l-.1,0a.14.14,0,0,0-.13,0h0a.11.11,0,0,0-.16,0,9.15,9.15,0,0,0-.6.81A1.13,1.13,0,0,0,2.38,3.49ZM1,5.18C1,5.36.9,5.54.86,5.73.91,5.55,1,5.36,1,5.18Zm-.18.59s0,0,0,0a8,8,0,0,1,.39-1.13l0,.1A9.26,9.26,0,0,0,.76,6.38a0,0,0,0,0,.06,0A9,9,0,0,0,.56,7.62s.06,0,.06,0c.16-.92.52-1.81.66-2.73a0,0,0,0,0,.08,0c.09-.25.19-.5.29-.74h0a9.78,9.78,0,0,0-.6,2.2s0,0,0,0a11.9,11.9,0,0,1,.58-2.18l.08.05,0,0q-.15.36-.28.72s0,0,0,0,0,.1-.05.15a0,0,0,0,0,.07,0L1.58,5l.12-.29-.15.38s.05.07.07,0c.18-.41.34-.84.51-1.25h0l.09-.13a1,1,0,0,0,.19,0s0,0,0,0a2.15,2.15,0,0,1,.3.26C.78,6.47.61,10.2,1.3,14.09A44.23,44.23,0,0,0,5.12,25.49h0l-.31,0-.36-.67a1.06,1.06,0,0,0,.23,0s0,0,0,0a.68.68,0,0,1-.23,0c-.2-.36-.38-.73-.56-1.11l.23,0c.06,0,.07-.09,0-.1l-.3-.07c-.06-.14-.12-.29-.18-.43s0-.21-.08-.31,0,0,0,0-.06-.16-.09-.24A5.2,5.2,0,0,0,3.26,22c-.26-.75-.45-1.52-.72-2.26,0,0-.09,0-.07,0,.14.5.28,1,.43,1.49-.08-.18-.16-.37-.25-.55h0a4.59,4.59,0,0,1-.12-.61s0,0,0,0a5.4,5.4,0,0,0,.26,1.17L2.65,21l-.12-.36a14.1,14.1,0,0,0-.39-1.86.05.05,0,0,0-.1,0c.06.31.12.63.19.94-.21-.66-.4-1.32-.58-2a0,0,0,0,0-.09,0c.08.32.18.64.26,1C.46,14.4-.31,9.79.85,5.77Zm.21-.21L.94,6Z"/><path class="cls-1" d="M17.19,44.48,17,44.2l.2.29Z"/><path class="cls-1" d="M16.73,43.82l-.22-.31Z"/><path class="cls-1" d="M11.52,37.75h0l.27-.21s0,0,0,0A.9.9,0,0,0,11.52,37.75Z"/><path class="cls-1" d="M1.65,17.49s.07,0,.06,0q.08.41.17.81l-.15-.53h0l.21.74,0,.13H2l0,.08a0,0,0,0,0,0,0l0-.06s.06,0,0,0c-.08-.49-.22-1-.32-1.45,0,0-.07,0-.07,0q-.13-.62-.26-1.24h0c0-.18-.07-.36-.11-.54-.07-.55-.16-1.1-.24-1.65,0,0-.06,0-.06,0l0,.18c0,.1,0,.19,0,.29a13.84,13.84,0,0,1-.16-1.7h0a10,10,0,0,0,.17,2s0,0,0,0C1.22,15.52,1.41,16.51,1.65,17.49Z"/><path class="cls-1" d="M2.36,18.8c-.35-1-.55-2.1-.83-3.14a0,0,0,0,0-.05,0,30.31,30.31,0,0,0,.81,3.15S2.37,18.84,2.36,18.8Z"/></svg>