<svg id="Layer_1" data-name="Layer 1" xmlns="http://www.w3.org/2000/svg" viewBox="0 0 35.08 65.44"><defs><style>.cls-1{fill:#fff;}.cls-2{fill:#231f20;}</style></defs><title>1</title><path class="cls-1" d="M22.12,65.44c-5.36,0-10.78-3.1-14.16-8.1-.37-.5-.68-1-1-1.41a9.93,9.93,0,0,1-1.33-2.52A11.1,11.1,0,0,1,5,51.71c0-.15-.09-.31-.12-.47s-.11-.4-.15-.61a20.33,20.33,0,0,1-.66-3.85A16.91,16.91,0,0,1,4,44.49a31.48,31.48,0,0,1,.35-4.93l.21-2A16.17,16.17,0,0,1,5,35.27l0-.19C2.67,30.25-3.12,16.71,2.14,6.51l.18-.36A7.37,7.37,0,0,1,4.55,2,6.57,6.57,0,0,1,8.11.15,6.93,6.93,0,0,1,9.54,0a6.81,6.81,0,0,1,.68,0,9.46,9.46,0,0,1,2.05.5h0a12.67,12.67,0,0,1,2.49,1.55h0a7.45,7.45,0,0,1,1.79,2.45,7.13,7.13,0,0,1-.47,6.84,7.24,7.24,0,0,1-3,2.64c-.63,2.86.2,7.23,2.39,12.34.47,1.08.93,2,1.34,2.84,5,1.78,12.93,5.24,16.28,13.13a26.3,26.3,0,0,1,1.55,5.06,10.4,10.4,0,0,1,.21,1.17C36,56,33.22,61.89,27.49,64.34a13.47,13.47,0,0,1-3.65,1,7.78,7.78,0,0,1-1.31.11Z"/><path class="cls-2" d="M29.21,49.3a4.9,4.9,0,0,0-.13-.7,20.68,20.68,0,0,0-1.23-4.07c-2.58-6.05-9-8.69-14.8-10.63a.82.82,0,0,1-.15-.11l-.19-.22a51.78,51.78,0,0,1-2.48-5c-2.57-6-4.46-13.44-1.65-18.72a8.15,8.15,0,0,1,.66-.93h.08a1.56,1.56,0,0,0,2.08-2,1.94,1.94,0,0,0-1.09-1,.06.06,0,0,0,0,0A.93.93,0,0,0,10,5.76s0,0,0,0l-.24,0,0,0a1.22,1.22,0,0,0-.45,0A1,1,0,0,0,8.53,6a1.64,1.64,0,0,0-.65,1.26.45.45,0,0,0,.08.5H8l-.09.15A5,5,0,0,0,7.22,9c-3.73,7.06,0,18.16,3.5,24.65.5,1.49-.38,3.1-.56,4.61a.08.08,0,0,0,0,.07c-.05.42-.1.83-.13,1.25a26.3,26.3,0,0,0-.41,4.93,11.2,11.2,0,0,0,.09,1.74,14.89,14.89,0,0,0,.53,3,5.25,5.25,0,0,0,.14.53c0,.08,0,.17.06.25A4,4,0,0,0,11,51.3l0,.08c-.06.41.63,1.29.78,1.54a13.24,13.24,0,0,0,.78,1.14c2.15,3.23,6,5.86,9.87,5.7a2.13,2.13,0,0,0,.53,0,7.84,7.84,0,0,0,2.27-.58C29.2,57.44,29.81,53.2,29.21,49.3ZM10.82,31.13q.38.8.76,1.53a3.33,3.33,0,0,1-.46.11c-.07-.1-.12-.21-.19-.31h0l-.31-.55c-.09-.18-.18-.36-.28-.54h0l-.1-.19a1,1,0,0,0,.22,0l.31.53a0,0,0,0,0,.06,0l-.27-.51a1.46,1.46,0,0,0,.28,0S10.81,31.14,10.82,31.13Zm3.46,24.25.13.11.28.2s0,0,0,0L15,56l.06.09-.34-.23ZM8.93,28.12c0-.12-.08-.25-.12-.37h0l-.17-.43A10.44,10.44,0,0,1,9.22,29l-.14-.4s0,0,0,0S9,28.27,8.93,28.12ZM14.11,42.6c-.39.25-.79.48-1.2.69,0-.08,0-.15-.07-.23a0,0,0,0,0-.05,0c0,.08.05.16.07.25l-.22.11s0-.06,0-.09,0,0,0,0,0,.07,0,.1c-.3.15-.6.29-.9.42-.2-1.86-.16-3.73-.36-5.6,0,0,0,0,0,0,.15,1.9.16,3.76.33,5.63l-.39.14a19.61,19.61,0,0,1-.11-2.61s-.06,0-.06,0a18.47,18.47,0,0,0,.06,2.65l-.15.05c-.06-1.06-.1-2.12-.13-3.18,0-.2,0-.4.07-.61,0,0,0-.05-.05,0-.06.3-.1.6-.13.9,0-.49,0-1,.08-1.47s.23-1.14.35-1.71A8.3,8.3,0,0,0,12.76,38,32.74,32.74,0,0,0,14.11,42.6Zm4.13-3.22q.51.47,1,1c.76,1.25,1.63,2.41,2.42,3.59l-.38.34c0-.2-.1-.4-.16-.6a0,0,0,0,0-.06,0c.06.21.11.43.16.64q-.51.45-1,.87v0s-.07,0-.05,0l0,0-.06,0c-.07-.29-.13-.58-.19-.86,0,0,0,0,0,0l.19.88q-.49.37-1,.71l-.32-.45a5.85,5.85,0,0,0,.93-.77s0-.12-.07-.07a8.82,8.82,0,0,1-.95.72l-.22-.3c.19-.15.37-.31.54-.47a12.22,12.22,0,0,0,2-1.59s0-.09-.06-.06a13,13,0,0,1-1.54,1.25l.13-.13c.07-.08,0-.2-.12-.12a9.45,9.45,0,0,1-.87.81l-.21.12-.29-.4a4.74,4.74,0,0,0,1-.85s0-.09-.06-.06a5.71,5.71,0,0,1-1,.82l-.19-.26h0s0-.12-.07-.09h0q-.4-.55-.78-1.11c.63-.34,1.26-.71,1.86-1.11,0,0,0-.07,0-.05-.6.41-1.23.77-1.86,1.12-.33-.48-.64-1-.94-1.47A23.37,23.37,0,0,0,18.24,39.38Zm6.13,1.32q.32.26.62.54l.45.77c-.08-.11-.16-.22-.24-.33s-.06,0,0,0,.24.35.36.52c-.36-.38-.75-.74-1.14-1.09l-.17-.2.11-.18.22.21a0,0,0,0,0,.06-.06ZM10.2,42.07c0,.1,0,.2,0,.3,0-.06,0-.12,0-.18Zm.57.31h0s0-.09,0-.14c0-.3,0-.61,0-.92q0,1.11,0,2.22C10.79,43.16,10.77,42.77,10.77,42.38Zm11.46,2.44-.2.24c-.06-.26-.12-.52-.16-.78,0,0-.07,0-.06,0,0,.27.11.55.17.82l-.48.56a7.84,7.84,0,0,0-.21-1.34l.4-.35C21.87,44.27,22.05,44.54,22.23,44.82Zm.38-.35L23,44l.24.34a28.59,28.59,0,0,0,.45,3.06L23.47,47a13.79,13.79,0,0,0-1.13-2.23l.2-.24.73,1.06s.09,0,.06,0Zm3-.68.41.49.25.46c-.18-.29-.38-.58-.6-.85Zm.8.74a7.38,7.38,0,0,1,.64.7c.09.19.18.38.26.58h0c0,.06,0,.12,0,.18a11.52,11.52,0,0,0-.77-1.15Zm-15,4.55,0,.11h0L11.4,49l0-.1Zm-.3-2.77v0a14.85,14.85,0,0,0,.65,1.85h-.26c-.13-.46-.24-.92-.33-1.39C11.2,46.59,11.18,46.45,11.16,46.31Zm6.37-.81q-.3.19-.61.35l-.06-.11q.43-.18.84-.38Zm9.39-1a10,10,0,0,1,.45.94l0-.06A11.35,11.35,0,0,0,26.65,44l.22.35ZM13.86,54.52l-.11-.12c-.13-.2-.27-.39-.4-.59a0,0,0,0,0,0,0l-.1-.19,0,.05A4,4,0,0,0,13.86,54.52Zm-1.5-1.91a0,0,0,0,0,0,0l0,0s0,0,0-.05.08.13.12.19.09,0,.07-.05-.12-.2-.18-.3l.11.15c.07.19.16.37.24.56L12.63,53Zm-.34-1-.22-.29L11.66,51l.07.13a.06.06,0,0,0,.08,0C11.88,51.34,11.94,51.49,12,51.64Zm.09-1.13L12,50.4h0Zm-.16-2.09c0,.06.14,0,.11,0l0-.09h0a13.84,13.84,0,0,0,1.48,3.33,17.26,17.26,0,0,1-1.08-1.72s-.07,0-.05,0c.23.43.48.84.75,1.24,0,0,0,0,0,.07l.11.24a11.06,11.06,0,0,1-.56-1c0-.06-.12,0-.09.05s.08.15.12.23,0,0,0,0l.17.23s0,.07,0,.1a4.19,4.19,0,0,1-.58-1.65c0-.07-.12-.07-.11,0a4.2,4.2,0,0,0,.1.56,16,16,0,0,1-.69-1.89h.27Zm1.3,1.19s0-.08,0-.12l.29.5a14.27,14.27,0,0,0,1,1.64,3.69,3.69,0,0,0,.7,1h0l0,0-.22-.24s0-.08-.06-.11,0,0,0,0v0a11.24,11.24,0,0,1-.73-.9C13.79,50.84,13.51,50.23,13.24,49.62ZM13.57,48a24.69,24.69,0,0,0,.92,2.35c-.17-.21-.34-.41-.49-.63,0,0-.05,0,0,0,.19.28.41.54.62.8s.19.38.29.57l-.09,0s0,0,0,0l.09,0c.07.14.14.28.21.41a5.36,5.36,0,0,1-.64-.64,9.4,9.4,0,0,1-.7-1.74,0,0,0,0,0-.06,0,8.2,8.2,0,0,0,.42,1.25,8.69,8.69,0,0,1-1-1.94s-.1,0-.08,0q.15.43.34.83l-.28-.56c-.09-.23-.16-.46-.23-.7Zm-.71,0a7.92,7.92,0,0,1-.26-1.28l.55-.06q.19.63.41,1.27Zm1.34,1.26.36-.11c.31.54.62,1.08.95,1.61l-.45.22-.34-.39A23.8,23.8,0,0,1,13.64,48l.25,0c.2.42.42.82.65,1.23l-.35.11S14.18,49.33,14.2,49.33Zm7.3-1.12.63.82-.45.43q-.13-.55-.29-1.1Zm-.19-.09-.09-.27.14.19Zm3.42.82.05.13-.14.16-.23-.3.18-.23Zm-14.06-.37h0l-.13-.46h0Zm-.19-.64,0,.15h0l0-.1Zm1.42,3.65.2.25c.08.16.18.31.26.47v0L12.12,52C12,51.88,12,51.73,11.91,51.59Zm.73.06,0,0a6.91,6.91,0,0,0,.49.7l.1.21a6.42,6.42,0,0,1-.55-.8Zm2.57,1.18.18.17-.17-.11s0,0,0,0l.37.26q.34.32.71.62s0,0,0,0h0l.07.05h-.12l0-.06a.07.07,0,0,0-.13.06H16l-.56-.4.22.08c.06,0,.08-.07,0-.09l-.37-.16c-.06-.16-.12-.31-.19-.46Zm-.14-.11-.06-.1.08.1ZM14.34,51s0,0,0,0L14,50.39c.11.16.22.31.34.46s.12.27.19.41l-.1-.16S14.35,51,14.34,51Zm.67.11c.21.23.42.46.64.68l-.28.1q-.22-.37-.42-.75Zm-.07,0-.1-.19.16.17Zm4.26-.62s.13,0,.09-.07l-.07-.09.43-.29.1.1.48.56-.59.43-.55-.71,0,0Zm2.44-.88c.07.33.14.66.2,1-.17-.24-.35-.48-.53-.72Zm.24,1.26,0,.26,0,.06c-.26-.37-.53-.74-.82-1.08l.18-.15C21.46,50.25,21.67,50.56,21.88,50.87Zm.74-1.15a4.67,4.67,0,0,0,.08-.83l.08.12a9.13,9.13,0,0,1,.28,1.36h0l-.2-.3c.07.11.12.22.19.33s-.12.29-.19.43c-.12-.2-.26-.39-.38-.59a4,4,0,0,0,.15-.53l0,.06Zm1.12,1a4.31,4.31,0,0,1-.23.42l0,0a4.65,4.65,0,0,0,.11-.67ZM13.29,52c.11.12.23.23.35.34l.12.21-.3-.29ZM16,53.5h0L16,53.42l.17.08a2,2,0,0,0,.33.31l-.14,0C16.25,53.69,16.15,53.59,16,53.5Zm.56-3.3.05,0,0,0-.06,0ZM22,51.39c0,.2,0,.39.06.59l-.22.15-.25-.29.17-.3.19-.23Zm0-.12h0ZM25,50.1l.13.21-.17.21c0-.11,0-.22,0-.32ZM24.93,50v-.07l0,0Zm-11.44,3.3.1.09s0,0,0,0l0,.06-.08-.1Zm.48.4h0a1.74,1.74,0,0,0,0,.22l-.1-.1c-.07-.12-.13-.25-.19-.37a.07.07,0,0,0,0,0Zm3.7,1.08.1.07-.13,0-.35-.29.38.25Zm-.31-1.41.19.18.14.14h-.05l-.16-.12s0,0,0,0l.14.11-.28,0-.17,0a4,4,0,0,1-.19-.41h0A1,1,0,0,1,17.37,53.36Zm.65.2c-.31-.18-.59-.39-.87-.6s-.28-.31-.4-.47l.66-.19.18.2-.12.08a0,0,0,0,0,0,0l.12-.08q.47.49,1,.94l-.26.08-.08-.08s-.1,0-.06.06l0,.05-.21.06a2.25,2.25,0,0,0-.56-.31l-.18-.2c.23.16.46.33.71.48C18,53.63,18,53.58,18,53.56Zm-1.1-.75-.34-.28.09,0Zm0-2.39.61.59-.11.06-.15-.15c-.12-.16-.23-.33-.35-.49Zm.28,3.87h0l.31.22.06.07Zm4.11-2.05,0,0,.1-.14.13.19-.43.25.06-.09.23-.12C21.44,52.3,21.39,52.21,21.33,52.24Zm-.77-1.31q.43.44.83.89h0l0,.05,0,.08c-.27-.35-.57-.69-.86-1Zm.94,1,.21.25-.1.06L21.45,52Zm.54.27c0,.08,0,.16,0,.23l-.13-.16,0,0Zm1-.85,0,0,.07.12c0,.07,0,.13,0,.2l0,0v0C23.08,51.57,23.06,51.46,23.05,51.36Zm2.66-.91v0l0-.06s0-.1,0-.14S25.71,50.39,25.71,50.45Zm2.89-1.84h0q.08.4.14.8l-.07-.18c-.05-.29-.11-.58-.18-.86,0,0,0-.09,0-.13h0C28.54,48.36,28.58,48.48,28.61,48.61ZM15.23,53.85l.17.24c-.18-.15-.36-.3-.53-.46h0s0,0,0,0Zm8.68-2.62c0,.07,0,.15,0,.22l-.18.21-.06-.14.09-.19Zm2.23-1.89h0v0Zm-8.86,4.58h.07l.3.14h-.1l-.26-.11Zm2.29-1.19.28.22-.49.22c-.36-.32-.7-.65-1-1a4.37,4.37,0,0,0,.56.17A6.64,6.64,0,0,0,19.57,52.73Zm-.47-.34.11,0,.14.13Zm-3.43,1.8.14.13h0l-.12-.1,0,0Zm1.77-.06.34.14s0,0,0,0h0c.27.1.54.18.81.26l.24.2a8.53,8.53,0,0,1-1.35-.43l-.13-.19Zm2.84-1,.09.06-.07,0-.07-.05Zm-.18-.07,0,0,0,0,0,0Zm-.63.91h.11l0,0-.22,0,0,0Zm4.33-2,.09.25c-.11.09-.22.19-.33.28h0l0,0s0,0,0,0l-.07-.14.11-.13,0,0a0,0,0,0,0,.05,0l0-.06.1-.11Zm3.76-2.76c0-.07,0-.15-.07-.22s0-.2,0-.29l0,.17C27.56,49,27.56,49.12,27.56,49.24ZM18.4,57.85h0Zm-.88-2.74h0l0,0A.06.06,0,0,0,17.52,55.11Zm1.92-1.59.19,0,.25.21-.31.06-.27-.17Zm-1.74,2,.07.05h0l0,0Zm6.65-3.24-.09.2c0-.07,0-.15,0-.22l.05,0ZM27,49.78h0v0S27,49.79,27,49.78Zm.59.1s0,.07,0,.1l-.07.3,0-.19c0-.12,0-.24.06-.36Zm-6.9,3.86.19-.05h0l-.17.06h0Zm4.95-1.81h0c-.06.14-.11.28-.18.41a.07.07,0,0,0-.06,0l0-.1Zm1.84-.21,0-.14c0-.1,0-.21.05-.31C27.47,51.42,27.46,51.57,27.45,51.72Zm1.06.69s0,0,0,0V52.3S28.52,52.37,28.52,52.41Zm-2.11.73c.07-.12.14-.23.2-.35l.09-.16a8,8,0,0,1-.38.74s0-.05,0-.08h0l0,0Zm-5.48,1.15a.09.09,0,0,0,0,0,.08.08,0,0,0,0,0l-.1,0ZM22,53.76h0l.05,0h0s0,.08,0,.11l0,0L22,53.77Zm.9.29,0,.06-.13.08,0-.1.12,0Zm0,.64.11-.08.1,0-.07.11-.09.06h0Zm.43,1.46-.11.12h0a1.59,1.59,0,0,0,.13-.16Zm1,1.16-.11,0,.06-.05h0l.15,0Zm.28-.25h0Zm1-.09-.1,0h0l0,0,.07,0,.14,0,0,0Zm.89-1h0Zm-.1.12-.12.12,0,0,.11-.11ZM25,55.46l.06-.07v0Zm1.13,1.24,0,0,0-.05h0Zm-3.84-1.78h0Zm-1.12,3.27h0Zm5.25-1.85h0l.08-.11h0l0,.06Zm-.25-.67h0c-.09.1-.19.18-.28.27h0v0l.14-.14Zm-3.87-.59h0Zm3.86.27.09-.1-.16.19Zm-3.54-1.2,0,.12-.11,0-.07-.07.08-.05Zm-.23.09h0Zm4.31.56-.07.11s0-.09.05-.13l0,0Zm-3.35-1-.31.2,0,0,.33-.18ZM22,55.15h0l-.15.07.11-.07Zm.08,0-.13.12-.06,0-.06,0Zm-.37-.08h.09l-.16.11-.12-.05Zm-.27.38.11-.07.17-.06.08,0-.15.08Zm6.89-2.79,0,0,0,.09Zm-6,1,0,0v0Zm-.2,0,.12,0-.12.15S22.12,53.75,22.12,53.71Zm-.78,1.52.16.07-.28.17-.32-.16C21.05,55.29,21.2,55.27,21.35,55.24Zm5.54-1.3,0-.11.07-.11-.07.17Zm-4.45-.34.09,0-.08.06Zm-1.37,1.9-.27-.07,0,0ZM27.15,53v0h0Zm-6.37,2.39,0,.06-.17,0,.18,0Zm.34.31.09,0,0,0-.11-.05Zm6.11-3s0,.09,0,.13l0,0c0-.06,0-.11,0-.17v-.07S27.22,52.61,27.22,52.64Zm-1.5-.92v0Zm-.1.28a.06.06,0,0,0,.06.05v0a.07.07,0,0,0,0,0c0,.16-.09.3-.13.45,0-.05,0-.1,0-.15a.08.08,0,0,0-.08-.08l.16-.37Zm-.86.73v0h0l-.13.12h0l.13-.17ZM22,53.5l.07-.06h0Zm-.54.58,0,0h0l-.27,0,.24-.17Zm-.84.23h0Zm.11.1.09,0-.07,0,0,0Zm-.21,2.85.24.06-.48-.07-.11,0Zm-1.32.27-.09,0h0Zm4.4-4.45,0,0v0Zm-1.16.17,0,0,0,0Zm-.15,0v0h0Zm-.11.07v0l-.08,0v0l0,0h0Zm-1.48.79.29-.19.08,0h.13l0,0-.54.33-.11,0a0,0,0,0,0,0-.06l-.09-.08.07,0A.08.08,0,0,0,20.71,54.14Zm-.12.14h0l-.17,0h0l.1-.05Zm0,1.35h0Zm.15,0h.06l.06,0-.11.06-.14-.07Zm-.74.42.17,0,.12,0-.08,0-.29-.12Zm-.14,1.06.17.07-.44-.06L19.37,57Zm5.72-5.2-.06.12h0v0h0Zm-1.81,1v0l0,0h0S23.72,52.94,23.72,53Zm-3.19,1.15h0Zm-.09.05-.1.06-.06,0,.14,0Zm.14.36h0l0,0Zm-.34,1.07.14.07-.12,0s0,0,0,0l.16,0,.18.09-.52-.09,0-.08c0-.07-.15,0-.14,0h0l-.13,0,.19-.06ZM19.2,57l.23.14h-.06L19.16,57Zm7-5.26h0v0Zm-.31.44c0-.1,0-.2,0-.3,0,.08,0,.15,0,.24Zm-2,.72a.08.08,0,0,0-.08,0c.05-.07.09-.14.14-.21s0,.15,0,.23ZM22.79,53l.08-.14,0,0s.05,0,0,0l0-.06.11-.1c0,.05,0,.11,0,.16ZM22.73,53l-.1.15-.07,0,0,0,.13-.11ZM20.29,54h0l-.18.05h0Zm-.4.12-.19.06h0l-.09-.06.22,0Zm.16.09.12.07h-.24a0,0,0,0,0,0,0h.23l-.15.09-.18-.12Zm.15.09.19.11-.21.1L20,54.43Zm-.1.25-.19.08-.18-.06h0l.21-.12Zm-.38,1.6a7.09,7.09,0,0,1-.76-.17l.5,0Zm-1.48.68-.12,0-.07,0s0,0,0,0Zm9.71-4.43c0,.06,0,.12-.06.19s0-.13,0-.19l0-.11.07-.21C28,52.22,28,52.33,27.94,52.43Zm-.32-1.65s0,0,0,0h0c0-.08,0-.15,0-.23l0-.25c0,.13,0,.26,0,.39ZM26.18,51c0,.15,0,.29-.07.44v0l0-.33Zm-.13.26,0-.05,0,0Zm0,.28,0,.14c0-.11,0-.21-.08-.32l0,0Zm-6.53,2.63.44.29-.21.12-.54-.38ZM20,55.35h0ZM18.5,56.82h0Zm9.53-5v.07l-.06.17h0l.07-.23Zm-.6-1.25v0ZM24.1,52.47l.08-.1c0,.07,0,.14,0,.21Zm-3,1.17-.09,0h0l.1,0Zm-2,.59.38.28-.29-.13L19,54.22Zm.43,1-.11,0h.11Zm.3.13.06,0h-.07S19.79,55.37,19.79,55.35Zm-.9-.08-.07,0,.13,0Zm-.18.59h0l0,0h0S18.7,55.85,18.7,55.86Zm-.61.78,0,0,0,0,.15.06Zm-.49-.11h0l-.05,0h0ZM20,58.47h.05l.21,0,.05,0h0l.17.06-.19,0Zm6.81-8s0,.08,0,.12v0c0-.05,0-.1,0-.16ZM23.2,52.77l0-.09v-.06l.09-.08c0,.07,0,.14,0,.21Zm-2.63.64h0l.08-.14.08,0,.06.07Zm0,0-.08-.06.13,0Zm-.25,0,.06-.06.14.11-.11,0a.1.1,0,0,0-.06.11l-.35.07-.25-.21.55-.12v0S20.26,53.41,20.27,53.39Zm-.2.47h0l-.22.05h0l0,0,.24,0Zm-1.38.39.21.11-.23-.11Zm.71.5.09.08-.09,0-.34-.19Zm.07.57-.53-.12H19Zm-2.55-.06a.08.08,0,0,0,0,0L16.6,55l.3.18Zm.67,1,.45.22-.35-.14-.11-.08Zm2.07,2.11h0l.08,0,.1,0-.22-.07Zm6.89-7.73c0,.15,0,.3-.06.44s0,0,0,0,0,.13,0,.19h0l-.06.1c0-.21,0-.42,0-.63v0l.07-.1.1-.11s0,0,0-.07l0-.06C26.55,50.51,26.56,50.59,26.56,50.66Zm-3.13,2-.13.08c0-.07,0-.15,0-.22l.1-.1.07.15Zm-.31-.42h0s0,0,0-.06v0S23.11,52.18,23.11,52.2Zm-.4.5-.27.21c.09-.09.18-.19.26-.29l0,.05Zm-4,1.67-.16-.06-.06,0h.05Zm9.29-3v0Zm-1.41-1.3-.17.27c.06-.14.11-.28.16-.43Q26.55,50,26.55,50.1ZM25.5,51.28v.08l0,.13-.12.12,0-.18.12-.2Zm-2.26.79h0Zm-.28.2h0Zm-.12.22-.08.13,0,0,0,0Zm-.37.19-.13.14h0l.09-.09Zm-.66.42-.13.11-.17.07,0,0ZM19.27,54l-.32,0h0l.3,0Zm-.43,0h0Zm-1.31,1.09a.06.06,0,0,0,0,.07,3.26,3.26,0,0,1,.51.13l0,0,.14.1-.68-.19,0,0a0,0,0,0,0-.06,0h0l0,0A.07.07,0,0,0,17.53,55.15Zm-.57.77.28.23h0L17,56l-.2-.2Zm1.47,1.94.08,0,.08.06-.16-.09Zm9.2-8.43h0l0-.12c0-.11,0-.21,0-.32l0,.11C27.61,49.22,27.62,49.33,27.63,49.44Zm-.5.32h0c0-.07,0-.14,0-.21v0C27.15,49.63,27.14,49.69,27.12,49.76Zm-.26-1.14.06.42c0,.09,0,.18,0,.27,0-.18-.06-.35-.1-.53Zm-.57,1.6V50.1c0-.14.07-.29.09-.43l.06.09C26.39,49.91,26.34,50.07,26.29,50.22Zm-.14,0q0,.21-.1.41c0-.13,0-.25,0-.38l.07-.13Zm-.69.88,0,.07,0-.11Zm-1.24.7v0ZM24,52s0,0,0,0,0,.08,0,.12l-.07-.16.12-.06S24,51.93,24,52Zm-.74,0h0ZM20.2,53.23l-.3.07.25-.11Zm-1,.41.19.16h0a0,0,0,0,0,0,0l-.08,0-.11,0L19,53.73l.1,0s0,0,0,0Zm-.17.18.05,0-.29.06-.11-.08.22-.07Zm-.44.15-.1,0-.12-.09.15,0Zm-.21.08v0l-.23-.14h.08Zm0,.28h0l-.17-.05h0Zm-.78.07.29.11a11.42,11.42,0,0,0,1.19.38l.06,0v0L19,55h-.22a7.72,7.72,0,0,1-1.12-.56Zm-2-.08,0,0,0,0-.12-.1.06,0Zm-.21.09a7.36,7.36,0,0,0,.77.75l0,.06.1.13-.18-.1-.1-.11c-.23-.27-.46-.52-.7-.78Zm11.91-5.35s0,.1,0,.14l0-.1V49Zm-.79.58h0l-.05-.07v0Zm-.38.36c0-.09,0-.19,0-.28l0,.22Zm-.11.39c0,.13,0,.26,0,.4s0,0,0,0l0,.16,0-.08,0-.38v-.07Zm-1.3,1.84v0c0-.06,0-.12,0-.19a.11.11,0,0,0-.05-.08l0-.06.08.26ZM24.11,52l0,0v0s0,0,0,0v-.09h0s0-.07,0-.1l.16-.12C24.17,51.76,24.14,51.87,24.11,52Zm-.6-.08.15-.25,0,.1Zm-.19.07s0-.06,0-.09l0,0,0,0Zm-2.12,1-.06-.07a4.37,4.37,0,0,0,.53-.38l.16.23Zm-.65.1-.05,0h0Zm0,0,0,0-.08-.06,0,0ZM20,52.91l0,0-.1-.08.13.06Zm0,.15,0,0-.49.24-.06,0Zm-.51.31-.09,0-.27.05,0,0,.33-.12Zm-.51.26h0l0,0,.17,0Zm-.14,0-.09,0-.09,0s0,0,0,0h0l-.16,0,0,0,.34,0Zm-.66.09h0l.18-.05,0,0Zm.08.47h0Zm-.13,0h0l-.15,0H18Zm-.87-.13.08.13L17.07,54Zm1.14.85h-.1L18,54.77Zm-1.56,0a.11.11,0,0,0-.07,0l-.32-.26,0,0C16.58,54.81,16.71,54.87,16.82,54.93Zm-1.16-.73,0,0,0,0ZM15.05,54l-.19-.14L15,54Zm.53,1.88.16.11.14.17L15.69,56h0Zm12.32-6h0c0-.14-.05-.27-.08-.41s0-.09,0-.13C27.84,49.46,27.87,49.64,27.91,49.81Zm-.6-1.28,0,0,0-.07S27.31,48.5,27.3,48.54Zm-.55-.3v0Zm-.11.12,0-.13Zm-.06.88v0h0l-.09-.2c0-.1,0-.2,0-.3,0,.14.08.28.1.43Zm-.32.46,0,.07,0-.25,0-.16.12.17C26.27,49.59,26.26,49.65,26.25,49.71Zm-.59,1h0Zm-.18-.14,0-.11v0l0,.08Zm-1,1.19v0l.05-.11a.07.07,0,0,0,0-.06l0,.11Zm0-.25h0l0,0,0,.07A.08.08,0,0,0,24.43,51.46Zm-1,.34,0,0,.13-.17Zm-1.11.57c0-.11,0-.23.05-.34l.12.2ZM22,52.6h0l-.11.09-.17-.25.09-.08Zm-.94.23L21,52.77l.52-.27A4.42,4.42,0,0,1,21.09,52.83Zm-.67.07-.14.07-.06,0,.17-.08Zm-.81-.23-.14-.11.2.13Zm-1-.76c.17.14.34.28.51.41h0l-.2,0L18.49,52Zm-.16,0h0l.09,0Zm.27.28-.39-.14.11-.06Zm.58,1-.35.13a4.12,4.12,0,0,0-.56-.4q-.31-.25-.6-.52l.44-.27Q18.74,52.69,19.29,53.2Zm-.28.28h-.07l.06,0Zm-1.12.44.18.15h-.23l-.4-.17h0Zm.16.94h0l-.05,0Zm-3.39-1.34.21.26-.12-.08-.2-.29Zm13.17-4.33c0-.11-.06-.21-.09-.31l.07.22ZM27.3,48c0,.07,0,.15,0,.22a0,0,0,0,0,0,0c0-.12,0-.24,0-.36Zm-.63.07h0ZM26.3,49.4l-.1-.15,0-.07.08.14Zm-.81.93h0v0Zm-.57,1.29c0,.06,0,.12,0,.19l-.06.11v0c0-.08,0-.16,0-.24l.07-.08Zm-.6-.47v0h0v0Zm-.36.28c0-.07,0-.14,0-.21l.06-.06.08.14Zm-1.45.77L22.38,52l.14-.1.13.23Zm-.28.23-.12.1h0c0-.11,0-.23,0-.34l.23-.17C22.29,52.15,22.27,52.29,22.24,52.43Zm-1.28.2,0,0,0,0,.17-.09Zm-1.62-1-.08,0,0,0Zm-.24.05a2.26,2.26,0,0,0,.35.08l.27.33-.11.17s0,.1.08.06l.1-.15.5.58-.23.11-.67-.46s0,0,0,0h0c-.23-.17-.45-.35-.68-.53l.14-.08Zm-.72,0-.14.05q-.35-.29-.69-.61l.12-.05C17.89,51.33,18.13,51.53,18.37,51.72Zm-.21.08-.1,0c-.18-.2-.35-.4-.52-.6Q17.84,51.54,18.16,51.8Zm.2.16,0,0-.11.07-.05,0h0Zm-.16.15-.43.28-.15-.14.49-.18Zm-.63.15.16.15-.1.06-.17-.19Zm.18.17.44.4a1.87,1.87,0,0,0-.3-.14s0,0,0,0l-.22-.22Zm.61.54.5.39-.2.07c-.25-.21-.49-.43-.72-.66A2.11,2.11,0,0,1,18.36,53Zm-.55.7-.21-.2a2.66,2.66,0,0,1,.29.19Zm-.75.15h0Zm-.9.67h0l0,0,0,0ZM15.58,54h0l0,0Zm0,0,0,0,0-.05h0l.06.07Zm-.15-.17h0l-.2-.22,0,0C15.25,53.63,15.34,53.72,15.42,53.81Zm0,1.49.11.19a11.68,11.68,0,0,0-.85-.92l.19.1A7.67,7.67,0,0,0,15.4,55.3Zm1.81,2.16h0l.23.07.19.1.19.12Zm1.14.62a5.14,5.14,0,0,1-.59-.23l-.08,0h0Q18,58,18.35,58.08Zm9.6-9.3h0l-.07-.3.06.18Zm-.3-.3-.07-.29,0-.12s0,0,0,0V48c.07.25.13.49.19.74Zm-.35-1.15c0-.08-.07-.16-.09-.24s0-.1,0-.15C27.21,47.07,27.26,47.2,27.29,47.33ZM27,46.77v0l.07.19Zm.22.88c0,.21,0,.41,0,.62l0-.1c0-.27,0-.53-.06-.79Zm-.54.27,0,0-.08-.24s0-.05,0-.08Zm-1.39,1.93h0Zm.05.72q0,.29,0,.58c0,.09-.08.19-.12.28v0s0-.1,0-.14h0a.1.1,0,0,0,0-.13c0-.11,0-.21,0-.32Zm-.46.47,0,.14,0,0,0-.15Zm0,.21h0v0s-.06,0-.06,0,0,.08,0,.11l-.1.12,0,0,0-.13.19-.18Zm-.62,0a.09.09,0,0,0-.08,0L24,51.11l.13-.12C24.19,51.08,24.2,51.18,24.21,51.27Zm-1.1,0,0,0s0,.07,0,.1Zm-.12.13v.14l-.07-.1Zm0,.25v.11h0l-.26.22-.14-.23.29-.28Zm-.51-.07h0c.08-.12.16-.24.23-.37l.07.11Zm-2-.63c.3.35.6.71.87,1.08l-.16.26-.32.16a3.89,3.89,0,0,0,0-.8s0,0,0,0a3.78,3.78,0,0,1,0,.82h0l-.66-.77a2.11,2.11,0,0,0,.62-.23,0,0,0,0,0,0-.07,2.09,2.09,0,0,1-.6.2,4.39,4.39,0,0,0,.27-.62Zm-.47.6-.2-.25.4-.21Q20.12,51.35,20,51.57Zm-1.52.11-.13-.12s0,0,0,0l-.58-.49.16-.07a4.22,4.22,0,0,0,.87.55ZM17.64,51,17,50.38l.13-.07c.2.21.41.4.62.58Zm.36.9-.08,0a4.34,4.34,0,0,1-.78-.55l.31-.13C17.62,51.44,17.81,51.65,18,51.87Zm-.18.07-.39.13c-.17-.18-.34-.37-.5-.57,0,0,0,0,0,0,.15.2.31.38.48.56l-.11,0q-.28-.31-.55-.62l.31-.11A4.42,4.42,0,0,0,17.82,51.94Zm-.58.19-.63.19c-.16-.2-.31-.41-.46-.62l.56-.2Q17,51.82,17.24,52.13Zm-.64,1.46-.06-.06.19.09Zm-.2-.09-.16-.15.08,0Zm-.33-.31a1.55,1.55,0,0,1-.12-.28l.29.38Zm-.25-.06-.13-.1.09.06Zm1.06,1.14a0,0,0,0,0,0,0l0-.07Zm0,.05.42.38-.13-.07L17,54.45Zm.18.24-.07,0v0Zm-.09.09-.14,0h0s0,0,0,0l.08,0Zm-.25-.15,0,0,.09.05Zm-1.85-1.09.09.12-.2-.17-.16-.24Zm0,.87.33.41.07.09,0,0h0a4.87,4.87,0,0,1-.76-.95.06.06,0,0,0-.11.06l.05.09a7,7,0,0,1-.4-.64A9.69,9.69,0,0,1,14.83,54.26Zm-.07.3-.21-.1L14.12,54a1.73,1.73,0,0,1-.07-.24A9.11,9.11,0,0,0,14.76,54.56Zm2.78,3.16.13.07h0l-.1-.05S17.53,57.72,17.53,57.72Zm10.3-9.41v0l-.08-.3Zm-.73-1.59,0,.2c0-.12-.09-.24-.14-.36l.11.15ZM27,47.89,27,47.78c0-.14,0-.28,0-.42C27,47.53,27,47.71,27,47.89Zm-1.11,1.4c0-.05,0-.11,0-.16l0,0Zm-.1.68v0l0,0Zm-.35,0v0c0-.07,0-.14,0-.22s0,.15,0,.22Zm-.09.11h0l0,0v0l0,.06ZM25.15,50v0h0Zm-.26.6-.11-.22.08-.09C24.87,50.4,24.88,50.5,24.89,50.6Zm-.19.2-.2.2-.08-.23.21-.22Zm-.61,0-.09.08.07-.1Zm-.15,0,.06-.16,0,0Zm-.51.38,0-.08v0Zm-.19.21s0,0,0-.06v0ZM23.13,51l-.12.13-.11-.19c.07-.13.12-.27.18-.42C23.1,50.67,23.12,50.82,23.13,51Zm-.16.18-.13.14-.08-.11.11-.2Zm-.26,0-.22-.3s0,0,0,0c0-.16,0-.33,0-.5.12.19.24.38.36.58Zm-.24-.29.22.32c-.07.12-.15.25-.23.36l0,0C22.45,51.26,22.46,51,22.47,50.84Zm-.26,1-.14.1c0-.15,0-.29,0-.44l.2.31Zm-.7,0h0l.06-.06Zm-1.17-1.09h0Zm0,.08,0,.09-.56.27c.18-.13.37-.26.55-.4Zm-1.16.63-.22.09A3.86,3.86,0,0,1,18,51l.57-.29Zm-1.28-.57a8.57,8.57,0,0,1-.64-.58l.73-.41c.16.23.33.45.5.67Zm-.73-.68,0,0,.16-.05Zm-.08,0-.14.07-.07-.06.17-.05Zm-.32,0,.06.09,0,0-.08-.09Zm.13.19.13.19-.16-.17Zm.33.47.14.19-.31.14a5.2,5.2,0,0,1-.56-.62l.33-.14Zm-.26.36-.28.12c-.17-.21-.34-.42-.5-.63l.23-.1A5.26,5.26,0,0,0,17,51.28Zm-.32.13-.53.21c-.15-.22-.29-.44-.42-.66h0l.45-.2C16.3,51,16.46,51.2,16.63,51.41Zm-.57.35s.06,0,.05,0c.14.21.29.4.43.6l-.14,0c-.22-.18-.44-.36-.64-.56l.28-.09Zm.28.64-.55.15c-.14-.2-.26-.41-.38-.61l.3-.1C15.91,52,16.13,52.22,16.34,52.4Zm.18.15.53.41.26.3h0a1.09,1.09,0,0,0-.32,0h0a4,4,0,0,1-.14-.43c0-.06-.11,0-.1,0a4,4,0,0,0,.29.81h0l-.56-.28c-.18-.22-.35-.45-.52-.69Zm-.6.32a0,0,0,0,0-.06,0,1.14,1.14,0,0,0,0,.14c-.09-.09-.16-.19-.24-.29l.14,0Zm-.24.08-.12-.07h0l-.08-.1h.06Zm-.31-.3-.09-.12-.15-.24c.09.12.2.23.29.35Zm.57.67,0,0,0,0Zm.57.56h0Zm.22.1.33.3-.31-.22v0a0,0,0,0,0,0,0l-.05,0Zm0,.17c0,.07.07.13.1.19l-.27-.21h0l.29.23,0,.06-.37-.22L16.34,54h.19Zm-.44,0,.17.23-.14-.06c-.15-.12-.31-.24-.45-.37H16Zm-.47-.29s0,0,0,0l-.17-.19.24.16Zm-1-.65.05.1-.13-.15Zm-1-.51.2.35c-.14-.19-.29-.37-.43-.57Zm.09.53h0l0,0Zm0,.09a7,7,0,0,0,.46.73,8.79,8.79,0,0,1-.65-.8l.12.1S13.94,53.37,14,53.34Zm-.3-.09a3.7,3.7,0,0,1-.28-.25l0-.11.24.22Zm-.39-.42,0,.12-.06-.06,0-.13Zm14.69-6,0-.07,0,0Zm-1.08-.5v0c-.05-.19-.13-.37-.19-.56a6.83,6.83,0,0,1,.34.72Zm0,.49c0,.19,0,.38,0,.57q-.13-.43-.3-.84c0-.09,0-.19.05-.29C26.68,46.41,26.77,46.6,26.85,46.79Zm-.38.67v0l0,0-.05-.15Zm-.21,1.2v0l.1-.14C26.32,48.55,26.29,48.6,26.26,48.66Zm-.39.71-.13.21,0-.21.16-.21C25.87,49.22,25.87,49.29,25.87,49.36Zm-.3.26c0,.05,0,.11,0,.16l0,0c0-.08,0-.16,0-.24l.06-.06Zm-.1-.2c0-.18-.05-.35-.09-.52,0,.16.1.32.14.48Zm-.12.33v0Zm-.27.07,0,0c-.1-.16-.2-.32-.31-.48l.11-.12C24.93,49.45,25,49.64,25.08,49.83Zm-.22,0a0,0,0,0,0,0,0c0,.08,0,.15,0,.23l-.14.15q-.14-.25-.3-.48l.26-.27Zm-.32.59-.17.18v-.07a0,0,0,0,0,0,0l-.13-.35s0,0,0,0,0-.1,0-.15h0l0,0Q24.4,50.15,24.54,50.4Zm-.44.27h0l0-.07h0Zm-.68.31,0,0,0-.06S23.42,50.94,23.42,51Zm0,.07c0,.09-.05.18-.08.26l0,.07c0-.1,0-.19,0-.29l.1-.12Zm-.17-.19,0-.15.06.1Zm-.77-1c0-.15,0-.3,0-.45l.09.14C22.52,49.7,22.49,49.81,22.46,49.91Zm-.07,1.5-.27-.4a3.81,3.81,0,0,0,.32-.68C22.44,50.7,22.42,51.06,22.39,51.41Zm0,.19v.06l-.11.13L22,51.4l0-.2.06-.09ZM22,51.05V51l0,0Zm-1-1-.35-.4q0-.21,0-.43l.52.67Zm0,0-.43.36a5.74,5.74,0,0,0,.1-.75Zm.05.06c.29.36.55.73.81,1.11a4.65,4.65,0,0,1-.41.5q-.38-.43-.79-.84l.06,0a.08.08,0,0,0-.08-.14l-.1,0-.05-.05,0-.16Zm-.76.53h0ZM19,50.24l-.49-.67h0l.51.66ZM17,50.07,17,50c.25-.17.49-.36.73-.55l.2.3C17.61,49.85,17.33,50,17,50.07Zm-.1-.11c-.37-.4-.72-.81-1.06-1.18q.54-.21,1.07-.44c.23.36.46.71.71,1.07Zm-.07.05h0l.08.08-.17.05,0,0,.12-.1-.13.09-.24-.27,0,0h0c-.27-.3-.55-.6-.8-.92l.15-.06C16.14,49.18,16.5,49.6,16.88,50Zm-.22.14-.05,0c-.36-.41-.72-.84-1.08-1.28l0,0Q16.08,49.55,16.65,50.16Zm-.08.05,0,0-.28.09A7.8,7.8,0,0,1,15.54,49C15.88,49.38,16.22,49.8,16.57,50.21Zm-.23.17.3-.09.08.09-.31.15-.1-.13Zm0,.19-.23.11L16,50.58l.21-.13Zm-.25.12-.41.19s0,0,0,0l-.06-.09.42-.23Zm-.08,1-.29.1c-.22-.22-.44-.45-.65-.69l.46-.21Zm-.72.25h0a0,0,0,0,0,0,.06h0c.12.2.24.41.38.6l-.15,0a9.07,9.07,0,0,1-1-1.46,5.35,5.35,0,0,0,.49.49,0,0,0,0,0,.05,0Zm-.12.63a3.71,3.71,0,0,1-.37-.48Zm.39.49.12.14c-.13-.12-.26-.23-.39-.35h0Zm-.25.28-.09,0c-.1-.12-.18-.26-.27-.38l.16,0C15.18,53,15.25,53.15,15.31,53.3ZM14.72,53l-.09-.05h0Zm-.61-.42L14,52.45l-.22-.37.13.12.07.09ZM13.68,52l-.05-.09.07.09Zm-.6-.47-.17-.25,0-.11C13,51.28,13,51.41,13.09,51.53Zm.17.58-.09-.1-.05-.12Zm.1.15c.18.26.38.51.56.77a4.39,4.39,0,0,1-.7-.9Zm.48.88,0,.06a5.27,5.27,0,0,1-.43-.41l-.16-.28.32.35Zm-.2.59,0,.09-.08-.08-.08-.16Zm-1.05-1.21,0-.05q.16.28.34.54l-.12-.14Zm.37.81h0v0Zm.12,0-.12-.21.14.18Zm14.69-7.11.15.41,0,0a5.32,5.32,0,0,0-.25-.62Zm.08.47s0,0,0,0a8,8,0,0,1,.33.88l0,.16c0,.09,0,.19,0,.28a8.37,8.37,0,0,0-.38-1s0,0,0,0S27.86,46.8,27.84,46.73Zm.33,1.79c0,.07,0,.15,0,.22,0-.12,0-.24-.07-.36Zm-1.47-2.39,0,0,0-.05V46ZM26.47,46v0h0v0Zm-.2,1.19c0,.09.06.18.09.27l-.1-.25Zm.11,1-.19.25h0c0-.27,0-.53,0-.8C26.26,47.91,26.33,48.09,26.38,48.28Zm-.51.07-.06-.09v-.07l.06.12Zm.05.33,0,.11v0l0,0-.05-.07c0-.08,0-.17,0-.25Zm-.25.51,0-.12c0-.14,0-.28,0-.43l.23.31Zm-.3-.86-.1.12c0-.15-.09-.29-.13-.44l.22.28Zm0,.24c0,.25.09.5.13.75l0,0c-.06-.22-.13-.44-.2-.65h0Zm0,.93-.09.1c0-.23-.07-.45-.11-.67,0,0,0,0,0,0l.11-.13C25.32,49,25.35,49.27,25.39,49.51ZM25.13,49c0,.19.06.39.09.58l-.25-.4Zm-.57.38-.25.28-.17-.25s0-.07,0-.1l.22-.24Zm-.45-.18,0-.13c0-.13,0-.26,0-.4l.23.33ZM24,50v0l0,.09s0,.07,0,.11h0l0,.11,0,0-.06-.1C24,50.09,24,50,24,50Zm-.23.65,0,0a6.1,6.1,0,0,1-.31-.66l.35.48S23.8,50.55,23.79,50.6Zm-.44-.77a4.75,4.75,0,0,0,.24.59,0,0,0,0,0-.08,0c0,.1,0,.21-.05.31a.08.08,0,0,0-.12,0l0,0-.1-.17,0-.12c0-.06,0-.11,0-.17h0a9,9,0,0,0-.19-.9l0-.18Zm-.74-1.17h0Zm0,.1a4.85,4.85,0,0,1-.07.85l-.09-.14c0-.13,0-.26,0-.4h0c0,.13,0,.25,0,.38l0,0,0,0c0,.18,0,.37,0,.55l0,.15c-.17-.26-.33-.52-.5-.77,0,0,0,0,0,0,.18.26.34.54.5.81a3.88,3.88,0,0,1-.32.72l-.13-.2c-.06-.39-.13-.78-.22-1.17.16-.15.31-.31.47-.47h0l.4-.4Zm-.48.28-.62-.85a5.45,5.45,0,0,0,.33-.59c.22.35.46.7.69,1Zm-.51.49-.36.31-.54-.68a6.17,6.17,0,0,0,.61-.72Q21.5,49,21.62,49.52Zm-1.08,0-.1-.12.12-.1C20.55,49.38,20.55,49.45,20.54,49.52Zm-.11-.11.11.13a6,6,0,0,1-.17,1l0,0-.1-.1s0,0,0,0L19.7,50A8,8,0,0,0,20.43,49.41Zm-.95.46-.39.28-.48-.66.42-.23.38.46-.3-.28s-.06,0,0,0Zm-1.09-.42-.08-.11.08.11Zm-1.45-1.14q-.53.24-1.07.45c-.23-.26-.45-.49-.66-.68l0-.06c.43-.13.87-.28,1.31-.44C16.65,47.82,16.8,48.07,16.95,48.31ZM15.11,48s0,0,0,0l0,0v0L15.08,48Zm.16.19c.17.16.34.35.53.56l-.15.06c-.12-.15-.22-.31-.33-.46Zm.29.65,0,0-.08-.2Zm.67,1.56-.21.13-.33-.45s0,0,0,0l.32.45c-.14.08-.29.14-.43.22q-.26-.44-.5-.9s0,0,0,0c.09.18.19.36.29.54q-.37-.62-.73-1.24c.27-.08.55-.16.81-.25A7.58,7.58,0,0,0,16.23,50.43Zm-1.79,1.51c.16.2.32.38.49.57l.12.21-.17,0a11.94,11.94,0,0,1-.68-1.12Zm.23.87h0l-.21-.19a4.92,4.92,0,0,1-.4-1A12.2,12.2,0,0,0,14.67,52.81Zm-.12,0h0l0,0Zm0,0h0l-.19-.21-.05-.08.19.18Zm-1.6-1.3c0,.09.07.18.11.27l-.1-.12c0-.12-.1-.23-.13-.36Zm.15.39a3.89,3.89,0,0,0,.31.59l-.21-.25c-.08-.15-.15-.3-.21-.46Zm0,.16a6.85,6.85,0,0,1-.44-.64l-.06-.18.36.45C12.91,51.85,13,52,13,52.1Zm-1.21-2,0,.07-.06-.1h0ZM13,52.53l.08.15h0l-.11-.2Zm.14.5c0,.07,0,.15,0,.22a6.8,6.8,0,0,1-.65-1l0,0a4.44,4.44,0,0,0,.54.64Zm-.94-1.31v0l0,.07-.15-.35Zm-1.81-4.14h0l0-.2,0-.14C10.34,47.35,10.36,47.46,10.39,47.58Zm3,6.46L13.35,54l0,0Zm14.73-5.91L28,47.88c0-.16-.08-.31-.12-.47C28,47.65,28.07,47.88,28.14,48.12Zm-.61-1.3A11.36,11.36,0,0,0,27,45.66s-.06,0,0,0,.06.14.1.22l-.11-.21v-.06s0,0,0-.06l-.08-.19a11.19,11.19,0,0,1,.59,1C27.48,46.54,27.5,46.68,27.53,46.83ZM26.4,45.28c0,.11.09.23.13.34s0,0,0,0l-.19-.33,0-.2Zm.13.51s0,.05,0,.08l-.1-.17,0-.21Zm-.07.4s0,.06,0,.09l-.21-.47.2.2Zm0,.69h0Zm-.27-.19,0,0L26,46.48v0Zm0,.32,0,0-.08-.19ZM26,48.21l-.05-.1,0-.22.15-.25Zm-.23-.07v.09l-.06-.08,0,0Zm0,.37c0,.09,0,.17,0,.26l-.25-.32v-.09l.07-.09ZM25.49,48v.19l-.06-.27Zm-.18-.27s0,0,0,0l.07.34-.17-.2.12-.19Zm-.17.13,0,0c-.07-.23-.13-.46-.21-.68l.38.53Zm.08.68-.34.42-.18-.39c.13-.16.26-.32.38-.49C25.12,48.24,25.17,48.39,25.21,48.55Zm-.86.32-.3-.39c0-.21,0-.42-.05-.63q.28.39.54.79Zm-.52-.74,0-.08q-.11-.4-.25-.79l.19.25C23.78,47.72,23.82,47.93,23.84,48.13Zm0,1.87-.18-.29.21-.23C23.9,49.66,23.9,49.84,23.88,50Zm-.29-.24h0l.26.43v.09c-.32-.43-.64-.85-1-1.28l-.11-.46h0l.08.33c0-.12-.08-.23-.13-.34l.06-.06Q23.2,49.12,23.59,49.77Zm-.9-1.29s0-.07,0-.11l0,.07ZM22.5,48a16.28,16.28,0,0,0-1-2c0-.08,0-.15,0-.23l.49-.55a24.61,24.61,0,0,1,.58,2.87Zm-1.08-2.13h0Zm0,.14a5.43,5.43,0,0,1-.24,1.7,0,0,0,0,0,.05,0,5.42,5.42,0,0,0,.26-1.59,16.34,16.34,0,0,1,.79,1.58l-.43-.58s-.06,0,0,0l.59.83c.07.17.12.34.18.52s0,0,0,.07l0,0q-.37-.5-.72-1c0-.06.07-.12.1-.18a.06.06,0,0,0-.1-.06l-.08.12,0-.06a0,0,0,0,0,0,0l0,.07c-.12.19-.24.36-.37.54l-.21-.28q-.19-.58-.43-1.16l.62-.67ZM21,47.53c-.16-.23-.32-.46-.47-.69,0,0-.06,0,0,0,.18.29.37.56.57.83s.11.33.16.5a8.34,8.34,0,0,1-.6.67c0-.12,0-.24,0-.36l.07.11s.07,0,0,0l-.13-.2q0-.17,0-.33l.12-.09c.06,0,0-.14-.09-.09l0,0c0-.33-.1-.67-.17-1l.29-.29C20.82,46.92,20.94,47.22,21,47.53Zm-.54.43-.1.08L20,47.36l.4-.41C20.42,47.29,20.47,47.63,20.51,48Zm0,.14v.12l-.06-.09Zm0,.25c0,.2,0,.4,0,.6l-.46-.54.32-.24Zm0,.67a9.24,9.24,0,0,1-1,.8l-.49-.58a9.58,9.58,0,0,0,1-.67s0-.07,0-.09h0Zm-1.58.08,0,0s0,0,0,0l0,0-.39.26L18.24,49c.43-.37.85-.76,1.26-1.16.16.18.31.37.47.55Q19.45,48.76,18.93,49.1ZM17,47.2l0,0h0l0,0Zm-.12-.2-.21-.38h0l.2.38Zm-.26-.45-.07-.13h0l.07.13Zm-.11-.26h0Zm.16.06.31-.21.1.19-.33.16Zm.18-.44-.32.15-.07-.15.33-.12Zm-.42-.07-.19-.41.29-.11.22.4Zm-.22-.49-.11-.25.27-.11.13.25Zm-.07,0-.12,0-.13-.28.15,0Zm-.08.12.11,0,.17.41-.07,0Zm.31.45.06.15,0,0L16.27,46Zm-.54.36a4.69,4.69,0,0,1-1.06.19.06.06,0,0,0,0,.12,3.9,3.9,0,0,0,1.15-.14l.06.11a4.72,4.72,0,0,1-1.08.42s0,.07,0,.06A5.12,5.12,0,0,0,16,46.68l.06.11-.65.29s0,0,0,0l.67-.26.23.41c-.4.18-.81.35-1.25.5a0,0,0,0,0,0,0c.43-.12.88-.25,1.31-.42l0,.06q-.61.28-1.26.52s-.09,0-.07,0l0,0a15.14,15.14,0,0,1-.89-1.46,15.75,15.75,0,0,0,1.54-.39ZM15,48l-.18.07a0,0,0,0,0,0,0l.19-.06.25.35c.06.17.12.34.18.5l-.82.25c-.23-.4-.45-.81-.65-1.22l.31-.05a0,0,0,0,0,0,0l-.32.05c-.2-.41-.39-.82-.56-1.25l.7-.12A15.09,15.09,0,0,0,15,48Zm-1.09-.1-.25,0q-.22-.63-.41-1.27l.11,0C13.49,47.12,13.68,47.53,13.88,47.94Zm-.67-1.26-.09-.27a0,0,0,0,0-.06,0l.08.27-.55.07s0-.05,0-.08-.09-.05-.08,0,0,.06,0,.09l-.23,0c-.08-.24-.15-.48-.21-.73s-.15-.64-.21-1l.91-.32a11.37,11.37,0,0,0,.54,1.87Zm-.69.12a8.18,8.18,0,0,0,.26,1.28h0c-.17-.41-.33-.82-.47-1.25Zm.27,1.32v0Zm.4,1.29s0,.05,0,.08L13,49c0-.05-.11,0-.09,0l.33.8a3.24,3.24,0,0,0,.4.95c.12.26.24.52.37.78,0,0,0,0,0,0a4.87,4.87,0,0,0,.37,1l-.25-.23a16.3,16.3,0,0,1-2-4.05c.45,1,.9,2,1.43,2.91,0,0,.07,0,0,0-.54-1-1-2-1.5-3l.47,0A13.94,13.94,0,0,0,13.19,49.41Zm-.71,1.37-.33-.57-.25-.75A12.76,12.76,0,0,0,12.48,50.78Zm.27.53s0,0,0,0,.07.19.1.28c-.13-.15-.25-.31-.36-.47l-.21-.61C12.41,50.79,12.59,51.05,12.75,51.32Zm-.81-1.26-.18-.35-.11-.3.21.4Zm-.45-.67.28.66q-.2-.37-.37-.77s0,0,0,0a9.6,9.6,0,0,0,.55,1.08,8.76,8.76,0,0,0,.86,1.81c0,.11.07.22.11.32a5.83,5.83,0,0,1-.65-1c0-.08-.06-.16-.08-.25s0,0,0,0-.05-.16-.07-.24,0,0,0,0c-.13-.3-.25-.6-.36-.9,0-.05-.1,0-.08,0A10.74,10.74,0,0,0,12,51.37c.07.16.14.33.21.49l0,.14c-.15-.29-.29-.59-.43-.88,0,0,0,0,0,0L11.79,51c-.1-.21-.21-.42-.3-.64l-.32-.93c.08.17.14.34.24.5s.09,0,.07,0a10.92,10.92,0,0,1-.65-1.74h.1Q11.18,48.77,11.49,49.39Zm1.77,4.46s0,0,0,0l-.13-.21Zm.37.53.26.36c-.14-.17-.28-.34-.4-.52Zm.62.78h0ZM14,54.72a0,0,0,0,0,0,0l-.1-.15a0,0,0,0,0,0,0,6.16,6.16,0,0,0,.54.59l.26.37h0A5.82,5.82,0,0,1,14,54.72ZM16.22,57h0ZM26.53,43.83l-.2-.3Zm-.22,1.45-.38-.63a0,0,0,0,0,0,0q.23.39.45.78l0,.21a9.47,9.47,0,0,0-.78-1.11l-.32-.64a8.25,8.25,0,0,1,1,1.18Zm.08.59-.19-.17h0l-.4-.81A9.64,9.64,0,0,1,26.4,45.88Zm-.06.73,0,.06A16.48,16.48,0,0,0,23.9,43a8.85,8.85,0,0,1,1.43,1.35C25.68,45.09,26,45.84,26.34,46.61ZM26,46.45l-.22-.3-.13-.26.36.54Zm.07.85c-.06.12-.12.24-.19.36,0-.19-.09-.38-.15-.57h0l.15-.3C25.91,47,26,47.13,26,47.3Zm-.25.45,0,0,0,0c0-.16-.08-.33-.12-.49l0-.08C25.7,47.37,25.74,47.56,25.79,47.75Zm-.08,0-.2-.31.09-.14C25.63,47.42,25.67,47.57,25.7,47.72Zm0,.22,0,.06-.26-.36.06-.1Zm-.34-.36-.61-.82c-.14-.34-.29-.68-.46-1,.4.57.78,1.14,1.13,1.72Zm-.88-1.18c-.21-.28-.4-.57-.58-.85a0,0,0,0,0,0,0c.24.39.5.78.76,1.16s.24.59.34.89L24.41,47s-.05,0,0,0l.6.77L25,48c-.12.17-.25.33-.39.5l-.29-.64s-.09,0-.08,0l.23.54q-.26-.38-.54-.74c-.14-1.09-.4-2.17-.6-3.25A14.61,14.61,0,0,1,24.44,46.4Zm-1.2.34h0c0-.09-.09-.19-.14-.28s-.06,0-.07,0L22.6,46s0,0,0,0l.52.66A9.45,9.45,0,0,1,23.66,48l-.45-.52s0,0,0,0c.18.22.35.44.52.66s.14.51.2.78c0,0,0,.08,0,.12-.2-.27-.4-.54-.58-.81a0,0,0,0,0-.07,0c.2.37.42.72.64,1.06h0l-.26.28c-.27-.41-.55-.82-.83-1.22h0s0-.06,0,0h0l-.11-.15A23.46,23.46,0,0,0,22,45.15l.22-.26A14.89,14.89,0,0,1,23.24,46.74Zm-1.82-1,0,0v0a0,0,0,0,0-.06,0l0,0-.61.67c-.17-.43-.36-.86-.56-1.28q.54-.4,1-.84A8.09,8.09,0,0,1,21.42,45.76Zm-.73.82-.28.31c-.1-.53-.22-1.05-.34-1.56l.06,0C20.34,45.71,20.52,46.14,20.69,46.58Zm-.33.36-.41.42c-.3-.44-.61-.88-.93-1.31q.52-.33,1-.69C20.15,45.88,20.27,46.41,20.36,46.94Zm-.46.47-.26.26.26-.25.45.66-.33.25-.49-.55.11-.11-.11.1-.05-.06s-.07,0,0,0l.05.06c-.32.3-.64.6-1,.88l-.3.25c-.21-.3-.4-.6-.6-.91l.93-.48s0,0,0,0L17.6,48c-.15-.24-.29-.47-.43-.71a5.74,5.74,0,0,0,1.56-1s0-.06,0-.08l.24-.14C19.27,46.53,19.59,47,19.9,47.41Zm-1.22-1.18h0c-.52.34-1,.63-1.58.9l0,0a4.48,4.48,0,0,0,1.66-1.31l.21.29Zm0-.55A7.34,7.34,0,0,1,17,46.94l-.21-.37.34-.14,0,.08c0,.05.11,0,.08,0l0-.07a10,10,0,0,0,1.41-.75l0,.06Zm-1.51.59-.1-.2.29-.2a8.11,8.11,0,0,0,1-.66l.22.3A13.78,13.78,0,0,1,17.14,46.27Zm-.32-.61-.2-.4a7.47,7.47,0,0,0,1.24-.65l.29.4A13.5,13.5,0,0,1,16.82,45.66Zm-.25-.48-.13-.25a5.41,5.41,0,0,0,1.16-.67l.19.26A8.36,8.36,0,0,1,16.57,45.18Zm-.2-.39-.6-1.24c.33-.16.66-.32,1-.49q.38.56.77,1.12A12.8,12.8,0,0,1,16.38,44.79Zm-.12.06L16,45l-.09-.19s-.06,0,0,0,.06.13.08.19l-.15,0c-.2-.4-.39-.8-.57-1.2l.44-.21Q16,44.23,16.26,44.84Zm-1,.35a4.15,4.15,0,0,1-.91.09,0,0,0,0,0,0,.06,4.6,4.6,0,0,0,1-.06l.4.8q-.75.24-1.54.41a14.4,14.4,0,0,1-.84-1.9c.47-.18.94-.37,1.4-.57C14.86,44.43,15,44.81,15.23,45.19Zm-1.17,1.32-.69.13a11.45,11.45,0,0,1-.55-1.88l.42-.15A14.41,14.41,0,0,0,14.06,46.51Zm-1.25-1.78a9.22,9.22,0,0,1-.17-1.25l.24-.11c.1.41.21.81.35,1.2Zm0,0-.9.33c-.07-.39-.12-.78-.16-1.17.31-.12.61-.26.91-.4A9.24,9.24,0,0,0,12.77,44.75Zm-1,.35-.16.06s0,0,0,0l.15-.05c0,.33.08.65.14,1s.11.48.17.71l-.28,0s0,0,0,0l.29,0a10.33,10.33,0,0,0,.44,1.25l-.47,0L12,48c-.08-.29-.14-.58-.19-.88,0,0,0,0,0,0a23.91,23.91,0,0,1-.52-3l.39-.14C11.68,44.32,11.74,44.72,11.79,45.11Zm0,2.49a18.44,18.44,0,0,1-.69-2.44s0-.07,0-.11h0c0-.29-.06-.59-.07-.88l.15-.05A19.77,19.77,0,0,0,11.76,47.59Zm0,1.94-.25-.46-.05-.15a0,0,0,0,0,0,0l-.11-.2a0,0,0,0,0,0,0l-.2-.57h.29Q11.56,48.85,11.78,49.54Zm-1-1.44a12.77,12.77,0,0,1-.33-1.55,8.48,8.48,0,0,0,.43,1.55Zm-.46-1.89,0,.15,0,.25c-.09-.45-.16-.9-.21-1.35s0-.63-.05-.95c0,0,0,0,0,0s0-.21,0-.32l0,.24h0c0,.54.08,1.09.13,1.63h0C10.33,46,10.35,46.09,10.36,46.21ZM10.13,44s0-.09,0-.14a0,0,0,0,0,0,0c0-.1,0-.2,0-.29h0c0-.1,0-.2,0-.3s0,.07,0,.1C10.13,43.57,10.12,43.79,10.13,44Zm2.65,9.28v0l-.06-.07Zm1.61,2,.22.23-.24-.19A0,0,0,0,0,14.39,55.32Zm12.45-11.4s0,0,0,0ZM24.24,41l-.06,0h0Zm.68,1a3.25,3.25,0,0,0-.36-.13,0,0,0,0,0,0,0,3.36,3.36,0,0,1,.47.19,14.08,14.08,0,0,1,1.13,1.49c.21.4.44.78.67,1.17-.17-.18-.34-.34-.53-.5A12.5,12.5,0,0,0,24,41.35l.14-.21Q24.53,41.56,24.93,42Zm.83,1.79c-.46-.5-.95-1-1.45-1.43,0,0,0,0,0,0q.42.39.81.8s0,0,0,0c.22.25.4.5.59.76s.27.42.39.63a8.66,8.66,0,0,0-.87-.9l-.1-.2c0-.06-.09,0-.1,0a11.21,11.21,0,0,0-.9-.7s0,0,0,0a11,11,0,0,1,1,.8l.19.43a8.8,8.8,0,0,0-1.33-1.2s0,0,0,0l-.18-.22s0,0,0,0A16,16,0,0,1,25.81,46l-.42-.54c-.17-.34-.35-.68-.51-1,0-.05-.1,0-.08,0L25,45l-.6-.69s-.05,0,0,0c.27.31.52.63.76.94l.18.41A12,12,0,0,0,24,44.4s-.09,0-.05.05a12.23,12.23,0,0,1,1.53,1.62l.29.66-.17.32a0,0,0,0,0,0,0h0l0,.08c0-.09,0-.17-.08-.26h0c0,.09.05.18.08.27l-.1.15c-.43-.66-.9-1.29-1.36-1.92a0,0,0,0,0,0,0c-.22-.4-.46-.8-.73-1.19,0-.1,0-.2-.06-.3a0,0,0,0,0,0,0c0,.06,0,.13,0,.19l-.19-.27v0c-.17-.24-.34-.48-.53-.71a15.55,15.55,0,0,0,1.34-1.68A14.63,14.63,0,0,1,25.76,43.8ZM23,43.9l-.42.51L22,43.64l.44-.44C22.66,43.42,22.83,43.66,23,43.9Zm-.5.6-.2.24c-.17-.27-.35-.55-.53-.82l.19-.19Zm-.77-.64c-.72-1.06-1.5-2.1-2.22-3.22a31.84,31.84,0,0,1,2.4,3Zm-5-.86c-.32.17-.65.33-1,.49l-.67-1.42c.25-.17.49-.36.73-.55C16.11,42,16.41,42.52,16.74,43Zm-1.1.56-.43.21c-.2-.46-.4-.92-.59-1.39l.37-.24Zm-1,.43c-.46.2-.92.4-1.39.58-.14-.39-.25-.8-.36-1.21q.62-.31,1.21-.67C14.31,43.13,14.49,43.56,14.67,44Zm-3.85-4.62a15.69,15.69,0,0,0-.1,2,12.81,12.81,0,0,0,0,2.85l-.12,0a18.59,18.59,0,0,1,.07-5s0,0,0,0a14.74,14.74,0,0,0-.18,5.06l-.2.07s0,0,0,0l.19-.07a10.15,10.15,0,0,0,.21,1,0,0,0,0,0,.08,0c-.08-.35-.12-.69-.16-1l.12,0q.06.5.16,1c0,.65.11,1.31.2,2,0,0,0,0,.08,0q.08.45.19.9h-.29a9.8,9.8,0,0,1-.59-3.2,0,0,0,0,0,0,0A9.62,9.62,0,0,0,11,48a8.8,8.8,0,0,1-.54-2s0,0,0,0q-.06-.53-.11-1.07c0,.07,0,.14,0,.21s0,0,0,0c-.08-.62-.16-1.23-.19-1.84,0-.43,0-.87,0-1.3,0,0,0,0,0,0q0-.23.05-.46a6.14,6.14,0,0,1,.11-.63,0,0,0,0,0,0,0c0,.09,0,.18-.05.28s0,0,0,0l.07-.46s0,0,0,0c0-.32.09-.64.14-1h0c0-.31.09-.61.15-.92s.13-.51.19-.76h.2C11,38.49,10.88,38.93,10.83,39.37Zm-.09-1.3v0h0Zm.68-4.66L11.18,33l.25.44Zm0,1.49v0c0-.05,0-.11,0-.16S11.42,34.87,11.42,34.91ZM11.3,34a3,3,0,0,0-.16-.51l.12,0,0,.07s.05,0,0,0l0,0h0l0,.06a2.21,2.21,0,0,1,.15.4l-.2,0Zm.24-.1,0,.07h0Zm-.28-.5v0Zm-.18-.32.13.31-.13-.05L11,33.22l-.15-.35H11Zm.31,2v0h0Zm.07-.24a3,3,0,0,0,0-.35h.11c0,.21,0,.43,0,.66l-.21,0A2.68,2.68,0,0,0,11.47,34.82Zm0-.36c0-.07,0-.14,0-.21s0,0,0,0,0,.14,0,.21h0a0,0,0,0,0,0,0h0c0,.07,0,.14,0,.21,0-.14,0-.29-.05-.43s0,0,0,0,0,.09,0,.14l0-.07s0,0,0-.07a.16.16,0,0,0,0-.06s0,0,0,0l0,0s0,0,0,0h.2a3.14,3.14,0,0,1,.07.36Zm.11-.38h0l0,.06s.09,0,.07,0l0,0h0l.19.31a.76.76,0,0,1-.26.08A3,3,0,0,0,11.62,34.08Zm.06-.13-.22-.43h0l.24.42Zm-.12-.44a1.41,1.41,0,0,0,.39-.11h0l.22.41a1.84,1.84,0,0,1-.37.12Zm-.05-.09c-.11-.19-.23-.37-.34-.56a2.21,2.21,0,0,0,.45-.12l.31.59A1.72,1.72,0,0,1,11.5,33.42Zm-.58-.62h-.07c-.07-.16-.13-.32-.2-.48s-.06,0-.05,0l-.23-.47s0,0,0,0l-.2-.41-.13-.3h0C10.33,31.7,10.62,32.25,10.93,32.8Zm2,20.84.07.11-.1-.14Zm2.18,2.56.14.18h0l.12.15c-.2-.18-.39-.37-.58-.56ZM27.67,45.48a17.21,17.21,0,0,0-.81-1.63,0,0,0,0,0-.06,0h0a10.07,10.07,0,0,0-.63-.88v0a6.26,6.26,0,0,1,.61.71c.13.21.26.41.38.62C27.33,44.67,27.51,45.07,27.67,45.48Zm-1.19-2.39a5.17,5.17,0,0,0-.57-.51q-.37-.57-.73-1.15c.21.2.4.41.59.63S26.26,42.73,26.48,43.09Zm-3.37-3.48a6.53,6.53,0,0,0-1.61-.87s0,0,0,0a6,6,0,0,1,.87.43l-.16-.08c-.05,0-.09,0,0,.08.48.27.94.56,1.39.87q.37.31.73.65l-.11.17c-.19-.21-.36-.43-.56-.64h0c.19.21.36.43.55.65v0l-.51-.43s0,0,0,0c-.23-.19-.46-.39-.71-.57,0,0-.08,0,0,.06.43.34.83.7,1.21,1.07l-.14.21c-.31-.28-.62-.55-1-.8,0,0-.09,0-.05.07a12.25,12.25,0,0,1,.92.85,17.29,17.29,0,0,1-1.34,1.67A21.76,21.76,0,0,0,20.55,41a0,0,0,1,0,0,0,22,22,0,0,1,1.91,2.11l-.43.44a23.26,23.26,0,0,0-3.67-4.3c.28-.29.56-.58.83-.88,0,0,0-.07,0,0l-.86.86a12.86,12.86,0,0,0-2.69-1.85s-.06,0,0,0a14.43,14.43,0,0,1,2.62,1.9,29.14,29.14,0,0,1-2.36,2.07c-.23-.39-.45-.79-.66-1.2,0,0,0,0,0,0,.2.42.41.82.64,1.22-.24.19-.48.37-.72.55-.27-.56-.54-1.11-.83-1.66,0,0-.08,0-.07,0l.78,1.7-.36.24a43.85,43.85,0,0,1-1.47-4.37,2.19,2.19,0,0,0,1.11-.67s0-.11-.07-.07a2.38,2.38,0,0,1-1.09.6c-.06-.22-.12-.45-.18-.67s-.05-.55-.09-.82,0-.58-.34-.62c-.54-.09-.2.7.06,1.07.07.38.13.75.21,1.12a8.45,8.45,0,0,1-1.54.08,3.76,3.76,0,0,0,.08-1,0,0,0,0,0-.06,0,5.3,5.3,0,0,1-.12,1H10.9c.05-.2.09-.4.15-.6,0,0,0,0,0,0,.12-.47.25-.94.36-1.41a0,0,0,0,0,0,0c-.17.68-.4,1.36-.59,2h0q.11-.67.22-1.34l.17-.72c.06-.2.13-.4.19-.6,0,0,0-.06,0-.09l0-.05h0a2,2,0,0,1,0,.34s0,0,0,0c-.13.35-.26.7-.38,1.06,0,0,0,0,.05,0,.14-.39.28-.77.41-1.16,0,0,0,0-.05,0h0a2.09,2.09,0,0,0,0-.25.69.69,0,0,0,.22,0v0c-.07.31-.14.63-.2.94,0,.06.08.09.09,0,.05-.24.1-.49.14-.74,0,0,.06,0,.06,0s0-.17,0-.25a1.39,1.39,0,0,0,.4-.14s0,0,0,0a.89.89,0,0,1-.38.13,3.88,3.88,0,0,0-.05-.65.78.78,0,0,0,.27-.08c.06.1.12.2.19.29s.08,0,.06,0l-.18-.3a.92.92,0,0,0,.16-.1s0,0,0,0a.86.86,0,0,1-.15.09L11.87,34a1.66,1.66,0,0,0,.35-.14l.19.36a.23.23,0,0,0,.3.11.28.28,0,0,0,.12.07C17,35.8,20.74,37.35,24.05,40.2,23.74,40,23.42,39.79,23.11,39.61ZM10.12,31c-.12-.22-.22-.45-.33-.68l.17,0c.12.23.24.45.37.67Zm-.33-.7c-.11-.24-.21-.48-.3-.73l-.05-.3c.16.37.33.73.53,1.08ZM8.54,27.08c-.08-.23-.16-.46-.22-.69.11.22.2.44.29.66C8.58,27,8.55,27,8.54,27.08ZM9,28.53l0,.11-.21-.55-.14-.45C8.79,27.93,8.9,28.23,9,28.53Zm8.55,29.64,0,0,0,0ZM7,10.39,7,10.22c0,.08-.05.16-.07.25Zm.33-1.07h0l-.05.1ZM10,8.59a1.5,1.5,0,0,0-.08-.3h0a1,1,0,0,1,.1.31Zm-1.56-1h0ZM8.08,8s0,0,0,.06L8,8.1H8ZM8,8.61s0,0,0,0H8l0,0h0L8,8.6Zm.1-.08h0Zm0-.2.08,0-.09,0Zm.12-.41v0h0Zm0,.24h0Zm-.45.46h0l0-.05h0Zm.39,0h0v0h0Zm0-.37h0l0,0h0Zm.07-.12s0,0,0,0h0v0Zm.68-.68-.11-.06.13.06Zm.91-.41a.07.07,0,0,0-.08,0L9.51,7a.89.89,0,0,1,.27,0,3.33,3.33,0,0,1,.35.3s0,0,0,0a1,1,0,0,1,.08.14l0,0A1.09,1.09,0,0,0,9.81,7.07Zm.35.15h0l0,0h0Zm-.42-.35-.1-.06h0l.19.09ZM9.4,6.81h0Zm1.13.95h0l0,.07,0,0S10.53,7.77,10.53,7.76Zm-.4-1h0Zm.48,1.15v0l0,0ZM10.4,7.1l0,0h0l-.06-.07ZM8.88,6.79h0Zm.51-.2h0Zm-.75.49h0Zm.49-.28h0Zm.44-.16h.06l.12,0h0l.07.06Zm-1,.52,0,0h0l0,0ZM8.64,7h.09l0,0Zm.26.12h0a0,0,0,0,0,0,0h0L8.9,7h0s0,0,0,0h0l.15.05h0l-.17-.06s0,0,0,0l.11,0H8.9Zm1.46.79h0V8s0,0,0,0l0,.06s0,0,0,0h0s0,0,0,0a1,1,0,0,0-.06-.1Zm-1.18-1h0ZM10.31,8l.06.21,0,0h0a1,1,0,0,0-.08-.21ZM9.34,7h0a2.85,2.85,0,0,1,.34.2l0,0,.1.08,0,0,.12.13A2.29,2.29,0,0,0,9.34,7Zm.9,1.15h0a1,1,0,0,1,.08.28h0A1.33,1.33,0,0,0,10.23,8.12ZM8.71,7.42H8.63l0,0,.17.09H8.72l-.1,0h.1S8.74,7.42,8.71,7.42Zm.53-.18a1.68,1.68,0,0,1,.25.18,2,2,0,0,0-.31-.17Zm.14,0h0l.19.12a2.71,2.71,0,0,1,.34.39,0,0,0,0,0,.08,0L10,7.62s0,0,0,0L9.9,7.52l-.11-.13a3.58,3.58,0,0,1,.35.34.49.49,0,0,1,0,.18s0,0,0,0l0,0h0l0,0h0l0,.06a1.4,1.4,0,0,0-.16-.2,0,0,0,1,0,0,0v0A1.67,1.67,0,0,0,9.38,7.25Zm.29.31-.1-.09Zm.61.89,0,0s0,0,0-.06Zm-2.45,0h0Zm.09.32-.07.15-.08,0,.11-.15Zm.29-.5h0Zm.29-.77h0s0,0,0,0l.06,0,.09,0H8.58a0,0,0,0,0,0,0h0ZM9,7.27h.05a2.51,2.51,0,0,1,.76.52h0a1.67,1.67,0,0,1,.17.32l-.09.06-.06-.09A1.23,1.23,0,0,0,9,7.27ZM8,8.15s0,0,0,0H8l-.13.17h0ZM7.56,9.2h0L7.7,9l.09,0-.1.19H7.55Zm2.31-1V8.11h0l0,.08h0Zm-2.31.7.1-.18.06,0h0l-.12.17-.09,0Zm.81-.6h0l.08,0,0,0Zm.69-.59h.08l0,0s0,0,0,0h.07A1.43,1.43,0,0,1,9.63,8a1.51,1.51,0,0,0-.34-.24Zm.92.6.08,0v0h0l.07.26s0,0,0,0h-.06A1,1,0,0,0,10,8.27Zm-2.47.68.07,0-.15.22s0,0,0,0h0Zm1.05-.63h0ZM8.51,8s0,0,0-.07L8.67,8l-.06.07Zm-.07-.3a.65.65,0,0,0,0-.1l.14.12Zm.12-.08H8.7a1.83,1.83,0,0,1,.46.27,1.41,1.41,0,0,0-.49-.19Zm.88.56-.05-.09Zm.46.17,0,.12a.93.93,0,0,0,0-.1S9.9,8.39,9.9,8.38Zm.05.21h0ZM7,10H7l0,.06Zm0-.09,0-.06,0,.06Zm.34-.64,0,0a7.62,7.62,0,0,0-.41.83v-.06C7.11,9.81,7.23,9.55,7.36,9.29Zm.08.18-.12.29h0Zm.07-.11.09,0-.15.26a0,0,0,0,0,0,.06l0,.09-.08,0ZM8,9.17l.05,0L8,9.21ZM8,9.08h.17S8.27,9,8.22,9L8.1,9l0-.07a1.15,1.15,0,0,1,.23.18c.05.06.13,0,.08-.08a.82.82,0,0,0-.11-.11l0,0s.06-.09,0-.1l-.06,0,.07-.1a2.48,2.48,0,0,1,.27.18s.1,0,.07-.06a.83.83,0,0,0-.25-.24l.11,0h0l.25.21a0,0,0,0,0,.06-.06,1.39,1.39,0,0,0-.24-.21s.06,0,0-.05l-.1-.06h0l.11,0s0,0,0,0h0l.09,0A1.51,1.51,0,0,1,9,8.6c0,.06.14,0,.1-.06a1.12,1.12,0,0,0-.34-.35l0,0,.06-.08.2.1s0,0,0,0l.16.17s.11,0,.08-.06A2,2,0,0,0,9,8S9,8,9,8H9l-.18-.13-.08-.08a1.51,1.51,0,0,1,.74.67c0,.05.1,0,.09,0a1,1,0,0,1,.06.11c0,.05.1,0,.1,0a.69.69,0,0,0-.06-.22l.12.13a1.29,1.29,0,0,1,.11.19h-.4l-.1,0a.14.14,0,0,0-.13,0h0a.11.11,0,0,0-.16,0,9.15,9.15,0,0,0-.6.81A1.13,1.13,0,0,0,8,9.08ZM6.69,10.76c-.06.18-.13.36-.17.55C6.58,11.13,6.63,10.95,6.69,10.76Zm-.18.59s0,0,0,0a8,8,0,0,1,.39-1.13l0,.1A9.26,9.26,0,0,0,6.43,12a0,0,0,0,0,.06,0,9,9,0,0,0-.26,1.22s.06,0,.06,0c.16-.92.52-1.81.66-2.73a0,0,0,0,0,.08,0c.09-.25.19-.5.29-.74h0a9.78,9.78,0,0,0-.6,2.2s0,0,0,0A11.89,11.89,0,0,1,7.33,9.8l.08.05,0,0q-.15.36-.28.72s0,0,0,0,0,.1-.05.15a0,0,0,0,0,.07,0l.09-.25.12-.29-.15.38s.05.07.07,0c.18-.41.34-.84.51-1.25h0L7.9,9.3a1,1,0,0,0,.19,0s0,0,0,0a2.15,2.15,0,0,1,.3.26C6.45,12,6.27,15.78,7,19.68a44.23,44.23,0,0,0,3.83,11.39h0l-.31,0-.36-.67a1.06,1.06,0,0,0,.23,0s0,0,0,0a.68.68,0,0,1-.23,0c-.2-.36-.38-.73-.56-1.11l.23,0c.06,0,.07-.09,0-.1l-.3-.07c-.06-.14-.12-.29-.18-.43s0-.21-.08-.31,0,0,0,0-.06-.16-.09-.24a5.2,5.2,0,0,0-.22-.56c-.26-.75-.45-1.52-.72-2.26,0,0-.09,0-.07,0,.14.5.28,1,.43,1.49-.08-.18-.16-.37-.25-.55h0a4.59,4.59,0,0,1-.12-.61s0,0,0,0a5.41,5.41,0,0,0,.26,1.17l-.1-.27-.12-.36a14.12,14.12,0,0,0-.39-1.86.05.05,0,0,0-.1,0c.06.31.12.63.19.94-.21-.66-.4-1.32-.58-2a0,0,0,0,0-.09,0c.08.32.18.64.26,1C6.12,20,5.35,15.37,6.51,11.36Zm.21-.22-.11.4Z"/><path class="cls-2" d="M22.4,49.4l-.23-.31Z"/><path class="cls-2" d="M22.85,50.06l-.19-.28.2.3Z"/><path class="cls-2" d="M17.18,43.33h0l.27-.21s0,0,0,0A.91.91,0,0,0,17.18,43.33Z"/><path class="cls-2" d="M7.32,23.08s.07,0,.06,0q.08.41.17.81l-.15-.53h0l.21.74,0,.13h0l0,.08a0,0,0,0,0,0,0l0-.06s.06,0,0,0c-.08-.49-.22-1-.32-1.45,0,0-.07,0-.07,0q-.13-.62-.26-1.24h0c0-.18-.07-.36-.11-.54-.07-.55-.16-1.1-.24-1.65,0,0-.06,0-.06,0l0,.18c0,.1,0,.19,0,.29a13.85,13.85,0,0,1-.16-1.7h0a10,10,0,0,0,.17,2s0,0,0,0C6.88,21.1,7.08,22.09,7.32,23.08Z"/><path class="cls-2" d="M8,24.38c-.35-1-.55-2.1-.83-3.14a0,0,0,0,0-.05,0A30.31,30.31,0,0,0,8,24.4S8,24.42,8,24.38Z"/></svg>