<?xml version="1.0" encoding="utf-8"?>
<!-- Generator: Adobe Illustrator 21.0.0, SVG Export Plug-In . SVG Version: 6.00 Build 0)  -->
<svg version="1.1" id="Layer_1" xmlns="http://www.w3.org/2000/svg" xmlns:xlink="http://www.w3.org/1999/xlink" x="0px" y="0px"
	 viewBox="0 0 95.8 106.1" style="enable-background:new 0 0 95.8 106.1;" xml:space="preserve">
<g>
	<path d="M0,33.9c0.3,0,0.6,0,0.8,0c1.2,0,1.2,0,1.5-1.2c0.3-1.4,0.8-2.7,1.2-4.1c0.3-1,0.5-2.1,0.9-3.1c0.4-1,0.7-2.1,0.9-3.1
		c0.2-1,0.6-1.9,0.8-2.9c0.2-1,0.6-1.9,0.9-2.9c0.1-0.4,0.3-0.6,0.7-0.6c1.8,0,3.6,0,5.4,0c0.2,0,0.3,0,0.4,0.3
		c0.3,1.6,0.8,3.1,1.2,4.7c0.3,1.2,0.6,2.4,1,3.7c0.3,1,0.6,2.1,0.9,3.1c0.3,1,0.6,2.1,0.8,3.1c0.2,0.8,0.5,1.5,0.6,2.4
		c0,0.4,0.3,0.5,0.6,0.5c0.5,0,1,0,1.5,0c0,1,0,2,0,3.1c-0.3,0-0.6,0-0.9,0c-1.4,0-2.8,0-4.2,0c-0.5,0-0.9-0.2-0.9-0.6
		c-0.1-1.1-0.5-2.2-0.8-3.3c-0.2-0.8-0.3-1.7-0.7-2.5c-0.1-0.2-0.1-0.3-0.4-0.3c-1.8,0-3.6,0-5.3,0c-0.2,1-0.4,1.9-0.6,2.8
		c-0.2,0.8-0.4,1.7-0.7,2.5c0,0.1-0.1,0.3-0.1,0.4c-0.3,1-0.3,1-1.3,1c-1.5,0-3,0-4.6,0C0,36,0,34.9,0,33.9z M8.1,27.4
		c1.4,0,2.6,0,3.8,0c0.3,0,0.5-0.2,0.4-0.4c-0.3-0.5-0.1-1-0.3-1.5c-0.6-1.8-0.9-3.8-1.4-5.7c-0.1-0.2-0.2-0.5-0.3-0.8
		C9.5,21.9,8.8,24.6,8.1,27.4z"/>
	<path d="M0,61.2c31.9,0,63.8,0,95.7,0c0,0.3,0,0.6,0.1,1c-32,0-63.9,0-95.8,0C0,61.9,0,61.6,0,61.2z"/>
	<path d="M80.7,17.6c0.2,0.6,0.5,1.2,0.5,1.8c0,0.3,0.1,0.5,0.1,0.8c0,4.3,0,8.6,0,13c0,1.3-0.6,2.3-1.8,2.9
		c-1.1,0.6-2.1,0.9-3.4,0.9c-2,0-4,0-6,0c-0.8,0-1.6-0.2-2.4-0.5c-1.5-0.5-2.1-1.5-2.5-2.9c-0.2-1.1-0.2-2.2-0.2-3.3
		c0-3.2,0-6.5,0-9.7c0-0.7,0.2-1.4,0.5-2.1c0.5-1.2,1.5-1.8,2.6-2.1c0.7-0.2,1.4-0.3,2.2-0.3c2,0.1,4.1,0.1,6.1,0
		c1,0,1.9,0.3,2.8,0.5c0.2,0,0.4,0.3,0.6,0.4c0,0,0.1-0.1,0.1-0.1c0.2-0.4,0.3-0.7,0.5-1.1c-0.4-0.3-0.1-0.9-0.3-1.2
		c-0.3-0.4-0.2-0.8-0.2-1.2c0-0.6,0-1.1,0-1.7c0-2.1,0.7-4,1.9-5.7c1.4-2,3.3-3.5,5.6-4.5c0.6-0.3,1.2-0.6,1.8-0.8
		c0.6-0.3,1.3-0.4,1.9-0.6c0.5-0.2,1.2,0,1.8,0c-0.3,0.9-0.5,1.8-0.7,2.7c-0.2,1.1-0.4,2.1-0.6,3.2c-0.2,1-0.4,2.1-0.8,3
		c-0.9,2.6-2.3,4.8-4.9,5.9c-1.1,0.5-2.2,1.1-3.5,1.1c-0.4,0.4-0.9,0.2-1.4,0.3c0,0.2,0,0.4,0,0.6c0,0.1,0.1,0.3,0.2,0.3
		c0.3,0.2,0.6,0.3,0.9,0.5c0.2,0.1,0.4,0.2,0.6,0.2c0.2,0,0.3-0.2,0.5-0.3c1.4-1.2,3.1-1.7,4.9-1.5c1.4,0.2,2.8,0.8,4,1.6
		c1.1,0.7,2.1,1.4,3.2,2.1c-0.8,1.1-2.1,1.5-3.3,2c-1.5,0.6-3.1,0.7-4.6,0.5c-1.1-0.2-2.2-0.6-3.1-1.5c-0.5-0.5-1.1-1-1.5-1.7
		c-0.2-0.4-0.5-0.8-1-0.9c-0.2,0-0.4-0.2-0.6-0.3C81,17.9,80.9,17.7,80.7,17.6z M77,26.6c0-0.6,0-1.3,0-1.9c0-1.4,0-2.7,0-4.1
		c0-0.5-0.2-1-0.6-1.3c-0.3-0.2-0.8-0.3-1.2-0.3c-1.4,0-2.7,0-4.1,0c-0.2,0-0.5,0.1-0.6,0.2c-0.3,0.2-0.7,0.3-0.8,0.6
		c-0.2,0.4-0.3,0.9-0.3,1.3c0,3.8,0,7.5,0,11.3c0,1,0.6,1.6,1.6,1.6c1.6,0,3.2,0,4.8,0c0.4,0,0.7-0.2,0.9-0.4
		c0.2-0.3,0.4-0.5,0.4-0.9C77,30.6,77,28.6,77,26.6z"/>
	<path d="M57.5,26.3c0.3,0.2,0.5,0.3,0.7,0.3C59.3,27,60,27.8,60,29c0,1.6,0,3.2,0,4.8c0.7,0,1.4,0,2.1,0c0,1.1,0,2.1,0,3.2
		c-1.9,0-3.8,0-5.7,0c-0.5,0-0.7-0.2-0.7-0.7c0-2.2,0-4.4,0-6.6c0-0.8-0.3-1.2-1-1.5c-0.2-0.1-0.5-0.1-0.7-0.1c-1.7,0-3.4,0-5.3,0
		c0,0.3,0,0.6,0,0.9c0,2.2,0,4.4,0,6.6c0,0.2,0,0.5,0,0.7c0,0.4-0.2,0.6-0.6,0.6c-1.7,0-3.4,0-5.2,0c-0.5,0-0.7-0.2-0.7-0.7
		c0-0.8,0-1.5,0-2.4c0.7,0,1.4,0,2.1,0c0-4.9,0-9.7,0-14.7c-0.7,0-1.4,0-2.1,0c0-1.1,0-2.1,0-3.1c0.4,0,0.8,0,1.2,0
		c2.9,0,5.8,0.1,8.8,0c1.3,0,2.6,0.2,3.9,0.3c1,0.1,2,0.6,2.7,1.5c0.5,0.7,0.8,1.5,0.7,2.3c0,1.1,0,2.2,0,3.2
		C59.5,25,59.1,25.7,57.5,26.3z M48.7,19.2c0,1,0,1.9,0,2.9c0,0.9,0,1.9,0,2.9c1.7,0,3.3,0,5,0c0.5,0,1-0.1,1.3-0.4
		c0.3-0.3,0.4-0.8,0.5-1.2c0.1-0.8,0-1.7,0-2.5c0-0.6-0.4-0.9-0.8-1.4c-0.3-0.3-0.6-0.3-1-0.3C52.1,19.2,50.4,19.2,48.7,19.2z"/>
	<path d="M34.1,33.9c0-2,0-3.8,0-5.7c-1.4,0-2.8,0-4.2,0c0-1.1,0-2.1,0-3.1c2.8,0,5.5,0,8.3,0c0,0.3,0,0.7,0,1c0,3.2,0,6.4,0,9.6
		c0,0.2,0,0.4,0,0.6c0,0.6-0.2,0.7-0.8,0.7c-1.4,0-2.9,0-4.3,0c-0.7,0-1.4-0.1-2.2,0c-1.6,0.1-3.2-0.2-4.8-0.3
		c-0.7,0-1.5-0.2-2.1-0.7c-0.5-0.4-1-0.8-1.4-1.3c-0.3-0.5-0.5-1.1-0.6-1.7c-0.4-3.5-0.2-7-0.2-10.5c0-0.6,0.1-1.1,0.2-1.7
		c0.1-0.5-0.2-1.1,0.2-1.6c0.3-1.5,1.4-2.1,2.7-2.7c0.6-0.3,1.2-0.1,1.8-0.3c1.8-0.4,3.5-0.2,5.3-0.2c1.8,0,3.6,0,5.4,0
		c0.1,0,0.2,0,0.4,0c0,2,0,4.1,0,6.2c-1.2,0-2.5,0-3.8,0c0-1,0-2,0-3.1c-0.4,0-0.7,0-1.1,0c-1.7,0-3.4,0-5,0c-0.6,0-1,0.3-1.4,0.7
		c-0.1,0.1-0.2,0.2-0.2,0.3c-0.1,0.6-0.2,1.3-0.2,1.9c0,2.9,0,5.8,0,8.8c0,0.7,0.2,1.4,0.3,2.1c0,0.6,0.6,0.9,1.3,0.9
		C29.8,33.9,31.9,33.9,34.1,33.9z"/>
	<path d="M6.2,47.3c-0.5,0-0.9,0-1.4,0c0-0.6,0-1.2,0-1.9c0.3,0,0.7,0,1,0c2.6,0,5.2,0,7.8,0c0.8,0,1.5,0.2,2.2,0.3
		c0.4,0.1,0.8,0.4,1.1,0.7c0.3,0.4,0.7,0.6,0.6,1.2c0,0.2,0.1,0.3,0.2,0.5c0.2,0.8-0.1,2.2-0.7,2.8c-0.2,0.1-0.4,0.2-0.6,0.3
		c-0.2,0.1-0.4,0.2-0.5,0.3c0,0.3,0.3,0.1,0.4,0.2c0.8,0.3,1.2,0.9,1.2,1.7c0,0.8-0.1,1.5,0,2.3c0.1,0.7-0.2,1.3-0.6,1.7
		c-0.5,0.5-1.1,0.9-1.9,0.8c0,0-0.1,0-0.1,0c-3.4,0-6.7,0-10.1,0c0-0.5,0-1,0-1.6c0.4,0,0.9,0,1.4-0.1C6.2,53.4,6.2,50.4,6.2,47.3z
		 M9.4,56.4c1.2,0,2.3,0,3.3,0c0.4,0,0.8-0.1,1.2-0.2c0.4-0.2,0.7-0.4,0.7-1c0-0.6,0-1.1,0-1.7c0-0.7-0.5-1.2-1.2-1.2
		c-1.3,0-2.7,0-4.1,0C9.4,53.7,9.4,55.1,9.4,56.4z M9.4,50.4c1.5,0,2.9,0,4.3,0c0.4,0,0.6-0.2,0.7-0.5c0.3-0.5,0.2-1.1,0.2-1.7
		c0-0.5-0.4-1-0.9-1c-1.4,0-2.9,0-4.3,0C9.4,48.4,9.4,49.4,9.4,50.4z"/>
	<path d="M57.3,47.3c-0.6,0-1.1,0-1.6,0c0,3.6,0,7.1,0,10.8c-0.9,0-1.7,0-2.5,0c-0.6,0-0.9-0.5-1.1-0.8c-0.6-0.9-1.3-1.7-1.9-2.6
		c-0.6-0.9-1.2-1.7-1.9-2.6c-0.6-0.8-1.1-1.6-1.6-2.5c-0.1-0.2-0.2-0.3-0.5-0.6c0,3.1,0,6,0,9c-1.5,0-2.9,0-4.3,0c0-0.5,0-1,0-1.6
		c0.4,0,0.9,0,1.4,0c0-3.1,0-6.1,0-9.1c-0.4,0-0.9,0-1.4,0c0-0.7,0-1.3,0-1.9c1.5,0,2.9,0,4.4,0c0.5,0,0.6,0.4,0.9,0.7
		c0.4,0.6,0.8,1.3,1.3,1.9c0.8,1.1,1.5,2.2,2.3,3.3c0.6,0.9,1.2,1.9,1.9,2.8c0.1,0.1,0.2,0.1,0.3,0.3c0-3,0-6,0-8.9
		c1.5,0,2.9,0,4.3,0C57.3,46,57.3,46.6,57.3,47.3z"/>
	<path d="M66.5,58.1c0-1.2,0-2.4,0-3.6c1,0,2,0,3.1,0c0,0.6,0,1.2,0,1.9c1.2,0,2.3,0,3.4,0c0.4,0,0.8-0.1,1.2-0.2
		c0.3-0.1,0.4-0.3,0.4-0.6c0-0.6,0-1.2,0-1.8c0-0.6-0.3-0.9-0.9-0.9c-0.6,0-1.1,0-1.7,0c-0.6,0-1.2,0-1.8,0c-0.7,0-1.7-0.3-2.5-0.7
		c-0.7-0.3-1-0.9-1-1.6c0-0.9,0-1.8,0-2.6c0-1,0.5-1.6,1.3-2c0.5-0.3,1.1-0.5,1.7-0.5c2.5,0,5,0,7.5,0c0.1,0.6,0,1.2,0,1.7
		c0,0.6,0,1.2,0,1.8c-0.9,0-1.9,0-2.9,0c0-0.5,0-1,0-1.6c-1.3,0-2.5,0-3.7,0c-0.8,0-1.1,0.3-1.2,1.1c0,0.4,0,0.7,0,1.1
		c0,0.7,0.5,1.2,1.2,1.2c1.2,0,2.5,0,3.7,0c0.4,0,0.8,0.2,1.2,0.2c0.5,0,0.7,0.4,1,0.5c0.8,0.3,0.9,1.1,1,1.8c0.1,0.8,0,1.7,0,2.5
		c0,1-0.5,1.6-1.3,2c-0.6,0.3-1.1,0.5-1.7,0.5C72,58.1,69.3,58.1,66.5,58.1z"/>
	<path d="M27.4,49.4c0-1.4,0-2.7,0-4c3.9,0,7.8,0,11.6,0c0,0,0.1,0.1,0.1,0.2c0,1.6,0,1.6-1.1,2.7c-0.5,0.5-1,1.1-1.4,1.7
		c-0.5,0.6-1.1,1-1.5,1.7c-0.1,0.2-0.4,0.4-0.6,0.6c-1.3,1.4-2.6,2.8-3.9,4.2c1.9,0,3.8,0,5.7,0c0.1-0.7,0-1.5,0.1-2.3
		c0.9,0,1.8,0,2.8,0c0,1.3,0,2.6,0,4c-3.9,0-7.9,0-11.8,0c0,0-0.1-0.1-0.1-0.2c0-0.5-0.1-1.1,0-1.5c0.2-0.4,0.7-0.7,1-1.1
		c0.5-0.6,1-1.1,1.4-1.7c0.5-0.6,1.2-1,1.5-1.7c0.1-0.2,0.3-0.3,0.4-0.4c1.3-1.3,2.5-2.7,3.8-4.1c-1.8,0-3.5,0-5.3,0
		c0,0.7,0,1.4,0,2.1C29.3,49.4,28.4,49.4,27.4,49.4z"/>
	<path d="M24,50.2c0.6-1.2,0.8-2.5,1.6-3.6c0.4,0.6-0.2,1.1-0.1,1.6c0,0.3-0.2,0.6-0.2,0.9c0,0.3-0.1,0.6-0.2,0.9
		c-0.2,0.6-0.2,1.3-0.3,1.9c-0.1,0.4-0.2,0.8-0.2,1.2c-0.1,0.4,0,0.7-0.2,1.1c-0.2,0.4-0.1,1,0,1.5c0,0.6-0.2,1.1-0.7,1.5
		c-0.5,0.5-0.5,0.5-0.5,1c0,0.1,0,0.2,0,0.4c-0.6,0-1.2,0-1.9,0c0-0.6,0-1.3-0.7-1.7c-0.1-0.5-0.6-0.9-0.6-1.6
		c0-1.3-0.4-2.6-0.8-3.9C19,51.1,19,50.8,19,50.3c0.4,0.5,0.7,0.8,1.1,1.2c0-0.1,0.1-0.3,0.1-0.4c-0.1-0.3,0.6-0.3,0.4-0.7
		c-0.1-0.2-0.3-0.4-0.4-0.7c-0.1-0.3,0-0.6,0.3-0.7c0.3-0.1,0.7-0.3,0.9,0.2c0,0.1,0.1,0.1,0.1,0.2c0.1-0.1,0.1-0.2,0.2-0.2
		c0.1-0.1,0.1-0.2,0.2-0.2c0.3,0,0.6-0.1,0.9,0.2c0.2-0.3,0.6-0.3,0.9-0.2c0.2,0,0.4,0.3,0.5,0.4C24.1,49.7,24,49.9,24,50.2z"/>
	<path d="M2.9,80.2c-0.4,0-0.7,0-1,0c0-4,0-8.1,0-12.1c1.2-0.2,1.2-0.1,1.8,0.8c0.9,1.6,1.9,3.2,2.9,4.8c0.6,1.1,1.2,2.2,1.9,3.3
		c0.3,0.6,0.7,1.1,1.1,1.8c0-3.6,0-7.2,0-10.8c0.4,0,0.8,0,1.2,0c0,4,0,8.1,0,12.1c0,0-0.1,0.1-0.1,0.1c-1.6,0.1-1.5,0-2.4-1.4
		c-0.8-1.5-1.8-2.8-2.6-4.3c-0.6-1.1-1.4-2.1-1.9-3.3c-0.2-0.5-0.5-0.8-0.9-1.4C2.9,73.3,2.9,76.7,2.9,80.2z"/>
	<path d="M53.3,80.4c-2.1,0.1-3.6-1-4.9-2.4c-0.2-0.3-1-2.3-1-2.7c-0.1-1.5-0.1-3.1,0.8-4.5c0.9-1.4,2.1-2.5,3.9-3
		c1.1-0.3,2.1-0.1,3.1,0.1c1,0.3,1.9,0.8,2.6,1.6c0.7,1,1.6,1.9,1.6,3.3c0.6,1.1,0.2,2.2-0.1,3.1c-0.3,1.2-0.9,2.4-2.1,3.1
		C55.9,80.1,54.7,80.5,53.3,80.4z M48.4,74.1c0,0.6,0,1.2,0.1,1.8c0.3,1.3,1,2.2,2.1,2.8c0.9,0.5,1.9,0.9,2.9,0.8
		c0.7-0.1,1.4-0.4,2.1-0.6c0.8-0.3,1.3-1,1.8-1.6c0.5-0.6,0.7-1.4,0.8-2.2c0.2-1.3-0.1-2.6-0.7-3.8c-0.5-1-1.4-1.7-2.5-2.1
		c-1.1-0.4-2.4-0.4-3.5,0c-1.1,0.4-2,1.1-2.6,2.2C48.6,72.2,48.4,73.1,48.4,74.1z"/>
	<path d="M37,68c1.3,0,2.6-0.1,3.8,0c0.9,0.1,1.6,0.5,2.3,1.2c0.5,0.6,0.8,1.2,0.8,1.9c0,1-0.3,1.8-1.3,2.3c-0.1,0-0.1,0.1-0.2,0.2
		c0.1,0.1,0.2,0.2,0.4,0.3c1.2,0.6,1.6,1.5,1.6,2.8c0,0.5,0.1,1-0.2,1.5c-0.7,1.3-1.7,2-3.2,2c-1.3,0-2.6,0-4,0
		C37,76.1,37,72.1,37,68z M37.9,79.2c0.9,0,1.8,0,2.6,0c0.6,0,1.2-0.3,1.7-0.5c0.6-0.3,1.3-1.7,1.2-2.2c-0.2-0.6-0.4-1.3-1-1.7
		c-0.5-0.4-1.1-0.6-1.8-0.6c-0.9,0-1.8,0-2.7,0C37.9,75.9,37.9,77.5,37.9,79.2z M37.9,73.2c0.6,0,1.1-0.1,1.6,0
		c0.6,0.1,1-0.2,1.6-0.3c0.7-0.1,1.2-0.6,1.5-1.1c0.2-0.4,0.3-1,0-1.5c-0.3-0.6-0.7-1.1-1.3-1.2c-0.6-0.1-1.1-0.4-1.7-0.3
		c-0.6,0.1-1.2,0-1.8,0C37.9,70.4,37.9,71.8,37.9,73.2z"/>
	<path d="M59.6,51.9c0.1-0.1,0.1-0.2,0.1-0.2c0.1-1.1,0.1-1.1,1.2-0.9c0.1,0,0.2-0.1,0.3-0.1c0.3,0,0.6-0.1,0.8,0.1
		c0.2,0.2,0.2,0.8,0.4,0c0-0.1,0.5-0.1,0.8-0.1c0.2,0.1,0.3,0.4,0.4-0.1c0.3-1.1,0.6-2.1,1-3.2c0.1-0.2,0.1-0.3,0.3-0.5
		c0.1-0.1,0.2-0.1,0.3-0.1c0,0,0.1,0.1,0,0.2c-0.3,1-0.4,2.1-0.7,3.2c-0.1,0.4-0.2,0.8-0.2,1.2c-0.1,0.4-0.2,0.7-0.2,1.1
		c-0.1,0.4,0,0.8-0.2,1.2c-0.2,0.5-0.1,1,0,1.5c0,0.4-0.1,0.8-0.2,1.2c-0.1,0.5-0.4,0.7-0.8,0.9c-0.1,0-0.1,0.2-0.2,0.4
		c0,0.2,0.1,0.4,0,0.6c-0.1,0.2-0.3,0.4-0.5,0.4c-0.2,0.1-0.5,0-0.7,0c-0.9,0-0.9,0-1-0.9c0-0.3-0.1-0.5-0.3-0.7
		c-0.5-0.8-0.8-1.7-0.9-2.6c0-0.4,0.1-0.9-0.2-1.2c0.2-0.8-0.5-1.5-0.5-2.3c0-0.1-0.1-0.2-0.1-0.3c0.2,0,0.3-0.1,0.5,0
		c0.2,0.1,0.3,0.2,0.4,0.4C59.4,51.3,59.5,51.6,59.6,51.9z"/>
	<path d="M24,80.1c-0.1,0-0.1,0.1-0.2,0.1c-0.9,0-0.9,0-1.2-0.9c-0.4-0.9-0.7-1.8-1-2.7c-0.1-0.3-0.3-0.5-0.6-0.5
		c-1.4,0-2.9,0-4.3,0c-0.4,0-0.5,0.2-0.6,0.6c-0.3,0.9-0.6,1.8-0.9,2.7c-0.3,0.8-0.3,0.8-1,0.8c-0.1,0-0.2,0-0.4,0
		c0,0-0.1-0.1-0.1-0.1c1.4-4,2.9-8.1,4.3-12.2c0.4,0,0.7,0.1,1.1,0c0.6-0.1,0.7,0.3,0.8,0.6c0.7,2.2,1.5,4.2,2.3,6.4
		c0.6,1.7,1,3.4,1.9,5C24,79.9,24,80,24,80.1z M18.8,68.8c-0.4,1.3-0.9,2.5-1.3,3.7c-0.2,0.7-0.4,1.3-0.7,2c-0.2,0.4,0,0.6,0.4,0.6
		c1.3,0,2.6,0,3.9,0c-0.4-1.1-0.8-2.1-1.1-3.1C19.6,71,19.2,70,18.8,68.8z"/>
	<path d="M81.8,71.1c0.1-0.4-0.2-1,0.2-1.3c0.3-1.4,1.5-1.7,2.6-2c1.1-0.3,2.2,0,3.1,0.9c0.3,0.3,0.6,0.6,0.8,1
		c0.1,0.1,0.1,0.3,0.1,0.4c-0.3-0.2-0.5,0.6-0.8,0.1c-0.3-0.3-0.6-0.6-0.8-0.9c-0.3-0.3-0.7-0.5-1.2-0.5c-0.2,0-0.5,0-0.7,0
		c-1.3,0-2.3,1-2.3,2.4c0,0.4,0.6,1.3,0.9,1.5c0.7,0.4,1.4,0.5,2.1,0.7c0.9,0.2,1.6,0.7,2.2,1.3c0.8,0.8,1.1,1.8,1,2.9
		c-0.1,0.5-0.4,1-0.7,1.4c-0.8,0.8-1.7,1.3-2.9,1.4c-1.3,0.1-2.4-0.5-3.3-1.3c-0.1-0.1-0.2-0.3-0.3-0.5c-0.4-0.7-0.3-0.9,0.3-1.1
		c0.1,0,0.3,0.1,0.4,0.1c0.2,1.3,1.4,1.3,2.3,1.7c0.9,0.4,2.4-0.4,2.8-1.3c0.5-1.2,0.3-2.6-1-3.1c-0.7-0.3-1.4-0.6-2.2-0.8
		c-0.7-0.2-1.3-0.5-1.9-1C82,72.6,81.7,71.9,81.8,71.1z"/>
	<path d="M33.1,68c0,3,0.1,6,0,9c-0.1,3.2-3.2,4.2-5.5,2.9c-0.8-0.4-1.3-1.3-1.6-2.2c-0.1-0.2-0.1-0.5,0.3-0.5c0.4,0,0.7,0,0.9,0.4
		c0.4,0.8,1,1.4,2,1.5c0.6,0.1,1.4,0,1.8-0.4c0.7-0.6,1-1.3,1-2.2c-0.1-2.5,0-5.1,0-7.7c-0.8,0-1.5,0-2.3,0c0-0.3,0-0.6-0.1-1
		C30.7,68,31.8,68,33.1,68z"/>
	<path d="M77,68.9c-0.8,0-1.6,0-2.4,0c0-0.3,0-0.6,0-0.9c1.1,0,2.3,0,3.6,0c0,0.4,0,0.9,0,1.3c0,2.4,0,4.7,0,7.1
		c0,0.7-0.2,1.3-0.3,1.9c-0.2,0.7-0.8,1.3-1.5,1.7c-1.2,0.7-2.4,0.6-3.7,0c-1-0.5-1.4-1.3-1.8-2.3c-0.1-0.2,0-0.4,0.3-0.4
		c0.4,0,0.7,0,0.9,0.4c0.4,0.9,1.1,1.5,2.1,1.6c0.1,0,0.4,0.2,0.4,0.2c0.3-0.4,0.8-0.1,1.1-0.3c0.7-0.6,1.3-1.2,1.3-2.3
		C77,74.2,77,71.6,77,68.9z"/>
	<path d="M63.4,68c0.3,0,0.6,0,0.9,0c0,3.7,0,7.4,0,11.1c0.1,0.1,0.1,0.1,0.1,0.1c0,0,0.1,0,0.1,0c1.5,0,3,0,4.6,0
		c0,0.2,0,0.4,0,0.6c0,0.2-0.1,0.4-0.3,0.4c-1.8,0-3.6,0-5.4,0C63.4,76.1,63.4,72.1,63.4,68z"/>
	<path d="M68.9,92.9c0-2.4,0-4.6,0-7c0.7,0,1.4,0.1,2,0c0.7-0.1,1,0.3,1.4,0.6c0.3,0.2,0.4,0.8,0.4,1.3c-0.1,0.5,0.1,1-0.4,1.4
		c0,0,0,0.3,0.1,0.4c0.2,0.3,0.5,0.5,0.7,0.9c0.2,0.4,0.2,0.7,0,1.1c-0.3,0.5-0.3,1.1-1,1.2c-0.2,0-0.4,0.1-0.7,0.1
		C70.6,92.9,69.8,92.9,68.9,92.9z M69.6,92.4c0.6,0,1.1,0,1.6,0c0.1,0,0.3-0.1,0.4-0.2c0.3-0.3,0.7-0.6,0.9-1
		c0.2-0.5-0.5-1.4-1.1-1.4c-0.6,0-1.2,0-1.8,0.1c0,0.5,0,1,0,1.5C69.6,91.7,69.6,92,69.6,92.4z M69.6,89.1c0.4,0,0.7,0,1.1,0
		c0.3,0.1,0.6-0.1,0.9-0.3c0.4-0.2,0.8-1,0.7-1.3c-0.1-0.4-0.7-0.8-1.2-0.8c-0.5,0-0.9,0-1.4,0C69.6,87.5,69.6,88.3,69.6,89.1z"/>
	<path d="M62.6,101.3c0,0.3,0,0.6,0,0.8c0.1,0.3-0.1,0.6-0.3,0.9c-0.7,1-1.4,1.8-2.8,1.7c-0.9-0.1-1.7,0-2.4-0.7
		c-0.5-0.5-1.2-1.4-1.3-2c-0.1-1.5,0.2-3.3,2.3-4.1c0.8-0.3,2.1-0.3,2.8,0.1c0.7,0.4,1.3,0.9,1.5,1.7c0,0.1,0.2,0.2,0.2,0.3
		C62.7,100.5,62.6,100.9,62.6,101.3z M59.4,98.4c-0.8,0.1-1.2,0.2-1.5,0.4c-1,0.7-1.3,1.8-1.2,3c0.1,1,0.9,1.6,1.6,2.2
		c0.4-0.1,0.8,0.2,1.1,0.2c0.4,0,0.8-0.3,1.2-0.4c0.5-0.1,0.8-0.5,1.1-0.9c0.3-0.5,0.5-1.1,0.5-1.7c0-0.5-0.3-0.9-0.4-1.4
		c-0.1-0.7-0.8-0.9-1.3-1.2C60.2,98.4,59.7,98.4,59.4,98.4z"/>
	<path d="M83.5,86c0.9,0,1.6,0,2.4,0c1,0,1.8,0.6,2.1,1.7c0.2,0.7-0.3,1.6-1.1,2.1c-0.3,0.2-0.6,0.2-1,0.3c0.7,0.9,1.4,1.8,2.1,2.7
		c-0.5,0.1-0.9,0.2-1.3-0.5c-0.4-0.8-1.1-1.4-1.7-2.2C85,90,84.6,90.1,84.2,90c0,0.9,0,1.8,0,2.6c0,0.3-0.1,0.3-0.4,0.3
		c-0.2,0-0.4,0-0.4-0.3C83.5,90.4,83.5,88.2,83.5,86z M84.3,86.7c0,1,0,1.8,0,2.6c0.6,0,1.1,0,1.7,0c0.1,0,0.2,0,0.2,0
		c0.4-0.1,0.7-0.1,0.9-0.6c0.4-1-0.1-2-1.2-2C85.4,86.7,84.9,86.7,84.3,86.7z"/>
	<path d="M81.4,89.5c0,0.4,0,0.7,0,0.9c0.1,0.3-0.1,0.6-0.3,0.9c-0.7,1-1.5,1.7-2.8,1.7c-0.9,0-1.7,0-2.3-0.7c-1-0.3-1.1-1.2-1.3-2
		c-0.3-1.5,0.2-3.3,2.2-4c0.8-0.3,2-0.3,2.8,0.1c0.9,0.6,1,0.7,1.5,1.7C81.5,88.6,81.3,89.1,81.4,89.5z M75.3,89.6
		c0.1,0.4,0.1,0.9,0.3,1.3c0.4,0.5,0.8,1,1.4,1.3c0.8,0.5,2.3,0,3-0.6c0.5-0.4,0.6-1,0.8-1.6c0.2-0.4-0.1-0.8-0.1-1.2
		c-0.2-0.9-0.6-1.7-1.5-2c-0.5-0.2-1.1-0.1-1.6-0.2c-0.4,0-0.7,0.2-1,0.4C75.7,87.7,75.3,88.5,75.3,89.6z"/>
	<path d="M9.9,92.9c0-2.3,0-4.6,0-7c0.9,0,1.8,0,2.7,0c0.7,0,1.2,0.4,1.7,0.9c0.8,0.8,1.3,1.8,1.1,2.9c-0.2,1.2-0.5,2.5-2,3
		c-0.2,0.1-0.5,0.2-0.7,0.2C11.7,92.9,10.8,92.9,9.9,92.9z M10.6,92.4c0.5,0,0.8,0,1.2,0c0.4,0,0.7-0.1,1.1-0.2
		c0.3-0.1,0.8-0.3,1-0.5c0.6-0.8,1-1.7,0.8-2.8c-0.1-0.7-0.5-1.3-1.1-1.7c-0.4-0.4-0.9-0.5-1.5-0.5c-0.5,0-1,0-1.5,0
		C10.6,88.6,10.6,90.5,10.6,92.4z"/>
	<path d="M24.3,104.6c-0.6,0-0.9,0.1-1.1-0.4c-0.4-0.7-0.9-1.3-1.4-1.9c-0.1-0.2-0.3-0.4-0.5-0.5c-0.2-0.1-0.6,0.1-0.6,0.3
		c0,0.8,0,1.5,0,2.3c0,0.3-0.2,0.3-0.4,0.3c-0.2,0-0.3-0.1-0.3-0.3c0-2.2,0-4.4,0-6.6c0.8,0,1.5,0,2.3,0c0.4,0,0.9,0.1,1.3,0.3
		c0.3,0.2,0.4,0.7,0.6,1.1c0.3,0.6,0.1,1.1-0.1,1.7c-0.3,0.6-0.7,0.9-1.4,1c-0.3,0-0.1,0.1-0.1,0.3c0.2,0.3,0.4,0.7,0.6,1.1
		C23.4,103.6,23.8,104.1,24.3,104.6z M20.7,98.4c0,0.9,0,1.8,0,2.6c0.6,0,1.2,0,1.8,0c0.4,0,0.6-0.1,0.8-0.5c0.6-1.2,0-2.1-1.3-2.1
		C21.6,98.4,21.2,98.4,20.7,98.4z"/>
	<path d="M55,89.5c0,0.3,0,0.6,0,0.8c0.1,0.3-0.1,0.6-0.3,0.9c-0.7,1-1.5,1.8-2.8,1.7c-0.5,0-1,0-1.5-0.1c-1.3-0.4-2-1.5-2.1-2.8
		c-0.2-1.6,0.4-2.9,1.9-3.7c1.6-0.9,4-0.1,4.7,1.9C55.1,88.6,54.9,89.1,55,89.5C54.9,89.5,55,89.5,55,89.5z M51.6,86.7
		c-0.7-0.1-1.3,0.2-1.9,0.8c-0.6,0.6-0.7,1.3-0.8,2.1c-0.1,0.7,0.3,1.2,0.5,1.7c0.2,0.5,0.7,0.5,1,0.8c0.3,0.3,0.8,0.1,1.2,0.3
		c0.6-0.4,1.5-0.2,2-0.9c0.5-0.6,0.8-1.3,0.8-1.9C54.3,88,53.6,86.5,51.6,86.7z"/>
	<path d="M13.2,101.2c0,0.4,0,0.7,0,1c0,0.2,0,0.3,0,0.5c-0.3,0.7-0.9,1.2-1.5,1.7c-0.3,0.2-0.8,0.3-1.3,0.3c-0.2,0-0.5,0-0.7,0
		c-1,0.2-1.7-0.4-2.2-0.9c-0.6-0.6-1-1.4-1-2.3c0-1.7,0.7-2.8,2.2-3.5c1-0.4,1.9-0.2,2.8,0.1c0.5,0.2,1.2,1,1.5,1.5
		C13.3,100.1,13.2,100.7,13.2,101.2z M9.9,98.4c-1.6,0-2.6,1.1-2.7,2.8c0,0.8,0.2,1.4,0.6,2c0.5,0.6,1.3,0.7,2,1
		c0.6-0.4,1.5-0.3,2-0.9c0.6-0.6,0.6-1.5,0.9-2.2c-0.3-0.7-0.2-1.6-0.9-2.1C11.2,98.6,10.6,98.4,9.9,98.4z"/>
	<path d="M32.4,101.5c-0.1,0.4,0.1,1-0.2,1.5c-0.7,1-1.5,1.8-2.8,1.7c-0.9,0-1.6-0.1-2.4-0.6c-0.7-0.6-1.2-1.3-1.3-2
		c-0.3-1.7,0.2-3.3,2.4-4.2c0.9-0.3,1.8-0.2,2.7,0.3c0.5,0.3,1.1,0.9,1.3,1.3c0.1,0.2,0.3,0.4,0.3,0.6
		C32.4,100.5,32.4,100.9,32.4,101.5z M26.4,101c0,1.4,0.4,2.1,1.2,2.7c0.5,0.3,1.1,0.1,1.5,0.5c0.5-0.4,1.2-0.1,1.7-0.6
		c0.5-0.5,0.9-1,0.9-1.8c0.1-1.2-0.1-2.2-0.6-2.7c-0.9-0.9-2.8-1-3.8-0.1C26.6,99.7,26.4,100.4,26.4,101z"/>
	<path d="M40.8,99.2c0,1.7,0,3.3,0,5c0,0.3,0,0.5-0.4,0.4c-0.1,0-0.2-0.1-0.3-0.2c0,0,0-0.1,0-0.1c0-2.2,0-4.4,0-6.5
		c0.6-0.3,0.9,0,1.2,0.5c0.9,1.6,1.8,3.2,2.6,4.8c0.1,0.2,0.2,0.4,0.4,0.7c0-0.3,0.1-0.5,0.1-0.7c0-1.5,0-3,0-4.6c0-0.2,0-0.4,0-0.6
		c0-0.1,0.1-0.2,0.2-0.2c0.1,0.1,0.2,0.2,0.3,0.3c0,0.1,0,0.2,0,0.2c0,2.1,0,4.2,0,6.3c-0.6,0.3-0.9,0.1-1.2-0.5
		c-0.1-0.2-0.2-0.3-0.3-0.5c-0.6-1.1-1.3-2.3-1.9-3.4c-0.1-0.2-0.2-0.4-0.3-0.6c-0.1-0.2-0.2-0.3-0.3-0.5
		C40.9,99.2,40.8,99.2,40.8,99.2z"/>
	<path d="M59.7,48.7c0.1-0.4-0.1-0.9,0.2-1.3c0.1-0.1,0-0.3-0.1-0.4c0-0.1-0.1-0.3-0.1-0.4c0-0.3-0.1-0.7,0.3-1
		c0.4-0.2,0.7,0,0.9,0.3c0,0,0.2,0,0.3-0.1c0,0,0.1-0.2,0-0.2c-0.4-0.3-0.5-0.7-0.3-1.1c0.2-0.4,0.7-0.3,1.1-0.3
		c0,0.4,0.2,0.9-0.2,1.3c-0.1,0.1,0.2,0.5,0.3,0.8c0.2-0.2,0.3-0.4,0.4-0.6c0-0.1,0.1-0.1,0.2-0.1c0.5,0,0.9,0.9,0.5,1.2
		c-0.4,0.3-0.2,0.5-0.1,0.7c0.1,0.3,0.3,0.4,0.1,0.8c-0.2,0.3-0.3,0.4-0.6,0.4c-0.2,0-0.4,0.1-0.5-0.3c0-0.2-0.2-0.1-0.2,0.1
		c0,0.1-0.2,0.2-0.3,0.3c-0.3,0.2-0.6-0.3-1,0C60.6,48.9,60.2,48.7,59.7,48.7z"/>
	<path d="M34.7,89.6c-0.8,0.5-1,1.1-0.9,1.9c0,0.4,0,0.8,0,1.2c0,0.3-0.2,0.3-0.4,0.3c-0.1,0-0.3-0.1-0.3-0.2c0-0.4,0-0.7,0-1.1
		c0-1.8,0-3.5,0-5.3c0-0.3,0.1-0.4,0.4-0.4c0.3,0,0.3,0.1,0.3,0.4c0,1,0,2,0,3.2c0.7-0.9,1.6-1.4,2-2.3c0.2-0.4,0.7-0.8,1.1-1.1
		c0.1-0.1,0.4-0.1,0.5-0.1c0.1,0,0.2,0.3,0.1,0.3c-0.2,0.2-0.4,0.4-0.6,0.6c-0.6,0.6-1.1,1.3-1.7,1.9c-0.2,0.2-0.1,0.3,0,0.5
		c0.5,0.7,1,1.4,1.4,2.1c0.3,0.5,0.7,0.9,1.1,1.3c-0.5,0.2-0.8,0.1-1.1-0.4c-0.6-0.9-1.3-1.7-2-2.5C34.7,89.8,34.8,89.7,34.7,89.6z"
		/>
	<path d="M92.7,68c0.3,0,0.6,0,0.9,0c0,4,0,8.1,0,12.2c-0.3,0-0.5,0-0.9,0C92.7,76.1,92.7,72.1,92.7,68z"/>
	<path d="M50.9,101.3c1-1.1,1.8-2,2.6-2.9c0.2-0.2,0.3-0.4,0.5-0.5c0.2-0.1,0.4-0.1,0.8-0.2c-0.8,1-1.5,1.9-2.3,2.8
		c-0.3,0.4-0.4,0.5,0,1c0.8,1,1.5,2.1,2.3,3.2c-0.5,0.1-0.8,0.2-1.2-0.5c-0.4-0.7-1.1-1.4-1.6-2.1c-0.1-0.2-0.4-0.6-0.6-0.4
		c-0.3,0.2-0.6,0.4-0.6,0.8c0,0.6,0,1.3,0,1.9c0,0.3-0.1,0.4-0.4,0.4c-0.3,0-0.3-0.1-0.3-0.4c0-2.1,0-4.2,0-6.2
		c0-0.3,0.1-0.4,0.4-0.4c0.3,0,0.3,0.1,0.3,0.4C50.9,99.1,50.9,100.1,50.9,101.3z"/>
	<path d="M89.5,88.6c0-0.8,0-1.5,0-2.3c0-0.3,0.1-0.4,0.4-0.4c0.3,0,0.3,0.1,0.3,0.4c0,1.5,0,3,0,4.6c0,0.7,0.6,1.3,1.3,1.3
		c0.3,0,0.7,0,1-0.1c0.6-0.2,1-0.8,1-1.7c0-1.4,0-2.7,0-4.1c0-0.4,0.2-0.4,0.4-0.4c0.1,0,0.3,0.2,0.3,0.2c0,1.5,0.1,3,0,4.4
		c-0.1,0.8-0.3,1.7-1.2,2c-1.4,0.6-2.8,0.3-3.5-1.2c-0.1-0.2-0.1-0.4-0.1-0.7C89.5,90.1,89.5,89.3,89.5,88.6z"/>
	<path d="M43.4,90.6c0,0.8,0,1.4,0,2.1c0,0.3-0.2,0.3-0.4,0.2c-0.1,0-0.3-0.1-0.3-0.2c0-0.3,0-0.6,0-0.8c0-1.9,0-3.9,0-5.9
		c0.8,0,1.5,0,2.2,0c0.8,0,1.6,0.5,1.8,1.3c0.1,0.3-0.1,0.7,0.3,1c-0.3,0.2-0.1,0.6-0.2,0.8c-0.3,0.5-0.7,1-1.3,1.2
		C44.8,90.6,44.2,90.5,43.4,90.6z M43.5,89.8c0.4,0,0.7,0,1.1,0c0.7,0,1.3-0.3,1.5-0.9c0.2-0.4,0.4-1,0-1.5
		c-0.3-0.4-0.6-0.7-1.1-0.7c-0.5,0-0.9,0-1.4,0C43.5,87.8,43.5,88.7,43.5,89.8z"/>
	<path d="M1,97.7c0.8,0,1.6,0,2.3,0c0.9,0,1.7,0.8,1.7,1.8c0,0.2,0,0.3,0,0.5c0,0.4,0.1,0.9-0.3,1.3c-0.7,0.6-1.2,1-1.9,1
		c-0.4,0-0.7,0-1.2,0c0,0.7,0,1.4,0,2c0,0.3-0.1,0.4-0.4,0.4c-0.3,0-0.3-0.1-0.3-0.4C1,102.2,1,100,1,97.7z M1.7,101.6
		c0.4,0,0.7,0,1.1,0c0.7,0,1.2-0.4,1.6-0.9c0.4-0.6,0.1-1-0.1-1.4c-0.2-0.5-0.6-0.7-1.1-0.7c-0.5,0-0.9,0-1.4,0
		C1.7,99.5,1.7,100.5,1.7,101.6z"/>
	<path d="M91.5,104.7c-0.9,0.1-1.5-0.4-2-1.1c-0.5-0.8-0.3-1.7,0.1-2.4c0.6-1,1.3-2,1.8-3.1c0.1-0.1,0.2-0.3,0.3-0.3
		c0.2,0,0.4,0,0.6,0c0,0.1,0,0.3-0.1,0.4c0,0.1-0.1,0.3-0.2,0.4c-0.4,0.4-0.7,0.9-0.9,1.4c0.5,0.1,1,0.2,1.5,0.4
		c0.6,0.2,1.1,0.7,1.1,1.4v1.2C93.4,104.3,93,104.7,91.5,104.7z M89.9,102.5c0.1,0.4,0.1,0.7,0.4,1c0.4,0.4,0.9,0.5,1.4,0.7
		c0.3-0.3,0.8-0.2,1.1-0.5c0.4-0.4,0.5-0.9,0.6-1.3c0.1-0.7-0.9-1.5-1.6-1.6c-0.5,0-0.9,0.4-1.3,0.5
		C90.1,101.5,90.1,102.1,89.9,102.5z"/>
	<path d="M79.7,101.1c0-0.4,0-0.9,0-1.3c-0.1-1.1,0.1-1.5,1.5-2c1.1-0.4,2.2,0.1,2.7,1c0.2,0.3,0.1,0.5,0.1,0.8c0,1-0.1,2.1,0,3.1
		c0.1,1-0.4,1.4-1.2,1.8c-0.7,0.3-1.5,0.3-2.2-0.1c-0.6-0.3-1-0.8-0.9-1.6C79.7,102.3,79.7,101.7,79.7,101.1z M80.2,101.1
		c0,0.5,0,1,0,1.6c0,0.4,0.3,0.7,0.6,1.1c0.3,0.4,0.8,0.2,1.1,0.5c0.3-0.3,0.8-0.1,1.1-0.5c0.3-0.3,0.6-0.6,0.6-1.1
		c0-0.9,0.1-1.8,0-2.6c-0.1-0.6-0.2-1.3-1-1.5c-0.3-0.1-0.6-0.1-0.9-0.1c-0.8,0-1.4,0.6-1.4,1.4C80.1,100.3,80.2,100.7,80.2,101.1z"
		/>
	<path d="M34.4,103c0.2,0.2,0.3,0.2,0.4,0.4c0.5,0.8,1.2,0.6,1.9,0.6c0.3,0,1.1-0.8,1-1.2c-0.1-0.4-0.2-0.8-0.7-1
		c-0.5-0.2-1-0.3-1.5-0.5c-0.9-0.3-1.5-1-1.4-1.8c0-0.7,0.7-1.6,1.4-1.8c0.9-0.2,2.1,0.3,2.7,1.1c0,0.1,0.1,0.2,0,0.2
		c-0.1,0.1-0.2,0.1-0.3,0.2c-0.3,0.1-0.5-0.2-0.7-0.4c-0.5-0.4-1.6-0.5-2-0.1c-0.3,0.3-0.5,0.7-0.4,1.1c0.1,0.4,0.4,0.6,0.8,0.8
		c0.5,0.2,1.1,0.3,1.6,0.6c0.7,0.3,1.1,0.7,1,1.6c0,0.9-0.4,1.4-1.2,1.8c-0.6,0.3-1.3,0.2-1.8,0.1c-0.4-0.1-0.8-0.7-1.1-1.1
		C34,103.5,34.3,103.2,34.4,103z"/>
	<path d="M66.4,104.9c-0.3,0-0.4-0.1-0.5-0.4c-0.4-0.9-0.6-1.7-0.9-2.6c-0.4-1-0.6-2.1-1.1-3c-0.2-0.3-0.2-0.7-0.3-1.1
		c0,0,0.1-0.1,0.2-0.1c0.4-0.1,0.6,0.1,0.7,0.5c0.6,1.8,1.1,3.5,1.7,5.3c0,0.1,0.1,0.2,0.2,0.2c0.1-0.1,0.3-0.1,0.3-0.3
		c0.6-1.8,1.1-3.5,1.7-5.3c0.1-0.2,0.3-0.4,0.5-0.5c0.1-0.1,0.3,0,0.4,0.1c-0.1,0.1-0.1,0.2-0.2,0.3c-0.5,2.1-1.4,4.1-2,6.2
		C67.1,104.5,67,105.1,66.4,104.9z"/>
	<path d="M7.2,86.7c-1.1,0-2.1,0-3,0c-0.3,0-0.4-0.1-0.4-0.4C3.8,86,4,86,4.2,86c1.1,0,2.2,0,3.2,0c0.7,0,0.9,0.4,0.5,0.9
		c-0.7,1-1.2,2.2-2,3.1c-0.5,0.6-0.8,1.4-1.3,2.1c0,0,0.1,0.3,0.2,0.3c0.9,0,1.8,0,2.8,0c0.2,0,0.3,0,0.5,0c0.1,0,0.1,0.2,0.1,0.3
		c0,0.1-0.1,0.2-0.1,0.2c-0.2,0-0.4,0-0.6,0c-1,0-2.1,0-3.1,0c-0.2,0-0.4-0.1-0.5-0.2c-0.2-0.1-0.3-0.3-0.1-0.5
		c0.9-1.1,1.5-2.3,2.3-3.5C6.4,88.1,6.8,87.4,7.2,86.7z"/>
	<path d="M17.3,86c1.1,0,2.2,0,3.3,0c0.4,0,0.3,0.3,0.3,0.5c0,0.1-0.2,0.2-0.3,0.2c-0.4,0-0.9,0-1.3,0c-0.4,0-0.8,0-1.2,0
		c0,0.9,0,1.7,0,2.6c0.9,0,1.7,0,2.6,0c0.1,0,0.2,0.2,0.3,0.3c-0.1,0.1-0.2,0.2-0.3,0.2c-0.8,0-1.7,0-2.6,0c0,0.9,0,1.7,0,2.6
		c0.8,0,1.7,0,2.5,0c0.1,0,0.2,0.1,0.3,0.2c-0.1,0.1-0.2,0.2-0.3,0.2c-1.1,0-2.2,0-3.3,0C17.3,90.6,17.3,88.4,17.3,86z"/>
	<path d="M66.3,86.7c-1.1,0-2.1,0-3.1,0c-0.2,0-0.4,0-0.4-0.3c0-0.3,0-0.4,0.4-0.4c1.1,0,2.2,0,3.2,0c0.7,0,0.8,0.4,0.5,1
		c-1.1,1.7-2,3.4-3.2,5c-0.1,0.1-0.1,0.3-0.1,0.4c0,0,0.2,0.1,0.3,0.1c1,0,2,0,3,0c0.1,0,0.2,0.1,0.2,0.2c-0.1,0.1-0.2,0.3-0.3,0.3
		c-1.2,0-2.5,0-3.7,0c-0.2,0-0.4-0.2-0.6-0.4c-0.1-0.1,0.1-0.3,0.2-0.5C64,90.3,65.1,88.6,66.3,86.7z"/>
	<path d="M28.4,89.8c0,0.9,0,1.8,0,2.6c0.9,0,1.7,0,2.5,0c0.1,0,0.2,0.1,0.3,0.2c-0.1,0.1-0.2,0.2-0.3,0.2c-1.1,0-2.1,0-3.3,0
		c0-2.3,0-4.6,0-7c1.1,0,2.2,0,3.3,0c0.3,0,0.3,0.2,0.3,0.4c0,0.3-0.1,0.3-0.3,0.3c-0.8,0-1.7,0-2.5,0c0,0.9,0,1.7,0,2.6
		c0.9,0,1.7,0,2.6,0c0.1,0,0.2,0.1,0.2,0.2c-0.1,0.1-0.2,0.3-0.3,0.3C30.1,89.8,29.3,89.8,28.4,89.8z"/>
	<path d="M74.6,104.2c1,0,1.8,0,2.7,0c0.2,0,0.3,0,0.5,0c0.1,0,0.2,0.2,0.2,0.2c0,0.1-0.1,0.2-0.2,0.2c-1.2,0-2.4,0-3.6,0
		c-0.2,0-0.3-0.2-0.5-0.3c0.1-0.1,0.1-0.2,0.2-0.3c1-1.1,1.9-2.2,2.9-3.4c0.5-0.6,0.5-0.9,0.2-1.6c-0.1-0.2-0.2-0.2-0.3-0.4
		c-0.4-0.3-0.9-0.2-1.4-0.2c-0.2,0-0.6,0.4-0.9,0.7c-0.1,0.1-0.3,0.1-0.3,0.1c-0.1-0.1-0.3-0.3-0.2-0.4c0.1-0.2,0.2-0.6,0.3-0.7
		c0.4-0.2,0.8-0.4,1.2-0.5c0.5,0,1-0.1,1.5,0.2c0.8,0.5,1.2,1.5,0.8,2.4c-0.2,0.4-0.4,0.8-0.7,1.1C76.2,102.3,75.5,103.2,74.6,104.2
		z"/>
	<path d="M22.6,92.9c0-2.2,0-4.4,0-6.5c0-0.3,0-0.5,0.4-0.4c0.1,0,0.3,0.1,0.3,0.2c0,0.2,0,0.5,0,0.7c0,1.8,0,3.7,0,5.6
		c0.8,0,1.6,0,2.4,0c0.1,0,0.2,0.1,0.2,0.2c-0.1,0.1-0.2,0.3-0.3,0.3C24.7,92.9,23.7,92.9,22.6,92.9z"/>
	<path d="M16.1,98.4c-0.5,0-0.9,0-1.4,0c-0.3,0-0.3-0.1-0.3-0.4c0-0.2,0-0.4,0.3-0.4c1.1,0,2.2,0,3.2,0c0.3,0,0.3,0.1,0.3,0.4
		c0,0.2,0,0.4-0.3,0.4c-0.4,0-0.9,0-1.4,0c0,1.8,0,3.6,0,5.4c0,0.3,0.2,0.8-0.2,0.8c-0.6,0-0.3-0.6-0.3-0.8
		C16.1,102.1,16.1,100.3,16.1,98.4z"/>
	<path d="M48,101.2c0,1,0,2.1,0,3.1c0,0.3-0.1,0.4-0.4,0.4c-0.3,0-0.3-0.1-0.3-0.4c0-2.1,0-4.1,0-6.2c0-0.3,0.1-0.4,0.4-0.4
		c0.3,0,0.3,0.1,0.3,0.4C48,99.1,48,100.2,48,101.2z"/>
	<path d="M1.7,89.4c0,1,0,2.1,0,3.1c0,0.3-0.1,0.4-0.4,0.4C1,92.9,1,92.8,1,92.6c0-2.1,0-4.1,0-6.2C0.9,86,1.1,86,1.4,86
		c0.3,0,0.3,0.1,0.3,0.4C1.7,87.4,1.7,88.4,1.7,89.4z"/>
	<path d="M60.7,89.4c0,1,0,2.1,0,3.1c0,0.3-0.1,0.4-0.4,0.4c-0.3,0-0.3-0.1-0.3-0.4c0-2.1,0-4.1,0-6.2c0-0.3,0.1-0.4,0.4-0.4
		c0.3,0,0.3,0.1,0.3,0.4C60.7,87.4,60.7,88.4,60.7,89.4z"/>
	<path d="M23.3,47.1c-0.2,0-0.5,0.1-0.5-0.3c-0.1,0-0.2-0.1-0.2,0c-0.5,0.4-0.5,0.4-1,0c0,0-0.2,0-0.2,0c0,0.3-0.1,0.4-0.3,0.3
		c-0.2,0-0.5,0-0.6-0.2c-0.3-0.2-0.3-0.7-0.1-1c0.2-0.3,0.8-0.3,1-0.1c0.1,0.1,0.1,0.2,0.2,0.4c0.1-0.1,0.1-0.4,0.2-0.4
		c0.3,0,0.7-0.4,0.9,0.3c0.1,0.3,0.2,0,0.3-0.1c0.2-0.3,0.5-0.4,0.8-0.2c0.2,0.1,0.4,0.6,0.3,0.9C23.9,47,23.6,47.2,23.3,47.1z"/>
	<path d="M20.9,47.3c0.2,0,0.5-0.1,0.5,0.3c0,0,0.1,0,0.2,0c0-0.3,0.1-0.4,0.4-0.4c0.2,0,0.5,0.2,0.7,0.2c0.2,0,0.4-0.1,0.6-0.2
		c0.3-0.1,0.5,0.2,0.6,0.4c0.1,0.3,0,0.8-0.3,0.9c-0.3,0.1-0.5,0.2-0.7-0.1c-0.3-0.5-0.3,0.1-0.5,0.1c-0.3,0.1-0.8,0.4-0.9-0.3
		c-0.1,0-0.2,0-0.2,0c0,0.7-0.6,0.2-0.8,0.3c-0.1,0-0.4-0.8-0.4-1C20.3,47.4,20.5,47.3,20.9,47.3z"/>
	<path d="M62.9,50.4c-0.2,0-0.5,0.1-0.5-0.3c-0.1,0-0.2,0-0.2,0c0,0.6-0.4,0.4-0.7,0.3c-0.3-0.1-0.6-0.2-1,0
		c-0.4,0.2-0.7-0.2-0.7-0.6c0-0.5,0.2-0.8,0.6-0.8c0.2,0,0.4,0.2,0.6,0.2s0.4-0.2,0.6-0.2c0.3,0,0.6-0.1,0.5,0.4c0.1,0,0.2,0,0.2,0
		c0.1-0.7,0.6-0.2,0.8-0.3c0.1,0,0.4,0.8,0.3,0.9C63.3,50.1,63.4,50.7,62.9,50.4z"/>
	<path d="M87.1,97.7c0,2.2,0,4.4,0,6.5c0,0.1,0,0.2,0,0.3c0,0-0.1,0.1-0.2,0.1c-0.1,0-0.2,0-0.2-0.1c0-0.2,0-0.4,0-0.6
		c0-1.8,0-3.7,0-5.6c-0.3,0-0.5,0-0.7,0c-0.3,0-0.3-0.2-0.2-0.4c0-0.1,0.1-0.3,0.2-0.3C86.3,97.7,86.6,97.7,87.1,97.7z"/>
	<path d="M83.2,65.4c0.6-0.2,1-0.1,1.3,0.3c0.2,0.2,0.4,0.4,0.6,0.6c0.3,0.3,0.5,0.2,0.7-0.1c0.2-0.2,0.3-0.4,0.4-0.7
		c0.2-0.2,0.4-0.4,0.7-0.3c0.1,0,0.3,0.1,0.4,0.1c-0.1,0.1-0.1,0.3-0.2,0.4c-0.1,0.2-0.4,0.3-0.5,0.5c-0.3,0.9-0.9,0.9-1.7,0.9
		c-0.4,0-0.5-0.1-0.7-0.4C84.1,66.3,83.6,65.9,83.2,65.4z"/>
	<path d="M22.1,45.4c-0.2,0-0.7-0.4-0.7-0.6c0.1-0.3,0.3-0.5,0.5-0.7c0.1-0.1,0.3-0.1,0.4-0.1c0.2,0,0.5,0.6,0.5,0.9
		C22.8,45.2,22.5,45.4,22.1,45.4z"/>
	<path d="M36.1,97c0.4-0.3,0.6-0.9,1.4-0.6c-0.2,0.2-0.4,0.4-0.6,0.6c-0.7,0.7-1.4,0.6-1.9-0.4c0-0.1,0-0.2,0-0.2
		c0.1,0,0.3-0.1,0.3-0.1C35.6,96.5,35.9,96.7,36.1,97z"/>
</g>
</svg>
