<?xml version="1.0" encoding="utf-8"?>
<!-- Generator: Adobe Illustrator 21.0.0, SVG Export Plug-In . SVG Version: 6.00 Build 0)  -->
<svg version="1.1" id="Layer_1" xmlns="http://www.w3.org/2000/svg" xmlns:xlink="http://www.w3.org/1999/xlink" x="0px" y="0px"
	 viewBox="0 0 2560 874" style="enable-background:new 0 0 2560 874;" xml:space="preserve">
<style type="text/css">
	.st0{fill:#FFFFFF;}
</style>
<path id="White_Wave_1_" class="st0" d="M-1406,874V1.9c13.6-8.1,109.9,11.7,188,26c78.1,14.3,76.4,22.8,202,5s101.2,9.3,176-1
	c102.4-14.1,201.3-9.4,236,0c32.9,8.9,134.2-3.2,171,4c42.3,8.3,96.3,22.5,143,0c47.5-22.9,60.6-27.7,118-3s56.1-8.6,101,26
	C-47.4,77.1-30.9,92,19,69S153.6,4.6,262,43s270.1-53.7,337-27.1s106.3,57.7,174,29s96.7-31.3,118.8-25.6
	c31.1,8,92.9-15.8,146.1-14.5c53.3,1.3,47.4,17,85.7,17s32.4-15.6,85.7-17c53.2-1.3,115,22.5,146.1,14.5
	c22.1-5.7,51.1-3.1,118.8,25.6c67.7,28.7,107.1-2.4,174-29c66.9-26.6,228.6,65.5,337,27.1s193.1,3,243,26s66.4,8.1,90-10.1
	c44.9-34.6,43.6-1.3,101-26s70.5-19.9,118,3c46.7,22.5,100.7,8.3,143,0c36.7-7.2,138.1,4.9,171-4c34.7-9.4,133.6-14.1,236,0
	c74.8,10.3,50.4-16.8,176,1s123.9,9.3,202-5s174.4-34.1,188-26V874H1124H-1406z"/>
</svg>
