<svg xmlns="http://www.w3.org/2000/svg" width="2560" height="874" viewBox="0 0 2560 874">
  <metadata><?xpacket begin="﻿" id="W5M0MpCehiHzreSzNTczkc9d"?>
<x:xmpmeta xmlns:x="adobe:ns:meta/" x:xmptk="Adobe XMP Core 5.6-c138 79.159824, 2016/09/14-01:09:01        ">
   <rdf:RDF xmlns:rdf="http://www.w3.org/1999/02/22-rdf-syntax-ns#">
      <rdf:Description rdf:about=""/>
   </rdf:RDF>
</x:xmpmeta>
                                                                                                    
                                                                                                    
                                                                                                    
                                                                                                    
                                                                                                    
                                                                                                    
                                                                                                    
                                                                                                    
                                                                                                    
                                                                                                    
                                                                                                    
                                                                                                    
                                                                                                    
                                                                                                    
                                                                                                    
                                                                                                    
                                                                                                    
                                                                                                    
                                                                                                    
                                                                                                    
                           
<?xpacket end="w"?></metadata>
<defs>
    <style>
      .cls-1 {
        fill: #fff;
        fill-rule: evenodd;
      }
    </style>
  </defs>
  <path id="White_Wave" data-name="White Wave" class="cls-1" d="M3465,846.12c-78.1-14.312-76.36-22.78-202-5s-101.22-9.278-176,1c-102.43,14.079-201.29,9.442-236,0-32.87-8.941-134.25,3.228-171-4-42.3-8.322-96.28-22.53-143,0-47.52,22.916-60.61,27.74-118,3s-56.05,8.631-101-26c-23.64-18.215-40.08-33.144-90-10.113s-134.57,64.359-243,26-270.14,53.693-337,27.122-106.32-57.662-174-29.006-96.68,31.263-118.76,25.588c-31.05-7.986-92.92,15.848-146.09,14.545-53.28-1.306-47.38-16.953-85.65-16.953s-32.37,15.647-85.65,16.953c-53.171,1.3-115.037-22.531-146.093-14.545-22.073,5.675-51.073,3.068-118.757-25.588s-107.141,2.434-174,29.006S370.426,792.641,262,831,68.918,828.031,19,805s-66.364-8.1-90,10.113c-44.947,34.636-43.608,1.266-101,26s-70.479,19.916-118-3c-46.72-22.53-100.7-8.322-143,0-36.747,7.229-138.134-4.94-171,4-34.714,9.442-133.574,14.079-236,0-74.776-10.279-50.361,16.777-176-1s-123.9-9.31-202,5-174.38,34.079-188,26V-63H1123l1-2,2529,2V872.124C3639.38,880.2,3543.1,860.431,3465,846.12Z"/>
</svg>
