<svg xmlns="http://www.w3.org/2000/svg" width="320.94" height="564" viewBox="0 0 320.94 564">
  <metadata><?xpacket begin="﻿" id="W5M0MpCehiHzreSzNTczkc9d"?>
<x:xmpmeta xmlns:x="adobe:ns:meta/" x:xmptk="Adobe XMP Core 5.6-c138 79.159824, 2016/09/14-01:09:01        ">
   <rdf:RDF xmlns:rdf="http://www.w3.org/1999/02/22-rdf-syntax-ns#">
      <rdf:Description rdf:about=""/>
   </rdf:RDF>
</x:xmpmeta>
                                                                                                    
                                                                                                    
                                                                                                    
                                                                                                    
                                                                                                    
                                                                                                    
                                                                                                    
                                                                                                    
                                                                                                    
                                                                                                    
                                                                                                    
                                                                                                    
                                                                                                    
                                                                                                    
                                                                                                    
                                                                                                    
                                                                                                    
                                                                                                    
                                                                                                    
                                                                                                    
                           
<?xpacket end="w"?></metadata>
<defs>
    <style>
      .cls-1 {
        fill-rule: evenodd;
      }
    </style>
  </defs>
  <path id="ab_out_copy" data-name="ab out copy" class="cls-1" d="M5655.5,2479a1.5,1.5,0,1,1-1.5,1.5A1.5,1.5,0,0,1,5655.5,2479Zm-138.54,164.86c45.81-6.77,106.99-4.4,152.99-5.8,47.04-1.44,95.23,1.03,142.09-5.9,17.17-2.54,17.33-41.59,0-39.03-45.82,6.78-92.92,4.4-138.91,5.81-47.05,1.43-109.31-1.04-156.17,5.9-17.17,2.54-17.34,41.59,0,39.02h0Zm81.55-560.26c-4.41-1.6-13.62-.4-17.23.8-3.6.4-12.81,6.81-14.42,9.61-3.6,5.2-1.6,11.61-2.4,18.41,0,4.81-2.8,10.01-4.01,15.22-11.21,54.44-16.02,104.87-32.04,176.93-2.8,12.41-8.81,37.23-14.42,40.83,0,2,2,.4,2.4,2.4,0.4,1.6-2.8,3.2-.8,3.6,4.01,1.21,12.82.4,20.43-4,4.81-2.8,6.81-6.4,8.81-10.81,3.21-8,4.41-18.41,5.61-26.02,18.03,0.8,36.45,2.41,53.27,2.81,1.61,6,1.21,19.61,4.01,25.21,1.6,2.01,4.41,2.81,5.61,5.21,2,1.6.8,2.8,2.8,4,2.4,0,2-1.2,3.21-2.4a87.535,87.535,0,0,1,10.81,5.2c1.2-.8-0.8-2.4.4-2.8,4.41,1.2,7.61,4.81,12.82,5.21,0.8-2.81,4.81-6.41,10.81-6.81,0.4-2.8,2.81-4,5.21-5.6,1.2-17.62-7.61-38.83-11.21-57.25-2.81-10-3.61-20.41-5.21-30.02-1.2-5.6-3.21-11.21-4.01-16.41-3.6-25.22-6.81-48.04-9.61-71.26-1.6-10.4-2-19.61-4.41-28.82-1.6-7.6-4.4-14.41-6.81-21.61-3.2-7.21-6-14.41-9.21-20.82C5607.72,2092.01,5600.51,2084.4,5598.51,2083.6Zm-22.43,96.88c3.6,13.21,11.61,65.65,18.02,100.87-13.62,0-25.63.4-37.65,2C5563.66,2250.13,5568.47,2213.3,5576.08,2180.48Zm228.3,40.83c-6.41-6.81-17.63-12.01-27.24-14.41a61.22,61.22,0,0,0-12.42-1.61c11.62-9.6,24.44-23.21,32.05-34.02,5.21-7.21,12.42-22.82,13.62-32.43,3.2-24.01-7.21-40.43-22.83-49.63-14.82-8.81-36.05-11.21-60.09-7.61-22.83,3.6-38.85,13.21-52.47,8.01-4.01-1.6-5.61-6.01-6.01-4.01,0,3.21-.8,6.41.4,9.61,1.6,4,3.21,4.81,3.21,7.61-2.01,0-3.61-.8-3.61.4,0,0.8,3.21,1.6,4.81,4-2-.4-4.41-2-4.41-0.8,0,2,4.01,1.6,3.61,3.2a1.617,1.617,0,0,0-1.61.8c2.41,4.01,7.21,4.41,7.21,4.41-0.8,15.61-.8,34.02-1.6,49.23-1.6,45.64-2,96.48-.8,141.31,0,8.41,1.6,15.61,2.4,22.02,0.81,2.4,0,4.8.41,7.6,1.6,4,5.6,7.61,6.8,10.81,2.01-.4,2.01-0.8,3.61-0.4,0.8,2-.4,2.4,0,4,1.2,0.8,4.01.4,4.41,1.2-1.61,0-2.01,1.6-1.61,2.81,13.22,2.8,20.83-5.21,33.25-5.61,24.83-.4,59.28-13.61,84.52-62.85,4-8,5.2-16.81,6.01-26.02C5816.4,2243.72,5811.59,2229.31,5804.38,2221.31Zm-74.1-68.05c0-17.22.4-26.82,0.4-39.23a76.7,76.7,0,0,1,27.23-.4c8.02,0.8,13.22,4.4,15.23,12.81,2.8,10.8-6.41,29.62-11.22,37.22-6.81,10.01-21.23,27.62-32.44,34.83,0-6.01-.41-12.81-0.41-19.62C5729.07,2174.47,5730.28,2157.66,5730.28,2153.26Zm42.86,106.07c-0.4,12.41-8.02,23.22-15.23,33.63-8.01,10.81-18.42,18.41-28.84,21.62-0.8-20.82-1.2-50.44-.8-74.06,5.61-3.6,13.22-3.2,22.84-4.4C5766.33,2235.32,5773.94,2241.72,5773.14,2259.33Zm-81.72,84.47c1.2,0,8.01-2.8,9.22-2.8C5700.64,2343.4,5691.42,2346.2,5691.42,2343.8Zm-125.78,35.14c-2.92-.53-4.24,1.59-7.16,1.06-5.3,2.12-10.33,6.36-14.3,9.8-8.22,9.27-14.31,21.46-18.55,33.91a165.12,165.12,0,0,0-6.36,26.76c-2.65,16.43-3.18,35.24-.53,51.4,3.71,21.99,9.01,34.71,20.14,46.36,11.39,11.93,29.67,12.72,42.12,7.42a29.472,29.472,0,0,1,8.48-5.56c0.27-1.86,1.86-2.12,2.92-3.45,1.32-1.06,1.85-3.44,3.7-4.24,0.8-2.38,1.06-5.03,2.92-6.09-0.27-1.32.26-1.85,0.26-2.91,5.57-11.66,8.48-37.09,8.75-54.85,0.26-14.57,1.06-35.5-11.13-60.14-1.86-3.97-4.24-6.88-7.15-10.86,1.85-1.32,2.91-3.44,5.03-4.5,1.06-4.24-2.38-7.69-3.18-10.33-4.24-3.45-8.74-7.42-13.78-9.54-2.38-1.06-5.03-2.92-6.62-3.18-1.06-.53-2.12.26-3.97-0.27C5566.7,2380,5566.17,2379.2,5565.64,2378.94Zm14.83,36.03c3.71,3.71,10.34,18.81,10.87,35.77,1.06,31.79-2.92,54.31-6.1,62.79-3.44,9-6.62,15.36-14.3,17.48-10.87,3.18-22.52-37.35-11.4-77.89,3.18-11.66,5.83-19.07,13.51-29.94C5574.91,2420.27,5578.35,2417.35,5580.47,2414.97Zm114.74-32.85c-3.44.26-2.65,3.97-4.77,6.36-0.53,3.97,2.39,15.63,4.24,36.03,2.39,25.7,1.33,54.04,1.06,63.85-0.53,18.01-5.03,30.73-8.74,36.82-2.65,4.24-7.15,7.42-12.45,7.42-4.77,0-10.6-3.97-13.51-14.83-3.45-12.99-.27-37.63.53-58.29,0.79-21.73,3.18-45.57,1.06-66.23-1.06-1.33-.8-3.98-1.86-5.57-2.12-3.44-11.13-3.18-16.95-3.71a41.539,41.539,0,0,0-8.48-.53c-6.1.53-9.28,1.59-13.51,3.98a21.08,21.08,0,0,0-5.3,3.97c-1.06,1.06-4.24,4.77-2.39,3.97,2.39-.53,0,1.33,1.33,1.59,1.85,0.27-.27,2.65.26,4.24,4.77,17.22,3.45,97.24,4.77,110.75,1.06,9.8,2.12,16.95,5.3,23.84,7.95,16.96,21.19,23.58,44.77,23.58,7.16,0,14.84-2.38,19.34-5.56a58.394,58.394,0,0,0,11.66-11.13c4.24-5.56,5.57-9.8,8.21-16.96a96.45,96.45,0,0,0,3.98-16.16,292.3,292.3,0,0,0,3.71-47.95c0-12.72-.27-27.55-1.33-44.51-0.79-10.86-2.12-22.26-3.71-29.67C5710.58,2386.36,5712.17,2381.32,5695.21,2382.12Zm126.67-2.12c-2.12,1.32-3.98,2.65-5.83,3.97-1.32.27-1.32-.53-2.12-0.53-20.93,6.89-45.57-1.59-67.29-.53-7.16.27-13.25,2.92-20.14,3.98a6.194,6.194,0,0,1-2.38-.8,6.371,6.371,0,0,0,2.12,7.95c0,1.06-1.06,0-2.65-.79-1.06.79,0.53,2.38,1.85,4.23-0.53,0-1.32-.79-1.85,0,0.79,0.8,3.71,3.18,4.24,4.51-0.8.26-2.12,0.53-1.86,1.85,9.27,6.63,17.75,0,26.23,2.12,0,21.73,1.06,79.75.79,94.32-0.52,14.84-.52,34.97-0.79,49.01,1.06,1.06,1.06,1.33.27,2.65,1.05,0.8,2.38,1.06,2.38,2.92a22.662,22.662,0,0,0,9.54,3.18c2.65,0.53,4.24,2.12,6.62,2.65,3.71,0.79,7.95,0,11.92-.27,0-1.06-.53-1.32-0.79-2.38,1.85,0,2.12-1.86,2.38-2.65,3.98,0,5.83-1.59,7.69-3.45,0.26-.53,0-1.06.53-1.32,0-.27.79,0.53,1.06,0.26,0.53-.53.26-1.59,0.79-2.12,1.06-.79,1.59.53,1.85-0.79-0.79-2.39-2.64-10.33-2.64-24.91,0-31.26.26-109.15,3.17-115.51,6.63-.79,17.49-1.06,22.79-3.44,1.06-4.77,3.71-7.16,3.44-11.39,0-1.59-.79-2.39-1.06-3.98-0.26-1.85,1.06-2.65,1.06-4.5a5.738,5.738,0,0,1-.79-1.33C5822.14,2381.59,5823.2,2380,5821.88,2380Z" transform="translate(-5504.03 -2080)"/>
</svg>
