<svg id="Layer_1" data-name="Layer 1" xmlns="http://www.w3.org/2000/svg" viewBox="0 0 63.46 97.7"><title>Vector Smart Object3</title><path d="M13.42.68c.59.7,1.37,1.1,1.31,2.38-.07.81-.72,2-.79,3.13-.13,2.09.59,4.41-.39,5.51-.26.12-.33,0-.52-.06a.3.3,0,0,0-.2.46c-.39-.41-.66.29-1,0-.2.12-.2.35-.39.35a1.55,1.55,0,0,0-1.24.17c-1-.75-.92-2.84-1.11-4.35-.13,0-.13.35-.26.52-.39.17-.13-1.16-.13-1.51.33,0,.13.75.39.7A37.31,37.31,0,0,0,9.43,4C8.64,4.74,9,6,8.77,6.89c-.26,0-.13-1.62,0-2.61C6.16,5.84,4.65,8.69,5.3,12.69c.46,3,2.55,6.09,4.12,8.53,2.09,3.13,4.32,6.26,5.1,10.56a7.45,7.45,0,0,1-.65,4.81c.2.12.52-.75.65-.64a5.73,5.73,0,0,1-3.6,3.94c-.46-.29,1-.52,1.24-.93a6,6,0,0,1-1.77.52,5,5,0,0,1-3.14.87A6.66,6.66,0,0,1,.2,33.22a7.47,7.47,0,0,1,1-3.77L2,29.27c.07.12-.07.52.2.64s.39-.23.39-.06A1.34,1.34,0,0,1,2.95,31c.13.12.59-.12.85,0a1.66,1.66,0,0,1,.52,1.22c.2,1.8.13,4.58,1.9,5,2.49.75,3-1.91,2.88-3.6-.39-4.12-2.36-7.25-4.25-10.38-.79-1.33-1.77-2.73-2.68-4.12A13.44,13.44,0,0,1,0,11.76c.46,0,.39,1.8.79,3.42a11.24,11.24,0,0,0,1.5,3.48c.79,1.28,1.5,2.44,2.23,3.54,2.42,3.89,5,7.6,4.91,12.88.85-4.47-1.7-8.29-3.86-11.83-.72-1.16-1.51-2.26-2.36-3.6a19.59,19.59,0,0,1-1.9-3.89A25.22,25.22,0,0,1,.46,8.69C.13,9.21.33,11,.07,11A8.56,8.56,0,0,1,2.56,3.87c1.18-1.28,5-3.07,7-1.62A4,4,0,0,1,10.74,0C11.91-.19,12.5.57,13.42.68ZM11.85,38.79c.72-.35,1.44-1.1,1.24-1.62A11.53,11.53,0,0,1,11.85,38.79Z"/><path d="M23,2.54a2.69,2.69,0,0,1,.52,1.1c.65,1.74,4.52,13.34,6.74,20C32.66,16.8,34.36,9,36.33,1.9c.52-.23,1.11-.06,1.5-.29a1.68,1.68,0,0,0,1.51.29c.26.29,1.18.52,1.44.93-.13,2.44,0,4.81,0,7.13,0,7.31-.2,13.57-.13,20,0,1.62,0,3.25.13,5,.07.93.79,2.2.2,3.65a8,8,0,0,1-1.44.81,3.68,3.68,0,0,1-.85.12c-.33.12-.59.41-.79.46-.46,0-1.18-.46-1.5,0-.79-.75-.59-1.74-.79-2.9-.59-5.8-.39-14.27-.39-20.65-.79,2.78-2,8.41-3.14,11a1.65,1.65,0,0,1,.07,1.57c-.52.87-1.83,1-2.55,1.57-.39.12-.39-.23-.79-.17-.2.06-.26.41-.52.41-.52-.06-1.44-1.57-1.7-1.91-.39-.75-.72-1.62-1.11-2.61-1.11-2.38-2.16-5.68-3.08-8.24,0-.29-.2-.06-.26-.23-.07-.41-.2-.81-.26-1.28-.07,3.42.07,6.79,0,10.5-.07,2,.13,4.41,0,6.79a12,12,0,0,1-.33,3.25c-.2.41-.39.41-.72.64a2.8,2.8,0,0,1-.46,1.51c-.92,0-1.31.7-2.36.75,0-.35.07-.75-.2-1a32.85,32.85,0,0,0,.33-6.32c.13-2.38,0-4.87,0-7.42,0-4.93.2-10,.46-14.85a17.17,17.17,0,0,0-.39-5.63c-.07-.29-.33-.64-.33-.93,0-.52.52-1.1.2-1.68a7,7,0,0,1,1.5-.7C20.62,1.9,22.26,1.9,23,2.54Z"/><path d="M61.59,29.85c.39-.81.26-2,.85-2.61-.33,1.86-.66,3.65-1,5.34a9.28,9.28,0,0,1-2,4.7c.07-.35.79-1.16.2-.93.13-.35-.52.52-.65.75-.46.06-.33.58-.79.46-.26.46-.85.81-1.18,1.33-.72.06-.92.64-1.44.87-1.44,0-3.21.7-4.71.12-2.49-1-3.73-3.42-4.78-6A32.49,32.49,0,0,1,44.31,22.2c-.13-5.34,1.38-13.11,4.06-16.65,1-1.33,2.62-3.42,4.32-3.94a7.45,7.45,0,0,1,1.9-.12c1,.12,1.64,1,2.62,1,2.88,1.39,4.06,4.76,4.71,8.29C63,16.28,62.51,25.1,61.59,29.85Zm-6-25.58a8.09,8.09,0,0,0-2.88,2.49A18.7,18.7,0,0,0,51,10.48c-1,2.67-1.64,8.35-1.57,11.72a29.36,29.36,0,0,0,2,10.67c.52,1.57,1.9,3.71,3.6,3.42,1.11-.23,1.9-2.44,2.22-3.6a45.42,45.42,0,0,0,2.09-9C60.08,18,60.15,6.71,55.63,4.28Z"/><path d="M13.75,70.9c0,1.29-1.92,3.81-2.92,5,.23.27.77.27,1,.48,1.61,5.3,4.3,9.86,6,15,.46,1.29,1.38,2.52,1.3,4-.46.07-.84.07-.77.54-.46-.13-.69.27-1.07.34a14.48,14.48,0,0,0-2.07.41c-.92.27-1.46,1-2.38.27C11.37,91.7,9.07,87.15,7.46,82a6.1,6.1,0,0,0-.31,1.7c-.31,3.47.15,8.91-.54,11.76-.23.41-1.15.27-1.15,1-.15,0-.08-.21-.31-.21S5,96.6,5,96.8c-.84-.07-1.07-.21-1.46,0-.69-.27-.61.34-1.15.07,0,.41-.54.41-1,.41-.92-3.94-.54-9.18-.23-13.6.15-3.94-.31-8-.46-11.76-.08-2-.08-4.21,0-6.46.23-2.92.46-7.28.77-9.93.15-1.16.23-2,1.07-2.52.08-.41-.15-.68,0-1a8.15,8.15,0,0,0,1.54-.14c.46-.13.31.27.46.41.46-.34.92.68,1.54-.07.77-.48.84.61,1.23,1a2.35,2.35,0,0,0,.46,1c.23,7.28-1.3,13.6-.54,20.67A76.73,76.73,0,0,0,13.9,63.35Q15.05,61,16,58.66c.84-2.18,1.3-4.08,2.46-5.44a.51.51,0,0,1,.23-.48c0-.2.08-.27.23-.27h.46c.23.41-.31.61-.23,1,.15,0,.54-.54.92-.27-.23,1.56-.92,2.72-1.15,4.21.54-1,.54-2.31,1.3-3a4.13,4.13,0,0,1-.54,2.11A19.92,19.92,0,0,1,19,58.8c-.54,1.36-1.07,2.92-1.61,4.21A83.79,83.79,0,0,1,13.75,70.9ZM1.47,77.7c.31-7.62.31-16.11.77-23.8,0,.07-.08.07-.08.2-.69,2.79-.54,6.32-.69,8.91-.15,1.63-.08,3.26-.23,5A58.28,58.28,0,0,0,1.47,77.7ZM2,96.26c-.15,0-.46-.07-.38.41C1.55,97,2.24,97.14,2,96.26Z"/><path d="M41.22,52.88c.08.2-.08.48.08,1.43-.54.2-.61.82-1.15.88.38.41-.31.27.15.68-3.61.81-7.75.34-11.74.2.15,5.3.54,9.79.46,15,2.38.27,6.91-.21,9,.13.08.34-.15,1,.69,1,0,.2-.38.81-.31,1.09.23.07.54.07.77.13a3.07,3.07,0,0,1-.69.68c-.08.34.46.21.23.41-1.07,1.09-7.37.61-9.44.88-.15,4.83.08,11.56,0,16.93.15.14.61,0,1,.07s.15.34.38.34c3.45.41,7.67-.27,10.9.27.08.34-.15.41-.54.34,0,.41.38.07.61.27,0,.13-.46.68.08.81-.15.21-.46.27-.15.54-1.92,1.5-5.83,1.9-9.52,1.63a33.18,33.18,0,0,0-6.52.41,16.58,16.58,0,0,1-1.84-.07,6.88,6.88,0,0,1,.15-2.52c-.54-.07-.15.41-.54.54.08-.34-.08-.54-.08-.88-.38.27,0,1.29-.15,1.56-.54-.48-.15-1-.15-1.56.15-3.54,0-7.68.23-11.35.23,2.52.08,8.23.31,8.16.23-12-.23-25.84,0-38,.31,0,.46.2.84.13,0-.34-.38-.13-.23-.47A104.67,104.67,0,0,1,41.22,52.88ZM23.49,92.18c-.08-.2.15-.81-.15-.81C23.42,91.57,23.19,92.18,23.49,92.18ZM24,55.4c.61.07-.08,1.43.38,1.63,0-.75.31-1.56-.15-2.11C24.34,55.33,24,55.19,24,55.4Zm.23,41.2a4.65,4.65,0,0,0,1.38,0C25.56,96.4,24.34,96.4,24.26,96.6Zm.23-42c0-.13,0-.34.08-.41-.15,0-.15-.61-.23-.68C24.34,53.76,24.34,54.51,24.49,54.58Zm4.6,20.19c.08.34,1.07.34,1.23.21-.15,0-.61.14-.61-.07.61-.07,1.15.27,1.61,0-.15,0-.31.07-.31-.07s.15,0,.15-.07A10.64,10.64,0,0,0,29.09,74.77Z"/><path d="M63.32,62.67a44.06,44.06,0,0,1-.92,12.58c-.46,2.52-1,5.17-1.69,7.62A34.06,34.06,0,0,1,56,92.45a24.89,24.89,0,0,1-2.38,3.13c-.23.27-.77.34-1.15.54-.61.47-1.23.81-1.92,1.29-.61.14-1.46.14-2.15.27-.46.07-.38-.2-.69-.2-.54.2-.77-.14-1.3.2-.54-.27-.69-.81-1.69-.54-.31-.27-.15-1-.84-.61a3.85,3.85,0,0,1,1.54-2.18C45,88.1,45,81.1,45.05,74.77c-.08-2.52-.15-5.1,0-7.62a88.37,88.37,0,0,0,.08-12.78c0-.07-.92-.21-.92-.41s.54,0,.46-.27c-.31-.27-1.07.13-1.3-.27,0-.54.46-.54.31-1s1.07-.2,2.23-.2c2.15,0,4.22-.14,6.21,0C58.48,52.67,62.63,55.19,63.32,62.67ZM50.81,59.41C51,65,51,72.26,51,77.63c.08,4-.15,7.82.23,11.35a14.16,14.16,0,0,0,3.91-6.6,52.66,52.66,0,0,0,1.76-7.55,47.14,47.14,0,0,0,.69-8.5c0-2.58.15-8.63-1.46-10.2-1.07-1-3.84-1-5.37-1ZM58.18,72.6c.69,0,1.07-5.57,1.07-8.57a2.55,2.55,0,0,0-.84-2A94,94,0,0,1,58.18,72.6Z"/></svg>