<svg xmlns="http://www.w3.org/2000/svg" width="35" height="12" viewBox="0 0 35 12">
  <defs>
    <style>
      .cls-1 {
        fill: #8e8b85;
        fill-rule: evenodd;
      }
    </style>
  </defs>
  <path id="akeo_copy_16" data-name="akeo copy 16" class="cls-1" d="M2809,1651.85a2.306,2.306,0,0,0,4.24,1.08,5.017,5.017,0,0,0,.07.85h1.65a8.5,8.5,0,0,1-.08-1.12v-3.5a2.555,2.555,0,0,0-2.89-2.71,2.684,2.684,0,0,0-2.85,2.35l1.59,0.36A1.214,1.214,0,0,1,2812,1648a0.96,0.96,0,0,1,1.12.93,0.489,0.489,0,0,1-.5.5l-1.63.26A2.134,2.134,0,0,0,2809,1651.85Zm2.66,0.71a0.8,0.8,0,0,1-.86-0.83,0.875,0.875,0,0,1,.82-0.9l1.5-.24v0.32A1.4,1.4,0,0,1,2811.66,1652.56Zm13.24-5.88h-2.37l-2.32,2.63V1642h-1.81v11.74h1.81v-1.87l0.75-.83,1.77,2.7h2.22l-2.73-4.09Zm4.14,4.11a1.624,1.624,0,0,1,.13-2.12,1.269,1.269,0,0,1,1.97-.13Zm3.45-1.08a1.664,1.664,0,0,1-.36,1.92,1.546,1.546,0,0,1-2.25.12l3.36-3.6c-0.02-.02-0.19-0.25-0.37-0.44-1.51-1.62-3.3-1.68-4.75-.12a3.749,3.749,0,0,0,.16,5.12,3.208,3.208,0,0,0,4.93.09,3.374,3.374,0,0,0,.65-3.89Zm9.71,0.52a1.717,1.717,0,1,1-3.38,0m-1.8,0a3.5,3.5,0,1,0,6.98,0" transform="translate(-2809 -1642)"/>
</svg>
