<svg id="Layer_1" data-name="Layer 1" xmlns="http://www.w3.org/2000/svg" viewBox="0 0 103.93 92.39"><defs><style>.cls-1{fill:#231f20;}</style></defs><title>Vector Smart Object3</title><path class="cls-1" d="M12.61.67c.18.06.36.42.6.54s.42,0,.54.06c.24.24,1,1.08,1,1.38a11.58,11.58,0,0,1-.12,1.2c-.06,1.74.06,3.18,0,5.22.06,1,.24,1.8.24,2.28-.18.42-.78.72-.84,1.08-.42,0-.78.36-1,.36s0,.6-.24.36c-.24.24-.12-.3-.48-.36-.18.12-.24.42-.36.66-.42-.06-.66-.18-.6-.6-.36-.06-.3.42-.6.42.06-.3-.24-.48-.3-.72a10.79,10.79,0,0,1,.12-1.38c0-.84.12-1.86.18-2.58,0-1.32.3-2.94-.78-3.48a1.29,1.29,0,0,0-.9.18c-.9.42-1.68,2.28-2.22,3.6-.42,1.5-.9,3.3-1.2,4.68a56.69,56.69,0,0,0-.84,10.38c.24,5.52,2,14.28,4.68,13,1-.42,1.74-1.74,2.46-2.82a6.44,6.44,0,0,0,1-1.5c.3-.42.6-1.56,1.08-1.5s.42,1.38.36,1.92c.06.12.3.18.54.12-.36.24,0,.6.06.66a11.42,11.42,0,0,1-3.06,5.76A10.63,10.63,0,0,1,10,41a5.57,5.57,0,0,1-5.64-.54C1.87,38.23.55,32.41.25,28.33c-.06-1-.24-2-.24-3.24A51.4,51.4,0,0,1,1.39,13c.84-3.66,2.16-7.08,4.08-9.24C6.61,2.59,9,1.21,10.63,2.47a4.55,4.55,0,0,1,.6-2C11.41.25,12.31.61,12.61.67Z"/><path class="cls-1" d="M25.09,2.11c.36.48.48.9,1,1,.36,1.2.12,1.86.18,3.48a23,23,0,0,0,.18,2.82c.24,1.62.48,3.3.84,5.16,1.08,4.56,2.34,8.58,3.24,13.14.6,3.12,1.38,6.54,1.86,9.42a6.56,6.56,0,0,1,.06,1.08c.06,1,.12,2.22-.42,2.7a10.94,10.94,0,0,1-2.34.54c-.3,0-.18-.48-.6-.3-.3,0,.12.12,0,.36-.48,0-.48-.54-.78-.6-.6-2.52-.66-5.4-1.38-7.86-2.4.12-4.56-.66-6.84-.24-.48,1.68-.66,3.78-1.08,5.7a7.79,7.79,0,0,1-.54,1.86c-.48.66-1.56.42-1.86,1.26a3.89,3.89,0,0,0-1.26.06c-.6-.42-.36-.84-.24-1.44l1.44-7.26c-.54-.18-1.26-.18-1.68-.6a3.52,3.52,0,0,0,.18-.84c.36-.36,1.32-.24,1.86-.48,1.92-7.62,3.48-15.12,5.1-23.1a22,22,0,0,0,.54-3.6,9.08,9.08,0,0,1-.3-2.7c.42-.12,1.14,0,1.56-.12C24.25,2.59,24.67,2.23,25.09,2.11Zm-4.5,28.38c2.22-.3,3.78.24,5.88.12-.9-4.92-2-9.72-3.18-14.4,0-.06,0-.06-.06-.06C22.63,21.13,21.43,25.69,20.59,30.49Z"/><path class="cls-1" d="M44.59,3.31a12.53,12.53,0,0,1,6.3,10.08,15,15,0,0,1-4.8,13c-.78.66-1.74,1.08-2.58,1.68a73.42,73.42,0,0,0,6,10.32c.54-.12.9-.84,1.32-1,.24,1.08-.78,1.56-.6,2.4-.48.84-1.5,2-2.94,1.38a7.73,7.73,0,0,1-1.8-2.1c-1.86-2.64-3.78-6.6-5.4-8.88-.18,3.48.24,7.26-.06,10.26-1,.06-2.52,1.44-3.36.54-.3-.06-.06.42-.42.3-.36-.36-.36-.66-.78-.84-.6-11.34,0-23.82-.18-36-.3.12-.66,0-.66-.3a3.46,3.46,0,0,1,.42-2C39,1.57,42.19,2,44.59,3.31Zm-4.5,21.54a11.3,11.3,0,0,0,6.72-9.9,10.67,10.67,0,0,0-2.88-8.34,6.64,6.64,0,0,0-4-1.68C39.79,6.19,40.09,18.19,40.09,24.85Z"/><path class="cls-1" d="M69.25,10.93c1.5,6-.9,13-3.48,14.94.3-.48.84-1.08,1.26-1.86-.54.36-1.14,1.68-1.92,2.28.18-.48.54-.84.78-1.38A11.44,11.44,0,0,0,64.63,26a7.63,7.63,0,0,1-3.48,2.34,12,12,0,0,1,2.4,3.3c.78,1.56,1.44,4.26,1.86,5.28s.9,2.1,1.86,2,1.68-1.56,2.64-1.8c-.42.72-.24,2-1,2.46.3.24.54-.18.9-.12a3.81,3.81,0,0,1-2.34,1.38c.12.3.6,0,1-.06a3.11,3.11,0,0,1-2.82.48C62.23,40.8,61,36,59.05,32c-.18,1.68.48,6.84-.24,8.34a8.44,8.44,0,0,1-3.48.9c-.12-.3-.42-.36-.66-.48a1.54,1.54,0,0,0-.42-.6c.24-4.68-.18-12.36-.24-17.34S54,9.13,54,4.33c-1-.12.42-.36-.48-.48.06-.42.36-.54.24-1.08,1.26-1.14,2.88-1.08,5.4-1C64.69,1.93,67.87,5.53,69.25,10.93ZM54.31,13.15a10.31,10.31,0,0,0-.06-2.34A7.45,7.45,0,0,0,54.31,13.15Zm0-8.28c-.06,1.8.3,6.48.24,8.34,0,.42-.18.78.12,1.2.12-1.74.06-6.9-.06-8.7-.06-.48.3-1.14-.18-1.44C54.25,3.73,54.31,4.51,54.31,4.87Zm.18,23.34c-.06-.48.3-1.2-.06-1.44C54.43,27,54.13,27.91,54.49,28.21ZM54.37,20a61.35,61.35,0,0,0,.12,6.66c.18-2-.06-4.5.06-6.66Zm.12,9.84c.18-.18.18-1.08-.12-1.14C54.37,29,54.31,29.83,54.49,29.83Zm0-10.26c.12-1,.36-2.46-.06-3.18A13.94,13.94,0,0,0,54.49,19.57Zm4.68,6.6c3.6-2.76,5.76-6.9,5.76-13.74,0-4.5-2-8.34-6.36-8C59.77,10,59,20,59.17,26.17Z"/><path class="cls-1" d="M81.49.91c.36.18.84.24,1,.78s-.36.84-.48,1.38c-2.1,1.86-3.3,4.62-4.2,7.38-3.54,11.16-.66,27.78,2,27.78,1.32-.24,2.58-5.58,3.24-9.18a46.58,46.58,0,0,0,.54-17.94,24.44,24.44,0,0,0-.66-2.64c-.24-.36-.24-.84-.42-1.14.48.24.42,1,.78,1.32-.12-1.68-1.14-2-1.44-3.6.24-.24,0-.6.24-.48.42-.06-.12-.48.12-.6.36.18.66.42,1,.6.18.48.24.84.6,1s.06-.3,0-.42c.3.18.24.78.66.78.12-.48-.54-1-.48-1.44a20.81,20.81,0,0,1,2.7,7.32,55.63,55.63,0,0,1-2.16,24.84,7.76,7.76,0,0,1-1.8,3.18,1.83,1.83,0,0,0-.3.42,2.63,2.63,0,0,1-2.4,1.2,4.35,4.35,0,0,1-3-.48c-2.94-2.16-4.5-7.38-5-11.76-.78-7.38-.36-14.82,1.68-21.18A23.45,23.45,0,0,1,77.83.49a.77.77,0,0,0,.06.36A3,3,0,0,1,80.65.13C80.89.25,81.07.67,81.49.91ZM76.21,4c.72-1,1.8-1.74,2.52-2.82A5.76,5.76,0,0,0,76.21,4Zm3.3-2.88c.42.12.84-.3.9-.72A1.57,1.57,0,0,0,79.51,1.09Zm1.26,39.84c.42-.12,1.5-1,1.44-1.44C81.79,39.55,80.77,40.45,80.77,40.93Z"/><path class="cls-1" d="M102.79.79c.54.24.36,1,1.14,1.14-.3.72.12,1.68-.3,2.34a3.92,3.92,0,0,1-1.8.9,28,28,0,0,1-4,.66c-.42,5-.06,11,.06,16.56s-.48,11.4-.12,17.34c-.12.24-.48.3-.42.66a7.68,7.68,0,0,1-4,.78,9.88,9.88,0,0,1-.54-3.48c-.12-3.36.06-7.08.06-10.2.12-2.88-.3-5.94-.18-8.88.24-3.84-.06-9.12.24-13-2.82-.06-3.72-.48-4.68-1.32A1.34,1.34,0,0,0,88,4c-.18-.18-.36-.12-.48-.24s-.3-.6-.54-.66a14.13,14.13,0,0,1,1-1.26c.3.24.48,0,.84.06.18.06.12.18.3.24a10.71,10.71,0,0,0,2.4,0c.84-.06,1.62.06,2.28.06a23.62,23.62,0,0,0,8.22-2c.06-.06.18,0,.48,0S102.55.73,102.79.79Z"/><path class="cls-1" d="M13.33,49.38a1.3,1.3,0,0,0,1.22.37c.24.67.85.92,1.22,1.34-.12.18-.06.55-.24.67.18,2,.43,5.25.49,7.81a8.18,8.18,0,0,1-.49,2.32c-.43.12-1,.06-1,.49-.61-.3-.67.3-1.16,0-.18,0-.18.24-.24.37-.3-.12-.37-.31-.73-.06-1.16-1.28-1.46-4.09-1.16-6.4-.43-.61-1-1.77-2.2-1.46-.79.18-1.59,2.32-2.07,3.6a40.66,40.66,0,0,0-2,17.33A28.22,28.22,0,0,0,6.8,84a7.56,7.56,0,0,0,2,2.93c2.32-.3,2.56-2.81,3.11-5.06a30.09,30.09,0,0,0,1-5.06c-1.16-.18-2.81.18-3.36-.67-.06-.3.49,0,.43-.37s-.73.06-1,0c-.12-.37.06-.31.12-.61-.12-.24-.3.06-.55,0,.12-.24.12-.92.43-.73s-.31.24,0,.43c.55-.06.79-.49,1.4-.3-.24-.49-1-.31-1.59-.49,1.4-.85,4.51-.3,6.34-.49.18.18-.12.24-.18.37.18.24.37.12.61.12.06.49.43.67.67.91a4.37,4.37,0,0,1-.55,1.34c-.24,0-.55-.18-.61.06s.24.18.3.3c.12.43,0,.73.3,1a13.36,13.36,0,0,1-.3,2.68c.49-.24.18-1.65.67-1.71.12,2.13-.67,4.33-1.16,6.34A12.72,12.72,0,0,1,12,90.07a4.15,4.15,0,0,1-2.2,1.28,6.29,6.29,0,0,1-4.21-1.1,13.09,13.09,0,0,1-2.93-3.9C-.95,79.46-.46,67.26,1.8,59.57c.91-3.29,1.77-6.28,4-8.05.55-.12.73-.43,1-.55,1.83-.61,3.29.73,4.27,1.53.12,0,.12-.18.12-.37.24.12.12.55.37.73.06-.31.06-1.16-.3-1,.24-.79.18-2.38.85-2.56C12.6,49.14,12.84,49.56,13.33,49.38Z"/><path class="cls-1" d="M21.2,50.91c.37.06,0-.37.37-.3a8.06,8.06,0,0,1,3,1.28,160,160,0,0,0-.06,16.23c.3,4.7,0,9.7.18,14.34a38.46,38.46,0,0,1,0,4.58,19.08,19.08,0,0,1-.18,2c-.06.12-.37.31-.49.55s0,.55-.18.79-.31.18-.49.43c-.24.43-.24,1-.92.73-.24.24-.37.55-.61.79-.24-.37-.49-.3-.67.06a2.65,2.65,0,0,1-.61-1c-.37-.12-.06.43-.37.3-1-1.28-.43-3.17-.43-4.88.06-1.28,0-2.62-.06-4-.18-5,.12-10.07-.12-15-.18-4.45-.18-9,0-13.24a13,13,0,0,0,.12-3.48c.37-.12.67-.06.67-.55.37.06.67,0,.73-.24C21.32,50.36,21.2,50.72,21.2,50.91ZM19.85,61.34c.43-2.44.18-5.55.55-8.05-.12,0-.12-.06-.24-.12A45,45,0,0,0,19.85,61.34Z"/><path class="cls-1" d="M30,51.33c.18.12.18-.18.31-.31,1,.18,1.46.92,2.07,1.52,3.48,7.69,5.43,18.61,8.05,27.15-.24-6-.06-12.87-.12-19.46,0-3.36-.37-6.77.49-9.21.37-.06.24.49.55.49s.06-.49.37-.49c0,.49.67.12.92.31.06.61.55,1.16.67,1.65.06.24-.12,1.28-.12,1.89a10,10,0,0,0,.3,2c.06.61-.06,1.28-.06,2-.06,1.52.12,3.11.12,4.76s-.06,3-.06,4.57c-.12,3.11.06,6.28.18,9.33.12,1.46,0,2.93.12,4.45a60.54,60.54,0,0,1,.06,8.11c-.37.12-.55.61-.92.79s-.43-.12-.85-.06c-.55.31-.73-.06-1.28.37a13.11,13.11,0,0,1-1.34-1.28c-.85-2.5-1.65-4.39-2.81-7.69-1.46-4.09-3-9.76-4.27-14.34v2.56c0,3.84,0,8.24-.06,12.32,0,3.29.67,6.41-.49,8.24-1,.3-1.83-.24-2.56-.18-.12-2.2.06-4.33.06-6.65-.06-5.55-.06-11.16-.06-16.72V56.76a31.05,31.05,0,0,0-.61-3.11c-.3-1.22-.55-2,.3-2.81A2.76,2.76,0,0,0,30,51.33Z"/><path class="cls-1" d="M62.19,50.72c1,.18,1.4,1,2.2,1.53-.06,2.87,1.16,7.26-.31,9.64-.79.67-1.89.67-2.68,1.16-.37,0-.49-.24-.67.12-.31,0-.37-.3-.67-.24-.43-3.29.06-5.73-.06-9-1.16-.12-2,1.1-2.56,1.77l-1.28,1.46c-2.87,3.9-4.51,9.27-4.51,16.29a28.21,28.21,0,0,0,1.28,8.11A1.13,1.13,0,0,1,53,82c1,2.26,2.26,4.51,4,5.73a2.46,2.46,0,0,0,1.65-.92c1.59-1.77,2.44-5.55,2.44-8.85A27.56,27.56,0,0,0,61,74.82c-1.59-.3-3.36.24-4.58-.61-.12-.24.31-.61-.3-.55.55-.37.12-.85.18-1.46.06-.3.55-.49.43-.79,2.68-.24,6.28-.55,8.66,0,0,.24-.24.12-.24.3A1.52,1.52,0,0,0,66,72c.12.24-.43.06-.49.24a7.29,7.29,0,0,0,1,.49c-.37.61-.55,1.4-1.65,1.4.37,6.22-.55,12.45-3.84,15.74a6.72,6.72,0,0,1-4.82,1.83c-2.5-.12-3.78-2.32-5.31-3.66-2.75-3.72-4.15-9.09-4.15-15.74a36.3,36.3,0,0,1,.43-5.12,30.49,30.49,0,0,1,3.72-10.86,11.92,11.92,0,0,1,4.51-4.7,4.41,4.41,0,0,1,4.58,0c.06-.67,1-1.83,1.71-1.1.3,0,.24-.3.55-.24C62.25,50.42,62.13,50.48,62.19,50.72Z"/><path class="cls-1" d="M82.14,51.88c-.24.43-.24,1,.37.91-.3.37-.3.67-.37,1.4-4,.85-5.49-.31-8.42,0-.31,3.17.12,7.5,0,11,1.65.18,3.48-.3,5.12-.06.18.18.24.43.43.55h.79c.18.06.06.18,0,.49a4.9,4.9,0,0,1,1,.06,3.31,3.31,0,0,0,.43.79A6.89,6.89,0,0,0,81,68.35c-2.32.43-5.06-.12-7.2.67-.12,5.8.12,12.2.24,18,2.75.12,5.86-.73,7.87.06-.3.18-.73-.12-1,.18a3.2,3.2,0,0,1,2,1.16c.12.24-.43.85-.12,1.28a27.52,27.52,0,0,1-6,.85c-3.17.18-2.87.73-4.27,1-.85.18-1.71.06-2.26.61-.18-.12-.12-.61-.43-.73s-.24.06-.31.24a9.7,9.7,0,0,0-1.59-1.59c-.43-.73.43-2,.85-1.46.06-4.45-.24-9.82-.06-14.09.06-2-.06-3.84,0-5.86-.3-.67-.91-.73-1.28-1.53.18-.24.55-.43.61-.67s.73.06.61-.43c-.18-.3-.73.18-.92-.24a2.73,2.73,0,0,1,.92-.18c.3-3.6-.06-8.6,0-11.83-.61-.12-.3-.55-1-.61a1.25,1.25,0,0,0-.49-1.1c.37-.67.37-1.1,1.16-1.1a19.19,19.19,0,0,0,2.44.24c.85,0,1.77-.3,2.75-.24l3.84.24a19.7,19.7,0,0,1,3-.24C81,51,81.53,51.82,82.14,51.88ZM73.23,54.2a6.08,6.08,0,0,0,.06,2.56l.18-2.56Zm.55,11.41c0,.24,1,.06,1.22-.06A8.1,8.1,0,0,1,73.78,65.61Zm2.2.12a13.8,13.8,0,0,0,2.75,0c.06,0,.06-.06-.06-.06C77.68,65.67,76.77,65.3,76,65.73Z"/><path class="cls-1" d="M98.36,54c2.2,2.07,4.09,6.47,3.11,11.59A22.24,22.24,0,0,1,99.15,72c-.49.85-1.1,1.77-1.65,2.62A24.89,24.89,0,0,1,93.6,79c.73,1.65,3,8.6,4.27,9,1.59.43,2.32-1.71,2.93-2.07.12.49-.37,1.53.37,1.46-.06.43-.37.55-.55.85.12.37.49.06.61.3-.12.37-.73.31-.73.79,0,.3.31-.12.43.06a3.92,3.92,0,0,1-3.23,1.77,4.9,4.9,0,0,1-3.42-1.4c-1.34-1.28-3-4.76-3.84-6.71-.06,2,0,5.49-.18,7.32,0,.91-2.44,1-3.9.55.12-2.07-.85.06-.85-.24,0-1.46.18-2.2.24-4.21.12-3.48.06-7.75.06-11.71V71c-.18-5.31.12-12.87-.06-17.63a13.24,13.24,0,0,1-1.65-.24c0-.37.73-.73.18-1.16,1.53-.79,4.58-.79,6.59-.67A11.81,11.81,0,0,1,98.36,54ZM90.25,76.41a18.11,18.11,0,0,0,5.49-7.5c2.32-5.61,1-15.37-5.73-15.07A173.53,173.53,0,0,1,90.25,76.41Z"/></svg>