<?xml version="1.0" encoding="utf-8"?>
<!-- Generator: Adobe Illustrator 21.0.0, SVG Export Plug-In . SVG Version: 6.00 Build 0)  -->
<svg version="1.1" id="Layer_1" xmlns="http://www.w3.org/2000/svg" xmlns:xlink="http://www.w3.org/1999/xlink" x="0px" y="0px"
	 viewBox="0 0 1048.5 914.4" style="enable-background:new 0 0 1048.5 914.4;" xml:space="preserve">
<style type="text/css">
	
		.st0{display:none;opacity:0.3;fill:none;stroke:#000000;stroke-width:3;stroke-linecap:round;stroke-dasharray:1.000000e-03,39;enable-background:new    ;}
	.st1{display:none;}
	.st2{display:inline;fill:#D7C327;}
	.st3{display:none;fill:#67BD45;stroke:#000000;stroke-width:0.5;stroke-miterlimit:10;}
	.st4{display:inline;stroke:#3C7538;stroke-width:0.5;stroke-miterlimit:10;}
	.st5{opacity:0.3;fill:#13160D;}
	.st6{display:inline;fill:none;stroke:#733916;stroke-width:2;stroke-linecap:round;stroke-dasharray:1.000000e-03,10.06;}
	.st7{display:inline;fill:#FFFFFF;stroke:#733916;stroke-width:2;stroke-linejoin:round;}
	.st8{display:inline;fill:#733916;}
	.st9{display:inline;fill:#FFFFFF;stroke:#FFA41F;stroke-width:2;stroke-linecap:round;stroke-dasharray:1.000000e-03,10.06;}
	.st10{display:inline;fill:#FFFFFF;stroke:#FFA41F;stroke-width:2;stroke-linejoin:round;}
	.st11{display:inline;fill:#FFA41F;}
	.st12{display:inline;fill:#FFFFFF;stroke:#7AD7DF;stroke-width:2;stroke-linecap:round;stroke-dasharray:1.000000e-03,10.06;}
	.st13{display:inline;fill:#FFFFFF;stroke:#7CD7DF;stroke-width:2;stroke-linejoin:round;}
	.st14{display:inline;fill:#7AD7DF;}
	.st15{display:inline;fill:#FFFFFF;stroke:#C17839;stroke-width:2;stroke-linecap:round;stroke-dasharray:1.000000e-03,10.06;}
	.st16{display:inline;fill:#FFFFFF;stroke:#C27839;stroke-width:2;stroke-linejoin:round;}
	.st17{display:inline;fill:#C27839;}
	.st18{display:inline;fill:#FFFFFF;stroke:#1AAAA8;stroke-width:2;stroke-linecap:round;stroke-dasharray:1.000000e-03,10.06;}
	.st19{display:inline;fill:#FFFFFF;stroke:#1AAAA8;stroke-width:2;stroke-linejoin:round;}
	.st20{display:inline;fill:#1AAAA8;}
	.st21{display:inline;fill:#FFFFFF;stroke:#648F3F;stroke-width:2;stroke-linecap:round;stroke-dasharray:1.000000e-03,10.06;}
	.st22{display:inline;fill:#FFFFFF;stroke:#659040;stroke-width:2;stroke-linejoin:round;}
	.st23{display:inline;fill:#648F3F;}
	.st24{display:inline;fill:#FFFFFF;stroke:#CACB33;stroke-width:2;stroke-linecap:round;stroke-dasharray:1.000000e-03,10.06;}
	.st25{display:inline;fill:#FFFFFF;stroke:#CACB33;stroke-width:2;stroke-linejoin:round;}
	.st26{display:inline;fill:#CACB33;}
	.st27{display:inline;fill:#FFFFFF;stroke:#BA2227;stroke-width:2;stroke-linecap:round;stroke-dasharray:1.000000e-03,10.06;}
	.st28{display:inline;fill:#FDFDFD;stroke:#BC2227;stroke-width:2;stroke-linejoin:round;}
	.st29{display:inline;fill:#BA2227;}
</style>
<path class="st0" d="M1618.4,1014.7c-12.7-3.9-25.1-8.2-37.3-13c-194.3-76.3-331.9-265.6-331.9-487c0-288.8,234.2-523,523-523
	s523,234.2,523,523c0,221.4-137.6,410.7-332,487"/>
<g class="st1">
	<circle class="st2" cx="524.2" cy="524.2" r="522.8"/>
</g>
<line class="st3" x1="524" y1="-26.9" x2="524" y2="524.2"/>
<line class="st3" x1="466.4" y1="-23.9" x2="524" y2="524.2"/>
<line class="st3" x1="353.7" y1="0.1" x2="524" y2="524.2"/>
<line class="st3" x1="299.8" y1="20.8" x2="524" y2="524.2"/>
<line class="st3" x1="248.4" y1="47" x2="524" y2="524.2"/>
<line class="st3" x1="155.2" y1="114.7" x2="524" y2="524.2"/>
<line class="st3" x1="114.4" y1="155.5" x2="524" y2="524.2"/>
<line class="st3" x1="78.1" y1="200.3" x2="524" y2="524.2"/>
<line class="st3" x1="20.5" y1="300.1" x2="524" y2="524.2"/>
<line class="st3" x1="-0.2" y1="353.9" x2="524" y2="524.2"/>
<line class="st3" x1="-15.1" y1="409.7" x2="524" y2="524.2"/>
<line class="st3" x1="-27.1" y1="524.2" x2="524" y2="524.2"/>
<line class="st3" x1="-24.1" y1="581.9" x2="524" y2="524.2"/>
<line class="st3" x1="-15.1" y1="638.8" x2="524" y2="524.2"/>
<line class="st3" x1="-0.2" y1="694.6" x2="524" y2="524.2"/>
<line class="st3" x1="20.5" y1="748.4" x2="524" y2="524.2"/>
<line class="st3" x1="46.7" y1="799.8" x2="524" y2="524.2"/>
<line class="st3" x1="78.1" y1="848.2" x2="524" y2="524.2"/>
<line class="st3" x1="114.4" y1="893" x2="524" y2="524.2"/>
<line class="st3" x1="155.2" y1="933.8" x2="524" y2="524.2"/>
<line class="st3" x1="200" y1="970.1" x2="524" y2="524.2"/>
<line class="st3" x1="248.4" y1="1001.5" x2="524" y2="524.2"/>
<line class="st3" x1="299.8" y1="1027.7" x2="524" y2="524.2"/>
<line class="st3" x1="353.7" y1="1048.4" x2="524" y2="524.2"/>
<line class="st3" x1="409.4" y1="1063.3" x2="524" y2="524.2"/>
<line class="st3" x1="466.4" y1="1072.4" x2="524" y2="524.2"/>
<line class="st3" x1="524" y1="1075.4" x2="524" y2="524.2"/>
<line class="st3" x1="581.6" y1="1072.4" x2="524" y2="524.2"/>
<line class="st3" x1="638.6" y1="1063.3" x2="524" y2="524.2"/>
<line class="st3" x1="694.3" y1="1048.4" x2="524" y2="524.2"/>
<line class="st3" x1="748.2" y1="1027.7" x2="524" y2="524.2"/>
<line class="st3" x1="799.6" y1="1001.5" x2="524" y2="524.2"/>
<line class="st3" x1="847.9" y1="970.1" x2="524" y2="524.2"/>
<line class="st3" x1="892.8" y1="933.8" x2="524" y2="524.2"/>
<line class="st3" x1="933.6" y1="893" x2="524" y2="524.2"/>
<line class="st3" x1="969.9" y1="848.2" x2="524" y2="524.2"/>
<line class="st3" x1="1001.3" y1="799.8" x2="524" y2="524.2"/>
<line class="st3" x1="1027.5" y1="748.4" x2="524" y2="524.2"/>
<line class="st3" x1="1048.1" y1="694.6" x2="524" y2="524.2"/>
<line class="st3" x1="1063.1" y1="638.8" x2="524" y2="524.2"/>
<line class="st3" x1="1072.1" y1="581.9" x2="524" y2="524.2"/>
<line class="st3" x1="1075.1" y1="524.2" x2="524" y2="524.2"/>
<line class="st3" x1="1063.1" y1="409.7" x2="524" y2="524.2"/>
<line class="st3" x1="1048.1" y1="353.9" x2="524" y2="524.2"/>
<line class="st3" x1="1027.5" y1="300.1" x2="524" y2="524.2"/>
<line class="st3" x1="969.9" y1="200.3" x2="524" y2="524.2"/>
<line class="st3" x1="933.6" y1="155.5" x2="524" y2="524.2"/>
<line class="st3" x1="892.8" y1="114.7" x2="524" y2="524.2"/>
<line class="st3" x1="799.6" y1="47" x2="524" y2="524.2"/>
<line class="st3" x1="748.2" y1="20.8" x2="524" y2="524.2"/>
<line class="st3" x1="694.3" y1="0.1" x2="524" y2="524.2"/>
<line class="st3" x1="581.6" y1="-23.9" x2="524" y2="524.2"/>
<line class="st3" x1="524" y1="-591.9" x2="524" y2="-40.8"/>
<g class="st1">
	<line class="st4" x1="409.4" y1="-14.8" x2="524" y2="524.2"/>
	<line class="st4" x1="200" y1="78.4" x2="524" y2="524.2"/>
	<line class="st4" x1="46.7" y1="248.7" x2="524" y2="524.2"/>
	<line class="st4" x1="-24.1" y1="466.6" x2="524" y2="524.2"/>
	<line class="st4" x1="1072.1" y1="466.6" x2="524" y2="524.2"/>
	<line class="st4" x1="1001.3" y1="248.7" x2="524" y2="524.2"/>
	<line class="st4" x1="847.9" y1="78.4" x2="524" y2="524.2"/>
	<line class="st4" x1="638.6" y1="-14.8" x2="524" y2="524.2"/>
</g>
<image style="display:none;overflow:visible;opacity:0.3;" width="2560" height="1440" xlink:href="../../../../Desktop/Screen Shot 2016-11-24 at 1.19.39 AM.png"  transform="matrix(1 0 0 1 -756.5012 -197.25)">
</image>
<g>
	<g>
		<circle class="st5" cx="947.1" cy="216.9" r="1.5"/>
		<circle class="st5" cx="912.6" cy="174.3" r="1.5"/>
		<circle class="st5" cx="873.9" cy="135.6" r="1.5"/>
		<circle class="st5" cx="831.3" cy="101.2" r="1.5"/>
		<circle class="st5" cx="785.5" cy="71.3" r="1.5"/>
		<circle class="st5" cx="736.7" cy="46.5" r="1.5"/>
		<circle class="st5" cx="685.6" cy="26.8" r="1.5"/>
		<circle class="st5" cx="632.7" cy="12.7" r="1.5"/>
		<circle class="st5" cx="578.6" cy="4.3" r="1.5"/>
		<circle class="st5" cx="524" cy="1.5" r="1.5"/>
		
			<ellipse transform="matrix(2.262343e-02 -0.9997 0.9997 2.262343e-02 -58.5037 1765.8624)" class="st5" cx="873.9" cy="912.9" rx="1.5" ry="1.5"/>
		
			<ellipse transform="matrix(2.262389e-02 -0.9997 0.9997 2.262389e-02 18.0173 1766.738)" class="st5" cx="912.6" cy="874.2" rx="1.5" ry="1.5"/>
		
			<ellipse transform="matrix(2.260356e-02 -0.9997 0.9997 2.260356e-02 94.2292 1759.7285)" class="st5" cx="947.1" cy="831.7" rx="1.5" ry="1.5"/>
		
			<ellipse transform="matrix(2.260310e-02 -0.9997 0.9997 2.260310e-02 169.2958 1744.6924)" class="st5" cx="976.9" cy="785.8" rx="1.5" ry="1.5"/>
		
			<ellipse transform="matrix(2.260310e-02 -0.9997 0.9997 2.260310e-02 242.3715 1721.9712)" class="st5" cx="1001.9" cy="737" rx="1.5" ry="1.5"/>
		
			<ellipse transform="matrix(2.260356e-02 -0.9997 0.9997 2.260356e-02 312.6868 1691.6436)" class="st5" cx="1021.5" cy="685.9" rx="1.5" ry="1.5"/>
		
			<ellipse transform="matrix(2.262343e-02 -0.9997 0.9997 2.262343e-02 379.3739 1654.0707)" class="st5" cx="1035.6" cy="633" rx="1.5" ry="1.5"/>
		
			<ellipse transform="matrix(2.258322e-02 -0.9997 0.9997 2.258322e-02 441.8017 1609.7384)" class="st5" cx="1044.2" cy="578.9" rx="1.5" ry="1.5"/>
		
			<ellipse transform="matrix(2.262343e-02 -0.9997 0.9997 2.262343e-02 499.184 1559.1079)" class="st5" cx="1047" cy="524.2" rx="1.5" ry="1.5"/>
		
			<ellipse transform="matrix(2.262389e-02 -0.9997 0.9997 2.262389e-02 551.0861 1502.8518)" class="st5" cx="1044.2" cy="469.6" rx="1.5" ry="1.5"/>
		
			<ellipse transform="matrix(2.262389e-02 -0.9997 0.9997 2.262389e-02 596.8494 1441.488)" class="st5" cx="1035.7" cy="415.5" rx="1.5" ry="1.5"/>
		
			<ellipse transform="matrix(2.262343e-02 -0.9997 0.9997 2.262343e-02 635.8811 1375.6313)" class="st5" cx="1021.5" cy="362.6" rx="1.5" ry="1.5"/>
		
			<ellipse transform="matrix(2.260356e-02 -0.9997 0.9997 2.260356e-02 667.8307 1306.0596)" class="st5" cx="1001.9" cy="311.5" rx="1.5" ry="1.5"/>
		
			<ellipse transform="matrix(2.260356e-02 -0.9997 0.9997 2.260356e-02 692.2161 1233.4966)" class="st5" cx="977" cy="262.7" rx="1.5" ry="1.5"/>
		<circle class="st5" cx="101.4" cy="831.6" r="1.5"/>
		<circle class="st5" cx="135.9" cy="874.2" r="1.5"/>
		<circle class="st5" cx="174.6" cy="912.9" r="1.5"/>
		
			<ellipse transform="matrix(2.262435e-02 -0.9997 0.9997 2.262435e-02 454.919 473.9229)" class="st5" cx="469.8" cy="4.3" rx="1.5" ry="1.5"/>
		
			<ellipse transform="matrix(2.262343e-02 -0.9997 0.9997 2.262343e-02 393.61 428.1539)" class="st5" cx="415.8" cy="12.8" rx="1.5" ry="1.5"/>
		
			<ellipse transform="matrix(2.260356e-02 -0.9997 0.9997 2.260356e-02 327.842 389.0303)" class="st5" cx="362.9" cy="26.8" rx="1.5" ry="1.5"/>
		
			<ellipse transform="matrix(2.262343e-02 -0.9997 0.9997 2.262343e-02 258.2794 357.0863)" class="st5" cx="311.8" cy="46.4" rx="1.5" ry="1.5"/>
		
			<ellipse transform="matrix(2.262389e-02 -0.9997 0.9997 2.262389e-02 185.7388 332.6762)" class="st5" cx="263" cy="71.3" rx="1.5" ry="1.5"/>
		
			<ellipse transform="matrix(2.262389e-02 -0.9997 0.9997 2.262389e-02 111.0511 315.9825)" class="st5" cx="217.1" cy="101.2" rx="1.5" ry="1.5"/>
		
			<ellipse transform="matrix(2.262389e-02 -0.9997 0.9997 2.262389e-02 35.0378 307.1348)" class="st5" cx="174.6" cy="135.6" rx="1.5" ry="1.5"/>
		
			<ellipse transform="matrix(2.262343e-02 -0.9997 0.9997 2.262343e-02 -41.4835 306.2588)" class="st5" cx="135.9" cy="174.3" rx="1.5" ry="1.5"/>
		
			<ellipse transform="matrix(2.260356e-02 -0.9997 0.9997 2.260356e-02 -117.6746 313.29)" class="st5" cx="101.4" cy="216.8" rx="1.5" ry="1.5"/>
		
			<ellipse transform="matrix(2.260356e-02 -0.9997 0.9997 2.260356e-02 -192.7408 328.3265)" class="st5" cx="71.5" cy="262.7" rx="1.5" ry="1.5"/>
		
			<ellipse transform="matrix(2.260356e-02 -0.9997 0.9997 2.260356e-02 -265.8164 351.0477)" class="st5" cx="46.6" cy="311.5" rx="1.5" ry="1.5"/>
		
			<ellipse transform="matrix(2.260356e-02 -0.9997 0.9997 2.260356e-02 -336.1322 381.375)" class="st5" cx="27" cy="362.6" rx="1.5" ry="1.5"/>
		
			<ellipse transform="matrix(2.262343e-02 -0.9997 0.9997 2.262343e-02 -402.8397 418.9266)" class="st5" cx="12.8" cy="415.5" rx="1.5" ry="1.5"/>
		
			<ellipse transform="matrix(2.260356e-02 -0.9997 0.9997 2.260356e-02 -465.2261 463.2924)" class="st5" cx="4.3" cy="469.6" rx="1.5" ry="1.5"/>
		
			<ellipse transform="matrix(2.262343e-02 -0.9997 0.9997 2.262343e-02 -522.6497 513.8893)" class="st5" cx="1.5" cy="524.2" rx="1.5" ry="1.5"/>
		
			<ellipse transform="matrix(2.262343e-02 -0.9997 0.9997 2.262343e-02 -574.5522 570.1452)" class="st5" cx="4.3" cy="578.9" rx="1.5" ry="1.5"/>
		
			<ellipse transform="matrix(2.262343e-02 -0.9997 0.9997 2.262343e-02 -620.3157 631.509)" class="st5" cx="12.8" cy="633" rx="1.5" ry="1.5"/>
		
			<ellipse transform="matrix(2.262343e-02 -0.9997 0.9997 2.262343e-02 -659.3469 697.366)" class="st5" cx="27" cy="685.9" rx="1.5" ry="1.5"/>
		
			<ellipse transform="matrix(2.260310e-02 -0.9997 0.9997 2.260310e-02 -691.2761 766.9594)" class="st5" cx="46.6" cy="737" rx="1.5" ry="1.5"/>
		
			<ellipse transform="matrix(2.260310e-02 -0.9997 0.9997 2.260310e-02 -715.6614 839.5224)" class="st5" cx="71.5" cy="785.8" rx="1.5" ry="1.5"/>
	</g>
	<g class="st1">
		<path id="Ellipse_4_copy_49" class="st6" d="M831.7,78.7c12.4,0.2,22.4,10.4,22.2,22.9c-0.2,12.4-10.4,22.4-22.9,22.2
			c-12.3-0.2-22.2-10.2-22.2-22.5C808.9,88.7,819.2,78.6,831.7,78.7z"/>
		<circle id="Ellipse_4_copy_21" class="st7" cx="831.3" cy="101.7" r="16"/>
		<circle id="Ellipse_4_copy_7" class="st8" cx="831.3" cy="101.7" r="9"/>
	</g>
	<g class="st1">
		<path id="Ellipse_4_copy_44" class="st9" d="M415.2-9.4c12.4,0.2,22.4,10.4,22.2,22.9c-0.2,12.4-10.4,22.4-22.9,22.2
			c-12.3-0.2-22.2-10.2-22.2-22.5C392.4,0.6,402.7-9.5,415.2-9.4C415.2-9.4,415.2-9.4,415.2-9.4z"/>
		<circle id="Ellipse_4_copy_16" class="st10" cx="414.8" cy="12.6" r="16"/>
		<circle id="Ellipse_4_copy_4" class="st11" cx="414.8" cy="12.6" r="9"/>
	</g>
	<g class="st1">
		<path id="Ellipse_4_copy_47" class="st12" d="M4.7,447.1c12.4,0.2,22.4,10.4,22.2,22.9c-0.2,12.4-10.4,22.4-22.9,22.2
			c-12.3-0.2-22.2-10.2-22.2-22.5C-18.1,457-7.8,447,4.7,447.1z"/>
		<circle id="Ellipse_4_copy_19" class="st13" cx="4.3" cy="469.1" r="16"/>
		<path id="Ellipse_4_copy" class="st14" d="M4.3,460.1c5,0,9,4,9,9s-4,9-9,9c-5,0-9-4-9-9C-4.7,464.1-0.7,460.1,4.3,460.1
			C4.3,460.1,4.3,460.1,4.3,460.1z"/>
	</g>
	<g class="st1">
		<path id="Ellipse_4_copy_48" class="st15" d="M634.6-8.2C647-8,656.9,2.2,656.7,14.6c-0.2,12.4-10.4,22.4-22.9,22.2
			c-12.3-0.2-22.2-10.2-22.2-22.5C611.8,1.7,622-8.3,634.6-8.2z"/>
		<circle id="Ellipse_4_copy_20" class="st16" cx="634.2" cy="14.8" r="16"/>
		<circle id="Ellipse_4_copy_6" class="st17" cx="634.2" cy="14.8" r="9"/>
	</g>
	<g class="st1">
		<path id="Ellipse_4_copy_46" class="st18" d="M74,241.7c12.4,0.2,22.4,10.4,22.2,22.9c-0.2,12.4-10.4,22.4-22.9,22.2
			c-12.3-0.2-22.2-10.2-22.2-22.5C51.2,251.7,61.4,241.6,74,241.7z"/>
		<circle id="Ellipse_4_copy_18" class="st19" cx="73.6" cy="264.7" r="16"/>
		<circle id="Ellipse_4_copy_2" class="st20" cx="73.6" cy="264.7" r="9"/>
	</g>
	<g class="st1">
		<path id="Ellipse_4_copy_45_1_" class="st21" d="M217.5,78.7c12.4,0.2,22.4,10.4,22.2,22.9c-0.2,12.4-10.4,22.4-22.9,22.2
			c-12.3-0.2-22.2-10.2-22.2-22.5C194.7,88.7,205,78.6,217.5,78.7z"/>
		<circle id="Ellipse_4_copy_17" class="st22" cx="217.1" cy="100.7" r="16"/>
		<circle id="Ellipse_4_copy_3" class="st23" cx="217.1" cy="100.7" r="9"/>
	</g>
	<g class="st1">
		<path id="Ellipse_4_copy_51" class="st24" d="M1044.5,447.1c12.4,0.2,22.4,10.4,22.2,22.9c-0.2,12.4-10.4,22.4-22.9,22.2
			c-12.3-0.2-22.2-10.2-22.2-22.5C1021.8,457,1032,447,1044.5,447.1z"/>
		<circle id="Ellipse_4_copy_23" class="st25" cx="1044.1" cy="470.1" r="16"/>
		<circle id="Ellipse_4_copy_13" class="st26" cx="1044.1" cy="470.1" r="9"/>
	</g>
	<g class="st1">
		<path id="Ellipse_4_copy_50" class="st27" d="M977.3,240.2c12.4,0.2,22.4,10.4,22.2,22.9c-0.2,12.4-10.4,22.4-22.9,22.2
			c-12.3-0.2-22.2-10.2-22.2-22.5C954.5,250.2,964.8,240.1,977.3,240.2z"/>
		<circle id="Ellipse_4_copy_22" class="st28" cx="976.9" cy="263.2" r="16"/>
		<circle id="Ellipse_4_copy_8" class="st29" cx="976.9" cy="263.2" r="9"/>
	</g>
</g>
</svg>
