<?xml version="1.0" encoding="utf-8"?>
<!-- Generator: Adobe Illustrator 21.0.0, SVG Export Plug-In . SVG Version: 6.00 Build 0)  -->
<svg version="1.1" id="Layer_1" xmlns="http://www.w3.org/2000/svg" xmlns:xlink="http://www.w3.org/1999/xlink" x="0px" y="0px"
	 viewBox="0 0 1096.3 1073.7" style="enable-background:new 0 0 1096.3 1073.7;" xml:space="preserve">
<style type="text/css">
	
		.st0{display:none;opacity:0.3;fill:none;stroke:#000000;stroke-width:3;stroke-linecap:round;stroke-dasharray:1.000000e-03,39;enable-background:new    ;}
	.st1{display:none;}
	.st2{display:inline;fill:#D7C327;}
	.st3{display:none;fill:none;stroke:#000000;stroke-width:0.5;stroke-miterlimit:10;}
	.st4{display:inline;fill:none;stroke:#3C7538;stroke-width:0.5;stroke-miterlimit:10;}
	.st5{display:inline;fill:none;stroke:#733916;stroke-width:2;stroke-linecap:round;stroke-dasharray:1.000000e-03,10.06;}
	.st6{display:inline;fill:#FFFFFF;stroke:#733916;stroke-width:2;stroke-linejoin:round;}
	.st7{display:inline;fill:#733916;}
	.st8{display:inline;fill:#FFFFFF;stroke:#FFA41F;stroke-width:2;stroke-linecap:round;stroke-dasharray:1.000000e-03,10.06;}
	.st9{display:inline;fill:#FFFFFF;stroke:#FFA41F;stroke-width:2;stroke-linejoin:round;}
	.st10{display:inline;fill:#FFA41F;}
	.st11{display:inline;fill:#FFFFFF;stroke:#7AD7DF;stroke-width:2;stroke-linecap:round;stroke-dasharray:1.000000e-03,10.06;}
	.st12{display:inline;fill:#FFFFFF;stroke:#7CD7DF;stroke-width:2;stroke-linejoin:round;}
	.st13{display:inline;fill:#7AD7DF;}
	.st14{display:inline;fill:#FFFFFF;stroke:#C17839;stroke-width:2;stroke-linecap:round;stroke-dasharray:1.000000e-03,10.06;}
	.st15{display:inline;fill:#FFFFFF;stroke:#C27839;stroke-width:2;stroke-linejoin:round;}
	.st16{display:inline;fill:#C27839;}
	.st17{display:inline;fill:#FFFFFF;stroke:#1AAAA8;stroke-width:2;stroke-linecap:round;stroke-dasharray:1.000000e-03,10.06;}
	.st18{display:inline;fill:#FFFFFF;stroke:#1AAAA8;stroke-width:2;stroke-linejoin:round;}
	.st19{display:inline;fill:#1AAAA8;}
	.st20{display:inline;fill:#FFFFFF;stroke:#648F3F;stroke-width:2;stroke-linecap:round;stroke-dasharray:1.000000e-03,10.06;}
	.st21{display:inline;fill:#FFFFFF;stroke:#659040;stroke-width:2;stroke-linejoin:round;}
	.st22{display:inline;fill:#648F3F;}
	.st23{display:inline;fill:#FFFFFF;stroke:#CACB33;stroke-width:2;stroke-linecap:round;stroke-dasharray:1.000000e-03,10.06;}
	.st24{display:inline;fill:#FFFFFF;stroke:#CACB33;stroke-width:2;stroke-linejoin:round;}
	.st25{display:inline;fill:#CACB33;}
	.st26{display:inline;fill:#FFFFFF;stroke:#BA2227;stroke-width:2;stroke-linecap:round;stroke-dasharray:1.000000e-03,10.06;}
	.st27{display:inline;fill:#FDFDFD;stroke:#BC2227;stroke-width:2;stroke-linejoin:round;}
	.st28{display:inline;fill:#BA2227;}
	.st29{opacity:0.3;fill:#13160D;enable-background:new    ;}
</style>
<path class="st0" d="M1642.5,1029.6c-12.7-3.9-25.1-8.2-37.3-13c-194.3-76.3-331.9-265.6-331.9-487c0-288.8,234.2-523,523-523
	s523,234.2,523,523c0,221.4-137.6,410.7-332,487"/>
<g class="st1">
	<circle class="st2" cx="548.3" cy="539.1" r="522.8"/>
</g>
<line class="st3" x1="548.1" y1="-12" x2="548.1" y2="539.1"/>
<line class="st3" x1="490.5" y1="-9" x2="548.1" y2="539.1"/>
<line class="st3" x1="377.8" y1="15" x2="548.1" y2="539.1"/>
<line class="st3" x1="323.9" y1="35.7" x2="548.1" y2="539.1"/>
<line class="st3" x1="272.5" y1="61.9" x2="548.1" y2="539.1"/>
<line class="st3" x1="179.3" y1="129.6" x2="548.1" y2="539.1"/>
<line class="st3" x1="138.5" y1="170.4" x2="548.1" y2="539.1"/>
<line class="st3" x1="102.2" y1="215.2" x2="548.1" y2="539.1"/>
<line class="st3" x1="44.6" y1="315" x2="548.1" y2="539.1"/>
<line class="st3" x1="23.9" y1="368.8" x2="548.1" y2="539.1"/>
<line class="st3" x1="9" y1="424.6" x2="548.1" y2="539.1"/>
<line class="st3" x1="-3" y1="539.1" x2="548.1" y2="539.1"/>
<line class="st3" x1="0" y1="596.8" x2="548.1" y2="539.1"/>
<line class="st3" x1="9" y1="653.7" x2="548.1" y2="539.1"/>
<line class="st3" x1="23.9" y1="709.5" x2="548.1" y2="539.1"/>
<line class="st3" x1="44.6" y1="763.3" x2="548.1" y2="539.1"/>
<line class="st3" x1="70.8" y1="814.7" x2="548.1" y2="539.1"/>
<line class="st3" x1="102.2" y1="863.1" x2="548.1" y2="539.1"/>
<line class="st3" x1="138.5" y1="907.9" x2="548.1" y2="539.1"/>
<line class="st3" x1="179.3" y1="948.7" x2="548.1" y2="539.1"/>
<line class="st3" x1="224.1" y1="985" x2="548.1" y2="539.1"/>
<line class="st3" x1="272.5" y1="1016.4" x2="548.1" y2="539.1"/>
<line class="st3" x1="323.9" y1="1042.6" x2="548.1" y2="539.1"/>
<line class="st3" x1="377.8" y1="1063.3" x2="548.1" y2="539.1"/>
<line class="st3" x1="433.5" y1="1078.2" x2="548.1" y2="539.1"/>
<line class="st3" x1="490.5" y1="1087.3" x2="548.1" y2="539.1"/>
<line class="st3" x1="548.1" y1="1090.3" x2="548.1" y2="539.1"/>
<line class="st3" x1="605.7" y1="1087.3" x2="548.1" y2="539.1"/>
<line class="st3" x1="662.7" y1="1078.2" x2="548.1" y2="539.1"/>
<line class="st3" x1="718.4" y1="1063.3" x2="548.1" y2="539.1"/>
<line class="st3" x1="772.3" y1="1042.6" x2="548.1" y2="539.1"/>
<line class="st3" x1="823.7" y1="1016.4" x2="548.1" y2="539.1"/>
<line class="st3" x1="872" y1="985" x2="548.1" y2="539.1"/>
<line class="st3" x1="916.9" y1="948.7" x2="548.1" y2="539.1"/>
<line class="st3" x1="957.7" y1="907.9" x2="548.1" y2="539.1"/>
<line class="st3" x1="994" y1="863.1" x2="548.1" y2="539.1"/>
<line class="st3" x1="1025.4" y1="814.7" x2="548.1" y2="539.1"/>
<line class="st3" x1="1051.6" y1="763.3" x2="548.1" y2="539.1"/>
<line class="st3" x1="1072.2" y1="709.5" x2="548.1" y2="539.1"/>
<line class="st3" x1="1087.2" y1="653.7" x2="548.1" y2="539.1"/>
<line class="st3" x1="1096.2" y1="596.8" x2="548.1" y2="539.1"/>
<line class="st3" x1="1099.2" y1="539.1" x2="548.1" y2="539.1"/>
<line class="st3" x1="1087.2" y1="424.6" x2="548.1" y2="539.1"/>
<line class="st3" x1="1072.2" y1="368.8" x2="548.1" y2="539.1"/>
<line class="st3" x1="1051.6" y1="315" x2="548.1" y2="539.1"/>
<line class="st3" x1="994" y1="215.2" x2="548.1" y2="539.1"/>
<line class="st3" x1="957.7" y1="170.4" x2="548.1" y2="539.1"/>
<line class="st3" x1="916.9" y1="129.6" x2="548.1" y2="539.1"/>
<line class="st3" x1="823.7" y1="61.9" x2="548.1" y2="539.1"/>
<line class="st3" x1="772.3" y1="35.7" x2="548.1" y2="539.1"/>
<line class="st3" x1="718.4" y1="15" x2="548.1" y2="539.1"/>
<line class="st3" x1="605.7" y1="-9" x2="548.1" y2="539.1"/>
<line class="st3" x1="548.1" y1="-577" x2="548.1" y2="-25.9"/>
<g class="st1">
	<line class="st4" x1="433.5" y1="0.1" x2="548.1" y2="539.1"/>
	<line class="st4" x1="224.1" y1="93.3" x2="548.1" y2="539.1"/>
	<line class="st4" x1="70.8" y1="263.6" x2="548.1" y2="539.1"/>
	<line class="st4" x1="0" y1="481.5" x2="548.1" y2="539.1"/>
	<line class="st4" x1="1096.2" y1="481.5" x2="548.1" y2="539.1"/>
	<line class="st4" x1="1025.4" y1="263.6" x2="548.1" y2="539.1"/>
	<line class="st4" x1="872" y1="93.3" x2="548.1" y2="539.1"/>
	<line class="st4" x1="662.7" y1="0.1" x2="548.1" y2="539.1"/>
</g>
<g class="st1">
	<g>
		<path id="Ellipse_4_copy_49" class="st5" d="M855.8,93.6c12.4,0.2,22.4,10.4,22.2,22.9c-0.2,12.4-10.4,22.4-22.9,22.2
			c-12.3-0.2-22.2-10.2-22.2-22.5C833,103.6,843.3,93.5,855.8,93.6z"/>
		<circle id="Ellipse_4_copy_21" class="st6" cx="855.4" cy="116.6" r="16"/>
		<circle id="Ellipse_4_copy_7" class="st7" cx="855.4" cy="116.6" r="9"/>
	</g>
	<g>
		<path id="Ellipse_4_copy_44" class="st8" d="M439.3,5.5c12.4,0.2,22.4,10.4,22.2,22.9c-0.2,12.4-10.4,22.4-22.9,22.2
			c-12.3-0.2-22.2-10.2-22.2-22.5C416.5,15.5,426.8,5.4,439.3,5.5L439.3,5.5z"/>
		<circle id="Ellipse_4_copy_16" class="st9" cx="438.9" cy="27.5" r="16"/>
		<circle id="Ellipse_4_copy_4" class="st10" cx="438.9" cy="27.5" r="9"/>
	</g>
	<g>
		<path id="Ellipse_4_copy_47" class="st11" d="M28.8,462c12.4,0.2,22.4,10.4,22.2,22.9c-0.2,12.4-10.4,22.4-22.9,22.2
			c-12.3-0.2-22.2-10.2-22.2-22.5C6,471.9,16.3,461.9,28.8,462z"/>
		<circle id="Ellipse_4_copy_19" class="st12" cx="28.4" cy="484" r="16"/>
		<path id="Ellipse_4_copy" class="st13" d="M28.4,475c5,0,9,4,9,9s-4,9-9,9s-9-4-9-9S23.4,475,28.4,475L28.4,475z"/>
	</g>
	<g>
		<path id="Ellipse_4_copy_48" class="st14" d="M658.7,6.7c12.4,0.2,22.3,10.4,22.1,22.8s-10.4,22.4-22.9,22.2
			c-12.3-0.2-22.2-10.2-22.2-22.5C635.9,16.6,646.1,6.6,658.7,6.7z"/>
		<circle id="Ellipse_4_copy_20" class="st15" cx="658.3" cy="29.7" r="16"/>
		<circle id="Ellipse_4_copy_6" class="st16" cx="658.3" cy="29.7" r="9"/>
	</g>
	<g>
		<path id="Ellipse_4_copy_46" class="st17" d="M98.1,256.6c12.4,0.2,22.4,10.4,22.2,22.9c-0.2,12.4-10.4,22.4-22.9,22.2
			c-12.3-0.2-22.2-10.2-22.2-22.5C75.3,266.6,85.5,256.5,98.1,256.6z"/>
		<circle id="Ellipse_4_copy_18" class="st18" cx="97.7" cy="279.6" r="16"/>
		<circle id="Ellipse_4_copy_2" class="st19" cx="97.7" cy="279.6" r="9"/>
	</g>
	<g>
		<path id="Ellipse_4_copy_45_1_" class="st20" d="M241.6,93.6c12.4,0.2,22.4,10.4,22.2,22.9c-0.2,12.4-10.4,22.4-22.9,22.2
			c-12.3-0.2-22.2-10.2-22.2-22.5C218.8,103.6,229.1,93.5,241.6,93.6z"/>
		<circle id="Ellipse_4_copy_17" class="st21" cx="241.2" cy="115.6" r="16"/>
		<circle id="Ellipse_4_copy_3" class="st22" cx="241.2" cy="115.6" r="9"/>
	</g>
	<g>
		<path id="Ellipse_4_copy_51" class="st23" d="M1068.6,462c12.4,0.2,22.4,10.4,22.2,22.9c-0.2,12.4-10.4,22.4-22.9,22.2
			c-12.3-0.2-22.2-10.2-22.2-22.5C1045.9,471.9,1056.1,461.9,1068.6,462z"/>
		<circle id="Ellipse_4_copy_23" class="st24" cx="1068.2" cy="485" r="16"/>
		<circle id="Ellipse_4_copy_13" class="st25" cx="1068.2" cy="485" r="9"/>
	</g>
	<g>
		<path id="Ellipse_4_copy_50" class="st26" d="M1001.4,255.1c12.4,0.2,22.4,10.4,22.2,22.9c-0.2,12.4-10.4,22.4-22.9,22.2
			c-12.3-0.2-22.2-10.2-22.2-22.5C978.6,265.1,988.9,255,1001.4,255.1z"/>
		<circle id="Ellipse_4_copy_22" class="st27" cx="1001" cy="278.1" r="16"/>
		<circle id="Ellipse_4_copy_8" class="st28" cx="1001" cy="278.1" r="9"/>
	</g>
</g>
<g>
	<g class="st1">
		<path id="Ellipse_4_copy_49_1_" class="st5" d="M241,984.6c-12.4-0.2-22.4-10.4-22.2-22.9c0.2-12.4,10.4-22.4,22.9-22.2
			c12.3,0.2,22.2,10.2,22.2,22.5C263.8,974.6,253.5,984.7,241,984.6z"/>
		<circle id="Ellipse_4_copy_21_1_" class="st6" cx="241.4" cy="961.6" r="16"/>
		<circle id="Ellipse_4_copy_7_1_" class="st7" cx="241.4" cy="961.6" r="9"/>
	</g>
	<g class="st1">
		<path id="Ellipse_4_copy_44_1_" class="st8" d="M657.5,1072.7c-12.4-0.2-22.4-10.4-22.2-22.9c0.2-12.4,10.4-22.4,22.9-22.2
			c12.3,0.2,22.2,10.2,22.2,22.5C680.3,1062.7,670,1072.8,657.5,1072.7L657.5,1072.7z"/>
		<circle id="Ellipse_4_copy_16_1_" class="st9" cx="657.9" cy="1050.7" r="16"/>
		<circle id="Ellipse_4_copy_4_1_" class="st10" cx="657.9" cy="1050.7" r="9"/>
	</g>
	<g class="st1">
		<path id="Ellipse_4_copy_47_1_" class="st11" d="M1068,616.2c-12.4-0.2-22.4-10.4-22.2-22.9c0.2-12.4,10.4-22.4,22.9-22.2
			c12.3,0.2,22.2,10.2,22.2,22.5C1090.8,606.3,1080.5,616.3,1068,616.2z"/>
		<circle id="Ellipse_4_copy_19_1_" class="st12" cx="1068.4" cy="594.2" r="16"/>
		<path id="Ellipse_4_copy_1_" class="st13" d="M1068.4,603.2c-5,0-9-4-9-9s4-9,9-9s9,4,9,9S1073.4,603.2,1068.4,603.2L1068.4,603.2
			z"/>
	</g>
	<g class="st1">
		<path id="Ellipse_4_copy_48_1_" class="st14" d="M438.1,1071.5c-12.4-0.2-22.3-10.4-22.1-22.8s10.4-22.4,22.9-22.2
			c12.3,0.2,22.2,10.2,22.2,22.5C460.9,1061.6,450.7,1071.6,438.1,1071.5z"/>
		<circle id="Ellipse_4_copy_20_1_" class="st15" cx="438.5" cy="1048.5" r="16"/>
		<circle id="Ellipse_4_copy_6_1_" class="st16" cx="438.5" cy="1048.5" r="9"/>
	</g>
	<g class="st1">
		<path id="Ellipse_4_copy_46_1_" class="st17" d="M998.7,821.6c-12.4-0.2-22.4-10.4-22.2-22.9c0.2-12.4,10.4-22.4,22.9-22.2
			c12.3,0.2,22.2,10.2,22.2,22.5C1021.5,811.6,1011.3,821.7,998.7,821.6z"/>
		<circle id="Ellipse_4_copy_18_1_" class="st18" cx="999.1" cy="798.6" r="16"/>
		<circle id="Ellipse_4_copy_2_1_" class="st19" cx="999.1" cy="798.6" r="9"/>
	</g>
	<g class="st1">
		<path id="Ellipse_4_copy_45_2_" class="st20" d="M855.2,984.6c-12.4-0.2-22.4-10.4-22.2-22.9c0.2-12.4,10.4-22.4,22.9-22.2
			c12.3,0.2,22.2,10.2,22.2,22.5C878,974.6,867.7,984.7,855.2,984.6z"/>
		<circle id="Ellipse_4_copy_17_1_" class="st21" cx="855.6" cy="962.6" r="16"/>
		<circle id="Ellipse_4_copy_3_1_" class="st22" cx="855.6" cy="962.6" r="9"/>
	</g>
	<g class="st1">
		<path id="Ellipse_4_copy_51_1_" class="st23" d="M28.2,616.2C15.8,616,5.8,605.8,6,593.3c0.2-12.4,10.4-22.4,22.9-22.2
			c12.3,0.2,22.2,10.2,22.2,22.5C50.9,606.3,40.7,616.3,28.2,616.2z"/>
		<circle id="Ellipse_4_copy_23_1_" class="st24" cx="28.6" cy="593.2" r="16"/>
		<circle id="Ellipse_4_copy_13_1_" class="st25" cx="28.6" cy="593.2" r="9"/>
	</g>
	<g class="st1">
		<path id="Ellipse_4_copy_50_1_" class="st26" d="M95.4,823.1C83,822.9,73,812.7,73.2,800.2c0.2-12.4,10.4-22.4,22.9-22.2
			c12.3,0.2,22.2,10.2,22.2,22.5C118.2,813.1,107.9,823.2,95.4,823.1z"/>
		<circle id="Ellipse_4_copy_22_1_" class="st27" cx="95.8" cy="800.1" r="16"/>
		<circle id="Ellipse_4_copy_8_1_" class="st28" cx="95.8" cy="800.1" r="9"/>
	</g>
	<g>
		<circle class="st29" cx="241.4" cy="962.1" r="1.5"/>
		<circle class="st29" cx="287.2" cy="992" r="1.5"/>
		<circle class="st29" cx="336" cy="1016.8" r="1.5"/>
		<circle class="st29" cx="387.1" cy="1036.5" r="1.5"/>
		<circle class="st29" cx="440" cy="1050.6" r="1.5"/>
		<circle class="st29" cx="494.1" cy="1059" r="1.5"/>
		<circle class="st29" cx="548.7" cy="1061.8" r="1.5"/>
		
			<ellipse transform="matrix(2.262435e-02 -0.9997 0.9997 2.262435e-02 -469.5194 1637.7079)" class="st29" cx="602.8" cy="1059" rx="1.5" ry="1.5"/>
		
			<ellipse transform="matrix(2.262481e-02 -0.9997 0.9997 2.262481e-02 -408.3035 1683.5104)" class="st29" cx="656.9" cy="1050.6" rx="1.5" ry="1.5"/>
		
			<ellipse transform="matrix(2.260448e-02 -0.9997 0.9997 2.260448e-02 -342.4389 1722.7362)" class="st29" cx="709.8" cy="1036.5" rx="1.5" ry="1.5"/>
		
			<ellipse transform="matrix(2.262481e-02 -0.9997 0.9997 2.262481e-02 -272.9124 1754.6775)" class="st29" cx="761" cy="1016.9" rx="1.5" ry="1.5"/>
		
			<ellipse transform="matrix(2.262481e-02 -0.9997 0.9997 2.262481e-02 -200.3312 1779.0426)" class="st29" cx="809.7" cy="992" rx="1.5" ry="1.5"/>
		
			<ellipse transform="matrix(2.262481e-02 -0.9997 0.9997 2.262481e-02 -125.6718 1795.6727)" class="st29" cx="855.5" cy="962.1" rx="1.5" ry="1.5"/>
		<circle class="st29" cx="971.2" cy="231.8" r="1.5"/>
		<circle class="st29" cx="936.7" cy="189.2" r="1.5"/>
		<circle class="st29" cx="898" cy="150.5" r="1.5"/>
		<circle class="st29" cx="855.4" cy="116.1" r="1.5"/>
		<circle class="st29" cx="809.6" cy="86.2" r="1.5"/>
		<circle class="st29" cx="760.8" cy="61.4" r="1.5"/>
		<circle class="st29" cx="709.7" cy="41.7" r="1.5"/>
		<circle class="st29" cx="656.8" cy="27.6" r="1.5"/>
		<circle class="st29" cx="602.7" cy="19.2" r="1.5"/>
		<circle class="st29" cx="548.1" cy="16.4" r="1.5"/>
		
			<ellipse transform="matrix(2.262481e-02 -0.9997 0.9997 2.262481e-02 -49.7903 1804.5292)" class="st29" cx="898" cy="927.7" rx="1.5" ry="1.5"/>
		
			<ellipse transform="matrix(2.262435e-02 -0.9997 0.9997 2.262435e-02 26.7208 1805.4156)" class="st29" cx="936.7" cy="889" rx="1.5" ry="1.5"/>
		
			<ellipse transform="matrix(2.260402e-02 -0.9997 0.9997 2.260402e-02 102.9126 1798.3938)" class="st29" cx="971.2" cy="846.6" rx="1.5" ry="1.5"/>
		
			<ellipse transform="matrix(2.260448e-02 -0.9997 0.9997 2.260448e-02 177.9442 1783.4109)" class="st29" cx="1001.1" cy="800.7" rx="1.5" ry="1.5"/>
		
			<ellipse transform="matrix(2.260402e-02 -0.9997 0.9997 2.260402e-02 251.0426 1760.5471)" class="st29" cx="1025.9" cy="751.9" rx="1.5" ry="1.5"/>
		
			<ellipse transform="matrix(2.260448e-02 -0.9997 0.9997 2.260448e-02 321.3349 1730.2939)" class="st29" cx="1045.6" cy="700.8" rx="1.5" ry="1.5"/>
		
			<ellipse transform="matrix(2.262481e-02 -0.9997 0.9997 2.262481e-02 387.9744 1692.7618)" class="st29" cx="1059.7" cy="648" rx="1.5" ry="1.5"/>
		
			<ellipse transform="matrix(2.258414e-02 -0.9997 0.9997 2.258414e-02 450.4847 1648.3303)" class="st29" cx="1068.2" cy="593.8" rx="1.5" ry="1.5"/>
		
			<ellipse transform="matrix(2.262481e-02 -0.9997 0.9997 2.262481e-02 507.8123 1597.7008)" class="st29" cx="1071" cy="539.1" rx="1.5" ry="1.5"/>
		
			<ellipse transform="matrix(2.262481e-02 -0.9997 0.9997 2.262481e-02 559.808 1541.5027)" class="st29" cx="1068.3" cy="484.4" rx="1.5" ry="1.5"/>
		
			<ellipse transform="matrix(2.262481e-02 -0.9997 0.9997 2.262481e-02 605.5642 1480.1255)" class="st29" cx="1059.8" cy="430.4" rx="1.5" ry="1.5"/>
		
			<ellipse transform="matrix(2.262481e-02 -0.9997 0.9997 2.262481e-02 644.5552 1414.293)" class="st29" cx="1045.6" cy="377.5" rx="1.5" ry="1.5"/>
		
			<ellipse transform="matrix(2.260448e-02 -0.9997 0.9997 2.260448e-02 676.5477 1344.7238)" class="st29" cx="1026" cy="326.4" rx="1.5" ry="1.5"/>
		
			<ellipse transform="matrix(2.260448e-02 -0.9997 0.9997 2.260448e-02 700.9103 1272.0964)" class="st29" cx="1001" cy="277.6" rx="1.5" ry="1.5"/>
		<circle class="st29" cx="125.5" cy="846.5" r="1.5"/>
		<circle class="st29" cx="160" cy="889.1" r="1.5"/>
		<circle class="st29" cx="198.7" cy="927.8" r="1.5"/>
		
			<ellipse transform="matrix(2.262435e-02 -0.9997 0.9997 2.262435e-02 463.5887 512.6248)" class="st29" cx="494" cy="19.2" rx="1.5" ry="1.5"/>
		
			<ellipse transform="matrix(2.262481e-02 -0.9997 0.9997 2.262481e-02 402.3724 466.8218)" class="st29" cx="439.9" cy="27.6" rx="1.5" ry="1.5"/>
		
			<ellipse transform="matrix(2.260448e-02 -0.9997 0.9997 2.260448e-02 336.5296 427.6185)" class="st29" cx="387" cy="41.7" rx="1.5" ry="1.5"/>
		
			<ellipse transform="matrix(2.262481e-02 -0.9997 0.9997 2.262481e-02 266.9813 395.6547)" class="st29" cx="335.8" cy="61.3" rx="1.5" ry="1.5"/>
		
			<ellipse transform="matrix(2.262481e-02 -0.9997 0.9997 2.262481e-02 194.4001 371.2896)" class="st29" cx="287.1" cy="86.2" rx="1.5" ry="1.5"/>
		
			<ellipse transform="matrix(2.262481e-02 -0.9997 0.9997 2.262481e-02 119.7406 354.6594)" class="st29" cx="241.3" cy="116.1" rx="1.5" ry="1.5"/>
		
			<ellipse transform="matrix(2.262435e-02 -0.9997 0.9997 2.262435e-02 43.7101 345.7244)" class="st29" cx="198.7" cy="150.5" rx="1.5" ry="1.5"/>
		
			<ellipse transform="matrix(2.262435e-02 -0.9997 0.9997 2.262435e-02 -32.8006 344.8383)" class="st29" cx="160" cy="189.2" rx="1.5" ry="1.5"/>
		
			<ellipse transform="matrix(2.260448e-02 -0.9997 0.9997 2.260448e-02 -108.9715 351.8825)" class="st29" cx="125.5" cy="231.7" rx="1.5" ry="1.5"/>
		
			<ellipse transform="matrix(2.260448e-02 -0.9997 0.9997 2.260448e-02 -184.1058 366.9603)" class="st29" cx="95.6" cy="277.6" rx="1.5" ry="1.5"/>
		
			<ellipse transform="matrix(2.260402e-02 -0.9997 0.9997 2.260402e-02 -257.1014 389.7293)" class="st29" cx="70.8" cy="326.4" rx="1.5" ry="1.5"/>
		
			<ellipse transform="matrix(2.260448e-02 -0.9997 0.9997 2.260448e-02 -327.3942 419.9819)" class="st29" cx="51.1" cy="377.4" rx="1.5" ry="1.5"/>
		
			<ellipse transform="matrix(2.262481e-02 -0.9997 0.9997 2.262481e-02 -394.157 457.5871)" class="st29" cx="37" cy="430.4" rx="1.5" ry="1.5"/>
		
			<ellipse transform="matrix(2.260448e-02 -0.9997 0.9997 2.260448e-02 -456.5234 501.9584)" class="st29" cx="28.5" cy="484.5" rx="1.5" ry="1.5"/>
		
			<ellipse transform="matrix(2.262481e-02 -0.9997 0.9997 2.262481e-02 -513.988 552.4504)" class="st29" cx="25.6" cy="539.1" rx="1.5" ry="1.5"/>
		
			<ellipse transform="matrix(2.262481e-02 -0.9997 0.9997 2.262481e-02 -565.8881 608.751)" class="st29" cx="28.4" cy="593.8" rx="1.5" ry="1.5"/>
		
			<ellipse transform="matrix(2.262435e-02 -0.9997 0.9997 2.262435e-02 -611.6445 670.1282)" class="st29" cx="36.9" cy="647.9" rx="1.5" ry="1.5"/>
		
			<ellipse transform="matrix(2.262435e-02 -0.9997 0.9997 2.262435e-02 -650.6356 735.9609)" class="st29" cx="51.1" cy="700.7" rx="1.5" ry="1.5"/>
		
			<ellipse transform="matrix(2.260448e-02 -0.9997 0.9997 2.260448e-02 -682.6073 805.5521)" class="st29" cx="70.7" cy="751.9" rx="1.5" ry="1.5"/>
		
			<ellipse transform="matrix(2.260402e-02 -0.9997 0.9997 2.260402e-02 -706.9696 878.18)" class="st29" cx="95.6" cy="800.7" rx="1.5" ry="1.5"/>
	</g>
</g>
</svg>
