<svg id="Layer_1" data-name="Layer 1" xmlns="http://www.w3.org/2000/svg" viewBox="0 0 85.7 88.52"><defs><style>.cls-1{fill:#231f20;}</style></defs><title>Vector Smart Object3</title><path class="cls-1" d="M13.38,1.2c.36.12.72,0,1,.24a1.58,1.58,0,0,0,.42,1.14,2.31,2.31,0,0,0-.06,1.56,3.68,3.68,0,0,1-2.4.66c-2.22.36-4.32-.06-6.6,0,0,4.08.3,7.74-.12,11.4,1.8.24,3.84.3,5.82.36.3-.06,0,.3.24.36.66-.12.72.24,1.08.36.18.84.66,2.16.06,3.12-2.46.24-4.86-.18-7.2-.06-.12,5-.3,13.32.18,18.54a1.68,1.68,0,0,0-.6.84,7.87,7.87,0,0,0-1.5.36c-.54.06-1-.24-1.26.18-.42-.36-.66-.84-1.08-1.08-.9-10.68.3-23.58-.18-34.8.42.42.18,1.32.24,2.1.12,2.16.12,4.62.18,6.84A90.94,90.94,0,0,0,1.5,2.58c-.3.12,0,1-.36,1.2A9.65,9.65,0,0,1,1.5,1c.24-.06.12.3.36.3S2,.9,2.16.78C5.58.6,9.78.6,13.32.6,13.5.84,13.44.78,13.38,1.2ZM2.76,1.26A7.74,7.74,0,0,0,5.16,1C4.74,1,2.94.9,2.76,1.26ZM8.7,17a11.09,11.09,0,0,0-3.06-.42C6.06,17,8,17,8.7,17Z"/><path class="cls-1" d="M21.12.72A24.94,24.94,0,0,0,21.6,3.3,10.32,10.32,0,0,1,21.48,6c-.06,2.58.12,5.52.18,8.22,0,3.3.24,7.08.36,10.38a93.06,93.06,0,0,1-.66,11.82c1.8.24,2.7-.48,4.5-.3.54.06,1,.36,1.5.3.24,0,.48-.18.72-.06.48,0-.3.42.12.48.24.06.66,1.56.42,1.8-.6.36-.18.6-.66,1-2.64.3-3.54-.06-5.64,0s-4.32.48-5.82-.18c-.06-2.52.48-5.16.6-7.92.06-1.32,0-2.64,0-4,.12-6.66-.54-13.68.12-20.16.12-2.22.3-5.16,1.08-6.78C19.32-.06,20.16.42,21.12.72Z"/><path class="cls-1" d="M45.24,1c.06.18-.06.42.06,1.26-.42.18-.48.72-.9.78.3.36-.24.24.12.6-2.82.72-6.06.3-9.18.18.12,4.68.42,8.64.36,13.26,1.86.24,5.4-.18,7,.12.06.3-.12.84.54.84,0,.18-.3.72-.24,1,.18.06.42.06.6.12a2.56,2.56,0,0,1-.54.6c-.06.3.36.18.18.36-.84,1-5.76.54-7.38.78-.12,4.26.06,10.2,0,14.94.12.12.48,0,.78.06s.12.3.3.3c2.7.36,6-.24,8.52.24.06.3-.12.36-.42.3,0,.36.3.06.48.24,0,.12-.36.6.06.72-.12.18-.36.24-.12.48C44,39.48,40.92,39.84,38,39.6a23,23,0,0,0-5.1.36,11.55,11.55,0,0,1-1.44-.06,6.83,6.83,0,0,1,.12-2.22c-.42-.06-.12.36-.42.48.06-.3-.06-.48-.06-.78-.3.24,0,1.14-.12,1.38-.42-.42-.12-.9-.12-1.38.12-3.12,0-6.78.18-10,.18,2.22.06,7.26.24,7.2.18-10.56-.18-22.8,0-33.54.24,0,.36.18.66.12,0-.3-.3-.12-.18-.42A72.66,72.66,0,0,1,45.24,1ZM31.38,35.7c-.06-.18.12-.72-.12-.72C31.32,35.16,31.14,35.7,31.38,35.7ZM31.8,3.24c.48.06-.06,1.26.3,1.44,0-.66.24-1.38-.12-1.86C32,3.18,31.8,3.06,31.8,3.24ZM32,39.6c.36.12.6,0,1.08,0C33,39.42,32,39.42,32,39.6Zm.18-37.08c0-.12,0-.3.06-.36-.12,0-.12-.54-.18-.6C32,1.8,32,2.46,32.16,2.52Zm3.6,17.82c.06.3.84.3,1,.18-.12,0-.48.12-.48-.06.48-.06.9.24,1.26,0-.12,0-.24.06-.24-.06s.12,0,.12-.06C36.84,20.4,36.24,20.16,35.76,20.34Z"/><path class="cls-1" d="M49.62.06c.18.6.84.48,1.32.72.3-.12,1.08.84,1.2,1.5s0,1.2.06,1.92c.42,4.26.66,9,.72,13.68.06,4.14.12,8.46.42,12.24a10.69,10.69,0,0,0,.6,3.18c.3.78,1.14,2.1,1.86,2.28a3.19,3.19,0,0,0,2.7-.78c1-1,1.68-3.3,2-5.28,1.08-6,.42-14.7.42-21.06-.06-3.24-.18-7.2,1.62-8,.3.18.54.12.48.48.18,0,.36-.24.3.18.12.12.54-.06.6.12a5.14,5.14,0,0,1-.06,1.62c-.12,1.5.06,3.12.06,4.74,0,7.74.6,16.26-.48,23.16A13.58,13.58,0,0,1,61,37.32,8.08,8.08,0,0,1,56.7,39.9c-.42.06-.84,0-1.32.06A5.16,5.16,0,0,1,50.58,38a7.55,7.55,0,0,1-1.2-1.62,9.86,9.86,0,0,0-.3-1.08,8.79,8.79,0,0,1-.36-.84c-.6-2-.6-4.8-.72-7.5s-.24-5.34-.24-7.92c0-3.12.18-6-.06-8.76C47.58,9,47.58,7.5,47.58,6c0-2.22-.42-4.08.54-5.46.18-.66.36-.48.48-.36-.06-.06-.06-.18.06-.18C48.9.42,49.26.36,49.62.06Z"/><path class="cls-1" d="M81,3.24c2.16,2,4,6.36,3.06,11.4a21.93,21.93,0,0,1-2.28,6.3c-.48.84-1.08,1.74-1.62,2.58a24.54,24.54,0,0,1-3.84,4.38c.72,1.62,2.94,8.46,4.2,8.82,1.56.42,2.28-1.68,2.88-2,.12.48-.36,1.5.36,1.44-.06.42-.36.54-.54.84.12.36.48.06.6.3-.12.36-.72.3-.72.78,0,.3.3-.12.42.06a3.86,3.86,0,0,1-3.18,1.74A4.82,4.82,0,0,1,77,38.46c-1.32-1.26-2.94-4.68-3.78-6.6-.06,2,0,5.4-.18,7.2,0,.9-2.4,1-3.84.54.12-2-.84.06-.84-.24,0-1.44.18-2.16.24-4.14.12-3.42.06-7.62.06-11.52V20c-.18-5.22.12-12.66-.06-17.34A13.21,13.21,0,0,1,67,2.4c0-.36.72-.72.18-1.14,1.5-.78,4.5-.78,6.48-.66A11.62,11.62,0,0,1,81,3.24ZM73,25.32a17.82,17.82,0,0,0,5.4-7.38c2.28-5.52,1-15.12-5.64-14.82A170.65,170.65,0,0,1,73,25.32Z"/><path class="cls-1" d="M14.82,59.15a41.56,41.56,0,0,1-.68,10.55c-.34,2.11-.74,4.33-1.25,6.38a30.18,30.18,0,0,1-3.53,8,20.88,20.88,0,0,1-1.77,2.62c-.17.23-.57.29-.85.46-.46.4-.91.68-1.43,1.08-.46.11-1.08.11-1.6.23-.34.06-.29-.17-.51-.17-.4.17-.57-.11-1,.17-.4-.23-.51-.68-1.25-.46-.23-.23-.11-.8-.63-.51a3.25,3.25,0,0,1,1.14-1.82C1.2,80.47,1.2,74.6,1.25,69.3c-.06-2.11-.11-4.28,0-6.38A83.66,83.66,0,0,0,1.31,52.2c0-.06-.68-.17-.68-.34s.4,0,.34-.23c-.23-.23-.8.11-1-.23,0-.46.34-.46.23-.8s.8-.17,1.65-.17c1.6,0,3.14-.11,4.62,0C11.23,50.77,14.31,52.88,14.82,59.15ZM5.53,56.42c.17,4.73.17,10.77.17,15.28.06,3.36-.11,6.56.17,9.52a12.25,12.25,0,0,0,2.91-5.53,49,49,0,0,0,1.31-6.33,44.48,44.48,0,0,0,.51-7.13c0-2.17.11-7.24-1.08-8.55-.8-.86-2.85-.8-4-.8ZM11,67.48c.51,0,.8-4.67.8-7.18a2.28,2.28,0,0,0-.63-1.71C11.34,61.6,11.12,65,11,67.48Z"/><path class="cls-1" d="M31.46,50.94c.06.17-.06.4.06,1.2-.4.17-.46.68-.86.74.29.34-.23.23.11.57-2.68.68-5.76.28-8.72.17.11,4.45.4,8.21.34,12.6,1.77.23,5.13-.17,6.67.11.06.29-.11.8.51.8,0,.17-.29.68-.23.91.17.06.4.06.57.11a2.46,2.46,0,0,1-.51.57c-.06.29.34.17.17.34-.8.91-5.47.51-7,.74-.11,4,.06,9.69,0,14.19.11.11.46,0,.74.06s.11.28.29.28c2.56.34,5.7-.23,8.09.23.06.29-.11.34-.4.29,0,.34.28.06.46.23,0,.11-.34.57.06.68-.11.17-.34.23-.11.46-1.43,1.25-4.33,1.6-7.07,1.37a21.82,21.82,0,0,0-4.85.34,11.06,11.06,0,0,1-1.37-.06,6.49,6.49,0,0,1,.11-2.11c-.4-.06-.11.34-.4.46.06-.29-.06-.46-.06-.74-.29.23,0,1.08-.11,1.31-.4-.4-.11-.86-.11-1.31.11-3,0-6.44.17-9.52.17,2.11.06,6.9.23,6.84.17-10-.17-21.66,0-31.87.23,0,.34.17.63.11,0-.28-.28-.11-.17-.4A69.05,69.05,0,0,1,31.46,50.94ZM18.3,83.89c-.06-.17.11-.68-.11-.68C18.24,83.38,18.07,83.89,18.3,83.89Zm.4-30.84c.46.06-.06,1.2.29,1.37,0-.63.23-1.31-.11-1.77C18.92,53,18.7,52.88,18.7,53.05Zm.17,34.55c.34.11.57,0,1,0C19.84,87.43,18.92,87.43,18.87,87.6ZM19,52.37c0-.11,0-.28.06-.34-.11,0-.11-.51-.17-.57C18.92,51.68,18.92,52.31,19,52.37ZM22.46,69.3c.06.29.8.29.91.17-.11,0-.46.11-.46-.06.46-.06.86.23,1.2,0-.11,0-.23.06-.23-.06s.11,0,.11-.06C23.48,69.36,22.91,69.13,22.46,69.3Z"/><path class="cls-1" d="M52.5,49.92a11,11,0,0,0,1,1.2,21.75,21.75,0,0,1,.11,5.76,24.54,24.54,0,0,1-.28,3.19,2.56,2.56,0,0,1-.34.68c.06.23-.34.06-.4.17s-.17.23-.06.51c-.17-.06-.74-.29-.57.17a2,2,0,0,0-.63-.17c-.4.06-.34.46-.68.17-.17.11-.29.34-.51.51-1.77-.23-1.08-3.08-.91-4.73a19,19,0,0,1,.11-2.68,2,2,0,0,0-.57-.63,6.89,6.89,0,0,0-2.17,3.36,10.69,10.69,0,0,0-.74,5.76c.23,2.79,1.77,5.42,3.19,8,1.37,2.39,2.85,4.9,3.88,7.18.63,1.71,1.54,4,1,6.1-.8,2.68-2.85,3.65-5.53,3.65-5.53-.11-7.07-4.45-6.16-8.89.17-1.08.63-2.28,1.43-2.57.29.23.06.29.06.74a.32.32,0,0,1,.46.29c.57.23.4-.29.85-.29.06.29.11.63.46.57-.68,2.68-.29,5.19,1,6.16A1.6,1.6,0,0,0,49,84c.34-.86.11-1.6-.4-2.91-1.08-2.79-6.44-12.2-7.18-16.3a15.77,15.77,0,0,1,.8-10A6.7,6.7,0,0,1,45,51.29a4.32,4.32,0,0,1,2.51-.51c.63.06.68.34,1.43.63a7.79,7.79,0,0,1,1.31-2.11C51.19,48.95,51.87,50,52.5,49.92Z"/><path class="cls-1" d="M64.18,50.49a19.9,19.9,0,0,0-4.9.29c3-.34,6.38.23,9.06-.06.57.28,1.65-.06,1.6.57-.4.17-1.08-.23-1,.4a2.93,2.93,0,0,1,1.54.63c.11.29-.34.11-.23.4.23.11.4.23.4.46a3.2,3.2,0,0,0-1,.4c-3,.06-5.24-.8-8.21-.46.06,3.76.17,8.38.17,12.09a28.81,28.81,0,0,1,3.93.4c-1.08.29-2.79-.28-3.76.17a36.87,36.87,0,0,1,6.1.34c.51.06,1.14.29,1,.85-.29-.17-.46-.06-.74-.23-.91-.68-2.62-.63-3.93-.68.17.34,1,.06,1.2.29-.4.4-1.54-.06-2.22.17,1.31.57,3.19.34,4.62.29.34.4,1.08.51,1.54.86-.06.23-.34.17-.51.23,0,.34.4.17.4.46-.34,1.77-3.53.51-5.25.34a6.85,6.85,0,0,0-2.17.11c-.57,5.19-.11,11.4-.23,16,1.88.06,5.64-1,7.75-.11.46.68.46,1.42,1.08,1.82-.17.29-.28.29-.11.57a6.62,6.62,0,0,1-.91.46,33.93,33.93,0,0,0-8.78.68,2.47,2.47,0,0,1-1.6-.11c-.11.46-.68.17-.91.23C58,88,57.74,88,57.8,87.6c-.34-.11-2.11-1.2-.91-1.71-.11-.46.17-.51.4-.63-.23-10.37.17-24.17-.17-32.44A3.91,3.91,0,0,1,55.74,52c.23-.17.29-.57.46-.8s.74.06.91-.06a.84.84,0,0,1,1.31-.46c.11,0,0-.17,0-.23,2.91-.4,5.3-.06,8.15-.06C65.95,50.83,65,50.54,64.18,50.49Zm2.68,34.43a3.25,3.25,0,0,0,1.65,0A1.87,1.87,0,0,0,66.86,84.92Z"/><path class="cls-1" d="M74.84,50.26c-.06.34.68.4.74.23.34.46.91.57,1.31.91.68,3.36.57,7.41.57,11.23,0,2.79.23,5.64.23,8.55,0,4.28-.06,9-.11,13.45,2.45.11,5.36.17,7.24-.63.29-.23.23.4.74.57.34.23,0,.8-.11,1.48-.4.4-.74.51-.85.91a15.16,15.16,0,0,1-3.76.8,12.61,12.61,0,0,0-2.11-.17,33,33,0,0,1-5.81-.06c.29-.28,0-.17-.23-.28.06-.23.46-.06.74-.11-.4-.46-1.6-.11-1.6-1,.11.11.11.34.4.34-.11-.46-.4-.91-.28-1.31.34-.17.57,0,.85.06.34-.46.23-1.14.23-2,.06-4,.06-24.57-.29-28.84-.11-1.2-.4-2.74.51-3a1.08,1.08,0,0,1,.23-.68c.46-.17.63.23,1.14.17.23-.23.06-.4.17-.74C74.84,50.15,74.84,50.2,74.84,50.26Z"/></svg>