<?xml version="1.0" encoding="utf-8"?>
<!-- Generator: Adobe Illustrator 20.1.0, SVG Export Plug-In . SVG Version: 6.00 Build 0)  -->
<svg version="1.1" id="Layer_1" xmlns="http://www.w3.org/2000/svg" xmlns:xlink="http://www.w3.org/1999/xlink" x="0px" y="0px"
	 width="2610.3px" height="1475.6px" viewBox="0 0 2610.3 1475.6" style="enable-background:new 0 0 2610.3 1475.6;"
	 xml:space="preserve">
<style type="text/css">
	.st0{fill-rule:evenodd;clip-rule:evenodd;}
	.st1{fill:#010101;}
</style>
<g>
	<g>
		<path class="st0" d="M198.4,130c-1.1,0-2,0.9-2,2c0,1.1,0.9,2,2,2c1.1,0,2-0.9,2-2C200.4,130.9,199.5,130,198.4,130z M169.9,650
			c-0.8,0-1.5,0.7-1.5,1.5c0,0.8,0.7,1.5,1.5,1.5c0.8,0,1.5-0.7,1.5-1.5C171.4,650.7,170.8,650,169.9,650z M463.9,784
			c-0.8,0-1.5,0.7-1.5,1.5c0,0.8,0.7,1.5,1.5,1.5c0.8,0,1.5-0.7,1.5-1.5C465.4,784.7,464.8,784,463.9,784z M734.9,602
			c-0.8,0-1.5,0.7-1.5,1.5s0.7,1.5,1.5,1.5c0.8,0,1.5-0.7,1.5-1.5S735.8,602,734.9,602z M760.9,629c-0.8,0-1.5,0.7-1.5,1.5
			c0,0.8,0.7,1.5,1.5,1.5c0.8,0,1.5-0.7,1.5-1.5C762.4,629.7,761.8,629,760.9,629z M914.9,207c-0.8,0-1.5,0.7-1.5,1.5
			c0,0.8,0.7,1.5,1.5,1.5c0.8,0,1.5-0.7,1.5-1.5C916.4,207.7,915.8,207,914.9,207z M1547.9,144c-0.8,0-1.5,0.7-1.5,1.5
			c0,0.8,0.7,1.5,1.5,1.5c0.8,0,1.5-0.7,1.5-1.5C1549.4,144.7,1548.8,144,1547.9,144z M1766.9,771c-0.8,0-1.5,0.7-1.5,1.5
			c0,0.8,0.7,1.5,1.5,1.5c0.8,0,1.5-0.7,1.5-1.5C1768.4,771.7,1767.8,771,1766.9,771z M1186.9,677c-0.8,0-1.5,0.7-1.5,1.5
			c0,0.8,0.7,1.5,1.5,1.5c0.8,0,1.5-0.7,1.5-1.5C1188.4,677.7,1187.8,677,1186.9,677z M1222.9,1086c-0.8,0-1.5,0.7-1.5,1.5
			c0,0.8,0.7,1.5,1.5,1.5c0.8,0,1.5-0.7,1.5-1.5C1224.4,1086.7,1223.8,1086,1222.9,1086z M1692.9,810c-0.8,0-1.5,0.7-1.5,1.5
			c0,0.8,0.7,1.5,1.5,1.5c0.8,0,1.5-0.7,1.5-1.5C1694.4,810.7,1693.8,810,1692.9,810z M1720.9,834c-0.8,0-1.5,0.7-1.5,1.5
			c0,0.8,0.7,1.5,1.5,1.5c0.8,0,1.5-0.7,1.5-1.5C1722.4,834.7,1721.8,834,1720.9,834z M2219.9,919c-0.8,0-1.5,0.7-1.5,1.5
			s0.7,1.5,1.5,1.5c0.8,0,1.5-0.7,1.5-1.5S2220.8,919,2219.9,919z M2457.9,1279c-0.8,0-1.5,0.7-1.5,1.5c0,0.8,0.7,1.5,1.5,1.5
			c0.8,0,1.5-0.7,1.5-1.5C2459.4,1279.7,2458.8,1279,2457.9,1279z M2419.9,1340c-0.8,0-1.5,0.7-1.5,1.5s0.7,1.5,1.5,1.5
			c0.8,0,1.5-0.7,1.5-1.5S2420.8,1340,2419.9,1340z M2421.9,398c-0.8,0-1.5,0.7-1.5,1.5s0.7,1.5,1.5,1.5c0.8,0,1.5-0.7,1.5-1.5
			S2422.8,398,2421.9,398z M2460.9,426c-0.8,0-1.5,0.7-1.5,1.5c0,0.8,0.7,1.5,1.5,1.5c0.8,0,1.5-0.7,1.5-1.5
			C2462.4,426.7,2461.8,426,2460.9,426z M2458.4,148.5c0-0.8-0.7-1.5-1.5-1.5c-0.8,0-1.5,0.7-1.5,1.5s0.7,1.5,1.5,1.5
			C2457.8,150,2458.4,149.3,2458.4,148.5z M149.9,1366c-0.8,0-1.5,0.7-1.5,1.5s0.7,1.5,1.5,1.5c0.8,0,1.5-0.7,1.5-1.5
			S150.8,1366,149.9,1366z M172.9,1385c-0.8,0-1.5,0.7-1.5,1.5c0,0.8,0.7,1.5,1.5,1.5c0.8,0,1.5-0.7,1.5-1.5
			C174.4,1385.7,173.8,1385,172.9,1385z M670.9,1276c-0.8,0-1.5,0.7-1.5,1.5s0.7,1.5,1.5,1.5c0.8,0,1.5-0.7,1.5-1.5
			S671.8,1276,670.9,1276z M879.9,965c-0.8,0-1.5,0.7-1.5,1.5s0.7,1.5,1.5,1.5c0.8,0,1.5-0.7,1.5-1.5S880.8,965,879.9,965z
			 M454.9,1046c-0.8,0-1.5,0.7-1.5,1.5c0,0.8,0.7,1.5,1.5,1.5c0.8,0,1.5-0.7,1.5-1.5C456.4,1046.7,455.8,1046,454.9,1046z
			 M391.9,448c-0.8,0-1.5,0.7-1.5,1.5c0,0.8,0.7,1.5,1.5,1.5c0.8,0,1.5-0.7,1.5-1.5C393.4,448.7,392.8,448,391.9,448z M1378.9,348
			c-0.8,0-1.5,0.7-1.5,1.5c0,0.8,0.7,1.5,1.5,1.5c0.8,0,1.5-0.7,1.5-1.5C1380.4,348.7,1379.8,348,1378.9,348z M580.9,251
			c-0.8,0-1.5,0.7-1.5,1.5c0,0.8,0.7,1.5,1.5,1.5c0.8,0,1.5-0.7,1.5-1.5C582.4,251.7,581.8,251,580.9,251z M2092.9,621
			c-0.8,0-1.5,0.7-1.5,1.5c0,0.8,0.7,1.5,1.5,1.5c0.8,0,1.5-0.7,1.5-1.5C2094.4,621.7,2093.8,621,2092.9,621z M1317.9,856
			c-0.8,0-1.5,0.7-1.5,1.5c0,0.8,0.7,1.5,1.5,1.5c0.8,0,1.5-0.7,1.5-1.5C1319.4,856.7,1318.8,856,1317.9,856z M2069.9,1078
			c-0.8,0-1.5,0.7-1.5,1.5c0,0.8,0.7,1.5,1.5,1.5c0.8,0,1.5-0.7,1.5-1.5C2071.4,1078.7,2070.8,1078,2069.9,1078z M1664.9,1214
			c-0.8,0-1.5,0.7-1.5,1.5c0,0.8,0.7,1.5,1.5,1.5c0.8,0,1.5-0.7,1.5-1.5C1666.4,1214.7,1665.8,1214,1664.9,1214z M1061.9,1330
			c-0.8,0-1.5,0.7-1.5,1.5c0,0.8,0.7,1.5,1.5,1.5c0.8,0,1.5-0.7,1.5-1.5C1063.4,1330.7,1062.8,1330,1061.9,1330z M1119.9,498
			c-0.8,0-1.5,0.7-1.5,1.5c0,0.8,0.7,1.5,1.5,1.5c0.8,0,1.5-0.7,1.5-1.5C1121.4,498.7,1120.8,498,1119.9,498z M1675.9,510
			c-0.8,0-1.5,0.7-1.5,1.5c0,0.8,0.7,1.5,1.5,1.5c0.8,0,1.5-0.7,1.5-1.5C1677.4,510.7,1676.8,510,1675.9,510z M1999.9,260
			c-0.8,0-1.5,0.7-1.5,1.5c0,0.8,0.7,1.5,1.5,1.5c0.8,0,1.5-0.7,1.5-1.5C2001.4,260.7,2000.8,260,1999.9,260z M1393.9,351
			c-0.8,0-1.5,0.7-1.5,1.5c0,0.8,0.7,1.5,1.5,1.5c0.8,0,1.5-0.7,1.5-1.5C1395.4,351.7,1394.8,351,1393.9,351z M468.9,1035
			c-0.8,0-1.5,0.7-1.5,1.5c0,0.8,0.7,1.5,1.5,1.5c0.8,0,1.5-0.7,1.5-1.5C470.4,1035.7,469.8,1035,468.9,1035z M2079.9,1084
			c-0.8,0-1.5,0.7-1.5,1.5c0,0.8,0.7,1.5,1.5,1.5c0.8,0,1.5-0.7,1.5-1.5C2081.4,1084.7,2080.8,1084,2079.9,1084z"/>
	</g>
</g>
</svg>
