<svg xmlns="http://www.w3.org/2000/svg" width="17" height="17" viewBox="0 0 17 17">
  <defs>
    <style>
      .cls-1 {
        fill: #fafafa;
        fill-rule: evenodd;
      }
    </style>
  </defs>
  <path id="Shape_1864_copy" data-name="Shape 1864 copy" class="cls-1" d="M1551.06,1576h-15.12a0.939,0.939,0,0,0-.94.94v15.12a0.939,0.939,0,0,0,.94.94h8.14v-6.58h-2.22v-2.57h2.22v-1.89a3.088,3.088,0,0,1,3.3-3.39,18.689,18.689,0,0,1,1.98.1v2.29H1548a1.067,1.067,0,0,0-1.27,1.25v1.64h2.54l-0.33,2.57h-2.21V1593h4.33a0.939,0.939,0,0,0,.94-0.94v-15.12A0.939,0.939,0,0,0,1551.06,1576Z" transform="translate(-1535 -1576)"/>
</svg>
