<svg xmlns="http://www.w3.org/2000/svg" width="17" height="17" viewBox="0 0 17 17">
  <defs>
    <style>
      .cls-1 {
        fill: #fcfcfc;
        fill-rule: evenodd;
      }
    </style>
  </defs>
  <path class="cls-1" d="M1789.5,1577.53c2.27,0,2.54.01,3.43,0.05a4.968,4.968,0,0,1,1.58.29,2.849,2.849,0,0,1,1.62,1.62,4.968,4.968,0,0,1,.29,1.58c0.04,0.89.05,1.16,0.05,3.43s-0.01,2.54-.05,3.43a4.968,4.968,0,0,1-.29,1.58,2.849,2.849,0,0,1-1.62,1.62,4.968,4.968,0,0,1-1.58.29c-0.89.04-1.16,0.05-3.43,0.05s-2.54-.01-3.43-0.05a4.968,4.968,0,0,1-1.58-.29,2.849,2.849,0,0,1-1.62-1.62,4.968,4.968,0,0,1-.29-1.58c-0.04-.89-0.05-1.16-0.05-3.43s0.01-2.54.05-3.43a4.968,4.968,0,0,1,.29-1.58,2.849,2.849,0,0,1,1.62-1.62,4.968,4.968,0,0,1,1.58-.29c0.89-.04,1.16-0.05,3.43-0.05m0-1.53c-2.31,0-2.6.01-3.5,0.05a6.208,6.208,0,0,0-2.07.4,4.366,4.366,0,0,0-2.48,2.48,6.208,6.208,0,0,0-.4,2.07c-0.04.9-.05,1.19-0.05,3.5s0.01,2.6.05,3.5a6.208,6.208,0,0,0,.4,2.07,4.366,4.366,0,0,0,2.48,2.48,6.208,6.208,0,0,0,2.07.4c0.9,0.04,1.19.05,3.5,0.05s2.6-.01,3.5-0.05a6.208,6.208,0,0,0,2.07-.4,4.366,4.366,0,0,0,2.48-2.48,6.208,6.208,0,0,0,.4-2.07c0.04-.9.05-1.19,0.05-3.5s-0.01-2.6-.05-3.5a6.208,6.208,0,0,0-.4-2.07,4.366,4.366,0,0,0-2.48-2.48,6.208,6.208,0,0,0-2.07-.4c-0.9-.04-1.19-0.05-3.5-0.05h0Zm0,4.14a4.36,4.36,0,1,0,4.37,4.36A4.357,4.357,0,0,0,1789.5,1580.14Zm0,7.19a2.83,2.83,0,1,1,2.83-2.83A2.827,2.827,0,0,1,1789.5,1587.33Zm5.56-7.37a1.02,1.02,0,1,1-1.02-1.02A1.018,1.018,0,0,1,1795.06,1579.96Z" transform="translate(-1781 -1576)"/>
</svg>
