<svg xmlns="http://www.w3.org/2000/svg" width="7.97" height="5" viewBox="0 0 7.97 5">
  <defs>
    <style>
      .cls-1 {
        fill: #fcfcfc;
        fill-rule: evenodd;
      }
    </style>
  </defs>
  <path id="Shape_1914_copy_2" data-name="Shape 1914 copy 2" class="cls-1" d="M2985.75,1645.89c-0.55-.58-1.12-1.15-1.69-1.71a0.63,0.63,0,0,0-.86.92c0.26,0.25.51,0.51,0.76,0.76-1.79-.07-3.58-0.02-5.37-0.02a0.653,0.653,0,0,0,0,1.3c1.82,0,3.66-.05,5.48.03-0.24.25-.5,0.49-0.75,0.73a0.63,0.63,0,0,0,.86.92C2984.82,1648.2,2986.7,1646.87,2985.75,1645.89Z" transform="translate(-2978.03 -1644)"/>
</svg>
