<?xml version="1.0" encoding="utf-8"?>
<!-- Generator: Adobe Illustrator 21.0.0, SVG Export Plug-In . SVG Version: 6.00 Build 0)  -->
<svg version="1.1" id="Layer_1" xmlns="http://www.w3.org/2000/svg" xmlns:xlink="http://www.w3.org/1999/xlink" x="0px" y="0px"
	 viewBox="0 0 101 96" style="enable-background:new 0 0 101 96;" xml:space="preserve">
<style type="text/css">
	.st0{fill:#FFFFFF;}
</style>
<circle class="st0" cx="51.2" cy="47.8" r="36.2"/>
<path d="M90.2,9.9c-6-4.6-10.1-1.1-14.5-3.7c-6-3.3-13.3-5.1-17.9-5.8C46.7-1.1,30,1.5,21.5,9.6c-4.5,4.6-9.3,9.7-14,16.2
	c-23.8,32.9,15.1,64.1,32.2,68.9c11.7,3.1,25.7,1.1,36.9-5.9c5.1-3,19.1-14.2,20.8-25.2C100.8,44.7,106,21.9,90.2,9.9z M42.5,38.4
	c-0.2-1.4-0.1-3-0.1-4.3c-0.1-0.5,0.1-1.3-0.1-1.9c0-0.1,0.1,0,0.1,0c0-0.1-0.1-0.2,0-0.3c0.1,0,0.2,0.1,0.4,0.1
	c0-0.1-0.2-0.2-0.1-0.2c0.3,0,0.5,0.1,0.7,0.3c0.1,0,0.2,0.1,0.3,0.2c0.1,0.1,0.1,0.1,0.2,0.1c0.1,0.2,0.2,0.7,0.2,0.9
	c0,0.4,0,0.8,0,1.2c0,0.5,0,1-0.1,1.5c-0.1,0.6-0.1,1-0.1,1.6c0,0.5,0.2,1.2,0,1.6c0,0,0,0.1-0.1,0.1c-0.1,0-0.2-0.1-0.3-0.2
	c-0.1,0-0.2,0-0.2,0c-0.1,0-0.2,0.1-0.4,0.1c0,0,0,0.1,0,0.1c-0.1,0.1-0.1,0-0.2,0C42.6,39.3,42.6,38.7,42.5,38.4z M44.9,57.3
	c-0.2-0.8-0.1-2.7-0.1-3.8c0.1-0.9,0-1.9,0.1-2.9c0.1-1.5,0-2.4,0.1-3.9c0-0.9,0.1-2.2-0.1-3.1c-0.9-0.1-1.8,0-2.4-0.4
	c0-0.1,0-0.4,0-0.4c-0.2-0.2-0.2-0.5-0.1-0.9c0.1-0.1,0.2,0,0.2-0.2c0.1,0,0.1,0.1,0.2,0.1c1.3-0.4,5.5-0.3,5.8-0.4
	c0.7,0,1.6,0.1,2.2,0.1c0,0.1-0.1,0.1-0.1,0.2c0,0.1,0.1,0,0.2,0c0,0.2-0.1,0.2,0,0.4c0.1,0.1,0.1-0.1,0.2,0.1c0,0.1,0,0.2-0.1,0.2
	c0,0.1,0.1,0,0.1,0c0.1,0.1-0.2,0.4,0,0.4C51,42.8,51,43,50.8,42.9c-0.3,0.6-1.3,0.7-2.2,0.7c0,0.2,0,0.5,0,0.9
	c0,0.8-0.2,8.1-0.2,8.8c0,0.8,0.2,2.6,0.1,3.4c0,0.1-0.1,0.2-0.1,0.3c-0.1,0.6-0.1,0.5-0.6,0.8c-0.2,0.1-0.4,0.4-0.7,0.4
	c-0.2,0-0.4-0.2-0.5-0.2c-0.2,0.1-0.3,0.2-0.3,0.3c-0.2-0.1-0.5,0-0.6,0.1c-0.3-0.2-0.4-0.6-0.7-0.8C44.8,57.4,44.8,57.3,44.9,57.3z
	 M46.4,38.6c0-0.1,0.1,0,0.1,0c-0.1-0.5-0.1-1.3-0.1-1.9c0-0.4,0-0.7,0-1.1c0-0.6,0-1.1,0-1.8c0-0.8,0.2-1.4,0-1.8
	c0.1-0.1,0.4-0.1,0.5-0.1c0.3,0,0.4,0.1,0.6,0.2c0.2,0.1,0.3,0.2,0.2,0.2c0.1,0.1,0.3,0.1,0.4,0.3c-0.2,0.6-0.2,1.6-0.2,2.3
	c0,1.1,0,2.9,0.1,3.5c0.3,0.1,1.1,0.1,1.2,0c0.1,0,0.2-0.1,0.2-0.1c0,0,0,0.2,0,0.3c0,0.1,0,0.2,0.1,0.2c-0.1,0.1,0,0.1,0,0.2
	c0,0.1-0.2,0.1-0.2,0.2c-0.7,0.1-1.2,0.2-1.8,0.1c-0.1,0-0.3,0-0.4,0c-0.3,0-1,0-0.8-0.1c0.1-0.1-0.2-0.1-0.1-0.1c0,0,0.2,0,0.2,0
	c-0.1-0.1-0.2,0-0.2-0.1c-0.2-0.1-0.2-0.2-0.2-0.2c0.1,0,0.2,0,0.3,0C46.6,38.7,46.4,38.8,46.4,38.6z M49.6,69.1
	c-0.2,0.2,0.4,0.8,0.2,0.8C49.1,70,47,70,46.2,70c-0.2,1.5,0,3.4-0.3,5.1c-0.1,0.1-0.2,0.1-0.2,0.3c-0.2,0.1-0.2,0.3-0.4,0.3
	c-0.1,0.2-0.1,0.3-0.3,0.3c-0.2,0-0.8-0.1-0.9-0.1c-0.5,0-0.9-0.1-1.3-0.2c-0.3-0.2-0.2-0.8-0.4-1.1c0.1-0.3,0.1-2.3,0.1-2.6
	c0-1.5,0.1-2.8,0.1-4c0-1.4-0.1-3.9-0.1-5.9c0-0.7,0.1-1.8,0.1-1.9c0.6-0.1,3.1,0,3.5,0c1.8,0,3.2,0,4.2,0.7c0.1,0.1,0,0.4,0.1,0.5
	c0,0.2-0.1,0.2,0,0.4c0,0.2-0.2,0.2-0.1,0.4c0,0-0.1,0-0.2,0c-0.1,0.1,0.1,0.1,0,0.2c-0.2,0.1-0.4,0.2-0.5,0.3c-1,0.1-2.3,0-3.4-0.1
	c0,0.9,0.1,1.9,0,2.8c0,0.8-0.1,1.5,0,2.2c0.9-0.1,2.4,0.1,3,0.5c0.1,0.1,0,0.2,0.2,0.1c0,0.2,0.1,0.2,0.1,0.4
	C49.6,68.9,50.1,69,49.6,69.1z M60.5,66.3c0,2.4-0.2,4.4-0.5,5.8c-0.3,1.4-0.9,2.9-2.9,3.7c-0.2,0.1-0.5,0.2-0.8,0.2
	c-0.6,0.1-1.8,0-2.3-0.3c-1.8-0.8-2.3-2.8-2.4-3.4c0-0.3,0-0.4-0.1-0.6c-0.2-0.8-0.2-2-0.3-3c-0.1-2.5-0.1-3.8-0.1-4.9
	c0-0.4,0-0.8,0-1.2c0-0.6-0.3-1.8,0-1.7c0.3,0,0-0.3,0.1-0.3c0.2,0.1,0.2-0.3,0.3-0.4c0.2-0.1,0.2,0.1,0.2,0c0.1,0,0.2,0,0.4,0
	c-0.2-0.1,0-0.2,0.1-0.2c0.9,0,1.7,0.2,2.4,0.5c0.4,0.2,0.6,0.4,0.9,0.6c0.1,0.3,0,0.6,0,0.9c-0.1,1.7-0.3,4.1-0.3,6.5
	c0,1.5,0.1,3.2,0.5,4c0.1,0.2,0.6,0.4,0.9,0.4c0.3,0,0.8-0.3,0.9-0.5c1.2-1.6,1.1-4.3,1.1-7.3c0-1.2,0-2.2-0.1-3.3
	c0-0.3-0.1-0.8,0-1.2c0.1,0,0.1-0.1,0.3-0.1c0.1,0,0.2-0.3,0.3-0.1c0-0.2,0.1-0.2,0.1-0.3c0.1-0.1,0.3,0.1,0.3,0.1c0,0,0.1,0,0,0
	c0.1,0,0.1,0.1,0.2,0.1c0.1,0.1,0.1,0,0.3,0.2c0.1,0.1,0.1,0.4,0.3,0.6C60.6,61.3,60.4,64,60.5,66.3z M60.7,49.4
	c0,1.3-0.1,2.8-0.4,3.9c-0.2,1-0.6,2.1-1.1,2.9c-0.1,0.2-0.3,0.4-0.5,0.5c-0.4,0.4-0.6,0.6-0.9,1c-0.2,0-0.3,0.1-0.4,0.1
	c-0.1,0.1-0.3,0.2-0.4,0.3c-1.2,0.5-3,0.4-4.1-0.7c-0.4-0.4-0.7-0.9-1-1.3c-0.1-0.1-0.1-0.3-0.2-0.4c-0.1-0.2-0.4-1.1-0.5-1.7
	c-0.3-1.1-0.4-2.4-0.4-3.8c0-0.8,0.1-1.5,0.2-2.3c0.2-1.2,0.6-2.3,1-3.3c0.2-0.4,0.5-0.7,0.8-1.1c0.3-0.4,0.5-0.8,0.9-1
	c0-0.1,0-0.2,0.1-0.2c0.5-0.3,1.1,0.2,1.6,0.3c0.4,0.2,0.9,0.3,1.2,0.5c0.1,0.4,0.6,0.3,0.8,0.6c0,0.2,0.2,0.2,0.1,0.4
	c0.1,0.2,0.2,0.3,0.3,0.5c-0.2,0.3-0.4,0.5-0.7,0.7c-0.5,0.5-0.9,1.1-1.4,1.9c-0.8,1.3-1.1,2.9-1,5.4c0.1,1.1,0.3,1.7,0.7,2.5
	c0.3,0.5,0.7,0.8,1.1,0.8c0.6,0,0.7-0.3,1-0.5c0.8-1.1,1.2-2.3,1.4-3.3c0.4-2.2,0.4-4.3-0.2-6.3c-0.2-0.9-0.6-2.1-1-2.7l-0.4-0.6
	c-0.1-0.2-0.4-0.5-0.4-0.6c0-0.3,0.3-0.3,0.5-0.3c0.1-0.1-0.1-0.2-0.1-0.2c0.5-0.2,1,0.6,1.3,0.9c0.1,0.2,0.2,0.3,0.3,0.5
	c0.1,0.1,0.2,0.3,0.3,0.4c0.2,0.4,0.5,0.9,0.6,1.4C60.3,45.8,60.6,47.4,60.7,49.4z M49.9,32.4c0-0.1,0.3-0.1,0.3-0.1
	c0-0.1-0.2-0.1-0.1-0.2c0.1,0,0.2-0.1,0.3-0.1c0.2,0,0.4,0,0.5,0c0.1,0.1,0-0.1,0.1-0.1c0.3,0,0.8,0.2,0.8,0.3c0,0.1,0,0.3,0,0.4
	c0,0.1,0,0.2,0,0.2c0,0.5,0.1,0.9,0,1.4c0,0.2-0.1,0.8-0.1,1c0,0.5,0,1.1,0,2.1c0,0.2,0,0.4,0,0.7c0,0.2,0,0.3,0,0.5
	c0,0,0,0.1-0.1,0.1c0,0.1,0,0.4-0.1,0.4c0,0-0.1,0-0.2,0c-0.1,0,0,0.1-0.1,0.1c0,0.1-0.1,0.1-0.2,0.2c-0.2-0.2-0.5,0.2-0.6,0.1
	c-0.3-0.1-0.3-0.2-0.3-0.4c-0.1-1.1-0.1-2.3-0.1-3.4c0-0.8,0.1-1.7,0.1-2.4C50.1,33,50,32.6,49.9,32.4z M55.2,32.4
	C55.2,32.2,55.4,32.4,55.2,32.4c0-0.1,0-0.2,0-0.3c0-0.1,0.1,0,0.2,0c0-0.1-0.2-0.2-0.1-0.2c0.7,0,1.5,0.4,1.6,0.7
	c0.3,1,0,1.8-0.5,2.5c-0.5,0.9-1.2,1.3-1.4,1.5c0.7,0.2,0.8,1.2,1.1,1.7c0.4,0.6,0.8,0.5,0.6,0.9c0,0.1-0.1,0-0.1,0
	c0,0.1,0.1,0.2,0,0.2c-0.1,0-0.2,0-0.3,0c-0.1,0,0,0-0.1,0.1c-0.1,0-0.2,0-0.3-0.1c-0.1,0-0.4,0.1-0.8-0.4c-0.3-0.4-0.6-1.4-0.8-1.5
	c0,0.5,0.1,1.3-0.1,1.5c-0.1,0.2-0.3,0.2-0.6,0.2c0,0-0.2,0.1-0.2,0.1c-0.1-0.1-0.1,0-0.3,0c-0.1,0-0.6,0-0.5-0.1
	c0-0.1-0.1-0.4-0.1-0.5c-0.1-0.2-0.1-0.4-0.1-0.7c0-0.7,0-1.4,0-2.1c0-0.8,0-1.6,0-2.4c0-0.6,0.1-1.2-0.1-1.7
	c0.1-0.1,0.2-0.1,0.3-0.1c0.7,0,1.1,0.3,1.6,0.5c0.2,0.8,0.2,1.8,0.2,2.6C54.8,34.5,55.4,33.6,55.2,32.4z M60.6,32.4
	c0.2,0.1,0,0.2,0.1,0.3c0.2,0-0.1,0.1-0.1,0.1c-0.1,0.1-0.7,0.1-0.9,0.2c-0.2,0-0.5,0-0.7,0c0.1,0.7,0.1,1.7,0.1,2.4
	c0.5-0.1,0.9-0.1,1.3-0.1c0.1,0,0,0.1,0,0.1c0.1,0,0.1,0,0.1,0c0.1,0,0,0.1,0.1,0.2c0.1,0.1-0.1,0.1,0,0.2c0.1,0.1-0.1,0.1-0.2,0.1
	c0,0.1,0.1,0,0.1,0.1c-0.1,0.1-0.2,0.1-0.3,0.2c-0.1,0-0.3,0.1-0.6,0.1c-0.2,0-0.4,0-0.7,0c0,0.7,0,1.4,0,2.2c0.3,0,0.7,0,1,0.1
	c0.2,0,0.4,0.1,0.6,0.1c0.1-0.1,0.1,0.2,0.1,0.3c0.1,0.1,0.2,0.4,0,0.4c-0.1,0,0,0.2-0.1,0.1c-0.2,0-0.2,0.1-0.6,0.1
	c-0.9,0-2,0.2-2.6-0.2c0-0.1-0.2-0.2-0.1-0.2c0.1,0,0-0.2,0-0.3c0-0.3,0-0.7,0-1l0-3c0-0.6,0.1-1.2,0-1.7c-0.2,0-0.2-0.1,0-0.1
	c0-0.1-0.3-0.2-0.2-0.2c0.1,0-0.1-0.2,0-0.2c0,0,0.1,0,0.1-0.1c0,0-0.1,0,0-0.1c0,0,0.1,0,0.1,0c0,0,0-0.1,0.2-0.1
	c0.1,0,0.4,0,0.7,0.1c0.2,0,0.5-0.1,0.7-0.1c0.5,0,1.1-0.1,1.5,0c0.1,0,0,0.1,0.1,0.1c0,0,0.1,0,0.1,0
	C60.7,32.2,60.5,32.3,60.6,32.4C60.7,32.4,60.8,32.4,60.6,32.4z M61.3,28.7c-0.5,0.2-0.4,0.9-0.7,1.1c-0.6,0.4-0.6,0.1-1,0
	c-2-1.3-3.8-2.8-5.5-4.3c-0.7-0.6-1.4-1.3-2.1-1.9c-0.9,1-2,2.1-2.8,2.9c-1.8,1.5-3.4,2.3-5.5,3.3c-0.4,0.2-0.4,0.4-1,0
	c-0.3-0.2-1.1-1.5-0.9-2.2c0.1-0.4,0.8-0.8,0.8-0.9c0.2-0.2,0.5-0.3,0.8-0.5c0.6-0.3,2.8-1.4,4.1-2.5c0.5-0.4,1.3-1.2,2-2
	c-0.2-0.1-0.5-0.2-0.6-0.3c-0.2-0.2-0.3-0.4-0.3-0.7c0-0.2,0.2-0.4,0.3-0.6c0.2-0.3,0.5-0.6,0.7-0.7c0.2-0.1-0.2-0.1,0-0.2
	c0.4-0.4,1.3-0.9,1.5-0.7c0.2,0.2,0.5,0.3,0.7,0.5c0.1,0.1,0.2,0.2,0.3,0.3c0.7,0.6,3.4,2.9,3.7,3.2c0.7,0.7,1.7,1.5,3.2,2.7
	c0.3,0.2,0.7,0.6,1.1,0.8c0.3,0.2,0.5,0.4,0.7,0.6c0.1,0.1,0.1,0.2,0.2,0.3c0.2,0.2,0.5,0.5,0.6,0.7C61.6,27.6,61.7,28.5,61.3,28.7z
	"/>
</svg>
