<?xml version="1.0" encoding="utf-8"?>
<!-- Generator: Adobe Illustrator 21.0.0, SVG Export Plug-In . SVG Version: 6.00 Build 0)  -->
<svg version="1.1" id="Layer_1" xmlns="http://www.w3.org/2000/svg" xmlns:xlink="http://www.w3.org/1999/xlink" x="0px" y="0px"
	 viewBox="0 0 35 116" style="enable-background:new 0 0 35 116;" xml:space="preserve">
<style type="text/css">
	.st0{fill-rule:evenodd;clip-rule:evenodd;fill:#FFFFFF;}
	.st1{fill-rule:evenodd;clip-rule:evenodd;fill:#000200;}
</style>
<rect x="2.5" y="37.5" class="st0" width="27" height="69"/>
<path class="st1" d="M35,14.2C35,11,33.7,6.4,33,4c-1.1-3.8-8.9-4.3-9.8-4C12.8,3.7,5.2,2.3,4.2,2.5C3.1,2.8,1,5.8,0.2,7.6
	C0,8.2,0,14.2,0,14.2c0.4,7.9,0.2,8,0.3,15.9c0.3,16.1-0.1,32.2,0,48.4c0.1,7.5,0.7,15,1,22.5c0.1,4.1,0.3,8.2,0.3,12.6
	c3.9,0.7,7.9,1.4,11.9,2c3.4,0.5,7.6,1.7,10.2-2.8c1.4-2.4,7.9,0,8-0.3c1.1-3.5,2.5-7.1,2.7-10.7c0.4-11.9,0.2-23.9,0.2-35.9
	C34.5,63.8,35.1,16.6,35,14.2z M8.6,57.7c0.1,0,0.2,0.1,0.3,0.1c0-0.1-0.2-0.2-0.1-0.2c0.2,0,0.5,0.1,0.7,0.3c0.1,0,0.2,0.1,0.3,0.2
	c0.1,0.1,0.1,0.1,0.2,0.1c0.1,0.2,0.2,0.6,0.2,0.9c0,0.4,0,0.8,0,1.2c0,0.5,0,1-0.1,1.5c-0.1,0.6-0.1,1-0.1,1.6
	c0,0.5,0.2,1.1,0.1,1.6c0,0,0,0.1-0.1,0.1c-0.1,0-0.2-0.1-0.3-0.2c-0.1,0-0.2,0-0.2,0c-0.1,0-0.2,0.1-0.4,0.1c0,0,0,0.1,0,0.1
	c-0.1,0.1-0.1,0-0.2,0c-0.1-0.2-0.1-0.7-0.2-1c-0.2-1.4-0.1-2.9-0.1-4.2c-0.1-0.5,0.1-1.3-0.1-1.8c0-0.1,0.1,0,0.1,0
	C8.7,57.9,8.5,57.8,8.6,57.7z M16.6,87.1c0,0-0.1,0-0.2,0c-0.1,0.1,0.1,0.1,0,0.2c-0.2,0.1-0.3,0.2-0.5,0.3c-1,0.1-2.2,0-3.3,0
	c0,0.9,0.1,1.8,0,2.7c0,0.8-0.1,1.5,0,2.2c0.9-0.1,2.4,0.1,3,0.5c0.1,0.1,0,0.2,0.2,0.1c0,0.2,0.1,0.2,0.1,0.4c0,0.2,0.5,0.3,0,0.4
	c-0.2,0.2,0.4,0.7,0.2,0.8c-0.7,0.1-2.7,0.1-3.5,0.1c-0.2,1.4,0,3.3-0.2,5c-0.1,0.1-0.2,0.1-0.2,0.3c-0.2,0.1-0.2,0.3-0.4,0.3
	c-0.1,0.2-0.1,0.3-0.3,0.3c-0.2,0-0.7-0.1-0.9-0.1c-0.4,0-0.8-0.1-1.2-0.2c-0.3-0.2-0.2-0.7-0.4-1.1C9.1,99,9,97,9,96.8
	c0-1.4,0-2.7,0-3.9c0-1.3-0.1-3.8-0.1-5.8c0-0.7,0-1.8,0.1-1.9c0.6-0.1,3,0,3.4,0c1.8,0,3.1,0,4.1,0.6c0.1,0.1,0,0.4,0.1,0.5
	c0,0.2-0.1,0.2,0,0.4C16.7,86.9,16.6,86.9,16.6,87.1z M14.7,69.1c0,0.2,0,0.5,0,0.8c0,0.8-0.1,7.9-0.1,8.6c0,0.7,0.2,2.5,0.1,3.3
	c0,0.1-0.1,0.2-0.1,0.3c-0.1,0.6-0.1,0.5-0.6,0.8c-0.2,0.1-0.4,0.4-0.7,0.4c-0.2,0-0.3-0.2-0.5-0.2c-0.2,0.1-0.3,0.2-0.3,0.3
	c-0.2-0.1-0.5,0-0.6,0.1c-0.3-0.2-0.4-0.6-0.7-0.8c0-0.1,0-0.2,0.1-0.2C11,81.6,11,79.8,11,78.7c0.1-0.9,0-1.9,0.1-2.9
	c0.1-1.5,0-2.4,0.1-3.8c0-0.9,0.1-2.2-0.1-3.1c-0.9-0.1-1.8,0-2.4-0.4c0-0.1,0-0.3,0-0.4c-0.2-0.2-0.2-0.5-0.1-0.9
	c0.1-0.1,0.2,0,0.2-0.2c0.1,0,0.1,0.1,0.2,0.1c1.2-0.4,5.4-0.4,5.6-0.4c0.7,0,1.5,0.1,2.1,0.1c0,0.1-0.1,0.1-0.1,0.2
	c0,0.1,0.1,0,0.2,0c0,0.2-0.1,0.2,0,0.3c0.1,0.1,0.1-0.1,0.2,0.1c0,0.1,0,0.2-0.1,0.2c0,0.1,0.1,0,0.1,0c0.1,0.1-0.2,0.4,0,0.4
	c-0.1,0.1-0.1,0.3-0.2,0.2C16.6,69,15.5,69,14.7,69.1z M12.5,64.2c0-0.1,0.1,0,0.1,0c-0.1-0.5-0.1-1.2-0.1-1.9c0-0.4,0-0.7,0-1.1
	c0-0.6,0-1.1,0-1.8c0-0.8,0.2-1.4,0-1.8c0.1-0.1,0.4-0.1,0.5-0.1c0.3,0,0.4,0.1,0.6,0.2C14,57.9,14.1,58,14,58
	c0.1,0.1,0.3,0.1,0.4,0.3c-0.1,0.6-0.1,1.6-0.1,2.3c0,1,0,2.9,0.1,3.4c0.3,0.1,1,0.1,1.2,0c0.1,0,0.1-0.1,0.2-0.1c0,0,0,0.2,0,0.3
	c0,0.1,0,0.2,0.1,0.2c-0.1,0.1,0,0.1,0,0.2c0,0.1-0.2,0.1-0.2,0.2c-0.7,0.1-1.2,0.2-1.8,0.1c-0.1,0-0.2,0-0.4,0c-0.3,0-1,0-0.8-0.1
	c0.1-0.1-0.2-0.1-0.1-0.1c0,0,0.2,0,0.2,0c-0.1-0.1-0.2,0-0.2-0.1c-0.2-0.1-0.2-0.2-0.2-0.2c0.1,0,0.2,0,0.3,0
	C12.7,64.3,12.5,64.3,12.5,64.2z M16.1,57.8c0.1,0,0.2-0.1,0.3-0.1c0.2,0,0.4,0,0.5,0c0.1,0.1,0-0.1,0.1-0.1c0.3,0,0.7,0.2,0.7,0.3
	c0,0.1,0,0.3,0,0.4c0,0.1,0,0.2,0,0.2c0,0.4,0.1,0.8,0,1.4c0,0.2-0.1,0.7-0.1,0.9c0,0.5,0,1.1,0,2c0,0.2,0,0.4,0,0.6
	c0,0.2,0,0.3,0,0.5c0,0,0,0.1-0.1,0.1c0,0.1,0,0.4-0.1,0.4c0,0-0.1,0-0.2,0c-0.1,0,0,0.1-0.1,0.1c0,0.1-0.1,0.1-0.2,0.2
	c-0.2-0.2-0.4,0.2-0.6,0.1c-0.3-0.1-0.2-0.2-0.3-0.4c-0.1-1.1-0.1-2.2-0.1-3.4c0-0.8,0.1-1.6,0-2.3c0-0.3-0.1-0.7-0.2-0.9
	c0-0.1,0.3-0.1,0.3-0.1C16.2,57.8,16,57.8,16.1,57.8z M26.1,96.8c-0.3,1.4-0.9,2.8-2.8,3.6c-0.2,0.1-0.5,0.2-0.8,0.2
	c-0.6,0.1-1.8,0-2.2-0.2c-1.8-0.7-2.3-2.7-2.4-3.3c0-0.3,0-0.4-0.1-0.6c-0.2-0.8-0.2-2-0.3-2.9c-0.1-2.4-0.1-3.7-0.2-4.8
	c0-0.4,0-0.8,0-1.2c0-0.6-0.3-1.7,0-1.6c0.3,0,0-0.3,0.1-0.3c0.2,0.1,0.2-0.3,0.3-0.4c0.2-0.1,0.2,0.1,0.2,0c0.1,0,0.2,0,0.4,0
	c-0.2-0.1,0-0.2,0.1-0.2c0.9,0,1.6,0.2,2.3,0.5c0.4,0.2,0.6,0.3,0.8,0.6c0.1,0.3,0,0.6,0,0.9c-0.1,1.7-0.2,4-0.2,6.4
	c0,1.5,0.1,3.1,0.6,3.9c0.1,0.2,0.6,0.4,0.9,0.4c0.3,0,0.8-0.3,0.9-0.5c1.1-1.6,1-4.2,1-7.2c0-1.1,0-2.1-0.2-3.2
	c0-0.3-0.1-0.8,0-1.1c0.1,0,0.1-0.1,0.3-0.1c0.1,0,0.2-0.3,0.3-0.1c0-0.2,0.1-0.2,0.1-0.3c0.1-0.1,0.3,0.1,0.3,0.1c0,0,0.1,0,0,0
	c0.1,0,0.1,0.1,0.2,0.1c0.1,0.1,0.1,0,0.3,0.2c0.1,0.1,0.1,0.4,0.3,0.6c0.4,0.1,0.3,2.8,0.3,5C26.5,93.4,26.4,95.4,26.1,96.8z
	 M26.2,78.5c-0.2,1-0.6,2-1.1,2.9c-0.1,0.2-0.3,0.4-0.5,0.5c-0.3,0.4-0.5,0.6-0.8,0.9c-0.2,0-0.3,0.1-0.3,0.1
	c-0.1,0.1-0.3,0.2-0.4,0.3c-1.2,0.5-2.9,0.4-4-0.7c-0.4-0.4-0.7-0.8-1-1.3C18,81,18,80.9,17.9,80.8c-0.1-0.2-0.4-1.1-0.5-1.7
	c-0.3-1.1-0.4-2.3-0.4-3.7c0-0.8,0.1-1.5,0.2-2.3c0.1-1.2,0.5-2.3,1-3.3c0.2-0.4,0.5-0.7,0.7-1.1c0.2-0.4,0.5-0.7,0.8-1
	c0-0.1,0-0.2,0-0.2c0.5-0.3,1.1,0.1,1.6,0.3c0.4,0.2,0.9,0.2,1.1,0.5c0.1,0.4,0.6,0.3,0.8,0.6c0,0.2,0.2,0.2,0.1,0.4
	c0.1,0.2,0.2,0.3,0.3,0.5c-0.1,0.3-0.4,0.5-0.7,0.7c-0.5,0.5-0.9,1.1-1.3,1.8c-0.7,1.3-1.1,2.8-0.9,5.3c0.1,1,0.3,1.7,0.7,2.4
	c0.3,0.5,0.7,0.8,1.1,0.8c0.6,0,0.7-0.3,1-0.5c0.8-1.1,1.1-2.2,1.3-3.2c0.3-2.2,0.3-4.2-0.2-6.2c-0.2-0.8-0.6-2-1-2.6l-0.4-0.6
	c-0.1-0.2-0.4-0.5-0.4-0.6c0-0.3,0.3-0.3,0.5-0.3c0.1-0.1-0.1-0.2-0.1-0.2c0.5-0.2,1,0.6,1.2,0.9c0.1,0.2,0.2,0.3,0.3,0.5
	c0.1,0.1,0.2,0.3,0.3,0.4c0.2,0.4,0.5,0.9,0.6,1.4c0.5,1.5,0.9,3,0.9,5C26.6,75.9,26.4,77.4,26.2,78.5z M21.1,58
	C21,57.9,21.2,58.1,21.1,58c0-0.1,0-0.2,0-0.3c0-0.1,0.1,0,0.2,0c0-0.1-0.2-0.2-0.1-0.2c0.7,0,1.5,0.4,1.6,0.7c0.3,1,0,1.8-0.4,2.5
	c-0.5,0.8-1.2,1.3-1.4,1.5c0.6,0.2,0.8,1.2,1.1,1.7c0.3,0.5,0.8,0.5,0.6,0.9c0,0.1-0.1,0-0.1,0c0,0.1,0.1,0.2,0,0.2
	c-0.1,0-0.2,0-0.3,0c-0.1,0,0,0-0.1,0.1c-0.1,0-0.2,0-0.3-0.1c-0.1,0-0.4,0.1-0.8-0.4c-0.3-0.4-0.6-1.3-0.8-1.5c0,0.5,0.1,1.2,0,1.5
	c-0.1,0.2-0.3,0.2-0.6,0.2c0,0-0.2,0.1-0.2,0.1c-0.1-0.1-0.1,0-0.3,0c-0.1,0-0.6,0-0.5-0.1c0-0.1-0.1-0.4-0.1-0.5
	c-0.1-0.2-0.1-0.4-0.1-0.6c0-0.7,0-1.3,0-2.1c0-0.8,0-1.6,0-2.3c0-0.6,0.1-1.2-0.1-1.7c0.1-0.1,0.2-0.1,0.3-0.1
	c0.7,0,1.1,0.2,1.5,0.5c0.2,0.8,0.2,1.7,0.2,2.6C20.8,60.1,21.3,59.2,21.1,58z M26.5,64.7c-0.1,0,0,0.2-0.1,0.1
	c-0.2,0-0.2,0.1-0.6,0.1c-0.9,0-1.9,0.2-2.5-0.1c0-0.1-0.2-0.2-0.1-0.2c0.1,0,0-0.2,0-0.3c0-0.3,0-0.7,0-1l0-2.9
	c0-0.5,0.1-1.2,0-1.7c-0.2,0-0.2-0.1,0-0.1c0-0.1-0.3-0.2-0.2-0.2c0.1,0-0.1-0.2,0-0.2c0,0,0.1,0,0.1-0.1c0,0-0.1,0,0-0.1
	c0,0,0.1,0,0.1,0c0,0,0-0.1,0.2-0.1c0.1,0,0.4,0,0.7,0c0.2,0,0.5-0.1,0.7-0.1c0.5,0,1-0.1,1.5,0c0.1,0,0,0.1,0.1,0.1
	c0,0,0.1,0,0.1,0c0.1,0-0.1,0.1-0.1,0.1c0.1,0,0.2,0.1,0,0.1c0.2,0.1,0,0.2,0.1,0.3c0.2,0-0.1,0.1-0.1,0.1c-0.1,0.1-0.6,0.1-0.9,0.2
	c-0.2,0-0.5,0-0.7,0c0.1,0.7,0.1,1.7,0.1,2.4c0.5-0.1,0.8-0.1,1.3-0.1c0.1,0,0,0.1,0,0.1c0.1,0,0.1,0,0.1,0c0.1,0,0,0.1,0.1,0.2
	c0.1,0.1-0.1,0.1,0,0.2c0.1,0.1-0.1,0.1-0.2,0.1c0,0.1,0.1,0,0.1,0.1c-0.1,0.1-0.2,0.1-0.3,0.2c-0.1,0-0.3,0.1-0.6,0.1
	c-0.2,0-0.4,0-0.6,0c0,0.7,0,1.4,0,2.2c0.3,0,0.6,0,1,0.1c0.2,0,0.4,0.1,0.6,0.1c0.1-0.1,0.1,0.2,0.1,0.3
	C26.6,64.3,26.6,64.7,26.5,64.7z M27,54.4c-0.5,0.2-0.3,0.9-0.7,1.1c-0.6,0.4-0.6,0.1-1,0c-1.9-1.2-3.7-2.7-5.5-4.2
	c-0.7-0.6-1.4-1.2-2.1-1.8c-0.9,1-1.9,2.1-2.8,2.8c-1.7,1.4-3.3,2.3-5.4,3.3c-0.4,0.2-0.4,0.4-1,0c-0.3-0.2-1.1-1.4-0.9-2.2
	c0.1-0.4,0.7-0.8,0.8-0.9c0.2-0.2,0.5-0.3,0.8-0.5c0.5-0.3,2.7-1.4,4-2.5c0.5-0.4,1.2-1.2,1.9-2c-0.2-0.1-0.5-0.2-0.6-0.3
	c-0.2-0.2-0.3-0.4-0.3-0.7c0-0.2,0.2-0.4,0.3-0.6c0.2-0.3,0.5-0.6,0.7-0.7c0.2-0.1-0.2-0.1,0-0.2c0.4-0.4,1.3-0.9,1.5-0.7
	c0.2,0.2,0.5,0.3,0.7,0.5c0.1,0.1,0.2,0.2,0.3,0.3c0.7,0.6,3.3,2.9,3.6,3.1c0.7,0.7,1.7,1.5,3.2,2.6c0.3,0.2,0.7,0.5,1,0.8
	c0.3,0.2,0.5,0.4,0.7,0.6c0.1,0.1,0.1,0.2,0.2,0.3c0.2,0.2,0.5,0.5,0.6,0.7C27.3,53.3,27.4,54.2,27,54.4z"/>
</svg>
