<svg id="Layer_1" data-name="Layer 1" xmlns="http://www.w3.org/2000/svg" viewBox="0 0 118.22 86.37"><title>Vector Smart Object3</title><path d="M5.87,2.43a2.77,2.77,0,0,1,.54,1.14c.68,1.8,4.67,13.8,7,20.7,2.44-7.08,4.2-15.18,6.23-22.5.54-.24,1.15-.06,1.56-.3a1.74,1.74,0,0,0,1.56.3c.27.3,1.22.54,1.49,1-.14,2.52,0,5,0,7.38,0,7.56-.2,14-.14,20.7,0,1.68,0,3.36.14,5.22.07,1,.81,2.28.2,3.78a8.21,8.21,0,0,1-1.49.84,3.8,3.8,0,0,1-.88.12c-.34.12-.61.42-.81.48-.47,0-1.22-.48-1.56,0-.81-.78-.61-1.8-.81-3-.61-6-.41-14.76-.41-21.36-.81,2.88-2.1,8.7-3.25,11.4a1.7,1.7,0,0,1,.07,1.62c-.54.9-1.9,1-2.64,1.62-.41.12-.41-.24-.81-.18-.2.06-.27.42-.54.42-.54-.06-1.49-1.62-1.76-2-.41-.78-.74-1.68-1.15-2.7-1.15-2.46-2.23-5.88-3.18-8.52,0-.3-.2-.06-.27-.24-.07-.42-.2-.84-.27-1.32-.07,3.54.07,7,0,10.86-.07,2.1.13,4.56,0,7a12.41,12.41,0,0,1-.34,3.36c-.2.42-.41.42-.74.66a2.89,2.89,0,0,1-.47,1.56c-.95,0-1.35.72-2.44.78,0-.36.07-.78-.2-1a34,34,0,0,0,.34-6.54c.14-2.46,0-5,0-7.68,0-5.1.2-10.32.47-15.36A17.73,17.73,0,0,0,.86,4.83c-.07-.3-.34-.66-.34-1,0-.54.54-1.14.2-1.74a7.27,7.27,0,0,1,1.56-.72C3.36,1.77,5.06,1.77,5.87,2.43Z"/><path d="M44.67,2.37c-.27.42-.27,1,.41.9-.34.36-.34.66-.41,1.38-4.4.84-6.09-.3-9.34,0-.34,3.12.13,7.38,0,10.8,1.83.18,3.86-.3,5.69-.06.2.18.27.42.47.54h.88c.2.06.07.18,0,.48a6.2,6.2,0,0,1,1.08.06,3.13,3.13,0,0,0,.47.78,6.33,6.33,0,0,0-.47,1.32c-2.57.42-5.62-.12-8,.66-.13,5.7.14,12,.27,17.7,3,.12,6.5-.72,8.73.06-.34.18-.81-.12-1.15.18a3.66,3.66,0,0,1,2.17,1.14c.14.24-.47.84-.14,1.26a34.25,34.25,0,0,1-6.63.84c-3.52.18-3.18.72-4.74,1-.95.18-1.9.06-2.5.6-.2-.12-.14-.6-.47-.72s-.27.06-.34.24a10.29,10.29,0,0,0-1.76-1.56c-.47-.72.47-1.92.95-1.44.07-4.38-.27-9.66-.07-13.86.07-1.92-.07-3.78,0-5.76-.34-.66-1-.72-1.42-1.5.2-.24.61-.42.68-.66s.81.06.68-.42c-.2-.3-.81.18-1-.24a3.33,3.33,0,0,1,1-.18c.34-3.54-.07-8.46,0-11.64-.68-.12-.34-.54-1.15-.6C28.48,3,28.48,3,28,2.55c.41-.66.41-1.08,1.29-1.08A24.18,24.18,0,0,0,32,1.71c.95,0,2-.3,3-.24l4.27.24a24.57,24.57,0,0,1,3.32-.24C43.38,1.53,44,2.31,44.67,2.37ZM34.78,4.65a5.34,5.34,0,0,0,.07,2.52l.2-2.52Zm.61,11.22c0,.24,1.15.06,1.35-.06A10.31,10.31,0,0,1,35.39,15.87Zm2.44.12a17.16,17.16,0,0,0,3,0c.07,0,.07-.06-.07-.06C39.72,15.93,38.71,15.57,37.83,16Z"/><path d="M61.25,3.15c5,2.7,6.91,7.32,6.77,12.9a23.86,23.86,0,0,1-.2,3,26.3,26.3,0,0,1-1.35,5.4,24.81,24.81,0,0,1-2,4.92c-2.44,4.32-4.33,8.1-8.67,10.5-1.42.3-2,1.32-3.18,1.68.07-.18.47-.12.47-.42-.74.18-1.08.6-1.83.78-.2-.24-.68-.18-.41-.48-.54.06-.74.3-1.35.3-.34,0,.07-.3-.2-.42-.81.3-1.22-.36-2-.12.34-.84,1.29-1.08,1.83-1.68-.07-4-.07-8,.14-11.76-.07-2-.07-4-.07-6.12C49.47,16.47,49.2,11,49,6c-.54.3-.54.06-1.08-.18a2.49,2.49,0,0,0-1.35-1c0-.18.13-.12.13-.3s-.54.06-.54-.18c-.14-.48.54-.3.54-.54s-.41-.12-.54-.3c.07-.36.47-.36.68-.72a31.84,31.84,0,0,1,8.87-1A12.2,12.2,0,0,1,61.25,3.15ZM48.86,2.61a2.39,2.39,0,0,0,1.63-.24c.34.12,1.42.12,1.49-.24A12.91,12.91,0,0,0,48.86,2.61Zm5.28,17.82c.07,5.28.2,10.2.14,15.54,3.38-2.58,4.2-6.3,6.23-9.84.2-.18-.47-.24-.13-.48a30.69,30.69,0,0,0,2.84-10.26c.27-4.5-1.62-8.4-5-9.48-1.49-.48-3-.12-4.54-.12C54.42,10.65,54,15.57,54.14,20.43Z"/><path d="M73.91,1.29c.27-.06.2-.36.61-.24s.41.3.61.48c.34,0,.54.18.68-.12.47.72,2,.72,2.3,1.38A3.38,3.38,0,0,1,78,4.17,34.46,34.46,0,0,0,77.71,10c.14,4.32.34,8.46.54,12.72.14,4.74.07,9.6.07,14a11.1,11.1,0,0,1,.07,2.1c-.07.42-.61.78-.75,1.38-.41.18-.75.78-1.22.72-.2,0-.07.3-.07.42-.75-.12-.75.48-1.22.66-.27-.36-.34-.24-.81-.18,0-.24.14-.6-.14-.66s-.13.48-.68.54c-.68-.72-.68-1.56-.75-2.76-.2-6.9-.07-14.4-.2-21.78-.07-2.94-.07-5.64-.07-9.12,0-1.56.14-3.12.2-4.5a4.83,4.83,0,0,1-.07-1C72.7,2.13,73,2,73,1.47c.34-.06.34.18.47.24.2-.18,0-.6.14-.78C73.91.93,73.85,1.17,73.91,1.29Z"/><path d="M99.17.63c.61.24.41,1,1.29,1.14-.34.72.13,1.68-.34,2.34a4.68,4.68,0,0,1-2,.9,35.36,35.36,0,0,1-4.54.66c-.47,5-.07,11,.07,16.56s-.54,11.4-.13,17.34c-.14.24-.54.3-.47.66a9.63,9.63,0,0,1-4.54.78,8.85,8.85,0,0,1-.61-3.48c-.14-3.36.07-7.08.07-10.2.13-2.88-.34-5.94-.2-8.88.27-3.84-.07-9.12.27-13-3.18-.06-4.2-.48-5.28-1.32a1.31,1.31,0,0,0-.2-.3c-.2-.18-.41-.12-.54-.24S81.63,3,81.36,3a14.63,14.63,0,0,1,1.08-1.26c.34.24.54,0,.95.06.2.06.13.18.34.24a13.57,13.57,0,0,0,2.71,0c.95-.06,1.83.06,2.57.06a29.45,29.45,0,0,0,9.28-2c.07-.06.2,0,.54,0S98.9.57,99.17.63Z"/><path d="M116.77,3c-.41,0,.07.78.2,1-1.62,2-6,.48-9.34,1.26a120.36,120.36,0,0,1,.68,12.18c2.64-.12,5.28-1,7.51-.06-.2.66.07.9.47,1.2-.41.12.13.84-.41,1,0,.24.2.24.2.48-.41,0-.47.24-.88.42a57.94,57.94,0,0,0-6.91.48c-.07,5-.41,11.52.07,16.5a25,25,0,0,1,7,.12c.07.54.68.84,1.08,1.32-.14.54.13.78.13,1.08-1.15,1.14-4.67.48-7,.9a2.44,2.44,0,0,1-1.08.3c-.47.06-1.15-.36-1.62-.36-.41.54-1.62.12-2,.66-.27-.18-.75-.48-.88-.3a4.69,4.69,0,0,1-.68-2.1,8.36,8.36,0,0,1-.27-2.52c.2-6.9.07-15.78,0-23.34,0-2.58-.07-5.88-.07-8.22a5.38,5.38,0,0,1-.07-1.5c.14-.54.88-.9,1-1.56.34-.06.34.18.47.3a43.17,43.17,0,0,1,11.71-.42C116.3,2.25,116.37,2.73,116.77,3Z"/><path d="M9.48,54a10.56,10.56,0,0,1,6,8.51,12,12,0,0,1-4.57,11c-.74.56-1.66.91-2.46,1.42a60.78,60.78,0,0,0,5.71,8.71c.51-.1.86-.71,1.26-.81.23.91-.74,1.32-.57,2A2.29,2.29,0,0,1,12.05,86a6.82,6.82,0,0,1-1.71-1.77C8.57,82,6.74,78.68,5.2,76.75c-.17,2.94.23,6.13-.06,8.66-1,.05-2.4,1.21-3.2.46-.29-.05-.06.35-.4.25-.34-.3-.34-.56-.74-.71C.23,75.84.8,65.31.63,55c-.29.1-.63,0-.63-.25a2.64,2.64,0,0,1,.4-1.67A15.93,15.93,0,0,1,9.48,54ZM5.2,72.2a9.65,9.65,0,0,0,6.4-8.35,8.44,8.44,0,0,0-2.74-7,6.76,6.76,0,0,0-3.77-1.42C4.91,56.45,5.2,66.58,5.2,72.2Z"/><path d="M33,60.45c1.43,5.06-.86,10.94-3.31,12.61.29-.41.8-.91,1.2-1.57-.51.3-1.09,1.42-1.83,1.92.17-.41.51-.71.74-1.16a10.43,10.43,0,0,0-1.2,1,7.38,7.38,0,0,1-3.31,2A10.29,10.29,0,0,1,27.54,78c.74,1.32,1.37,3.59,1.77,4.46s.86,1.77,1.77,1.72,1.6-1.32,2.51-1.52c-.4.61-.23,1.67-1,2.08.29.2.51-.15.86-.1a3.73,3.73,0,0,1-2.23,1.16c.11.25.57,0,.91-.05a3.28,3.28,0,0,1-2.68.41c-3.2-.46-4.4-4.51-6.23-7.85-.17,1.42.46,5.77-.23,7a8.9,8.9,0,0,1-3.31.76c-.11-.25-.4-.3-.63-.41a1.3,1.3,0,0,0-.4-.51c.23-3.95-.17-10.43-.23-14.63s0-11.59-.06-15.64c-.91-.1.4-.3-.46-.4.06-.35.34-.46.23-.91,1.2-1,2.74-.91,5.14-.86C28.62,52.86,31.65,55.89,33,60.45ZM18.74,62.32a7.65,7.65,0,0,0-.06-2A5.59,5.59,0,0,0,18.74,62.32Zm0-7c-.06,1.52.29,5.47.23,7,0,.35-.17.66.11,1,.12-1.47.06-5.82-.06-7.34-.06-.41.29-1-.17-1.22C18.68,54.38,18.74,55,18.74,55.34ZM18.91,75c-.06-.41.29-1-.06-1.21C18.85,74,18.57,74.78,18.91,75Zm-.11-6.94a45.92,45.92,0,0,0,.11,5.62c.17-1.72-.06-3.8.06-5.62Zm.11,8.3c.17-.15.17-.91-.11-1C18.79,75.69,18.74,76.4,18.91,76.4Zm0-8.66c.11-.81.34-2.08-.06-2.68A10.45,10.45,0,0,0,18.91,67.74Zm4.46,5.57c3.43-2.33,5.48-5.82,5.48-11.59,0-3.8-1.94-7-6.06-6.73C23.94,59.69,23.19,68.1,23.37,73.31Z"/><path d="M44.1,53c.34.41.46.76.91.81.34,1,.11,1.57.17,2.94a17.35,17.35,0,0,0,.17,2.38c.23,1.37.46,2.79.8,4.35,1,3.85,2.23,7.24,3.08,11.09.57,2.63,1.31,5.52,1.77,7.95a4.92,4.92,0,0,1,.06.91c.06.81.12,1.87-.4,2.28a11.59,11.59,0,0,1-2.23.46c-.29,0-.17-.41-.57-.25-.29,0,.12.1,0,.3-.46,0-.46-.46-.74-.51-.57-2.13-.63-4.56-1.31-6.63-2.29.1-4.34-.56-6.51-.2-.46,1.42-.63,3.19-1,4.81a6,6,0,0,1-.51,1.57c-.46.56-1.49.35-1.77,1.06a4.12,4.12,0,0,0-1.2.05c-.57-.35-.34-.71-.23-1.21L35.93,79c-.51-.15-1.2-.15-1.6-.51a2.65,2.65,0,0,0,.17-.71c.34-.3,1.26-.2,1.77-.41C38.1,71,39.59,64.65,41.13,57.92a16.59,16.59,0,0,0,.51-3,6.88,6.88,0,0,1-.29-2.28c.4-.1,1.08,0,1.48-.1C43.3,53.41,43.7,53.11,44.1,53ZM39.82,77c2.11-.25,3.6.2,5.6.1-.86-4.15-1.89-8.2-3-12.15,0,0,0,0-.06,0C41.76,69.06,40.62,72.91,39.82,77Z"/><path d="M67.18,63.08c0,3.34-.29,7.14-.29,10.88.06,1.92,0,3.85,0,5.67.06,1.06.29,3.19-.34,3.75a1.32,1.32,0,0,1,.17,1.37c-.69.35-1.6.56-2.06,1.17-.29.2-.29-.25-.57-.25-1.6,1.06-2.06-1.37-2.4-2.53l-3.14-10c-.4-1.32-.8-2.68-1.14-4s-.8-2.83-1.14-4.1c-.06,4.61.11,9.62.17,14.63A32.26,32.26,0,0,1,56.27,85c-.06.2-.29-.66-.34-.4s-.11.51-.23.71c-.11.35-.46.66-.57,1-1.31-.1-1.49-.4-1.54-1.72,0-2.13,0-5.42-.06-7.7s.06-4.61,0-6.83.06-4.51-.06-6.63l-.23-7.75c0,.05.12-2.48.12-2.83.11-.1.46,0,.4-.25a19.06,19.06,0,0,0,1.89.35c.34,0,.57-.2.91-.1s1.14,2.78,1.31,3.29a29,29,0,0,0,1,2.83c1.94,5.47,3.43,12,5.2,17.42.17-2.94.11-6.33.23-9.72a47,47,0,0,0,.23-4.91c0-1.77.06-3.49.06-5.27,0-.86-.4-2.13-.12-2.83.17-.41.86-.61.86-1.21.57-.51.91.46,1.2.76.06.2.46-.2.4.1-.06.1.06.1.06.15.34-.05.06.41.17.61C67.7,56.65,67.13,60,67.18,63.08Z"/><path d="M84.61,53.21c.06.15-.06.35.06,1.06-.4.15-.46.61-.86.66.29.3-.23.2.11.51-2.68.61-5.77.25-8.74.15.12,3.95.4,7.29.34,11.19,1.77.2,5.14-.15,6.68.1.06.25-.11.71.51.71,0,.15-.29.61-.23.81.17,0,.4,0,.57.1a2.3,2.3,0,0,1-.51.51c-.06.25.34.15.17.3-.8.81-5.48.46-7,.66-.11,3.59.06,8.61,0,12.61.11.1.46,0,.74.05s.11.25.29.25c2.57.3,5.71-.2,8.11.2.06.25-.11.3-.4.25,0,.3.29,0,.46.2,0,.1-.34.51.06.61-.11.15-.34.2-.11.41-1.43,1.11-4.34,1.42-7.08,1.21a24.62,24.62,0,0,0-4.86.3A12.37,12.37,0,0,1,71.52,86a5.12,5.12,0,0,1,.12-1.87c-.4-.05-.12.3-.4.41.06-.25-.06-.41-.06-.66-.29.2,0,1-.12,1.16-.4-.35-.11-.76-.11-1.16.11-2.63,0-5.72.17-8.46.17,1.87.06,6.13.23,6.08.17-8.91-.17-19.24,0-28.3.23,0,.34.15.63.1,0-.25-.29-.1-.17-.35A78.1,78.1,0,0,1,84.61,53.21ZM71.41,82.47c-.06-.15.11-.61-.12-.61C71.35,82,71.18,82.47,71.41,82.47Zm.4-27.39c.46.05-.06,1.06.29,1.21,0-.56.23-1.16-.12-1.57C72,55,71.81,54.93,71.81,55.08ZM72,85.77a3.47,3.47,0,0,0,1,0C73,85.61,72,85.61,72,85.77Zm.17-31.29c0-.1,0-.25.06-.3-.11,0-.11-.46-.17-.51C72,53.87,72,54.43,72.15,54.48Zm3.43,15c.06.25.8.25.91.15-.11,0-.46.1-.46-.05.46-.05.86.2,1.2,0-.11,0-.23.05-.23-.05s.12,0,.12-.05A7.9,7.9,0,0,0,75.58,69.51Z"/><path d="M94.95,53c.34.41.46.76.91.81.34,1,.11,1.57.17,2.94a17.35,17.35,0,0,0,.17,2.38c.23,1.37.46,2.79.8,4.35,1,3.85,2.23,7.24,3.08,11.09.57,2.63,1.31,5.52,1.77,7.95a4.92,4.92,0,0,1,.06.91c.06.81.12,1.87-.4,2.28a11.59,11.59,0,0,1-2.23.46c-.29,0-.17-.41-.57-.25-.29,0,.12.1,0,.3-.46,0-.46-.46-.74-.51-.57-2.13-.63-4.56-1.31-6.63-2.29.1-4.34-.56-6.51-.2-.46,1.42-.63,3.19-1,4.81a6,6,0,0,1-.51,1.57c-.46.56-1.49.35-1.77,1.06a4.12,4.12,0,0,0-1.2.05c-.57-.35-.34-.71-.23-1.21L86.78,79c-.51-.15-1.2-.15-1.6-.51a2.65,2.65,0,0,0,.17-.71c.34-.3,1.26-.2,1.77-.41C88.95,71,90.43,64.65,92,57.92a16.59,16.59,0,0,0,.51-3,6.88,6.88,0,0,1-.29-2.28c.4-.1,1.08,0,1.48-.1C94.15,53.41,94.55,53.11,94.95,53ZM90.66,77c2.11-.25,3.6.2,5.6.1-.86-4.15-1.89-8.2-3-12.15,0,0,0,0-.06,0C92.6,69.06,91.46,72.91,90.66,77Z"/><path d="M118,63.08c0,3.34-.29,7.14-.29,10.88.06,1.92,0,3.85,0,5.67.06,1.06.29,3.19-.34,3.75a1.32,1.32,0,0,1,.17,1.37c-.69.35-1.6.56-2.06,1.17-.29.2-.29-.25-.57-.25-1.6,1.06-2.06-1.37-2.4-2.53l-3.14-10c-.4-1.32-.8-2.68-1.14-4s-.8-2.83-1.14-4.1c-.06,4.61.11,9.62.17,14.63a32.26,32.26,0,0,1-.17,5.32c-.06.2-.29-.66-.34-.4s-.11.51-.23.71c-.11.35-.46.66-.57,1-1.31-.1-1.49-.4-1.54-1.72,0-2.13,0-5.42-.06-7.7s.06-4.61,0-6.83.06-4.51-.06-6.63l-.23-7.75c0,.05.12-2.48.12-2.83.11-.1.46,0,.4-.25a19.06,19.06,0,0,0,1.89.35c.34,0,.57-.2.91-.1s1.14,2.78,1.31,3.29a29,29,0,0,0,1,2.83c1.94,5.47,3.43,12,5.2,17.42.17-2.94.11-6.33.23-9.72a47,47,0,0,0,.23-4.91c0-1.77.06-3.49.06-5.27,0-.86-.4-2.13-.12-2.83.17-.41.86-.61.86-1.21.57-.51.91.46,1.2.76.06.2.46-.2.4.1-.06.1.06.1.06.15.34-.05.06.41.17.61C118.54,56.65,118,60,118,63.08Z"/></svg>