<svg id="Layer_1" data-name="Layer 1" xmlns="http://www.w3.org/2000/svg" viewBox="0 0 89.67 121.98"><defs><style>.cls-1{fill:#231f20;}</style></defs><title>Vector Smart Object3</title><path class="cls-1" d="M28.78,12.71a30.49,30.49,0,0,1,.6,7.7c-.6,10.9-6.3,18.7-12.4,24.4,1.9,4.6,2.9,10,6.1,13.4,1.6-.3,2.1-1.9,3.7-2.5-.1,1.1.8,2.4.6,3.3.7.4,1.1-.5,1.6-.3-.4.9.5,1.6.2,2.6-.5,1.7-3.3,2.5-3.9,4.2-2,1-4.8,1.1-6.2-.2a9,9,0,0,1-.8-1.3c-.2-.3-.7-.5-.9-.7-.6-.8-.9-2-1.5-2.9a41,41,0,0,1-4.7-8.6c-.4,4.4,0,8.8,0,12.8-1.7.4-3.1,1.8-5.4,1.3-.4,0-.2.6-.7.5A7.47,7.47,0,0,1,3.37,65c-.7-9.3.1-20,0-29.7,0-5.3-.3-10.5-.3-15.6.2-5.1.3-10.2.1-15.2,0-.4-.3-.3-1.5-.4-.5,0,0-.5-.3-.6-.7.2-.4-.2-1-.4,0-.7.2-.6,0-1.4.5-.9.5-.3,1-1.1.5-.6,4.4-.5,6.9-.6C17.88-.29,26.88,4.81,28.78,12.71ZM3.87,4.31c-.4,1.1-.1,2.5,0,4.1.2,2.8-.4,5.1.3,7,.2-4.1-.3-7.9.1-11.1Zm6.1.3c.2,11.2,1.6,22.9,1.6,33.5a25.84,25.84,0,0,0,10.9-19.2,18.37,18.37,0,0,0-2.7-10.6c-1.8-2.8-5.4-3.6-9.7-4.1C10,4.31,9.68,4.51,10,4.61Zm2.8,49.8a13.27,13.27,0,0,0,2.3,3.7c-1.3-2.7-2.5-5.6-3.7-8.4C11.18,51.22,12.08,52.91,12.78,54.42Z"/><path class="cls-1" d="M58.08,1.11c.1.3-.1.7.1,2.1-.7.3-.8,1.2-1.5,1.3.5.6-.4.4.2,1-4.7,1.2-10.1.5-15.3.3.2,7.8.7,14.4.6,22.1,3.1.4,9-.3,11.7.2.1.5-.2,1.4.9,1.4,0,.3-.5,1.2-.4,1.6.3.1.7.1,1,.2a4.29,4.29,0,0,1-.9,1c-.1.5.6.3.3.6-1.4,1.6-9.6.9-12.3,1.3-.2,7.1.1,17,0,24.9.2.2.8,0,1.3.1.5-.1.2.5.5.5,4.5.6,10-.4,14.2.4.1.5-.2.6-.7.5,0,.6.5.1.8.4,0,.2-.6,1,.1,1.2-.2.3-.6.4-.2.8-2.5,2.2-7.6,2.8-12.4,2.4a38.16,38.16,0,0,0-8.5.6,19.34,19.34,0,0,1-2.4-.1,11.38,11.38,0,0,1,.2-3.7c-.7-.1-.2.6-.7.8.1-.5-.1-.8-.1-1.3-.5.4,0,1.9-.2,2.3-.7-.7-.2-1.5-.2-2.3.2-5.2,0-11.3.3-16.7.3,3.7.1,12.1.4,12,.3-17.6-.3-38,0-55.9.4,0,.6.3,1.1.2,0-.5-.5-.2-.3-.7A121.07,121.07,0,0,1,58.08,1.11ZM35,58.92c-.1-.3.2-1.2-.2-1.2C34.87,58,34.57,58.92,35,58.92Zm.7-54.1c.8.1-.1,2.1.5,2.4,0-1.1.4-2.3-.2-3.1C36.07,4.71,35.67,4.51,35.67,4.81Zm.3,60.6c.6.2,1,0,1.8,0C37.67,65.12,36.07,65.12,36,65.42Zm.3-61.8c0-.2,0-.5.1-.6-.2,0-.2-.9-.3-1C36.07,2.41,36.07,3.51,36.27,3.61Zm6,29.7c.1.5,1.4.5,1.6.3-.2,0-.8.2-.8-.1.8-.1,1.5.4,2.1,0-.2,0-.4.1-.4-.1.1,0,.2,0,.2-.1C44.07,33.41,43.07,33,42.27,33.31Z"/><path class="cls-1" d="M86.87,15.51A72.94,72.94,0,0,1,85.68,34c-.6,3.7-1.3,7.6-2.2,11.2a53,53,0,0,1-6.2,14.1c-1.1,1.6-2,3.5-3.1,4.6-.3.4-1,.5-1.5.8-.8.7-1.6,1.2-2.5,1.9-.8.2-1.9.2-2.8.4-.6.1-.5-.3-.9-.3-.7.3-1-.2-1.7.3-.7-.4-.9-1.2-2.2-.8-.4-.4-.2-1.4-1.1-.9a5.69,5.69,0,0,1,2-3.2c-.5-9.2-.5-19.5-.4-28.8-.1-3.7-.2-7.5,0-11.2a146.81,146.81,0,0,0,.1-18.8c0-.1-1.2-.3-1.2-.6s.7,0,.6-.4c-.4-.4-1.4.2-1.7-.4,0-.8.6-.8.4-1.4-.1-.4,1.4-.3,2.9-.3,2.8,0,5.5-.2,8.1,0C80.57.81,86,4.51,86.87,15.51Zm-16.3-4.8c.3,8.3.3,18.9.3,26.8.1,5.9-.2,11.5.3,16.7a21.49,21.49,0,0,0,5.1-9.7,85.77,85.77,0,0,0,2.3-11.1,77.92,77.92,0,0,0,.9-12.5c0-3.8.2-12.7-1.9-15-1.4-1.5-5-1.4-7-1.4Zm9.6,19.4c.9,0,1.4-8.2,1.4-12.6a4,4,0,0,0-1.1-3A155.79,155.79,0,0,1,80.17,30.11Z"/><path class="cls-1" d="M13.67,76.8c.2.06.39.46.65.58s.45,0,.58.07c.26.26,1,1.17,1,1.49a12.57,12.57,0,0,1-.13,1.3c-.06,1.88.06,3.45,0,5.66.06,1.1.26,2,.26,2.47-.2.46-.84.78-.91,1.17-.46,0-.84.39-1.1.39s0,.65-.26.39c-.26.26-.13-.33-.52-.39-.2.13-.26.46-.39.71-.46-.06-.72-.2-.65-.65-.39-.06-.33.46-.65.46.06-.32-.26-.52-.33-.78a11.72,11.72,0,0,1,.13-1.5c0-.91.13-2,.2-2.79,0-1.43.32-3.19-.85-3.77a1.39,1.39,0,0,0-1,.2c-1,.46-1.82,2.47-2.41,3.9-.46,1.63-1,3.58-1.3,5.07A61.37,61.37,0,0,0,5.15,102c.26,6,2.14,15.47,5.07,14,1.11-.46,1.88-1.88,2.67-3.05a7,7,0,0,0,1.1-1.62c.33-.46.65-1.69,1.17-1.62s.46,1.49.39,2.08c.06.13.32.19.58.13-.39.26,0,.65.07.71a12.38,12.38,0,0,1-3.32,6.24,11.51,11.51,0,0,1-2,1.63A6,6,0,0,1,4.76,120C2,117.49.6,111.19.28,106.77c-.07-1.11-.26-2.15-.26-3.51A55.68,55.68,0,0,1,1.51,90.13c.91-4,2.34-7.67,4.42-10,1.24-1.23,3.84-2.73,5.59-1.36a4.94,4.94,0,0,1,.65-2.15C12.37,76.34,13.34,76.74,13.67,76.8Z"/><path class="cls-1" d="M34.59,78.36c.13,0,.13-.33.26-.46.13.65,1,.39,1.36.84.07.46-.13.84.2,1.3-.46,1.63-.13,3.32-.13,5.85-.13,3.25-.46,6.5-.46,9.95,0,2.73.13,5.46.13,8.19.13,2.54.13,5.07.26,7.47.13,2.6.52,5.46-.07,7.67-.19.45-.84.33-.91.78-.13.06-.13-.13-.26-.13-.32.39-.84.65-1.17,1a9.2,9.2,0,0,0-1.62-.2c-.26,0-.2-2.21-.32-2.41-.26.07.13,2.47-.13,2.41s-.26-.71-.26-1c-.32-4.29-.39-8.32-.65-13.52a5.28,5.28,0,0,1,0-2c.39,0,.26,2.92.39,4.35a36.9,36.9,0,0,0-.2-7c-.39.26.26,1.56-.32,1.75-.07-.52,0-1.17-.07-1.69-1.89-.2-4.55-.84-6.44,0,0,2.47-.19,4.81,0,10.4.13,2.79.65,9-.58,7.54-.65.58-1.43.91-2.14,1.49-.85.33-1.3-.58-2-.78-.58-2.34-.13-5.72-.13-8.58,0-3.64.13-4.75.13-7.8a12.14,12.14,0,0,1-.06-1.62c-.85-.2-.2-2.28-.2-3.83-.06-6.7.07-14.43.26-20.15.39.26.72-.46,1,0,.26-.39.46-.13.78-.32a.79.79,0,0,1,.13.58c.33,0,.71,0,.84-.26.46.2.78.65,1.43.78a6.12,6.12,0,0,1,1,3.64,108.42,108.42,0,0,0-.58,15.21c2.14-.46,4.68-.65,6.44.07.39-4.36.52-8,.91-11.9.26.26.06,1.23.06,2a10.44,10.44,0,0,1-.2,2.15c.07,2.54-.39,5.72-.32,8.13h.2c.26-4,.46-8.45.84-13,.2-2.21.46-3.9.46-5-.46.39-.39,2.08-.65,2.08-.39-1.82,1-3,1.43-4.62.32,0,.84-.06.78.52.33-.06.26-.52.65-.52C34.79,77.91,34.59,78,34.59,78.36ZM30.11,98.19A4,4,0,0,0,28,97.93C28,98.19,29.59,98.19,30.11,98.19Zm.2.52a1.11,1.11,0,0,0-1.17-.13C29.07,98.71,30.11,98.71,30.3,98.71Zm-.26.91c.13-.26-.33-.39-.59-.46C29.39,99.42,29.85,99.68,30,99.62ZM31.67,114c.52-.13-.06-3.58-.33-3.58C31.34,112.94,31.54,114,31.67,114Z"/><path class="cls-1" d="M43.11,77.77c.39.07,0-.39.39-.32a8.62,8.62,0,0,1,3.18,1.37,170.16,170.16,0,0,0-.07,17.29c.33,5,0,10.33.2,15.28a40.8,40.8,0,0,1,0,4.88,19.82,19.82,0,0,1-.2,2.14c-.06.13-.39.33-.52.58s0,.58-.2.84-.32.2-.52.46c-.26.46-.26,1-1,.78-.26.26-.39.58-.65.84-.26-.39-.52-.32-.71.07a2.82,2.82,0,0,1-.65-1c-.39-.13-.07.46-.39.33-1-1.37-.46-3.38-.46-5.2.07-1.37,0-2.79-.06-4.22-.2-5.33.13-10.73-.13-16-.19-4.75-.19-9.56,0-14.11A13.82,13.82,0,0,0,41.48,78c.39-.13.71-.06.71-.58.39.06.71,0,.78-.26C43.24,77.19,43.11,77.58,43.11,77.77ZM41.68,88.89c.46-2.6.2-5.91.58-8.58-.13,0-.13-.06-.26-.13A47.86,47.86,0,0,0,41.68,88.89Z"/><path class="cls-1" d="M56.24,78.29a27.15,27.15,0,0,0,.52,2.79c.26.91-.13,2-.13,2.92-.07,2.79.13,6,.2,8.91,0,3.57.26,7.67.39,11.25A100.46,100.46,0,0,1,56.5,117c2,.26,2.93-.52,4.88-.33.59.07,1.11.39,1.63.33.26,0,.52-.2.78-.07.52,0-.33.46.13.52.26.06.71,1.69.46,1.95-.65.39-.19.65-.71,1-2.86.32-3.83-.07-6.11,0s-4.68.52-6.31-.2c-.07-2.73.52-5.59.65-8.58.07-1.43,0-2.86,0-4.36.13-7.21-.58-14.82.13-21.84.13-2.41.32-5.59,1.17-7.34C54.29,77.45,55.2,78,56.24,78.29Z"/><path class="cls-1" d="M69.43,77.84c-.07.39.78.46.84.26.39.52,1,.65,1.5,1,.78,3.84.65,8.45.65,12.81,0,3.18.26,6.44.26,9.75,0,4.88-.07,10.27-.13,15.34,2.79.13,6.11.2,8.26-.71.33-.26.26.46.85.65.39.26,0,.91-.13,1.69-.46.46-.84.59-1,1a17.34,17.34,0,0,1-4.29.91,14.31,14.31,0,0,0-2.4-.19,37.79,37.79,0,0,1-6.63-.07c.33-.33,0-.19-.26-.33.06-.26.52-.06.85-.13-.46-.52-1.82-.13-1.82-1.1.13.13.13.39.46.39-.13-.52-.46-1-.33-1.5.39-.2.65,0,1,.06.39-.52.26-1.3.26-2.28.06-4.61.06-28-.33-32.89-.13-1.37-.45-3.12.59-3.38a1.23,1.23,0,0,1,.26-.78c.52-.2.71.26,1.3.2.26-.26.06-.46.19-.85C69.43,77.71,69.43,77.77,69.43,77.84Z"/><path class="cls-1" d="M86.66,77.45c.13.26.06.39.2.71.58-.52.46.65,1,.32-.32.91.52,1.82.72,2.6a18.67,18.67,0,0,1,.26,2.67c.26,2.79.33,6.11.39,8.84-.06,1.89.39,4.16.33,6.18,0,5.79.19,12.16,0,18.14a8.91,8.91,0,0,1-.59,2.6,16,16,0,0,0-2.21,1.43c-.39-.26-1.3.39-1.56-.33-.26,0-.13.52-.13.65-1-1.1-.91-3.32-.91-5.53-.13-4.81.13-10.08-.06-15.47-.2-7.15.46-14.24.33-21.52a5.44,5.44,0,0,1,1.36-1.37C86.07,77.65,86.27,77.51,86.66,77.45Z"/></svg>