<svg id="Layer_1" data-name="Layer 1" xmlns="http://www.w3.org/2000/svg" viewBox="0 0 105.33 86.78"><title>Vector Smart Object3</title><path d="M20.17,5.24c1.56,1.85,2.09,4.09,2.16,6.8.45,6.93-4.77,11.55-8,14.12a36.12,36.12,0,0,1-6.55,4.55v3.89c-.07,3,.15,6.4.07,9.63-.6.46-1.71.53-2.23,1.06-.07-.46-.82,0-1,.13a.2.2,0,0,0-.37-.13c-.22,0-.6-.46-.74-.07-.22-.13-.3-.46-.75-.46-.82-1.52-.52-4.16-.6-6.14.07-3.23,0-6.47.07-9.77.07-4.16.75-8.18.37-12.93-.45,1.78.15,5.94-.37,5.94C2.07,17,2.07,10.79,1.7,5.7.51,6,1,4.58.14,3.92.36,3.2.21,2.67.81,2.21c3.2,0,5.88-.66,9.53-.66S18.16,2.87,20.17,5.24ZM2.52,13c.15-2,0-5.08.15-7.26-.15,0-.15-.07-.3-.07A39.6,39.6,0,0,0,2.52,13Zm0,1.45c0-.33.37-1-.07-1.12A1.45,1.45,0,0,0,2.52,14.42Zm.07,1.25a1.42,1.42,0,0,0-.15-1C2.44,15,2.29,15.54,2.59,15.67ZM8,25.11c3.65-3.5,9.31-7.46,8.86-14.45,0-.92-.15-3-.89-3.89C14.66,5.37,9.52,5.31,7.21,5.64A130.69,130.69,0,0,1,8,25.11Z"/><path d="M42.29,2.6c-.3.46-.3,1.06.45,1-.37.4-.37.73-.45,1.52-4.84.92-6.7-.33-10.28,0-.37,3.43.15,8.12,0,11.88,2,.2,4.25-.33,6.26-.07.22.2.3.46.52.59h1c.22.07.08.2,0,.53a6.84,6.84,0,0,1,1.19.07,3.44,3.44,0,0,0,.52.86,6.94,6.94,0,0,0-.52,1.45c-2.83.46-6.18-.13-8.79.73-.15,6.27.15,13.2.3,19.47,3.35.13,7.15-.79,9.61.07-.37.2-.89-.13-1.27.2a4,4,0,0,1,2.38,1.25c.15.26-.52.92-.15,1.38a37.76,37.76,0,0,1-7.3.93c-3.87.2-3.5.79-5.21,1.05-1,.2-2.08.07-2.75.66-.22-.13-.15-.66-.52-.79s-.3.06-.37.26a11.3,11.3,0,0,0-1.94-1.72c-.52-.79.52-2.11,1-1.58.07-4.82-.3-10.62-.07-15.24.07-2.11-.07-4.16,0-6.34-.37-.73-1.12-.79-1.56-1.65.22-.26.67-.46.75-.73s.89.07.75-.46c-.22-.33-.89.2-1.12-.26a3.68,3.68,0,0,1,1.12-.2c.37-3.89-.08-9.3,0-12.8-.75-.13-.37-.59-1.27-.66-.07-.73-.07-.66-.6-1.19.45-.73.45-1.19,1.42-1.19,1.27,0,1.94.4,3,.26s2.16-.33,3.35-.26l4.69.26a26.78,26.78,0,0,1,3.65-.26C40.87,1.68,41.54,2.54,42.29,2.6ZM31.42,5.11a5.86,5.86,0,0,0,.07,2.77l.22-2.77Zm.67,12.34c0,.26,1.27.07,1.49-.07A11.18,11.18,0,0,1,32.09,17.45Zm2.68.13a18.92,18.92,0,0,0,3.35,0c.07,0,.07-.07-.08-.07C36.85,17.52,35.74,17.12,34.77,17.58Z"/><path d="M60.46,1.22A13.21,13.21,0,0,0,61.73,2.6a22.38,22.38,0,0,1,.15,6.67A25.25,25.25,0,0,1,61.5,13a2.84,2.84,0,0,1-.45.79c.08.26-.45.07-.52.2s-.22.26-.08.59c-.22-.07-1-.33-.74.2a2.91,2.91,0,0,0-.82-.2c-.52.07-.45.53-.89.2-.22.13-.37.4-.67.59-2.31-.26-1.42-3.56-1.19-5.48a19.52,19.52,0,0,1,.15-3.1A2.41,2.41,0,0,0,55.55,6a7.94,7.94,0,0,0-2.83,3.89,11.1,11.1,0,0,0-1,6.67c.3,3.23,2.31,6.27,4.17,9.24,1.79,2.77,3.72,5.68,5.06,8.31.82,2,2,4.62,1.34,7.06-1,3.1-3.72,4.22-7.22,4.22-7.22-.13-9.24-5.15-8-10.29.22-1.25.82-2.64,1.86-3,.37.26.07.33.07.86.3-.07.52,0,.6.33.74.26.52-.33,1.12-.33.08.33.15.73.6.66-.89,3.1-.37,6,1.27,7.13a2.25,2.25,0,0,0,3.35-.2c.45-1,.15-1.85-.52-3.37C54,34,47,23.13,46,18.38c-1-4.36-.67-8.51,1-11.62a8,8,0,0,1,3.65-4A6.24,6.24,0,0,1,54,2.21c.82.07.89.4,1.86.73A8.93,8.93,0,0,1,57.56.49C58.75.1,59.64,1.35,60.46,1.22Z"/><path d="M83.25.69c.67.26.45,1.12,1.42,1.25-.37.79.15,1.85-.37,2.57a5.15,5.15,0,0,1-2.23,1,39.1,39.1,0,0,1-5,.73c-.52,5.48-.07,12.14.07,18.21S76.55,37,77,43.52c-.15.27-.6.33-.52.73a10.58,10.58,0,0,1-5,.86c-.6-1.05-.52-2.31-.67-3.83-.15-3.7.07-7.79.07-11.22.15-3.17-.37-6.53-.22-9.77.3-4.22-.07-10,.3-14.25-3.5-.07-4.62-.53-5.81-1.45a1.44,1.44,0,0,0-.22-.33c-.22-.2-.45-.13-.6-.26s-.37-.66-.67-.73a15.88,15.88,0,0,1,1.19-1.39c.37.26.6,0,1,.07.22.07.15.2.37.26a15,15,0,0,0,3,0c1-.07,2,.07,2.83.07A32.37,32.37,0,0,0,82.28,0c.08-.07.22,0,.6,0S83,.62,83.25.69Z"/><path d="M99.79,4.58a11.74,11.74,0,0,1,1.64,2.77,58.46,58.46,0,0,1,2.53,10,56.65,56.65,0,0,1,.37,16.5c-.52,3.37-1.19,5.74-3.2,7.79-.22.27-.6.53-.89.86a9.73,9.73,0,0,1-1.94,1.38,2.91,2.91,0,0,1-1.64.92c-3.72.86-7.3.07-9.09-2C86.08,41,85,37.25,84.74,34.48a52.16,52.16,0,0,1-.3-10.69c.45-4.62,1.27-10.89,2.68-14.72a21.63,21.63,0,0,1,1.71-3.63,6.72,6.72,0,0,1,5.51-3.89c.15,0,.15-.13.22-.13C96.73,2.14,98.6,3,99.79,4.58Zm-9,18.08C90.33,28.74,90,39.23,93.83,41s6.18-4.42,6.63-6.66a47.48,47.48,0,0,0,.67-10.69c-.6-8.51-2.53-19-5.36-19C92.86,7.69,91,19.76,90.78,22.67Z"/><path d="M9.6,57.36c.41.18.56.58,1,.81,1.83,1.26,2.44,3.69,2.23,6.53-.2,3.42-2.54,5.22-4,7.33a9.66,9.66,0,0,1,2.39.77c2.69,1.71,2.49,6.16,1.12,8.82A7.3,7.3,0,0,1,9.7,84.85a12.44,12.44,0,0,1-3,1.26c-.81.23-2.89.63-3.55.09a4.24,4.24,0,0,1-2.29-.5c.05-.36-.25-.36-.41-.45.1-.18.41-.32.36-.77.3-.18.41-.54.66-.81.36-7.83.1-16.65.1-25-.36-.22-1-.36-1.07-.81-.2,0-.41.27-.51,0,.41-1.44,1.93-1.35,3.15-1.44A13,13,0,0,1,9.6,57.36ZM5.23,70.5a3,3,0,0,0,.86-1,16.76,16.76,0,0,0,3.1-5.58,7.84,7.84,0,0,0,.25-3.42C9.09,58.43,6.91,58,4.32,58.3,4.72,63.61,4.93,66,5.23,70.5Zm.1,3.78c.1,3.29.3,6.12.15,9.13A5.84,5.84,0,0,0,8,82a7,7,0,0,0,1.27-7.43A2.73,2.73,0,0,0,7,74,2.11,2.11,0,0,1,5.33,74.27Z"/><path d="M22.85,55.65c.51-.72,1.17.86,2.18.95.05,0-.05.31.05.49.15,0,.2-.49.46-.36s-.15,1-.2,1.57a7,7,0,0,0,.1,1.76,9.08,9.08,0,0,0,.3,1.62c.71,3.51,1.57,7.61,2.39,11.47.46,2.21,1.17,4.19,1.57,6.12.05.54.15,1.26.25,1.89a8.29,8.29,0,0,1,.56,2.56c.05.86-.81,1.26-.91,2.07-.2.13-.15-.13-.46,0a2.46,2.46,0,0,1-1.37.63c-.76-.09-.81-.9-1-1.58-.46-1.93-1.27-4.41-1.57-6.07-1.52.63-4.57.36-6.86.54-.76,2.2-1.17,4.41-2.23,6.3a9.12,9.12,0,0,0-1.37.63,2.94,2.94,0,0,1-.66-.45,33.44,33.44,0,0,1,1.68-6.39l.46-1.76c1.73-4.72,3-9.67,4.47-14.67a14.59,14.59,0,0,0,.61-2.56,8.66,8.66,0,0,0-.51-2.21c-.25-.95-.46-1.75-.66-2.7C20.16,54.79,22,56.28,22.85,55.65ZM19,77.25c2,.09,4.16-.27,5.89-.13-.91-3.42-1.42-7.43-2.39-10.85C21.43,70,20.11,73.51,19,77.25Z"/><path d="M42.81,56.09a8.82,8.82,0,0,0,.86.95,15.25,15.25,0,0,1,.1,4.54,17.22,17.22,0,0,1-.25,2.52,1.92,1.92,0,0,1-.3.54c.05.18-.3,0-.36.13s-.15.18-.05.4c-.15,0-.66-.22-.51.13a2,2,0,0,0-.56-.13c-.36,0-.3.36-.61.13-.15.09-.25.27-.46.41-1.57-.18-1-2.43-.81-3.73a13.25,13.25,0,0,1,.1-2.12,1.65,1.65,0,0,0-.51-.5A5.43,5.43,0,0,0,37.53,62a7.57,7.57,0,0,0-.66,4.54c.2,2.2,1.57,4.27,2.84,6.3s2.54,3.87,3.45,5.67c.56,1.35,1.37,3.15.91,4.81-.71,2.12-2.54,2.88-4.93,2.88-4.93-.09-6.3-3.51-5.48-7,.15-.86.56-1.8,1.27-2,.25.18.05.22.05.58.2,0,.36,0,.41.22.51.18.36-.22.76-.22.05.22.1.5.41.45-.61,2.11-.25,4.09.86,4.86A1.54,1.54,0,0,0,39.71,83c.3-.68.1-1.26-.36-2.29-1-2.21-5.74-9.63-6.4-12.87a11.14,11.14,0,0,1,.71-7.92,5.49,5.49,0,0,1,2.49-2.7,4.27,4.27,0,0,1,2.23-.4c.56,0,.61.27,1.27.49a6.08,6.08,0,0,1,1.17-1.66C41.64,55.33,42.25,56.19,42.81,56.09Z"/><path d="M48.55,56.23c.2,0,.15-.27.46-.18s.3.23.46.36.41.13.51-.09c.36.54,1.52.54,1.73,1a2.53,2.53,0,0,1-.1,1,25.88,25.88,0,0,0-.2,4.41c.1,3.24.25,6.35.41,9.54.1,3.55.05,7.2.05,10.48a8.28,8.28,0,0,1,.05,1.57c-.05.31-.46.59-.56,1-.3.13-.56.58-.91.54-.15,0-.05.23-.05.32-.56-.09-.56.36-.91.49-.2-.27-.25-.18-.61-.13,0-.18.1-.45-.1-.49s-.1.36-.51.4a3,3,0,0,1-.56-2.07c-.15-5.17-.05-10.8-.15-16.33-.05-2.21-.05-4.23-.05-6.84,0-1.17.1-2.34.15-3.37a3.65,3.65,0,0,1-.05-.77c.05-.31.3-.4.3-.81.25,0,.25.13.36.18.15-.13,0-.45.1-.59S48.5,56.14,48.55,56.23Z"/><path d="M57.84,56.37c-.05.27.61.31.66.18.3.36.81.45,1.17.72a41.89,41.89,0,0,1,.51,8.87c0,2.21.2,4.46.2,6.75,0,3.38-.05,7.11-.1,10.62,2.18.09,4.77.13,6.45-.49.25-.18.2.31.66.45.3.18,0,.63-.1,1.17-.36.31-.66.41-.76.72a15,15,0,0,1-3.35.63,12.7,12.7,0,0,0-1.88-.13,33.23,33.23,0,0,1-5.18,0c.25-.22,0-.13-.2-.22.05-.18.41,0,.66-.09-.36-.36-1.42-.09-1.42-.77.1.09.1.27.36.27-.1-.36-.36-.72-.25-1,.3-.14.51,0,.76,0,.3-.36.2-.9.2-1.58.05-3.19.05-19.39-.25-22.77-.1-.95-.36-2.16.46-2.34,0-.31.1-.36.2-.54.41-.13.56.18,1,.13.2-.18.05-.31.15-.58C57.84,56.28,57.84,56.32,57.84,56.37Z"/><path d="M71.5,56.64c.3,0,.51.09.76-.13.41.31,1,.49,1.32.81.51,1.22.36,3.06.36,5,.2,6.66.25,12.51.2,19.17A10.21,10.21,0,0,1,74,84,4.11,4.11,0,0,1,73,85.66c-.3.13-.51,0-.81.13s-.36.27-.66.5c-.3-.13-.3-.23-.66-.09-.71-.41-1.27-.45-1.27-1.53,0-.58.2-1.21.2-1.8.1-1.89.05-3.24.05-5.09-.05-2.88.05-5.49.05-8.19,0-3.11.05-6.43,0-9.9,0-.95-.25-2.39.05-2.88.2-.27.61-.36.66-.68C71.19,56,71.19,56.41,71.5,56.64Z"/><path d="M87.9,55.65c.15,0,.3.31.51.4s.36,0,.46,0,.81.81.81,1-.1.54-.1.9c-.05,1.3.05,2.38,0,3.92.05.76.2,1.35.2,1.71-.15.31-.66.54-.71.81-.36,0-.66.27-.86.27s0,.45-.2.27c-.2.18-.1-.22-.41-.27-.15.09-.2.31-.3.49-.36,0-.56-.13-.51-.45-.3,0-.25.31-.51.31.05-.22-.2-.36-.25-.54a7.12,7.12,0,0,1,.1-1c0-.63.1-1.39.15-1.94,0-1,.25-2.21-.66-2.61a1.21,1.21,0,0,0-.76.13c-.76.31-1.42,1.71-1.88,2.7s-.76,2.48-1,3.51a37.81,37.81,0,0,0-.71,7.79c.2,4.14,1.68,10.71,4,9.72.86-.32,1.47-1.3,2.08-2.12a4.88,4.88,0,0,0,.86-1.12c.25-.31.51-1.17.91-1.12s.36,1,.3,1.44c.05.09.25.13.46.09-.3.18,0,.45.05.5a8.32,8.32,0,0,1-2.59,4.32,8.89,8.89,0,0,1-1.57,1.13,5.22,5.22,0,0,1-4.77-.4c-2.13-1.71-3.25-6.07-3.5-9.13-.05-.77-.2-1.48-.2-2.43a34.41,34.41,0,0,1,1.17-9.09,15.34,15.34,0,0,1,3.45-6.93c1-.86,3-1.89,4.37-.95a3.13,3.13,0,0,1,.51-1.48C86.89,55.33,87.65,55.6,87.9,55.65Z"/><path d="M104.61,78.28c.3-.63.2-1.53.66-2-.25,1.44-.51,2.83-.81,4.14A7.2,7.2,0,0,1,102.93,84c.05-.27.61-.9.15-.72.1-.27-.41.4-.51.59-.36,0-.25.45-.61.36-.2.36-.66.63-.91,1-.56,0-.71.49-1.12.67-1.12,0-2.49.54-3.66.09-1.93-.81-2.89-2.65-3.71-4.68a25.21,25.21,0,0,1-1.37-9c-.1-4.14,1.07-10.17,3.15-12.92.76-1,2-2.65,3.35-3.06a5.78,5.78,0,0,1,1.47-.09c.76.09,1.27.76,2,.81,2.23,1.08,3.15,3.69,3.66,6.44A47.65,47.65,0,0,1,104.61,78.28ZM100,58.43a6.28,6.28,0,0,0-2.23,1.94,14.52,14.52,0,0,0-1.37,2.88,30.36,30.36,0,0,0-1.22,9.09,22.76,22.76,0,0,0,1.57,8.28c.41,1.21,1.47,2.88,2.79,2.65.86-.18,1.47-1.89,1.73-2.79a35.31,35.31,0,0,0,1.63-7C103.44,69.06,103.49,60.33,100,58.43Z"/></svg>