<svg xmlns="http://www.w3.org/2000/svg" width="46.5" height="43.97" viewBox="0 0 46.5 43.97">
  <defs>
    <style>
      .cls-1 {
        fill: #030303;
      }

      .cls-1, .cls-2 {
        fill-rule: evenodd;
      }

      .cls-2 {
        fill: #fff;
      }
    </style>
  </defs>
  <path id="Shape_609_copy_28" data-name="Shape 609 copy 28" class="cls-1" d="M2372,1224c-5.61,4.21-11.67,20.19-8.9,24.92,3.01,5.15,4.71,5.84,8.9,9.08s20.61,10.07,28.56,6.88c9.14-5.81,10.01-21.05,6.32-30.27-6.55-10.2-30.98-14.09-32.88-12.61S2372,1224,2372,1224Z" transform="translate(-2362.41 -1221.72)"/>
  <path id="Shape_1914_copy_4" data-name="Shape 1914 copy 4" class="cls-2" d="M2393.54,1242.02c-0.97-.92-1.96-1.83-2.95-2.73-1-.92-2.51.55-1.5,1.47,0.44,0.4.88,0.81,1.32,1.22-3.13-.12-6.26-0.04-9.38-0.04a1.045,1.045,0,0,0,0,2.09c3.19-.01,6.39-0.09,9.58.04-0.43.4-.88,0.78-1.31,1.18-1.02.91,0.49,2.37,1.5,1.47C2391.91,1245.72,2395.19,1243.59,2393.54,1242.02Z" transform="translate(-2362.41 -1221.72)"/>
</svg>
