<?xml version="1.0" encoding="utf-8"?>
<!-- Generator: Adobe Illustrator 21.0.0, SVG Export Plug-In . SVG Version: 6.00 Build 0)  -->
<svg version="1.1" id="Layer_1" xmlns="http://www.w3.org/2000/svg" xmlns:xlink="http://www.w3.org/1999/xlink" x="0px" y="0px"
	 viewBox="0 0 367.3 610" style="enable-background:new 0 0 367.3 610;" xml:space="preserve">
<g>
	<path d="M107.8,16.3c0,1.5-0.4,4.8,3.7,4.8c-1.1,2.6-1.5,5.9-3,8.1c-10,3.7-25.2,3.7-37.8,2.6c-0.4,12.6,0.4,25.6,1.5,38.9
		c2.2,20.7,0.4,41.9,0.7,63c0,36.3,1.5,74.1,3.3,110c-0.7,2.2-4.1,1.9-4.1,4.8c-2.6-0.4-2.6,0.4-3.7,1.9c-3.7-0.4-7.4,2.6-11.1,2.2
		c-1.5,0-1.5,1.9-2.2,2.6c-2.6-2.2-9.6,1.1-11.5-2.6c0-27.8-0.7-56.7-1.1-86.3c0-25.6,1.5-50.8,2.2-76.3c0.7-16.3-1.8-33,0-49.3
		c-3.7-0.7-2.2-5.2-2.6-7.8c-2.2,1.5-0.7,7-0.4,10c0,8.5-1.1,17.4-0.7,25.9c0.4,24.4-1.1,48.2-0.7,71.5c0.4,6.3,1.5,17.4-1.1,17.4
		c-1.8-27.4-1.1-56.3-0.4-84.5c0.4-13.3-1.1-27,0.4-40c-25.6,0-24.4-1.5-34.4-5.6c-1.1-1.9,0-4.1,1.5-5.2c-3.7,0.4-3.7-3-6.3-4.4
		c4.1-7.8,11.5-7.4,21.1-7s23.3-0.7,33.3-0.4c13.7,0.4,27.4,0.7,38.9-0.4C99.3,9.6,108.2,10.7,107.8,16.3z M40,178.6
		c-1.8-5.2-2.2-16.7-0.7-16.7C41.5,161.9,41.5,175.2,40,178.6z"/>
	<path d="M160.4,3c3.7-5.9,8.5,7,15.9,7.8c0.4,0.4-0.4,2.6,0.4,4.1c1.1,0,1.5-4.1,3.3-3s-1.1,8.5-1.5,13c-0.4,4.4,0,9.3,0.7,14.4
		c0.4,4.4,1.1,8.9,2.2,13.3c5.2,28.9,11.5,62.6,17.4,94.5c3.3,18.2,8.5,34.5,11.5,50.4c0.4,4.4,1.1,10.4,1.9,15.6
		c1.5,7.4,4.8,14.4,4.1,21.1c0.4,7-5.9,10.4-6.7,17c-1.5,1.1-1.1-1.1-3.3-0.4c-1.1,1.5-6.3,5.2-10,5.2c-5.6-0.7-5.9-7.4-7-13
		c-3.3-15.9-9.3-36.3-11.5-50c-11.1,5.2-33.3,3-50,4.4c-5.6,18.2-8.5,36.3-16.3,51.9c-2.2,1.5-7.8,3-10,5.2
		c-1.5-0.7-3.3-2.2-4.8-3.7c2.2-18.9,7.4-36.7,12.2-52.6l3.3-14.4c12.6-38.9,22.2-79.6,32.6-120.8c1.1-6.7,4.4-14.1,4.4-21.1
		c0-6.3-2.2-11.9-3.7-18.2c-1.8-7.8-3.3-14.4-4.8-22.2C140.8-4.1,154.1,8.2,160.4,3z M132.3,180.8c14.8,0.7,30.4-2.2,43-1.1
		c-6.7-28.2-10.4-61.1-17.4-89.3C150,120.8,140.4,150,132.3,180.8z"/>
	<path d="M263.4,14.8c1.1,1.1,2.2,4.1,3,7c3.7,11.1,25.6,85.2,38.2,127.8c13.3-43.7,23-93.7,34.1-138.9c3-1.5,6.3-0.4,8.5-1.9
		c1.8,1.5,5.6,3.3,8.5,1.9c1.5,1.9,6.7,3.3,8.1,5.9c-0.7,15.6,0,30.7,0,45.6c0,46.7-1.1,86.7-0.7,127.8c0,10.4,0,20.7,0.7,32.2
		c0.4,5.9,4.4,14.1,1.1,23.3c-2.6,1.5-4.8,4.1-8.2,5.2c-1.5,0.7-3,0.4-4.8,0.7c-1.8,0.7-3.3,2.6-4.4,3c-2.6,0-6.7-3-8.5,0
		c-4.4-4.8-3.3-11.1-4.4-18.5c-3.3-37-2.2-91.1-2.2-131.9c-4.4,17.8-11.5,53.7-17.8,70.4c1.8,3,1.5,6.3,0.4,10
		c-3,5.6-10.4,6.3-14.4,10c-2.2,0.7-2.2-1.5-4.4-1.1c-1.1,0.4-1.5,2.6-3,2.6c-3-0.4-8.2-10-9.6-12.2c-2.2-4.8-4.1-10.4-6.3-16.7
		c-6.3-15.2-12.2-36.3-17.4-52.6c0-1.9-1.1-0.4-1.5-1.5c-0.4-2.6-1.1-5.2-1.5-8.2c-0.4,21.9,0.4,43.3,0,67.1
		c-0.4,13,0.7,28.2,0,43.3c-0.4,7,0,15.9-1.9,20.7c-1.1,2.6-2.2,2.6-4.1,4.1c0,4.4-1.1,6.3-2.6,9.6c-5.2,0-7.4,4.4-13.3,4.8
		c0-2.2,0.4-4.8-1.1-6.3c2.6-13.3,1.5-25.2,1.9-40.4c0.7-15.2,0-31.1,0-47.4c0-31.5,1.1-63.7,2.6-94.8c0.4-13.3,0.7-25.6-2.2-35.9
		c-0.4-1.9-1.8-4.1-1.8-5.9c0-3.3,3-7,1.1-10.7c3-2.2,5.9-3.3,8.5-4.4C249.7,10.7,259,10.7,263.4,14.8z"/>
</g>
<g>
	<path d="M87.8,285.4c2.9,3.9,3.9,7.2,7.8,7.8c2.9,9.7,1,15,1.4,28.1c0,8.2,0.4,14,1.4,22.7c1.9,13,3.9,26.6,6.8,41.7
		c8.7,36.8,18.8,69.2,26.2,106.1c4.8,25.2,11.1,52.8,15,76c0.4,2.9,0.4,5.8,0.4,8.7c0.4,7.8,1,17.9-3.3,21.7
		c-6.2,1.9-12.6,3.9-18.8,4.3c-2.4,0-1.4-3.9-4.8-2.4c-2.4,0,1,1,0,2.9c-3.9,0-3.9-4.3-6.2-4.8c-4.8-20.4-5.3-43.6-11.1-63.4
		c-19.4,1-36.8-5.3-55.2-1.9c-3.9,13.6-5.3,30.5-8.7,46c-1.4,5.3-2.4,12.6-4.3,15c-3.9,5.3-12.6,3.3-15,10.1
		c-4.8-0.4-7.8,0-10.1,0.4c-4.8-3.3-2.9-6.8-1.9-11.6l11.6-58.6c-4.3-1.4-10.1-1.4-13.6-4.8c1-1.4,1-4.8,1.4-6.8
		c2.9-2.9,10.7-1.9,15-3.9c15.5-61.5,28.1-122.1,41.1-186.5c1.4-10.7,4.8-20.4,4.3-29.1c-0.4-5.8-2.9-6.8-2.4-21.7
		c3.3-1,9.1,0,12.6-1C81,289.3,84.4,286.4,87.8,285.4z M51.5,514.5c17.9-2.4,30.5,1.9,47.5,1c-7.2-39.7-15.9-78.5-25.6-116.3
		c0-0.4,0-0.4-0.4-0.4C68,439,58.3,475.7,51.5,514.5z"/>
	<path d="M294.6,343.5c2.4,8.7,3.3,25.2,2.9,37.2c-2.9,52.8-30.5,90.6-60.1,118.2c9.1,22.3,14,48.5,29.5,64.9
		c7.8-1.4,10.1-9.1,17.9-12c-0.4,5.3,3.9,11.6,2.9,15.9c3.3,1.9,5.3-2.4,7.8-1.4c-1.9,4.3,2.4,7.8,1,12.6
		c-2.4,8.2-15.9,12-18.8,20.4c-9.7,4.8-23.3,5.3-30-1c-1.9-1.9-2.4-4.3-3.9-6.2c-1-1.4-3.3-2.4-4.3-3.3c-2.9-3.9-4.3-9.7-7.2-14
		c-10.1-15-17.4-27.6-22.7-41.7c-1.9,21.3,0,42.6,0,62c-8.2,1.9-15,8.7-26.2,6.2c-1.9,0-1,2.9-3.3,2.4c-2.9-1.9-5.8-3.9-8.2-6.8
		c-3.3-45,0.4-96.9,0-143.9c0-25.6-1.4-50.8-1.4-75.6c1-24.6,1.4-49.4,0.4-73.7c0-1.9-1.4-1.4-7.2-1.9c-2.4,0,0-2.4-1.4-2.9
		c-3.3,1-1.9-1-4.8-1.9c0-3.3,1-2.9,0-6.8c2.4-4.3,2.4-1.4,4.8-5.3c2.4-2.9,21.3-2.4,33.4-2.9C241.9,280.6,285.4,305.2,294.6,343.5z
		 M174,302.9c-1.9,5.3-0.4,12,0,19.8c1,13.6-1.9,24.6,1.4,33.9c1-19.8-1.4-38.2,0.4-53.7H174z M203.5,304.3
		c1,54.3,7.8,110.9,7.8,162.3c25.2-16.5,49.8-51.4,52.8-93c1.9-19.4-5.8-39.2-13-51.4c-8.7-13.6-26.2-17.4-46.9-19.8
		C203.5,302.9,202.1,303.9,203.5,304.3z M217.1,545.5c3.3,7.2,8.7,16.5,11.1,17.9c-6.2-13-12-27.1-17.9-40.7
		C209.3,530,213.8,538.3,217.1,545.5z"/>
	<path d="M339.2,281c2.9,0.4,0-2.9,2.9-2.4c8.2,1.9,16.5,4.8,23.7,10.1c-1.4,41.7-3.3,85.3-0.4,128.9c2.4,37.2,0,77,1.4,113.8
		c0.4,11.6,1,25.2,0,36.3c-0.4,4.8-0.4,12-1.4,15.9c-0.4,1-2.9,2.4-3.9,4.3c-1,1.9,0,4.3-1.4,6.2c-0.4,1-2.4,1.4-3.9,3.3
		c-1.9,3.3-1.9,7.8-7.2,5.8c-1.9,1.9-2.9,4.3-4.8,6.2c-1.9-2.9-3.9-2.4-5.3,0.4c-2.4-1.9-3.3-4.8-4.8-7.8c-2.9-1-0.4,3.3-2.9,2.4
		c-7.8-10.1-3.3-25.2-3.3-38.8c0.4-10.1,0-20.8-0.4-31.4c-1.4-39.7,1-79.9-1-119.2c-1.4-35.3-1.4-71.2,0-105.1
		c0.4-8.7,2.9-17.4,1-27.6c2.9-1,5.3-0.4,5.3-4.3c2.9,0.4,5.3,0,5.8-1.9C340.2,276.7,339.2,279.6,339.2,281z M328.6,363.8
		c3.3-19.4,1.4-44,4.3-64c-1,0-1-0.4-1.9-1C328,318.4,327.6,342.5,328.6,363.8z"/>
</g>
</svg>
