<svg id="Layer_1" data-name="Layer 1" xmlns="http://www.w3.org/2000/svg" viewBox="0 0 100.04 96.55"><defs><style>.cls-1{fill:#231f20;}</style></defs><title>Vector Smart Object3</title><path class="cls-1" d="M13.08.11a1.28,1.28,0,0,0,1.2.36c.24.66.84.9,1.2,1.32-.12.18-.06.54-.24.66.18,2,.42,5.16.48,7.68a8,8,0,0,1-.48,2.28c-.42.12-1,.06-1,.48-.6-.3-.66.3-1.14,0-.18,0-.18.24-.24.36-.3-.12-.36-.3-.72-.06-1.14-1.26-1.44-4-1.14-6.3-.42-.6-1-1.74-2.16-1.44C8,5.63,7.26,7.73,6.78,9a40,40,0,0,0-2,17,27.78,27.78,0,0,0,1.86,8.1,7.44,7.44,0,0,0,2,2.88c2.28-.3,2.52-2.76,3.06-5a29.4,29.4,0,0,0,1-5c-1.14-.18-2.76.18-3.3-.66-.06-.3.48,0,.42-.36s-.72.06-1,0c-.12-.36.06-.3.12-.6-.12-.24-.3.06-.54,0,.12-.24.12-.9.42-.72s-.3.24,0,.42c.54-.06.78-.48,1.38-.3-.24-.48-1-.3-1.56-.48,1.38-.84,4.44-.3,6.24-.48.18.18-.12.24-.18.36.18.24.36.12.6.12.06.48.42.66.66.9a4.35,4.35,0,0,1-.54,1.32c-.24,0-.54-.18-.6.06s.24.18.3.3c.12.42,0,.72.3,1a13.23,13.23,0,0,1-.3,2.64c.48-.24.18-1.62.66-1.68.12,2.1-.66,4.26-1.14,6.24a12.52,12.52,0,0,1-2.88,5A4.08,4.08,0,0,1,9.6,41.38,6.19,6.19,0,0,1,5.46,40.3a12.87,12.87,0,0,1-2.88-3.84C-1,29.69-.48,17.68,1.74,10.13c.9-3.24,1.74-6.18,3.9-7.92.54-.12.72-.42,1-.54,1.8-.6,3.24.72,4.2,1.5C11,3.17,11,3,11,2.81c.24.12.12.54.36.72.06-.3.06-1.14-.3-1,.24-.78.18-2.34.84-2.52C12.36-.13,12.6.29,13.08.11Z"/><path class="cls-1" d="M20.82,1.61c.36.06,0-.36.36-.3a7.94,7.94,0,0,1,2.94,1.26,157.32,157.32,0,0,0-.06,16c.3,4.62,0,9.54.18,14.1a37.19,37.19,0,0,1,0,4.5,18.49,18.49,0,0,1-.18,2c-.06.12-.36.3-.48.54s0,.54-.18.78-.3.18-.48.42c-.24.42-.24,1-.9.72-.24.24-.36.54-.6.78-.24-.36-.48-.3-.66.06a2.62,2.62,0,0,1-.6-1c-.36-.12-.06.42-.36.3-1-1.26-.42-3.12-.42-4.8.06-1.26,0-2.58-.06-3.9-.18-4.92.12-9.9-.12-14.76-.18-4.38-.18-8.82,0-13a12.8,12.8,0,0,0,.12-3.42c.36-.12.66-.06.66-.54.36.06.66,0,.72-.24C20.94,1.07,20.82,1.43,20.82,1.61ZM19.5,11.87c.42-2.4.18-5.46.54-7.92-.12,0-.12-.06-.24-.12A44.28,44.28,0,0,0,19.5,11.87Z"/><path class="cls-1" d="M29.46,2c.18.12.18-.18.3-.3,1,.18,1.44.9,2,1.5,3.42,7.56,5.34,18.3,7.92,26.7-.24-5.88-.06-12.66-.12-19.14,0-3.3-.36-6.66.48-9.06.36-.06.24.48.54.48s.06-.48.36-.48c0,.48.66.12.9.3.06.6.54,1.14.66,1.62.06.24-.12,1.26-.12,1.86a9.94,9.94,0,0,0,.3,1.92c.06.6-.06,1.26-.06,2-.06,1.5.12,3.06.12,4.68s-.06,3-.06,4.5c-.12,3.06.06,6.18.18,9.18.12,1.44,0,2.88.12,4.38a59.67,59.67,0,0,1,.06,8c-.36.12-.54.6-.9.78s-.42-.12-.84-.06c-.54.3-.72-.06-1.26.36a12.89,12.89,0,0,1-1.32-1.26c-.84-2.46-1.62-4.32-2.76-7.56-1.44-4-2.94-9.6-4.2-14.1v2.52c0,3.78,0,8.1-.06,12.12,0,3.24.66,6.3-.48,8.1-1,.3-1.8-.24-2.52-.18-.12-2.16.06-4.26.06-6.54-.06-5.46-.06-11-.06-16.44V7.37a30.77,30.77,0,0,0-.6-3.06c-.3-1.2-.54-1.92.3-2.76A2.7,2.7,0,0,0,29.46,2Z"/><path class="cls-1" d="M61.14,1.43c1,.18,1.38,1,2.16,1.5-.06,2.82,1.14,7.14-.3,9.48-.78.66-1.86.66-2.64,1.14-.36,0-.48-.24-.66.12-.3,0-.36-.3-.66-.24-.42-3.24.06-5.64-.06-8.82-1.14-.12-2,1.08-2.52,1.74L55.2,7.79c-2.82,3.84-4.44,9.12-4.44,16a27.77,27.77,0,0,0,1.26,8,1.09,1.09,0,0,1,.12.42c1,2.22,2.22,4.44,4,5.64a2.41,2.41,0,0,0,1.62-.9c1.56-1.74,2.4-5.46,2.4-8.7A27.09,27.09,0,0,0,60,25.12c-1.56-.3-3.3.24-4.5-.6-.12-.24.3-.6-.3-.54.54-.36.12-.84.18-1.44.06-.3.54-.48.42-.78,2.64-.24,6.18-.54,8.52,0,0,.24-.24.12-.24.3a1.5,1.5,0,0,0,.78.24c.12.24-.42.06-.48.24a7.11,7.11,0,0,0,1,.48c-.36.6-.54,1.38-1.62,1.38.36,6.12-.54,12.24-3.78,15.48a6.61,6.61,0,0,1-4.74,1.8c-2.46-.12-3.72-2.28-5.22-3.6-2.7-3.66-4.08-8.94-4.08-15.48a35.65,35.65,0,0,1,.42-5A30,30,0,0,1,50,6.89a11.73,11.73,0,0,1,4.44-4.62,4.33,4.33,0,0,1,4.5,0c.06-.66,1-1.8,1.68-1.08.3,0,.24-.3.54-.24C61.2,1.13,61.08,1.19,61.14,1.43Z"/><path class="cls-1" d="M80.76,2.57c-.24.42-.24,1,.36.9-.3.36-.3.66-.36,1.38-3.9.84-5.4-.3-8.28,0-.3,3.12.12,7.38,0,10.8,1.62.18,3.42-.3,5-.06.18.18.24.42.42.54h.78c.18.06.06.18,0,.48a4.86,4.86,0,0,1,1,.06,3.18,3.18,0,0,0,.42.78,6.79,6.79,0,0,0-.42,1.32c-2.28.42-5-.12-7.08.66-.12,5.7.12,12,.24,17.7,2.7.12,5.76-.72,7.74.06-.3.18-.72-.12-1,.18a3.14,3.14,0,0,1,1.92,1.14c.12.24-.42.84-.12,1.26a27.12,27.12,0,0,1-5.88.84c-3.12.18-2.82.72-4.2,1-.84.18-1.68.06-2.22.6-.18-.12-.12-.6-.42-.72s-.24.06-.3.24a9.61,9.61,0,0,0-1.56-1.56c-.42-.72.42-1.92.84-1.44.06-4.38-.24-9.66-.06-13.86.06-1.92-.06-3.78,0-5.76-.3-.66-.9-.72-1.26-1.5.18-.24.54-.42.6-.66s.72.06.6-.42c-.18-.3-.72.18-.9-.24a2.66,2.66,0,0,1,.9-.18c.3-3.54-.06-8.46,0-11.64-.6-.12-.3-.54-1-.6A1.23,1.23,0,0,0,66,2.75c.36-.66.36-1.08,1.14-1.08a19,19,0,0,0,2.4.24c.84,0,1.74-.3,2.7-.24L76,1.91A19.21,19.21,0,0,1,79,1.67C79.62,1.73,80.16,2.51,80.76,2.57ZM72,4.85a6,6,0,0,0,.06,2.52l.18-2.52Zm.54,11.22c0,.24,1,.06,1.2-.06A8.06,8.06,0,0,1,72.54,16.07Zm2.16.12a13.56,13.56,0,0,0,2.7,0c.06,0,.06-.06-.06-.06C76.38,16.13,75.48,15.76,74.7,16.19Z"/><path class="cls-1" d="M96.72,4.61c2.16,2,4,6.36,3.06,11.4a21.9,21.9,0,0,1-2.28,6.3c-.48.84-1.08,1.74-1.62,2.58A24.47,24.47,0,0,1,92,29.26c.72,1.62,2.94,8.46,4.2,8.82,1.56.42,2.28-1.68,2.88-2,.12.48-.36,1.5.36,1.44-.06.42-.36.54-.54.84.12.36.48.06.6.3-.12.36-.72.3-.72.78,0,.3.3-.12.42.06a3.86,3.86,0,0,1-3.18,1.74,4.82,4.82,0,0,1-3.36-1.38c-1.32-1.26-2.94-4.68-3.78-6.6-.06,2,0,5.4-.18,7.2,0,.9-2.4,1-3.84.54.12-2-.84.06-.84-.24,0-1.44.18-2.16.24-4.14.12-3.42.06-7.62.06-11.52V21.35c-.18-5.22.12-12.66-.06-17.34a13.22,13.22,0,0,1-1.62-.24c0-.36.72-.72.18-1.14,1.5-.78,4.5-.78,6.48-.66A11.62,11.62,0,0,1,96.72,4.61Zm-8,22.08a17.84,17.84,0,0,0,5.4-7.38c2.28-5.52,1-15.12-5.64-14.82A170.92,170.92,0,0,1,88.74,26.69Z"/><path class="cls-1" d="M5.67,53.78c-.33.91.46,1.43.52,2.21a31,31,0,0,1,.07,6c.33,9.82.65,21.78.52,30.88,2.47.39,6.24-.46,7.8,1a6.28,6.28,0,0,1-.07,1.17c-.52.13-1,.13-1,.58-2,.59-4.1.33-6.44.33-2-.13-4.29.52-5.53-.26-.13-.07-.06-.2-.26-.39-.33-.39-1-.46-.91-1.17.26-.46,1-.33,1.17-.71s0-1,0-1.5c-.13-3.25.2-6.76.26-10.27,0-4.87,0-11.9-.06-16.84-.07-2.73,0-5.39,0-8a20.3,20.3,0,0,0-.2,4.75c-.71-.26-.52-1.23-.46-2a9.85,9.85,0,0,1,.06-2.79c.07-.46.39-.72.46-1s-.2-.71-.06-1a3.47,3.47,0,0,1,1.17-1.43c.26-.07.26.19.33.33.39-.52,1-.13,1.43-.46A3.55,3.55,0,0,1,5.67,53.78Z"/><path class="cls-1" d="M32.26,54.17c.07.2-.07.46.07,1.37-.46.2-.52.78-1,.84.33.39-.26.26.13.65-3.05.78-6.56.33-9.95.2.13,5.07.46,9.36.39,14.37,2,.26,5.85-.19,7.61.13.06.32-.13.91.58.91,0,.2-.32.78-.26,1,.2.07.46.07.65.13a2.8,2.8,0,0,1-.59.65c-.06.32.39.19.2.39-.91,1-6.24.59-8,.85-.13,4.62.06,11.05,0,16.19.13.13.52,0,.84.06s.13.33.33.33c2.92.39,6.5-.26,9.23.26.06.32-.13.39-.46.32,0,.39.32.07.52.26,0,.13-.39.65.06.78-.13.19-.39.26-.13.52-1.63,1.43-4.94,1.82-8.06,1.56a24.77,24.77,0,0,0-5.53.39,12.44,12.44,0,0,1-1.56-.07,7.37,7.37,0,0,1,.13-2.4c-.46-.07-.13.39-.46.52.06-.33-.07-.52-.07-.85-.33.26,0,1.24-.13,1.5-.46-.46-.13-1-.13-1.5.13-3.38,0-7.34.2-10.86.2,2.41.07,7.87.26,7.8.2-11.44-.19-24.7,0-36.34.26,0,.39.2.71.13,0-.33-.32-.13-.19-.46A78.79,78.79,0,0,1,32.26,54.17Zm-15,37.57c-.07-.19.13-.78-.13-.78C17.18,91.15,17,91.74,17.24,91.74Zm.46-35.17c.52.07-.07,1.37.33,1.56,0-.71.26-1.5-.13-2C18,56.51,17.7,56.38,17.7,56.57ZM17.89,96a3.55,3.55,0,0,0,1.17,0C19,95.77,18,95.77,17.89,96Zm.2-40.17c0-.13,0-.33.07-.39-.13,0-.13-.58-.19-.65C18,55,18,55.73,18.09,55.79ZM22,75.1c.06.33.91.33,1,.19-.13,0-.52.13-.52-.06.52-.06,1,.26,1.37,0-.13,0-.26.06-.26-.06s.13,0,.13-.07C23.16,75.16,22.51,74.9,22,75.1Z"/><path class="cls-1" d="M40.06,54.43a3.19,3.19,0,0,1,.52,1.23c.65,2,4.49,15,6.7,22.43,2.34-7.67,4-16.45,6-24.38.52-.26,1.11-.06,1.49-.33a1.52,1.52,0,0,0,1.5.33c.26.32,1.17.58,1.43,1-.13,2.73,0,5.4,0,8,0,8.19-.2,15.21-.13,22.43,0,1.82,0,3.64.13,5.66.06,1,.78,2.47.2,4.09a7.76,7.76,0,0,1-1.43.91,3.29,3.29,0,0,1-.85.13c-.33.13-.58.46-.78.52-.45,0-1.17-.52-1.5,0-.78-.85-.58-2-.78-3.25-.59-6.5-.39-16-.39-23.14-.78,3.12-2,9.42-3.12,12.35a2.05,2.05,0,0,1,.07,1.76c-.52,1-1.82,1.11-2.54,1.75-.39.13-.39-.26-.78-.2-.19.07-.26.46-.52.46-.52-.07-1.43-1.75-1.69-2.15-.39-.84-.71-1.82-1.11-2.92-1.11-2.67-2.14-6.37-3.05-9.23,0-.33-.2-.07-.26-.26-.07-.46-.2-.91-.26-1.43-.07,3.84.06,7.61,0,11.77-.07,2.28.13,4.94,0,7.61a15.09,15.09,0,0,1-.33,3.64c-.19.46-.39.46-.71.71a3.43,3.43,0,0,1-.46,1.69c-.91,0-1.3.78-2.34.85,0-.39.06-.85-.2-1.11a41.62,41.62,0,0,0,.33-7.08c.13-2.67,0-5.46,0-8.32,0-5.52.19-11.18.46-16.64A21.68,21.68,0,0,0,35.25,57a6.43,6.43,0,0,1-.33-1c0-.59.52-1.24.19-1.88a6.67,6.67,0,0,1,1.5-.78C37.65,53.71,39.28,53.71,40.06,54.43Z"/><path class="cls-1" d="M71.91,52.61c.39.2.91.26,1.11.85s-.39.91-.52,1.49c-2.27,2-3.58,5-4.55,8C64.11,75,67.23,93,70.09,93c1.43-.26,2.79-6,3.51-9.95a50.46,50.46,0,0,0,.59-19.44,26.54,26.54,0,0,0-.71-2.86c-.26-.39-.26-.91-.46-1.24.52.26.46,1.11.84,1.43-.13-1.82-1.23-2.15-1.56-3.9.26-.26,0-.65.26-.52.46-.06-.13-.52.13-.65.39.19.72.46,1,.65.2.52.26.91.65,1s.06-.33,0-.46c.32.2.26.84.71.84.13-.52-.59-1-.52-1.56a22.57,22.57,0,0,1,2.92,7.93,60.29,60.29,0,0,1-2.34,26.91,8.41,8.41,0,0,1-2,3.45,2,2,0,0,0-.33.45,2.85,2.85,0,0,1-2.6,1.3A4.72,4.72,0,0,1,67,96c-3.19-2.34-4.87-8-5.4-12.74-.84-8-.39-16.06,1.82-22.95a25.43,25.43,0,0,1,4.49-8.12.83.83,0,0,0,.06.39,3.22,3.22,0,0,1,3-.78C71.26,51.89,71.45,52.35,71.91,52.61Zm-5.72,3.32c.78-1.1,2-1.89,2.73-3.06A6.24,6.24,0,0,0,66.19,55.92Zm3.58-3.12c.46.13.91-.33,1-.78A1.7,1.7,0,0,0,69.76,52.8ZM71.13,96c.46-.13,1.63-1.11,1.56-1.56C72.23,94.47,71.13,95.44,71.13,96Z"/><path class="cls-1" d="M94.79,53.78c.26.07.07-.32.13-.46.39.13.58.52,1,.33-.13.39.13.65.32,1,.33.06.07-.39.2-.52,1.69,1,1.11,5.07,1.43,10v1.43c.13,5.53-.13,16.71-.2,22.36a18.26,18.26,0,0,1-.33,5.33.8.8,0,0,1-.78.13c-.2.52.58,1.43.32,1.82-.2-.45-.78-1.23-.78-1.75-.33.32-.07.91-.26,1.3-.72.33-.65,1.43-1.37,1.69-.39-.13-.07-.46-.52-.39s-.46.06-.26.46c-2.41-1.56-3-5.2-4-8.06-.78-2.14-1.5-4.42-2.14-6.76-.2-.78-.52-1.5-.72-2.28l-2.21-8.45c.06,7.67-.13,16.32-.06,23.66-.46.39-.26-6.44-.26-8.52-.39,1.37-.2,5.92-.2,6.76a13.59,13.59,0,0,1-.52,3.25c-.13,0-.13-.19-.26-.26-.07.26.07.46-.2.71-.13-.19-1-.32-1.17-.58,0-9.1.07-20.22-.13-29.45-.06-2.66.06-5.39-.06-7.93a17.72,17.72,0,0,1-.52-3.25,4.61,4.61,0,0,0,.26-1.56c-.07-.32.52,0,.58-.26v-.2a18.8,18.8,0,0,0,2.6.33,2.59,2.59,0,0,0,.78,1.3c.06,2.21,1.17,4,1.69,6,.33,1.1.52,2.15.85,3.12,2.08,7,4,14.76,6.37,21.65.07-9.36,0-19.11-.06-28.15a16.62,16.62,0,0,1,.06-4.75A.75.75,0,0,1,94.79,53.78Zm-12.94.39c0,.26.26.52.33.32-.13,0-.07-.19-.07-.32Z"/></svg>