<?xml version="1.0" encoding="utf-8"?>
<!-- Generator: Adobe Illustrator 21.0.2, SVG Export Plug-In . SVG Version: 6.00 Build 0)  -->
<svg version="1.1" id="Layer_1" xmlns="http://www.w3.org/2000/svg" xmlns:xlink="http://www.w3.org/1999/xlink" x="0px" y="0px"
	 viewBox="0 0 85 79.8" style="enable-background:new 0 0 85 79.8;" xml:space="preserve">
<g>
	<polygon class="st0" points="44.9,58 44.5,58 44.5,61.2 42.8,58 42.3,58 42.3,62 42.8,62 42.8,58.9 44.5,62 44.9,62 	"/>
	<path class="st0" d="M47.2,61.7c0,0.1,0,0.3,0.1,0.4h0.4c-0.1-0.1-0.1-0.2-0.1-0.3c0-0.1,0-0.4,0-0.9v-0.7c0-0.3,0-0.5-0.1-0.6
		c0-0.1-0.1-0.3-0.3-0.3c-0.1-0.1-0.3-0.1-0.6-0.1c-0.3,0-0.6,0.1-0.7,0.2c-0.2,0.1-0.3,0.4-0.3,0.7l0.4,0.1c0-0.2,0.1-0.4,0.2-0.4
		c0.1-0.1,0.2-0.1,0.4-0.1c0.2,0,0.4,0.1,0.5,0.2c0.1,0.1,0.1,0.2,0.1,0.4l0,0.1c-0.2,0.1-0.4,0.1-0.7,0.2c-0.2,0-0.4,0.1-0.5,0.2
		c-0.1,0.1-0.2,0.2-0.3,0.3c-0.1,0.1-0.1,0.3-0.1,0.4c0,0.3,0.1,0.5,0.2,0.6c0.1,0.1,0.3,0.2,0.6,0.2c0.2,0,0.3,0,0.5-0.1
		C46.9,61.9,47,61.8,47.2,61.7z M46,61.6c-0.1-0.1-0.1-0.2-0.1-0.3c0-0.1,0-0.2,0.1-0.2c0-0.1,0.1-0.1,0.2-0.2
		c0.1,0,0.2-0.1,0.4-0.1c0.3-0.1,0.5-0.1,0.7-0.2v0.2c0,0.2,0,0.4-0.1,0.5c-0.1,0.1-0.1,0.2-0.3,0.3c-0.1,0.1-0.2,0.1-0.4,0.1
		C46.2,61.7,46.1,61.7,46,61.6z"/>
	<path class="st0" d="M49.4,62.7c-0.1,0.1-0.2,0.1-0.4,0.1c-0.2,0-0.3,0-0.4-0.1c-0.1-0.1-0.1-0.2-0.2-0.3l-0.4-0.1
		c0,0.3,0.1,0.5,0.2,0.7c0.2,0.2,0.4,0.2,0.7,0.2c0.2,0,0.4-0.1,0.6-0.2c0.2-0.1,0.3-0.3,0.4-0.5c0.1-0.2,0.1-0.5,0.1-1v-2.5h-0.4
		v0.3c-0.1-0.1-0.2-0.2-0.3-0.3c-0.1-0.1-0.2-0.1-0.4-0.1c-0.2,0-0.4,0.1-0.5,0.2c-0.2,0.1-0.3,0.3-0.4,0.5C48,60,48,60.2,48,60.6
		c0,0.5,0.1,0.8,0.3,1.1c0.2,0.2,0.4,0.4,0.7,0.4c0.1,0,0.3,0,0.4-0.1c0.1-0.1,0.2-0.2,0.3-0.3c0,0.3,0,0.5,0,0.6
		C49.6,62.5,49.5,62.6,49.4,62.7z M49.5,61.4c-0.1,0.2-0.3,0.3-0.5,0.3c-0.2,0-0.3-0.1-0.5-0.3c-0.1-0.2-0.2-0.5-0.2-0.8
		c0-0.3,0.1-0.6,0.2-0.8c0.1-0.2,0.3-0.3,0.4-0.3c0.2,0,0.3,0.1,0.5,0.3c0.1,0.2,0.2,0.4,0.2,0.8C49.7,60.9,49.7,61.2,49.5,61.4z"/>
	<path class="st0" d="M50.7,59.1V62h0.4v-1.5c0-0.2,0-0.4,0.1-0.6c0-0.1,0.1-0.2,0.2-0.2c0.1-0.1,0.2-0.1,0.2-0.1
		c0.1,0,0.2,0,0.3,0.1l0.1-0.5c-0.1-0.1-0.3-0.2-0.4-0.2c-0.1,0-0.2,0-0.3,0.1c-0.1,0.1-0.2,0.2-0.3,0.4v-0.4H50.7z"/>
	<path class="st0" d="M53.4,62c0.1-0.1,0.3-0.2,0.4-0.3c0,0.1,0,0.3,0.1,0.4h0.4c-0.1-0.1-0.1-0.2-0.1-0.3c0-0.1,0-0.4,0-0.9v-0.7
		c0-0.3,0-0.5-0.1-0.6c0-0.1-0.1-0.3-0.3-0.3c-0.1-0.1-0.3-0.1-0.6-0.1c-0.3,0-0.6,0.1-0.7,0.2c-0.2,0.1-0.3,0.4-0.3,0.7l0.4,0.1
		c0-0.2,0.1-0.4,0.2-0.4c0.1-0.1,0.2-0.1,0.4-0.1c0.2,0,0.4,0.1,0.5,0.2c0.1,0.1,0.1,0.2,0.1,0.4l0,0.1c-0.2,0.1-0.4,0.1-0.7,0.2
		c-0.2,0-0.4,0.1-0.5,0.2c-0.1,0.1-0.2,0.2-0.3,0.3c-0.1,0.1-0.1,0.3-0.1,0.4c0,0.3,0.1,0.5,0.2,0.6c0.1,0.1,0.3,0.2,0.6,0.2
		C53.1,62.1,53.2,62.1,53.4,62z M52.5,61.3c0-0.1,0-0.2,0.1-0.2c0-0.1,0.1-0.1,0.2-0.2c0.1,0,0.2-0.1,0.4-0.1
		c0.3-0.1,0.5-0.1,0.7-0.2v0.2c0,0.2,0,0.4-0.1,0.5c-0.1,0.1-0.1,0.2-0.3,0.3c-0.1,0.1-0.2,0.1-0.4,0.1c-0.2,0-0.3,0-0.4-0.1
		C52.6,61.5,52.5,61.4,52.5,61.3z"/>
	<path class="st0" d="M54.6,60.6c0,0.5,0.1,0.9,0.3,1.1c0.2,0.3,0.4,0.4,0.7,0.4c0.1,0,0.3,0,0.4-0.1c0.1-0.1,0.2-0.2,0.3-0.3V62
		h0.4v-4h-0.4v1.4c-0.1-0.1-0.2-0.2-0.3-0.3c-0.1-0.1-0.2-0.1-0.4-0.1c-0.2,0-0.4,0.1-0.5,0.2c-0.2,0.1-0.3,0.3-0.4,0.5
		C54.7,60,54.6,60.2,54.6,60.6z M55.2,59.7c0.1-0.2,0.3-0.3,0.4-0.3c0.2,0,0.4,0.1,0.5,0.3c0.1,0.2,0.2,0.5,0.2,0.9
		c0,0.4-0.1,0.6-0.2,0.8c-0.1,0.2-0.3,0.3-0.4,0.3c-0.2,0-0.3-0.1-0.5-0.3c-0.1-0.2-0.2-0.5-0.2-0.8C55.1,60.2,55.1,59.9,55.2,59.7z
		"/>
	<path class="st0" d="M58.1,60.4c-0.2,0-0.4,0.1-0.5,0.2c-0.1,0.1-0.2,0.2-0.3,0.3c-0.1,0.1-0.1,0.3-0.1,0.4c0,0.3,0.1,0.5,0.2,0.6
		c0.1,0.1,0.3,0.2,0.6,0.2c0.2,0,0.3,0,0.5-0.1c0.1-0.1,0.3-0.2,0.4-0.3c0,0.1,0,0.3,0.1,0.4h0.4c-0.1-0.1-0.1-0.2-0.1-0.3
		c0-0.1,0-0.4,0-0.9v-0.7c0-0.3,0-0.5-0.1-0.6c0-0.1-0.1-0.3-0.3-0.3c-0.1-0.1-0.3-0.1-0.6-0.1c-0.3,0-0.6,0.1-0.7,0.2
		c-0.2,0.1-0.3,0.4-0.3,0.7l0.4,0.1c0-0.2,0.1-0.4,0.2-0.4c0.1-0.1,0.2-0.1,0.4-0.1c0.2,0,0.4,0.1,0.5,0.2c0.1,0.1,0.1,0.2,0.1,0.4
		l0,0.1C58.7,60.2,58.5,60.3,58.1,60.4z M58.9,60.8c0,0.2,0,0.4-0.1,0.5c-0.1,0.1-0.1,0.2-0.3,0.3c-0.1,0.1-0.2,0.1-0.4,0.1
		c-0.2,0-0.3,0-0.4-0.1c-0.1-0.1-0.1-0.2-0.1-0.3c0-0.1,0-0.2,0.1-0.2c0-0.1,0.1-0.1,0.2-0.2c0.1,0,0.2-0.1,0.4-0.1
		c0.3-0.1,0.5-0.1,0.7-0.2V60.8z"/>
	<rect x="61.3" y="58" class="st0" width="0.4" height="4"/>
	<path class="st0" d="M62.8,60.4c0-0.4,0.1-0.6,0.2-0.7c0.1-0.1,0.3-0.2,0.5-0.2c0.1,0,0.2,0,0.3,0.1c0.1,0.1,0.1,0.1,0.2,0.2
		c0,0.1,0.1,0.3,0.1,0.5V62h0.4v-1.8c0-0.3,0-0.5,0-0.6c0-0.1-0.1-0.2-0.1-0.3c-0.1-0.1-0.2-0.1-0.3-0.2c-0.1,0-0.2-0.1-0.4-0.1
		c-0.2,0-0.3,0-0.4,0.1c-0.1,0.1-0.2,0.2-0.3,0.4v-0.4h-0.4V62h0.4V60.4z"/>
	<path class="st0" d="M65.9,61.7c-0.2,0-0.3-0.1-0.4-0.2c-0.1-0.1-0.2-0.3-0.2-0.5l-0.4,0.1c0.1,0.6,0.4,0.9,1,0.9
		c0.3,0,0.5-0.1,0.7-0.3c0.2-0.2,0.3-0.4,0.3-0.7c0-0.2,0-0.3-0.1-0.4c-0.1-0.1-0.1-0.2-0.2-0.3c-0.1-0.1-0.3-0.1-0.6-0.3
		c-0.2-0.1-0.4-0.1-0.4-0.2c-0.1-0.1-0.1-0.1-0.1-0.3c0-0.1,0-0.2,0.1-0.3c0.1-0.1,0.2-0.1,0.4-0.1c0.3,0,0.5,0.2,0.5,0.5l0.4-0.1
		c0-0.2-0.1-0.4-0.1-0.5c-0.1-0.1-0.2-0.2-0.3-0.3c-0.1-0.1-0.3-0.1-0.5-0.1c-0.3,0-0.5,0.1-0.7,0.2c-0.2,0.2-0.2,0.4-0.2,0.6
		c0,0.1,0,0.3,0.1,0.4c0.1,0.1,0.1,0.2,0.2,0.3c0.1,0.1,0.3,0.1,0.6,0.2c0.2,0.1,0.4,0.1,0.4,0.2c0.1,0.1,0.1,0.2,0.1,0.3
		c0,0.1,0,0.2-0.1,0.3C66.2,61.6,66,61.7,65.9,61.7z"/>
	<polygon class="st0" points="66,58.8 66.5,58 66.1,58 65.8,58.5 65.6,58 65.1,58 65.6,58.8 	"/>
	<path class="st0" d="M67.4,61.2c0,0.3,0,0.5,0,0.6c0,0.1,0.1,0.2,0.2,0.2c0.1,0.1,0.2,0.1,0.3,0.1c0.1,0,0.2,0,0.3,0l-0.1-0.4
		c-0.1,0-0.1,0-0.2,0c-0.1,0-0.2,0-0.2-0.1c0,0,0-0.1,0-0.3v-1.7h0.4v-0.4h-0.4v-1l-0.4,0.3v0.7h-0.3v0.4h0.3V61.2z"/>
	<rect x="68.6" y="59.1" class="st0" width="0.4" height="2.9"/>
	<rect x="68.6" y="58" class="st0" width="0.4" height="0.6"/>
	<path class="st0" d="M69.7,61.2c0,0.3,0,0.5,0,0.6c0,0.1,0.1,0.2,0.2,0.2c0.1,0.1,0.2,0.1,0.3,0.1c0.1,0,0.2,0,0.3,0l-0.1-0.4
		c-0.1,0-0.1,0-0.2,0c-0.1,0-0.2,0-0.2-0.1c0,0,0-0.1,0-0.3v-1.7h0.4v-0.4h-0.4v-1l-0.4,0.3v0.7h-0.3v0.4h0.3V61.2z"/>
	<path class="st0" d="M71.2,61.9c0.1,0.1,0.3,0.2,0.5,0.2c0.2,0,0.3,0,0.4-0.1c0.1-0.1,0.2-0.2,0.3-0.4V62h0.4v-2.9h-0.4v1.6
		c0,0.4-0.1,0.6-0.2,0.8c-0.1,0.2-0.3,0.2-0.5,0.2c-0.1,0-0.2,0-0.3-0.1c-0.1-0.1-0.1-0.1-0.2-0.2c0-0.1,0-0.3,0-0.6v-1.6h-0.4v1.8
		c0,0.3,0,0.5,0.1,0.6C71,61.7,71,61.8,71.2,61.9z"/>
	<path class="st0" d="M73.5,61.2c0,0.3,0,0.5,0,0.6c0,0.1,0.1,0.2,0.2,0.2c0.1,0.1,0.2,0.1,0.3,0.1c0.1,0,0.2,0,0.3,0l-0.1-0.4
		c-0.1,0-0.1,0-0.2,0c-0.1,0-0.2,0-0.2-0.1c0,0,0-0.1,0-0.3v-1.7h0.4v-0.4h-0.4v-1l-0.4,0.3v0.7h-0.3v0.4h0.3V61.2z"/>
	<path class="st0" d="M76.3,62h0.4c-0.1-0.1-0.1-0.2-0.1-0.3c0-0.1,0-0.4,0-0.9v-0.7c0-0.3,0-0.5-0.1-0.6c0-0.1-0.1-0.3-0.3-0.3
		c-0.1-0.1-0.3-0.1-0.6-0.1c-0.3,0-0.6,0.1-0.7,0.2c-0.2,0.1-0.3,0.4-0.3,0.7L75,60c0-0.2,0.1-0.4,0.2-0.4c0.1-0.1,0.2-0.1,0.4-0.1
		c0.2,0,0.4,0.1,0.5,0.2c0.1,0.1,0.1,0.2,0.1,0.4l0,0.1c-0.2,0.1-0.4,0.1-0.7,0.2c-0.2,0-0.4,0.1-0.5,0.2c-0.1,0.1-0.2,0.2-0.3,0.3
		c-0.1,0.1-0.1,0.3-0.1,0.4c0,0.3,0.1,0.5,0.2,0.6c0.1,0.1,0.3,0.2,0.6,0.2c0.2,0,0.3,0,0.5-0.1c0.1-0.1,0.3-0.2,0.4-0.3
		C76.3,61.8,76.3,61.9,76.3,62z M76.2,60.8c0,0.2,0,0.4-0.1,0.5c-0.1,0.1-0.1,0.2-0.3,0.3c-0.1,0.1-0.2,0.1-0.4,0.1
		c-0.2,0-0.3,0-0.4-0.1C75,61.5,75,61.4,75,61.3c0-0.1,0-0.2,0.1-0.2c0-0.1,0.1-0.1,0.2-0.2c0.1,0,0.2-0.1,0.4-0.1
		c0.3-0.1,0.5-0.1,0.7-0.2V60.8z"/>
	<path class="st0" d="M44.2,67.1h-1.1c-0.2,0-0.3,0-0.5,0l0.2-0.3l1.3-1.8v-0.3h-1.9v0.4h1c0.1,0,0.3,0,0.5,0l-1.5,2.1v0.4h2.1V67.1
		z"/>
	<path class="st0" d="M45.3,67.6c0.2,0,0.3,0,0.5-0.1c0.1-0.1,0.3-0.2,0.4-0.3c0,0.1,0,0.3,0.1,0.4h0.4c-0.1-0.1-0.1-0.2-0.1-0.3
		c0-0.1,0-0.4,0-0.9v-0.7c0-0.3,0-0.5-0.1-0.6c0-0.1-0.1-0.3-0.3-0.3c-0.1-0.1-0.3-0.1-0.6-0.1c-0.3,0-0.6,0.1-0.7,0.2
		c-0.2,0.1-0.3,0.4-0.3,0.7l0.4,0.1c0-0.2,0.1-0.4,0.2-0.4c0.1-0.1,0.2-0.1,0.4-0.1c0.2,0,0.4,0.1,0.5,0.2c0.1,0.1,0.1,0.2,0.1,0.4
		l0,0.1c-0.2,0.1-0.4,0.1-0.7,0.2c-0.2,0-0.4,0.1-0.5,0.2c-0.1,0.1-0.2,0.2-0.3,0.3c-0.1,0.1-0.1,0.3-0.1,0.4c0,0.3,0.1,0.5,0.2,0.6
		C44.8,67.6,45,67.6,45.3,67.6z M44.9,66.6c0-0.1,0.1-0.1,0.2-0.2c0.1,0,0.2-0.1,0.4-0.1c0.3-0.1,0.5-0.1,0.7-0.2v0.2
		c0,0.2,0,0.4-0.1,0.5c-0.1,0.1-0.1,0.2-0.3,0.3c-0.1,0.1-0.2,0.1-0.4,0.1c-0.2,0-0.3,0-0.4-0.1c-0.1-0.1-0.1-0.2-0.1-0.3
		C44.9,66.7,44.9,66.6,44.9,66.6z"/>
	<path class="st0" d="M50.3,67.6v-1.8c0-0.3,0-0.5,0-0.6c0-0.1-0.1-0.2-0.1-0.3c-0.1-0.1-0.2-0.1-0.3-0.2c-0.1-0.1-0.2-0.1-0.4-0.1
		c-0.2,0-0.3,0-0.4,0.1c-0.1,0.1-0.2,0.2-0.3,0.4v-0.4h-0.4v2.9h0.4V66c0-0.4,0.1-0.6,0.2-0.7c0.1-0.1,0.3-0.2,0.5-0.2
		c0.1,0,0.2,0,0.3,0.1c0.1,0.1,0.1,0.1,0.2,0.2c0,0.1,0.1,0.3,0.1,0.5v1.8H50.3z"/>
	<path class="st0" d="M52.9,67.6v-2.9h-0.4v1.6c0,0.4-0.1,0.6-0.2,0.8c-0.1,0.2-0.3,0.2-0.5,0.2c-0.1,0-0.2,0-0.3-0.1
		c-0.1-0.1-0.1-0.1-0.2-0.2c0-0.1,0-0.3,0-0.6v-1.6H51v1.8c0,0.3,0,0.5,0.1,0.6c0,0.2,0.1,0.3,0.3,0.4c0.1,0.1,0.3,0.2,0.5,0.2
		c0.2,0,0.3,0,0.4-0.1c0.1-0.1,0.2-0.2,0.3-0.4v0.4H52.9z"/>
	<path class="st0" d="M54.4,67.1c-0.1,0-0.1,0-0.2,0c-0.1,0-0.2,0-0.2-0.1c0,0,0-0.1,0-0.3v-1.7h0.4v-0.4H54v-1l-0.4,0.3v0.7h-0.3
		v0.4h0.3v1.7c0,0.3,0,0.5,0,0.6c0,0.1,0.1,0.2,0.2,0.2c0.1,0.1,0.2,0.1,0.3,0.1c0.1,0,0.2,0,0.3,0L54.4,67.1z"/>
	<path class="st0" d="M55.7,65.1c0.1,0,0.2,0,0.3,0.1l0.1-0.5c-0.1-0.1-0.3-0.2-0.4-0.2c-0.1,0-0.2,0-0.3,0.1
		c-0.1,0.1-0.2,0.2-0.3,0.4v-0.4h-0.4v2.9h0.4v-1.5c0-0.2,0-0.4,0.1-0.6c0-0.1,0.1-0.2,0.2-0.3C55.5,65.1,55.6,65.1,55.7,65.1z"/>
	<rect x="56.3" y="63.6" class="st0" width="0.4" height="0.6"/>
	<rect x="56.3" y="64.7" class="st0" width="0.4" height="2.9"/>
	<path class="st0" d="M58.3,65c0.1,0,0.2,0,0.3,0.1c0.1,0.1,0.2,0.2,0.2,0.4l0.4-0.1c0-0.3-0.2-0.5-0.3-0.7
		c-0.2-0.2-0.4-0.2-0.6-0.2c-0.3,0-0.6,0.1-0.8,0.4c-0.2,0.3-0.3,0.6-0.3,1.1c0,0.5,0.1,0.9,0.3,1.1c0.2,0.3,0.5,0.4,0.8,0.4
		c0.3,0,0.5-0.1,0.7-0.3c0.2-0.2,0.3-0.4,0.3-0.8l-0.4-0.1c0,0.2-0.1,0.4-0.2,0.5c-0.1,0.1-0.2,0.2-0.4,0.2c-0.2,0-0.4-0.1-0.5-0.3
		c-0.1-0.2-0.2-0.5-0.2-0.9c0-0.4,0.1-0.7,0.2-0.8C58,65.1,58.1,65,58.3,65z"/>
	<rect x="59.6" y="63.6" class="st0" width="0.4" height="0.6"/>
	<rect x="59.6" y="64.7" class="st0" width="0.4" height="2.9"/>
	<path class="st0" d="M61.6,67.6c0.3,0,0.6-0.1,0.8-0.4c0.2-0.3,0.3-0.6,0.3-1.2c0-0.5-0.1-0.8-0.3-1.1c-0.2-0.3-0.5-0.4-0.8-0.4
		c-0.3,0-0.6,0.1-0.8,0.4c-0.2,0.3-0.3,0.6-0.3,1.1c0,0.5,0.1,0.9,0.3,1.1C61,67.5,61.3,67.6,61.6,67.6z M61.1,65.3
		c0.1-0.2,0.3-0.3,0.5-0.3c0.2,0,0.4,0.1,0.5,0.3c0.1,0.2,0.2,0.5,0.2,0.8c0,0.4-0.1,0.6-0.2,0.8c-0.1,0.2-0.3,0.3-0.5,0.3
		c-0.2,0-0.4-0.1-0.5-0.3c-0.1-0.2-0.2-0.5-0.2-0.8C60.9,65.7,61,65.5,61.1,65.3z"/>
	<path class="st0" d="M63.9,64.7c-0.1,0.1-0.2,0.2-0.3,0.4v-0.4h-0.4v2.9h0.4V66c0-0.4,0.1-0.6,0.2-0.7c0.1-0.1,0.3-0.2,0.5-0.2
		c0.1,0,0.2,0,0.3,0.1c0.1,0.1,0.1,0.1,0.2,0.2c0,0.1,0.1,0.3,0.1,0.5v1.8h0.4v-1.8c0-0.3,0-0.5,0-0.6c0-0.1-0.1-0.2-0.1-0.3
		c-0.1-0.1-0.2-0.1-0.3-0.2c-0.1-0.1-0.2-0.1-0.4-0.1C64.2,64.6,64,64.6,63.9,64.7z"/>
	<rect x="65.8" y="63.6" class="st0" width="0.4" height="0.6"/>
	<rect x="65.8" y="64.7" class="st0" width="0.4" height="2.9"/>
	<path class="st0" d="M66.8,65.8c0.1,0.1,0.1,0.2,0.2,0.3c0.1,0.1,0.3,0.1,0.6,0.2c0.2,0.1,0.4,0.1,0.4,0.2c0.1,0.1,0.1,0.2,0.1,0.3
		c0,0.1,0,0.2-0.1,0.3c-0.1,0.1-0.2,0.1-0.4,0.1c-0.2,0-0.3-0.1-0.4-0.1C67.1,67,67,66.8,67,66.6l-0.4,0.1c0.1,0.6,0.4,0.9,1,0.9
		c0.3,0,0.5-0.1,0.7-0.3c0.2-0.2,0.3-0.4,0.3-0.7c0-0.1,0-0.3-0.1-0.4c-0.1-0.1-0.1-0.2-0.2-0.3c-0.1-0.1-0.3-0.1-0.6-0.3
		c-0.2-0.1-0.4-0.1-0.4-0.2c-0.1-0.1-0.1-0.1-0.1-0.3c0-0.1,0-0.2,0.1-0.3c0.1-0.1,0.2-0.1,0.4-0.1c0.3,0,0.5,0.2,0.5,0.5l0.4-0.1
		c0-0.2-0.1-0.4-0.1-0.5c-0.1-0.1-0.2-0.2-0.3-0.3c-0.1-0.1-0.3-0.1-0.5-0.1c-0.3,0-0.5,0.1-0.7,0.2c-0.2,0.2-0.2,0.4-0.2,0.6
		C66.7,65.6,66.7,65.7,66.8,65.8z"/>
	<path class="st0" d="M68.9,65.1h0.3v1.7c0,0.3,0,0.5,0,0.6c0,0.1,0.1,0.2,0.2,0.2c0.1,0.1,0.2,0.1,0.3,0.1c0.1,0,0.2,0,0.3,0
		L70,67.1c-0.1,0-0.1,0-0.2,0c-0.1,0-0.2,0-0.2-0.1c0,0,0-0.1,0-0.3v-1.7H70v-0.4h-0.4v-1l-0.4,0.3v0.7h-0.3V65.1z"/>
	<rect x="70.3" y="63.6" class="st0" width="0.4" height="0.6"/>
	<rect x="70.3" y="64.7" class="st0" width="0.4" height="2.9"/>
	<polygon class="st0" points="71.4,63.6 71.4,67.6 71.8,67.6 71.8,66.4 72.1,66.1 72.9,67.6 73.3,67.6 72.3,65.7 73.3,64.7 
		72.7,64.7 71.8,65.9 71.8,63.6 	"/>
	<path class="st0" d="M74.6,64.6c-0.3,0-0.6,0.1-0.8,0.4c-0.2,0.3-0.3,0.6-0.3,1.1c0,0.5,0.1,0.9,0.3,1.1c0.2,0.3,0.5,0.4,0.8,0.4
		c0.3,0,0.6-0.1,0.8-0.4c0.2-0.3,0.3-0.6,0.3-1.2c0-0.5-0.1-0.8-0.3-1.1C75.2,64.7,74.9,64.6,74.6,64.6z M75.1,67
		c-0.1,0.2-0.3,0.3-0.5,0.3c-0.2,0-0.4-0.1-0.5-0.3c-0.1-0.2-0.2-0.5-0.2-0.8c0-0.4,0.1-0.6,0.2-0.8c0.1-0.2,0.3-0.3,0.5-0.3
		c0.2,0,0.4,0.1,0.5,0.3c0.1,0.2,0.2,0.5,0.2,0.8C75.3,66.5,75.3,66.8,75.1,67z"/>
	<path class="st0" d="M79.4,67.1h-1.1c-0.2,0-0.3,0-0.5,0l0.2-0.3l1.3-1.8v-0.3h-1.9v0.4h1c0.1,0,0.3,0,0.5,0l-1.5,2.1v0.4h2.1V67.1
		z"/>
	<path class="st0" d="M81.7,66.4v-0.7c0-0.3,0-0.5-0.1-0.6c0-0.1-0.1-0.3-0.3-0.3c-0.1-0.1-0.3-0.1-0.6-0.1c-0.3,0-0.6,0.1-0.7,0.2
		c-0.2,0.1-0.3,0.4-0.3,0.7l0.4,0.1c0-0.2,0.1-0.4,0.2-0.4c0.1-0.1,0.2-0.1,0.4-0.1c0.2,0,0.4,0.1,0.5,0.2c0.1,0.1,0.1,0.2,0.1,0.4
		l0,0.1c-0.2,0.1-0.4,0.1-0.7,0.2c-0.2,0-0.4,0.1-0.5,0.2c-0.1,0.1-0.2,0.2-0.3,0.3c-0.1,0.1-0.1,0.3-0.1,0.4c0,0.3,0.1,0.5,0.2,0.6
		c0.1,0.1,0.3,0.2,0.6,0.2c0.2,0,0.3,0,0.5-0.1c0.1-0.1,0.3-0.2,0.4-0.3c0,0.1,0,0.3,0.1,0.4h0.4c-0.1-0.1-0.1-0.2-0.1-0.3
		C81.7,67.1,81.7,66.8,81.7,66.4z M81.3,66.3c0,0.2,0,0.4-0.1,0.5c-0.1,0.1-0.1,0.2-0.3,0.3c-0.1,0.1-0.2,0.1-0.4,0.1
		c-0.2,0-0.3,0-0.4-0.1c-0.1-0.1-0.1-0.2-0.1-0.3c0-0.1,0-0.2,0.1-0.2c0-0.1,0.1-0.1,0.2-0.2c0.1,0,0.2-0.1,0.4-0.1
		c0.3-0.1,0.5-0.1,0.7-0.2V66.3z"/>
	<rect x="42.3" y="70.2" class="st0" width="0.4" height="2.9"/>
	<rect x="42.3" y="69.1" class="st0" width="0.4" height="0.6"/>
	<path class="st0" d="M44.8,70.9c0,0.1,0.1,0.3,0.1,0.5v1.8h0.4v-1.8c0-0.3,0-0.5,0-0.6c0-0.1-0.1-0.2-0.1-0.3
		c-0.1-0.1-0.2-0.1-0.3-0.2c-0.1,0-0.2-0.1-0.4-0.1c-0.2,0-0.3,0-0.4,0.1c-0.1,0.1-0.2,0.2-0.3,0.4v-0.4h-0.4v2.9h0.4v-1.6
		c0-0.4,0.1-0.6,0.2-0.7c0.1-0.1,0.3-0.2,0.5-0.2c0.1,0,0.2,0,0.3,0.1C44.7,70.7,44.8,70.8,44.8,70.9z"/>
	<path class="st0" d="M46.8,70.1c-0.3,0-0.6,0.1-0.8,0.4c-0.2,0.3-0.3,0.6-0.3,1.1c0,0.5,0.1,0.9,0.3,1.1c0.2,0.3,0.5,0.4,0.8,0.4
		c0.3,0,0.6-0.1,0.8-0.4c0.2-0.3,0.3-0.6,0.3-1.2c0-0.5-0.1-0.8-0.3-1.1C47.4,70.3,47.1,70.1,46.8,70.1z M47.3,72.5
		c-0.1,0.2-0.3,0.3-0.5,0.3c-0.2,0-0.4-0.1-0.5-0.3c-0.1-0.2-0.2-0.5-0.2-0.8c0-0.4,0.1-0.7,0.2-0.8c0.1-0.2,0.3-0.3,0.5-0.3
		c0.2,0,0.4,0.1,0.5,0.3c0.1,0.2,0.2,0.5,0.2,0.8C47.5,72,47.5,72.3,47.3,72.5z"/>
	<path class="st0" d="M50.4,70.2h-0.4L49.4,72c-0.1,0.2-0.1,0.4-0.1,0.6c0-0.2-0.1-0.4-0.2-0.6l-0.5-1.7h-0.4l0.9,2.9h0.4L50.4,70.2
		z"/>
	<path class="st0" d="M52.7,72.8c0-0.1,0-0.4,0-0.9v-0.7c0-0.3,0-0.5-0.1-0.6c0-0.1-0.1-0.3-0.3-0.3c-0.1-0.1-0.3-0.1-0.6-0.1
		c-0.3,0-0.6,0.1-0.7,0.2c-0.2,0.1-0.3,0.4-0.3,0.7l0.4,0.1c0-0.2,0.1-0.4,0.2-0.4c0.1-0.1,0.2-0.1,0.4-0.1c0.2,0,0.4,0.1,0.5,0.2
		c0.1,0.1,0.1,0.2,0.1,0.4l0,0.1c-0.2,0.1-0.4,0.1-0.7,0.2c-0.2,0-0.4,0.1-0.5,0.2c-0.1,0.1-0.2,0.2-0.3,0.3
		c-0.1,0.1-0.1,0.3-0.1,0.4c0,0.3,0.1,0.5,0.2,0.6c0.1,0.1,0.3,0.2,0.6,0.2c0.2,0,0.3,0,0.5-0.1c0.1-0.1,0.3-0.2,0.4-0.3
		c0,0.1,0,0.3,0.1,0.4h0.4C52.7,73,52.7,72.9,52.7,72.8z M52.2,71.8c0,0.2,0,0.4-0.1,0.5c-0.1,0.1-0.1,0.2-0.3,0.3s-0.2,0.1-0.4,0.1
		c-0.2,0-0.3,0-0.4-0.1C51,72.6,51,72.5,51,72.3c0-0.1,0-0.2,0.1-0.2c0-0.1,0.1-0.1,0.2-0.2c0.1,0,0.2-0.1,0.4-0.1
		c0.3,0,0.5-0.1,0.7-0.2V71.8z"/>
	<path class="st0" d="M53.4,72.8c0,0.1,0.1,0.2,0.2,0.2c0.1,0.1,0.2,0.1,0.3,0.1c0.1,0,0.2,0,0.3,0l-0.1-0.4c-0.1,0-0.1,0-0.2,0
		c-0.1,0-0.2,0-0.2-0.1c0,0,0-0.1,0-0.3v-1.7h0.4v-0.4h-0.4v-1l-0.4,0.3v0.7h-0.3v0.4h0.3v1.7C53.3,72.5,53.4,72.7,53.4,72.8z"/>
	<rect x="54.5" y="69.1" class="st0" width="0.4" height="0.6"/>
	<rect x="54.5" y="70.2" class="st0" width="0.4" height="2.9"/>
	<path class="st0" d="M57.5,70.2h-0.4L56.6,72c-0.1,0.2-0.1,0.4-0.1,0.6c0-0.2-0.1-0.4-0.2-0.6l-0.5-1.7h-0.4l0.9,2.9h0.4L57.5,70.2
		z"/>
	<path class="st0" d="M59,70.1c-0.2,0-0.3,0-0.4,0.1c-0.1,0.1-0.2,0.2-0.3,0.4v-0.4h-0.4v2.9h0.4v-1.6c0-0.4,0.1-0.6,0.2-0.7
		c0.1-0.1,0.3-0.2,0.5-0.2c0.1,0,0.2,0,0.3,0.1c0.1,0.1,0.1,0.1,0.2,0.2c0,0.1,0.1,0.3,0.1,0.5v1.8h0.4v-1.8c0-0.3,0-0.5,0-0.6
		c0-0.1-0.1-0.2-0.1-0.3c-0.1-0.1-0.2-0.1-0.3-0.2C59.2,70.2,59.1,70.1,59,70.1z"/>
	<path class="st0" d="M62.2,70.5c-0.2-0.3-0.5-0.4-0.8-0.4c-0.3,0-0.6,0.1-0.8,0.4c-0.2,0.3-0.3,0.6-0.3,1.1c0,0.5,0.1,0.9,0.3,1.1
		c0.2,0.3,0.5,0.4,0.8,0.4c0.3,0,0.6-0.1,0.8-0.4c0.2-0.3,0.3-0.6,0.3-1.2C62.5,71.1,62.4,70.8,62.2,70.5z M61.9,72.5
		c-0.1,0.2-0.3,0.3-0.5,0.3c-0.2,0-0.4-0.1-0.5-0.3c-0.1-0.2-0.2-0.5-0.2-0.8c0-0.4,0.1-0.7,0.2-0.8c0.1-0.2,0.3-0.3,0.5-0.3
		c0.2,0,0.4,0.1,0.5,0.3c0.1,0.2,0.2,0.5,0.2,0.8C62.1,72,62,72.3,61.9,72.5z"/>
	<path class="st0" d="M64.5,71.6c-0.1-0.1-0.3-0.1-0.6-0.3c-0.2-0.1-0.4-0.1-0.4-0.2c-0.1-0.1-0.1-0.1-0.1-0.3c0-0.1,0-0.2,0.1-0.3
		c0.1-0.1,0.2-0.1,0.4-0.1c0.3,0,0.5,0.2,0.5,0.5l0.4-0.1c0-0.2-0.1-0.4-0.1-0.5c-0.1-0.1-0.2-0.2-0.3-0.3c-0.1-0.1-0.3-0.1-0.5-0.1
		c-0.3,0-0.5,0.1-0.7,0.2c-0.2,0.2-0.2,0.4-0.2,0.6c0,0.1,0,0.3,0.1,0.4c0.1,0.1,0.1,0.2,0.2,0.3c0.1,0.1,0.3,0.1,0.6,0.2
		c0.2,0.1,0.4,0.1,0.4,0.2c0.1,0.1,0.1,0.2,0.1,0.3c0,0.1,0,0.2-0.1,0.3c-0.1,0.1-0.2,0.1-0.4,0.1c-0.2,0-0.3-0.1-0.4-0.2
		c-0.1-0.1-0.2-0.3-0.2-0.5l-0.4,0.1c0.1,0.6,0.4,0.9,1,0.9c0.3,0,0.5-0.1,0.7-0.3c0.2-0.2,0.3-0.4,0.3-0.7c0-0.2,0-0.3-0.1-0.4
		C64.6,71.8,64.6,71.7,64.5,71.6z"/>
	<path class="st0" d="M66.1,72.7c-0.1,0-0.1,0-0.2,0c-0.1,0-0.2,0-0.2-0.1c0,0,0-0.1,0-0.3v-1.7h0.4v-0.4h-0.4v-1l-0.4,0.3v0.7H65
		v0.4h0.3v1.7c0,0.3,0,0.5,0,0.6c0,0.1,0.1,0.2,0.2,0.2c0.1,0.1,0.2,0.1,0.3,0.1c0.1,0,0.2,0,0.3,0L66.1,72.7z"/>
	<path class="st0" d="M68.8,72c-0.1,0.2-0.1,0.4-0.1,0.6c0-0.2-0.1-0.4-0.2-0.6L68,70.2h-0.4l0.9,2.9h0.4l0.9-2.9h-0.4L68.8,72z"/>
	<path class="st0" d="M72.9,71.6c-0.1-0.1-0.3-0.1-0.6-0.3c-0.2-0.1-0.4-0.1-0.4-0.2c-0.1-0.1-0.1-0.1-0.1-0.3c0-0.1,0-0.2,0.1-0.3
		c0.1-0.1,0.2-0.1,0.4-0.1c0.3,0,0.5,0.2,0.5,0.5l0.4-0.1c0-0.2-0.1-0.4-0.1-0.5c-0.1-0.1-0.2-0.2-0.3-0.3c-0.1-0.1-0.3-0.1-0.5-0.1
		c-0.3,0-0.5,0.1-0.7,0.2c-0.2,0.2-0.2,0.4-0.2,0.6c0,0.1,0,0.3,0.1,0.4c0.1,0.1,0.1,0.2,0.2,0.3c0.1,0.1,0.3,0.1,0.6,0.2
		c0.2,0.1,0.4,0.1,0.4,0.2c0.1,0.1,0.1,0.2,0.1,0.3c0,0.1,0,0.2-0.1,0.3c-0.1,0.1-0.2,0.1-0.4,0.1c-0.2,0-0.3-0.1-0.4-0.2
		c-0.1-0.1-0.2-0.3-0.2-0.5l-0.4,0.1c0.1,0.6,0.4,0.9,1,0.9c0.3,0,0.5-0.1,0.7-0.3c0.2-0.2,0.3-0.4,0.3-0.7c0-0.2,0-0.3-0.1-0.4
		C73.1,71.8,73,71.7,72.9,71.6z"/>
	<polygon class="st0" points="75.6,70.2 75,70.2 74.1,71.4 74.1,69.1 73.7,69.1 73.7,73.1 74.1,73.1 74.1,72 74.4,71.6 75.2,73.1 
		75.6,73.1 74.6,71.3 	"/>
	<path class="st0" d="M77.5,71.8c0,0.4-0.1,0.6-0.2,0.8c-0.1,0.2-0.3,0.2-0.5,0.2c-0.1,0-0.2,0-0.3-0.1c-0.1-0.1-0.1-0.1-0.2-0.2
		c0-0.1,0-0.3,0-0.6v-1.6H76V72c0,0.3,0,0.5,0.1,0.6c0,0.2,0.1,0.3,0.3,0.4c0.1,0.1,0.3,0.2,0.5,0.2c0.2,0,0.3,0,0.4-0.1
		c0.1-0.1,0.2-0.2,0.3-0.4v0.4h0.4v-2.9h-0.4V71.8z"/>
	<path class="st0" d="M80.1,70.3c-0.1-0.1-0.3-0.2-0.5-0.2c-0.1,0-0.3,0-0.4,0.1c-0.1,0.1-0.2,0.2-0.3,0.3v-0.4h-0.4v4h0.4v-1.4
		c0.1,0.1,0.2,0.2,0.3,0.3c0.1,0.1,0.2,0.1,0.3,0.1c0.3,0,0.5-0.1,0.7-0.4c0.2-0.3,0.3-0.6,0.3-1.1c0-0.3,0-0.6-0.1-0.8
		C80.4,70.6,80.2,70.4,80.1,70.3z M80,72.5c-0.1,0.2-0.3,0.3-0.4,0.3c-0.2,0-0.3-0.1-0.5-0.3c-0.1-0.2-0.2-0.5-0.2-0.8
		c0-0.4,0.1-0.7,0.2-0.9c0.1-0.2,0.3-0.3,0.4-0.3c0.2,0,0.3,0.1,0.5,0.3c0.1,0.2,0.2,0.5,0.2,0.8C80.2,72,80.1,72.3,80,72.5z"/>
	<rect x="81.1" y="69.1" class="st0" width="0.4" height="0.6"/>
	<rect x="81.1" y="70.2" class="st0" width="0.4" height="2.9"/>
	<path class="st0" d="M83.8,70.4c-0.1-0.1-0.2-0.1-0.3-0.2c-0.1,0-0.2-0.1-0.4-0.1c-0.2,0-0.3,0-0.4,0.1c-0.1,0.1-0.2,0.2-0.3,0.4
		v-0.4h-0.4v2.9h0.4v-1.6c0-0.4,0.1-0.6,0.2-0.7c0.1-0.1,0.3-0.2,0.5-0.2c0.1,0,0.2,0,0.3,0.1c0.1,0.1,0.1,0.1,0.2,0.2
		c0,0.1,0.1,0.3,0.1,0.5v1.8H84v-1.8c0-0.3,0-0.5,0-0.6C83.9,70.6,83.9,70.5,83.8,70.4z"/>
	<rect x="84.6" y="69.1" class="st0" width="0.4" height="0.6"/>
	<rect x="84.6" y="70.2" class="st0" width="0.4" height="2.9"/>
	<path class="st0" d="M43.8,77.1c-0.1-0.1-0.3-0.1-0.6-0.3c-0.2-0.1-0.4-0.1-0.4-0.2c-0.1-0.1-0.1-0.1-0.1-0.3c0-0.1,0-0.2,0.1-0.3
		c0.1-0.1,0.2-0.1,0.4-0.1c0.3,0,0.5,0.2,0.5,0.5l0.4-0.1c0-0.2-0.1-0.4-0.1-0.5c-0.1-0.1-0.2-0.2-0.3-0.3c-0.1-0.1-0.3-0.1-0.5-0.1
		c-0.3,0-0.5,0.1-0.7,0.2c-0.2,0.2-0.2,0.4-0.2,0.6c0,0.1,0,0.3,0.1,0.4c0.1,0.1,0.1,0.2,0.2,0.3c0.1,0.1,0.3,0.1,0.6,0.2
		c0.2,0.1,0.4,0.1,0.4,0.2c0.1,0.1,0.1,0.2,0.1,0.3c0,0.1,0,0.2-0.1,0.3c-0.1,0.1-0.2,0.1-0.4,0.1c-0.2,0-0.3,0-0.4-0.2
		c-0.1-0.1-0.2-0.3-0.2-0.5l-0.4,0.1c0.1,0.6,0.4,0.9,1,0.9c0.3,0,0.5-0.1,0.7-0.3c0.2-0.2,0.3-0.4,0.3-0.7c0-0.2,0-0.3-0.1-0.4
		C44,77.3,43.9,77.2,43.8,77.1z"/>
	<path class="st0" d="M46.3,76.1c-0.2-0.3-0.5-0.4-0.8-0.4c-0.3,0-0.6,0.1-0.8,0.4c-0.2,0.3-0.3,0.6-0.3,1.1c0,0.5,0.1,0.9,0.3,1.1
		c0.2,0.3,0.5,0.4,0.8,0.4c0.3,0,0.6-0.1,0.8-0.4c0.2-0.3,0.3-0.6,0.3-1.2C46.7,76.7,46.6,76.3,46.3,76.1z M46,78
		c-0.1,0.2-0.3,0.3-0.5,0.3c-0.2,0-0.4-0.1-0.5-0.3c-0.1-0.2-0.2-0.5-0.2-0.8c0-0.4,0.1-0.7,0.2-0.8c0.1-0.2,0.3-0.3,0.5-0.3
		c0.2,0,0.4,0.1,0.5,0.3c0.1,0.2,0.2,0.5,0.2,0.8C46.3,77.6,46.2,77.9,46,78z"/>
	<rect x="47.1" y="74.6" class="st0" width="0.4" height="0.6"/>
	<path class="st0" d="M47.1,78.8c0,0.3,0,0.4-0.1,0.5c0,0.1-0.1,0.1-0.2,0.1c0,0-0.1,0-0.2,0l-0.1,0.4c0.1,0,0.2,0.1,0.3,0.1
		c0.2,0,0.3-0.1,0.4-0.2c0.1-0.1,0.2-0.4,0.2-0.8v-3.1h-0.4V78.8z"/>
	<rect x="48.2" y="75.8" class="st0" width="0.4" height="2.9"/>
	<rect x="48.2" y="74.6" class="st0" width="0.4" height="0.6"/>
	<path class="st0" d="M50.9,76c-0.1-0.1-0.2-0.1-0.3-0.2c-0.1-0.1-0.2-0.1-0.4-0.1c-0.2,0-0.3,0-0.4,0.1c-0.1,0.1-0.2,0.2-0.3,0.4
		v-0.4h-0.4v2.9h0.4v-1.6c0-0.4,0.1-0.6,0.2-0.7c0.1-0.1,0.3-0.2,0.5-0.2c0.1,0,0.2,0,0.3,0.1c0.1,0.1,0.1,0.1,0.2,0.2
		c0,0.1,0.1,0.3,0.1,0.5v1.8h0.4v-1.8c0-0.3,0-0.5-0.1-0.6C51,76.1,51,76,50.9,76z"/>
	<rect x="51.7" y="74.6" class="st0" width="0.4" height="0.6"/>
	<rect x="51.7" y="75.8" class="st0" width="0.4" height="2.9"/>
	<path class="st0" d="M53.9,75.7c-0.1,0-0.3,0-0.4,0.1c-0.1,0.1-0.2,0.2-0.3,0.3v-1.4h-0.4v4h0.4v-1.6c0-0.4,0.1-0.6,0.2-0.7
		c0.1-0.1,0.3-0.2,0.4-0.2c0.2,0,0.3,0.1,0.4,0.2c0.1,0.1,0.1,0.3,0.1,0.5v1.8h0.4v-1.8c0-0.4-0.1-0.7-0.2-0.9
		C54.3,75.8,54.1,75.7,53.9,75.7z"/>
	<rect x="56.6" y="74.6" class="st0" width="0.4" height="0.6"/>
	<rect x="56.6" y="75.8" class="st0" width="0.4" height="2.9"/>
	<path class="st0" d="M57.9,78.3l0.2-0.3l1.3-1.8v-0.3h-1.9v0.4h1c0.1,0,0.3,0,0.5,0l-1.5,2.1v0.4h2.1v-0.4h-1.1
		C58.2,78.2,58.1,78.2,57.9,78.3z"/>
	<path class="st0" d="M61.4,76.1c-0.1-0.1-0.2-0.2-0.3-0.3c-0.1-0.1-0.2-0.1-0.4-0.1c-0.2,0-0.4,0.1-0.5,0.2
		c-0.2,0.1-0.3,0.3-0.4,0.5c-0.1,0.2-0.1,0.5-0.1,0.8c0,0.5,0.1,0.9,0.3,1.1c0.2,0.3,0.4,0.4,0.7,0.4c0.1,0,0.3,0,0.4-0.1
		c0.1-0.1,0.2-0.2,0.3-0.3v0.4h0.4v-4h-0.4V76.1z M61.3,78.1c-0.1,0.2-0.3,0.3-0.4,0.3c-0.2,0-0.3-0.1-0.5-0.3
		c-0.1-0.2-0.2-0.5-0.2-0.8c0-0.4,0.1-0.7,0.2-0.8c0.1-0.2,0.3-0.3,0.4-0.3c0.2,0,0.4,0.1,0.5,0.3c0.1,0.2,0.2,0.5,0.2,0.9
		C61.4,77.6,61.4,77.9,61.3,78.1z"/>
	<path class="st0" d="M63.4,75.7c-0.3,0-0.6,0.1-0.8,0.4c-0.2,0.3-0.3,0.6-0.3,1.1c0,0.5,0.1,0.9,0.3,1.1c0.2,0.3,0.5,0.4,0.8,0.4
		c0.3,0,0.5-0.1,0.7-0.2c0.2-0.2,0.3-0.4,0.4-0.7l-0.4-0.1c-0.1,0.4-0.3,0.6-0.6,0.6c-0.2,0-0.4-0.1-0.5-0.2
		c-0.1-0.2-0.2-0.4-0.2-0.7h1.8l0-0.1c0-0.5-0.1-0.9-0.3-1.1C64,75.8,63.7,75.7,63.4,75.7z M62.7,76.9c0-0.3,0.1-0.5,0.2-0.6
		c0.1-0.1,0.3-0.2,0.5-0.2c0.2,0,0.4,0.1,0.5,0.3c0.1,0.1,0.1,0.3,0.2,0.6H62.7z"/>
	<rect x="65" y="74.6" class="st0" width="0.4" height="4"/>
	<polygon class="st0" points="67.9,75.8 67.4,75.8 66.4,76.9 66.4,74.6 66,74.6 66,78.7 66.4,78.7 66.4,77.5 66.7,77.2 67.5,78.7 
		68,78.7 67,76.8 	"/>
	<path class="st0" d="M69.3,75.7c-0.3,0-0.6,0.1-0.8,0.4c-0.2,0.3-0.3,0.6-0.3,1.1c0,0.5,0.1,0.9,0.3,1.1c0.2,0.3,0.5,0.4,0.8,0.4
		c0.3,0,0.6-0.1,0.8-0.4c0.2-0.3,0.3-0.6,0.3-1.2c0-0.5-0.1-0.8-0.3-1.1C69.9,75.8,69.6,75.7,69.3,75.7z M69.8,78
		c-0.1,0.2-0.3,0.3-0.5,0.3c-0.2,0-0.4-0.1-0.5-0.3c-0.1-0.2-0.2-0.5-0.2-0.8c0-0.4,0.1-0.7,0.2-0.8c0.1-0.2,0.3-0.3,0.5-0.3
		c0.2,0,0.4,0.1,0.5,0.3c0.1,0.2,0.2,0.5,0.2,0.8C70,77.6,69.9,77.9,69.8,78z"/>
	<path class="st0" d="M71.9,77.5c-0.1,0.2-0.1,0.4-0.1,0.6c0-0.2-0.1-0.4-0.2-0.6L71,75.8h-0.4l0.9,2.9h0.4l0.9-2.9h-0.4L71.9,77.5z
		"/>
	<rect x="73.3" y="78.1" class="st0" width="0.5" height="0.6"/>
	<path class="st0" d="M45.9,51.8c1.6-1.5,3.5-1.3,4.9-2.9c1.1-1.3,0.3-4,1.1-5.9c0.7-1.6,2.6-2.5,3-4.3c0.4-1.7-1.3-3.5-1.2-5.2
		c0-1.5,1.2-3.1,1.4-4.4v-0.6v0c-0.5-2.5-2.6-3.6-3.3-5.1c-0.9-2,0-3.9-0.8-5.2c-1.2-1.8-3.7-2.1-4.9-3.3c-1.2-1.2-1.1-3.8-2.9-5
		c-1.1-0.7-2.3-0.8-3.3-0.8V0h-1.4v9.2c-0.4,0-0.8,0-1.1-0.2V0H19.2v8.1c-0.3,0.3-0.7,0.6-1.1,0.9V0h-1.7v9.6
		c-1.6,0.1-3.3-0.5-4.6,0.6c-1.7,1.5-1.6,3.6-2.5,4.5C8,16,5.6,16,4.5,17.8c-0.7,1.1-0.5,3-0.8,5.2c-0.2,1.7-3.2,2.5-3.5,4.6
		c-0.3,1.9,1.5,3.4,1.5,5.1c0,1.8-1.9,3.6-1.6,5.3c0.3,2.2,2.9,3.4,3.6,5c0.7,1.6-0.3,3.9,0.7,5.3c1,1.5,3.6,1.7,4.9,3
		c1.2,1.2,1.2,3.8,2.7,4.8c1.1,0.7,2.9,0.6,4.5,0.7v22.9l1.7-1V57.3c0.4,0.2,0.7,0.5,1.1,0.9v19.9l9-5.2l9.1,5.3V57.6
		c0.2-0.1,0.4-0.3,0.6-0.4c0.1-0.1,0.3-0.1,0.4-0.1v21.8l1.4,0.8V57c1.1,0,2.3,0.2,3.3-0.4C45,55.5,44.7,52.9,45.9,51.8z M27,57.3
		C13.6,57.1,2.8,46,3.1,32.6c0.2-10.8,7.5-19.9,17.5-22.8l2.6-0.6c1.6-0.3,3.2-0.4,4.8-0.4c13.5,0.3,24.2,11.4,23.9,24.8
		C51.6,47,40.5,57.6,27,57.3z"/>
	<path class="st0" d="M23.5,12.6C23.5,12.6,23.5,12.6,23.5,12.6c0.1,0,0.1,0,0.1,0c0-0.1,0.1-0.3,0.1-0.4c0-0.1,0.1-0.2,0.1-0.3
		c0-0.1,0.1-0.2,0.1-0.2c0.1,0,0.1-0.1,0.2-0.1c0.1,0,0.1,0,0.2,0c0.1,0,0.1,0,0.2,0c0.1,0,0.1,0,0.2,0c0.1,0,0.1,0,0.1,0
		c0,0,0,0,0,0c0,0,0,0,0,0c0,0.3,0.1,0.6,0.1,0.9c0,0.3,0.1,0.6,0.1,0.9c0,0.3,0.1,0.5,0.1,0.8c0,0.2,0,0.4,0,0.6c0,0.1,0,0.2,0,0.3
		c0,0.1,0,0.1-0.1,0.2c0,0-0.1,0.1-0.2,0.1c0,0-0.1,0-0.2,0.1c-0.1,0-0.2,0-0.3,0.1c0,0,0,0,0,0.1c0,0,0,0.1,0,0.1c0,0,0,0.1,0,0.1
		c0.1,0,0.3,0,0.5-0.1c0.2,0,0.5-0.1,0.8-0.1c0.3,0,0.5,0,0.7-0.1c0.2,0,0.4,0,0.5,0c0,0,0,0,0-0.1c0,0,0-0.1,0-0.1c0,0,0-0.1,0-0.1
		c-0.1,0-0.2,0-0.3,0c-0.1,0-0.2,0-0.2,0c-0.1,0-0.1,0-0.1-0.1c0,0-0.1-0.1-0.1-0.1c0,0,0-0.1,0-0.1c0-0.1,0-0.2,0-0.3
		c0-0.1,0-0.3-0.1-0.5c0-0.2,0-0.4-0.1-0.6c0-0.2,0-0.4-0.1-0.7c0-0.2,0-0.4-0.1-0.6c0-0.2,0-0.4-0.1-0.6c0,0,0,0,0,0c0,0,0,0,0,0
		c0,0,0.1,0,0.1,0c0.1,0,0.1,0,0.2,0c0.1,0,0.2,0,0.2,0c0.1,0,0.2,0,0.2,0c0.1,0,0.1,0,0.2,0c0,0,0.1,0.1,0.1,0.2
		c0,0.1,0.1,0.2,0.1,0.3c0,0.1,0.1,0.2,0.1,0.4c0,0,0,0,0.1,0c0,0,0.1,0,0.1,0c0,0,0.1,0,0.1,0c0,0,0,0,0.1,0c0-0.2,0-0.3,0-0.5
		c0-0.2,0-0.3,0-0.5c0-0.1,0-0.3,0-0.4c0,0,0,0,0,0c0,0,0,0,0,0c-0.1,0-0.1,0.1-0.2,0.1c-0.1,0-0.2,0-0.3,0.1c-0.1,0-0.2,0-0.3,0
		l-2.6,0.3c-0.1,0-0.2,0-0.3,0c-0.1,0-0.2,0-0.3,0c0,0,0,0,0,0c0,0,0,0,0,0c0,0.1,0,0.2,0,0.3c0,0.1,0,0.2,0,0.3c0,0.1,0,0.2,0,0.3
		c0,0.1,0,0.2,0,0.3C23.3,12.5,23.3,12.5,23.5,12.6C23.4,12.5,23.4,12.6,23.5,12.6z"/>
	<path class="st0" d="M46.5,33.6c-0.1-0.2-0.3-0.3-0.4-0.5c-0.1-0.2-0.3-0.3-0.4-0.5c0,0-0.1,0-0.1,0c0,0-0.1,0-0.1,0
		c0,0.1,0,0.1,0,0.2c0,0.1,0,0.2,0,0.3c0,0.2,0,0.4,0,0.6c0,0.2,0,0.4-0.1,0.6c0,0.2,0,0.4,0,0.6c0,0.2,0,0.3,0,0.5
		c0,0.1,0,0.2,0,0.3c0,0.1,0,0.1,0,0.1c0,0,0.1,0.1,0.2,0.1c0.1,0,0.2,0.1,0.3,0.1c0.1,0,0.2,0.1,0.3,0.1c0.1,0,0.2,0.1,0.3,0.1
		c0.1,0,0.2,0.1,0.2,0.1c0,0,0,0,0.1-0.1c0,0,0-0.1,0.1-0.1c0,0,0-0.1,0-0.1c-0.2-0.1-0.3-0.2-0.4-0.3c-0.1-0.1-0.2-0.2-0.2-0.2
		c0-0.1-0.1-0.1-0.1-0.2c0-0.1,0-0.2,0-0.3c0-0.1,0-0.2,0-0.3c0-0.1,0-0.2,0-0.3c0-0.1,0-0.2,0-0.3c0-0.1,0-0.1,0-0.2c0,0,0,0,0,0
		c0,0,0,0,0,0c0.1,0.1,0.1,0.2,0.2,0.3c0.1,0.1,0.2,0.2,0.2,0.3c0.1,0.1,0.2,0.2,0.3,0.4c0.2,0.2,0.4,0.4,0.5,0.5
		c0.2,0.1,0.3,0.2,0.5,0.3c0.2,0.1,0.3,0.1,0.5,0.1c0.2,0,0.4,0,0.6-0.1c0.2-0.1,0.3-0.1,0.5-0.3c0.1-0.1,0.2-0.3,0.3-0.4
		c0.1-0.2,0.1-0.3,0.1-0.5c0-0.2,0-0.4-0.1-0.7c-0.1-0.2-0.2-0.4-0.4-0.6c-0.2-0.2-0.3-0.4-0.5-0.5c0,0,0,0-0.1,0
		c0,0-0.1,0.1-0.1,0.1c0,0,0,0.1,0,0.1c0.2,0.2,0.3,0.4,0.4,0.5c0.1,0.2,0.1,0.3,0.1,0.5c0,0.2-0.1,0.3-0.2,0.5
		c-0.1,0.1-0.2,0.2-0.4,0.3c-0.2,0.1-0.3,0.1-0.5,0.1c-0.2,0-0.3,0-0.5-0.1c-0.2-0.1-0.3-0.1-0.5-0.2c-0.2-0.1-0.3-0.2-0.4-0.3
		C46.9,33.9,46.7,33.8,46.5,33.6z"/>
	<path class="st0" d="M49.3,38.5c-0.1-0.2-0.3-0.4-0.4-0.6c-0.2-0.2-0.4-0.3-0.6-0.4c-0.2-0.1-0.5-0.2-0.7-0.3
		c-0.3-0.1-0.6-0.1-0.9-0.2c-0.3,0-0.5,0-0.8,0c-0.2,0.1-0.5,0.1-0.6,0.3c-0.1,0.1-0.2,0.2-0.3,0.4c-0.1,0.1-0.2,0.3-0.2,0.5
		c0,0.1,0,0.2,0,0.3c0,0.1,0,0.2,0,0.4c0,0.1,0.1,0.2,0.1,0.4c0.1,0.2,0.2,0.5,0.4,0.6c0.2,0.2,0.4,0.3,0.7,0.5
		c0.3,0.1,0.6,0.2,0.9,0.3c0.3,0.1,0.6,0.1,0.8,0.1c0.2,0,0.5,0,0.6,0c0.2,0,0.4-0.1,0.5-0.2c0.1,0,0.2-0.1,0.3-0.2
		c0.1-0.1,0.2-0.2,0.3-0.3c0.1-0.1,0.1-0.3,0.2-0.5c0-0.1,0.1-0.3,0.1-0.4c0-0.1,0-0.3,0-0.4C49.4,38.7,49.3,38.6,49.3,38.5z
		 M49.1,39.5c0,0.2-0.2,0.3-0.3,0.4c-0.2,0.1-0.4,0.1-0.8,0.1c-0.3,0-0.7-0.1-1.2-0.2c-0.3-0.1-0.6-0.2-0.8-0.2
		c-0.2-0.1-0.4-0.1-0.5-0.2c-0.1-0.1-0.2-0.1-0.3-0.2C45.1,39,45,38.9,45,38.9c0,0,0-0.1,0-0.2c0-0.1,0-0.1,0-0.2
		c0-0.2,0.2-0.3,0.4-0.4c0.2-0.1,0.5-0.1,0.8-0.1c0.3,0,0.8,0.1,1.3,0.2c0.4,0.1,0.8,0.3,1.1,0.4c0.3,0.1,0.5,0.3,0.5,0.4
		c0,0,0.1,0.1,0.1,0.2C49.1,39.4,49.1,39.4,49.1,39.5z"/>
	<path class="st0" d="M6.6,25.8C6.7,25.8,6.7,25.8,6.6,25.8c0.1-0.1,0.2-0.1,0.2-0.2c0-0.1,0.1-0.1,0.1-0.2c0,0,0.1-0.1,0.1-0.1
		c0,0,0.1,0,0.1,0c0.1,0,0.1,0,0.2,0c0.1,0,0.2,0.1,0.3,0.1c0.1,0,0.3,0.1,0.4,0.2c0.2,0.1,0.4,0.1,0.5,0.2c0.2,0.1,0.4,0.2,0.6,0.2
		c0.2,0.1,0.4,0.2,0.6,0.3c0.2,0.1,0.4,0.2,0.6,0.2c0.2,0.1,0.3,0.1,0.5,0.2c0.1,0.1,0.3,0.1,0.4,0.2c0.1,0,0.2,0.1,0.2,0.1
		c0.1,0,0.1,0.1,0.1,0.1c0,0.1,0,0.1,0,0.2c0,0.1,0,0.1,0,0.2c0,0.1-0.1,0.1-0.2,0.2c-0.1,0.1-0.2,0.2-0.3,0.2
		c-0.1,0.1-0.2,0.1-0.3,0.2c0,0,0,0.1,0.1,0.1c0,0,0.1,0.1,0.1,0.1c0,0,0.1,0.1,0.1,0.1c0,0,0.1,0.1,0.1,0.1c0,0,0,0,0,0
		c0,0,0,0,0.1,0c0,0,0,0,0,0c0.1,0,0.1,0,0.2-0.1c0.1,0,0.1-0.1,0.1-0.2c0-0.1,0.1-0.1,0.1-0.2c0-0.1,0.1-0.3,0.1-0.4
		c0-0.2,0-0.3,0-0.5c0-0.2-0.1-0.3-0.2-0.5c-0.1-0.2-0.2-0.3-0.3-0.5c-0.1-0.2-0.3-0.3-0.5-0.4c-0.2-0.1-0.4-0.2-0.6-0.3
		c-0.1-0.1-0.3-0.1-0.4-0.2c-0.1-0.1-0.3-0.1-0.5-0.2c-0.2-0.1-0.3-0.1-0.5-0.2c-0.2-0.1-0.3-0.1-0.5-0.2c-0.2-0.1-0.3-0.1-0.5-0.2
		c-0.1-0.1-0.3-0.1-0.4-0.2c-0.1,0-0.1-0.1-0.1-0.1c0,0-0.1-0.1-0.1-0.1c0,0,0-0.1,0-0.1c0,0,0-0.1,0-0.2c0-0.1,0-0.1,0-0.2
		c0,0,0,0-0.1,0c0,0-0.1,0-0.1,0c0,0-0.1,0-0.1,0c0,0.1-0.1,0.1-0.1,0.2c0,0.1-0.1,0.2-0.1,0.3c0,0.1-0.1,0.3-0.2,0.4
		c-0.1,0.2-0.1,0.3-0.2,0.4c0,0.1-0.1,0.2-0.1,0.3c0,0.1-0.1,0.1-0.1,0.2c0,0.1-0.1,0.1-0.1,0.2C6.5,25.7,6.5,25.7,6.6,25.8
		C6.6,25.7,6.6,25.8,6.6,25.8z"/>
	<path class="st0" d="M28.4,15.3c0.1,0,0.3,0,0.4,0.1c0.2,0,0.4,0.1,0.6,0.1c0.2,0,0.3,0.1,0.4,0.1c0,0,0,0,0-0.1c0,0,0-0.1,0-0.1
		c0,0,0-0.1,0-0.1c-0.1,0-0.1,0-0.2-0.1c-0.1,0-0.1,0-0.2-0.1c-0.1,0-0.1-0.1-0.1-0.1c0,0,0-0.1,0-0.1c0,0,0-0.1,0-0.1
		c0,0,0-0.1,0.1-0.1c0-0.1,0.1-0.1,0.1-0.2c0-0.1,0.1-0.2,0.1-0.2c0-0.1,0.1-0.2,0.1-0.3c0,0,0,0,0,0c0,0,0,0,0,0l1.2,0.2
		c0,0,0,0,0,0c0,0,0,0,0,0c0,0.1,0,0.1,0,0.2c0,0.1,0,0.2,0,0.3c0,0.1,0,0.2,0,0.3c0,0.1,0,0.2,0,0.2c0,0,0,0,0,0.1c0,0,0,0-0.1,0.1
		c0,0-0.1,0-0.2,0c-0.1,0-0.1,0-0.2,0c0,0,0,0,0,0.1c0,0,0,0.1,0,0.1c0,0,0,0.1,0,0.1c0.1,0,0.2,0,0.3,0c0.1,0,0.2,0,0.3,0.1
		c0.1,0,0.3,0,0.5,0.1c0.3,0,0.5,0.1,0.6,0.1c0.2,0,0.3,0.1,0.4,0.1c0,0,0,0,0,0c0,0,0,0,0-0.1c0,0,0-0.1,0-0.1c0,0,0,0,0-0.1
		c-0.1,0-0.2-0.1-0.3-0.1c-0.1,0-0.1-0.1-0.2-0.1c0-0.1-0.1-0.1-0.1-0.2c0-0.1-0.1-0.2-0.1-0.4c0-0.1-0.1-0.3-0.1-0.4
		c0-0.2-0.1-0.4-0.1-0.6c0-0.2-0.1-0.4-0.1-0.6c0-0.2-0.1-0.4-0.1-0.6c0-0.2-0.1-0.4-0.1-0.5c0-0.2-0.1-0.3-0.1-0.4
		c0-0.1,0-0.1,0-0.2c0-0.1,0-0.2,0-0.2c0,0-0.1,0-0.1,0c-0.1,0-0.1,0-0.2,0c-0.1,0-0.1,0-0.2,0c-0.1,0-0.1,0-0.1,0
		c0,0,0,0.1-0.1,0.2c0,0.1-0.1,0.1-0.1,0.2c0,0.1-0.1,0.1-0.1,0.2c0,0.1-0.1,0.2-0.2,0.3c-0.1,0.1-0.2,0.3-0.2,0.4
		c-0.1,0.2-0.2,0.3-0.3,0.5c-0.1,0.2-0.2,0.4-0.3,0.5c-0.1,0.2-0.2,0.4-0.3,0.5c-0.1,0.2-0.2,0.3-0.3,0.5c-0.1,0.1-0.1,0.2-0.2,0.3
		c-0.1,0.1-0.1,0.1-0.2,0.1c-0.1,0-0.1,0-0.2,0.1c-0.1,0-0.2,0-0.3,0c0,0,0,0,0,0.1c0,0,0,0.1,0,0.1c0,0,0,0.1,0,0.1
		C28.2,15.2,28.3,15.2,28.4,15.3z M30.1,13.5l0.7-1.3c0,0,0,0,0,0c0,0,0,0,0,0c0,0.1,0,0.2,0,0.3c0,0.1,0,0.2,0.1,0.3
		c0,0.1,0,0.2,0.1,0.3c0,0.1,0,0.2,0,0.3c0,0.1,0,0.2,0,0.2c0,0,0,0,0,0c0,0,0,0,0,0c0,0-0.1,0-0.2,0c-0.1,0-0.2,0-0.3-0.1
		c-0.1,0-0.2,0-0.3-0.1C30.2,13.6,30.1,13.5,30.1,13.5C30.1,13.5,30.1,13.5,30.1,13.5C30.1,13.5,30.1,13.5,30.1,13.5z"/>
	<path class="st0" d="M21,50.2c0.1,0,0.1,0,0.2,0.1c0,0,0,0,0,0c0,0,0,0,0-0.1c0,0,0-0.1,0-0.1c0,0,0,0,0-0.1
		C21.3,50,21.1,50,21,49.9c-0.1-0.1-0.3-0.2-0.5-0.2c-0.2-0.1-0.3-0.2-0.4-0.2c-0.1-0.1-0.3-0.2-0.4-0.2c0,0,0,0-0.1,0.1
		c0,0,0,0.1-0.1,0.1c0,0,0,0.1,0,0.1c0.1,0.1,0.1,0.1,0.2,0.1c0.1,0,0.1,0.1,0.1,0.1c0.1,0,0.1,0.1,0.1,0.1c0,0.1,0,0.1,0,0.2
		c0,0.1,0,0.1-0.1,0.2c0,0.1-0.1,0.1-0.1,0.2c0,0.1-0.1,0.2-0.2,0.3c-0.1,0.1-0.1,0.3-0.2,0.4c-0.1,0.1-0.2,0.3-0.2,0.4
		c-0.1,0.2-0.2,0.3-0.2,0.4c-0.1,0.1-0.1,0.3-0.2,0.4c0,0,0,0,0,0c0,0,0,0,0,0c0-0.1,0-0.3-0.1-0.4c0-0.2-0.1-0.4-0.1-0.6
		c0-0.2-0.1-0.5-0.1-0.7c0-0.2-0.1-0.5-0.1-0.7c0-0.2-0.1-0.5-0.1-0.7c0-0.2-0.1-0.4-0.1-0.6c0-0.2-0.1-0.3-0.1-0.4
		c0,0-0.1,0-0.1-0.1c-0.1,0-0.1-0.1-0.2-0.1c-0.1,0-0.1-0.1-0.2-0.1c-0.1,0-0.1-0.1-0.1-0.1c0,0.1-0.1,0.2-0.1,0.3
		c-0.1,0.1-0.1,0.2-0.2,0.3c-0.1,0.1-0.1,0.2-0.2,0.3c-0.2,0.3-0.3,0.6-0.5,0.9c-0.2,0.3-0.3,0.6-0.4,0.8c-0.1,0.2-0.3,0.4-0.4,0.6
		c-0.1,0.1-0.1,0.1-0.1,0.2c0,0-0.1,0.1-0.1,0.1c-0.1,0-0.1,0-0.2,0c-0.1,0-0.1,0-0.2,0c0,0-0.1,0-0.1,0c0,0,0,0,0,0c0,0,0,0,0,0.1
		c0,0,0,0.1,0,0.1c0,0,0,0,0,0.1c0,0,0.1,0,0.2,0.1c0.1,0,0.2,0.1,0.3,0.1c0.1,0,0.2,0.1,0.3,0.2c0.2,0.1,0.4,0.2,0.5,0.3
		c0.1,0.1,0.3,0.1,0.3,0.2c0,0,0,0,0,0c0,0,0,0,0-0.1c0,0,0-0.1,0-0.1c0,0,0,0,0-0.1c-0.1-0.1-0.1-0.1-0.2-0.1
		c-0.1,0-0.1-0.1-0.2-0.1c-0.1-0.1-0.1-0.1-0.1-0.2c0,0,0-0.1,0-0.2c0-0.1,0-0.1,0.1-0.2c0.1-0.1,0.1-0.3,0.2-0.4
		c0.1-0.2,0.2-0.3,0.3-0.5c0.1-0.2,0.2-0.4,0.3-0.6c0.1-0.2,0.2-0.4,0.3-0.6c0,0,0,0,0,0c0,0,0,0,0,0c0,0.1,0.1,0.2,0.1,0.4
		c0,0.2,0.1,0.3,0.1,0.6c0,0.2,0.1,0.4,0.1,0.6c0,0.2,0.1,0.4,0.1,0.7c0,0.2,0.1,0.4,0.1,0.6c0,0.2,0.1,0.4,0.1,0.6
		c0,0.1,0,0.2,0,0.2c0,0.1,0,0.1,0,0.2c0,0,0,0.1,0,0.1c0,0,0.1,0,0.1,0.1c0,0,0.1,0,0.2,0.1c0.1,0,0.1,0.1,0.2,0.1
		c0.2,0.1,0.4,0.2,0.5,0.3c0.2,0.1,0.3,0.2,0.4,0.2c0,0,0,0,0,0c0,0,0,0,0-0.1c0,0,0-0.1,0-0.1c0,0,0,0,0-0.1
		c-0.1-0.1-0.2-0.1-0.2-0.2c-0.1-0.1-0.1-0.1-0.2-0.2c0-0.1-0.1-0.1-0.1-0.2c0-0.1,0-0.1,0-0.2c0-0.1,0-0.1,0.1-0.2
		c0.1-0.2,0.2-0.4,0.3-0.6c0.1-0.2,0.2-0.4,0.3-0.6c0.1-0.2,0.2-0.4,0.3-0.5c0.1-0.2,0.2-0.3,0.3-0.4c0.1-0.1,0.1-0.2,0.2-0.3
		c0.1-0.1,0.1-0.2,0.2-0.2c0.1,0,0.1-0.1,0.2,0C20.9,50.2,21,50.2,21,50.2z"/>
	<path class="st0" d="M12,41.9c0,0,0-0.1-0.1-0.1c0,0-0.1-0.1-0.1-0.1c0-0.1-0.1-0.1-0.1-0.1c0,0,0-0.1-0.1-0.1
		c-0.1,0-0.3,0-0.4,0.1c-0.2,0-0.4,0.1-0.7,0.1c-0.2,0-0.5,0.1-0.7,0.1c-0.3,0-0.5,0.1-0.7,0.1c-0.2,0-0.5,0.1-0.7,0.1
		c-0.2,0-0.4,0-0.5,0c-0.1,0-0.2,0-0.3,0c-0.1,0-0.2,0-0.2,0c-0.1,0-0.1,0-0.2-0.1c0,0-0.1-0.1-0.1-0.1c0-0.1-0.1-0.1-0.1-0.2
		c0,0,0,0-0.1,0c0,0-0.1,0-0.1,0.1c0,0,0,0-0.1,0.1c0,0,0.1,0.1,0.1,0.2c0,0.1,0.1,0.1,0.1,0.2c0.1,0.1,0.1,0.2,0.2,0.3
		c0.1,0.2,0.2,0.3,0.2,0.4c0.1,0.1,0.1,0.2,0.1,0.3c0,0.1,0.1,0.1,0.1,0.2c0,0,0,0,0,0c0,0,0,0,0.1,0c0,0,0.1,0,0.1,0c0,0,0,0,0,0
		c0-0.1-0.1-0.2-0.1-0.2c0-0.1,0-0.1-0.1-0.2c0-0.1,0-0.1,0-0.2c0,0,0.1-0.1,0.1-0.1c0.1,0,0.1,0,0.2-0.1c0.1,0,0.2,0,0.3-0.1
		c0.1,0,0.3,0,0.5-0.1c0.2,0,0.4-0.1,0.5-0.1c0.2,0,0.4,0,0.5-0.1c0.2,0,0.3,0,0.5-0.1c0.1,0,0.2,0,0.3,0c0,0,0,0,0,0c0,0,0,0,0,0
		c0,0.1-0.1,0.1-0.2,0.2c-0.1,0.1-0.2,0.2-0.3,0.3c-0.1,0.1-0.2,0.2-0.3,0.4c-0.1,0.1-0.2,0.3-0.3,0.4c-0.1,0.1-0.2,0.3-0.3,0.4
		C9.2,43.8,9.1,43.9,9,44c-0.1,0.1-0.1,0.2-0.2,0.2c0,0-0.1,0.1-0.1,0.1c0,0-0.1,0-0.1,0c0,0-0.1-0.1-0.1-0.1c0,0-0.1-0.1-0.2-0.2
		c0,0,0,0-0.1,0c0,0,0,0-0.1,0c0,0-0.1,0-0.1,0c0,0,0,0,0,0c0,0,0,0.1,0.1,0.1c0,0.1,0.1,0.1,0.1,0.2c0,0.1,0.1,0.2,0.2,0.3
		c0.1,0.1,0.1,0.2,0.2,0.3c0,0.1,0.1,0.2,0.1,0.2c0,0.1,0.1,0.2,0.1,0.3c0,0.1,0.1,0.2,0.1,0.2c0,0.1,0.1,0.1,0.1,0.2c0,0,0,0,0,0
		c0,0,0.1,0,0.1,0c0,0,0.1,0,0.1,0c0,0,0,0,0,0c0-0.1,0-0.1-0.1-0.2c0,0,0-0.1,0-0.1c0-0.1,0-0.1,0-0.2c0-0.1,0-0.1,0-0.2
		c0-0.1,0.1-0.1,0.1-0.2c0.1-0.1,0.1-0.2,0.2-0.3c0.1-0.1,0.3-0.3,0.4-0.5c0.2-0.2,0.4-0.4,0.6-0.7c0.2-0.2,0.4-0.5,0.7-0.8
		C11.5,42.4,11.8,42.1,12,41.9z"/>
	<path class="st0" d="M15.3,48.5c0.1-0.2,0.2-0.4,0.3-0.5c0.1-0.2,0.1-0.4,0.1-0.6c0-0.2,0-0.4-0.1-0.6c0-0.2-0.1-0.4-0.2-0.6
		c-0.1-0.2-0.3-0.4-0.5-0.6c-0.2-0.2-0.4-0.3-0.6-0.4c-0.2-0.1-0.4-0.2-0.7-0.3c-0.2,0-0.5-0.1-0.8,0c-0.2,0-0.5,0.1-0.7,0.2
		c-0.2,0.1-0.4,0.3-0.6,0.5c-0.2,0.2-0.3,0.4-0.4,0.6c-0.1,0.2-0.2,0.4-0.2,0.6c0,0.2-0.1,0.4,0,0.7c0,0.2,0.1,0.5,0.2,0.7
		c0.1,0.2,0.3,0.4,0.5,0.7c0.2,0.2,0.4,0.3,0.6,0.4c0.2,0.1,0.4,0.2,0.6,0.3c0.2,0.1,0.4,0.1,0.6,0.1c0.2,0,0.4,0,0.6-0.1
		c0.2-0.1,0.4-0.1,0.5-0.2c0.2-0.1,0.3-0.2,0.4-0.4C15.1,48.8,15.2,48.6,15.3,48.5z M14.8,47c0,0.2-0.1,0.3-0.2,0.5
		c-0.1,0.2-0.2,0.3-0.3,0.5c-0.1,0.1-0.2,0.3-0.3,0.4c-0.2,0.2-0.3,0.3-0.5,0.4C13.3,48.9,13.2,49,13,49c-0.2,0.1-0.4,0.1-0.5,0
		c-0.1,0-0.2-0.1-0.3-0.1c-0.1-0.1-0.2-0.1-0.2-0.2c-0.1-0.1-0.2-0.2-0.2-0.3c-0.1-0.1-0.1-0.2-0.1-0.4c0-0.2,0-0.3,0-0.5
		c0-0.2,0.1-0.3,0.2-0.5c0.1-0.2,0.2-0.3,0.3-0.5c0.1-0.2,0.2-0.3,0.4-0.4c0.1-0.2,0.3-0.3,0.5-0.4c0.2-0.1,0.3-0.2,0.5-0.3
		c0.2-0.1,0.3-0.1,0.5-0.1c0.1,0,0.2,0,0.3,0.1c0.1,0,0.2,0.1,0.3,0.2c0.1,0.1,0.2,0.2,0.3,0.3c0.1,0.1,0.1,0.3,0.1,0.4
		C14.9,46.6,14.9,46.8,14.8,47z"/>
	<path class="st0" d="M9.1,21.3c0,0.1,0.1,0.1,0.1,0.1c0.1,0.1,0.1,0.2,0.2,0.3c0.1,0.1,0.2,0.3,0.3,0.4c0.1,0.2,0.2,0.3,0.3,0.5
		c0.1,0.2,0.2,0.3,0.4,0.5c0.1,0.2,0.2,0.3,0.3,0.5c0.1,0.2,0.2,0.3,0.3,0.5c0.1,0.1,0.1,0.2,0.2,0.3c0,0.1,0.1,0.2,0.1,0.2
		c0,0.1,0,0.1,0,0.2c0,0.1-0.1,0.2-0.1,0.3c0,0,0,0,0.1,0.1c0,0,0.1,0,0.1,0.1c0,0,0.1,0,0.1,0c0.1-0.1,0.1-0.2,0.2-0.3
		c0.1-0.1,0.2-0.2,0.2-0.4c0.1-0.2,0.2-0.3,0.3-0.5c0.1-0.1,0.2-0.2,0.2-0.3c0,0,0,0-0.1-0.1c0,0-0.1-0.1-0.1-0.1c0,0-0.1,0-0.1,0
		c0,0-0.1,0.1-0.1,0.1c0,0-0.1,0.1-0.1,0.1c0,0-0.1,0.1-0.1,0.1c0,0-0.1,0-0.1,0c0,0-0.1,0-0.1,0c0,0-0.1-0.1-0.1-0.1
		c0-0.1-0.1-0.1-0.1-0.2c-0.1-0.1-0.1-0.1-0.2-0.2c-0.1-0.1-0.1-0.2-0.2-0.2c0,0,0,0,0-0.1c0,0,0,0,0-0.1l0.7-1c0,0,0,0,0,0
		c0,0,0,0,0,0c0.1,0,0.1,0,0.2,0.1c0.1,0,0.2,0,0.3,0.1c0.1,0,0.2,0.1,0.3,0.1c0.1,0,0.2,0,0.2,0.1c0,0,0,0,0.1,0c0,0,0,0.1,0,0.1
		c0,0,0,0.1,0,0.2c0,0.1-0.1,0.1-0.1,0.2c0,0,0,0,0.1,0.1c0,0,0.1,0,0.1,0.1c0,0,0.1,0,0.1,0c0-0.1,0.1-0.1,0.1-0.2
		c0.1-0.1,0.1-0.2,0.2-0.3c0.1-0.1,0.2-0.2,0.3-0.4c0.1-0.2,0.3-0.4,0.4-0.5c0.1-0.1,0.2-0.2,0.2-0.3c0,0,0,0,0,0c0,0,0,0-0.1-0.1
		c0,0,0,0-0.1,0c0,0,0,0-0.1,0c-0.1,0.1-0.2,0.2-0.2,0.2c-0.1,0.1-0.1,0.1-0.2,0.1c-0.1,0-0.1,0-0.2,0c-0.1,0-0.2,0-0.4-0.1
		c-0.1,0-0.3-0.1-0.4-0.1c-0.2,0-0.4-0.1-0.5-0.1c-0.2,0-0.4-0.1-0.6-0.1c-0.2-0.1-0.4-0.1-0.6-0.2c-0.2,0-0.4-0.1-0.5-0.1
		c-0.2,0-0.3-0.1-0.4-0.1c-0.1,0-0.1,0-0.2-0.1c-0.1,0-0.1,0-0.2-0.1c0,0,0,0.1-0.1,0.1c0,0-0.1,0.1-0.1,0.2c0,0.1-0.1,0.1-0.1,0.2
		c0,0-0.1,0.1-0.1,0.1c0,0,0.1,0.1,0.1,0.1C9,21.2,9,21.3,9.1,21.3z M9.7,21.6C9.7,21.5,9.7,21.5,9.7,21.6c0.1,0,0.2,0,0.3,0.1
		c0.1,0,0.2,0.1,0.3,0.1c0.1,0,0.2,0.1,0.3,0.1c0.1,0,0.2,0.1,0.3,0.1c0.1,0,0.2,0,0.2,0.1c0,0,0,0,0,0c0,0,0,0,0,0
		c0,0,0,0.1-0.1,0.2c0,0.1-0.1,0.1-0.2,0.2c-0.1,0.1-0.1,0.2-0.2,0.2c0,0.1-0.1,0.1-0.1,0.1c0,0,0,0,0,0c0,0,0,0,0,0L9.7,21.6
		C9.7,21.6,9.7,21.6,9.7,21.6z"/>
	<path class="st0" d="M7.2,38.7c0.2,0,0.4,0.1,0.6,0.1c0.2,0,0.4,0.1,0.6,0.1C8.7,39,8.9,39,9.1,39c0.2,0,0.4,0.1,0.5,0.1
		c0.1,0,0.2,0.1,0.3,0.1c0.1,0,0.1,0.1,0.2,0.1c0.1,0,0.1,0.1,0.1,0.2c0,0.1,0.1,0.2,0.1,0.3c0,0,0,0,0.1,0c0,0,0.1,0,0.1,0
		c0,0,0.1,0,0.1,0c0-0.1-0.1-0.2-0.1-0.4c0-0.1-0.1-0.3-0.1-0.4c0-0.2-0.1-0.4-0.1-0.6c0-0.2,0-0.3-0.1-0.4c0,0,0,0-0.1,0
		c0,0-0.1,0-0.1,0c0,0-0.1,0-0.1,0c0,0.1,0,0.1,0,0.2c0,0.1,0,0.1,0,0.2c0,0.1,0,0.1,0,0.1c0,0,0,0.1-0.1,0.1c0,0-0.1,0-0.1,0
		c0,0-0.1,0-0.1,0c-0.1,0-0.1,0-0.2,0c-0.1,0-0.2,0-0.3,0c-0.1,0-0.2,0-0.3,0c0,0,0,0-0.1,0c0,0,0,0,0,0l-0.2-1.2c0,0,0,0,0,0
		c0,0,0,0,0,0c0.1,0,0.1-0.1,0.2-0.1C8.8,37.1,8.9,37,9,37c0.1-0.1,0.2-0.1,0.2-0.1c0.1,0,0.1-0.1,0.2-0.1c0,0,0,0,0.1,0
		c0,0,0.1,0,0.1,0.1c0,0,0.1,0.1,0.1,0.1c0,0.1,0.1,0.1,0.1,0.2c0,0,0,0,0.1,0c0,0,0.1,0,0.1,0c0,0,0.1,0,0.1,0c0-0.1,0-0.2-0.1-0.3
		c0-0.1-0.1-0.2-0.1-0.3c0-0.1-0.1-0.3-0.1-0.4c-0.1-0.2-0.1-0.5-0.1-0.6c0-0.2-0.1-0.3-0.1-0.4c0,0,0,0-0.1,0c0,0-0.1,0-0.1,0
		c0,0-0.1,0-0.1,0c0,0,0,0,0,0c0,0.1,0,0.2,0,0.3c0,0.1,0,0.2-0.1,0.2c0,0.1-0.1,0.1-0.2,0.2C9.1,35.8,9,35.9,8.8,36
		c-0.1,0.1-0.2,0.1-0.4,0.2c-0.1,0.1-0.3,0.2-0.5,0.3c-0.2,0.1-0.3,0.2-0.5,0.3c-0.2,0.1-0.4,0.2-0.5,0.3c-0.2,0.1-0.3,0.2-0.5,0.3
		c-0.1,0.1-0.3,0.2-0.4,0.2c-0.1,0-0.1,0.1-0.2,0.1c-0.1,0-0.1,0.1-0.2,0.1c0,0,0,0.1,0,0.1c0,0.1,0,0.1,0,0.2c0,0.1,0,0.1,0,0.2
		c0,0.1,0,0.1,0,0.2c0,0,0.1,0,0.2,0c0.1,0,0.1,0,0.2,0c0.1,0,0.1,0,0.2,0c0.1,0,0.2,0,0.3,0C6.9,38.7,7.1,38.7,7.2,38.7z M7.1,38.1
		C7.1,38.1,7.2,38,7.3,38c0.1-0.1,0.2-0.1,0.3-0.2c0.1-0.1,0.2-0.1,0.3-0.2c0.1,0,0.1-0.1,0.2-0.1c0,0,0,0,0,0c0,0,0,0,0,0
		c0,0,0,0.1,0,0.2c0,0.1,0,0.2,0.1,0.3c0,0.1,0,0.2,0.1,0.3c0,0.1,0,0.1,0,0.2c0,0,0,0,0,0c0,0,0,0,0,0l-1.4-0.2c0,0,0,0,0,0
		c0,0,0,0,0,0C6.9,38.3,7,38.2,7.1,38.1z"/>
	<path class="st0" d="M18.1,13.1C18.1,13.2,18.1,13.2,18.1,13.1c0.1,0,0.2,0,0.3,0c0.1,0,0.1,0,0.2,0c0.1,0,0.1,0,0.1,0
		c0,0,0.1,0,0.1,0.1c0,0,0.1,0.1,0.1,0.2c0,0,0.1,0.1,0.1,0.2c0,0.1,0.1,0.2,0.1,0.3c0,0.1,0.1,0.2,0.1,0.4c0.1,0.1,0.1,0.3,0.2,0.4
		c0.2,0.4,0.3,0.7,0.4,1c0.1,0.3,0.2,0.5,0.2,0.6c0,0.1,0,0.2,0,0.3c0,0.1-0.1,0.1-0.1,0.2c0,0-0.1,0.1-0.2,0.1
		c-0.1,0-0.2,0.1-0.3,0.2c0,0,0,0,0,0.1c0,0,0,0.1,0,0.1c0,0,0,0.1,0,0.1c0.1,0,0.2-0.1,0.4-0.2c0.1-0.1,0.3-0.1,0.4-0.2
		c0.1-0.1,0.3-0.1,0.4-0.2c0.4-0.1,0.7-0.3,1-0.4c0.3-0.1,0.6-0.2,0.9-0.3c0.1,0,0.2-0.1,0.2-0.1c0,0,0.1-0.1,0.1-0.1c0,0,0,0,0-0.1
		c0-0.1,0-0.1,0-0.2c0-0.1,0-0.2,0-0.2c0-0.1,0-0.2,0-0.3c0-0.1,0-0.2,0-0.2c0-0.1,0-0.1,0-0.2c0,0,0,0-0.1,0c0,0-0.1,0-0.1,0
		c0,0-0.1,0-0.1,0c0,0.1,0,0.2,0,0.3c0,0.1,0,0.2,0,0.3c0,0.1,0,0.2-0.1,0.2c0,0.1-0.1,0.1-0.1,0.2c0,0-0.1,0.1-0.1,0.1
		c-0.1,0-0.1,0.1-0.2,0.1c-0.1,0-0.2,0.1-0.3,0.1c-0.1,0-0.2,0.1-0.3,0.1c-0.1,0-0.2,0.1-0.2,0.1c-0.1,0-0.1,0-0.2,0
		c-0.1,0-0.1,0-0.1,0c0,0-0.1-0.1-0.1-0.1l-0.5-1.2c0,0,0,0,0,0c0,0,0,0,0,0c0.1,0,0.1,0,0.2-0.1c0.1,0,0.2-0.1,0.3-0.1
		c0.1,0,0.2-0.1,0.2-0.1c0.1,0,0.1,0,0.2-0.1c0.1,0,0.1,0,0.2,0c0,0,0.1,0,0.1,0.1c0,0,0,0,0,0.1c0,0,0,0,0,0.1c0,0,0.1,0.1,0.1,0.1
		c0,0,0,0,0.1,0c0,0,0.1,0,0.1,0c0,0,0.1,0,0.1,0c0,0,0,0,0.1,0c0-0.1-0.1-0.1-0.1-0.2c0-0.1-0.1-0.2-0.1-0.2c0-0.1-0.1-0.2-0.1-0.2
		c0-0.1-0.1-0.2-0.1-0.2c0-0.1-0.1-0.2-0.1-0.2c0-0.1,0-0.1-0.1-0.2c0,0,0,0-0.1,0c0,0-0.1,0-0.1,0c0,0-0.1,0-0.1,0c0,0,0,0-0.1,0
		c0,0.1,0,0.1,0,0.1c0,0,0,0.1,0,0.1c0,0.1,0,0.1,0,0.2c0,0-0.1,0.1-0.1,0.1c-0.1,0-0.1,0.1-0.2,0.1c-0.1,0-0.2,0.1-0.2,0.1
		c-0.1,0-0.2,0.1-0.2,0.1c-0.1,0-0.1,0.1-0.2,0.1c0,0,0,0,0,0c0,0,0,0,0,0c-0.1-0.2-0.2-0.4-0.3-0.7c-0.1-0.2-0.2-0.4-0.2-0.7
		c0,0,0,0,0-0.1c0,0,0,0,0-0.1c0,0,0,0,0,0c0,0,0.1,0,0.1-0.1c0.1,0,0.1-0.1,0.2-0.1c0.1,0,0.2-0.1,0.3-0.1c0.1,0,0.2-0.1,0.2-0.1
		c0.1,0,0.1,0,0.2-0.1c0.1,0,0.1,0,0.2,0c0.1,0,0.1,0,0.2,0.1c0,0,0.1,0.1,0.1,0.2c0,0.1,0.1,0.1,0.1,0.3c0,0,0,0,0.1,0
		c0,0,0.1,0,0.1,0c0,0,0.1,0,0.1,0c0,0,0,0,0,0c0-0.1-0.1-0.2-0.1-0.3c0-0.1-0.1-0.2-0.1-0.3c0-0.1,0-0.2-0.1-0.3c0-0.1,0-0.1,0-0.2
		c0,0,0,0,0,0c0,0,0,0,0,0c-0.1,0-0.1,0.1-0.2,0.1c-0.1,0-0.2,0.1-0.3,0.1c-0.1,0-0.2,0.1-0.3,0.1l-1.4,0.5c-0.1,0-0.2,0.1-0.4,0.1
		c-0.1,0-0.2,0.1-0.4,0.1c-0.1,0-0.2,0.1-0.3,0.1c0,0,0,0,0,0.1C18.1,13,18.1,13.1,18.1,13.1z"/>
	<path class="st0" d="M6.7,34.5c0.2,0.1,0.4,0.1,0.6,0.1c0.5,0,1-0.1,1.3-0.2c0.4-0.2,0.6-0.5,0.8-0.8c0.2-0.4,0.3-0.8,0.3-1.4
		c0-0.2,0-0.3,0-0.5c0-0.1,0-0.3-0.1-0.4c0-0.1,0-0.2-0.1-0.3c0,0-0.1-0.1-0.2-0.2c-0.1-0.1-0.2-0.1-0.3-0.2
		c-0.1-0.1-0.2-0.1-0.3-0.2c-0.1-0.1-0.2-0.1-0.3-0.1c0,0,0,0-0.1,0.1c0,0,0,0.1-0.1,0.1c0,0,0,0.1,0,0.1c0.1,0.1,0.2,0.1,0.3,0.2
		C8.9,30.9,9,30.9,9,31c0.1,0.1,0.1,0.1,0.2,0.2c0.1,0.1,0.1,0.2,0.2,0.3c0,0.1,0,0.2,0,0.4c0,0.2-0.1,0.5-0.2,0.6
		C9.2,32.7,9,32.9,8.9,33c-0.1,0.1-0.3,0.2-0.5,0.3c-0.2,0.1-0.4,0.1-0.6,0.2c-0.2,0-0.4,0-0.6,0c-0.4,0-0.8-0.1-1-0.2
		C6,33.2,5.8,33,5.6,32.8c-0.1-0.2-0.2-0.5-0.2-0.7c0-0.2,0-0.3,0.1-0.4c0-0.1,0.1-0.3,0.2-0.4C5.7,31.1,5.8,31,5.9,31
		c0.1-0.1,0.2-0.1,0.3-0.1c0.1,0,0.2,0,0.4-0.1c0,0,0,0,0,0c0,0,0-0.1,0-0.1c0,0,0-0.1,0-0.1c0,0,0,0,0-0.1c-0.1,0-0.2,0-0.3,0
		c-0.1,0-0.2,0-0.3,0c-0.1,0-0.2,0-0.3-0.1c-0.1,0-0.2,0-0.2,0c0,0.1,0,0.2-0.1,0.4c0,0.1-0.1,0.3-0.1,0.5c0,0.2,0,0.4-0.1,0.6
		c0,0.3,0,0.6,0,0.8c0,0.2,0.1,0.5,0.2,0.7c0.1,0.2,0.2,0.4,0.3,0.5C5.8,34,6,34.1,6.2,34.2C6.3,34.3,6.5,34.4,6.7,34.5z"/>
	<path class="st0" d="M47.3,43.2C47.3,43.2,47.3,43.2,47.3,43.2c-0.1-0.1-0.1-0.1-0.1-0.1c0,0-0.1,0.1-0.1,0.1c0,0-0.1,0.1-0.1,0.1
		c0,0-0.1,0.1-0.1,0.1c0,0.1-0.1,0.1-0.1,0.1c-0.1,0-0.1,0-0.2,0c-0.1,0-0.2-0.1-0.3-0.1c-0.1-0.1-0.3-0.2-0.4-0.2
		c-0.2-0.1-0.4-0.2-0.5-0.3c-0.2-0.1-0.4-0.2-0.5-0.3c-0.2-0.1-0.3-0.2-0.5-0.3c-0.1-0.1-0.3-0.2-0.4-0.2c-0.1,0-0.1-0.1-0.2-0.1
		c-0.1,0-0.1-0.1-0.1-0.2c0-0.1,0-0.1,0-0.2c0-0.1,0.1-0.1,0.1-0.2c0-0.1,0.1-0.2,0.1-0.3c0,0,0,0-0.1-0.1c0,0-0.1,0-0.1-0.1
		c0,0-0.1,0-0.1,0c-0.1,0.1-0.2,0.3-0.3,0.5c-0.1,0.2-0.2,0.4-0.3,0.6c-0.1,0.2-0.2,0.4-0.4,0.6c-0.1,0.2-0.2,0.4-0.3,0.5
		c0,0,0,0,0,0c0,0,0,0,0.1,0.1c0,0,0.1,0,0.1,0c0,0,0,0,0.1,0c0-0.1,0.1-0.1,0.1-0.2c0-0.1,0.1-0.1,0.2-0.2c0,0,0.1-0.1,0.2-0.1
		c0.1,0,0.1,0,0.2,0c0.1,0,0.1,0.1,0.2,0.1c0.1,0.1,0.2,0.1,0.4,0.2c0.1,0.1,0.3,0.2,0.5,0.3c0.2,0.1,0.3,0.2,0.5,0.3
		c0.2,0.1,0.3,0.2,0.5,0.3c0.1,0.1,0.3,0.2,0.4,0.2c0.2,0.1,0.4,0.2,0.5,0.3c0.1,0.1,0.2,0.1,0.3,0.2c0.1,0.1,0.2,0.1,0.2,0.2
		c0.1,0,0.1,0.1,0.2,0.1c0,0,0,0,0,0c0,0,0,0,0,0c0,0,0,0,0,0c0-0.1,0-0.2,0.1-0.3c0-0.1,0.1-0.3,0.1-0.4c0-0.1,0.1-0.3,0.1-0.4
		c0.1-0.1,0.1-0.3,0.2-0.4C47.4,43.3,47.4,43.3,47.3,43.2C47.4,43.2,47.4,43.2,47.3,43.2z"/>
	<path class="st0" d="M5.8,28.9C5.8,28.9,5.9,28.9,5.8,28.9c0.1-0.1,0.1-0.1,0.2-0.2c0-0.1,0.1-0.1,0.1-0.2c0-0.1,0.1-0.1,0.1-0.1
		c0.1,0,0.1,0,0.2,0c0.1,0,0.2,0,0.3,0.1c0.1,0,0.3,0.1,0.4,0.1c0.2,0,0.4,0.1,0.6,0.1c0.2,0,0.3,0.1,0.5,0.1c0.2,0,0.3,0.1,0.5,0.1
		c0.2,0,0.3,0.1,0.4,0.1c0.1,0,0.2,0.1,0.3,0.1c0.1,0,0.1,0.1,0.2,0.1c0,0,0.1,0.1,0.1,0.1c0,0,0,0.1,0,0.2c0,0,0,0.1,0,0.2
		c0,0.1,0,0.1,0,0.2c0,0,0,0,0,0c0,0,0.1,0,0.1,0c0,0,0.1,0,0.1,0c0,0,0,0,0.1,0c0-0.1,0-0.2,0.1-0.3c0-0.1,0-0.2,0.1-0.3
		c0-0.1,0.1-0.3,0.1-0.5c0.1-0.2,0.1-0.4,0.2-0.6c0-0.2,0.1-0.3,0.1-0.4c0,0,0,0,0,0c0,0,0,0-0.1,0c0,0-0.1,0-0.1,0c0,0,0,0-0.1,0
		c0,0.1,0,0.1-0.1,0.2c0,0,0,0.1-0.1,0.1c0,0,0,0.1-0.1,0.1c0,0.1-0.1,0.1-0.1,0.1c0,0-0.1,0-0.1,0c0,0-0.1,0-0.1,0
		c-0.1,0-0.2,0-0.4-0.1c-0.2,0-0.3-0.1-0.6-0.1C8.5,28,8.3,27.9,8,27.9c-0.2-0.1-0.4-0.1-0.6-0.1c-0.2,0-0.3-0.1-0.5-0.1
		c-0.1,0-0.2-0.1-0.3-0.1c-0.1,0-0.1,0-0.2-0.1c0,0-0.1,0-0.1-0.1c0,0,0-0.1,0-0.1c0-0.1,0-0.1,0-0.2c0-0.1,0-0.1,0-0.2
		c0,0,0,0-0.1,0c0,0-0.1,0-0.1,0c0,0-0.1,0-0.1,0c0,0.1,0,0.1,0,0.2c0,0.1,0,0.2-0.1,0.3c0,0.1-0.1,0.3-0.1,0.5
		c-0.1,0.2-0.1,0.4-0.2,0.6c0,0.2-0.1,0.3-0.1,0.4c0,0,0,0,0.1,0C5.7,28.9,5.8,28.9,5.8,28.9z"/>
	<path class="st0" d="M13.8,15.8C13.8,15.9,13.8,15.9,13.8,15.8c0.1,0,0.2,0,0.3,0c0.1,0,0.1-0.1,0.2-0.1c0.1,0,0.1,0,0.2,0
		c0.1,0,0.1,0.1,0.2,0.2c0,0.1,0.1,0.1,0.2,0.3c0.1,0.1,0.2,0.2,0.3,0.4c0.1,0.2,0.2,0.3,0.4,0.6c0.1,0.1,0.2,0.2,0.2,0.3
		c0.1,0.1,0.2,0.2,0.2,0.3c0.1,0.1,0.1,0.2,0.2,0.3c0.1,0.1,0.1,0.2,0.2,0.2c0,0.1,0.1,0.1,0.1,0.2c0,0.1,0.1,0.1,0.1,0.2
		c0,0.1,0,0.1-0.1,0.2c0,0-0.1,0.1-0.1,0.1c0,0-0.1,0.1-0.1,0.1c0,0-0.1,0.1-0.1,0.1c0,0,0,0,0,0.1c0,0,0,0.1,0.1,0.1
		c0,0,0,0,0.1,0.1c0.1-0.1,0.2-0.1,0.4-0.2c0.2-0.1,0.3-0.2,0.6-0.4c0.1-0.1,0.2-0.1,0.3-0.2c0.1-0.1,0.2-0.1,0.4-0.2
		c0.1-0.1,0.2-0.2,0.4-0.2c0.1-0.1,0.2-0.2,0.4-0.2c0.1-0.1,0.2-0.1,0.3-0.2c0.1,0,0.1-0.1,0.2-0.1c0,0,0.1-0.1,0.1-0.1
		c0,0,0,0,0-0.1c0-0.1,0-0.1,0-0.2c0-0.1,0-0.2-0.1-0.3c0-0.1-0.1-0.2-0.1-0.3c0-0.1-0.1-0.2-0.1-0.3c0-0.1-0.1-0.1-0.1-0.2
		c0,0,0,0-0.1,0c0,0-0.1,0-0.1,0c0,0-0.1,0-0.1,0c0,0,0,0-0.1,0c0,0.1,0,0.2,0.1,0.3c0,0.1,0,0.2,0,0.3c0,0.1,0,0.2,0,0.3
		c0,0.1,0,0.2-0.1,0.3c0,0.1-0.1,0.1-0.1,0.2c-0.1,0-0.1,0.1-0.2,0.2c-0.1,0.1-0.2,0.1-0.2,0.2c-0.1,0-0.2,0.1-0.2,0.1
		c-0.1,0-0.1,0.1-0.2,0.1c0,0,0,0-0.1,0c0,0-0.1,0-0.1,0c0,0-0.1,0-0.1-0.1c0,0-0.1-0.1-0.2-0.2c-0.1-0.1-0.1-0.2-0.2-0.3
		c-0.1-0.1-0.2-0.3-0.3-0.4c-0.1-0.2-0.2-0.3-0.3-0.5c-0.2-0.3-0.4-0.5-0.5-0.7c-0.1-0.2-0.2-0.3-0.3-0.4c0,0-0.1-0.1-0.1-0.1
		c0,0,0-0.1,0-0.1c0,0,0-0.1,0.1-0.1c0,0,0.1-0.1,0.1-0.1c0,0,0.1-0.1,0.2-0.2c0,0,0,0,0-0.1c0,0,0-0.1-0.1-0.1c0,0,0,0-0.1,0
		c-0.1,0-0.1,0.1-0.2,0.2c-0.1,0.1-0.2,0.1-0.3,0.2c-0.1,0.1-0.2,0.2-0.4,0.3c-0.1,0.1-0.2,0.1-0.3,0.2c-0.1,0.1-0.2,0.1-0.2,0.1
		c-0.1,0-0.1,0.1-0.2,0.1c-0.1,0-0.1,0.1-0.2,0.1C13.7,15.7,13.7,15.7,13.8,15.8C13.7,15.8,13.8,15.8,13.8,15.8z"/>
	<path class="st0" d="M23.6,50.6c-0.1,0-0.2-0.1-0.3-0.1c-0.1,0-0.3-0.1-0.5-0.1c-0.2-0.1-0.4-0.1-0.6-0.2c-0.2-0.1-0.3-0.1-0.4-0.1
		c0,0,0,0,0,0c0,0,0,0,0,0.1c0,0,0,0.1,0,0.1c0,0,0,0,0,0.1c0,0,0.1,0,0.1,0.1c0.1,0,0.1,0,0.1,0.1c0,0,0.1,0,0.1,0.1
		c0.1,0,0.1,0.1,0.1,0.1c0,0,0,0.1,0,0.1c0,0,0,0.1,0,0.1c0,0.1-0.1,0.2-0.1,0.4c0,0.2-0.1,0.3-0.2,0.5c-0.1,0.2-0.1,0.4-0.2,0.7
		c-0.1,0.2-0.1,0.4-0.2,0.6c0,0.2-0.1,0.3-0.1,0.4c0,0.1-0.1,0.2-0.1,0.3c0,0.1,0,0.1-0.1,0.2c0,0,0,0.1-0.1,0.1c0,0-0.1,0-0.1,0
		c-0.1,0-0.1,0-0.2,0c-0.1,0-0.1,0-0.2,0c0,0,0,0,0,0.1c0,0,0,0.1,0,0.1c0,0,0,0.1,0,0.1c0.1,0,0.1,0,0.2,0.1c0.1,0,0.2,0,0.3,0.1
		c0.1,0,0.3,0.1,0.5,0.1c0.2,0.1,0.4,0.1,0.6,0.2c0.2,0.1,0.3,0.1,0.4,0.1c0,0,0,0,0-0.1c0,0,0-0.1,0-0.1c0,0,0-0.1,0-0.1
		c-0.1,0-0.1-0.1-0.2-0.1c-0.1,0-0.1-0.1-0.2-0.1c-0.1,0-0.1-0.1-0.1-0.1c0-0.1,0-0.1,0-0.2c0-0.1,0-0.2,0.1-0.3
		c0-0.1,0.1-0.3,0.1-0.4c0-0.2,0.1-0.4,0.2-0.6c0-0.2,0.1-0.3,0.1-0.5c0-0.2,0.1-0.3,0.1-0.5c0-0.2,0.1-0.3,0.1-0.4
		c0-0.1,0.1-0.2,0.1-0.3c0-0.1,0.1-0.1,0.1-0.2c0,0,0.1-0.1,0.1-0.1c0,0,0.1,0,0.2,0c0,0,0.1,0,0.2,0c0.1,0,0.1,0,0.2,0c0,0,0,0,0,0
		c0,0,0,0,0-0.1c0,0,0-0.1,0-0.1c0,0,0,0,0-0.1C23.8,50.6,23.7,50.6,23.6,50.6z"/>
	<path class="st0" d="M44.9,47.8c0.1-0.1,0.2-0.1,0.2-0.2c-0.1-0.1-0.1-0.2-0.2-0.3c-0.1-0.1-0.1-0.2-0.2-0.3
		c-0.1-0.1-0.1-0.2-0.2-0.4c-0.1-0.1-0.1-0.2-0.2-0.3c0,0-0.1,0-0.1,0c0,0-0.1,0-0.1,0.1c0,0-0.1,0-0.1,0.1c0.1,0.2,0.1,0.3,0.1,0.4
		c0,0.1,0,0.2,0,0.3c0,0.1-0.1,0.1-0.1,0.2c-0.1,0.1-0.1,0.2-0.2,0.3c-0.1,0.1-0.2,0.2-0.3,0.3c-0.1,0.1-0.2,0.2-0.3,0.3
		c-0.1,0.1-0.2,0.2-0.3,0.3c-0.1,0.1-0.2,0.2-0.2,0.2c0,0,0,0,0,0c0,0,0,0,0,0c-0.1-0.1-0.1-0.3-0.2-0.5c-0.1-0.2-0.2-0.4-0.2-0.7
		c-0.1-0.2-0.2-0.5-0.3-0.8c-0.1-0.3-0.2-0.5-0.3-0.8c-0.1-0.3-0.2-0.5-0.2-0.7c-0.1-0.2-0.1-0.4-0.2-0.6c0,0,0,0,0,0c0,0,0,0,0,0
		c0,0,0,0,0,0c0,0-0.1,0-0.1,0c0,0-0.1,0-0.1,0.1c0,0-0.1,0-0.1,0.1c0,0,0,0,0,0c0,0,0,0,0,0c0,0.1,0.1,0.2,0.2,0.4
		c0.1,0.2,0.1,0.4,0.2,0.6c0.1,0.2,0.2,0.5,0.3,0.7c0.1,0.3,0.2,0.5,0.3,0.8c0.1,0.3,0.2,0.5,0.3,0.8c0.1,0.3,0.2,0.5,0.3,0.7
		c0.1,0.2,0.2,0.4,0.2,0.6c0.1,0.2,0.1,0.3,0.2,0.4c0,0,0,0,0,0c0,0,0,0,0.1,0c0,0,0,0,0,0c0-0.1,0.1-0.1,0.2-0.2
		c0.1-0.1,0.1-0.2,0.2-0.2c0.1-0.1,0.1-0.2,0.2-0.2l1.2-1.2C44.7,48,44.8,47.9,44.9,47.8z"/>
	<path class="st0" d="M42.2,27c-0.2,0-0.5,0.1-0.7,0.1c1.3,2.9,1.6,6.1,1,9.2c-1.5,7-7.8,12.1-15,12.1c-1,0-2.1-0.1-3.1-0.3
		c-4-0.8-7.5-3.2-9.7-6.6c-2.2-3.4-3-7.4-2.2-11.4c1.5-7,7.8-12.1,15-12.1c1,0,2.1,0.1,3.1,0.3c1,0.2,2,0.5,2.9,0.9
		c0-0.2,0-0.5,0.1-0.7c-0.9-0.4-1.8-0.7-2.8-0.9c-1.1-0.2-2.2-0.3-3.3-0.3c-7.5,0-14.1,5.3-15.6,12.6c-0.9,4.1-0.1,8.4,2.3,11.9
		c2.3,3.6,5.9,6,10.1,6.9c1.1,0.2,2.2,0.3,3.3,0.3c7.5,0,14.1-5.3,15.6-12.6C43.8,33.2,43.5,29.9,42.2,27z"/>
	<path class="st0" d="M32.5,28c-0.7,3.8-0.6,6.5-0.1,8.5c-0.2-0.3-0.5-0.5-0.7-0.8c-0.6-0.6-1.2-1.3-1.9-2.1l-2.9-3.3
		c-0.2-0.2-0.5-0.6-0.9-1c-0.4-0.4-0.8-0.9-1.2-1.4c-0.4-0.5-0.9-1-1.3-1.6c-0.4-0.5-0.8-1-1.1-1.5c-0.3-0.5-0.5-0.8-0.7-1.2
		c-0.2,0-0.4,0.1-0.7,0.1c-0.2,0-0.5,0-0.7,0c-0.1,0-0.3,0-0.6,0c-0.3,0-0.5,0-0.8,0c-0.3,0-0.6,0-1,0c-0.3,0-0.7,0-1-0.1
		c-0.1,0-0.1,0.1-0.2,0.2c0,0.1,0,0.2,0,0.3c0,0.1,0.1,0.2,0.1,0.3l0.5,0.1c0.4,0,0.7,0.1,1,0.2c0.3,0.1,0.6,0.3,0.8,0.5
		c0.2,0.2,0.4,0.5,0.5,0.7c0.1,0.2,0.2,0.5,0.2,0.7c0,0.2,0,0.5,0,0.8V36c0,0.3,0,0.7,0,1.1c0,0.4,0,0.9,0,1.4c0,0.5,0,1-0.1,1.5
		c0,0.5-0.1,0.9-0.1,1.3c0,0.4-0.1,0.7-0.2,0.9c-0.1,0.2-0.2,0.3-0.5,0.4c-0.2,0.1-0.5,0.2-0.9,0.2l-0.8,0.1
		c-0.1,0.1-0.1,0.1-0.1,0.2c0,0.1,0,0.2,0,0.3c0,0.1,0.1,0.2,0.1,0.2c0.3,0,0.7,0,1-0.1c0.3,0,0.7,0,1,0c0.3,0,0.7,0,1.1,0
		c0.6,0,1.1,0,1.7,0c0.6,0,1.2,0,1.9,0.1c0.1-0.1,0.2-0.2,0.2-0.3c0-0.1,0-0.3-0.1-0.4l-0.9-0.1c-0.4,0-0.7-0.1-1-0.2
		c-0.3-0.1-0.5-0.2-0.6-0.4c-0.1-0.2-0.2-0.5-0.3-0.9c-0.1-0.4-0.1-0.8-0.2-1.3c0-0.5-0.1-1-0.1-1.5c0-0.5,0-1,0-1.4
		c0-0.4,0-0.8,0-1.1v-6.5c0-0.5,0-0.8,0-1.2c0-0.3,0.1-0.6,0.1-0.8h0.1c0.1,0.1,0.3,0.3,0.5,0.6c0.2,0.3,0.5,0.5,0.7,0.9
		c0.3,0.3,0.5,0.6,0.8,1c0.3,0.3,0.5,0.6,0.8,0.9c0.2,0.3,0.4,0.5,0.6,0.7l7,7.9c0.7,0.7,1.2,1.4,1.7,1.9c0.5,0.5,0.8,1,1.1,1.3
		c0.3,0.3,0.5,0.6,0.7,0.8c0.2,0.2,0.3,0.4,0.4,0.5c0.2,0,0.3,0,0.4-0.1c0.1,0,0.1-0.1,0.1-0.2c0,0.3,0-0.1,0,0c0,0,0,0,0,0
		c0,0,0,0,0,0c0-0.2,0-0.4,0-0.8c0-0.2,0-0.3,0-0.5c0-0.2,0-0.3,0-0.5c0-3-2.8-5.4-2.4-12.4c0.1-1.2,0.9-4.9,2.7-6.5
		c2.6-2.2,5.5-2.2,8.8-0.8c-4-1.3-6.8-0.6-8.8,1.5c2.4-1.2,4.8-1.6,7.4-0.4c-3.2-0.9-5.3-0.2-7.2,1c2.6,3.1,7.8,2.8,10.8-0.8
		c-2-2.1-4.9-3.7-8.5-2.9C35.6,21.6,33.2,24,32.5,28z"/>
	<path class="st0" d="M35.8,16.5c-1.7,1.6-1.5,3.3,0,5C37.4,19.9,37.1,18.3,35.8,16.5z"/>
</g>
</svg>
