<svg xmlns="http://www.w3.org/2000/svg" width="1323" height="3019" viewBox="0 0 1323 3019">
  <metadata><?xpacket begin="﻿" id="W5M0MpCehiHzreSzNTczkc9d"?>
<x:xmpmeta xmlns:x="adobe:ns:meta/" x:xmptk="Adobe XMP Core 5.6-c138 79.159824, 2016/09/14-01:09:01        ">
   <rdf:RDF xmlns:rdf="http://www.w3.org/1999/02/22-rdf-syntax-ns#">
      <rdf:Description rdf:about=""/>
   </rdf:RDF>
</x:xmpmeta>
                                                                                                    
                                                                                                    
                                                                                                    
                                                                                                    
                                                                                                    
                                                                                                    
                                                                                                    
                                                                                                    
                                                                                                    
                                                                                                    
                                                                                                    
                                                                                                    
                                                                                                    
                                                                                                    
                                                                                                    
                                                                                                    
                                                                                                    
                                                                                                    
                                                                                                    
                                                                                                    
                           
<?xpacket end="w"?></metadata>
<defs>
    <style>
      .cls-1 {
        fill: #fff;
        fill-rule: evenodd;
      }
    </style>
  </defs>
  <path id="White_Wave_-_Inner_Page" data-name="White Wave - Inner Page" class="cls-1" d="M3601,3985H2078.88c-8.08-13.62,11.69-109.9,26-188s22.78-76.36,5-202,9.28-101.22-1-176c-14.08-102.43-9.44-201.29,0-236,8.94-32.87-3.23-134.25,4-171,8.32-42.3,22.53-96.28,0-143-22.91-47.52-27.74-60.61-3-118s-8.63-56.05,26.01-101c18.21-23.64,33.14-40.08,10.11-90s-64.36-134.57-26-243-53.69-270.14-27.12-337,57.66-106.32,29-174-31.26-96.68-25.58-118.76c7.98-31.05-15.85-92.92-14.55-146.09,1.31-53.28,16.95-47.38,16.95-85.65s-15.64-32.37-16.95-85.65c-1.3-53.17,22.53-115.04,14.55-146.09-5.68-22.08-3.07-51.08,25.58-118.76s-2.43-107.141-29-174,65.48-228.574,27.12-337,2.97-193.082,26-243,8.1-66.364-10.11-90c-34.64-44.947-1.27-43.608-26.01-101s-19.91-70.479,3-118c22.53-46.72,8.32-100.7,0-143-7.23-36.747,4.94-138.134-4-171-9.44-34.714-14.08-133.574,0-236,10.28-74.776-16.78-50.361,1-176s9.31-123.9-5-202-34.08-174.38-26-188H3601V3985Z" transform="translate(-2077 -673)"/>
</svg>
